<svg xmlns="http://www.w3.org/2000/svg" width="132.146" height="132.146" viewBox="0 0 132.146 132.146">
  <g id="botella-de-plastico" transform="translate(-1 -1)">
    <g id="Grupo_55444" data-name="Grupo 55444" transform="translate(3.131 3.131)">
      <g id="Grupo_55435" data-name="Grupo 55435" transform="translate(74.598)">
        <path id="Trazado_105175" data-name="Trazado 105175" d="M62.577,2h4.263A4.275,4.275,0,0,1,71.1,6.263v8.526a4.275,4.275,0,0,1-4.263,4.263H41.263A4.263,4.263,0,0,1,37,14.788V6.263A4.275,4.275,0,0,1,41.263,2H62.577Z" transform="translate(-37 -2)" fill="#26ccda"/>
      </g>
      <g id="Grupo_55436" data-name="Grupo 55436" transform="translate(57.547 16.54)">
        <path id="Trazado_105176" data-name="Trazado 105176" d="M75.89,10.272A30.686,30.686,0,0,0,98.5,39.876l.831.234H29V38.725A30.706,30.706,0,0,0,48.182,10.272l.107-.512a4.323,4.323,0,0,0,2.025.512Z" transform="translate(-29 -9.76)" fill="#ffe881"/>
      </g>
      <g id="Grupo_55437" data-name="Grupo 55437" transform="translate(53.284 45.505)">
        <path id="Trazado_105177" data-name="Trazado 105177" d="M31.263,24.735V23.35A30.871,30.871,0,0,1,27.831,24.5L27,24.735V43.79A19.184,19.184,0,0,1,37.657,60.969L37.87,97.2h-.213a8.523,8.523,0,0,1-8.526,8.526H88.81A12.8,12.8,0,0,0,101.6,92.94v-68.2Z" transform="translate(-27 -23.35)" fill="#ffe881"/>
      </g>
      <g id="Grupo_55438" data-name="Grupo 55438" transform="translate(63.941 55.416)">
        <path id="Trazado_105178" data-name="Trazado 105178" d="M87.416,30.131V89.81a2.138,2.138,0,0,1-2.131,2.131H32V30.131A2.138,2.138,0,0,1,34.131,28H85.284A2.138,2.138,0,0,1,87.416,30.131Z" transform="translate(-32 -28)" fill="#f57c00"/>
      </g>
      <g id="Grupo_55439" data-name="Grupo 55439" transform="translate(14.92 34.102)">
        <path id="Trazado_105179" data-name="Trazado 105179" d="M51.628,26.526V29.4A30.87,30.87,0,0,1,48.2,30.554l-.831.234V49.843a19.089,19.089,0,0,0-8.526-2H13.263V39.314A4.275,4.275,0,0,0,9,35.051V26.526A8.523,8.523,0,0,1,17.526,18H43.1a8.523,8.523,0,0,1,8.526,8.526Z" transform="translate(-9 -18)" fill="#e6e9ed"/>
      </g>
      <g id="Grupo_55440" data-name="Grupo 55440" transform="translate(27.708 17.051)">
        <path id="Trazado_105180" data-name="Trazado 105180" d="M32.051,14.263V27.051H15V14.263A4.275,4.275,0,0,1,19.263,10h8.526A4.275,4.275,0,0,1,32.051,14.263Z" transform="translate(-15 -10)" fill="#fdd835"/>
      </g>
      <g id="Grupo_55441" data-name="Grupo 55441" transform="translate(4.263 51.153)">
        <path id="Trazado_105181" data-name="Trazado 105181" d="M18.92,38.7v.085H8.263A8.5,8.5,0,0,0,4,39.939V30.263A4.275,4.275,0,0,1,8.263,26h6.394a4.275,4.275,0,0,1,4.263,4.263Z" transform="translate(-4 -26)" fill="#f57c00"/>
      </g>
      <g id="Grupo_55442" data-name="Grupo 55442" transform="translate(0 63.941)">
        <path id="Trazado_105182" data-name="Trazado 105182" d="M6.263,33.151A8.5,8.5,0,0,1,10.526,32H46.759A19.2,19.2,0,0,1,65.941,51.182V87.416a8.523,8.523,0,0,1-8.526,8.526H10.526A8.523,8.523,0,0,1,2,87.416V40.526A8.483,8.483,0,0,1,6.263,33.151ZM55.284,53.314a2.138,2.138,0,0,0,2.131-2.131A10.661,10.661,0,0,0,46.759,40.526H33.971a6.394,6.394,0,1,0,0,12.788Z" transform="translate(-2 -32)" fill="#26ccda"/>
      </g>
      <g id="Grupo_55443" data-name="Grupo 55443" transform="translate(8.526 93.781)">
        <path id="Trazado_105183" data-name="Trazado 105183" d="M52.89,50.263V67.314a4.275,4.275,0,0,1-4.263,4.263H10.263A4.275,4.275,0,0,1,6,67.314V50.263A4.275,4.275,0,0,1,10.263,46H48.628A4.275,4.275,0,0,1,52.89,50.263Z" transform="translate(-6 -46)" fill="#e6e9ed"/>
      </g>
    </g>
    <g id="Grupo_55445" data-name="Grupo 55445" transform="translate(1 1)">
      <path id="Trazado_105187" data-name="Trazado 105187" d="M34.314,35H21.526a8.526,8.526,0,1,0,0,17.051H42.839A4.267,4.267,0,0,0,47.1,47.788,12.8,12.8,0,0,0,34.314,35ZM21.526,47.788a4.263,4.263,0,1,1,0-8.526H34.314a8.537,8.537,0,0,1,8.528,8.526Z" transform="translate(12.577 37.467)"/>
      <path id="Trazado_105188" data-name="Trazado 105188" d="M109.773,21.9a6.384,6.384,0,0,0,4.19-5.979V7.394A6.4,6.4,0,0,0,107.569,1H81.992A6.4,6.4,0,0,0,75.6,7.394V15.92a6.356,6.356,0,0,0,2.112,4.715,28.626,28.626,0,0,1-14.95,24.647A10.646,10.646,0,0,0,52.153,35.1H50.022V24.445a6.4,6.4,0,0,0-6.394-6.394H35.1a6.4,6.4,0,0,0-6.394,6.394V35.1H26.577A10.669,10.669,0,0,0,15.92,45.759v6.394H11.657a6.4,6.4,0,0,0-6.394,6.394v8.581A10.607,10.607,0,0,0,1,75.6v46.89a10.669,10.669,0,0,0,10.657,10.657H118.226a14.937,14.937,0,0,0,14.92-14.92V48.391l-2.4-.652A28.616,28.616,0,0,1,109.773,21.9ZM79.861,7.394a2.134,2.134,0,0,1,2.131-2.131h2.131v8.526h4.263V5.263h4.263v8.526h4.263V5.263h4.263v8.526h4.263V5.263h2.131A2.134,2.134,0,0,1,109.7,7.394V15.92a2.134,2.134,0,0,1-2.131,2.131H81.992a2.134,2.134,0,0,1-2.131-2.131Zm2.044,14.911c.03,0,.058.009.087.009h23.533A32.906,32.906,0,0,0,120.717,47.89h-54A32.906,32.906,0,0,0,81.905,22.305Zm-48.934,2.14A2.134,2.134,0,0,1,35.1,22.314h8.526a2.134,2.134,0,0,1,2.131,2.131V35.1H32.971ZM20.182,45.759a6.4,6.4,0,0,1,6.394-6.394H52.153a6.4,6.4,0,0,1,6.394,6.394v1.388c-.614.213-1.232.42-1.865.595l-2.4.65V65.924a21.216,21.216,0,0,0-6.394-.983H24.445V58.547a6.385,6.385,0,0,0-4.263-6ZM9.526,58.547a2.134,2.134,0,0,1,2.131-2.131h6.394a2.134,2.134,0,0,1,2.131,2.131v6.394H11.657a10.647,10.647,0,0,0-2.131.215ZM64.941,91.575v30.914a6.4,6.4,0,0,1-6.394,6.394H11.657a6.4,6.4,0,0,1-6.394-6.394V75.6A6.4,6.4,0,0,1,11.657,69.2H47.89A17.071,17.071,0,0,1,64.941,86.255Zm63.941,26.651a10.669,10.669,0,0,1-10.657,10.657H67.017a10.554,10.554,0,0,0,1.969-4.263h51.371a4.267,4.267,0,0,0,4.263-4.263V60.679a4.267,4.267,0,0,0-4.263-4.263H69.2a4.267,4.267,0,0,0-4.263,4.263V73.522a21.416,21.416,0,0,0-6.394-5.7V52.153h70.336ZM69.2,120.357V60.679h51.153v59.679Z" transform="translate(-1 -1)"/>
      <path id="Trazado_105189" data-name="Trazado 105189" d="M53,53h4.263v4.263H53Z" transform="translate(57.832 57.832)"/>
      <path id="Trazado_105190" data-name="Trazado 105190" d="M49,53h4.263v4.263H49Z" transform="translate(53.306 57.832)"/>
      <path id="Trazado_105191" data-name="Trazado 105191" d="M45,53h4.263v4.263H45Z" transform="translate(48.781 57.832)"/>
      <path id="Trazado_105192" data-name="Trazado 105192" d="M49.759,45H11.394A6.4,6.4,0,0,0,5,51.394V68.445a6.4,6.4,0,0,0,6.394,6.394H49.759a6.4,6.4,0,0,0,6.394-6.394V51.394A6.4,6.4,0,0,0,49.759,45ZM51.89,68.445a2.134,2.134,0,0,1-2.131,2.131H11.394a2.134,2.134,0,0,1-2.131-2.131V51.394a2.134,2.134,0,0,1,2.131-2.131H49.759a2.134,2.134,0,0,1,2.131,2.131Z" transform="translate(3.526 48.781)"/>
    </g>
  </g>
</svg>
