<svg xmlns="http://www.w3.org/2000/svg" width="290.629" height="342" viewBox="0 0 290.629 342">
  <g id="Grupo_55333" data-name="Grupo 55333" transform="translate(-387.735 -50.458)">
    <g id="Grupo_55278" data-name="Grupo 55278" transform="translate(611.987 61.946)">
      <g id="Grupo_55274" data-name="Grupo 55274">
        <g id="Grupo_55272" data-name="Grupo 55272">
          <path id="Trazado_104783" data-name="Trazado 104783" d="M524.094,66.058c5.57-7.217,16.514-7.507,21.873.125,4.253,6.058,1.621,13.133-4.91,15.249-8.744,2.832-14.854,4.788-12.78,15.579.451,2.351,4.033,1.353,3.582-.988-1.682-8.759,4.423-9.14,11.018-11.279,5.48-1.773,8.271-5.7,8.656-11.377,1.184-17.416-21.469-21.074-30.649-9.184-1.463,1.9,1.767,3.743,3.209,1.875Z" transform="translate(-520.514 -57.26)" fill="#3b4772"/>
        </g>
        <g id="Grupo_55273" data-name="Grupo 55273" transform="translate(6.491 45.358)">
          <path id="Trazado_104784" data-name="Trazado 104784" d="M527.42,90.449c4.084,0,4.084-6.333,0-6.333s-4.084,6.333,0,6.333Z" transform="translate(-524.358 -84.116)" fill="#3b4772"/>
        </g>
      </g>
      <g id="Grupo_55277" data-name="Grupo 55277" transform="translate(42.292 35.902)">
        <g id="Grupo_55275" data-name="Grupo 55275">
          <path id="Trazado_104785" data-name="Trazado 104785" d="M548.4,83.475c4.879-2.187,11.517-2.486,15.776,1.208,5.357,4.648-1.064,12.174-5.762,13.79-8.147,2.8-10.324,7.083-9.563,15.877.2,2.37,3.923,2.388,3.716,0-.307-3.557-.905-8.289,2.471-10.61,1.735-1.191,4.128-1.557,6.072-2.307,4.883-1.883,7.453-6.144,8.336-11.152,2.217-12.577-15.173-13.488-22.924-10.014-2.182.978-.29,4.18,1.878,3.207Z" transform="translate(-545.555 -78.518)" fill="#3b4772"/>
        </g>
        <g id="Grupo_55276" data-name="Grupo 55276" transform="translate(3.176 43.016)">
          <path id="Trazado_104786" data-name="Trazado 104786" d="M550.5,110.32c4.084,0,4.084-6.333,0-6.333s-4.084,6.333,0,6.333Z" transform="translate(-547.436 -103.987)" fill="#3b4772"/>
        </g>
      </g>
    </g>
    <g id="Grupo_55331" data-name="Grupo 55331" transform="translate(402.477 50.458)">
      <path id="Trazado_104787" data-name="Trazado 104787" d="M481.825,72.167c-6.626-8.146-19.3-8.443-25.928-6.313-15.992,5.136-19.151,15.937-18.75,30.578.844,21.383-12.9,26.8-23.7,42.748-13.947,19.536-7.33,34.334-4.8,55.606,2.307,17.9-16.089,29.836-11.422,49.272,5.486,23.334,27.7,17.923,42.665,31.041,10.142,8.362,16.168,14.167,30.323,14.928,16.4.611,28.049-2.412,42.848-9.027,26.9-11.365,62.27,1.047,85.059-19.146,23.451-20.777,7.245-35.793,4.116-57.589-3.275-24.043,11.721-49.484-5.03-67.6-25.8-27.916-11.387-66.729-49-80.936-16.487-6.229-58.849-12.533-66.379,16.44" transform="translate(-396.464 -50.458)" fill="#12263f"/>
      <g id="Grupo_55283" data-name="Grupo 55283" transform="translate(2.351 178.997)">
        <g id="Grupo_55280" data-name="Grupo 55280" transform="translate(14.585)">
          <path id="Trazado_104788" data-name="Trazado 104788" d="M407.367,316.326c3.03-108.084-10.162-158.758,96.82-158.758,90.857,0,88.449,38.845,87.862,158.758" transform="translate(-405.889 -155.666)" fill="#f57c00"/>
          <g id="Grupo_55279" data-name="Grupo 55279">
            <path id="Trazado_104789" data-name="Trazado 104789" d="M409.448,317.1c.873-32.282-1.022-65.3,3.7-97.337,3.42-23.17,13.41-42.836,35.991-52.017,13.94-5.666,29.443-7.092,44.329-7.72,15.67-.66,31.714-.309,47.136,2.766,22.584,4.5,37.825,17.712,44.339,39.853,4.506,15.322,5.308,31.7,5.9,47.563.833,22.278.441,44.6.328,66.891a1.479,1.479,0,0,0,2.956,0c.169-33.631,1.944-68.129-3.327-101.484-3.07-19.416-10.547-38.06-28.3-48.217-22.763-13.02-54.326-11.675-79.414-9.711-22.258,1.743-46.121,7.342-60.122,26.153-10.694,14.371-13.047,33.66-14.417,50.975-2.165,27.332-1.316,54.895-2.055,82.284-.052,1.909,2.9,1.9,2.956,0Z" transform="translate(-406.492 -156.442)" fill="#3b4772"/>
          </g>
        </g>
        <g id="Grupo_55282" data-name="Grupo 55282" transform="translate(0 3.384)">
          <path id="Trazado_104790" data-name="Trazado 104790" d="M447.413,249.961c-1.42,27.594.027,66.02.027,66.02H399.5c-2.88-57.011-1.316-151.59,72.022-156.657" transform="translate(-397.252 -157.84)" fill="#f57c00"/>
          <g id="Grupo_55281" data-name="Grupo 55281">
            <path id="Trazado_104791" data-name="Trazado 104791" d="M446.539,250.566c-.78,16.227-.721,32.483-.431,48.723q.134,7.544.382,15.087c.1,3.222-.365.731,1.446.731H405.13c-3.824,0-3.608.414-3.78-3.4-.127-2.827-.223-5.654-.311-8.483q-.312-9.921-.194-19.848c.495-48.869,10.838-117.06,71.281-121.967,1.887-.154,1.9-3.109,0-2.956-75.395,6.121-76.3,101.565-73.5,158.135a1.5,1.5,0,0,0,1.478,1.478h47.94a1.487,1.487,0,0,0,1.478-1.478c-.814-21.976-1.083-44.05-.027-66.02.091-1.905-2.864-1.9-2.956,0Z" transform="translate(-397.856 -158.446)" fill="#3b4772"/>
          </g>
        </g>
      </g>
      <g id="Grupo_55297" data-name="Grupo 55297" transform="translate(158.662 81.041)">
        <g id="Grupo_55293" data-name="Grupo 55293" transform="translate(57.7)">
          <g id="Grupo_55285" data-name="Grupo 55285" transform="translate(3.906)">
            <path id="Trazado_104792" data-name="Trazado 104792" d="M531.139,136.112c-2.165-6.5-8.054-38.629,3.856-36.464,9.743,2.165,8.183,25.508,8.183,33.086" transform="translate(-526.28 -97.683)" fill="#ffd1a2"/>
            <g id="Grupo_55284" data-name="Grupo 55284">
              <path id="Trazado_104793" data-name="Trazado 104793" d="M533.168,136.48c-2.878-9.147-5.845-23.238-1.834-32.346,1.917-4.349,6.205-1.652,7.95,1.2,1.819,2.967,2.275,7.012,2.669,10.378.694,5.9.39,11.865.351,17.786a1.479,1.479,0,0,0,2.956,0c.039-5.955,1.51-40.83-13.026-34.222-5.626,2.557-5.411,10.98-5.318,16.121a79.3,79.3,0,0,0,3.4,21.873c.569,1.811,3.423,1.037,2.849-.785Z" transform="translate(-526.884 -98.442)" fill="#3b4772"/>
            </g>
          </g>
          <g id="Grupo_55287" data-name="Grupo 55287" transform="translate(28.053 26.565)">
            <path id="Trazado_104794" data-name="Trazado 104794" d="M544.495,117.481c7.831-8.938,18.376,4.433,17.363,19.916-.712,10.9-14.025,36.224-23.98,34.763" transform="translate(-540.601 -113.61)" fill="#ffd1a2"/>
            <g id="Grupo_55286" data-name="Grupo 55286">
              <path id="Trazado_104795" data-name="Trazado 104795" d="M545.82,118.39c6.881-4.582,10.181,4.764,10.49,10.191.492,8.627-4.967,14.7-13.705,14.121-1.9-.127-1.892,2.831,0,2.956,11.23.748,17.533-7.972,16.546-18.624-.7-7.5-6.587-16.681-14.822-11.2-1.577,1.052-.1,3.613,1.491,2.552Z" transform="translate(-541.181 -114.171)" fill="#3b4772"/>
            </g>
          </g>
          <g id="Grupo_55288" data-name="Grupo 55288" transform="translate(33.875 28.669)">
            <path id="Trazado_104796" data-name="Trazado 104796" d="M550.848,118.216c23.734,15.521-6.369,36.433-6.218,56.026a1.479,1.479,0,0,0,2.956,0c-.164-21.231,31.111-41.341,4.754-58.578-1.6-1.047-3.079,1.513-1.491,2.552Z" transform="translate(-544.629 -115.417)" fill="#3b4772"/>
          </g>
          <g id="Grupo_55290" data-name="Grupo 55290" transform="translate(17.489 22.931)">
            <path id="Trazado_104797" data-name="Trazado 104797" d="M535.961,123.984c2.165-18.4,15.8-11.469,16.111,3.724.405,20.093-17.323,27.671-16.239,8.184" transform="translate(-534.335 -111.386)" fill="#ffd1a2"/>
            <g id="Grupo_55289" data-name="Grupo 55289">
              <path id="Trazado_104798" data-name="Trazado 104798" d="M538.03,124.616c.507-3.81,2.547-12.1,7.984-8.718,5.011,3.118,5.453,11.035,5.033,16.171-.417,5.1-2.62,11.481-7.5,13.928-5.337,2.677-5.759-6.594-5.641-9.473.079-1.907-2.878-1.9-2.956,0-.2,4.869,1.027,14.1,8.107,12.687,6.914-1.376,10.169-10.154,10.853-16.263.763-6.849-.37-17.026-7.646-20.267-7.453-3.319-10.481,6.622-11.186,11.934-.25,1.887,2.709,1.861,2.956,0Z" transform="translate(-534.926 -112.019)" fill="#3b4772"/>
            </g>
          </g>
          <g id="Grupo_55292" data-name="Grupo 55292" transform="translate(0 32.587)">
            <path id="Trazado_104799" data-name="Trazado 104799" d="M535.934,179.463c5.3-2.719-17.991-53.376-6.8-58.3,24.577-10.8,30.291,16.148,10.7,12.991,13.145.022,17.992,13.846,16.908,21.426" transform="translate(-524.096 -117.144)" fill="#ffd1a2"/>
            <g id="Grupo_55291" data-name="Grupo 55291">
              <path id="Trazado_104800" data-name="Trazado 104800" d="M535.551,169.656c.426-14.17-8.147-26.845-8.33-40.87-.117-9.142,15.813-9.968,21.216-5.318,7.141,6.146-2.613,10.47-8.129,9.806v2.956c8.926.419,16.366,5.141,15.5,14.893-.171,1.9,2.787,1.881,2.956,0,1.02-11.449-7.968-17.357-18.453-17.848-1.944-.09-1.839,2.734,0,2.956,6.154.741,13.268-1.167,13.243-8.534-.024-7.181-8.267-9.993-14.089-9.958-29.166.172-6.414,36.813-6.867,51.919-.057,1.907,2.9,1.9,2.956,0Z" transform="translate(-524.571 -117.737)" fill="#3b4772"/>
            </g>
          </g>
        </g>
        <g id="Grupo_55295" data-name="Grupo 55295" transform="translate(0 76.496)">
          <path id="Trazado_104801" data-name="Trazado 104801" d="M491.275,171.5c35.141,4.469,49.843,45.177,52.008,77.655C543.6,222.841,546.4,145.7,546.4,145.7c4.726-2.854,39.84,3.248,43.089,6.5,0,0,1.689,60.151.606,73.142-1.084,28.149-5.327,72.539-41.054,79.033-21.652,4.332-42.441-12.645-45.687-36.462" transform="translate(-489.81 -142.889)" fill="#f57c00"/>
          <g id="Grupo_55294" data-name="Grupo 55294">
            <path id="Trazado_104802" data-name="Trazado 104802" d="M491.481,173.774c35.54,5.342,48.6,45.03,50.922,76.231a1.479,1.479,0,0,0,2.956,0c.38-29.532,1.562-59.065,2.589-88.58q.22-6.313.448-12.628.038-1.1.079-2.2c-.047,1.28,6.778.784,8.338.885a149.748,149.748,0,0,1,22.4,3.467c3.755.828,9.367.941,9.451,4.177.664,24.792,1.512,49.661.407,74.446-1.392,31.186-12.334,85.8-56.411,73.248-15.371-4.378-24.844-19.5-27.283-34.456-.307-1.878-3.153-1.079-2.849.785C507.6,300.22,541.2,318.8,567.984,298.711c21.858-16.388,22.414-48.73,24.246-73.294,1.714-22.988.015-46.555-.588-69.575-.176-6.744-7.528-6.837-13.278-8.105-8.581-1.892-23.611-6.342-32.111-2.464a1.464,1.464,0,0,0-.731,1.275c-1.253,34.471-2.672,68.965-3.118,103.456h2.956c-2.41-32.407-16.208-73.537-53.094-79.08-1.863-.28-2.665,2.567-.784,2.849Z" transform="translate(-490.407 -143.735)" fill="#3b4772"/>
          </g>
        </g>
        <g id="Grupo_55296" data-name="Grupo 55296" transform="translate(55.288 86.852)">
          <path id="Trazado_104803" data-name="Trazado 104803" d="M524.215,152.738c14.231,2.324,28.728,2.53,42.787,5.911,1.853.446,2.636-2.405.785-2.849-14.069-3.385-28.548-3.587-42.787-5.911-1.865-.3-2.663,2.544-.785,2.849Z" transform="translate(-523.143 -149.867)" fill="#3b4772"/>
        </g>
      </g>
      <g id="Grupo_55330" data-name="Grupo 55330" transform="translate(17.951 15.515)">
        <g id="Grupo_55299" data-name="Grupo 55299" transform="translate(72.92 123.422)">
          <path id="Trazado_104804" data-name="Trazado 104804" d="M453.183,133.568c-.621,43.5-10.233,55.734,18.75,55.734,30.689,0,24.129-9.417,20.463-55.734" transform="translate(-449.651 -132.139)" fill="#ffd1a2"/>
          <g id="Grupo_55298" data-name="Grupo 55298">
            <path id="Trazado_104805" data-name="Trazado 104805" d="M452.323,134.151c-.184,9.8-.868,19.551-1.572,29.323-.424,5.876-.991,11.988.4,17.779,2.432,10.166,14.906,10.152,23.2,10.1,8.448-.054,18.818-.645,22.241-9.726,1.924-5.1,1.162-11.366.782-16.643-.745-10.292-2.04-20.546-2.88-30.831-.154-1.887-3.111-1.9-2.956,0,1.1,13.5,3.643,27.291,3.177,40.868-.388,11.29-8.926,12.978-18.654,13.341-9.941.373-21.547.39-22.682-11.724-1.3-13.895,1.64-28.549,1.9-42.485.035-1.907-2.92-1.9-2.956,0Z" transform="translate(-450.268 -132.722)" fill="#3b4772"/>
          </g>
        </g>
        <g id="Grupo_55301" data-name="Grupo 55301" transform="translate(37.516 45.731)">
          <path id="Trazado_104806" data-name="Trazado 104806" d="M432.076,87.568c0,43.79-17.335,106.523,53.794,104.713,60.963-1.689,54.324-45.445,48.413-104.713" transform="translate(-428.68 -86.139)" fill="#ffd1a2"/>
          <g id="Grupo_55300" data-name="Grupo 55300">
            <path id="Trazado_104807" data-name="Trazado 104807" d="M431.225,88.151c-.1,22.973-4.34,46.315.118,69.109,4.435,22.664,21.241,34.457,43.5,36.749,22.76,2.344,50.227-2.469,60.281-25.547,10.486-24.07,3.771-55.3,1.267-80.311-.189-1.878-3.146-1.895-2.956,0,2.385,23.8,7.212,50,.924,73.556-6.894,25.827-33.974,30.742-57.325,29.515-24.479-1.285-39.917-15.386-43.631-39.289-3.268-21.03.686-42.659.782-63.782a1.479,1.479,0,0,0-2.956,0Z" transform="translate(-429.306 -86.722)" fill="#3b4772"/>
          </g>
        </g>
        <g id="Grupo_55306" data-name="Grupo 55306" transform="translate(22.347 83.098)">
          <g id="Grupo_55303" data-name="Grupo 55303">
            <path id="Trazado_104808" data-name="Trazado 104808" d="M439.611,110.04c-12.491-1.664-18.409,2.126-18.409,11.373,0,7.347,6.165,12.082,19.725,9.48" transform="translate(-419.72 -108.286)" fill="#ffd1a2"/>
            <g id="Grupo_55302" data-name="Grupo 55302">
              <path id="Trazado_104809" data-name="Trazado 104809" d="M440.216,109.123c-10.025-1.2-19.615,1.231-19.887,12.851-.274,11.711,13.123,12.4,21.6,10.905,1.875-.329,1.077-3.179-.785-2.851-6.931,1.223-17.568,1.351-17.855-8.054-.3-9.99,9.194-10.823,16.931-9.9,1.89.225,1.87-2.733,0-2.956Z" transform="translate(-420.325 -108.846)" fill="#3b4772"/>
            </g>
          </g>
          <g id="Grupo_55305" data-name="Grupo 55305" transform="translate(118.366 0.031)">
            <path id="Trazado_104810" data-name="Trazado 104810" d="M492.591,110.04c12.493-1.664,18.4,2.126,18.4,11.373,0,7.347-6.158,12.082-19.72,9.48" transform="translate(-489.812 -108.317)" fill="#ffd1a2"/>
            <g id="Grupo_55304" data-name="Grupo 55304">
              <path id="Trazado_104811" data-name="Trazado 104811" d="M493.187,112.066c7.553-.905,16.22-.385,16.9,8.926.743,10.113-10.639,10.291-17.827,9.024-1.863-.328-2.66,2.522-.784,2.851,8.749,1.542,20.522.958,21.566-10.128,1.14-12.121-10.21-14.785-19.858-13.628-1.868.223-1.89,3.18,0,2.956Z" transform="translate(-490.409 -108.864)" fill="#3b4772"/>
            </g>
          </g>
        </g>
        <g id="Grupo_55314" data-name="Grupo 55314" transform="translate(54.449 71.803)">
          <g id="Grupo_55307" data-name="Grupo 55307" transform="translate(16.865 12.669)">
            <path id="Trazado_104812" data-name="Trazado 104812" d="M457.261,111.118c4.275,4.553-2.324,10.223-6.011,6.855-5.643-5.139,2.525-11.13,6.011-6.855" transform="translate(-449.318 -109.66)" fill="#3b4772"/>
            <path id="Trazado_104813" data-name="Trazado 104813" d="M477.261,111.118c4.275,4.553-2.324,10.223-6.011,6.855-5.643-5.139,2.525-11.13,6.011-6.855" transform="translate(-435.54 -109.66)" fill="#3b4772"/>
          </g>
          <g id="Grupo_55308" data-name="Grupo 55308" transform="translate(33.615 15.275)">
            <path id="Trazado_104814" data-name="Trazado 104814" d="M462.618,113.057c.91,4.93,2.949,9.522,4.222,14.356l1.425-1.871h-7.6a1.479,1.479,0,0,0,0,2.956h7.6a1.492,1.492,0,0,0,1.424-1.87c-1.273-4.834-3.312-9.426-4.222-14.356-.346-1.873-3.194-1.078-2.849.785Z" transform="translate(-459.235 -111.203)" fill="#3b4772"/>
          </g>
          <g id="Grupo_55309" data-name="Grupo 55309" transform="translate(0 30.89)" opacity="0.313">
            <path id="Trazado_104815" data-name="Trazado 104815" d="M455.14,123.349c8.5,9.058-4.624,20.353-11.963,13.646-11.23-10.233,5.025-22.154,11.963-13.646" transform="translate(-439.332 -120.448)" fill="#ffac57"/>
            <path id="Trazado_104816" data-name="Trazado 104816" d="M490.14,123.349c8.5,9.058-4.624,20.353-11.963,13.646-11.23-10.233,5.024-22.154,11.963-13.646" transform="translate(-415.22 -120.448)" fill="#ffac57"/>
          </g>
          <g id="Grupo_55312" data-name="Grupo 55312" transform="translate(13.353)">
            <g id="Grupo_55310" data-name="Grupo 55310" transform="translate(0 3.801)">
              <path id="Trazado_104817" data-name="Trazado 104817" d="M448.665,110.246a32.262,32.262,0,0,0,13.623-2.868c1.733-.721.973-3.582-.785-2.851a30.324,30.324,0,0,1-12.837,2.763c-1.907-.079-1.9,2.878,0,2.956Z" transform="translate(-447.238 -104.409)" fill="#3b4772"/>
            </g>
            <g id="Grupo_55311" data-name="Grupo 55311" transform="translate(31.704)">
              <path id="Trazado_104818" data-name="Trazado 104818" d="M468.587,107.986a11.033,11.033,0,0,1,12.844-1.459,1.478,1.478,0,0,0,1.491-2.55,14.091,14.091,0,0,0-16.428,1.919c-1.442,1.251.659,3.332,2.093,2.091Z" transform="translate(-466.01 -102.158)" fill="#3b4772"/>
            </g>
          </g>
          <g id="Grupo_55313" data-name="Grupo 55313" transform="translate(31.006 40.396)">
            <path id="Trazado_104819" data-name="Trazado 104819" d="M459.943,131.149c4.295-2.049,10.681-3.636,14.533.051,1.378,1.316,3.471-.77,2.093-2.091-4.923-4.71-12.545-3.168-18.117-.51-1.719.819-.22,3.368,1.491,2.55Z" transform="translate(-457.691 -126.077)" fill="#3b4772"/>
          </g>
        </g>
        <g id="Grupo_55319" data-name="Grupo 55319" transform="translate(63.339 161.405)">
          <g id="Grupo_55316" data-name="Grupo 55316">
            <path id="Trazado_104820" data-name="Trazado 104820" d="M451.288,156.054c-3.935,5.046-7.588,13.38-5.131,20.128,3.472,8.689,14.369,11.92,22.4,7.119,3.081-1.692,10.331-9.941,8.867-13.854-1.241-2.925-22.523-11.713-26.138-13.393" transform="translate(-444.069 -154.631)" fill="#ffa726"/>
            <g id="Grupo_55315" data-name="Grupo 55315">
              <path id="Trazado_104821" data-name="Trazado 104821" d="M450.538,155.89c-6.3,8.585-9.323,20.405-.171,28.1,6.925,5.823,17.063,4.1,23.126-1.868,4.307-4.241,9.172-11.2,2.837-15.428-7.251-4.837-15.876-7.74-23.771-11.338-1.719-.784-3.224,1.763-1.491,2.552,4.21,1.919,8.48,3.709,12.687,5.638,3.038,1.392,13.682,4.771,12.64,9.091-1.963,8.144-11.424,13.126-19.086,11.527-13.751-2.868-10.27-18.544-4.217-26.786,1.128-1.539-1.437-3.01-2.554-1.491Z" transform="translate(-444.596 -155.211)" fill="#3b4772"/>
            </g>
          </g>
          <g id="Grupo_55318" data-name="Grupo 55318" transform="translate(32.034)">
            <path id="Trazado_104822" data-name="Trazado 104822" d="M490.589,156.054c3.937,5.046,7.588,13.38,5.131,20.128-3.472,8.689-14.369,11.92-22.4,7.119-3.082-1.692-10.333-9.941-8.867-13.854,1.24-2.925,22.523-11.713,26.136-13.393" transform="translate(-463.083 -154.631)" fill="#ffa726"/>
            <g id="Grupo_55317" data-name="Grupo 55317">
              <path id="Trazado_104823" data-name="Trazado 104823" d="M489.792,157.381c6.215,8.46,9.127,21.338-2.748,26.33-8.321,3.5-15.606-2.337-19.657-9.075-2.136-3.552-.419-4.79,2.39-6.425,2.606-1.513,5.357-2.788,8.08-4.072,4.609-2.174,9.321-4.116,13.959-6.229,1.733-.789.228-3.336-1.491-2.552-7.693,3.506-15.626,6.573-22.951,10.831-6.859,3.989-3.18,9.884,1.072,14.911a17.629,17.629,0,0,0,23.771,3.123c10.069-6.838,6.062-20.259.128-28.335-1.116-1.518-3.684-.047-2.554,1.491Z" transform="translate(-463.563 -155.211)" fill="#3b4772"/>
            </g>
          </g>
        </g>
        <g id="Grupo_55320" data-name="Grupo 55320" transform="translate(29.273)">
          <path id="Trazado_104824" data-name="Trazado 104824" d="M460.156,82.266c.562,16.889-5.067,28.712-12.387,42.785-7.881,15.2-4.748,26.947-1.125,42.787,10.133,44.32-12.442,33.489-2.815,74.312-19.406-14.645-16.327-30.4-16.327-47.29,0-14.075,5.067-26.46,5.631-40.534,1.125-25.9-18.016-51.232-2.815-76" transform="translate(-424.425 -46.774)" fill="#12263f"/>
          <path id="Trazado_104825" data-name="Trazado 104825" d="M440.115,78.81c-3.378,7.882-2.814,17.453,2.253,24.209,6.756,11.258,16.325,10.7,28.147,11.258,9.571.564,24.771,1.126,31.527,9.571,5.067,6.756,2.251,13.511,9.007,19.14s11.823,6.756,14.075,15.764c1.689,6.756-1.127,15.2-3.378,21.392-2.815,6.756-8.445,11.822-9.571,19.142-1.127,6.756-2.251,13.481,1.127,19.14,3.94,6.6-8.161,17.166,5.629,34.9.284-37.443,23.557-30.963,23.082-70.372-.11-9.007-4.5-21.956-6.193-30.4-2.251-11.26,5.067-22.518,6.193-33.778,1.125-9.571.562-18.578-5.067-27.023-6.193-9.571-17.453-12.385-25.9-19.14-15.2-11.26-47.29-21.393-60.8-2.253-.562.564-.562,1.127-1.125,1.127" transform="translate(-415.082 -59.644)" fill="#12263f"/>
        </g>
        <g id="Grupo_55329" data-name="Grupo 55329" transform="translate(0 12.843)">
          <g id="Grupo_55321" data-name="Grupo 55321" transform="translate(72.171 12.999)">
            <path id="Trazado_104826" data-name="Trazado 104826" d="M449.837,76.151c2.422,19.33,20.3,18.821,35.944,18.956a58.9,58.9,0,0,1,15.072,1.655c8.391,2.283,10.162,9.441,12.8,16.757,3.39,9.406,14.7,12.6,23.64,10.86,1.6-.311.922-2.753-.674-2.442-9.254,1.8-18.033-2.18-21.306-11.262-1.365-3.788-2.025-8.24-5.046-11.213-4.055-3.993-9.3-5.754-14.893-6.36-15.258-1.659-40.335,4.334-43-16.952-.2-1.6-2.738-1.618-2.533,0Z" transform="translate(-449.825 -74.945)" fill="#3b4772"/>
          </g>
          <g id="Grupo_55322" data-name="Grupo 55322" transform="translate(88.537)">
            <path id="Trazado_104827" data-name="Trazado 104827" d="M459.532,68.84c.964,6.386,3.6,11.3,9.031,14.878,8.279,5.462,19.723-.567,28.728,1.77,6.827,1.773,10.47,9.8,14.537,14.856,3.781,4.707,8.9,6.592,14.795,6.865,1.633.076,1.625-2.457,0-2.533-13.231-.615-15.589-13.381-25.079-19.919-4.422-3.047-10.385-3.18-15.476-2.415-12.253,1.844-22.035-.546-24.092-14.173-.243-1.611-2.685-.926-2.444.672Z" transform="translate(-459.515 -67.249)" fill="#3b4772"/>
          </g>
          <g id="Grupo_55323" data-name="Grupo 55323" transform="translate(18.36 15.781)">
            <path id="Trazado_104828" data-name="Trazado 104828" d="M453.252,78.162c3.753,13.682-2.594,28.47-16,33.91-8.343,3.385-15.508,6.815-19.181,15.523-.633,1.5,1.819,2.155,2.444.672,5.379-12.758,21.373-12.733,29.8-22.831,6.435-7.713,7.98-18.482,5.386-27.946a1.268,1.268,0,0,0-2.444.672Z" transform="translate(-417.964 -76.592)" fill="#3b4772"/>
          </g>
          <g id="Grupo_55324" data-name="Grupo 55324" transform="translate(18.36 18.613)">
            <path id="Trazado_104829" data-name="Trazado 104829" d="M438.853,79.487c.618,7.747-.836,14.455-6.668,19.934-4.511,4.238-10.3,6.034-13.989,11.235-.947,1.334,1.25,2.6,2.187,1.277,4.234-5.962,11.971-7.744,16.339-13.581,4.209-5.629,5.214-11.971,4.665-18.865-.13-1.616-2.665-1.63-2.533,0Z" transform="translate(-417.964 -78.269)" fill="#3b4772"/>
          </g>
          <g id="Grupo_55325" data-name="Grupo 55325" transform="translate(26.584 100.623)">
            <path id="Trazado_104830" data-name="Trazado 104830" d="M433.735,128.4c4.955,17.642-15.692,29.868-9.851,47.572.508,1.544,2.957.882,2.444-.674-5.67-17.18,14.866-29.718,9.851-47.572a1.268,1.268,0,0,0-2.444.674Z" transform="translate(-422.833 -126.827)" fill="#3b4772"/>
          </g>
          <g id="Grupo_55326" data-name="Grupo 55326" transform="translate(0 101.461)">
            <path id="Trazado_104831" data-name="Trazado 104831" d="M429.378,128.9c3.879,15.112-8.546,23-16.521,33.586a28.418,28.418,0,0,0-4.028,26.935c.557,1.522,3.006.863,2.444-.674-5.93-16.19,5.359-26.128,14.78-37.374,5.742-6.854,8-14.444,5.769-23.147a1.268,1.268,0,0,0-2.444.674Z" transform="translate(-407.093 -127.323)" fill="#3b4772"/>
          </g>
          <g id="Grupo_55327" data-name="Grupo 55327" transform="translate(143.985 100.351)">
            <path id="Trazado_104832" data-name="Trazado 104832" d="M501.211,127.889c-.434,9.666-5.2,17.691-8.117,26.687-2.272,7.016,1.116,13.439,3.658,19.814.6,1.5,3.049.846,2.444-.674-1.229-3.081-2.557-6.114-3.626-9.254-2.152-6.332,1.1-12.858,3.535-18.559,2.528-5.909,4.351-11.561,4.639-18.014.073-1.633-2.461-1.626-2.533,0Z" transform="translate(-492.346 -126.666)" fill="#3b4772"/>
          </g>
          <g id="Grupo_55328" data-name="Grupo 55328" transform="translate(164.394 96.69)">
            <path id="Trazado_104833" data-name="Trazado 104833" d="M510.62,125.722a54.724,54.724,0,0,1-3.332,18.242c-1.528,4.189-3.437,9.46-2.69,14.025,1.783,10.922,10.765,18.478,13.386,29.154.39,1.586,2.832.914,2.444-.674-2.415-9.831-9.887-16.93-12.947-26.46-2.1-6.551,2.15-14.531,4.028-20.654,1.348-4.393,1.561-9.08,1.645-13.633a1.267,1.267,0,0,0-2.533,0Z" transform="translate(-504.43 -124.498)" fill="#3b4772"/>
          </g>
        </g>
      </g>
    </g>
    <g id="Grupo_55332" data-name="Grupo 55332" transform="translate(387.735 389.503)">
      <path id="Trazado_104834" data-name="Trazado 104834" d="M389.165,254.161h248.27a1.479,1.479,0,0,0,0-2.956H389.165a1.479,1.479,0,0,0,0,2.956Z" transform="translate(-387.735 -251.205)" fill="#3b4772"/>
    </g>
  </g>
</svg>
