<svg id="Grupo_120675" data-name="Grupo 120675" xmlns="http://www.w3.org/2000/svg" xmlns:xlink="http://www.w3.org/1999/xlink" width="55.019" height="39.838" viewBox="0 0 55.019 39.838">
  <defs>
    <clipPath id="clip-path">
      <rect id="Rectángulo_37607" data-name="Rectángulo 37607" width="55.019" height="39.838" fill="none"/>
    </clipPath>
  </defs>
  <g id="Grupo_120669" data-name="Grupo 120669" clip-path="url(#clip-path)">
    <path id="Trazado_182161" data-name="Trazado 182161" d="M27.477,39.838H4.122A3.813,3.813,0,0,1,0,35.7Q0,19.9,0,4.106A3.807,3.807,0,0,1,4.1,0H50.925a3.8,3.8,0,0,1,4.093,4.11q0,15.825,0,31.65a3.8,3.8,0,0,1-4.068,4.076q-11.737,0-23.473,0M53.088,28.99c.019-.2.032-.278.032-.352q0-12.386,0-24.772A1.9,1.9,0,0,0,51.011,1.9q-23.5,0-47,0A1.909,1.909,0,0,0,1.9,4.034Q1.9,17.517,1.9,31c0,.162-.076.348.092.513.151-.1.3-.186.444-.285q4.688-3.218,9.373-6.44a3.87,3.87,0,0,1,5.023-.012c2.947,2.022,5.9,4.038,8.83,6.08a.612.612,0,0,0,.906-.061q5.917-5.023,11.86-10.014a3.709,3.709,0,0,1,4.982.033c1.787,1.5,3.56,3.008,5.339,4.513l4.336,3.664m-9.274,8.95c2.43,0,4.86,0,7.291,0a1.905,1.905,0,0,0,2.015-2c.008-1.3-.013-2.608.011-3.912a.976.976,0,0,0-.4-.85q-5.23-4.412-10.444-8.844a1.96,1.96,0,0,0-2.784.009q-5.66,4.774-11.322,9.546c-.353.3-.376.449.029.723q3.7,2.51,7.373,5.064a1.449,1.449,0,0,0,.879.27c2.45-.01,4.9-.005,7.35-.005m-11.225,0c-.16-.13-.215-.182-.277-.224Q23.94,31.962,15.566,26.211a1.878,1.878,0,0,0-2.508.026C9.85,28.437,6.681,30.7,3.42,32.813a2.79,2.79,0,0,0-1.555,2.928c.15,1.467.763,2.2,2.262,2.2H32.589" transform="translate(0 0)"/>
    <path id="Trazado_182162" data-name="Trazado 182162" d="M63.1,39.067,58.761,35.4c-1.779-1.5-3.552-3.017-5.339-4.513a3.709,3.709,0,0,0-4.982-.033q-5.95,4.983-11.86,10.014a.612.612,0,0,1-.906.061c-2.932-2.042-5.883-4.058-8.83-6.08a3.87,3.87,0,0,0-5.023.012q-4.68,3.229-9.373,6.44c-.144.1-.293.188-.444.285-.168-.164-.092-.351-.092-.513q-.007-13.482,0-26.965a1.909,1.909,0,0,1,2.113-2.136q23.5,0,47,0a1.9,1.9,0,0,1,2.106,1.967q.009,12.386,0,24.772c0,.074-.013.148-.032.352M25.092,20.624a4.879,4.879,0,1,0-4.927,4.887,4.829,4.829,0,0,0,4.927-4.887" transform="translate(-10.009 -10.077)" fill="#b1f9ff"/>
    <path id="Trazado_182163" data-name="Trazado 182163" d="M192.051,153.487c-2.45,0-4.9,0-7.35.005a1.446,1.446,0,0,1-.878-.27q-3.677-2.545-7.373-5.064c-.405-.275-.382-.427-.029-.723q5.67-4.762,11.322-9.546a1.96,1.96,0,0,1,2.784-.009q5.223,4.421,10.444,8.844a.976.976,0,0,1,.4.85c-.024,1.3,0,2.608-.011,3.912a1.905,1.905,0,0,1-2.015,2c-2.43.006-4.86,0-7.291,0" transform="translate(-148.237 -115.546)" fill="#26ccda"/>
    <path id="Trazado_182164" data-name="Trazado 182164" d="M42.372,174.658H13.909c-1.5,0-2.112-.732-2.262-2.2a2.79,2.79,0,0,1,1.555-2.928c3.261-2.118,6.431-4.376,9.639-6.576a1.878,1.878,0,0,1,2.508-.026q8.377,5.746,16.746,11.505c.061.042.116.094.277.224" transform="translate(-9.783 -136.718)" fill="#26ccda"/>
    <path id="Trazado_182165" data-name="Trazado 182165" d="M43.36,40.7a4.879,4.879,0,1,1-4.886-4.869A4.828,4.828,0,0,1,43.36,40.7m-4.888,2.988a2.947,2.947,0,0,0,2.991-3.006,3,3,0,0,0-3.071-2.949,2.978,2.978,0,0,0,.08,5.955" transform="translate(-28.278 -30.153)"/>
    <path id="Trazado_182166" data-name="Trazado 182166" d="M48.563,53.785a2.978,2.978,0,0,1-.08-5.955,3,3,0,0,1,3.071,2.949,2.947,2.947,0,0,1-2.991,3.006" transform="translate(-38.368 -40.25)" fill="#fdd835"/>
  </g>
</svg>
