<svg xmlns="http://www.w3.org/2000/svg" xmlns:xlink="http://www.w3.org/1999/xlink" width="78" height="78" viewBox="0 0 78 78">
  <defs>
    <clipPath id="clip-path">
      <rect id="Rectángulo_5921" data-name="Rectángulo 5921" width="78" height="78" rx="5" transform="translate(1041 15880)" fill="#fff"/>
    </clipPath>
  </defs>
  <g id="Enmascarar_grupo_37" data-name="Enmascarar grupo 37" transform="translate(-1041 -15880)" clip-path="url(#clip-path)">
    <g id="envio" transform="translate(1039.742 15878.742)">
      <g id="Grupo_55476" data-name="Grupo 55476">
        <g id="Grupo_55452" data-name="Grupo 55452">
          <path id="Trazado_105284" data-name="Trazado 105284" d="M47.806,45.29v5.032H3.774a1.262,1.262,0,0,1-1.258-1.258V46.548A1.262,1.262,0,0,1,3.774,45.29H47.806Z" fill="#ffa726"/>
        </g>
        <g id="Grupo_55453" data-name="Grupo 55453">
          <path id="Trazado_105285" data-name="Trazado 105285" d="M47.806,50.323v15.1H30.194a7.548,7.548,0,1,0-15.1,0H7.548A2.524,2.524,0,0,1,5.032,62.9V60.387h6.29l1.258-5.032H5.032V50.323Z" fill="#ffa726"/>
        </g>
        <g id="Grupo_55454" data-name="Grupo 55454">
          <path id="Trazado_105286" data-name="Trazado 105286" d="M78,59.129V62.9a2.524,2.524,0,0,1-2.516,2.516H70.452A7.529,7.529,0,0,0,67.935,59.8V42.774l-1.22-6.517a1.253,1.253,0,0,0-1.233-1.032H54.1a1.262,1.262,0,0,0-1.258,1.258V65.419H47.806V35.226a5.045,5.045,0,0,1,5.032-5.032H66.187a5.028,5.028,0,0,1,4.969,4.2L72.968,45.29l2.252,1.12a5.058,5.058,0,0,1,2.78,4.5v1.925H72.968v3.774Z" fill="#ffa726"/>
        </g>
        <g id="Grupo_55455" data-name="Grupo 55455">
          <path id="Trazado_105287" data-name="Trazado 105287" d="M67.935,47.806V59.8a7.546,7.546,0,0,0-12.581,5.624H52.839V47.806h15.1Z" fill="#ffa726"/>
        </g>
        <g id="Grupo_55456" data-name="Grupo 55456">
          <path id="Trazado_105288" data-name="Trazado 105288" d="M78,52.839v6.29l-5.032-2.516V52.839Z" fill="#fcd770"/>
        </g>
        <g id="Grupo_55457" data-name="Grupo 55457">
          <path id="Trazado_105289" data-name="Trazado 105289" d="M12.581,55.355l-1.258,5.032H5.032V55.355Z" fill="#fcd770"/>
        </g>
        <g id="Grupo_55458" data-name="Grupo 55458">
          <path id="Trazado_105290" data-name="Trazado 105290" d="M67.935,59.8A7.546,7.546,0,1,1,62.9,57.871,7.529,7.529,0,0,1,67.935,59.8Z" fill="#969faa"/>
        </g>
        <g id="Grupo_55459" data-name="Grupo 55459">
          <path id="Trazado_105291" data-name="Trazado 105291" d="M22.645,57.871A7.548,7.548,0,1,1,15.1,65.419,7.554,7.554,0,0,1,22.645,57.871Z" fill="#969faa"/>
        </g>
        <g id="Grupo_55460" data-name="Grupo 55460">
          <circle id="Elipse_4170" data-name="Elipse 4170" cx="2.516" cy="2.516" r="2.516" transform="translate(60.387 62.903)" fill="#ccd1d9"/>
        </g>
        <g id="Grupo_55461" data-name="Grupo 55461">
          <circle id="Elipse_4171" data-name="Elipse 4171" cx="2.516" cy="2.516" r="2.516" transform="translate(20.129 62.903)" fill="#ccd1d9"/>
        </g>
        <g id="Grupo_55462" data-name="Grupo 55462">
          <path id="Trazado_105292" data-name="Trazado 105292" d="M60.387,44.032a3.769,3.769,0,0,0,3.774,3.774H52.839V36.484A1.262,1.262,0,0,1,54.1,35.226H65.482a1.253,1.253,0,0,1,1.233,1.032l1.22,6.517h-6.29A1.262,1.262,0,0,0,60.387,44.032Z" fill="#69d6f4"/>
        </g>
        <g id="Grupo_55463" data-name="Grupo 55463">
          <path id="Trazado_105293" data-name="Trazado 105293" d="M67.935,42.774v5.032H64.161a3.769,3.769,0,0,1-3.774-3.774,1.262,1.262,0,0,1,1.258-1.258Z" fill="#aab2bd"/>
        </g>
        <g id="Grupo_55464" data-name="Grupo 55464">
          <path id="Trazado_105294" data-name="Trazado 105294" d="M5.032,32.71h15.1V45.29H5.032Z" fill="#d3a06c"/>
        </g>
        <g id="Grupo_55465" data-name="Grupo 55465">
          <path id="Trazado_105295" data-name="Trazado 105295" d="M20.129,32.71h15.1V45.29h-15.1Z" fill="#d3a06c"/>
        </g>
        <g id="Grupo_55466" data-name="Grupo 55466">
          <path id="Trazado_105296" data-name="Trazado 105296" d="M35.226,32.71h15.1V45.29h-15.1Z" fill="#d3a06c"/>
        </g>
        <g id="Grupo_55467" data-name="Grupo 55467">
          <path id="Trazado_105297" data-name="Trazado 105297" d="M12.581,20.129h15.1V32.71h-15.1Z" fill="#d3a06c"/>
        </g>
        <g id="Grupo_55468" data-name="Grupo 55468">
          <path id="Trazado_105298" data-name="Trazado 105298" d="M27.677,20.129h15.1V32.71h-15.1Z" fill="#d3a06c"/>
        </g>
        <g id="Grupo_55469" data-name="Grupo 55469">
          <path id="Trazado_105299" data-name="Trazado 105299" d="M20.129,7.548h15.1V20.129h-15.1Z" fill="#d3a06c"/>
        </g>
        <g id="Grupo_55470" data-name="Grupo 55470">
          <path id="Trazado_105300" data-name="Trazado 105300" d="M25.161,7.548h5.032v5.032H25.161Z" fill="#b27946"/>
        </g>
        <g id="Grupo_55471" data-name="Grupo 55471">
          <path id="Trazado_105301" data-name="Trazado 105301" d="M22.645,20.129v5.032H17.613V20.129h5.032Z" fill="#b27946"/>
        </g>
        <g id="Grupo_55472" data-name="Grupo 55472">
          <path id="Trazado_105302" data-name="Trazado 105302" d="M37.742,20.129v5.032H32.71V20.129h5.032Z" fill="#b27946"/>
        </g>
        <g id="Grupo_55473" data-name="Grupo 55473">
          <path id="Trazado_105303" data-name="Trazado 105303" d="M42.774,32.71h5.712a5.019,5.019,0,0,0-.679,2.516v2.516H40.258V32.71Z" fill="#b27946"/>
        </g>
        <g id="Grupo_55474" data-name="Grupo 55474">
          <path id="Trazado_105304" data-name="Trazado 105304" d="M30.194,32.71v5.032H25.161V32.71h5.032Z" fill="#b27946"/>
        </g>
        <g id="Grupo_55475" data-name="Grupo 55475">
          <path id="Trazado_105305" data-name="Trazado 105305" d="M15.1,32.71v5.032H10.065V32.71H15.1Z" fill="#b27946"/>
        </g>
      </g>
      <g id="Grupo_55477" data-name="Grupo 55477">
        <path id="Trazado_105306" data-name="Trazado 105306" d="M62.9,61.645a3.774,3.774,0,1,0,3.774,3.774A3.779,3.779,0,0,0,62.9,61.645Zm0,5.032a1.258,1.258,0,1,1,1.258-1.258A1.259,1.259,0,0,1,62.9,66.677Z"/>
        <path id="Trazado_105307" data-name="Trazado 105307" d="M22.645,61.645a3.774,3.774,0,1,0,3.774,3.774A3.779,3.779,0,0,0,22.645,61.645Zm0,5.032A1.258,1.258,0,1,1,23.9,65.419,1.259,1.259,0,0,1,22.645,66.677Z"/>
        <path id="Trazado_105308" data-name="Trazado 105308" d="M75.781,45.29,74.1,44.451l-1.71-10.258a6.27,6.27,0,0,0-6.2-5.257H52.839a6.261,6.261,0,0,0-5,2.516H44.032V18.871H36.484V6.29H18.871V18.871H11.323V31.452H3.774V44.032a2.519,2.519,0,0,0-2.516,2.516v2.516a2.519,2.519,0,0,0,2.516,2.516V62.9a3.779,3.779,0,0,0,3.774,3.774h6.391a8.795,8.795,0,0,0,17.412,0H54.2a8.795,8.795,0,0,0,17.412,0h3.875A3.779,3.779,0,0,0,79.258,62.9V50.916A6.258,6.258,0,0,0,75.781,45.29Zm.961,11.8-2.516-1.258V54.1h2.516ZM26.419,33.968h2.516v2.516H26.419ZM31.452,39V33.968h2.516V44.032H21.387V33.968H23.9V39Zm15.1,5.032H36.484V33.968H39V39h7.548Zm0-8.806v1.258H41.516V33.968h5.159a6.284,6.284,0,0,0-.127,1.258Zm-5.032-3.774H28.935V21.387h2.516v5.032H39V21.387h2.516ZM33.968,21.387h2.516V23.9H33.968ZM26.419,8.806h2.516v2.516H26.419Zm-5.032,0H23.9v5.032h7.548V8.806h2.516V18.871H21.387ZM18.871,21.387h2.516V23.9H18.871Zm-5.032,0h2.516v5.032H23.9V21.387h2.516V31.452H13.839ZM11.323,33.968h2.516v2.516H11.323Zm-5.032,0H8.806V39h7.548V33.968h2.516V44.032H6.29ZM3.774,46.548H46.548v2.516H3.774ZM6.29,56.613h4.679l-.629,2.516H6.29Zm0,6.29V61.645h6.015L14.192,54.1H6.29V51.581H46.548V64.161h-15.2a8.795,8.795,0,0,0-17.412,0H7.548A1.259,1.259,0,0,1,6.29,62.9ZM22.645,71.71a6.29,6.29,0,1,1,6.29-6.29A6.3,6.3,0,0,1,22.645,71.71Zm39-27.677h5.032v2.516H64.161A2.519,2.519,0,0,1,61.645,44.032Zm0-2.516a2.519,2.519,0,0,0-2.516,2.516,4.981,4.981,0,0,0,.7,2.516H54.1V36.484h11.38l.942,5.032ZM54.1,49.065H66.677v8.41A8.774,8.774,0,0,0,54.2,64.161h-.1ZM62.9,71.71a6.29,6.29,0,1,1,6.29-6.29A6.3,6.3,0,0,1,62.9,71.71Zm12.581-7.548H71.609a8.778,8.778,0,0,0-2.415-4.893V42.774l-1.242-6.751a2.517,2.517,0,0,0-2.473-2.056H54.1a2.519,2.519,0,0,0-2.516,2.516V64.161H49.065V35.226a3.779,3.779,0,0,1,3.774-3.774H66.188a3.762,3.762,0,0,1,3.723,3.154l1.921,11.524,2.823,1.412a3.755,3.755,0,0,1,2.087,3.375v.664H71.71v5.81l5.032,2.516v3A1.259,1.259,0,0,1,75.484,64.161Z"/>
      </g>
    </g>
  </g>
</svg>
