<svg xmlns="http://www.w3.org/2000/svg" xmlns:xlink="http://www.w3.org/1999/xlink" width="208" height="208" viewBox="0 0 208 208">
  <defs>
    <filter id="Elipse_4983" x="0" y="0" width="208" height="208" filterUnits="userSpaceOnUse">
      <feOffset dx="-6" dy="6" input="SourceAlpha"/>
      <feGaussianBlur stdDeviation="3" result="blur"/>
      <feFlood flood-opacity="0.161"/>
      <feComposite operator="in" in2="blur"/>
      <feComposite in="SourceGraphic"/>
    </filter>
  </defs>
  <g id="Grupo_120928" data-name="Grupo 120928" transform="translate(-480 -10828)">
    <g transform="matrix(1, 0, 0, 1, 480, 10828)" filter="url(#Elipse_4983)">
      <g id="Elipse_4983-2" data-name="Elipse 4983" transform="translate(15 3)" fill="#fff" stroke="#f57c00" stroke-width="6">
        <circle cx="95" cy="95" r="95" stroke="none"/>
        <circle cx="95" cy="95" r="92" fill="none"/>
      </g>
    </g>
    <g id="leche" transform="translate(502.998 10868.008)">
      <g id="Grupo_55240" data-name="Grupo 55240" transform="translate(48.111 2.109)">
        <path id="Trazado_104742" data-name="Trazado 104742" d="M195.4,22.654H151.2V14.218A4.23,4.23,0,0,1,155.417,10h35.769a4.23,4.23,0,0,1,4.218,4.218v8.436Z" transform="translate(-131.122 -10)" fill="#fdd835" fill-rule="evenodd"/>
        <path id="Trazado_104743" data-name="Trazado 104743" d="M151.2,70h44.2l14.256,17.917c3.345,4.2,5.821,7.732,5.821,15.229h-44.2c0-7.5-2.475-11.025-5.821-15.229Z" transform="translate(-131.122 -57.346)" fill="#fff" fill-rule="evenodd"/>
        <path id="Trazado_104744" data-name="Trazado 104744" d="M246.4,227.173h44.2v45.306H246.4Z" transform="translate(-206.243 -181.372)" fill="#f57c00" fill-rule="evenodd"/>
        <path id="Trazado_104745" data-name="Trazado 104745" d="M246.4,442h44.2v6.473a6.027,6.027,0,0,1-5.821,6.181H246.4Z" transform="translate(-206.243 -350.893)" fill="#fff" fill-rule="evenodd"/>
        <path id="Trazado_104746" data-name="Trazado 104746" d="M96.155,442v12.654H61.823A6.027,6.027,0,0,1,56,448.473V442Z" transform="translate(-56.002 -350.893)" fill="#c5d3de" fill-rule="evenodd"/>
        <path id="Trazado_104747" data-name="Trazado 104747" d="M56,227.173H96.155v45.306H56Z" transform="translate(-56.002 -181.372)" fill="#f57c00" fill-rule="evenodd"/>
        <path id="Trazado_104748" data-name="Trazado 104748" d="M96.155,103.147H56c0-7.5,2.475-11.025,5.821-15.229L76.079,70,90.334,87.917C93.68,92.122,96.155,95.65,96.155,103.147Z" transform="translate(-56.002 -57.346)" fill="#c5d3de" fill-rule="evenodd"/>
        <circle id="Elipse_4148" data-name="Elipse 4148" cx="8.605" cy="8.605" r="8.605" transform="translate(53.651 59.849)" fill="#fff"/>
      </g>
      <g id="Grupo_55241" data-name="Grupo 55241" transform="translate(46.002 0)">
        <path id="Trazado_104749" data-name="Trazado 104749" d="M128.3,31.367,114.5,14.026v-7.7A6.334,6.334,0,0,0,108.174,0H72.405a6.334,6.334,0,0,0-6.327,6.327v7.7l-13.8,17.341C48.6,35.988,46,39.88,46,47.91V99.689a8.125,8.125,0,0,0,7.93,8.29h72.716a8.125,8.125,0,0,0,7.93-8.29V47.91c0-8.03-2.6-11.921-6.279-16.543Zm2.061,18.652V91.107H90.373V50.019Zm-.076-4.218H90.308c-.422-6.641-2.875-10.237-6.214-14.434l-11.533-14.5h38.814L125,33.993C127.962,37.718,129.89,40.527,130.284,45.8ZM70.3,6.327a2.111,2.111,0,0,1,2.109-2.109h35.769a2.111,2.111,0,0,1,2.109,2.109v6.327H70.3ZM55.582,33.993,68.188,18.15,80.793,33.993c2.964,3.725,4.892,6.534,5.286,11.807H78.137a2.109,2.109,0,1,0,0,4.218h8.018V91.107H50.22V50.019h8.936a2.109,2.109,0,0,0,0-4.218H50.3C50.69,40.527,52.618,37.718,55.582,33.993Zm-5.362,65.7V95.325H86.155v8.436H53.932a3.909,3.909,0,0,1-3.712-4.072Zm76.428,4.072H90.373V95.325H130.36v4.364a3.909,3.909,0,0,1-3.712,4.072Z" transform="translate(-46.002 0)"/>
        <path id="Trazado_104750" data-name="Trazado 104750" d="M311.111,305.213A10.714,10.714,0,1,0,300.4,294.5,10.726,10.726,0,0,0,311.111,305.213Zm0-17.209a6.5,6.5,0,1,1-6.5,6.5A6.5,6.5,0,0,1,311.111,288Z" transform="translate(-246.747 -223.937)"/>
        <path id="Trazado_104751" data-name="Trazado 104751" d="M145.484,221.391a2.109,2.109,0,1,0,0-4.218h0a2.109,2.109,0,1,0,0,4.218Z" transform="translate(-122.839 -171.372)"/>
      </g>
    </g>
  </g>
</svg>
