<svg id="Grupo_120796" data-name="Grupo 120796" xmlns="http://www.w3.org/2000/svg" xmlns:xlink="http://www.w3.org/1999/xlink" width="100.006" height="100" viewBox="0 0 100.006 100">
  <defs>
    <clipPath id="clip-path">
      <rect id="Rectángulo_37738" data-name="Rectángulo 37738" width="100.006" height="100" fill="#d06a01"/>
    </clipPath>
  </defs>
  <g id="Grupo_120764" data-name="Grupo 120764" clip-path="url(#clip-path)">
    <path id="Trazado_182247" data-name="Trazado 182247" d="M.017,13.688C.017,9.432.034,5.176,0,.921-.005.228.094,0,.873,0Q24.656.043,48.438.022a4.868,4.868,0,0,0,.111,1.58c-.014,1.349-.014,1.349-1.324,1.349q-17.7,0-35.4,0c-1.982,0-3.964.019-5.946.029-.746-.011-1.494.009-2.237-.042-.554-.038-.72.145-.71.7C2.967,5.427,2.922,7.214,2.956,9c.017.894-.418,2.152.186,2.587.619.447,1.8.111,2.739.118.325.01.649.029.974.029h89.12a2.59,2.59,0,0,1,.39,0c.556.085.708-.151.7-.7-.028-2.375-.056-4.751.011-7.124.024-.853-.253-.983-1.029-.982q-21.475.036-42.949.018c-1.529,0-1.529,0-1.726-1.406q0-.762-.006-1.523H99.983q0,6.344,0,12.687a3.14,3.14,0,0,1-.181,1.236q-7.212,17.7-14.391,35.408a1.011,1.011,0,0,1-.885.73c-1.914.306-3.822.654-5.74.988a1.664,1.664,0,0,0,.411.893q3.942,6.549,7.9,13.09c.779,1.29.779,1.291-.4,2.127a2.08,2.08,0,0,0-.515.253c-.622.563-.964.308-1.289-.343-.317-.636-.728-1.225-1.1-1.833l-5.876-9.6-.122-.15-.02.158q.005,1.463.01,2.926a8.812,8.812,0,0,0,.77,4.7c3.165,6.953,6.247,13.945,9.3,20.947.39.895.832,1.3,1.783,1.07H95.9c-2.771-4.588-5.464-9.046-8.156-13.5-.824-1.364-.823-1.365.506-2.237,1.191-.628,1.191-.628,1.926.589q4.682,7.753,9.37,15.5A2.816,2.816,0,0,1,100,87.2c-.024,3.936-.041,7.874.01,11.81.011.83-.217.988-1.01.987q-49.49-.033-98.979-.019V86.314c.076-.1.16-.2.226-.311Q10.607,68.849,20.966,51.693c.113-.187.3-.352.225-.639-1.842-.318-3.687-.669-5.544-.939a1.3,1.3,0,0,1-1.151-.953c-1.99-4.96-4.012-9.907-6.023-14.858-.567-1.4-.567-1.4.73-2.062,1.427-.411,1.426-.41,2.013,1.03,1.782,4.375,3.592,8.74,5.324,13.135.335.849.784,1.192,1.644,1.074a20.732,20.732,0,0,0,3.1.587,1.179,1.179,0,0,0,0-.227Q14.946,31.508,8.62,15.171a.7.7,0,0,0-.795-.514c-.909.034-1.82.027-2.73.037a3.527,3.527,0,0,0-1.375.061c.124.323.234.622.353.917q2.409,5.942,4.821,11.882c.565,1.391.566,1.391-.714,2.079a1.1,1.1,0,0,0-.377.083c-.819.546-1.156.231-1.469-.624-.745-2.031-1.588-4.027-2.425-6.023C2.6,19.946,1.453,16.757.017,13.688M80.076,47.825a17.717,17.717,0,0,1,2.113-.312c.723-.024.979-.414,1.22-1.009Q89.692,30.993,96,15.492c.1-.243.342-.483.176-.8H92.952c-1.057-.28-1.5.207-1.867,1.19-1.673,4.483-3.438,8.932-5.17,13.393-.548,1.413-.548,1.413-1.943,1.013-1.336-.667-1.337-.668-.779-2.1q2.414-6.212,4.83-12.424c.426-1.1.424-1.1-.78-1.1h-71.8c-.324,0-.649.017-.974.026-.746-.01-1.494,0-2.239-.038-.494-.024-.664.128-.454.606.1.237.2.479.292.721q5.877,15.138,11.752,30.277c.972,2.507.962,2.511,3.653,2.262a.477.477,0,0,0,.093-.028c.355.02.71.057,1.066.057q8.973.005,17.945,0c1.976,0,1.929,0,1.978,2,.02.833-.3.946-1.016.942-4.323-.026-8.647-.018-12.971-.011-2.144,0-4.288.031-6.432.047a18,18,0,0,0-2.221-.082c-.626-.064-.757.208-.747.782.033,1.812.012,3.626.012,5.439,0,2.895,0,2.895,2.975,2.534a2.588,2.588,0,0,0,.383.056q22.786,0,45.573.009c.673,0,.717-.285.713-.813-.019-2.342-.04-4.685.01-7.025.016-.761-.187-.971-.959-.968-6.831.031-13.662.018-20.493.018-1.933,0-1.889,0-1.944-1.944-.023-.825.229-1.02,1.031-1.016,7.286.031,14.573.008,21.859.034a1.181,1.181,0,0,0,1.325-.914c1.83-4.823,3.729-9.619,5.575-14.435.233-.607.467-.862,1.081-.489a1.906,1.906,0,0,0,.462.14,1.488,1.488,0,0,0,.334.169c.949.207,1.169.6.76,1.6-1.627,3.976-3.142,8-4.7,12.005-.17.439-.323.886-.5,1.386a3.2,3.2,0,0,0,1.412-.192M17.587,75.556a1.3,1.3,0,0,0,.331.2c.938.221.948.714.526,1.464-.394.7-.674,1.468-1,2.208-.857,1.944-1.711,3.888-2.59,5.887h2.926c.357.009.715.025,1.072.025h27.8c1.891,0,1.834,0,1.913,1.853.039.927-.27,1.1-1.13,1.1q-20.194-.04-40.388-.017c-.389,0-.779.019-1.169.029-.746-.011-1.494.009-2.237-.042-.554-.038-.72.145-.71.7.034,1.785-.011,3.571.022,5.356.017.894-.418,2.152.186,2.587.619.447,1.8.111,2.739.118.129.01.259.029.388.029q44.989,0,89.978.019c.729,0,.832-.248.822-.886-.037-2.276-.058-4.555.008-6.83.026-.885-.211-1.108-1.1-1.106q-21.323.046-42.647.021c-1.874,0-1.83,0-1.89-1.874-.027-.832.157-1.083,1.05-1.08,10.507.037,21.014.024,31.521.024h1.139c-.191-.452-.335-.806-.489-1.155-2.96-6.674-5.935-13.341-8.861-20.03a1.383,1.383,0,0,0-1.51-.973q-22.933.036-45.867.02c-.356,0-.712.037-1.068.056-.551-.019-1.107.006-1.651-.067-.813-.11-1.19.233-1.5.98-1.118,2.662-2.321,5.288-3.492,7.928-.6,1.349-.6,1.349-1.922.9a1.363,1.363,0,0,0-.326-.188c-.956-.236-1.027-.7-.611-1.567,1.117-2.334,2.015-4.777,3.208-7.069a11.422,11.422,0,0,0,1.171-6.564V55.614l-.161-.061L4.093,85.311H5.478c1.851.009,3.7-.007,5.553.041.543.014.713-.258.894-.672,1.2-2.73,2.409-5.454,3.618-8.179.642-1.446.643-1.445,2.044-.945" transform="translate(0 0)" fill="#020201"/>
    <path id="Trazado_182248" data-name="Trazado 182248" d="M69.1,93.054c2.144-.016,4.288-.044,6.432-.047,4.324-.007,8.647-.015,12.971.011.712,0,1.036-.109,1.016-.942-.049-2,0-2-1.978-2q-8.972,0-17.945,0c-.355,0-.711-.038-1.066-.057-.265-.626-.545-1.247-.792-1.88-2.9-7.459-5.818-14.911-8.682-22.385-1.217-3.175-2.567-6.3-3.624-9.535.325-.009.649-.026.974-.026h71.8c1.2,0,1.206,0,.78,1.1q-2.414,6.212-4.83,12.424c-.558,1.437-.557,1.437.779,2.1-.437.839-.449,1.877-1.2,2.569a1.913,1.913,0,0,1-.462-.14c-.614-.374-.848-.119-1.081.488-1.845,4.817-3.745,9.613-5.575,14.435a1.181,1.181,0,0,1-1.325.914c-7.286-.027-14.573,0-21.859-.034-.8,0-1.054.191-1.031,1.016C92.456,93,92.412,93,94.345,93c6.831,0,13.662.013,20.493-.018.773,0,.976.207.959.968-.05,2.341-.029,4.684-.01,7.025,0,.528-.04.813-.713.813q-22.786-.026-45.573-.009a2.584,2.584,0,0,1-.383-.056L69.1,93.054m51.433-28.637c-.5-.05-.5.327-.592.569q-1.149,2.948-2.27,5.906c-.846,2.226-1.105,1.768,1.348,2.741.479.19.717.073.891-.387.918-2.428,1.85-4.851,2.776-7.276.092-.242.249-.561-.045-.7-.7-.331-1.44-.588-2.108-.852M93.895,74.574c1.468,0,1.477,0,1.468-1.1-.019-2.136.214-1.816-1.131-1.833-1.81-.023-1.81-.007-1.81,1.253,0,1.676,0,1.676,1.474,1.676m-5.854,0c1.465,0,1.474,0,1.464-1.1-.019-2.129.215-1.813-1.135-1.83-1.806-.023-1.806-.007-1.806,1.257,0,1.673,0,1.673,1.477,1.673m24.8,22.782c-.021-1.617.22-1.488-1.313-1.494-1.616-.007-1.627,0-1.614,1.424.016,1.816-.243,1.616,1.377,1.615,1.786,0,1.524.226,1.55-1.545m12.069-37.1c.037-.385-.2-.49-.45-.588-.451-.179-.893-.392-1.357-.527-.293-.085-.71-.494-.907.05a5.687,5.687,0,0,0-.781,2.421c0,.034.106.066.166.089.635.243,1.266.494,1.907.72.212.075.491.116.6-.14.3-.681.559-1.379.817-2.025" transform="translate(-40.964 -41.522)" fill="#d06a01"/>
    <path id="Trazado_182249" data-name="Trazado 182249" d="M44,242.139c.356-.02.712-.056,1.068-.056q22.934,0,45.867-.021a1.383,1.383,0,0,1,1.51.973c2.926,6.689,5.9,13.356,8.861,20.03.155.349.3.7.489,1.155h-1.139c-10.507,0-21.014.013-31.522-.024-.892,0-1.076.248-1.049,1.081.06,1.872.016,1.874,1.89,1.874q21.323,0,42.647-.022c.891,0,1.128.222,1.1,1.106-.066,2.275-.045,4.554-.008,6.83.01.638-.092.887-.822.886q-44.989-.03-89.978-.019c-.129,0-.259-.019-.388-.029l.011-2.918c.743.007,1.486,0,2.227.027.478.02.671-.122.7-.646.123-2.3.141-2.3-2.152-2.288-.258,0-.516.014-.774.021l-.011-2.918c.389-.01.779-.029,1.169-.03q20.194,0,40.388.018c.86,0,1.17-.169,1.13-1.1-.079-1.851-.021-1.853-1.913-1.853q-13.9,0-27.8,0c-.357,0-.714-.016-1.071-.025a24.773,24.773,0,0,1,1.926-4.476c.313.939,1.317.8,1.949,1.238.467.327.778.114.961-.375.913-2.441,1.445-1.745-1.065-2.87-.263-.118-.544-.2-.816-.292.382-.89.444-1.947,1.339-2.571.628.246,1.275.454,1.879.75.5.248.79.238,1.038-.34.968-2.258,1.976-4.5,2.971-6.745.121-.274.283-.56-.129-.719a9.225,9.225,0,0,0-2.421-.93L44,242.139M32.776,273.007h2.336c2.1,0,2.068,0,2.073-2.1,0-.723-.272-.853-.911-.842-1.946.034-3.893.012-5.84.012-2.1,0-2.068,0-2.073,2.1,0,.723.271.864.911.841,1.167-.042,2.336-.012,3.5-.012" transform="translate(-16.648 -178.883)" fill="#d06a01"/>
    <path id="Trazado_182250" data-name="Trazado 182250" d="M65.2,5.978l2.823-.056c.2,1.406.2,1.406,1.726,1.406q21.475,0,42.95-.017c.776,0,1.053.129,1.029.982-.068,2.373-.04,4.75-.011,7.124.007.547-.145.782-.7.7a2.625,2.625,0,0,0-.39,0H23.5c-.325,0-.649-.019-.974-.03V7.359c1.982-.01,3.964-.029,5.947-.029q17.7,0,35.4,0c1.31,0,1.31,0,1.324-1.349m35.273,7.206h2.336c2.228,0,2.206,0,2.125-2.239-.021-.575-.232-.7-.754-.7-1.979.022-3.958.009-5.937.009-2.228,0-2.227,0-2.11,2.239a.639.639,0,0,1,0,.1c-.051.484.2.6.641.6,1.232-.017,2.466-.006,3.7,0m8.891-2.93c-1.7.023-1.514-.211-1.511,1.267,0,1.864-.228,1.646,1.213,1.659,1.711.016,1.722,0,1.709-1.361-.018-1.8.238-1.536-1.41-1.566" transform="translate(-16.647 -4.376)" fill="#d06a01"/>
    <path id="Trazado_182251" data-name="Trazado 182251" d="M306.909,224.765a12.176,12.176,0,0,0,1.555,2.383c-1.329.872-1.33.873-.506,2.237l8.156,13.5h-6.263c-.854-1.958-1.7-3.917-2.564-5.872-1.629-3.7-3.253-7.412-4.9-11.109-1.449-3.252-2.926-6.491-4.39-9.736q-.005-1.463-.01-2.925l.072,0,.071-.011,5.876,9.6c.372.608.783,1.2,1.1,1.833s.667.906,1.289.343a2.07,2.07,0,0,1,.515-.253" transform="translate(-220.21 -157.583)" fill="#d06a01"/>
    <path id="Trazado_182252" data-name="Trazado 182252" d="M37.736,220.72a11.423,11.423,0,0,1-1.171,6.565c-1.193,2.292-2.091,4.734-3.208,7.069-.416.869-.345,1.331.611,1.567a1.362,1.362,0,0,1,.326.188l-1.2,2.559c-1.4-.5-1.4-.5-2.044.946q-1.813,4.087-3.618,8.179c-.181.413-.351.685-.894.671-1.85-.047-3.7-.032-5.553-.041a8.917,8.917,0,0,1,.467-1.059q7.091-11.773,14.212-23.529a12.872,12.872,0,0,1,2.067-3.114" transform="translate(-15.511 -163.111)" fill="#d06a01"/>
    <path id="Trazado_182253" data-name="Trazado 182253" d="M19.519,56.192c.91-.01,1.821,0,2.73-.037a.7.7,0,0,1,.795.514Q29.361,73.009,35.7,89.34a1.16,1.16,0,0,1,0,.227,20.7,20.7,0,0,1-3.1-.587,3.871,3.871,0,0,0-.144-.659c-2.946-7.277-5.916-14.543-8.842-21.828-1.377-3.43-2.887-6.807-4.1-10.3" transform="translate(-14.424 -41.498)" fill="#d06a01"/>
    <path id="Trazado_182254" data-name="Trazado 182254" d="M319.673,56.3H322.9c.166.314-.078.554-.176.8Q316.431,72.605,310.13,88.11c-.241.6-.5.985-1.22,1.009a17.666,17.666,0,0,0-2.113.312q1.938-4.976,3.875-9.953,4.5-11.588,9-23.178" transform="translate(-226.722 -41.605)" fill="#d06a01"/>
    <path id="Trazado_182255" data-name="Trazado 182255" d="M47.557,56.178c1.057,3.235,2.407,6.36,3.624,9.535,2.864,7.473,5.782,14.926,8.682,22.385.246.633.527,1.254.792,1.88a.477.477,0,0,1-.093.028c-2.691.25-2.681.246-3.653-2.261Q51.038,72.6,45.156,57.467c-.094-.242-.188-.484-.292-.721-.21-.478-.04-.63.454-.606.745.036,1.492.027,2.239.038" transform="translate(-33.089 -41.486)" fill="#d06a01"/>
    <path id="Trazado_182256" data-name="Trazado 182256" d="M59.642,254.409l1.2-2.559c1.324.449,1.324.449,1.922-.9,1.17-2.64,2.374-5.266,3.492-7.928.314-.748.691-1.09,1.5-.98.543.073,1.1.048,1.651.067l-1.94,4.725c-.7,1.589-1.44,3.163-2.091,4.773a11.662,11.662,0,0,0-1.248,3.211c-.894.624-.957,1.681-1.339,2.571l-1.029,2.3a24.775,24.775,0,0,0-1.926,4.476H56.909c.879-2,1.733-3.943,2.59-5.887.326-.74.606-1.506,1-2.208.422-.75.411-1.243-.526-1.464a1.3,1.3,0,0,1-.331-.2" transform="translate(-42.055 -178.853)" fill="#d06a01"/>
    <path id="Trazado_182257" data-name="Trazado 182257" d="M315.675,56.078q-4.5,11.589-9,23.178-1.934,4.978-3.875,9.953a3.2,3.2,0,0,1-1.412.192c.181-.5.334-.947.5-1.386,1.553-4.007,3.068-8.029,4.7-12.005.409-1,.189-1.389-.759-1.6a1.475,1.475,0,0,1-.333-.169c.752-.692.764-1.73,1.2-2.569,1.4.4,1.395.4,1.943-1.013,1.732-4.461,3.5-8.91,5.17-13.393.367-.983.81-1.47,1.867-1.19" transform="translate(-222.723 -41.384)" fill="#d06a01"/>
    <path id="Trazado_182258" data-name="Trazado 182258" d="M15.627,56.19c1.215,3.494,2.726,6.871,4.1,10.3,2.925,7.285,5.9,14.552,8.842,21.828a3.872,3.872,0,0,1,.144.659c-.86.118-1.309-.225-1.644-1.074-1.732-4.4-3.542-8.76-5.324-13.135-.587-1.44-.586-1.441-2.013-1.03l-1.021-2.61c1.279-.688,1.278-.687.713-2.079q-2.412-5.941-4.821-11.882c-.12-.3-.229-.595-.353-.917a3.516,3.516,0,0,1,1.374-.061" transform="translate(-10.533 -41.496)" fill="#d06a01"/>
    <path id="Trazado_182259" data-name="Trazado 182259" d="M33.813,214.9a12.872,12.872,0,0,0-2.067,3.114q-7.14,11.744-14.212,23.529a8.918,8.918,0,0,0-.467,1.059H15.681l17.971-29.758.161.061Z" transform="translate(-11.588 -157.292)" fill="#d06a01"/>
    <path id="Trazado_182260" data-name="Trazado 182260" d="M297.879,224.477c1.464,3.245,2.941,6.484,4.39,9.736,1.647,3.7,3.271,7.4,4.9,11.109.86,1.955,1.71,3.915,2.564,5.872-.951.234-1.393-.174-1.783-1.07-3.054-7-6.136-13.994-9.3-20.947a8.814,8.814,0,0,1-.77-4.7" transform="translate(-220.093 -165.887)" fill="#d06a01"/>
    <path id="Trazado_182261" data-name="Trazado 182261" d="M99.393,197.18q.009,4.336.019,8.672c-2.975.361-2.975.361-2.975-2.534,0-1.813.021-3.626-.012-5.439-.01-.575.12-.846.747-.783a18.046,18.046,0,0,1,2.221.083" transform="translate(-71.258 -145.647)" fill="#d06a01"/>
    <path id="Trazado_182262" data-name="Trazado 182262" d="M13.863,11.292v8.722c-.936-.007-2.12.328-2.739-.118-.6-.435-.169-1.693-.186-2.587-.034-1.785.011-3.571-.022-5.356-.01-.557.156-.741.71-.7.743.051,1.491.032,2.237.042" transform="translate(-7.983 -8.31)" fill="#d06a01"/>
    <path id="Trazado_182263" data-name="Trazado 182263" d="M13.874,343.973l-.011,2.918c-.936-.007-2.12.328-2.739-.118-.6-.435-.169-1.693-.186-2.587-.033-1.785.011-3.571-.022-5.356-.011-.557.156-.741.71-.7.743.051,1.491.031,2.237.042l.011,2.918v2.886" transform="translate(-7.983 -249.871)" fill="#d06a01"/>
    <path id="Trazado_182264" data-name="Trazado 182264" d="M298.129,212.813l-.071.011-.072,0,.02-.158.122.15" transform="translate(-220.21 -157.157)" fill="#e18d5d"/>
    <path id="Trazado_182265" data-name="Trazado 182265" d="M296.488,87.708c.943.374,1.986.736,2.978,1.2.415.2.194.646.063.988-1.308,3.426-2.624,6.848-3.922,10.278-.246.651-.581.816-1.259.547-3.465-1.374-3.1-.727-1.9-3.871q1.589-4.177,3.207-8.343c.133-.341.132-.874.836-.8" transform="translate(-216.675 -66.731)" fill="#d06a01"/>
    <path id="Trazado_182266" data-name="Trazado 182266" d="M198.624,118.32c-1.474,0-1.474,0-1.474-1.676,0-1.26,0-1.276,1.81-1.253,1.345.017,1.112-.3,1.131,1.833.01,1.1,0,1.1-1.468,1.1" transform="translate(-145.693 -85.267)" fill="#020201"/>
    <path id="Trazado_182267" data-name="Trazado 182267" d="M176.186,118.32c-1.478,0-1.478,0-1.477-1.673,0-1.264,0-1.28,1.806-1.257,1.35.017,1.116-.3,1.135,1.83.01,1.1,0,1.1-1.464,1.1" transform="translate(-129.109 -85.267)" fill="#020201"/>
    <path id="Trazado_182268" data-name="Trazado 182268" d="M267.091,209.688c-.026,1.77.235,1.544-1.551,1.545-1.62,0-1.361.2-1.377-1.615-.012-1.426,0-1.431,1.614-1.425,1.533.006,1.293-.122,1.313,1.495" transform="translate(-195.211 -153.853)" fill="#d06a01"/>
    <path id="Trazado_182269" data-name="Trazado 182269" d="M312.466,68.265c-.312.784-.628,1.629-.99,2.455-.136.311-.474.261-.732.17-.777-.275-1.542-.579-2.311-.873-.073-.028-.2-.066-.2-.108-.1-1.106.6-1.969.946-2.934.238-.66.744-.164,1.1-.061.562.164,1.1.422,1.644.639.3.12.591.247.546.713" transform="translate(-228.146 -49.623)" fill="#d06a01"/>
    <path id="Trazado_182270" data-name="Trazado 182270" d="M84.569,268.444a11.67,11.67,0,0,1,1.248-3.211c.651-1.61,1.389-3.184,2.091-4.773a9.225,9.225,0,0,1,2.421.93c.412.159.25.445.129.719-1,2.246-2,4.487-2.971,6.745-.248.579-.534.588-1.039.34-.6-.3-1.251-.5-1.879-.751" transform="translate(-62.496 -192.48)" fill="#d06a01"/>
    <path id="Trazado_182271" data-name="Trazado 182271" d="M49.291,352.292c-1.168,0-2.337-.03-3.5.012-.64.023-.913-.118-.911-.841.005-2.1-.028-2.1,2.073-2.1,1.947,0,3.894.022,5.84-.012.639-.011.912.119.911.842-.005,2.1.028,2.1-2.073,2.1H49.291" transform="translate(-33.164 -258.168)" fill="#d06a01"/>
    <path id="Trazado_182272" data-name="Trazado 182272" d="M75.5,303.2l1.029-2.3c.272.1.553.174.816.291,2.51,1.126,1.978.429,1.065,2.87-.183.489-.494.7-.961.375-.632-.443-1.636-.3-1.949-1.238" transform="translate(-55.793 -222.363)" fill="#d06a01"/>
    <path id="Trazado_182273" data-name="Trazado 182273" d="M22.57,352.306V349.42c.258-.007.516-.02.774-.021,2.293-.009,2.274-.01,2.152,2.288-.028.524-.221.666-.7.646-.742-.03-1.485-.02-2.227-.027" transform="translate(-16.679 -258.204)" fill="#d06a01"/>
    <path id="Trazado_182274" data-name="Trazado 182274" d="M309.521,25.943c-1.45,0-2.9-.013-4.349.006-.514.007-.813-.135-.753-.7a.71.71,0,0,0,0-.114C304.28,22.5,304.28,22.5,306.9,22.5c2.327,0,4.654.015,6.981-.01.614-.007.862.145.886.822.095,2.634.121,2.633-2.5,2.633h-2.747" transform="translate(-225.708 -16.878)" fill="#d06a01"/>
    <path id="Trazado_182275" data-name="Trazado 182275" d="M351.915,22.52c2.741.05,2.316-.387,2.346,2.6.022,2.272,0,2.29-2.843,2.264-2.4-.022-2.013.342-2.018-2.76,0-2.459-.317-2.069,2.515-2.108" transform="translate(-259.166 -17.613)" fill="#d06a01"/>
  </g>
</svg>
