<svg xmlns="http://www.w3.org/2000/svg" xmlns:xlink="http://www.w3.org/1999/xlink" width="140" height="140.875" viewBox="0 0 140 140.875">
  <defs>
    <clipPath id="clip-path">
      <rect id="Rectángulo_5869" data-name="Rectángulo 5869" width="140" height="140.875" transform="translate(0.383)" fill="#fff" stroke="#707070" stroke-width="1"/>
    </clipPath>
  </defs>
  <g id="Enmascarar_grupo_22" data-name="Enmascarar grupo 22" transform="translate(-0.383)" clip-path="url(#clip-path)">
    <g id="azucar" transform="translate(25.319 0)">
      <path id="Trazado_104565" data-name="Trazado 104565" d="M44.967,37.419S0,49.3,0,88.756a44.966,44.966,0,0,0,89.932,0c0-39.454-44.965-51.336-44.965-51.336Zm0,0" transform="translate(0 6.752)" fill="#f9efd1"/>
      <g id="Grupo_55189" data-name="Grupo 55189" transform="translate(0 8.423)">
        <path id="Trazado_104566" data-name="Trazado 104566" d="M8.48,88.755c0-31.971,29.526-45.837,40.726-49.947-2.62-.961-4.24-1.39-4.24-1.39S0,49.3,0,88.755a44.966,44.966,0,0,0,44.967,44.967c1.43,0,2.843-.07,4.24-.2A44.969,44.969,0,0,1,8.48,88.755Zm0,0" transform="translate(0 -1.672)" fill="#e6ddc1"/>
        <path id="Trazado_104567" data-name="Trazado 104567" d="M9.887,29.169a2.162,2.162,0,0,0,1.476,2.646l29.356,8.626a1.93,1.93,0,0,0,2.4-2.4L34.489,8.69a2.162,2.162,0,0,0-2.646-1.477A31.354,31.354,0,0,0,9.887,29.169Zm0,0" transform="translate(1.77 -7.136)" fill="#e6ddc1"/>
        <path id="Trazado_104568" data-name="Trazado 104568" d="M71.4,29.169a2.161,2.161,0,0,1-1.476,2.646L40.57,40.441a1.93,1.93,0,0,1-2.4-2.4L46.8,8.69a2.163,2.163,0,0,1,2.647-1.477A31.355,31.355,0,0,1,71.4,29.169Zm0,0" transform="translate(6.874 -7.136)" fill="#e6ddc1"/>
      </g>
      <path id="Trazado_104569" data-name="Trazado 104569" d="M22.587,4.911A2.584,2.584,0,0,0,21.6,8.393l17.5,32.07a2.3,2.3,0,0,0,4.046,0l17.5-32.07a2.584,2.584,0,0,0-.988-3.482,37.449,37.449,0,0,0-37.076,0Zm0,0" transform="translate(3.84 0)" fill="#f9efd1"/>
      <path id="Trazado_104570" data-name="Trazado 104570" d="M53.1,43.052H27.437a1.412,1.412,0,0,1-1.411-1.413V34.692a1.412,1.412,0,0,1,1.411-1.413H53.1a1.412,1.412,0,0,1,1.413,1.413v6.949A1.413,1.413,0,0,1,53.1,43.052Zm0,0" transform="translate(4.696 6.005)" fill="#e3637b"/>
      <path id="Trazado_104571" data-name="Trazado 104571" d="M34.505,41.64V34.692a1.411,1.411,0,0,1,1.411-1.413H27.438a1.412,1.412,0,0,0-1.413,1.413v6.949a1.412,1.412,0,0,0,1.413,1.411h8.478a1.411,1.411,0,0,1-1.411-1.413Zm0,0" transform="translate(4.696 6.005)" fill="#d75e74"/>
      <path id="Trazado_104572" data-name="Trazado 104572" d="M33.272,85.551A12.774,12.774,0,1,1,20.5,72.777,12.773,12.773,0,0,1,33.272,85.551Zm0,0" transform="translate(1.394 13.132)" fill="#62c397"/>
      <path id="Trazado_104573" data-name="Trazado 104573" d="M12.674,85.551a12.776,12.776,0,0,1,10.3-12.532,12.774,12.774,0,1,0,0,25.063,12.775,12.775,0,0,1-10.3-12.532Zm0,0" transform="translate(1.394 13.132)" fill="#20ab6c"/>
      <path id="Trazado_104574" data-name="Trazado 104574" d="M72.366,85.551A12.774,12.774,0,1,1,59.592,72.777,12.773,12.773,0,0,1,72.366,85.551Zm0,0" transform="translate(8.448 13.132)" fill="#c2e3ee"/>
      <path id="Trazado_104575" data-name="Trazado 104575" d="M51.766,85.551a12.776,12.776,0,0,1,10.3-12.532,12.774,12.774,0,1,0,0,25.063,12.775,12.775,0,0,1-10.3-12.532Zm0,0" transform="translate(8.448 13.132)" fill="#add9e8"/>
      <path id="Trazado_104576" data-name="Trazado 104576" d="M52.818,89.234A12.773,12.773,0,1,1,40.045,76.461,12.773,12.773,0,0,1,52.818,89.234Zm0,0" transform="translate(4.921 13.797)" fill="#e8a8c2"/>
      <path id="Trazado_104577" data-name="Trazado 104577" d="M32.22,89.234A12.776,12.776,0,0,1,42.519,76.7a12.774,12.774,0,1,0,0,25.063,12.775,12.775,0,0,1-10.3-12.532Zm0,0" transform="translate(4.921 13.797)" fill="#db9eb7"/>
      <path id="Trazado_104578" data-name="Trazado 104578" d="M37.465,100.4A12.774,12.774,0,1,1,24.691,87.623,12.775,12.775,0,0,1,37.465,100.4Zm0,0" transform="translate(2.15 15.811)" fill="#ab8ecd"/>
      <path id="Trazado_104579" data-name="Trazado 104579" d="M16.865,100.4a12.777,12.777,0,0,1,10.3-12.533,12.773,12.773,0,1,0,0,25.064A12.776,12.776,0,0,1,16.865,100.4Zm0,0" transform="translate(2.15 15.811)" fill="#9d7bc6"/>
      <path id="Trazado_104580" data-name="Trazado 104580" d="M68.173,100.4A12.773,12.773,0,1,1,55.4,87.623,12.774,12.774,0,0,1,68.173,100.4Zm0,0" transform="translate(7.692 15.811)" fill="#e3637b"/>
      <path id="Trazado_104581" data-name="Trazado 104581" d="M47.574,100.4a12.777,12.777,0,0,1,10.3-12.533,12.773,12.773,0,1,0,0,25.064A12.776,12.776,0,0,1,47.574,100.4Zm0,0" transform="translate(7.692 15.811)" fill="#d75e74"/>
      <path id="Trazado_104582" data-name="Trazado 104582" d="M52.818,106.065A12.773,12.773,0,1,1,40.045,93.291,12.774,12.774,0,0,1,52.818,106.065Zm0,0" transform="translate(4.921 16.834)" fill="#f5d96c"/>
      <path id="Trazado_104583" data-name="Trazado 104583" d="M32.22,106.065a12.777,12.777,0,0,1,10.3-12.533,12.773,12.773,0,1,0,0,25.064,12.776,12.776,0,0,1-10.3-12.532Zm0,0" transform="translate(4.921 16.834)" fill="#eaca65"/>
    </g>
  </g>
</svg>
