<svg xmlns="http://www.w3.org/2000/svg" xmlns:xlink="http://www.w3.org/1999/xlink" width="139.13" height="140" viewBox="0 0 139.13 140">
  <defs>
    <clipPath id="clip-path">
      <rect id="Rectángulo_5868" data-name="Rectángulo 5868" width="139.13" height="140" transform="translate(0.473)" fill="#fff" stroke="#707070" stroke-width="1"/>
    </clipPath>
  </defs>
  <g id="Enmascarar_grupo_21" data-name="Enmascarar grupo 21" transform="translate(-0.473)" clip-path="url(#clip-path)">
    <g id="aperitivos" transform="translate(0.062 2.542)">
      <g id="Grupo_55186" data-name="Grupo 55186" transform="translate(0 0)">
        <g id="Grupo_55149" data-name="Grupo 55149" transform="translate(61.607 95.266)">
          <path id="Trazado_104524" data-name="Trazado 104524" d="M127.74,92.815v12.309a4.346,4.346,0,0,1-4.328,4.34H56.052a36.286,36.286,0,0,1-3.536-16.648l31.92-9.44Z" transform="translate(-52.516 -83.374)" fill="#ffd772" fill-rule="evenodd"/>
        </g>
        <g id="Grupo_55150" data-name="Grupo 55150" transform="translate(42.355 0)">
          <path id="Trazado_104525" data-name="Trazado 104525" d="M130.581,6.5V18.81l-47.74,6.966L36.1,18.809V6.5a4.348,4.348,0,0,1,4.34-4.331h85.808A4.338,4.338,0,0,1,130.581,6.5Z" transform="translate(-36.105 -2.167)" fill="#ffd772" fill-rule="evenodd"/>
        </g>
        <g id="Grupo_55151" data-name="Grupo 55151" transform="translate(39.607 16.641)">
          <path id="Trazado_104526" data-name="Trazado 104526" d="M130.988,104.416c1.752-18.928,5.239-69.111,0-88.064H36.511c-1.89,6.845-2.644,17.777-2.749,29.836l24.864,58.228h72.361Z" transform="translate(-33.762 -16.352)" fill="#ce9874" fill-rule="evenodd"/>
        </g>
        <g id="Grupo_55152" data-name="Grupo 55152" transform="translate(61.332 34.459)">
          <path id="Trazado_104527" data-name="Trazado 104527" d="M92.983,50.193A71.36,71.36,0,0,1,61.883,34.2c-4.557-4.517-6.042-3.114-8.329,2.944a19.7,19.7,0,0,0-1.273,6.415h4.063a3.155,3.155,0,0,1,3.146,3.146v8.929c-.405.989-.852,1.987-1.289,3.025a29.36,29.36,0,0,0,7.655,6.058,31.531,31.531,0,0,0,3.552,1.427c9.813,3.244,20.323,1.07,26.023-7.461,3.479-5.2,3.722-7.5-1.849-8.4-.194-.032-.389-.056-.6-.089Z" transform="translate(-52.281 -31.54)" fill="#ffd772" fill-rule="evenodd"/>
        </g>
        <g id="Grupo_55153" data-name="Grupo 55153" transform="translate(73.071 41.078)">
          <path id="Trazado_104528" data-name="Trazado 104528" d="M93.7,57.707c-5.7,8.531-16.211,10.7-26.023,7.461-.113.049-.227.089-.332.138-6.853,2.157-6.253,4.72-1.119,10.113,9.148,9.6,23.574,8.937,34.741,1.038,10.664-8.572,15.262-22.261,8.539-33.688-3.779-6.423-5.742-7.721-10.032-1.711a85.5,85.5,0,0,1-7.623,8.248c5.571.9,5.328,3.2,1.849,8.4Z" transform="translate(-62.288 -37.183)" fill="#ffd772" fill-rule="evenodd"/>
        </g>
        <g id="Grupo_55154" data-name="Grupo 55154" transform="translate(70.626 51.894)">
          <path id="Trazado_104529" data-name="Trazado 104529" d="M91.612,47.62q-2.287-.535-4.541-1.217a14.082,14.082,0,0,1-2.449,4.931C79.22,59.4,69.538,61.779,60.2,59.273a29.88,29.88,0,0,0,4.282,2.871,31.53,31.53,0,0,0,3.552,1.427c9.813,3.244,20.323,1.07,26.024-7.461,3.479-5.2,3.722-7.5-1.849-8.4-.195-.032-.389-.057-.6-.089Z" transform="translate(-60.204 -46.403)" fill="#fdb440" fill-rule="evenodd"/>
        </g>
        <g id="Grupo_55155" data-name="Grupo 55155" transform="translate(84.736 41.077)">
          <path id="Trazado_104530" data-name="Trazado 104530" d="M100.988,41.114c6.723,11.427,2.133,25.116-8.531,33.688-6.228,4.4-13.462,6.561-20.225,5.944,8.434,3.487,18.636,1.63,27.013-4.29,10.664-8.572,15.262-22.261,8.539-33.688-3.2-5.45-5.1-7.21-8.215-3.949C100.015,39.492,100.486,40.255,100.988,41.114Z" transform="translate(-72.232 -37.183)" fill="#fdb440" fill-rule="evenodd"/>
        </g>
        <g id="Grupo_55156" data-name="Grupo 55156" transform="translate(125.863)">
          <path id="Trazado_104531" data-name="Trazado 104531" d="M118.259,6.5a4.34,4.34,0,0,0-4.331-4.331H107.29a4.289,4.289,0,0,1,2.173.584A4.355,4.355,0,0,1,111.628,6.5v12.31h6.631Z" transform="translate(-107.29 -2.167)" fill="#fdb440" fill-rule="evenodd"/>
        </g>
        <g id="Grupo_55157" data-name="Grupo 55157" transform="translate(0 52.511)">
          <path id="Trazado_104532" data-name="Trazado 104532" d="M34.271,46.929,0,52.971C.405,53.96.852,54.957,1.289,56A29.444,29.444,0,0,1,4.071,68.063V99.228A36.25,36.25,0,0,1,1.289,114.1C.9,115.026.47,115.934,0,116.859L36.558,122.9l31.984-6.042c-.186-.365-.365-.73-.535-1.087a35.8,35.8,0,0,1-3.536-16.544V68.063A29.517,29.517,0,0,1,67.253,56c.438-1.038.884-2.036,1.289-3.025Z" transform="translate(0 -46.929)" fill="#95d6a4" fill-rule="evenodd"/>
        </g>
        <g id="Grupo_55158" data-name="Grupo 55158" transform="translate(18.465 75.161)">
          <path id="Trazado_104533" data-name="Trazado 104533" d="M37.652,67.972a15.336,15.336,0,0,0-21.912,9.675c9.983,3.017,19.374,2.06,27.572-4.6a15.362,15.362,0,0,0-5.661-5.077Z" transform="translate(-15.741 -66.237)" fill="#dd636e" fill-rule="evenodd"/>
        </g>
        <g id="Grupo_55159" data-name="Grupo 55159" transform="translate(20.525 92.928)">
          <path id="Trazado_104534" data-name="Trazado 104534" d="M45.231,82.276C33.164,78.869,25.525,86.209,17.5,87.449a15.334,15.334,0,0,0,27.735-5.174Z" transform="translate(-17.496 -81.382)" fill="#dd636e" fill-rule="evenodd"/>
        </g>
        <g id="Grupo_55160" data-name="Grupo 55160" transform="translate(0 46.478)">
          <path id="Trazado_104535" data-name="Trazado 104535" d="M68.542,44.932v8.929H0V44.932a3.147,3.147,0,0,1,3.146-3.146H65.4A3.154,3.154,0,0,1,68.542,44.932Z" transform="translate(0 -41.786)" fill="#ccf49e" fill-rule="evenodd"/>
        </g>
        <g id="Grupo_55161" data-name="Grupo 55161" transform="translate(0 122.441)">
          <path id="Trazado_104536" data-name="Trazado 104536" d="M68.542,106.54v8.929a3.153,3.153,0,0,1-3.146,3.146H3.146A3.152,3.152,0,0,1,0,115.469V106.54H68.542Z" transform="translate(0 -106.54)" fill="#ccf49e" fill-rule="evenodd"/>
        </g>
        <g id="Grupo_55162" data-name="Grupo 55162" transform="translate(57.213 46.477)">
          <path id="Trazado_104537" data-name="Trazado 104537" d="M60.1,44.932a3.155,3.155,0,0,0-3.146-3.146H48.77a3.155,3.155,0,0,1,3.146,3.146v8.929H60.1Z" transform="translate(-48.77 -41.785)" fill="#b3e59e" fill-rule="evenodd"/>
        </g>
        <g id="Grupo_55163" data-name="Grupo 55163" transform="translate(58.535 122.441)">
          <path id="Trazado_104538" data-name="Trazado 104538" d="M59.9,106.54H53.043v8.929a3.149,3.149,0,0,1-3.146,3.146h6.861a3.155,3.155,0,0,0,3.146-3.146Z" transform="translate(-49.897 -106.54)" fill="#b3e59e" fill-rule="evenodd"/>
        </g>
        <g id="Grupo_55164" data-name="Grupo 55164" transform="translate(31.035 75.161)">
          <path id="Trazado_104539" data-name="Trazado 104539" d="M41.458,73.049A15.329,15.329,0,0,0,28.71,66.237a15.844,15.844,0,0,0-2.254.162,19.364,19.364,0,0,1,7.51,7.574c.7-.146,1.411-.284,2.141-.4a40.7,40.7,0,0,1,5.352-.527Z" transform="translate(-26.456 -66.237)" fill="#da4a54" fill-rule="evenodd"/>
        </g>
        <g id="Grupo_55165" data-name="Grupo 55165" transform="translate(31.514 93.818)">
          <path id="Trazado_104540" data-name="Trazado 104540" d="M43.609,82.144a33.061,33.061,0,0,0-6.763.6c-.5.1-1.006.2-1.5.316a18.46,18.46,0,0,1-8.483,10.989,14.291,14.291,0,0,0,1.776.106,15.331,15.331,0,0,0,14.97-12.011Z" transform="translate(-26.863 -82.14)" fill="#da4a54" fill-rule="evenodd"/>
        </g>
        <g id="Grupo_55166" data-name="Grupo 55166" transform="translate(0 58.553)">
          <path id="Trazado_104541" data-name="Trazado 104541" d="M68.542,52.079H0c.405.989.852,1.987,1.289,3.033.551,1.314,1.1,2.692,1.565,4.185H58.826a2.053,2.053,0,0,1,.065-.211,26.207,26.207,0,0,0-1.281,8.085V98.337a35.8,35.8,0,0,0,3.536,16.544c.17.357.349.722.535,1.087h6.861c-.187-.365-.365-.73-.535-1.087a35.8,35.8,0,0,1-3.536-16.544V67.171A29.517,29.517,0,0,1,67.252,55.1c.438-1.038.884-2.036,1.289-3.025Z" transform="translate(0 -52.079)" fill="#78c2a4" fill-rule="evenodd"/>
        </g>
        <g id="Grupo_55167" data-name="Grupo 55167" transform="translate(32.165 46.478)">
          <path id="Trazado_104542" data-name="Trazado 104542" d="M31.631,41.786v3.859a2.107,2.107,0,0,1-4.213,0V41.786Z" transform="translate(-27.418 -41.786)" fill="#b3e59e"/>
        </g>
        <g id="Grupo_55168" data-name="Grupo 55168" transform="translate(14.348 46.478)">
          <path id="Trazado_104543" data-name="Trazado 104543" d="M16.444,41.786v3.859a2.107,2.107,0,0,1-4.213,0V41.786Z" transform="translate(-12.23 -41.786)" fill="#b3e59e"/>
        </g>
        <g id="Grupo_55169" data-name="Grupo 55169" transform="translate(49.981 46.478)">
          <path id="Trazado_104544" data-name="Trazado 104544" d="M46.819,41.786v3.859a2.107,2.107,0,0,1-4.213,0V41.786Z" transform="translate(-42.605 -41.786)" fill="#b3e59e"/>
        </g>
        <g id="Grupo_55170" data-name="Grupo 55170" transform="translate(32.164 128.551)">
          <path id="Trazado_104545" data-name="Trazado 104545" d="M31.631,113.854v3.859H27.418v-3.859a2.107,2.107,0,0,1,4.213,0Z" transform="translate(-27.418 -111.747)" fill="#b3e59e"/>
        </g>
        <g id="Grupo_55171" data-name="Grupo 55171" transform="translate(14.348 128.551)">
          <path id="Trazado_104546" data-name="Trazado 104546" d="M16.444,113.854v3.859H12.23v-3.859a2.107,2.107,0,0,1,4.213,0Z" transform="translate(-12.23 -111.747)" fill="#b3e59e"/>
        </g>
        <g id="Grupo_55172" data-name="Grupo 55172" transform="translate(49.981 128.551)">
          <path id="Trazado_104547" data-name="Trazado 104547" d="M46.819,113.854v3.859H42.605v-3.859a2.107,2.107,0,0,1,4.213,0Z" transform="translate(-42.605 -111.747)" fill="#b3e59e"/>
        </g>
        <g id="Grupo_55173" data-name="Grupo 55173" transform="translate(74.152 48.544)">
          <path id="Trazado_104548" data-name="Trazado 104548" d="M65.316,47.773a2.1,2.1,0,0,1-2.107-2.095v-.025a2.107,2.107,0,1,1,2.107,2.119Z" transform="translate(-63.21 -43.547)" fill="#ce9874"/>
        </g>
        <g id="Grupo_55174" data-name="Grupo 55174" transform="translate(82.392 55.737)">
          <path id="Trazado_104549" data-name="Trazado 104549" d="M72.34,53.9a2.1,2.1,0,0,1-2.107-2.095v-.025A2.107,2.107,0,1,1,72.34,53.9Z" transform="translate(-70.233 -49.679)" fill="#ce9874"/>
        </g>
        <g id="Grupo_55175" data-name="Grupo 55175" transform="translate(101.184 73.047)">
          <path id="Trazado_104550" data-name="Trazado 104550" d="M88.359,68.655a2.1,2.1,0,0,1-2.107-2.1v-.016a2.107,2.107,0,1,1,2.107,2.115Z" transform="translate(-86.253 -64.434)" fill="#ce9874"/>
        </g>
        <g id="Grupo_55176" data-name="Grupo 55176" transform="translate(109.691 61.628)">
          <path id="Trazado_104551" data-name="Trazado 104551" d="M95.611,58.926A2.1,2.1,0,0,1,93.5,56.832v-.025a2.107,2.107,0,1,1,2.107,2.119Z" transform="translate(-93.504 -54.7)" fill="#ce9874"/>
        </g>
        <g id="Grupo_55177" data-name="Grupo 55177" transform="translate(125.863)">
          <path id="Trazado_104552" data-name="Trazado 104552" d="M118.217,91.421h-6.35v12.31a4.633,4.633,0,0,1-2.446,3.755,3.392,3.392,0,0,1-1.893.584h6.358a4.347,4.347,0,0,0,4.331-4.339V91.421Z" transform="translate(-107.248 13.284)" fill="#fdb440" fill-rule="evenodd"/>
          <path id="Trazado_104553" data-name="Trazado 104553" d="M117.619,104.416c1.752-18.928,5.239-69.111,0-88.064h-6.631c5.239,18.952,1.744,69.136,0,88.064Z" transform="translate(-106.649 0.289)" fill="#c6875e" fill-rule="evenodd"/>
          <path id="Trazado_104554" data-name="Trazado 104554" d="M118.259,6.5a4.34,4.34,0,0,0-4.331-4.331H107.29a4.289,4.289,0,0,1,2.173.584A4.355,4.355,0,0,1,111.628,6.5v12.31h6.631Z" transform="translate(-107.29 -2.167)" fill="#fdb440" fill-rule="evenodd"/>
        </g>
        <g id="Grupo_55178" data-name="Grupo 55178" transform="translate(71.261)">
          <path id="Trazado_104555" data-name="Trazado 104555" d="M64.958,2.167V8.678a2.107,2.107,0,0,1-4.213,0V2.167Z" transform="translate(-60.745 -2.167)" fill="#fdb440"/>
        </g>
        <g id="Grupo_55179" data-name="Grupo 55179" transform="translate(55.037)">
          <path id="Trazado_104556" data-name="Trazado 104556" d="M51.128,2.167V8.678a2.107,2.107,0,0,1-4.213,0V2.167Z" transform="translate(-46.915 -2.167)" fill="#fdb440"/>
        </g>
        <g id="Grupo_55180" data-name="Grupo 55180" transform="translate(87.488)">
          <path id="Trazado_104557" data-name="Trazado 104557" d="M78.79,2.167V8.678a2.107,2.107,0,0,1-4.213,0V2.167Z" transform="translate(-74.577 -2.167)" fill="#fdb440"/>
        </g>
        <g id="Grupo_55181" data-name="Grupo 55181" transform="translate(103.712)">
          <path id="Trazado_104558" data-name="Trazado 104558" d="M92.62,2.167V8.678a2.107,2.107,0,1,1-4.213,0V2.167Z" transform="translate(-88.407 -2.167)" fill="#fdb440"/>
        </g>
        <g id="Grupo_55182" data-name="Grupo 55182" transform="translate(119.939)">
          <path id="Trazado_104559" data-name="Trazado 104559" d="M106.453,2.167V8.678a2.107,2.107,0,1,1-4.213,0V2.167Z" transform="translate(-102.24 -2.167)" fill="#fdb440"/>
        </g>
        <g id="Grupo_55183" data-name="Grupo 55183" transform="translate(82.631 112.728)">
          <path id="Trazado_104560" data-name="Trazado 104560" d="M74.651,100.367v6.519H70.437v-6.519a2.107,2.107,0,0,1,4.213,0Z" transform="translate(-70.437 -98.26)" fill="#fdb440"/>
        </g>
        <g id="Grupo_55184" data-name="Grupo 55184" transform="translate(100.731 112.728)">
          <path id="Trazado_104561" data-name="Trazado 104561" d="M90.08,100.367v6.519H85.867v-6.519a2.107,2.107,0,0,1,4.213,0Z" transform="translate(-85.867 -98.26)" fill="#fdb440"/>
        </g>
        <g id="Grupo_55185" data-name="Grupo 55185" transform="translate(118.835 112.728)">
          <path id="Trazado_104562" data-name="Trazado 104562" d="M105.512,100.367v6.519H101.3v-6.519a2.107,2.107,0,0,1,4.213,0Z" transform="translate(-101.298 -98.26)" fill="#fdb440"/>
        </g>
      </g>
      <g id="Grupo_55187" data-name="Grupo 55187" transform="translate(12.878 81.954)">
        <path id="Trazado_104563" data-name="Trazado 104563" d="M44.138,72.046a40.707,40.707,0,0,0-5.352.527c-7.931,1.281-14.03,4.379-22.22,4.071a32.467,32.467,0,0,1-5.588-.714V87.26a24.125,24.125,0,0,0,7.647,1.809c7.493.462,13.332-3.114,20.971-4.574a33.062,33.062,0,0,1,6.763-.6,34.183,34.183,0,0,1,5.441.552V72.533a41.505,41.505,0,0,0-7.663-.487Z" transform="translate(-10.978 -72.027)" fill="#ffd772" fill-rule="evenodd"/>
      </g>
      <g id="Grupo_55188" data-name="Grupo 55188" transform="translate(49.33 82.006)">
        <path id="Trazado_104564" data-name="Trazado 104564" d="M46.422,72.525c-1.533-.235-2.984-.381-4.371-.454V83.928a35.042,35.042,0,0,1,4.371.511Z" transform="translate(-42.051 -72.071)" fill="#fdb440" fill-rule="evenodd"/>
      </g>
    </g>
  </g>
</svg>
