<svg xmlns="http://www.w3.org/2000/svg" xmlns:xlink="http://www.w3.org/1999/xlink" width="1030" height="215.996" viewBox="0 0 1030 215.996">
  <defs>
    <clipPath id="clip-path">
      <rect id="Rect치ngulo_37453" data-name="Rect치ngulo 37453" width="80" height="80.879" fill="none"/>
    </clipPath>
    <clipPath id="clip-path-2">
      <rect id="Rect치ngulo_37454" data-name="Rect치ngulo 37454" width="80" height="74.352" fill="none"/>
    </clipPath>
  </defs>
  <g id="Grupo_120845" data-name="Grupo 120845" transform="translate(-285.285 -1381.002)">
    <path id="Trazado_182386" data-name="Trazado 182386" d="M0,0H1030V140H0Z" transform="translate(285.285 1456.998)" fill="#fff3bf" opacity="0.502"/>
    <g id="Trazado_182387" data-name="Trazado 182387" transform="translate(-15886.998 -16638)" fill="#fff3bf">
      <path d="M 16445.28515625 18211.5 L 16283.2861328125 18211.5 C 16279.572265625 18211.5 16275.970703125 18210.7734375 16272.58203125 18209.33984375 C 16269.306640625 18207.955078125 16266.3662109375 18205.97265625 16263.83984375 18203.4453125 C 16261.3134765625 18200.919921875 16259.330078125 18197.978515625 16257.9453125 18194.705078125 C 16256.51171875 18191.31640625 16255.78515625 18187.71484375 16255.78515625 18184 L 16255.78515625 18049.001953125 C 16255.78515625 18045.287109375 16256.51171875 18041.685546875 16257.9453125 18038.296875 C 16259.330078125 18035.0234375 16261.3134765625 18032.08203125 16263.83984375 18029.556640625 C 16266.3662109375 18027.029296875 16269.306640625 18025.046875 16272.58203125 18023.662109375 C 16275.970703125 18022.228515625 16279.572265625 18021.501953125 16283.2861328125 18021.501953125 L 16445.28515625 18021.501953125 C 16448.998046875 18021.501953125 16452.599609375 18022.228515625 16455.98828125 18023.662109375 C 16459.263671875 18025.046875 16462.205078125 18027.029296875 16464.73046875 18029.556640625 C 16467.2578125 18032.08203125 16469.2421875 18035.0234375 16470.626953125 18038.298828125 C 16472.060546875 18041.6875 16472.787109375 18045.2890625 16472.787109375 18049.001953125 L 16472.787109375 18094.845703125 L 16472.787109375 18096.4453125 L 16474.23828125 18097.115234375 L 16519.521484375 18118.0390625 L 16474.16796875 18140.76171875 L 16472.787109375 18141.453125 L 16472.787109375 18142.99609375 L 16472.787109375 18184 C 16472.787109375 18187.712890625 16472.060546875 18191.314453125 16470.626953125 18194.703125 C 16469.2421875 18197.978515625 16467.2578125 18200.919921875 16464.73046875 18203.4453125 C 16462.205078125 18205.97265625 16459.263671875 18207.955078125 16455.98828125 18209.33984375 C 16452.599609375 18210.7734375 16448.998046875 18211.5 16445.28515625 18211.5 Z" stroke="none"/>
      <path d="M 16445.28515625 18209 C 16448.662109375 18209 16451.935546875 18208.33984375 16455.013671875 18207.037109375 C 16457.990234375 18205.779296875 16460.666015625 18203.974609375 16462.962890625 18201.677734375 C 16465.26171875 18199.380859375 16467.064453125 18196.70703125 16468.32421875 18193.73046875 C 16469.626953125 18190.650390625 16470.287109375 18187.376953125 16470.287109375 18184 L 16470.287109375 18139.908203125 L 16473.046875 18138.525390625 L 16513.759765625 18118.12890625 L 16470.287109375 18098.04296875 L 16470.287109375 18049.001953125 C 16470.287109375 18045.625 16469.626953125 18042.3515625 16468.32421875 18039.271484375 C 16467.064453125 18036.294921875 16465.26171875 18033.62109375 16462.962890625 18031.32421875 C 16460.666015625 18029.02734375 16457.990234375 18027.22265625 16455.013671875 18025.96484375 C 16451.935546875 18024.662109375 16448.662109375 18024.001953125 16445.28515625 18024.001953125 L 16283.2861328125 18024.001953125 C 16279.908203125 18024.001953125 16276.634765625 18024.662109375 16273.5556640625 18025.96484375 C 16270.5791015625 18027.22265625 16267.904296875 18029.025390625 16265.607421875 18031.32421875 C 16263.3095703125 18033.62109375 16261.5068359375 18036.294921875 16260.248046875 18039.271484375 C 16258.9453125 18042.349609375 16258.28515625 18045.625 16258.28515625 18049.001953125 L 16258.28515625 18184 C 16258.28515625 18187.376953125 16258.9453125 18190.65234375 16260.248046875 18193.73046875 C 16261.5068359375 18196.70703125 16263.3095703125 18199.380859375 16265.607421875 18201.677734375 C 16267.904296875 18203.9765625 16270.5791015625 18205.779296875 16273.5556640625 18207.037109375 C 16276.634765625 18208.33984375 16279.908203125 18209 16283.2861328125 18209 L 16445.28515625 18209 M 16445.28515625 18214 L 16283.2861328125 18214 C 16266.7158203125 18214 16253.28515625 18200.5703125 16253.28515625 18184 L 16253.28515625 18049.001953125 C 16253.28515625 18032.431640625 16266.7158203125 18019.001953125 16283.2861328125 18019.001953125 L 16445.28515625 18019.001953125 C 16461.8515625 18019.001953125 16475.287109375 18032.431640625 16475.287109375 18049.001953125 L 16475.287109375 18094.845703125 L 16525.28515625 18117.947265625 L 16475.287109375 18142.99609375 L 16475.287109375 18184 C 16475.287109375 18200.5703125 16461.8515625 18214 16445.28515625 18214 Z" stroke="none" fill="#fdd835"/>
    </g>
    <g id="Trazado_182388" data-name="Trazado 182388" transform="translate(-15574.846 -16638)" fill="#ffd1a2">
      <path d="M 16445.28515625 18211.5 L 16283.2861328125 18211.5 C 16279.572265625 18211.5 16275.970703125 18210.7734375 16272.58203125 18209.33984375 C 16269.306640625 18207.955078125 16266.3662109375 18205.97265625 16263.83984375 18203.4453125 C 16261.3134765625 18200.919921875 16259.330078125 18197.978515625 16257.9453125 18194.705078125 C 16256.51171875 18191.31640625 16255.78515625 18187.71484375 16255.78515625 18184 L 16255.78515625 18049.001953125 C 16255.78515625 18045.287109375 16256.51171875 18041.685546875 16257.9453125 18038.296875 C 16259.330078125 18035.0234375 16261.3134765625 18032.08203125 16263.83984375 18029.556640625 C 16266.3662109375 18027.029296875 16269.306640625 18025.046875 16272.58203125 18023.662109375 C 16275.970703125 18022.228515625 16279.572265625 18021.501953125 16283.2861328125 18021.501953125 L 16445.28515625 18021.501953125 C 16448.998046875 18021.501953125 16452.599609375 18022.228515625 16455.98828125 18023.662109375 C 16459.263671875 18025.046875 16462.205078125 18027.029296875 16464.73046875 18029.556640625 C 16467.2578125 18032.08203125 16469.2421875 18035.0234375 16470.626953125 18038.298828125 C 16472.060546875 18041.6875 16472.787109375 18045.2890625 16472.787109375 18049.001953125 L 16472.787109375 18094.845703125 L 16472.787109375 18096.4453125 L 16474.23828125 18097.115234375 L 16519.521484375 18118.0390625 L 16474.16796875 18140.76171875 L 16472.787109375 18141.453125 L 16472.787109375 18142.99609375 L 16472.787109375 18184 C 16472.787109375 18187.712890625 16472.060546875 18191.314453125 16470.626953125 18194.703125 C 16469.2421875 18197.978515625 16467.2578125 18200.919921875 16464.73046875 18203.4453125 C 16462.205078125 18205.97265625 16459.263671875 18207.955078125 16455.98828125 18209.33984375 C 16452.599609375 18210.7734375 16448.998046875 18211.5 16445.28515625 18211.5 Z" stroke="none"/>
      <path d="M 16445.28515625 18209 C 16448.662109375 18209 16451.935546875 18208.33984375 16455.013671875 18207.037109375 C 16457.990234375 18205.779296875 16460.666015625 18203.974609375 16462.962890625 18201.677734375 C 16465.26171875 18199.380859375 16467.064453125 18196.70703125 16468.32421875 18193.73046875 C 16469.626953125 18190.650390625 16470.287109375 18187.376953125 16470.287109375 18184 L 16470.287109375 18139.908203125 L 16473.046875 18138.525390625 L 16513.759765625 18118.12890625 L 16470.287109375 18098.04296875 L 16470.287109375 18049.001953125 C 16470.287109375 18045.625 16469.626953125 18042.3515625 16468.32421875 18039.271484375 C 16467.064453125 18036.294921875 16465.26171875 18033.62109375 16462.962890625 18031.32421875 C 16460.666015625 18029.02734375 16457.990234375 18027.22265625 16455.013671875 18025.96484375 C 16451.935546875 18024.662109375 16448.662109375 18024.001953125 16445.28515625 18024.001953125 L 16283.2861328125 18024.001953125 C 16279.908203125 18024.001953125 16276.634765625 18024.662109375 16273.5556640625 18025.96484375 C 16270.5791015625 18027.22265625 16267.904296875 18029.025390625 16265.607421875 18031.32421875 C 16263.3095703125 18033.62109375 16261.5068359375 18036.294921875 16260.248046875 18039.271484375 C 16258.9453125 18042.349609375 16258.28515625 18045.625 16258.28515625 18049.001953125 L 16258.28515625 18184 C 16258.28515625 18187.376953125 16258.9453125 18190.65234375 16260.248046875 18193.73046875 C 16261.5068359375 18196.70703125 16263.3095703125 18199.380859375 16265.607421875 18201.677734375 C 16267.904296875 18203.9765625 16270.5791015625 18205.779296875 16273.5556640625 18207.037109375 C 16276.634765625 18208.33984375 16279.908203125 18209 16283.2861328125 18209 L 16445.28515625 18209 M 16445.28515625 18214 L 16283.2861328125 18214 C 16266.7158203125 18214 16253.28515625 18200.5703125 16253.28515625 18184 L 16253.28515625 18049.001953125 C 16253.28515625 18032.431640625 16266.7158203125 18019.001953125 16283.2861328125 18019.001953125 L 16445.28515625 18019.001953125 C 16461.8515625 18019.001953125 16475.287109375 18032.431640625 16475.287109375 18049.001953125 L 16475.287109375 18094.845703125 L 16525.28515625 18117.947265625 L 16475.287109375 18142.99609375 L 16475.287109375 18184 C 16475.287109375 18200.5703125 16461.8515625 18214 16445.28515625 18214 Z" stroke="none" fill="#f57c00"/>
    </g>
    <g id="Trazado_182389" data-name="Trazado 182389" transform="translate(-15267.928 -16638)" fill="#b1f9ff">
      <path d="M 16445.28515625 18211.5 L 16283.2861328125 18211.5 C 16279.572265625 18211.5 16275.970703125 18210.7734375 16272.58203125 18209.33984375 C 16269.306640625 18207.955078125 16266.3662109375 18205.97265625 16263.83984375 18203.4453125 C 16261.3134765625 18200.919921875 16259.330078125 18197.978515625 16257.9453125 18194.705078125 C 16256.51171875 18191.31640625 16255.78515625 18187.71484375 16255.78515625 18184 L 16255.78515625 18049.001953125 C 16255.78515625 18045.287109375 16256.51171875 18041.685546875 16257.9453125 18038.296875 C 16259.330078125 18035.0234375 16261.3134765625 18032.08203125 16263.83984375 18029.556640625 C 16266.3662109375 18027.029296875 16269.306640625 18025.046875 16272.58203125 18023.662109375 C 16275.970703125 18022.228515625 16279.572265625 18021.501953125 16283.2861328125 18021.501953125 L 16445.28515625 18021.501953125 C 16448.998046875 18021.501953125 16452.599609375 18022.228515625 16455.98828125 18023.662109375 C 16459.263671875 18025.046875 16462.205078125 18027.029296875 16464.73046875 18029.556640625 C 16467.2578125 18032.08203125 16469.2421875 18035.0234375 16470.626953125 18038.298828125 C 16472.060546875 18041.6875 16472.787109375 18045.2890625 16472.787109375 18049.001953125 L 16472.787109375 18094.845703125 L 16472.787109375 18096.4453125 L 16474.23828125 18097.115234375 L 16519.521484375 18118.0390625 L 16474.16796875 18140.76171875 L 16472.787109375 18141.453125 L 16472.787109375 18142.99609375 L 16472.787109375 18184 C 16472.787109375 18187.712890625 16472.060546875 18191.314453125 16470.626953125 18194.703125 C 16469.2421875 18197.978515625 16467.2578125 18200.919921875 16464.73046875 18203.4453125 C 16462.205078125 18205.97265625 16459.263671875 18207.955078125 16455.98828125 18209.33984375 C 16452.599609375 18210.7734375 16448.998046875 18211.5 16445.28515625 18211.5 Z" stroke="none"/>
      <path d="M 16445.28515625 18209 C 16448.662109375 18209 16451.935546875 18208.33984375 16455.013671875 18207.037109375 C 16457.990234375 18205.779296875 16460.666015625 18203.974609375 16462.962890625 18201.677734375 C 16465.26171875 18199.380859375 16467.064453125 18196.70703125 16468.32421875 18193.73046875 C 16469.626953125 18190.650390625 16470.287109375 18187.376953125 16470.287109375 18184 L 16470.287109375 18139.908203125 L 16473.046875 18138.525390625 L 16513.759765625 18118.12890625 L 16470.287109375 18098.04296875 L 16470.287109375 18049.001953125 C 16470.287109375 18045.625 16469.626953125 18042.3515625 16468.32421875 18039.271484375 C 16467.064453125 18036.294921875 16465.26171875 18033.62109375 16462.962890625 18031.32421875 C 16460.666015625 18029.02734375 16457.990234375 18027.22265625 16455.013671875 18025.96484375 C 16451.935546875 18024.662109375 16448.662109375 18024.001953125 16445.28515625 18024.001953125 L 16283.2861328125 18024.001953125 C 16279.908203125 18024.001953125 16276.634765625 18024.662109375 16273.5556640625 18025.96484375 C 16270.5791015625 18027.22265625 16267.904296875 18029.025390625 16265.607421875 18031.32421875 C 16263.3095703125 18033.62109375 16261.5068359375 18036.294921875 16260.248046875 18039.271484375 C 16258.9453125 18042.349609375 16258.28515625 18045.625 16258.28515625 18049.001953125 L 16258.28515625 18184 C 16258.28515625 18187.376953125 16258.9453125 18190.65234375 16260.248046875 18193.73046875 C 16261.5068359375 18196.70703125 16263.3095703125 18199.380859375 16265.607421875 18201.677734375 C 16267.904296875 18203.9765625 16270.5791015625 18205.779296875 16273.5556640625 18207.037109375 C 16276.634765625 18208.33984375 16279.908203125 18209 16283.2861328125 18209 L 16445.28515625 18209 M 16445.28515625 18214 L 16283.2861328125 18214 C 16266.7158203125 18214 16253.28515625 18200.5703125 16253.28515625 18184 L 16253.28515625 18049.001953125 C 16253.28515625 18032.431640625 16266.7158203125 18019.001953125 16283.2861328125 18019.001953125 L 16445.28515625 18019.001953125 C 16461.8515625 18019.001953125 16475.287109375 18032.431640625 16475.287109375 18049.001953125 L 16475.287109375 18094.845703125 L 16525.28515625 18117.947265625 L 16475.287109375 18142.99609375 L 16475.287109375 18184 C 16475.287109375 18200.5703125 16461.8515625 18214 16445.28515625 18214 Z" stroke="none" fill="#26ccda"/>
    </g>
    <g id="Grupo_120471" data-name="Grupo 120471" transform="translate(343.285 1433.963)">
      <path id="Trazado_104382" data-name="Trazado 104382" d="M68.833,124.244v89.072H38.8V146.895H23.535V124.244Z" transform="translate(-23.535 -124.244)" fill="#fdd835"/>
    </g>
    <g id="Grupo_120472" data-name="Grupo 120472" transform="translate(632.764 1433.963)">
      <path id="Trazado_104384" data-name="Trazado 104384" d="M238.483,190.963v23.286H167.1V195.8l32.192-29.775a26.548,26.548,0,0,0,5.6-6.744,12.189,12.189,0,0,0,1.4-5.472,6.329,6.329,0,0,0-2.227-5.152q-2.227-1.845-6.426-1.847A14.463,14.463,0,0,0,190,148.973a14.184,14.184,0,0,0-5.472,6.109l-22.649-11.325a37.135,37.135,0,0,1,14.888-15.078q9.795-5.537,23.668-5.536a47.774,47.774,0,0,1,18.7,3.435,29.24,29.24,0,0,1,12.725,9.8,24.414,24.414,0,0,1,4.581,14.633,31.2,31.2,0,0,1-3.119,13.807q-3.119,6.426-12.151,14.57l-12.725,11.578Z" transform="translate(-161.883 -123.142)" fill="#f57c00"/>
    </g>
    <g id="Grupo_120473" data-name="Grupo 120473" transform="translate(940.439 1433.963)">
      <path id="Trazado_104385" data-name="Trazado 104385" d="M383.264,168.716a24.416,24.416,0,0,1,5.534,16.1,27.445,27.445,0,0,1-4.389,14.952q-4.39,6.936-13.552,11.259t-22.776,4.327a88.12,88.12,0,0,1-18.769-2.035,58.413,58.413,0,0,1-16.35-5.981l10.179-22.141a47.07,47.07,0,0,0,11.77,4.836,47.725,47.725,0,0,0,12.155,1.655,17.137,17.137,0,0,0,8.395-1.782,5.567,5.567,0,0,0,3.182-5.089q0-6.108-10.561-6.109H336.247v-18.45l13.107-13.36H317.542V124.244h66.421v18.45l-16.542,16.8Q377.729,162.039,383.264,168.716Z" transform="translate(-312.961 -124.244)" fill="#26c6da"/>
    </g>
    <path id="Trazado_182392" data-name="Trazado 182392" d="M9.893-6.035H4.5v3.4h6.367V0H1.074V-14.219h9.814v2.646H4.5v3H9.893Zm6.5-1.621,1.533-2.91h3.418L18.564-5.42,21.484,0H18.047l-1.66-3.125L14.756,0H11.3l2.93-5.42-2.773-5.146h3.457Zm9.229-1.777a3.294,3.294,0,0,1,2.7-1.328,3.284,3.284,0,0,1,2.637,1.035,4.651,4.651,0,0,1,.908,3.057V0h-3.3V-6.592a1.86,1.86,0,0,0-.342-1.235,1.469,1.469,0,0,0-1.162-.4,1.582,1.582,0,0,0-1.436.645V0H22.334V-15h3.291ZM37.168,0h-3.3V-10.566h3.3Zm-3.5-13.3a1.482,1.482,0,0,1,.508-1.159,1.909,1.909,0,0,1,1.318-.452,1.909,1.909,0,0,1,1.318.452,1.482,1.482,0,0,1,.508,1.159,1.482,1.482,0,0,1-.508,1.159,1.909,1.909,0,0,1-1.318.452,1.909,1.909,0,0,1-1.318-.452A1.482,1.482,0,0,1,33.672-13.3ZM49-5.2A6.44,6.44,0,0,1,47.93-1.2,3.6,3.6,0,0,1,44.9.2a3.122,3.122,0,0,1-2.6-1.279L42.168,0H39.219V-15H42.51v5.283a3.013,3.013,0,0,1,2.373-1.045A3.6,3.6,0,0,1,47.93-9.346,6.473,6.473,0,0,1,49-5.361Zm-3.3-.21A4.3,4.3,0,0,0,45.3-7.574a1.366,1.366,0,0,0-1.245-.648,1.576,1.576,0,0,0-1.543.848v4.192a1.585,1.585,0,0,0,1.563.838,1.4,1.4,0,0,0,1.475-1.131A8.121,8.121,0,0,0,45.7-5.405ZM53.926,0h-3.3V-10.566h3.3Zm-3.5-13.3a1.482,1.482,0,0,1,.508-1.159,1.909,1.909,0,0,1,1.318-.452,1.909,1.909,0,0,1,1.318.452,1.482,1.482,0,0,1,.508,1.159,1.482,1.482,0,0,1-.508,1.159,1.909,1.909,0,0,1-1.318.452,1.909,1.909,0,0,1-1.318-.452A1.482,1.482,0,0,1,50.43-13.3ZM60.42-2.344a1.464,1.464,0,0,0,1.074-.376,1.379,1.379,0,0,0,.371-1.05h3.086A3.653,3.653,0,0,1,63.706-.918,4.631,4.631,0,0,1,60.5.2,4.689,4.689,0,0,1,56.865-1.25a5.7,5.7,0,0,1-1.328-4v-.137a6.436,6.436,0,0,1,.591-2.827,4.3,4.3,0,0,1,1.7-1.885,5.081,5.081,0,0,1,2.637-.659A4.573,4.573,0,0,1,63.74-9.619a4.053,4.053,0,0,1,1.211,3.1H61.865a1.807,1.807,0,0,0-.4-1.26,1.382,1.382,0,0,0-1.074-.439q-1.279,0-1.494,1.631a11.507,11.507,0,0,0-.068,1.426,4.52,4.52,0,0,0,.381,2.207A1.319,1.319,0,0,0,60.42-2.344ZM69.814,0h-3.3V-10.566h3.3Zm-3.5-13.3a1.482,1.482,0,0,1,.508-1.159,1.909,1.909,0,0,1,1.318-.452,1.909,1.909,0,0,1,1.318.452,1.482,1.482,0,0,1,.508,1.159,1.482,1.482,0,0,1-.508,1.159,1.909,1.909,0,0,1-1.318.452,1.909,1.909,0,0,1-1.318-.452A1.482,1.482,0,0,1,66.318-13.3Zm5.107,7.92A6.236,6.236,0,0,1,72.041-8.2a4.4,4.4,0,0,1,1.768-1.9,5.323,5.323,0,0,1,2.705-.664,4.858,4.858,0,0,1,3.74,1.47,5.64,5.64,0,0,1,1.367,4v.117a5.472,5.472,0,0,1-1.372,3.921A4.871,4.871,0,0,1,76.533.2,4.927,4.927,0,0,1,72.91-1.157a5.29,5.29,0,0,1-1.475-3.667Zm3.291.205a3.932,3.932,0,0,0,.459,2.148,1.529,1.529,0,0,0,1.357.684q1.758,0,1.8-2.705v-.332q0-2.842-1.816-2.842-1.65,0-1.787,2.451ZM76.963-15h3.477l-2.715,3.066-2.686,0Zm9.131,4.434.107,1.24a3.583,3.583,0,0,1,3.018-1.436,3.015,3.015,0,0,1,2.466.986,4.7,4.7,0,0,1,.845,2.969V0h-3.3V-6.67a1.783,1.783,0,0,0-.322-1.177,1.491,1.491,0,0,0-1.172-.376,1.569,1.569,0,0,0-1.436.762V0H83.008V-10.566Z" transform="translate(431.285 1533.07)" fill="#12263f"/>
    <path id="Trazado_182390" data-name="Trazado 182390" d="M4.5-4.824V0H1.074V-14.219H6.748a6.608,6.608,0,0,1,2.886.6,4.526,4.526,0,0,1,1.943,1.709,4.667,4.667,0,0,1,.688,2.515,4.114,4.114,0,0,1-1.489,3.325A6.179,6.179,0,0,1,6.689-4.824Zm0-2.646H6.748a2.118,2.118,0,0,0,1.519-.5,1.85,1.85,0,0,0,.522-1.406,2.287,2.287,0,0,0-.537-1.592,1.9,1.9,0,0,0-1.465-.605H4.5Zm15.83-.117-1.084-.078a1.947,1.947,0,0,0-1.992.977V0H13.965V-10.566h3.086l.107,1.357a2.548,2.548,0,0,1,2.314-1.553,3.209,3.209,0,0,1,.918.117Zm.42,2.207A6.236,6.236,0,0,1,21.367-8.2a4.4,4.4,0,0,1,1.768-1.9,5.323,5.323,0,0,1,2.705-.664,4.858,4.858,0,0,1,3.74,1.47,5.64,5.64,0,0,1,1.367,4v.117a5.472,5.472,0,0,1-1.372,3.921A4.871,4.871,0,0,1,25.859.2a4.927,4.927,0,0,1-3.623-1.353,5.29,5.29,0,0,1-1.475-3.667Zm3.291.205A3.932,3.932,0,0,0,24.5-3.027a1.529,1.529,0,0,0,1.357.684q1.758,0,1.8-2.705v-.332q0-2.842-1.816-2.842-1.65,0-1.787,2.451Zm11.465-5.391.107,1.24a3.633,3.633,0,0,1,3.018-1.436A2.675,2.675,0,0,1,41.338-9.17a3.516,3.516,0,0,1,3.105-1.592q3.213,0,3.3,3.887V0h-3.3V-6.67a2.014,2.014,0,0,0-.273-1.182,1.164,1.164,0,0,0-1-.371,1.559,1.559,0,0,0-1.455.869l.01.137V0h-3.3V-6.65a2.117,2.117,0,0,0-.264-1.2,1.161,1.161,0,0,0-1.006-.371,1.578,1.578,0,0,0-1.445.869V0H32.422V-10.566Zm13.7,5.186A6.236,6.236,0,0,1,49.824-8.2a4.4,4.4,0,0,1,1.768-1.9,5.323,5.323,0,0,1,2.705-.664,4.858,4.858,0,0,1,3.74,1.47,5.64,5.64,0,0,1,1.367,4v.117a5.472,5.472,0,0,1-1.372,3.921A4.871,4.871,0,0,1,54.316.2a4.927,4.927,0,0,1-3.623-1.353,5.29,5.29,0,0,1-1.475-3.667Zm3.291.205a3.932,3.932,0,0,0,.459,2.148,1.529,1.529,0,0,0,1.357.684q1.758,0,1.8-2.705v-.332q0-2.842-1.816-2.842-1.65,0-1.787,2.451ZM65.322-2.344A1.464,1.464,0,0,0,66.4-2.72a1.379,1.379,0,0,0,.371-1.05h3.086A3.653,3.653,0,0,1,68.608-.918,4.631,4.631,0,0,1,65.4.2,4.689,4.689,0,0,1,61.768-1.25a5.7,5.7,0,0,1-1.328-4v-.137a6.436,6.436,0,0,1,.591-2.827,4.3,4.3,0,0,1,1.7-1.885,5.081,5.081,0,0,1,2.637-.659,4.573,4.573,0,0,1,3.271,1.143,4.053,4.053,0,0,1,1.211,3.1H66.768a1.806,1.806,0,0,0-.4-1.26,1.382,1.382,0,0,0-1.074-.439q-1.279,0-1.494,1.631a11.507,11.507,0,0,0-.068,1.426,4.52,4.52,0,0,0,.381,2.207A1.319,1.319,0,0,0,65.322-2.344ZM74.717,0h-3.3V-10.566h3.3Zm-3.5-13.3a1.482,1.482,0,0,1,.508-1.159,1.909,1.909,0,0,1,1.318-.452,1.909,1.909,0,0,1,1.318.452,1.482,1.482,0,0,1,.508,1.159,1.482,1.482,0,0,1-.508,1.159,1.909,1.909,0,0,1-1.318.452,1.909,1.909,0,0,1-1.318-.452A1.482,1.482,0,0,1,71.221-13.3Zm5.107,7.92A6.236,6.236,0,0,1,76.943-8.2a4.4,4.4,0,0,1,1.768-1.9,5.323,5.323,0,0,1,2.705-.664,4.858,4.858,0,0,1,3.74,1.47,5.64,5.64,0,0,1,1.367,4v.117a5.472,5.472,0,0,1-1.372,3.921A4.871,4.871,0,0,1,81.436.2a4.927,4.927,0,0,1-3.623-1.353,5.29,5.29,0,0,1-1.475-3.667Zm3.291.205a3.932,3.932,0,0,0,.459,2.148,1.529,1.529,0,0,0,1.357.684q1.758,0,1.8-2.705v-.332q0-2.842-1.816-2.842-1.65,0-1.787,2.451ZM81.865-15h3.477l-2.715,3.066-2.686,0ZM91-10.566l.107,1.24a3.583,3.583,0,0,1,3.018-1.436,3.015,3.015,0,0,1,2.466.986,4.7,4.7,0,0,1,.845,2.969V0h-3.3V-6.67a1.783,1.783,0,0,0-.322-1.177,1.491,1.491,0,0,0-1.172-.376,1.569,1.569,0,0,0-1.436.762V0H87.91V-10.566Z" transform="translate(741.607 1533.07)" fill="#12263f"/>
    <path id="Trazado_182391" data-name="Trazado 182391" d="M6.592-3.867,9.424-14.219h3.828L8.467,0H4.717L-.029-14.219h3.8ZM18.818.2a5.432,5.432,0,0,1-3.936-1.45,5.008,5.008,0,0,1-1.5-3.774V-5.3a6.489,6.489,0,0,1,.6-2.861,4.395,4.395,0,0,1,1.753-1.919,5.292,5.292,0,0,1,2.734-.679A4.574,4.574,0,0,1,21.982-9.38a5.43,5.43,0,0,1,1.289,3.853v1.279H16.729a2.372,2.372,0,0,0,.771,1.4,2.3,2.3,0,0,0,1.543.508,2.958,2.958,0,0,0,2.441-1.094l1.5,1.777A4.2,4.2,0,0,1,21.245-.308,5.891,5.891,0,0,1,18.818.2Zm-.371-8.418q-1.445,0-1.719,1.914h3.32v-.254a1.63,1.63,0,0,0-.4-1.226A1.593,1.593,0,0,0,18.447-8.223Zm9.17-2.344.107,1.24a3.583,3.583,0,0,1,3.018-1.436,3.015,3.015,0,0,1,2.466.986,4.7,4.7,0,0,1,.845,2.969V0h-3.3V-6.67a1.783,1.783,0,0,0-.322-1.177,1.491,1.491,0,0,0-1.172-.376,1.569,1.569,0,0,0-1.436.762V0H24.531V-10.566Zm12.09-2.627v2.627h1.738v2.285H39.707v4.834a1.234,1.234,0,0,0,.215.83,1.152,1.152,0,0,0,.85.234,4.828,4.828,0,0,0,.82-.059V-.088A6.074,6.074,0,0,1,39.736.2a3.448,3.448,0,0,1-2.51-.8,3.282,3.282,0,0,1-.811-2.432V-8.281H35.068v-2.285h1.348v-2.627ZM48.691,0a3.716,3.716,0,0,1-.312-.947A3.06,3.06,0,0,1,45.84.2a3.749,3.749,0,0,1-2.539-.9,2.875,2.875,0,0,1-1.045-2.271,2.955,2.955,0,0,1,1.27-2.6,6.468,6.468,0,0,1,3.691-.879h1.016v-.559q0-1.462-1.26-1.462A1.03,1.03,0,0,0,45.8-7.319H42.51a2.95,2.95,0,0,1,1.3-2.487,5.479,5.479,0,0,1,3.325-.956,4.8,4.8,0,0,1,3.193.986,3.429,3.429,0,0,1,1.2,2.705v4.678a4.79,4.79,0,0,0,.449,2.227V0ZM46.631-2.148a1.836,1.836,0,0,0,1.021-.264,1.653,1.653,0,0,0,.581-.6V-4.7h-.957q-1.719,0-1.719,1.543a.942.942,0,0,0,.3.728A1.1,1.1,0,0,0,46.631-2.148Z" transform="translate(1072.285 1533.07)" fill="#12263f"/>
    <g id="Grupo_120475" data-name="Grupo 120475" transform="translate(437.285 1416.91)">
      <g id="Grupo_120474" data-name="Grupo 120474" clip-path="url(#clip-path)">
        <path id="Trazado_181642" data-name="Trazado 181642" d="M73.641,0h4.9A2.491,2.491,0,0,1,80,2.591q-.038,37.824-.019,75.647c0,.21,0,.421,0,.632a1.941,1.941,0,0,1-2,1.989q-1.855.037-3.711,0a1.964,1.964,0,0,1-2.018-1.987,13.291,13.291,0,0,1,.008-2.051c.083-.758-.223-.872-.9-.871q-31.348.026-62.7.014a.98.98,0,0,1-.158,0c-.555-.093-.8.067-.746.7a17.143,17.143,0,0,1,.01,2.131,1.989,1.989,0,0,1-2.1,2.07c-1,.016-2,0-3,0-2.013,0-2.64-.623-2.64-2.627Q.02,40.415,0,2.592A2.5,2.5,0,0,1,1.463,0h4.9A2.615,2.615,0,0,1,7.783,2.7c-.063,2.209-.009,4.42-.026,6.63,0,.428.026.644.569.643,7.394-.021,14.787-.013,22.181-.017a.778.778,0,0,0,.653-.165c1.055-1.045,1.112-1.324.446-2.663-.058-.117-.118-.234-.174-.353a2.415,2.415,0,0,1,2.211-3.6c.921-.019,1.842,0,2.763,0,3.263,0,6.525-.007,9.788,0a2.436,2.436,0,0,1,2.311,3.74c-.126.26-.262.514-.391.772a1.756,1.756,0,0,0,1.458,2.268q11.012,0,22.023.012c.5,0,.661-.115.653-.641-.031-2.21.034-4.422-.032-6.63A2.622,2.622,0,0,1,73.641,0m-45.3,53.315c-6.655,0-13.31,0-19.965-.027-.57,0-.634.228-.622.691.011.445-.04.774.623.771,6.655-.03,13.31-.025,19.965-.03a7.881,7.881,0,0,0,1.478.07c.47.047.63-.136.654-.615.033-.675-.114-1.058-.89-.932a7.338,7.338,0,0,0-1.242.073m41.221-7.282a15.01,15.01,0,0,0,2.254.064c.563.025.456-.4.433-.707s.224-.818-.4-.809a11.015,11.015,0,0,0-2.247.063q-15.39-.006-30.781-.024c-.59,0-.671.226-.683.737-.014.57.189.706.727.7,2.394-.025,4.788-.01,7.182-.011l23.519-.013m-48.2-7.376c.3-1.019.557-1.217,1.62-1.219,2.235,0,4.47-.021,6.7,0,.52.006.75-.076.721-.669-.025-.512-.036-.776-.7-.774q-10.65.041-21.3,0c-.6,0-.671.215-.662.722.008.484.029.744.652.735,2.761-.039,5.522-.02,8.283-.015.986,0,1.263.231,1.532,1.22-.18.874-.735,1.168-1.6,1.159-2.709-.029-5.419.007-8.128-.025-.57-.007-.75.106-.743.718.037,3,.016,6,.016,9,0,1.442,0,1.417,1.441,1.434.519.006.656-.137.647-.655-.033-1.972,0-3.946-.023-5.918a3.8,3.8,0,0,0,.027-1.161c-.34-1.11.11-1.722,1.27-1.732,1.71-.014,3.419,0,5.129,0,1.962,0,2.008.049,1.889,2a.619.619,0,0,0,.007.079c.136,2.26.064,4.522.039,6.782-.01.87.536.563.931.593.423.032.859.155.837-.607-.058-1.971-.02-3.945-.019-5.918a5.386,5.386,0,0,0,0-1.166c-.272-1.2.118-1.749,1.339-1.756,1.71-.01,3.42,0,5.129,0,1.888,0,1.97.089,1.816,1.97a.452.452,0,0,0,.006.079c.189,1.994.046,3.993.079,5.989.024,1.439,0,1.42,1.439,1.43.49,0,.678-.092.673-.642q-.043-4.932,0-9.864c0-.536-.166-.642-.662-.637-2.262.025-4.525-.012-6.786.022a1.389,1.389,0,0,1-1.6-1.161m14.206-26.2c-1.4.4-1.67-.775-2.148-1.644-2.735,3.057-2.1,8.434,1.274,11.3a8.319,8.319,0,0,0,11.759-1.175c2.887-3.564,1.877-8.454.082-10.053Q44.369,15.208,42.2,19.53a2.427,2.427,0,0,1-4.4.007q-.605-1.192-1.194-2.393c-.429-.877-.339-1.244.442-1.9a1.3,1.3,0,0,1,1.671.8c.4.812.814,1.617,1.287,2.553L46.5,5.6H33.494c.83,1.668,1.626,3.261,2.417,4.856.481.971.428,1.265-.34,2M36.99,57.335c-1.018-.323-1.209-.589-1.21-1.723q-.007-14.446.007-28.893c0-.818-.129-1.339-.967-1.686a13.177,13.177,0,0,1-2.048-1.322c0,14.135,0,28.16.007,42.186,0,.752-.341,1.746.149,2.195s1.459.063,2.213.134c.539.05.655-.162.648-.665-.027-1.841-.016-3.684-.008-5.526,0-.981.241-1.271,1.208-1.557a1.351,1.351,0,0,1,1.169,1.587c-.035,1.5-.01,3-.01,4.5,0,1.661,0,1.632,1.689,1.67.617.014.787-.147.781-.775-.032-3.684-.02-7.368-.013-11.051a1.969,1.969,0,0,1,2.275-2.255c1.1.01,2.222.134,3.294.066,2.173-.138,4.339.03,6.507-.044.819-.028,1.056-.213,1.026-1.036A1.858,1.858,0,0,1,55.6,51c2.409-.03,4.819-.026,7.228,0a1.937,1.937,0,0,1,1.938,1.812c.056.432-.211,1.036.152,1.254s.915.068,1.386.079c.079,0,.158,0,.237,0,1.973,0,2.577.609,2.577,2.6,0,3.6.008,7.21-.009,10.815,0,.492.094.715.645.669a11.743,11.743,0,0,1,1.893,0c.518.041.6-.167.594-.626q-.021-9.276,0-18.551c0-.534-.157-.647-.661-.646q-16.379.02-32.759,0c-.56,0-.7.162-.693.707.03,2.21-.01,4.421.024,6.631a1.377,1.377,0,0,1-1.171,1.592M55.665,32.871q6.12,0,12.239,0a2.229,2.229,0,0,1,2.541,2.505c.01,1.921,0,3.843,0,5.764,0,1.132,0,1.111,1.124,1.127.479.007.681-.072.679-.633q-.034-9.278,0-18.556c0-.53-.156-.645-.661-.644q-11.37.023-22.74,0a1.147,1.147,0,0,0-.936.43,10.363,10.363,0,0,1-8.991,3.463c-.753-.071-.786.155-.783.759.021,4.4.012,8.791.012,13.187,0,2.039,0,2.021,2.083,2,.5-.006.618-.153.612-.63-.025-2.053-.014-4.106-.01-6.159,0-1.8.8-2.611,2.592-2.612q6.119,0,12.239,0M2.394,40.435q0,18.6-.014,37.191c0,.66.112.984.848.881a5.509,5.509,0,0,1,1.34,0c.635.069.845-.126.845-.8q-.027-37.27,0-74.541c0-.588-.105-.889-.767-.8a9.943,9.943,0,0,1-1.183.01C2.253,2.386,2.4,2.214,2.4,3.4q-.006,18.517,0,37.033m75.213-.005V4.344c0-1.975,0-1.981-1.939-1.972-1.212.005-1.062-.153-1.063,1.031q0,36.52,0,73.04c0,.651-.28,1.481.12,1.907s1.25.065,1.892.153c.768.105,1.01-.13,1.008-.961q-.047-18.556-.022-37.112M40,70.6v-.006q-15.076,0-30.152.006c-.673,0-1.567-.3-1.958.142-.332.375-.053,1.254-.136,1.9-.1.808.189.979.977.978q30.7-.039,61.408-.031c.674,0,1.56.3,1.968-.135s.046-1.308.132-1.98c.1-.747-.206-.889-.9-.887Q55.668,70.613,40,70.6m9.789-50.581a1.807,1.807,0,0,0,.286.056q10.813,0,21.626.009c.506,0,.535-.223.533-.617-.013-2.1-.033-4.21.01-6.314.013-.649-.151-.829-.815-.827-6.84.024-13.681.012-20.521.01h-.778a10.978,10.978,0,0,1-.34,7.683m-19.549.061a10.818,10.818,0,0,1-.495-7.275c.18-.646-.292-.464-.576-.464-6.917-.007-13.834,0-20.752-.016-.511,0-.669.131-.662.654.029,2.1.043,4.209-.006,6.312-.016.68.2.807.834.8,5.891-.025,11.783-.015,17.674-.015Zm-11.146,2.37c-3.527,0-7.054.019-10.581-.017-.644-.006-.767.192-.761.788.029,3,.013,6,.013,9,0,1.435,0,1.4,1.425,1.438.586.015.671-.185.662-.707-.033-1.895,0-3.79-.018-5.685a5.472,5.472,0,0,0-.1-1.776,1.094,1.094,0,0,1,1.123-1.31q3.158-.043,6.317,0a1.15,1.15,0,0,1,1.1,1.589,1.279,1.279,0,0,0-.116.373c.132,2.366.027,4.734.05,7.1,0,.3.078.433.393.4a3.112,3.112,0,0,1,.71,0c.512.072.654-.113.645-.635-.034-1.974,0-3.948-.021-5.922a4.414,4.414,0,0,0,.016-1.171c-.317-1.175.121-1.748,1.337-1.752,1.684-.007,3.369,0,5.054,0,1.951,0,2.031.085,1.886,2a.465.465,0,0,0,0,.076c.182,2.022.043,4.049.076,6.073.022,1.336.005,1.3,1.354,1.348.641.025.763-.185.758-.781q-.043-4.856,0-9.713c.006-.6-.154-.738-.741-.733-3.527.029-7.054.015-10.581.015m.044,34.659c-3.579,0-7.157.011-10.736-.012-.517,0-.653.136-.649.65.025,3.026.012,6.052.012,9.078,0,1.406,0,1.365,1.379,1.415.629.023.719-.192.709-.751-.035-1.947,0-3.895-.024-5.842a3.874,3.874,0,0,0,.026-1.164c-.336-1.115.117-1.728,1.269-1.735,1.71-.011,3.421,0,5.131,0,1.956,0,2.019.066,1.891,2,0,.026,0,.052,0,.078.02,2.1.043,4.208.058,6.312.008,1.1,0,1.077,1.131,1.1.481.009.619-.106.611-.6-.032-2,0-4-.021-6a4.049,4.049,0,0,0,.007-1.17c-.323-1.108.134-1.707,1.3-1.713,1.816-.009,3.631,0,5.447,0,1.554,0,1.851.357,1.567,1.866a.88.88,0,0,0-.014.231c.163,2,.038,4,.067,5.993.02,1.395.005,1.358,1.386,1.4.613.02.73-.17.725-.745q-.043-4.855,0-9.71c0-.559-.153-.692-.7-.688-3.526.025-7.052.013-10.578.013M59.451,42.064l.142.19c2.652,0,5.3,0,7.956,0,.343,0,.532-.067.529-.474-.015-2.024-.006-4.049-.009-6.074,0-.173.047-.442-.208-.434-.651.018-1.322-.238-1.911.378-1.49,1.558-3.034,3.064-4.567,4.58-.631.624-1.287,1.221-1.932,1.83m-8.964-6.823c-2.425,0-4.626,0-6.828,0-.339,0-.463.12-.461.46.01,2.026,0,4.051.006,6.077,0,.152-.043.348.139.413s.286-.1.4-.208c2.2-2.19,4.39-4.382,6.748-6.736M22.307,30.106c0,.944.027,1.889-.01,2.832-.022.565.2.737.735.711.733-.036,1.469-.033,2.2-.006.492.018.713-.127.707-.662q-.033-2.911,0-5.822c0-.5-.207-.637-.663-.625-.734.021-1.47.031-2.2-.008-.57-.031-.806.144-.779.749.043.942.011,1.888.011,2.832m-10.1-.1c0,1,.015,1.994-.007,2.99-.01.468.15.668.636.651.812-.027,1.626-.022,2.439-.008.4.007.563-.155.561-.559q-.014-2.989,0-5.98c0-.4-.147-.572-.555-.565-.813.014-1.626.018-2.439-.008-.478-.015-.655.17-.643.645.023.944.007,1.888.007,2.832M15.84,64.648c0-.946-.019-1.893.008-2.838.014-.489-.113-.729-.656-.706-.787.033-1.577.024-2.364,0-.492-.017-.634.192-.631.657q.025,2.917,0,5.834c0,.487.189.652.656.638.761-.023,1.525-.037,2.285,0,.568.027.729-.207.711-.742-.032-.945-.009-1.892-.009-2.838m10.1.065c0-1-.012-2,.006-3,.008-.433-.147-.621-.595-.61q-1.221.028-2.443-.005c-.431-.011-.613.138-.61.59q.023,2.956,0,5.912c0,.5.208.638.664.625.761-.022,1.525-.037,2.285,0,.579.027.719-.233.7-.755-.029-.919-.008-1.839-.008-2.759M12.223,47.325c0,1,.012,2-.006,3-.007.4.13.584.541.576.841-.016,1.682-.025,2.522-.014.411.005.545-.166.542-.568q-.021-2.917,0-5.834c0-.441-.143-.612-.589-.6-.788.018-1.577.019-2.364-.017-.538-.025-.672.212-.657.7.029.919.008,1.84.009,2.759m10.091.055c0,.972.015,1.945-.007,2.917-.01.432.13.628.581.616q1.221-.032,2.443-.013c.436.008.6-.154.6-.6q-.025-2.917,0-5.834c0-.445-.159-.611-.6-.6-.788.015-1.577.019-2.364-.016-.528-.023-.682.19-.665.695.031.945.009,1.892.009,2.838m34.61-12.139c-.827,0-1.633.031-2.434-.012a1.4,1.4,0,0,0-1.162.492c-1.955,1.984-3.934,3.945-5.9,5.92-.156.157-.388.268-.43.617.822,0,1.628-.03,2.431.011a1.414,1.414,0,0,0,1.166-.5c1.936-1.966,3.895-3.911,5.838-5.87.174-.176.428-.3.49-.663M62.4,58.673c0-1.522-.03-3.045.015-4.566.018-.608-.184-.813-.76-.728a1.588,1.588,0,0,1-.471,0c-.628-.1-.79.166-.784.782.031,2.991.038,5.983,0,8.974-.01.71.2.962.882.852a1.255,1.255,0,0,1,.393,0c.6.1.756-.171.742-.749-.038-1.521-.013-3.044-.013-4.566m-6.315-.017c0,1.575.015,3.151-.01,4.726-.007.47.113.7.613.627a1.975,1.975,0,0,1,.55,0c.606.089.8-.13.79-.764-.035-2.888-.016-5.777-.016-8.665,0-1.216,0-1.185-1.186-1.219-.567-.016-.777.11-.758.726.048,1.521.016,3.045.016,4.568m6.756-23.415a8.361,8.361,0,0,1-1.172-.009,2.209,2.209,0,0,0-2.057.826c-1.8,1.88-3.67,3.7-5.5,5.546-.169.17-.438.286-.447.659a8.907,8.907,0,0,1,1.18.009,2.177,2.177,0,0,0,1.99-.817c1.805-1.877,3.673-3.694,5.51-5.54.176-.177.422-.309.5-.674m-13.526,25.1V57.817c0-1.321,0-1.3-1.337-1.307-.514,0-.679.136-.67.661.03,1.815.011,3.63.011,5.445,0,1.5,0,1.479,1.474,1.429.414-.014.539-.136.529-.546-.026-1.052-.009-2.1-.008-3.157m2.382-.086V62.78c0,1.278,0,1.249,1.3,1.268.562.008.709-.176.7-.718-.03-1.813-.012-3.626-.012-5.44,0-1.422,0-1.4-1.437-1.379-.467.007-.569.165-.558.593.026,1.051.009,2.1.008,3.153m-6.755.036V57.774c0-1.277,0-1.245-1.293-1.274-.572-.013-.692.18-.682.713.031,1.836.012,3.673.012,5.51,0,1.34,0,1.311,1.328,1.32.538,0,.659-.19.644-.681-.031-1.022-.01-2.046-.009-3.07m21.812.037V57.81c0-1.322,0-1.292-1.34-1.309-.542-.007-.645.184-.638.674.025,1.837.01,3.675.01,5.512,0,1.39,0,1.364,1.369,1.355.5,0,.621-.177.608-.641-.029-1.023-.009-2.047-.009-3.071M48.338,68.179c.682.151,1,.013,1.006-.821s-.238-1-1-.959c-.652.039-1.089-.019-1.063.919.025.879.341,1.028,1.057.86m4.268,0c.7.141,1.125.084,1.1-.847-.02-.793-.251-.976-.984-.925-.628.044-1.147-.071-1.064.905.062.732.171,1.1.947.866m8.763-.019c.671.169,1.069.086,1.057-.822-.01-.786-.238-.975-.967-.912-.6.052-1.168-.122-1.078.883.066.729.182,1.088.988.852m-4.415.013c.642.116,1.144.149,1.091-.807-.039-.7-.108-1.051-.92-.956-.587.069-1.2-.149-1.084.87.073.659.037,1.172.913.893m8.788.008c.755.2,1.076,0,1.035-.876-.033-.7-.176-.944-.911-.908-.678.033-1.176-.05-1.116.943.047.779.251,1.04.992.842m-21.768-.009c.68.212,1.019.053.985-.8-.027-.683-.066-1.079-.908-.974-.586.073-1.168-.149-1.108.869.046.779.18,1.137,1.03.9" transform="translate(0 0.001)" fill="#030302"/>
        <path id="Trazado_181643" data-name="Trazado 181643" d="M198.017,116.619q-6.119,0-12.239,0c-1.787,0-2.588.808-2.592,2.612,0,2.053-.015,4.106.009,6.159.006.477-.115.624-.612.63-2.083.024-2.083.042-2.083-2,0-4.4.01-8.791-.012-13.187,0-.6.03-.83.783-.759a10.363,10.363,0,0,0,8.991-3.463,1.147,1.147,0,0,1,.936-.43q11.37.021,22.74,0c.5,0,.662.115.661.644q-.029,9.278,0,18.556c0,.562-.2.64-.679.633-1.124-.016-1.124,0-1.124-1.127,0-1.921.007-3.843,0-5.764a2.229,2.229,0,0,0-2.541-2.5q-6.119-.006-12.239,0" transform="translate(-142.352 -83.747)" fill="#fbfbfb"/>
        <path id="Trazado_181644" data-name="Trazado 181644" d="M175.058,238.019a1.377,1.377,0,0,0,1.17-1.592c-.033-2.21.007-4.421-.023-6.631-.007-.545.133-.708.693-.707q16.379.024,32.759,0c.5,0,.662.113.661.646q-.03,9.276,0,18.551c0,.459-.076.667-.594.626a11.744,11.744,0,0,0-1.893,0c-.551.046-.647-.177-.645-.669.018-3.6.01-7.21.009-10.815,0-1.993-.6-2.6-2.577-2.6-.079,0-.158,0-.237,0-.471-.011-1.035.132-1.386-.079s-.1-.823-.152-1.254a1.937,1.937,0,0,0-1.938-1.813c-2.409-.025-4.819-.029-7.228,0a1.858,1.858,0,0,0-1.9,2.138c.03.823-.207,1.009-1.026,1.037-2.168.074-4.333-.094-6.507.044-1.072.068-2.195-.056-3.294-.066a1.968,1.968,0,0,0-2.275,2.255c-.007,3.684-.018,7.368.013,11.051.005.628-.165.789-.782.775-1.688-.037-1.689-.008-1.689-1.67,0-1.5-.025-3,.01-4.5a1.351,1.351,0,0,0-1.169-1.587q0-1.571,0-3.143" transform="translate(-138.068 -180.683)" fill="#fbfbfb"/>
        <path id="Trazado_181645" data-name="Trazado 181645" d="M11.276,49.19q0-18.517,0-37.033c0-1.187-.143-1.015,1.062-1.031a10.036,10.036,0,0,0,1.183-.01c.662-.089.767.212.767.8q-.019,37.27,0,74.541c0,.679-.21.874-.845.8a5.5,5.5,0,0,0-1.34,0c-.736.1-.849-.221-.848-.881q.029-18.6.014-37.191" transform="translate(-8.882 -8.754)" fill="#9b5003"/>
        <path id="Trazado_181646" data-name="Trazado 181646" d="M355.738,49.269q0,18.556.022,37.112c0,.831-.239,1.066-1.008.961-.643-.088-1.485.281-1.892-.153s-.12-1.256-.12-1.907q-.01-36.52,0-73.04c0-1.184-.15-1.025,1.063-1.031,1.939-.009,1.939,0,1.939,1.972V49.269" transform="translate(-278.131 -8.838)" fill="#9b5003"/>
        <path id="Trazado_181647" data-name="Trazado 181647" d="M68.824,333.735q15.668,0,31.336-.015c.7,0,1,.14.9.887-.086.671.269,1.553-.132,1.98s-1.293.135-1.968.135q-30.7.014-61.408.031c-.788,0-1.081-.17-.977-.978.083-.644-.2-1.523.136-1.9.391-.441,1.285-.141,1.958-.142q15.076-.014,30.152-.006Z" transform="translate(-28.824 -263.139)" fill="#26ccda"/>
        <path id="Trazado_181648" data-name="Trazado 181648" d="M235.631,66.011a10.978,10.978,0,0,0,.34-7.683h.778c6.84,0,13.681.014,20.521-.01.665,0,.828.178.815.827-.043,2.1-.023,4.21-.01,6.314,0,.394-.027.618-.533.617q-10.813-.022-21.626-.009a1.813,1.813,0,0,1-.286-.056" transform="translate(-185.842 -45.995)" fill="#26ccda"/>
        <path id="Trazado_181649" data-name="Trazado 181649" d="M59.16,66.041H55.177c-5.891,0-11.783-.01-17.674.015-.637,0-.849-.125-.834-.8.049-2.1.035-4.208.006-6.312-.007-.523.151-.655.662-.654,6.917.016,13.834.009,20.752.016.284,0,.756-.182.576.464a10.819,10.819,0,0,0,.495,7.275" transform="translate(-28.92 -45.964)" fill="#26ccda"/>
        <path id="Trazado_181650" data-name="Trazado 181650" d="M158.912,145.847q0,1.571,0,3.143c-.968.286-1.2.576-1.209,1.557-.008,1.842-.019,3.684.008,5.526.007.5-.109.715-.648.665-.754-.071-1.735.3-2.213-.134s-.149-1.443-.149-2.195c-.01-14.025-.008-28.05-.008-42.185a13.21,13.21,0,0,0,2.048,1.322c.838.347.969.869.967,1.686q-.036,14.447-.007,28.893c0,1.134.192,1.4,1.21,1.723" transform="translate(-121.922 -88.51)" fill="#9b5003"/>
        <path id="Trazado_181651" data-name="Trazado 181651" d="M155.423,55.595c-.78.652-.87,1.019-.442,1.9q.587,1.2,1.194,2.393a2.427,2.427,0,0,0,4.4-.007q2.169-4.323,4.334-8.654c1.8,1.6,2.806,6.49-.082,10.053a8.319,8.319,0,0,1-11.759,1.175c-3.372-2.861-4.009-8.238-1.274-11.3.478.869.752,2.04,2.148,1.644a31.4,31.4,0,0,0,1.478,2.795" transform="translate(-118.375 -40.347)" fill="#fbfbfb"/>
        <path id="Trazado_181652" data-name="Trazado 181652" d="M50.283,182.95a1.389,1.389,0,0,0,1.6,1.161c2.262-.034,4.524,0,6.786-.022.5-.005.666.1.662.637q-.04,4.932,0,9.864c0,.55-.183.645-.673.642-1.435-.01-1.415.009-1.439-1.43-.033-2,.11-4-.079-5.989a.452.452,0,0,1-.007-.079c.154-1.881.072-1.97-1.816-1.97-1.71,0-3.42-.008-5.129,0-1.221.007-1.611.559-1.339,1.757a5.4,5.4,0,0,1,0,1.166c0,1.973-.039,3.947.019,5.918.023.762-.414.639-.837.607-.4-.03-.941.277-.931-.593.025-2.26.1-4.522-.039-6.782a.62.62,0,0,1-.007-.079c.119-1.947.073-2-1.889-2-1.71,0-3.42-.01-5.129,0-1.16.01-1.61.621-1.27,1.732a3.8,3.8,0,0,1-.027,1.161c.023,1.973-.009,3.946.024,5.919.008.519-.129.661-.647.655-1.44-.016-1.44.008-1.44-1.434,0-3,.02-6-.017-9-.008-.612.173-.724.743-.718,2.709.031,5.419,0,8.128.024.864.009,1.419-.285,1.6-1.159l3.147,0" transform="translate(-28.919 -144.293)" fill="#fbfbfb"/>
        <path id="Trazado_181653" data-name="Trazado 181653" d="M48.025,106.171c3.527,0,7.054.015,10.581-.014.587,0,.747.134.741.733q-.048,4.856,0,9.713c.005.6-.117.805-.757.781-1.348-.052-1.332-.013-1.354-1.349-.033-2.024.105-4.051-.076-6.073a.468.468,0,0,1,0-.076c.145-1.911.065-2-1.886-2-1.684,0-3.369,0-5.054,0-1.217,0-1.655.577-1.337,1.752a4.423,4.423,0,0,1-.016,1.171c.017,1.974-.013,3.948.022,5.922.009.522-.134.707-.645.635a3.112,3.112,0,0,0-.71,0c-.315.029-.39-.1-.394-.4-.023-2.367.082-4.735-.05-7.1a1.275,1.275,0,0,1,.116-.374,1.149,1.149,0,0,0-1.1-1.589q-3.158-.047-6.317,0a1.093,1.093,0,0,0-1.123,1.31,5.478,5.478,0,0,1,.1,1.776c.014,1.895-.015,3.791.018,5.685.009.522-.076.722-.662.707-1.424-.037-1.425,0-1.425-1.437,0-3,.016-6-.014-9-.006-.6.117-.795.761-.788,3.527.035,7.054.017,10.581.017" transform="translate(-28.931 -83.724)" fill="#fbfbfb"/>
        <path id="Trazado_181654" data-name="Trazado 181654" d="M48.075,270.213c3.526,0,7.052.012,10.578-.013.546,0,.7.129.7.688q-.041,4.855,0,9.71c.005.575-.112.766-.725.745-1.381-.045-1.366-.008-1.386-1.4-.029-2,.1-4-.067-5.994a.879.879,0,0,1,.014-.23c.285-1.509-.013-1.865-1.567-1.866-1.816,0-3.631-.007-5.447,0-1.167.006-1.625.605-1.3,1.713a4.042,4.042,0,0,1-.006,1.17c.017,2-.011,4,.021,6,.008.5-.13.613-.611.6-1.129-.022-1.123.006-1.131-1.1-.015-2.1-.038-4.208-.058-6.312,0-.026-.006-.052,0-.078.128-1.936.065-2-1.891-2-1.71,0-3.421-.008-5.131,0-1.153.007-1.605.62-1.269,1.735a3.874,3.874,0,0,1-.026,1.164c.022,1.947-.011,3.895.024,5.842.01.558-.079.774-.709.751-1.377-.05-1.379-.01-1.379-1.415,0-3.026.012-6.052-.012-9.079,0-.514.132-.653.649-.65,3.578.023,7.157.012,10.736.012" transform="translate(-28.937 -213.107)" fill="#fbfbfb"/>
        <path id="Trazado_181655" data-name="Trazado 181655" d="M162.068,36.153a31.4,31.4,0,0,1-1.478-2.795c.768-.731.821-1.025.34-2-.79-1.6-1.586-3.188-2.417-4.856h13.007l-6.494,13c-.473-.936-.888-1.741-1.287-2.553a1.3,1.3,0,0,0-1.671-.8" transform="translate(-125.02 -20.905)" fill="#fdd835"/>
        <path id="Trazado_181656" data-name="Trazado 181656" d="M211.9,212.582l-23.519.013c-2.394,0-4.788-.014-7.182.011-.538.006-.741-.13-.727-.7.012-.51.094-.738.683-.737q15.39.031,30.779.024a2.58,2.58,0,0,1-.035,1.389" transform="translate(-142.341 -166.549)" fill="#9b5003"/>
        <path id="Trazado_181657" data-name="Trazado 181657" d="M281.357,173.6c.645-.609,1.3-1.207,1.932-1.831,1.533-1.516,3.077-3.022,4.567-4.58.589-.616,1.26-.36,1.911-.378.255-.007.208.261.208.434,0,2.025-.006,4.049.009,6.074,0,.407-.186.475-.529.474-2.652-.007-5.3,0-7.956,0l-.142-.19" transform="translate(-221.906 -131.535)" fill="#f57c00"/>
        <path id="Trazado_181658" data-name="Trazado 181658" d="M50.289,173.021l-3.147,0c-.269-.989-.546-1.219-1.532-1.22-2.761,0-5.522-.024-8.283.015-.623.009-.644-.251-.652-.735-.009-.508.064-.724.662-.722q10.65.037,21.3,0c.663,0,.673.262.7.773.029.593-.2.675-.721.669-2.235-.025-4.47-.009-6.705,0-1.062,0-1.321.2-1.62,1.219" transform="translate(-28.925 -134.364)" fill="#9b5003"/>
        <path id="Trazado_181659" data-name="Trazado 181659" d="M211.726,166.769c-2.358,2.354-4.552,4.546-6.748,6.736-.11.109-.224.268-.4.208s-.139-.261-.139-.413c0-2.026,0-4.051-.006-6.077,0-.339.122-.461.461-.46,2.2.009,4.4,0,6.828,0" transform="translate(-161.239 -131.527)" fill="#f57c00"/>
        <path id="Trazado_181660" data-name="Trazado 181660" d="M57.289,253.618c-6.655,0-13.31,0-19.965.03-.662,0-.611-.326-.623-.771-.012-.463.052-.693.622-.691,6.655.026,13.31.023,19.964.027a2.243,2.243,0,0,1,0,1.4" transform="translate(-28.945 -198.899)" fill="#9b5003"/>
        <path id="Trazado_181661" data-name="Trazado 181661" d="M105.521,129.106c0-.944.031-1.89-.011-2.832-.027-.6.209-.779.778-.749.732.04,1.469.029,2.2.008.457-.013.668.129.663.625q-.027,2.911,0,5.822c.006.535-.216.68-.707.662-.733-.027-1.47-.03-2.2.006-.538.026-.757-.145-.735-.71.037-.943.01-1.888.01-2.832" transform="translate(-83.214 -98.999)" fill="#b1f9ff"/>
        <path id="Trazado_181662" data-name="Trazado 181662" d="M57.753,129.026c0-.944.016-1.889-.007-2.832-.012-.476.164-.661.643-.646.812.026,1.626.021,2.439.008.408-.007.557.167.555.565q-.014,2.99,0,5.98c0,.4-.158.565-.561.558-.813-.014-1.627-.019-2.439.008-.486.016-.646-.184-.636-.651.022-1,.007-1.993.007-2.99" transform="translate(-45.544 -99.019)" fill="#b1f9ff"/>
        <path id="Trazado_181663" data-name="Trazado 181663" d="M61.366,292.711c0,.946-.023,1.893.009,2.838.018.534-.143.769-.711.742-.76-.036-1.524-.022-2.285,0-.467.014-.661-.151-.656-.638q.026-2.917,0-5.834c0-.465.139-.674.63-.657.788.028,1.578.037,2.364,0,.543-.023.67.217.656.706-.027.945-.008,1.892-.008,2.838" transform="translate(-45.526 -228.062)" fill="#f57c00"/>
        <path id="Trazado_181664" data-name="Trazado 181664" d="M109.155,292.783c0,.92-.021,1.84.008,2.759.016.521-.123.782-.7.755-.76-.035-1.524-.021-2.285,0-.456.013-.669-.125-.664-.625q.029-2.956,0-5.912c0-.452.179-.6.61-.59q1.221.031,2.443.005c.448-.01.6.177.595.61-.018,1-.006,2-.005,3" transform="translate(-83.216 -228.069)" fill="#f57c00"/>
        <path id="Trazado_181665" data-name="Trazado 181665" d="M57.809,211.039c0-.92.02-1.84-.008-2.759-.016-.493.119-.729.657-.7.787.036,1.577.035,2.364.017.445-.01.593.161.589.6q-.026,2.917,0,5.834c0,.4-.131.573-.542.568-.841-.011-1.682,0-2.522.014-.411.008-.548-.179-.541-.576.017-1,.006-2,.005-3" transform="translate(-45.586 -163.713)" fill="#ffa726"/>
        <path id="Trazado_181666" data-name="Trazado 181666" d="M105.562,211.045c0-.946.022-1.893-.009-2.838-.017-.5.138-.718.665-.695.787.035,1.577.031,2.364.016.438-.008.6.157.6.6q-.024,2.917,0,5.834c0,.447-.164.609-.6.6q-1.221-.022-2.443.012c-.451.012-.591-.184-.581-.616.022-.972.007-1.944.007-2.917" transform="translate(-83.248 -163.664)" fill="#ffa726"/>
        <path id="Trazado_181667" data-name="Trazado 181667" d="M232.353,166.734c-.062.36-.315.487-.49.663-1.943,1.959-3.9,3.9-5.838,5.87a1.414,1.414,0,0,1-1.166.5c-.8-.041-1.609-.011-2.431-.011.041-.349.273-.46.43-.617,1.965-1.975,3.944-3.936,5.9-5.92a1.4,1.4,0,0,1,1.162-.492c.8.043,1.606.012,2.433.012" transform="translate(-175.429 -131.492)" fill="#fdd835"/>
        <path id="Trazado_181668" data-name="Trazado 181668" d="M287.813,257.849c0,1.522-.025,3.045.013,4.566.014.579-.139.845-.742.749a1.256,1.256,0,0,0-.393,0c-.681.11-.892-.142-.882-.852.042-2.991.035-5.983,0-8.974-.006-.616.155-.88.784-.782a1.588,1.588,0,0,0,.471,0c.576-.086.777.119.76.727-.044,1.521-.015,3.044-.015,4.566" transform="translate(-225.417 -199.175)" fill="#26ccda"/>
        <path id="Trazado_181669" data-name="Trazado 181669" d="M265.344,257.832c0-1.523.032-3.047-.016-4.568-.019-.616.19-.743.758-.726,1.185.034,1.186,0,1.186,1.219,0,2.888-.02,5.777.016,8.665.008.633-.183.853-.79.764a1.966,1.966,0,0,0-.55,0c-.5.069-.62-.157-.613-.627.025-1.575.01-3.151.01-4.726" transform="translate(-209.264 -199.175)" fill="#26ccda"/>
        <path id="Trazado_181670" data-name="Trazado 181670" d="M263.119,166.648c-.076.365-.322.5-.5.673-1.837,1.847-3.7,3.663-5.51,5.541a2.177,2.177,0,0,1-1.99.817,8.913,8.913,0,0,0-1.181-.009c.009-.373.278-.489.447-.659,1.834-1.85,3.7-3.667,5.5-5.546a2.21,2.21,0,0,1,2.057-.826,8.355,8.355,0,0,0,1.171.009" transform="translate(-200.283 -131.407)" fill="#26ccda"/>
        <path id="Trazado_181671" data-name="Trazado 181671" d="M225.879,271.278c0,1.052-.017,2.1.008,3.157.01.409-.115.532-.529.546-1.475.05-1.474.067-1.474-1.429,0-1.815.018-3.631-.011-5.445-.009-.525.156-.665.67-.661,1.336.011,1.337-.014,1.337,1.307v2.525" transform="translate(-176.568 -210.934)" fill="#ffa726"/>
        <path id="Trazado_181672" data-name="Trazado 181672" d="M244.609,271.176c0-1.051.018-2.1-.008-3.153-.011-.428.091-.587.558-.593,1.437-.02,1.437-.043,1.437,1.379,0,1.813-.019,3.627.011,5.44.009.542-.137.726-.7.718-1.3-.019-1.3.01-1.3-1.268v-2.523" transform="translate(-192.916 -210.918)" fill="#ffa726"/>
        <path id="Trazado_181673" data-name="Trazado 181673" d="M205.3,271.191c0,1.023-.022,2.047.009,3.069.015.491-.106.684-.644.681-1.328-.009-1.328.02-1.328-1.32,0-1.837.019-3.674-.012-5.51-.009-.533.11-.725.682-.713,1.292.029,1.293,0,1.293,1.274v2.519" transform="translate(-160.361 -210.897)" fill="#26ccda"/>
        <path id="Trazado_181674" data-name="Trazado 181674" d="M308.513,271.231c0,1.024-.02,2.048.009,3.071.013.464-.106.638-.608.641-1.369.009-1.369.035-1.369-1.355,0-1.837.015-3.675-.01-5.512-.007-.49.1-.681.638-.674,1.34.017,1.341-.013,1.341,1.309v2.52" transform="translate(-241.763 -210.899)" fill="#26ccda"/>
        <path id="Trazado_181675" data-name="Trazado 181675" d="M329.216,212.335a2.579,2.579,0,0,0,.035-1.389,11.046,11.046,0,0,1,2.248-.063c.629-.009.382.5.4.809s.13.732-.433.707a15.009,15.009,0,0,1-2.254-.064" transform="translate(-259.653 -166.302)" fill="#9b5003"/>
        <path id="Trazado_181676" data-name="Trazado 181676" d="M224.814,316.006c-.716.168-1.033.019-1.057-.86-.026-.938.411-.88,1.063-.919.762-.045,1,.139,1,.959s-.325.971-1.006.82" transform="translate(-176.476 -247.825)" fill="#fdd835"/>
        <path id="Trazado_181677" data-name="Trazado 181677" d="M245.394,316.015c-.777.231-.885-.135-.947-.866-.083-.976.436-.862,1.063-.905.734-.051.964.131.985.925.024.931-.4.988-1.1.847" transform="translate(-192.789 -247.838)" fill="#fdd835"/>
        <path id="Trazado_181678" data-name="Trazado 181678" d="M286.709,316.049c-.806.236-.922-.123-.988-.852-.091-1,.476-.831,1.078-.883.729-.063.957.127.967.912.012.908-.386.991-1.057.822" transform="translate(-225.341 -247.891)" fill="#fdd835"/>
        <path id="Trazado_181679" data-name="Trazado 181679" d="M266.08,315.987c-.875.279-.84-.234-.913-.893-.113-1.019.5-.8,1.084-.871.812-.1.882.257.92.956.053.956-.449.923-1.091.807" transform="translate(-209.127 -247.816)" fill="#fdd835"/>
        <path id="Trazado_181680" data-name="Trazado 181680" d="M307.407,315.988c-.74.2-.944-.062-.992-.841-.06-.993.438-.91,1.116-.943.734-.036.878.206.911.909.041.874-.28,1.073-1.035.876" transform="translate(-241.666 -247.809)" fill="#fdd835"/>
        <path id="Trazado_181681" data-name="Trazado 181681" d="M204.246,315.946c-.85.235-.984-.123-1.03-.9-.061-1.018.522-.8,1.108-.869.842-.105.88.291.908.974.034.849-.3,1.008-.985.8" transform="translate(-160.273 -247.777)" fill="#fdd835"/>
        <path id="Trazado_181682" data-name="Trazado 181682" d="M134.132,253.361a2.243,2.243,0,0,0,0-1.4,7.333,7.333,0,0,1,1.243-.073c.776-.125.924.257.89.932-.024.479-.183.662-.654.615a7.9,7.9,0,0,1-1.478-.07" transform="translate(-105.788 -198.642)" fill="#786d77"/>
      </g>
    </g>
    <g id="megafono" transform="translate(750.607 1406.264)">
      <path id="Trazado_102299" data-name="Trazado 102299" d="M75.361,56.334A4.247,4.247,0,0,1,71.848,62.7,83.45,83.45,0,0,0,37.07,71.81l-3.708,2.14c0,.017-.051-.088,8.977,15.614a3,3,0,0,1-1.1,4.1l-2.925,1.688a3,3,0,0,1-4.1-1.1l-9.005-15.6-1.462.845a6.006,6.006,0,0,1-8.2-2.2l-6.754-11.7a6.006,6.006,0,0,1,2.2-8.2l13.322-7.692A83.463,83.463,0,0,0,49.589,24.149a4.247,4.247,0,0,1,7.272.142L62.639,34.3a6.942,6.942,0,1,1,6.942,12.024Z" transform="translate(-6.657 -11.565)" fill="#e8e8e8"/>
      <path id="Trazado_102300" data-name="Trazado 102300" d="M345.37,92.86a6.941,6.941,0,0,1-2.542,9.482l-6.942-12.024A6.943,6.943,0,0,1,345.37,92.86Z" transform="translate(-279.903 -67.582)" fill="#26ccda"/>
      <path id="Trazado_102301" data-name="Trazado 102301" d="M56.861,24.291a4.206,4.206,0,0,1-.136,4.427A97.791,97.791,0,0,1,28.4,56.686L12.786,65.7a7.005,7.005,0,0,0-2.513,2.47l-1.48-2.562a6.006,6.006,0,0,1,2.2-8.2l13.322-7.692A83.463,83.463,0,0,0,49.589,24.149a4.248,4.248,0,0,1,7.272.142Z" transform="translate(-6.657 -11.565)" fill="#e8e8e8" style="mix-blend-mode: multiply;isolation: isolate"/>
      <path id="Trazado_102302" data-name="Trazado 102302" d="M24.313,187.442l12.757,22.1c-2.556,1.475-10.769,6.216-13.322,7.692a6.006,6.006,0,0,1-8.2-2.2l-6.754-11.7a6.006,6.006,0,0,1,2.2-8.2Z" transform="translate(-6.657 -149.294)" fill="#f57c00"/>
      <path id="Trazado_102303" data-name="Trazado 102303" d="M28.352,194.44c-16.951,9.786-15.828,9.105-16.375,9.531a2.157,2.157,0,0,1-3.186-.636,6.006,6.006,0,0,1,2.2-8.2l13.322-7.692Z" transform="translate(-6.656 -149.293)" fill="#ffa726"/>
      <path id="Trazado_102304" data-name="Trazado 102304" d="M121.9,337.094c-4.743,2.746-1.253.725-8.144,4.7l-2.437-4.218,8.152-4.705Z" transform="translate(-92.763 -270.485)" fill="#afafaf"/>
      <path id="Trazado_102305" data-name="Trazado 102305" d="M344.955,100.646a6.865,6.865,0,0,1-2.127,1.907l-6.942-12.024a6.885,6.885,0,0,1,2.715-.888Z" transform="translate(-279.903 -67.794)" fill="#26ccda" style="mix-blend-mode: multiply;isolation: isolate"/>
      <path id="Trazado_102306" data-name="Trazado 102306" d="M64.692,35.153a8.274,8.274,0,0,0-8.166-14.144L51.359,12.06a5.581,5.581,0,0,0-9.555-.188A82.1,82.1,0,0,1,16.932,37.029a1.334,1.334,0,0,0-.446,1.756c.054.1,8.612,14.92,8.669,15.019a1.333,1.333,0,1,0,2.309-1.333l-8.025-13.9a84.729,84.729,0,0,0,24.62-25.275,2.914,2.914,0,0,1,4.99.1l18.5,32.043a2.915,2.915,0,0,1-2.41,4.371,84.774,84.774,0,0,0-35.333,9.251c-.047.024-12.523,7.228-13.382,7.724a4.675,4.675,0,0,1-6.379-1.709l-6.754-11.7A4.675,4.675,0,0,1,5,47L13.129,42.3A1.333,1.333,0,1,0,11.8,39.993L3.667,44.686A7.345,7.345,0,0,0,.982,54.708l6.754,11.7a7.345,7.345,0,0,0,10.022,2.685l.308-.178L26.4,83.356a4.333,4.333,0,0,0,5.922,1.587l2.925-1.689a4.333,4.333,0,0,0,1.587-5.922L30.927,67.1a1.333,1.333,0,1,0-2.309,1.333l5.91,10.236a1.667,1.667,0,0,1-.611,2.279l-2.925,1.689a1.667,1.667,0,0,1-2.279-.611L20.375,67.58l10.676-6.164a82.1,82.1,0,0,1,34.193-8.945A5.581,5.581,0,0,0,69.859,44.1Zm-.381-9.209a5.617,5.617,0,0,1-.979,6.854l-5.448-9.436A5.607,5.607,0,0,1,64.311,25.943Zm13.041-5.928L73.9,22.007A1.333,1.333,0,1,1,72.569,19.7l3.45-1.992a1.333,1.333,0,1,1,1.333,2.309Zm-14.837-7.6.841-3.139a1.333,1.333,0,1,1,2.576.69l-.841,3.139a1.333,1.333,0,1,1-2.576-.69ZM79.955,34.253a1.334,1.334,0,0,1-1.287.989c-.241,0-.073.028-3.485-.887a1.333,1.333,0,1,1,.69-2.576l3.14.841A1.334,1.334,0,0,1,79.955,34.253Z" transform="translate(0)"/>
    </g>
    <g id="Grupo_120477" data-name="Grupo 120477" transform="translate(1058.285 1425.707)">
      <g id="Grupo_120476" data-name="Grupo 120476" clip-path="url(#clip-path-2)">
        <path id="Trazado_181683" data-name="Trazado 181683" d="M80,35.931c-2.957,5.5-7.645,9.648-11.369,14.549-1.054,1.386-2.229,2.68-3.337,4.026a13.3,13.3,0,0,1-10.636,5c-6.663.054-13.328.082-19.99-.016-3.092-.046-5.269,1.437-7.211,3.563a.715.715,0,0,0-.153.575,7.3,7.3,0,0,1-2.219,5.554q-2.255,2.273-4.529,4.526a1.588,1.588,0,0,1-2.571-.021Q9.332,65.057.689,56.418a1.6,1.6,0,0,1-.008-2.624c1.49-1.491,2.993-2.97,4.48-4.464a7.306,7.306,0,0,1,5.148-2.255.77.77,0,0,0,.758-.508,18.447,18.447,0,0,1,12.588-9.845c.561-.137.581-.418.581-.87Q24.224,19.024,24.231,2.2c0-1.755.447-2.2,2.228-2.2H65.346c1.7,0,2.157.459,2.157,2.186q0,14.446,0,28.892v.832c.574-.538,1.119-1.008,1.619-1.524a6.265,6.265,0,0,1,10.706,2.746c.032.117-.007.269.172.3ZM45.857,3.126q-8.863,0-17.726-.01c-.549,0-.8.055-.794.727q.039,15.774,0,31.547c0,.651.2.743.783.719a19.736,19.736,0,0,1,8.166,1.372,3.013,3.013,0,0,0,1.145.171q8.668-.005,17.335-.005a6.214,6.214,0,0,1,4.7,1.912c.373.389.538.281.841-.039q1.8-1.9,3.642-3.755a1.415,1.415,0,0,0,.441-1.1q-.018-15.423.006-30.844c0-.6-.17-.712-.733-.71-5.935.021-11.869.013-17.8.013M44.349,56.4c3.488,0,6.977.036,10.464-.011a9.733,9.733,0,0,0,7.578-3.278c4.635-5.418,9.154-10.934,13.7-16.424a3.121,3.121,0,1,0-4.681-4.128q-4.829,5-9.669,9.987a1.538,1.538,0,0,0-.483,1.222,6.144,6.144,0,0,1-5.174,6.277,7.4,7.4,0,0,1-1.318.1q-6.443.011-12.886,0c-.1,0-.208,0-.312,0a1.565,1.565,0,1,1,.028-3.119q6.638-.014,13.276,0a3.1,3.1,0,0,0,2.646-1.243,2.95,2.95,0,0,0,.32-3.233,3,3,0,0,0-2.887-1.772q-8.825-.012-17.65,0a4.882,4.882,0,0,1-1.834-.293,17.79,17.79,0,0,0-9.033-1.113,15.707,15.707,0,0,0-12.133,7.794c-.288.487-.47.841.234,1.183a5.4,5.4,0,0,1,1.312,1.092q2.638,2.607,5.25,5.242c1.559,1.569,3.135,3.123,4.639,4.744.4.426.53.5.955.071a10.322,10.322,0,0,1,7.657-3.107c3.332.016,6.664,0,10,0m-20.117,7.5a4.133,4.133,0,0,0-1.2-2.852c-3.216-3.223-6.422-6.455-9.663-9.653a4.042,4.042,0,0,0-5.759-.023c-1.148,1.1-2.246,2.243-3.389,3.343-.317.3-.325.482-.007.8q7.359,7.321,14.69,14.67c.3.3.483.35.8.019,1.1-1.142,2.246-2.242,3.352-3.381a4.147,4.147,0,0,0,1.171-2.921" transform="translate(0 -0.001)" fill="#010101"/>
        <path id="Trazado_181684" data-name="Trazado 181684" d="M149.461,14.918c5.935,0,11.869.008,17.8-.013.563,0,.734.106.733.71q-.033,15.422-.006,30.845a1.417,1.417,0,0,1-.441,1.1q-1.845,1.854-3.642,3.756c-.3.319-.467.428-.84.038a6.215,6.215,0,0,0-4.7-1.912q-8.668.013-17.335.005a3,3,0,0,1-1.145-.171,19.735,19.735,0,0,0-8.166-1.372c-.579.024-.785-.068-.783-.719q.035-15.774,0-31.547c0-.672.245-.728.794-.727q8.863.024,17.726.01m-9.286,11.718A17.349,17.349,0,0,0,140.3,28.9a9.351,9.351,0,0,0,18.346.916,19.5,19.5,0,0,0,.265-4.737c0-.419.09-.617.523-.752a1.488,1.488,0,0,0,1.041-1.632,1.526,1.526,0,0,0-1.408-1.347c-1.143-.05-2.292-.058-3.433.006a1.437,1.437,0,0,0-1.356,1.214,1.252,1.252,0,0,0,.7,1.576c.962.277.843.907.827,1.59s.013,1.354-.015,2.03a6.474,6.474,0,0,1-5.8,6.045,6.239,6.239,0,0,1-6.567-5.122,29.707,29.707,0,0,1-.128-3.659c-.026-.412.113-.561.5-.687a1.512,1.512,0,0,0,1.057-1.7,1.548,1.548,0,0,0-1.454-1.3c-1.118-.041-2.24-.056-3.356.009a1.447,1.447,0,0,0-1.39,1.268,1.309,1.309,0,0,0,.813,1.6c.758.228.748.679.72,1.254-.017.338,0,.677,0,1.163" transform="translate(-103.604 -11.793)" fill="#f57c00"/>
        <path id="Trazado_181685" data-name="Trazado 181685" d="M97.6,175.618c-3.332,0-6.664.012-10,0a10.321,10.321,0,0,0-7.657,3.107c-.425.427-.56.355-.955-.071-1.5-1.622-3.08-3.175-4.639-4.745q-2.614-2.632-5.25-5.242a5.4,5.4,0,0,0-1.312-1.092c-.7-.343-.522-.7-.234-1.183a15.708,15.708,0,0,1,12.133-7.794,17.791,17.791,0,0,1,9.034,1.113,4.877,4.877,0,0,0,1.834.293q8.825-.009,17.65,0a3,3,0,0,1,2.887,1.773,2.95,2.95,0,0,1-.32,3.233,3.1,3.1,0,0,1-2.646,1.243q-6.638-.012-13.276,0a1.565,1.565,0,1,0-.028,3.12c.1,0,.208,0,.312,0q6.443,0,12.886,0a7.421,7.421,0,0,0,1.318-.1,6.143,6.143,0,0,0,5.174-6.276,1.538,1.538,0,0,1,.483-1.222q4.851-4.977,9.669-9.986a3.121,3.121,0,1,1,4.68,4.128c-4.55,5.489-9.07,11.006-13.7,16.424a9.733,9.733,0,0,1-7.578,3.278c-3.488.047-6.976.011-10.465.011m-9.387-6.535a1.539,1.539,0,0,0,1.532-1.529,1.589,1.589,0,0,0-1.578-1.581,1.566,1.566,0,0,0-1.521,1.55,1.519,1.519,0,0,0,1.568,1.56" transform="translate(-53.249 -119.223)" fill="#fcd0a3"/>
        <path id="Trazado_181686" data-name="Trazado 181686" d="M39.32,254.036a4.147,4.147,0,0,1-1.171,2.921c-1.105,1.138-2.25,2.239-3.352,3.381-.32.331-.5.281-.8-.019q-7.332-7.347-14.69-14.67c-.318-.316-.31-.494.007-.8,1.143-1.1,2.241-2.248,3.389-3.343a4.042,4.042,0,0,1,5.759.023c3.24,3.2,6.447,6.43,9.663,9.653a4.133,4.133,0,0,1,1.2,2.852" transform="translate(-15.089 -190.142)" fill="#fdd835"/>
        <path id="Trazado_181687" data-name="Trazado 181687" d="M169.25,50.9c0-.487-.014-.826,0-1.163.028-.575.038-1.027-.72-1.254a1.309,1.309,0,0,1-.813-1.6,1.447,1.447,0,0,1,1.39-1.268c1.115-.065,2.238-.05,3.356-.009a1.548,1.548,0,0,1,1.454,1.3,1.512,1.512,0,0,1-1.057,1.7c-.385.125-.523.274-.5.687a29.713,29.713,0,0,0,.128,3.659,6.239,6.239,0,0,0,6.567,5.122,6.474,6.474,0,0,0,5.8-6.045c.028-.676,0-1.353.015-2.03s.135-1.313-.827-1.59a1.252,1.252,0,0,1-.7-1.576,1.437,1.437,0,0,1,1.356-1.214c1.141-.064,2.29-.056,3.433-.006a1.526,1.526,0,0,1,1.408,1.347,1.488,1.488,0,0,1-1.041,1.632c-.433.135-.519.333-.523.752a19.5,19.5,0,0,1-.265,4.737,9.351,9.351,0,0,1-18.346-.916,17.352,17.352,0,0,1-.125-2.263" transform="translate(-132.679 -36.054)" fill="#030201"/>
        <path id="Trazado_181688" data-name="Trazado 181688" d="M161.519,227.034a1.519,1.519,0,0,1-1.568-1.56,1.566,1.566,0,0,1,1.521-1.55,1.589,1.589,0,0,1,1.578,1.581,1.539,1.539,0,0,1-1.532,1.529" transform="translate(-126.558 -177.174)" fill="#030201"/>
      </g>
    </g>
  </g>
</svg>
