<svg id="Grupo_120674" data-name="Grupo 120674" xmlns="http://www.w3.org/2000/svg" xmlns:xlink="http://www.w3.org/1999/xlink" width="34.352" height="46.291" viewBox="0 0 34.352 46.291">
  <defs>
    <clipPath id="clip-path">
      <rect id="Rectángulo_37606" data-name="Rectángulo 37606" width="34.351" height="46.291" fill="#ffa726"/>
    </clipPath>
  </defs>
  <g id="Grupo_120668" data-name="Grupo 120668" clip-path="url(#clip-path)">
    <path id="Trazado_182152" data-name="Trazado 182152" d="M27.663,0c.085.158.261.115.391.164A2.732,2.732,0,0,1,29.83,2.611a1.468,1.468,0,0,1,0,.226A8.064,8.064,0,0,0,30.84,7.5c.991,1.971,1.845,4.011,2.756,6.023a8.489,8.489,0,0,1,.755,3.546q0,13.219,0,26.438a2.7,2.7,0,0,1-2.762,2.779q-14.416.007-28.831,0A2.692,2.692,0,0,1,0,43.548Q0,30.284,0,17.019a8.388,8.388,0,0,1,.756-3.5q1.8-3.981,3.613-7.96a1.563,1.563,0,0,0,.152-.692c-.009-.663,0-1.326,0-1.988A2.717,2.717,0,0,1,6.387.134C6.463.1,6.575.117,6.6,0ZM32.53,32.1c0-2.028.014-4.057.014-6.086q0-4.192-.014-8.385a7.232,7.232,0,0,0-.659-3.55c-.914-1.975-1.732-4-2.721-5.933A8.929,8.929,0,0,1,28.024,2.92a.662.662,0,0,0,0-.09c-.015-.628-.361-1.017-.9-1.017a.9.9,0,0,0-.9,1.017c-.007.737-.013,1.475,0,2.212a2.411,2.411,0,0,1-.232,1.085c-1.212,2.647-2.4,5.3-3.619,7.949a7.242,7.242,0,0,0-.659,3.55q-.007,4.17-.014,8.34c0,2.044.009,4.087.014,6.131Q21.7,37.835,21.7,43.572a.872.872,0,0,0,.923.9q4.5.012,8.99,0a.9.9,0,0,0,.927-.995c.007-1.491,0-2.982,0-4.473q-.005-3.456-.014-6.911m-30.707,0c0,.15-.014.3-.014.451q0,5.352,0,10.7c0,.953.278,1.229,1.241,1.229H20a17.421,17.421,0,0,1-.108-3.216c-.018-3.056-.015-6.111-.02-9.167,0-1.923.014-3.847.014-5.77q0-4.35-.014-8.7a10.282,10.282,0,0,1,1.069-4.793c.959-2.006,1.847-4.045,2.763-6.071.059-.132.168-.25.138-.417a1.084,1.084,0,0,0-.135-.017q-8.7,0-17.4-.009c-.269,0-.354.12-.448.327q-1.69,3.737-3.395,7.467a7.176,7.176,0,0,0-.642,3.513c0,2.134-.014,4.267-.014,6.4q0,4.035.014,8.069M15.329,4.52c2.89,0,5.78-.006,8.669.008.335,0,.426-.074.421-.416a8.3,8.3,0,0,1,.055-1.935c.062-.281.036-.389-.294-.378-.8.025-1.6.008-2.393.008q-7.179,0-14.358,0c-.771,0-1.1.327-1.1,1.1,0,.376.025.755-.007,1.128s.056.5.474.5c2.844-.023,5.689-.012,8.534-.012" transform="translate(-0.001)" fill="#ffa726"/>
    <path id="Trazado_182160" data-name="Trazado 182160" d="M65.239,185.94c-.427.284-.814.538-1.2.8a.954.954,0,0,1-1.174-.011c-.379-.262-.766-.512-1.213-.809,0,.641,0,1.206,0,1.772-.006.66-.358,1.06-.917,1.051-.543-.008-.886-.4-.889-1.032-.006-1.129,0-2.259,0-3.389a.925.925,0,0,1,.5-.894.894.894,0,0,1,.978.091c.626.417,1.261.821,1.874,1.257a.4.4,0,0,0,.552-.007c.592-.413,1.2-.8,1.8-1.209a.94.94,0,0,1,1.055-.126.966.966,0,0,1,.485.947c-.01,1.1,0,2.2,0,3.3,0,.666-.347,1.064-.905,1.063s-.9-.4-.9-1.066c0-.542,0-1.084-.007-1.626a.935.935,0,0,0-.024-.107" transform="translate(-52.613 -161.17)" fill="#ffa726"/>
  </g>
</svg>
