<svg id="Grupo_120371" data-name="Grupo 120371" xmlns="http://www.w3.org/2000/svg" xmlns:xlink="http://www.w3.org/1999/xlink" width="96.647" height="99.999" viewBox="0 0 96.647 99.999">
  <defs>
    <clipPath id="clip-path">
      <rect id="Rectángulo_37387" data-name="Rectángulo 37387" width="96.647" height="99.999" fill="none"/>
    </clipPath>
  </defs>
  <g id="Grupo_120363" data-name="Grupo 120363" clip-path="url(#clip-path)">
    <path id="Trazado_181408" data-name="Trazado 181408" d="M5.25,97.729q0-2.438,0-4.877a1.6,1.6,0,0,0,1.5-1.835c-.023-1.027-.036-2.057,0-3.083a1.67,1.67,0,0,0-1.5-1.954Q5.238,83.4,5.23,80.826c1.289-.387,1.509-.695,1.509-2.15q0-23.454-.018-46.907c0-.827.194-1.076,1.04-1.05,2.126.065,4.255.037,6.382.012.625-.007.954.08,1.208.8a7.139,7.139,0,0,0,6.471,5.023,1.569,1.569,0,0,0,1.926-1.363,1.464,1.464,0,0,0-1.492-1.576,4.578,4.578,0,0,1-3.642-2.071c-.4-.615-.313-.821.461-.818q7.446.034,14.893,0c.572,0,.749.21.933.731a7.188,7.188,0,0,0,6.321,5.077c1.189.145,1.974-.331,2.1-1.259s-.457-1.542-1.714-1.689a4.414,4.414,0,0,1-3.356-1.977c-.149-.225-.408-.466-.245-.754.144-.253.456-.111.686-.111,4.929-.009,9.858.005,14.786-.021.609,0,.816.2,1.017.764a7.18,7.18,0,0,0,6.341,5.051c1.182.141,1.967-.359,2.07-1.3.1-.907-.474-1.516-1.645-1.645a4.49,4.49,0,0,1-3.331-1.837c-.185-.255-.481-.546-.367-.842.141-.365.565-.169.857-.17,5.851-.012,11.7.007,17.552-.027.773,0,1.018.154,1.007.977-.05,3.651-.006,7.3-.032,10.955-.008,1.084.38,1.773,1.5,1.935v4.952c-1.125.16-1.506.849-1.5,1.933.02,6.347,0,12.694.026,19.04a2.233,2.233,0,0,1-.736,1.752Q63.768,84.691,51.326,97.147a4.074,4.074,0,0,0-1.051,1.682c-.877,2.724-1.8,5.433-2.7,8.152-.165.5-.332.824-1,.816-4.574-.055-9.154.083-13.721-.1-9.115-.376-16.315-9.484-14.753-18.479A16.2,16.2,0,0,1,34.556,75.4q9.1-.005,18.191,0a21.252,21.252,0,0,0,3.389-.229,15.317,15.317,0,0,0-2.786-30.389c-5.6-.058-11.206-.014-16.808-.008a3.234,3.234,0,0,0-.94.114,1.459,1.459,0,0,0,.275,2.844,8.441,8.441,0,0,0,.957.018c5.426,0,10.851-.04,16.277.011,8.183.076,13.945,7.021,12.377,14.849a12.178,12.178,0,0,1-11.58,9.77c-6.453.086-12.908.02-19.361.047a21.987,21.987,0,0,0-3.391.231,19.155,19.155,0,0,0,2.436,38.072c4.822.069,9.645.025,14.468.034a4.157,4.157,0,0,0,1.346-.26c3.114-1.047,6.229-2.09,9.354-3.106a4.318,4.318,0,0,0,1.772-1.105q7.734-7.762,15.487-15.5c.259-.26.472-.565.707-.849l.235.178v.391c0,9.219-.015,18.438.024,27.656,0,.892-.411.829-1.016.828q-34.1-.013-68.192.018c-.938,0-1.062-.289-1.056-1.121.036-6.028,0-12.055.034-18.083.006-1.125-.376-1.838-1.5-2.078M25.159,47.746c.957,0,1.914.012,2.87,0a1.36,1.36,0,0,0,1.5-1.325,1.338,1.338,0,0,0-1.323-1.6c-2.016-.084-4.038-.071-6.055-.007a1.469,1.469,0,0,0,.14,2.933c.956.015,1.913,0,2.87.005" transform="translate(-3.743 -21.968)" fill="#f6f6f6"/>
    <path id="Trazado_181409" data-name="Trazado 181409" d="M1.508,133.09c1.128.24,1.509.952,1.5,2.077-.031,6.028,0,12.056-.034,18.083,0,.832.119,1.122,1.057,1.121q34.1-.047,68.192-.018c.6,0,1.02.064,1.016-.828-.038-9.219-.024-18.437-.024-27.656v-.392l-.235-.178c-.234.284-.448.589-.707.849q-7.742,7.754-15.487,15.5a4.315,4.315,0,0,1-1.773,1.105c-3.124,1.015-6.24,2.058-9.354,3.106a4.165,4.165,0,0,1-1.346.26c-4.823-.009-9.646.035-14.468-.034a19.155,19.155,0,0,1-2.437-38.072,21.986,21.986,0,0,1,3.391-.231c6.454-.027,12.908.039,19.361-.047a12.178,12.178,0,0,0,11.58-9.77c1.568-7.829-4.194-14.773-12.377-14.85-5.425-.05-10.851-.009-16.277-.01a8.5,8.5,0,0,1-.956-.018,1.459,1.459,0,0,1-.275-2.844,3.236,3.236,0,0,1,.94-.115c5.6-.006,11.206-.051,16.809.008a15.317,15.317,0,0,1,2.786,30.389,21.221,21.221,0,0,1-3.389.229q-9.1,0-18.192,0a16.2,16.2,0,0,0-16.446,13.817c-1.563,9,5.638,18.1,14.753,18.479,4.567.188,9.147.05,13.721.105.664.008.831-.313,1-.817.893-2.719,1.819-5.427,2.7-8.151a4.078,4.078,0,0,1,1.052-1.682Q60.043,120.07,72.5,107.629a2.234,2.234,0,0,0,.736-1.752c-.029-6.347-.007-12.693-.026-19.04,0-1.084.378-1.773,1.5-1.933,1.125.164,1.5.859,1.5,1.939-.021,5.246-.009,10.493-.009,15.739v1.057c.4.073.506-.253.68-.426q4.413-4.385,8.807-8.79c2.39-2.383,5.176-2.4,7.574-.046.633.621,1.264,1.244,1.875,1.885a4.849,4.849,0,0,1-.085,7.115c-2.886,2.929-5.811,5.821-8.719,8.728-3.134,3.133-6.257,6.277-9.414,9.387a2.227,2.227,0,0,0-.735,1.753q.037,15.952.016,31.9c0,1.757-.425,2.178-2.194,2.178H2.211c-1.773,0-2.2-.418-2.2-2.176,0-6.665.015-13.329-.015-19.993a1.789,1.789,0,0,1,1.507-2.068m53.624,5.792c.324-.021.455-.253.621-.419q12.555-12.546,25.111-25.091c.4-.4.5-.643.036-1.087q-2-1.906-3.908-3.907c-.431-.452-.673-.4-1.087.015q-12.535,12.566-25.1,25.1c-.4.4-.5.653-.038,1.091,1.33,1.274,2.614,2.6,3.919,3.9.148.148.312.28.449.4M93.644,99.853a1.768,1.768,0,0,0-.382-1.177,15.536,15.536,0,0,0-2.707-2.686,1.8,1.8,0,0,0-2.506.288c-1.728,1.681-3.409,3.411-5.133,5.1-.452.442-.364.733.044,1.131q1.944,1.891,3.836,3.837c.429.443.722.4,1.131-.019,1.663-1.7,3.356-3.364,5.029-5.051a2.215,2.215,0,0,0,.689-1.42M83.521,110.64c.2-.173.38-.326.554-.492,1.184-1.129,1.184-1.13.051-2.264l-2.705-2.707c-1.178-1.179-1.166-1.167-2.349.048-.346.357-.484.587-.052,1,1.378,1.326,2.715,2.7,4.071,4.045.124.123.266.228.429.366M52.288,140.5l-3.514-3.536-1.759,5.286,5.273-1.75" transform="translate(-0.001 -57.329)" fill="#030303"/>
    <path id="Trazado_181410" data-name="Trazado 181410" d="M74.721,22.622c-1.123-.163-1.511-.851-1.5-1.935.025-3.652-.019-7.3.032-10.955.011-.823-.234-.981-1.007-.976-5.851.033-11.7.015-17.552.027-.291,0-.715-.2-.857.17-.114.3.182.588.367.842a4.49,4.49,0,0,0,3.331,1.837c1.171.129,1.745.738,1.645,1.645-.1.939-.888,1.439-2.07,1.3a7.179,7.179,0,0,1-6.341-5.05c-.2-.568-.409-.768-1.017-.764-4.929.026-9.858.013-14.786.021-.231,0-.543-.142-.687.111-.163.287.1.529.245.753a4.415,4.415,0,0,0,3.356,1.977c1.257.147,1.844.757,1.714,1.689s-.914,1.4-2.1,1.259a7.188,7.188,0,0,1-6.321-5.077c-.184-.522-.361-.734-.933-.731q-7.446.032-14.893,0c-.774,0-.861.2-.461.817a4.579,4.579,0,0,0,3.642,2.071,1.464,1.464,0,0,1,1.492,1.576,1.569,1.569,0,0,1-1.926,1.363,7.138,7.138,0,0,1-6.471-5.023c-.254-.724-.583-.811-1.208-.8-2.127.026-4.256.053-6.382-.011-.846-.026-1.041.223-1.04,1.05q.038,23.453.018,46.907c0,1.455-.22,1.763-1.509,2.15A1.715,1.715,0,0,1,.013,56.892Q.037,32.331.026,7.77C.026,6.3.52,5.8,2.006,5.794c2.835-.01,5.671-.018,8.507.009A.942.942,0,0,0,11.62,5.02,7.264,7.264,0,0,1,25.43,5c.206.612.445.836,1.091.807,1.2-.054,2.41-.037,3.615-.006a.869.869,0,0,0,1.042-.715,7.282,7.282,0,0,1,13.9.042c.167.495.335.686.855.674,1.311-.031,2.623-.027,3.934,0,.494.01.7-.126.874-.644a7.278,7.278,0,0,1,13.924,0c.2.61.509.638,1,.636q4.2-.014,8.4,0c1.7,0,2.148.447,2.149,2.131,0,4.253-.013,8.506.01,12.759.006,1.081-.375,1.774-1.5,1.941M38.058,5.791c1.13,0,2.26-.018,3.389.007.593.013.687-.184.389-.665A4.3,4.3,0,0,0,34.4,5.126c-.287.462-.242.686.373.672,1.094-.025,2.189-.007,3.283-.007m-19.55,0c1.13,0,2.26-.014,3.39.006.515.009.656-.169.388-.609a4.309,4.309,0,0,0-7.494-.029c-.33.538-.09.649.433.638,1.094-.022,2.189-.007,3.284-.007m39.29,0c1.095,0,2.189-.016,3.283.007.535.011.63-.192.375-.613a4.308,4.308,0,0,0-7.493-.022c-.342.557-.055.642.446.634,1.13-.018,2.26-.006,3.389-.006" transform="translate(-0.009 0)" fill="#030303"/>
    <path id="Trazado_181411" data-name="Trazado 181411" d="M1.513,225.1a1.67,1.67,0,0,1,1.5,1.954c-.039,1.027-.027,2.056,0,3.083a1.6,1.6,0,0,1-1.5,1.835,1.6,1.6,0,0,1-1.494-1.836c.026-1.027.037-2.056,0-3.082a1.667,1.667,0,0,1,1.5-1.954" transform="translate(-0.009 -161.087)" fill="#030303"/>
    <path id="Trazado_181412" data-name="Trazado 181412" d="M64.3,83.125c-.957,0-1.914.011-2.87,0a1.469,1.469,0,0,1-.14-2.933c2.017-.064,4.04-.076,6.055.008a1.338,1.338,0,0,1,1.323,1.6,1.359,1.359,0,0,1-1.5,1.325c-.956.015-1.913,0-2.87,0" transform="translate(-42.882 -57.348)" fill="#030303"/>
    <path id="Trazado_181413" data-name="Trazado 181413" d="M182.113,209.219c-.136-.121-.3-.254-.449-.4-1.3-1.3-2.589-2.622-3.918-3.9-.458-.438-.364-.69.038-1.091q12.566-12.535,25.1-25.1c.415-.416.656-.467,1.087-.015q1.908,2,3.908,3.907c.466.444.367.686-.036,1.087Q195.28,196.245,182.734,208.8c-.166.166-.3.4-.621.419" transform="translate(-126.982 -127.667)" fill="#fdd835"/>
    <path id="Trazado_181414" data-name="Trazado 181414" d="M301.538,138.842a2.213,2.213,0,0,1-.689,1.42c-1.673,1.687-3.365,3.355-5.029,5.051-.409.417-.7.462-1.131.018q-1.886-1.949-3.835-3.836c-.408-.4-.5-.689-.045-1.131,1.724-1.685,3.4-3.416,5.133-5.1a1.8,1.8,0,0,1,2.506-.289,15.539,15.539,0,0,1,2.707,2.687,1.768,1.768,0,0,1,.382,1.177" transform="translate(-207.896 -96.318)" fill="#f57c00"/>
    <path id="Trazado_181415" data-name="Trazado 181415" d="M281.7,171.525c-.164-.139-.306-.243-.429-.366-1.356-1.35-2.693-2.719-4.072-4.045-.432-.416-.294-.647.052-1,1.182-1.215,1.17-1.227,2.349-.048l2.705,2.707c1.132,1.134,1.133,1.135-.051,2.264-.173.166-.359.319-.554.492" transform="translate(-198.176 -118.214)" fill="#26ccda"/>
    <path id="Trazado_181416" data-name="Trazado 181416" d="M170.6,283.58l-5.273,1.75,1.759-5.286,3.514,3.536" transform="translate(-118.315 -200.408)" fill="#e4f0fd"/>
  </g>
</svg>
