<svg xmlns="http://www.w3.org/2000/svg" xmlns:xlink="http://www.w3.org/1999/xlink" width="208" height="208" viewBox="0 0 208 208">
  <defs>
    <filter id="Elipse_4965" x="0" y="0" width="208" height="208" filterUnits="userSpaceOnUse">
      <feOffset dx="-6" dy="6" input="SourceAlpha"/>
      <feGaussianBlur stdDeviation="3" result="blur"/>
      <feFlood flood-opacity="0.161"/>
      <feComposite operator="in" in2="blur"/>
      <feComposite in="SourceGraphic"/>
    </filter>
    <clipPath id="clip-path">
      <rect id="Rectángulo_37425" data-name="Rectángulo 37425" width="110.914" height="103.573" fill="none"/>
    </clipPath>
  </defs>
  <g id="Grupo_120417" data-name="Grupo 120417" transform="translate(-690.285 -5758)">
    <g transform="matrix(1, 0, 0, 1, 690.29, 5758)" filter="url(#Elipse_4965)">
      <g id="Elipse_4965-2" data-name="Elipse 4965" transform="translate(15 3)" fill="#fff" stroke="#f57c00" stroke-width="6">
        <circle cx="95" cy="95" r="95" stroke="none"/>
        <circle cx="95" cy="95" r="92" fill="none"/>
      </g>
    </g>
    <g id="Grupo_120411" data-name="Grupo 120411" transform="translate(744.543 5800.754)">
      <g id="Grupo_120411-2" data-name="Grupo 120411" clip-path="url(#clip-path)">
        <path id="Trazado_181549" data-name="Trazado 181549" d="M0,74.309V22.1c.378-.2.316-.612.423-.931a8.4,8.4,0,0,1,7.259-5.78c.822-.048,1.1-.289.975-1.071a4.382,4.382,0,0,1,0-.757,8.1,8.1,0,0,1,7-7.968,49.329,49.329,0,0,1,6.271-.122c.594-.009.924-.088,1.164-.759a6.959,6.959,0,0,1,6.708-4.7c2.707-.018,5.413-.01,8.12,0,1.32,0,1.764.392,2.032,1.724a1.782,1.782,0,0,1-2.012,1.534c-2.562-.027-5.124-.011-7.686-.008-2.833,0-4.353,1.5-4.356,4.326-.007,6.531.017,13.063,0,19.594,0,.72.134.98.93.98q28.634-.036,57.268,0c.789,0,.937-.249.934-.975-.021-6.5,0-12.991,0-19.486,0-2.969-1.488-4.439-4.464-4.439q-17.592,0-35.184.015A1.993,1.993,0,0,1,43.109,1.74c.4-1.469.743-1.733,2.274-1.733q17.759,0,35.519,0a7.018,7.018,0,0,1,6.973,4.807c.189.51.394.662.9.655,1.7-.025,3.393-.023,5.09-.006a8.284,8.284,0,0,1,8.394,8.976c-.023.471-.084.857.653.934,4.949.517,7.994,3.927,8,8.9q.008,23.878,0,47.756c0,5.352-3.613,8.982-8.94,9-4.223.011-8.447.031-12.67-.021-.885-.011-1.047.27-1.041,1.08.037,4.512.028,9.024.015,13.536-.014,4.93-3.039,7.942-7.97,7.943q-24.852.006-49.7,0c-4.926,0-7.951-3.022-7.963-7.951-.011-4.512-.023-9.024.017-13.536.007-.827-.182-1.081-1.05-1.071q-6.551.072-13.1.012a8.489,8.489,0,0,1-8.089-5.9c-.1-.283-.036-.665-.411-.815m55.439-27.74H97.89a8.758,8.758,0,0,1,1.082.017,1.5,1.5,0,0,1,1.348,1.079c.379,1.144-.43,2.145-1.807,2.152-3.068.017-6.137.027-9.2-.01-.759-.009-.982.229-.98.983q.034,12.995,0,25.99c0,.844.287,1.017,1.062,1.011,4.187-.033,8.374-.012,12.562-.017,3.532,0,5.71-2.2,5.711-5.759q0-12.995,0-25.99,0-10.991,0-21.983a5.227,5.227,0,0,0-5.36-5.427c-4.3-.013-8.591.021-12.886-.023-.877-.009-1.1.273-1.084,1.109.043,3.1.02,6.209.016,9.313,0,1.806-.591,2.394-2.388,2.394H24.985c-1.854,0-2.415-.574-2.416-2.474,0-3.068-.035-6.137.02-9.2.016-.922-.287-1.145-1.167-1.137-4.259.042-8.519.011-12.778.022a5.228,5.228,0,0,0-5.388,5.4q-.012,24.149,0,48.3a5.266,5.266,0,0,0,5.461,5.461c4.26.012,8.519-.02,12.778.023.858.008,1.095-.24,1.092-1.093q-.044-12.887,0-25.773c0-.933-.3-1.139-1.173-1.125-3,.048-5.992.025-8.988.015a1.777,1.777,0,0,1-1.963-1.6c-.034-.989.737-1.632,1.983-1.65.325,0,.65,0,.975,0H55.439M26.122,80.48c.98-1.015,1.856-1.975,2.788-2.877a14.644,14.644,0,0,1,20.421,0c1.166,1.13,2.334,2.261,3.438,3.451.509.549.789.573,1.327.019,2.135-2.2,4.314-4.362,6.5-6.517a16.612,16.612,0,0,1,23.391-.107c.272.263.558.51.836.763.276-.275.189-.54.189-.775,0-7.9-.023-15.807,0-23.71,0-.834-.323-.908-1.01-.907q-28.529.023-57.058-.009c-.894,0-1.045.293-1.043,1.1.018,9.455,0,18.911,0,28.366a1.769,1.769,0,0,0,.221,1.213m13.485,19.645a.951.951,0,0,0,.821.188q20.084.009,40.168,0A4.052,4.052,0,0,0,85,95.949c.025-3.753.012-7.507,0-11.26,0-1.514.348-3.17-.15-4.5-.529-1.418-2.078-2.337-3.2-3.447a13.214,13.214,0,0,0-18.688.072q-6.478,6.46-12.954,12.923a1.692,1.692,0,0,1-2.571.153c-.677-.709-.6-1.6.258-2.475.958-.981,1.932-1.947,2.909-2.91.307-.3.522-.527.082-.943-1.469-1.387-2.817-2.912-4.357-4.21a11.221,11.221,0,0,0-14.759.3c-1.813,1.65-3.5,3.438-5.253,5.155a1.242,1.242,0,0,0-.385.963c.011,3.537-.028,7.074.027,10.61a3.922,3.922,0,0,0,3.949,3.912c1.335.034,2.672-.021,4.005.023a1.852,1.852,0,0,0,1.512-.619c2.276-2.317,4.584-4.6,6.882-6.9a7.388,7.388,0,0,1,.7-.672,1.553,1.553,0,0,1,2.162.04,1.575,1.575,0,0,1,.131,2.241,11.039,11.039,0,0,1-.9.938c-1.6,1.592-3.193,3.182-4.8,4.786M19.3,8.7c-.648,0-1.3,0-1.944,0-3.63.016-5.821,2.46-5.475,6.063.047.489.231.593.665.591,3.132-.011,6.264-.018,9.4,0,.592,0,.734-.237.728-.77-.02-1.692-.035-3.385.006-5.076.017-.695-.264-.858-.893-.824-.826.044-1.656.011-2.484.011m74.279,6.649c1.548,0,3.1.007,4.644-.005.324,0,.737.149.8-.435.406-3.79-1.9-6.11-4.995-6.2-1.655-.047-3.312.013-4.968-.022-.6-.012-.83.167-.819.788q.047,2.537,0,5.076c-.01.6.177.825.8.809,1.511-.038,3.024-.012,4.536-.012" transform="translate(0 0)" fill="#030303"/>
        <path id="Trazado_181550" data-name="Trazado 181550" d="M67.158,113.613H25.141c-.325,0-.65,0-.975,0-1.246.018-2.017.661-1.983,1.65a1.778,1.778,0,0,0,1.963,1.6c3,.011,5.993.034,8.988-.015.87-.014,1.177.192,1.173,1.125q-.052,12.887,0,25.773c0,.853-.234,1.1-1.092,1.093-4.259-.042-8.519-.011-12.778-.023a5.266,5.266,0,0,1-5.462-5.461q-.009-24.149,0-48.3a5.228,5.228,0,0,1,5.388-5.4c4.26-.011,8.519.02,12.778-.022.881-.009,1.184.214,1.167,1.137-.055,3.067-.023,6.136-.02,9.2,0,1.9.562,2.475,2.416,2.475H97.671c1.8,0,2.386-.589,2.388-2.395,0-3.1.027-6.209-.016-9.313-.012-.836.207-1.118,1.084-1.109,4.295.044,8.591.011,12.886.023a5.227,5.227,0,0,1,5.36,5.426q.017,10.992,0,21.983,0,12.995,0,25.99c0,3.558-2.178,5.755-5.711,5.759-4.187,0-8.375-.016-12.562.017-.775.006-1.065-.167-1.062-1.011q.045-12.995,0-25.99c0-.754.22-.992.98-.983,3.068.037,6.136.026,9.2.01,1.377-.008,2.185-1.008,1.807-2.153a1.5,1.5,0,0,0-1.348-1.079,8.807,8.807,0,0,0-1.082-.016H67.158M109.035,98.69a4.781,4.781,0,0,0,4.9-4.695,4.964,4.964,0,0,0-4.726-4.821,4.809,4.809,0,0,0-4.791,4.706,4.657,4.657,0,0,0,4.613,4.81m-4.613,6.452a4.771,4.771,0,0,0,4.8,4.79,4.906,4.906,0,0,0,4.719-4.706,4.844,4.844,0,0,0-4.805-4.815,4.679,4.679,0,0,0-4.711,4.732" transform="translate(-11.718 -67.044)" fill="#106f77"/>
        <path id="Trazado_181551" data-name="Trazado 181551" d="M133.3,7.98l3.163.008a1.993,1.993,0,0,0,2.263,1.533q17.592-.039,35.184-.015c2.976,0,4.463,1.469,4.464,4.439,0,6.5-.019,12.991,0,19.486,0,.726-.145.976-.934.975q-28.634-.035-57.268,0c-.8,0-.932-.259-.93-.979.021-6.531,0-13.063,0-19.595,0-2.83,1.523-4.323,4.356-4.326,2.562,0,5.124-.019,7.686.008A1.782,1.782,0,0,0,133.3,7.98" transform="translate(-93.352 -6.247)" fill="#e9eaea"/>
        <path id="Trazado_181552" data-name="Trazado 181552" d="M119.462,260.071a1.77,1.77,0,0,1-.22-1.213c0-9.455.018-18.911,0-28.366,0-.8.149-1.1,1.043-1.1q28.529.043,57.058.009c.687,0,1.013.073,1.01.907-.027,7.9-.005,15.807,0,23.71,0,.235.087.5-.189.775-.278-.253-.564-.5-.836-.763a16.612,16.612,0,0,0-23.391.107c-2.182,2.156-4.362,4.315-6.5,6.517-.538.554-.818.53-1.327-.019-1.1-1.19-2.271-2.321-3.438-3.451a14.644,14.644,0,0,0-20.421,0c-.932.9-1.807,1.862-2.788,2.877m25.023-18.877a6.951,6.951,0,1,0-7,6.877,6.933,6.933,0,0,0,7-6.877" transform="translate(-93.34 -179.591)" fill="#b1f9ff"/>
        <path id="Trazado_181553" data-name="Trazado 181553" d="M133.113,363c1.61-1.6,3.208-3.194,4.8-4.786a11.033,11.033,0,0,0,.9-.938,1.575,1.575,0,0,0-.132-2.241,1.553,1.553,0,0,0-2.162-.04,7.371,7.371,0,0,0-.7.672c-2.3,2.3-4.607,4.58-6.882,6.9a1.852,1.852,0,0,1-1.512.619c-1.334-.045-2.671.011-4.005-.023a3.922,3.922,0,0,1-3.949-3.912c-.055-3.536-.016-7.073-.027-10.61a1.243,1.243,0,0,1,.385-.963c1.753-1.717,3.44-3.505,5.253-5.155a11.221,11.221,0,0,1,14.759-.3c1.54,1.3,2.889,2.823,4.357,4.21.44.416.225.64-.082.942-.977.963-1.951,1.928-2.909,2.909-.855.876-.935,1.766-.258,2.475a1.692,1.692,0,0,0,2.571-.153q6.488-6.451,12.954-12.923a13.214,13.214,0,0,1,18.688-.072c1.127,1.11,2.676,2.029,3.205,3.447.5,1.335.147,2.99.15,4.5.007,3.753.02,7.507-.005,11.26a4.052,4.052,0,0,1-4.406,4.366q-20.084.011-40.168,0a.951.951,0,0,1-.821-.188" transform="translate(-93.505 -262.879)" fill="#f57c00"/>
        <path id="Trazado_181554" data-name="Trazado 181554" d="M62,40.014c.828,0,1.658.033,2.484-.011.628-.034.91.129.893.824-.041,1.691-.026,3.384-.006,5.076.006.533-.136.774-.728.77-3.132-.023-6.264-.016-9.4,0-.434,0-.619-.1-.665-.591-.346-3.6,1.845-6.047,5.475-6.063.648,0,1.3,0,1.944,0" transform="translate(-42.703 -31.315)" fill="#45eefc"/>
        <path id="Trazado_181555" data-name="Trazado 181555" d="M411.752,46.672c-1.512,0-3.025-.026-4.536.012-.624.016-.811-.209-.8-.809q.042-2.537,0-5.076c-.012-.621.218-.8.819-.788,1.655.034,3.313-.025,4.968.022,3.091.088,5.4,2.409,4.995,6.2-.063.584-.475.432-.8.435-1.548.012-3.1.005-4.644.005" transform="translate(-318.175 -31.324)" fill="#45eefc"/>
        <path id="Trazado_181556" data-name="Trazado 181556" d="M431.59,111.443a4.657,4.657,0,0,1-4.613-4.81,4.809,4.809,0,0,1,4.791-4.706,4.965,4.965,0,0,1,4.726,4.821,4.781,4.781,0,0,1-4.9,4.695m.076-3.241a1.525,1.525,0,0,0,1.552-1.475,1.567,1.567,0,0,0-1.527-1.522,1.52,1.52,0,0,0-1.47,1.445,1.46,1.46,0,0,0,1.444,1.552" transform="translate(-334.274 -79.797)" fill="#030303"/>
        <path id="Trazado_181557" data-name="Trazado 181557" d="M426.977,158.41a4.679,4.679,0,0,1,4.712-4.732,4.844,4.844,0,0,1,4.8,4.815,4.906,4.906,0,0,1-4.719,4.706,4.771,4.771,0,0,1-4.8-4.79m6.216-.013a1.522,1.522,0,0,0-1.574-1.45,1.483,1.483,0,0,0-1.38,1.514,1.5,1.5,0,0,0,1.444,1.461,1.538,1.538,0,0,0,1.51-1.525" transform="translate(-334.274 -120.313)" fill="#030303"/>
        <path id="Trazado_181558" data-name="Trazado 181558" d="M185.442,258.367a6.951,6.951,0,1,1-6.845-7.035,6.918,6.918,0,0,1,6.845,7.035m-6.927-3.781a3.709,3.709,0,1,0,3.685,3.7,3.676,3.676,0,0,0-3.685-3.7" transform="translate(-134.297 -196.764)" fill="#030303"/>
        <path id="Trazado_181559" data-name="Trazado 181559" d="M443.36,120.023a1.46,1.46,0,0,1-1.445-1.552,1.52,1.52,0,0,1,1.47-1.445,1.567,1.567,0,0,1,1.527,1.522,1.524,1.524,0,0,1-1.552,1.475" transform="translate(-345.967 -91.618)" fill="#fdd835"/>
        <path id="Trazado_181560" data-name="Trazado 181560" d="M444.951,170.173a1.538,1.538,0,0,1-1.51,1.525A1.5,1.5,0,0,1,442,170.237a1.483,1.483,0,0,1,1.38-1.514,1.522,1.522,0,0,1,1.574,1.45" transform="translate(-346.032 -132.089)" fill="#f57c00"/>
        <path id="Trazado_181561" data-name="Trazado 181561" d="M190.205,266.32a3.709,3.709,0,1,1-3.731,3.66,3.667,3.667,0,0,1,3.731-3.66" transform="translate(-145.988 -208.498)" fill="#fdd835"/>
      </g>
    </g>
  </g>
</svg>
