<svg id="Grupo_120470" data-name="Grupo 120470" xmlns="http://www.w3.org/2000/svg" xmlns:xlink="http://www.w3.org/1999/xlink" width="312.698" height="260.231" viewBox="0 0 312.698 260.231">
  <defs>
    <clipPath id="clip-path">
      <rect id="Rectángulo_37447" data-name="Rectángulo 37447" width="312.698" height="260.231" fill="none"/>
    </clipPath>
    <clipPath id="clip-path-3">
      <rect id="Rectángulo_37428" data-name="Rectángulo 37428" width="114.712" height="20.138" fill="none"/>
    </clipPath>
    <clipPath id="clip-path-4">
      <rect id="Rectángulo_37429" data-name="Rectángulo 37429" width="103.322" height="51.611" fill="none"/>
    </clipPath>
    <clipPath id="clip-path-6">
      <rect id="Rectángulo_37431" data-name="Rectángulo 37431" width="49.199" height="43.718" fill="none"/>
    </clipPath>
    <clipPath id="clip-path-7">
      <rect id="Rectángulo_37432" data-name="Rectángulo 37432" width="146.832" height="90.745" fill="none"/>
    </clipPath>
    <clipPath id="clip-path-9">
      <rect id="Rectángulo_37434" data-name="Rectángulo 37434" width="170.623" height="97.54" fill="none"/>
    </clipPath>
    <clipPath id="clip-path-10">
      <rect id="Rectángulo_37435" data-name="Rectángulo 37435" width="63.879" height="88.803" fill="none"/>
    </clipPath>
    <clipPath id="clip-path-12">
      <rect id="Rectángulo_37437" data-name="Rectángulo 37437" width="77.691" height="111.255" fill="none"/>
    </clipPath>
    <clipPath id="clip-path-14">
      <rect id="Rectángulo_37439" data-name="Rectángulo 37439" width="58.97" height="107.164" fill="none"/>
    </clipPath>
    <clipPath id="clip-path-15">
      <rect id="Rectángulo_37440" data-name="Rectángulo 37440" width="58.166" height="87.495" fill="none"/>
    </clipPath>
    <clipPath id="clip-path-16">
      <rect id="Rectángulo_37441" data-name="Rectángulo 37441" width="15.72" height="8.498" fill="none"/>
    </clipPath>
    <clipPath id="clip-path-17">
      <rect id="Rectángulo_37442" data-name="Rectángulo 37442" width="47.924" height="46.65" fill="none"/>
    </clipPath>
    <clipPath id="clip-path-18">
      <rect id="Rectángulo_37443" data-name="Rectángulo 37443" width="144.932" height="59.229" fill="none"/>
    </clipPath>
    <clipPath id="clip-path-19">
      <rect id="Rectángulo_37444" data-name="Rectángulo 37444" width="32.854" height="41.994" fill="none"/>
    </clipPath>
    <clipPath id="clip-path-20">
      <rect id="Rectángulo_37445" data-name="Rectángulo 37445" width="6.573" height="14.53" fill="none"/>
    </clipPath>
  </defs>
  <g id="Grupo_120469" data-name="Grupo 120469" clip-path="url(#clip-path)">
    <path id="Trazado_181589" data-name="Trazado 181589" d="M278.527,276.216,191.185,308.29l-72.238-33.772,7.992-40.447,65.852,18.307,54.573,15.173Z" transform="translate(-27.177 -53.481)" fill="#603d21"/>
    <path id="Trazado_181590" data-name="Trazado 181590" d="M291.118,177.324l-30.254,47.583-104.548,11.05-20.87,2.2-23.111-16.6V147.415l1.193.2Z" transform="translate(-25.667 -33.682)" fill="#dba26a"/>
    <g id="Grupo_120424" data-name="Grupo 120424">
      <g id="Grupo_120423" data-name="Grupo 120423" clip-path="url(#clip-path)">
        <g id="Grupo_120419" data-name="Grupo 120419" transform="translate(133.576 126.201)" opacity="0.3">
          <g id="Grupo_120418" data-name="Grupo 120418">
            <g id="Grupo_120417" data-name="Grupo 120417" clip-path="url(#clip-path-3)">
              <path id="Trazado_181591" data-name="Trazado 181591" d="M173.134,163.575c7.389,4.044,56.846,14.148,70.1,15.8s44.611,4.334,44.611,4.334-46.777-7.393-60.925-11.471-53.787-8.667-53.787-8.667" transform="translate(-173.134 -163.575)" fill="#a07044"/>
            </g>
          </g>
        </g>
        <g id="Grupo_120422" data-name="Grupo 120422" transform="translate(93.979 116.897)" opacity="0.5">
          <g id="Grupo_120421" data-name="Grupo 120421">
            <g id="Grupo_120420" data-name="Grupo 120420" clip-path="url(#clip-path-4)">
              <path id="Trazado_181592" data-name="Trazado 181592" d="M121.81,151.515s25.981,35.349,30.919,40.447,64.419,12.745,68.5,10.876,4.922-14.785,2.716-19.374-24.638-10.2-53.019-18.014-49.114-13.935-49.114-13.935" transform="translate(-121.81 -151.515)" fill="#f4bb87"/>
            </g>
          </g>
        </g>
      </g>
    </g>
    <path id="Trazado_181593" data-name="Trazado 181593" d="M0,155.911l15.632,14.614,71.037,51.032V147.415Z" transform="translate(0 -33.682)" fill="#bf8856"/>
    <g id="Grupo_120432" data-name="Grupo 120432">
      <g id="Grupo_120431" data-name="Grupo 120431" clip-path="url(#clip-path)">
        <g id="Grupo_120427" data-name="Grupo 120427" transform="translate(45.63 116.132)" opacity="0.5">
          <g id="Grupo_120426" data-name="Grupo 120426">
            <g id="Grupo_120425" data-name="Grupo 120425" clip-path="url(#clip-path-6)">
              <path id="Trazado_181594" data-name="Trazado 181594" d="M100.572,150.524l7.77,43.718-49.2-1.147s28.561-17.972,41.429-42.571" transform="translate(-59.143 -150.524)" fill="#724b2b"/>
            </g>
          </g>
        </g>
        <g id="Grupo_120430" data-name="Grupo 120430" transform="translate(0 113.733)" opacity="0.5">
          <g id="Grupo_120429" data-name="Grupo 120429">
            <g id="Grupo_120428" data-name="Grupo 120428" clip-path="url(#clip-path-7)">
              <path id="Trazado_181595" data-name="Trazado 181595" d="M146.832,231.6l-16.182,4.359-20.87,2.2-23.111-16.6L15.631,170.525,0,155.911l86.669-8.5,1.194.2Z" transform="translate(0 -147.415)" fill="#a07044"/>
            </g>
          </g>
        </g>
      </g>
    </g>
    <path id="Trazado_181596" data-name="Trazado 181596" d="M112.833,120.007l-.107.252-.39.9.925.153.268.046L288.4,150.612l.008.008,2.715.451,47.246-109.68L309.48,40.022l-4.283-.2L176.6,33.743,171,33.476l-20.434-.964Z" transform="translate(-25.667 -7.428)" fill="#f4bb87"/>
    <g id="Grupo_120440" data-name="Grupo 120440">
      <g id="Grupo_120439" data-name="Grupo 120439" clip-path="url(#clip-path)">
        <g id="Grupo_120435" data-name="Grupo 120435" transform="translate(94.829 35.673)" opacity="0.5">
          <g id="Grupo_120434" data-name="Grupo 120434">
            <g id="Grupo_120433" data-name="Grupo 120433" clip-path="url(#clip-path-9)">
              <path id="Trazado_181597" data-name="Trazado 181597" d="M293.535,47.672c-36.282-2.039-77.579-1.785-93.638,0s-57.1,62.709-63.729,67.3-13.255,9.327-13.255,9.327,105.025,19.223,108.849,19.479,21.923-32.183,40.532-48.849,21.242-47.255,21.242-47.255" transform="translate(-122.912 -46.237)" fill="#ffcda4"/>
            </g>
          </g>
        </g>
        <g id="Grupo_120438" data-name="Grupo 120438" transform="translate(87.059 25.084)" opacity="0.5">
          <g id="Grupo_120437" data-name="Grupo 120437">
            <g id="Grupo_120436" data-name="Grupo 120436" clip-path="url(#clip-path-10)">
              <path id="Trazado_181598" data-name="Trazado 181598" d="M176.72,33.743l-43.109,74.013-20.235,13.559-.535-1.055.107-.252,37.733-87.495Z" transform="translate(-112.841 -32.512)" fill="#a07044"/>
            </g>
          </g>
        </g>
      </g>
    </g>
    <path id="Trazado_181599" data-name="Trazado 181599" d="M138.78,1.575l17.558,23.508,26.04,1.231,128.593,6.08,4.283.2,28.884,1.369L326.464,4.052,137.6,0Z" transform="translate(-31.44 0)" fill="#d3c6bc"/>
    <path id="Trazado_181600" data-name="Trazado 181600" d="M359,33.793,329.087,109.94l11.554,34.9,47.246-109.68L370.215,5.253Z" transform="translate(-75.19 -1.2)" fill="#b2a49b"/>
    <path id="Trazado_181601" data-name="Trazado 181601" d="M127.15,0,125.7,3.5,91.857,85.8l15.8,27.936.39-.9.107-.252,37.733-87.5L128.327,1.575Z" transform="translate(-20.988 0)" fill="#b2a49b"/>
    <g id="Grupo_120445" data-name="Grupo 120445">
      <g id="Grupo_120444" data-name="Grupo 120444" clip-path="url(#clip-path)">
        <g id="Grupo_120443" data-name="Grupo 120443" transform="translate(73.248 1.575)" opacity="0.5">
          <g id="Grupo_120442" data-name="Grupo 120442">
            <g id="Grupo_120441" data-name="Grupo 120441" clip-path="url(#clip-path-12)">
              <path id="Trazado_181602" data-name="Trazado 181602" d="M129.032,2.042,94.939,86.011,108.751,113.3l.107-.252L146.591,25.55l26.04,1.231Z" transform="translate(-94.939 -2.042)" fill="#47403c"/>
            </g>
          </g>
        </g>
      </g>
    </g>
    <path id="Trazado_181603" data-name="Trazado 181603" d="M127.15,0,91.857,85.8l15.8,27.936,1.278.36-.084-.16-.7-1.353L94.235,85.544,128.327,1.575,310.315,6.86l-39,101.627,12.4,34.7.008.008,2.715.451-11.555-34.9L316.012,4.052Z" transform="translate(-20.988 0)" fill="#f4e9e1"/>
    <path id="Trazado_181604" data-name="Trazado 181604" d="M112.988,147.853l38.672,7.314L265.352,175.73l23.538,1.594-.337-.451-26.939-5.816-122.955-19.8-23.707-3.843Z" transform="translate(-25.816 -33.682)" fill="#ffcda4"/>
    <g id="Grupo_120468" data-name="Grupo 120468">
      <g id="Grupo_120467" data-name="Grupo 120467" clip-path="url(#clip-path)">
        <g id="Grupo_120448" data-name="Grupo 120448" transform="translate(86.669 5.415)" opacity="0.5">
          <g id="Grupo_120447" data-name="Grupo 120447">
            <g id="Grupo_120446" data-name="Grupo 120446" clip-path="url(#clip-path-14)">
              <path id="Trazado_181605" data-name="Trazado 181605" d="M171.305,27.582l-.291.069H171l-20.434-.964-37.733,87.495-.5-3.839,31.1-81.063L135.791,7.018l16.825,15.463Z" transform="translate(-112.335 -7.018)" fill="#47403c"/>
            </g>
          </g>
        </g>
        <g id="Grupo_120451" data-name="Grupo 120451" transform="translate(87.166 25.084)" opacity="0.5">
          <g id="Grupo_120450" data-name="Grupo 120450">
            <g id="Grupo_120449" data-name="Grupo 120449" clip-path="url(#clip-path-15)">
              <path id="Trazado_181606" data-name="Trazado 181606" d="M171.146,33.476l-12.61,2.99-45.557,83.541,37.733-87.495Z" transform="translate(-112.98 -32.512)" fill="#a07044"/>
            </g>
          </g>
        </g>
        <g id="Grupo_120454" data-name="Grupo 120454" transform="translate(76.645 86.986)" opacity="0.5">
          <g id="Grupo_120453" data-name="Grupo 120453">
            <g id="Grupo_120452" data-name="Grupo 120452" clip-path="url(#clip-path-16)">
              <path id="Trazado_181607" data-name="Trazado 181607" d="M99.343,112.747c.34.255,12.406,8.5,12.406,8.5l3.314-5.184Z" transform="translate(-99.343 -112.747)" fill="#47403c"/>
            </g>
          </g>
        </g>
        <path id="Trazado_181608" data-name="Trazado 181608" d="M344.727,133.009l41.637-93.194-15.294-20.9s-.512,20.223-2.21,36.878-17.334,50.133-19.884,54.722-16.145.849-16.145.849l10.027,10.367Z" transform="translate(-76.046 -4.321)" fill="#93847c"/>
        <path id="Trazado_181609" data-name="Trazado 181609" d="M196.112,246.124l-5.1,8.03-1.27,2c-.688-3.112-2.149-5.529-3.992-6.684a4.621,4.621,0,0,0-.91.023c-4.015.535-7.265,6.485-7.265,13.284,0,.306.008.6.023.9.007.253.022.505.046.75.031.352.069.7.115,1.04.022.191.053.383.091.566l.023.137c.031.168.062.336.1.5a14.471,14.471,0,0,0,.8,2.57c.084.206.176.413.275.612.084.168.168.336.26.5a8.057,8.057,0,0,0,.711,1.109l-11.877,18.7-3.962,6.24a.083.083,0,0,1-.015.023L8.5,232.97,0,158.43l86.669,21.619,74.777,18.66L186.224,232.6Z" transform="translate(0 -36.198)" fill="#d3c6bc"/>
        <path id="Trazado_181610" data-name="Trazado 181610" d="M307.849,187.164l-98.592,17.887,1.01,36.4,1.705,61.318,96.083-35.553,5.209-81.033Zm-77.133,92.3a4.5,4.5,0,0,1-1.1.046h-.008a.321.321,0,0,1-.062-.046,2.4,2.4,0,0,1-.329-.237.68.68,0,0,1-.145-.115,2.721,2.721,0,0,1-.329-.283.075.075,0,0,1-.046-.038c-.13-.115-.252-.245-.375-.375-.168-.191-.336-.4-.5-.612a8.133,8.133,0,0,1-.711-1.109c-.061-.115-.122-.23-.184-.352a1.548,1.548,0,0,1-.076-.145c-.1-.2-.191-.406-.275-.612a14.406,14.406,0,0,1-.795-2.57c-.039-.168-.069-.336-.1-.5l-.023-.137c-.039-.184-.069-.375-.092-.566-.046-.336-.084-.688-.115-1.04-.022-.245-.038-.5-.046-.749-.015-.3-.023-.6-.023-.9,0-6.8,3.25-12.749,7.265-13.284a4.613,4.613,0,0,1,.91-.023,8.111,8.111,0,0,1,2.769,3.227,13.925,13.925,0,0,1,1.223,3.457,18.7,18.7,0,0,1,.421,3.686c.122,6.66-3.128,12.6-7.258,13.283" transform="translate(-47.811 -42.54)" fill="#b2a49b"/>
        <path id="Trazado_181611" data-name="Trazado 181611" d="M314.067,186.182l-5.208,81.033-96.083,35.553a45.273,45.273,0,0,1,13.414-15.532c9.337-6.8,49.471-40.447,58.862-55.421,6.21-9.9,11.992-27.668,23.6-44.653Z" transform="translate(-48.615 -42.539)" fill="#93847c"/>
        <path id="Trazado_181612" data-name="Trazado 181612" d="M265.451,177.324,161.446,196.19,0,155.911l86.669-8.5,1.277.36-1.277.13L5.4,156.316l81.27,19.31,75.924,18.033,100.128-16.794h.008Z" transform="translate(0 -33.682)" fill="#f4e9e1"/>
        <path id="Trazado_181613" data-name="Trazado 181613" d="M246.159,287.547a18.583,18.583,0,0,1-.245,3.419c-.8,5.162-3.61,9.3-7.013,9.858a4.5,4.5,0,0,1-2.049-.13l-.275-.092a6.128,6.128,0,0,1-.643-.3c-.092-.046-.176-.1-.268-.154-.008-.008-.015-.008-.022-.015a4.5,4.5,0,0,0,1.1-.046c4.015-.657,7.2-6.3,7.258-12.733.008-.184,0-.367,0-.551a18.7,18.7,0,0,0-.421-3.686c-.688-3.112-2.149-5.529-3.992-6.684.115.008.222.023.336.039s.222.039.329.061a4.8,4.8,0,0,1,1.124.42,2.049,2.049,0,0,1,.214.123,4.417,4.417,0,0,1,.52.344c.069.046.138.1.207.153a4.818,4.818,0,0,1,.36.322c.092.084.184.168.275.268s.176.184.26.282c.176.2.344.414.5.635.076.107.153.221.229.344.092.13.168.26.252.4.069.115.13.222.191.345a9.129,9.129,0,0,1,.459.948,14.691,14.691,0,0,1,.948,3.051c.038.176.069.359.1.535a17.238,17.238,0,0,1,.214,1.842c.023.329.039.666.046,1" transform="translate(-53.84 -63.16)" fill="#99643c"/>
        <g id="Grupo_120457" data-name="Grupo 120457" transform="translate(206.312 186.319)" opacity="0.5">
          <g id="Grupo_120456" data-name="Grupo 120456">
            <g id="Grupo_120455" data-name="Grupo 120455" clip-path="url(#clip-path-17)">
              <path id="Trazado_181614" data-name="Trazado 181614" d="M272.594,250.588l-5.183,2.974s1.317,13.85,1.317,23.028S270,288.146,270,288.146s20.691-8.157,24.175-8.922,13.171,3.314,13.171,3.314.934-15.8,7.987-28.38c-3.824-10.112-5.013-12.661-5.013-12.661Z" transform="translate(-267.41 -241.496)" fill="#47403c"/>
            </g>
          </g>
        </g>
        <path id="Trazado_181615" data-name="Trazado 181615" d="M316.486,240.032a49.935,49.935,0,0,0-2.654,8.55,136.5,136.5,0,0,0-2.768,22.943c-.092,2.141-.1,3.433-.1,3.433a30.325,30.325,0,0,0-14.362,1.851c-.023.008-.038.015-.061.023l-12.909,4.719-14.515,5.3V250.142l20.158-6.134c.008,0,.008-.007.015-.007l5.506-1.675a75.511,75.511,0,0,1,8.144-2.073,38.181,38.181,0,0,1,11.212-.5c.757.076,1.529.168,2.332.275" transform="translate(-61.488 -54.734)" fill="#e8e3df"/>
        <path id="Trazado_181616" data-name="Trazado 181616" d="M289.276,245.328c-6.416,2.784-18.308,6.324-18.5,6.707s-1.659,10.584-1.659,10.584V251.462Z" transform="translate(-61.488 -56.053)" fill="#fff"/>
        <g id="Grupo_120460" data-name="Grupo 120460" transform="translate(15.155 195.581)" opacity="0.5">
          <g id="Grupo_120459" data-name="Grupo 120459">
            <g id="Grupo_120458" data-name="Grupo 120458" clip-path="url(#clip-path-18)">
              <path id="Trazado_181617" data-name="Trazado 181617" d="M20.038,253.586c38.439-1.068,64.239,8.074,94.319,22.646a184.957,184.957,0,0,1,50.218,36.5S10.861,253.841,20.038,253.586" transform="translate(-19.643 -253.502)" fill="#f4e9e1"/>
            </g>
          </g>
        </g>
        <path id="Trazado_181618" data-name="Trazado 181618" d="M273.8,255.073V258.7l20.555-7.066.285-3.354Z" transform="translate(-62.558 -56.726)" fill="#a3a3a3"/>
        <path id="Trazado_181619" data-name="Trazado 181619" d="M273.8,266.651v4.976l1.4-.447v-4.938Z" transform="translate(-62.558 -60.831)" fill="#a3a3a3"/>
        <path id="Trazado_181620" data-name="Trazado 181620" d="M277.511,265.443v4.976l1.4-.447v-4.938Z" transform="translate(-63.406 -60.555)" fill="#a3a3a3"/>
        <path id="Trazado_181621" data-name="Trazado 181621" d="M286.4,262.635v4.976l1.4-.447v-4.939Z" transform="translate(-65.436 -59.914)" fill="#a3a3a3"/>
        <path id="Trazado_181622" data-name="Trazado 181622" d="M291.848,260.776v4.976l1.4-.447v-4.939Z" transform="translate(-66.682 -59.489)" fill="#a3a3a3"/>
        <path id="Trazado_181623" data-name="Trazado 181623" d="M298.469,258.257v4.975l1.4-.447v-4.939Z" transform="translate(-68.195 -58.913)" fill="#a3a3a3"/>
        <path id="Trazado_181624" data-name="Trazado 181624" d="M273.8,280.847v9.977l18.354-6.941.679-9.67Z" transform="translate(-62.558 -62.653)" fill="#a3a3a3"/>
        <path id="Trazado_181625" data-name="Trazado 181625" d="M312.292,244.473v3.484s2.772-1.062,8.572-.234c.8-2.72,1.02-3.537,1.02-3.537a28.733,28.733,0,0,0-9.592.287" transform="translate(-71.353 -55.727)" fill="#a3a3a3"/>
        <path id="Trazado_181626" data-name="Trazado 181626" d="M318.653,274.338c.067,2.755-1.714,5.217-3.978,5.5s-4.1-1.772-4.1-4.588,1.781-5.278,3.978-5.5,4.033,1.833,4.1,4.588" transform="translate(-70.961 -61.629)" fill="#a3a3a3"/>
        <g id="Grupo_120463" data-name="Grupo 120463" transform="translate(222.144 184.823)" opacity="0.35">
          <g id="Grupo_120462" data-name="Grupo 120462">
            <g id="Grupo_120461" data-name="Grupo 120461" clip-path="url(#clip-path-19)">
              <path id="Trazado_181627" data-name="Trazado 181627" d="M320.785,240.032a49.938,49.938,0,0,0-2.654,8.55,136.508,136.508,0,0,0-2.768,22.943c-.092,2.141-.1,3.433-.1,3.433a30.326,30.326,0,0,0-14.362,1.851c-.023.008-.038.015-.061.023l-12.909,4.719c12.3-10.371,21.413-22.553,21.559-29.03a37.486,37.486,0,0,0-2.249-12.267,38.181,38.181,0,0,1,11.212-.5c.757.076,1.529.168,2.332.275" transform="translate(-287.931 -239.557)" fill="#fff"/>
            </g>
          </g>
        </g>
        <path id="Trazado_181628" data-name="Trazado 181628" d="M243.26,257.577c-.6,1.132-2.516,4.673-5.047,9.33a8.105,8.105,0,0,0-2.768-3.227,4.5,4.5,0,0,0-.91.023c-4.015.535-7.265,6.485-7.265,13.283,0,.306.008.6.023.9.008.252.023.5.046.749.03.352.069.7.114,1.04.023.191.054.383.092.566l.023.137c.031.168.061.336.1.5a14.407,14.407,0,0,0,.8,2.57c.084.207.176.413.275.612a1.2,1.2,0,0,0,.076.145c-5.751,10.546-10.982,20.159-10.982,20.159s-.7-75.129-.062-83.067c.513-6.286,27.868,31.783,25.489,36.272" transform="translate(-49.695 -50.404)" fill="#93847c"/>
        <g id="Grupo_120466" data-name="Grupo 120466" transform="translate(185.75 213.275)" opacity="0.5">
          <g id="Grupo_120465" data-name="Grupo 120465">
            <g id="Grupo_120464" data-name="Grupo 120464" clip-path="url(#clip-path-20)">
              <path id="Trazado_181629" data-name="Trazado 181629" d="M247.327,287.547a18.583,18.583,0,0,1-.245,3.419,29.415,29.415,0,0,0-1.912-3.61c.008-.184,0-.367,0-.551a18.7,18.7,0,0,0-.421-3.686c-.688-3.112-2.149-5.529-3.992-6.684.115.008.222.023.336.039s.222.039.329.061a4.8,4.8,0,0,1,1.124.42,2.049,2.049,0,0,1,.214.123,4.417,4.417,0,0,1,.52.344c.069.046.138.1.207.153a4.818,4.818,0,0,1,.36.322c.092.084.184.168.275.268s.176.184.26.282c.176.2.344.414.5.635.076.107.153.221.229.344.092.13.168.26.252.4.069.115.13.222.191.345a9.129,9.129,0,0,1,.459.948,14.691,14.691,0,0,1,.948,3.051c.038.176.069.359.1.535a17.238,17.238,0,0,1,.214,1.842c.023.329.039.666.046,1" transform="translate(-240.759 -276.435)" fill="#231a14"/>
            </g>
          </g>
        </g>
        <path id="Trazado_181630" data-name="Trazado 181630" d="M1.493,160.137c-.545,1.061.34,5.948,1.19,6.713S72.7,178.236,72.954,178.236s-70.612-19.752-71.461-18.1" transform="translate(-0.303 -36.566)" fill="#f4e9e1"/>
        <path id="Trazado_181631" data-name="Trazado 181631" d="M26.048,189.677l3.7,39.979,111.823,41.487-2.891-50.536Zm111.428,76.015L31.846,227.315l-3.088-33.668,106.263,30.032Z" transform="translate(-5.951 -43.338)" fill="#505450"/>
        <path id="Trazado_181632" data-name="Trazado 181632" d="M38.073,203.186l8.606,2.529,2.207,25.314L40.3,228Z" transform="translate(-8.699 -46.424)" fill="#505450"/>
        <path id="Trazado_181633" data-name="Trazado 181633" d="M52.777,207.506l6.213,1.825,2.179,25.83-6.194-2.183Z" transform="translate(-12.058 -47.411)" fill="#505450"/>
        <path id="Trazado_181634" data-name="Trazado 181634" d="M64.531,210.96l5.411,1.59,2.152,26.3-5.394-1.9Z" transform="translate(-14.744 -48.201)" fill="#505450"/>
        <path id="Trazado_181635" data-name="Trazado 181635" d="M78.046,214.931l3.811,1.119,2.119,26.811-3.8-1.338Z" transform="translate(-17.832 -49.108)" fill="#505450"/>
        <path id="Trazado_181636" data-name="Trazado 181636" d="M133.3,231.168l5.194,1.526,1.911,29.318-5.165-1.82Z" transform="translate(-30.458 -52.818)" fill="#505450"/>
        <path id="Trazado_181637" data-name="Trazado 181637" d="M152.834,236.906l1.842,29.992-8.81-3.105L143.973,234.3Z" transform="translate(-32.895 -53.534)" fill="#505450"/>
        <path id="Trazado_181638" data-name="Trazado 181638" d="M118.789,226.9l1.978,28.606-16.684-5.881-2.058-27.65Z" transform="translate(-23.311 -50.718)" fill="#505450"/>
      </g>
    </g>
  </g>
</svg>
