<svg xmlns="http://www.w3.org/2000/svg" xmlns:xlink="http://www.w3.org/1999/xlink" width="140" height="140" viewBox="0 0 140 140">
  <defs>
    <clipPath id="clip-path">
      <rect id="Rectángulo_5871" data-name="Rectángulo 5871" width="140" height="140" transform="translate(0 -0.176)" fill="#fff" stroke="#707070" stroke-width="1"/>
    </clipPath>
  </defs>
  <g id="Enmascarar_grupo_24" data-name="Enmascarar grupo 24" transform="translate(0 0.176)" clip-path="url(#clip-path)">
    <g id="soda" transform="translate(0 -0.023)">
      <path id="Trazado_104607" data-name="Trazado 104607" d="M65.768,102.886a36.021,36.021,0,0,0-7.585,5.854,31.46,31.46,0,0,0-4.874,6.266,61.56,61.56,0,0,1-7.049,9.3c-1.373,1.531-2.815,3.043-4.284,4.489a8.735,8.735,0,0,1-12.259-.05l-27.175-27.1-.008-.008A8.706,8.706,0,0,1,2.472,89.42c.816-.831,1.637-1.641,2.443-2.408C6.2,85.792,7.348,84.76,8.4,83.875a60.468,60.468,0,0,1,6.745-4.932,40.5,40.5,0,0,0,7.1-5.536,39.912,39.912,0,0,0,5.844-7.113,78.037,78.037,0,0,1,8.667-10.765c2.267-2.406,4.655-4.747,7.1-6.957a2.042,2.042,0,0,1,2.817.067l29.41,29.333,6.789,6.77a2.054,2.054,0,0,1,.145,2.736,80.947,80.947,0,0,1-6.876,7.45A55.87,55.87,0,0,1,65.768,102.886Z" transform="translate(0 8.317)" fill="#eef0f5"/>
      <path id="Trazado_104608" data-name="Trazado 104608" d="M76.136,90.512a80.945,80.945,0,0,0,6.876-7.45,2.054,2.054,0,0,0-.145-2.736l-6.789-6.77a2.055,2.055,0,0,1-.008,2.564,80.946,80.946,0,0,1-6.876,7.45,55.874,55.874,0,0,1-10.368,7.957,36.021,36.021,0,0,0-7.585,5.854,31.46,31.46,0,0,0-4.874,6.266,61.241,61.241,0,0,1-6.806,9.031,8.749,8.749,0,0,1-11-1.076L8.515,91.632l-.008-.008A8.7,8.7,0,0,1,8.4,79.458c-1.051.885-2.2,1.917-3.484,3.137-.806.768-1.627,1.577-2.443,2.408A8.706,8.706,0,0,0,2.534,97.22l.008.008,27.175,27.1a8.735,8.735,0,0,0,12.259.05c1.469-1.446,2.911-2.958,4.284-4.489a61.564,61.564,0,0,0,7.049-9.3,31.461,31.461,0,0,1,4.874-6.266,36.012,36.012,0,0,1,7.585-5.854,55.861,55.861,0,0,0,10.368-7.957ZM40.818,111.654c-.081.081-.164.16-.249.233.284-.272.505-.49.549-.53-.023.023-.116.116-.3.3Z" transform="translate(0 12.734)" fill="#dae1ea"/>
      <path id="Trazado_104609" data-name="Trazado 104609" d="M121.851,26.545l0,0L115.287,20l-.006-.006L102.623,7.367a2.045,2.045,0,0,0-2.938.054c-8.528,9.145-16.539,12.371-19.592,13.333-1.02.322-2.075.605-3.195.9a40.674,40.674,0,0,0-13.233,5.547,37.978,37.978,0,0,0-7.955,7.153,2.047,2.047,0,0,0,.119,2.765L88.856,70.063l3.172,3.164a2.045,2.045,0,0,0,2.755.122,37.874,37.874,0,0,0,7.175-7.934,40.349,40.349,0,0,0,5.562-13.206c.3-1.114.586-2.167.908-3.183.964-3.043,4.2-11.033,13.368-19.534a2.046,2.046,0,0,0,.054-2.946Z" transform="translate(9.561 1.173)" fill="#eef0f5"/>
      <path id="Trazado_104610" data-name="Trazado 104610" d="M90.343,71.4a2.045,2.045,0,0,1-2.755-.122l-3.172-3.164L80.88,64.567a2.05,2.05,0,0,0,2.757.124,37.974,37.974,0,0,0,7.173-7.936,40.417,40.417,0,0,0,5.565-13.2c.3-1.116.584-2.169.906-3.185.966-3.041,4.2-11.033,13.368-19.534a2.046,2.046,0,0,0,.2-2.786l6.561,6.546,0,0a2.045,2.045,0,0,1-.054,2.946c-9.168,8.5-12.4,16.491-13.368,19.534-.322,1.016-.607,2.069-.908,3.183a40.353,40.353,0,0,1-5.563,13.206A37.862,37.862,0,0,1,90.343,71.4Z" transform="translate(14.001 3.124)" fill="#dae1ea"/>
      <path id="Trazado_104611" data-name="Trazado 104611" d="M36.017,121.059a2.048,2.048,0,0,1-2.9.012l-25-25a2.048,2.048,0,0,1,.012-2.9q.564-.558,1.136-1.1a53.433,53.433,0,0,1,7.234-5.935c.613-.42,1.209-.808,1.814-1.2a48.329,48.329,0,0,0,8.337-6.521,48.232,48.232,0,0,0,6.895-8.36,69.746,69.746,0,0,1,7.874-9.779l.091-.1a56.15,56.15,0,0,1,7.167-6.716,2.046,2.046,0,0,1,2.613.233L75.5,77.9a2.048,2.048,0,0,1,.233,2.613,55.89,55.89,0,0,1-6.718,7.165l-.1.093a69.949,69.949,0,0,1-9.779,7.874,49.4,49.4,0,0,0-14.881,15.228,53.375,53.375,0,0,1-7.14,9.052q-.541.57-1.1,1.136Z" transform="translate(1.3 9.19)" fill="#f79e60"/>
      <path id="Trazado_104612" data-name="Trazado 104612" d="M36.017,118.251a2.048,2.048,0,0,1-2.9.012l-25-25a2.048,2.048,0,0,1,.012-2.9q.564-.558,1.136-1.1a53.433,53.433,0,0,1,7.234-5.935,5.539,5.539,0,0,0,.6,7.125l12.782,12.782a5.543,5.543,0,0,0,8.565-.895c.01-.017.023-.035.033-.052A49.4,49.4,0,0,1,53.351,87.051a69.97,69.97,0,0,0,9.779-7.874l.1-.093a55.89,55.89,0,0,0,6.718-7.165,2.049,2.049,0,0,0-.233-2.613L75.5,75.091a2.048,2.048,0,0,1,.233,2.613,55.89,55.89,0,0,1-6.718,7.165l-.1.093a69.95,69.95,0,0,1-9.779,7.874,49.4,49.4,0,0,0-14.881,15.228,53.375,53.375,0,0,1-7.14,9.052q-.541.569-1.1,1.135Z" transform="translate(1.3 11.998)" fill="#d77d41"/>
      <path id="Trazado_104613" data-name="Trazado 104613" d="M87.949,64.244a2.043,2.043,0,0,1-2.765-.116L79.4,58.351,60.957,39.924l0,0a2.047,2.047,0,0,1-.116-2.765c3.656-4.334,5.761-5.892,6.5-6.363a33.336,33.336,0,0,1,10.79-4.435c1.165-.312,2.352-.633,3.534-1a2.046,2.046,0,0,1,2.063.505c2.535,2.535,2.543,5.146,2.547,7.244.006,1.822.008,3.023,1.35,4.365s2.543,1.344,4.365,1.35c.507,0,1.047,0,1.606.041a8.233,8.233,0,0,1,5.5,2.366,2.034,2.034,0,0,1,.655,2.191c-.372,1.182-.69,2.368-1,3.513a33.335,33.335,0,0,1-4.439,10.813c-.478.752-2.04,2.854-6.363,6.5Z" transform="translate(10.449 4.373)" fill="#f79e60"/>
      <path id="Trazado_104614" data-name="Trazado 104614" d="M85.139,62.237a2.043,2.043,0,0,1-2.765-.116l-5.781-5.777,0-.008a2.043,2.043,0,0,0,2.765.116c4.323-3.648,5.885-5.75,6.363-6.5a33.335,33.335,0,0,0,4.439-10.813c.2-.748.407-1.514.63-2.285a8.233,8.233,0,0,1,5.5,2.366,2.034,2.034,0,0,1,.655,2.191c-.372,1.182-.69,2.368-1,3.513A33.335,33.335,0,0,1,91.5,55.735c-.478.752-2.039,2.853-6.362,6.5Z" transform="translate(13.259 6.38)" fill="#d77d41"/>
      <path id="Trazado_104615" data-name="Trazado 104615" d="M121.856,30.445a6.606,6.606,0,0,1-9.313,0l-5.767-5.752-13.5-13.47-.006-.006a6.568,6.568,0,0,1,0-9.3,6.606,6.606,0,0,1,9.313,0l13.738,13.7,5.536,5.52.006.006a6.564,6.564,0,0,1-.006,9.3Z" transform="translate(15.812 0)" fill="#56788b"/>
      <path id="Trazado_104616" data-name="Trazado 104616" d="M121.513,23.489a6.594,6.594,0,0,1-11.245,4.651L104.5,22.388l-.017-.033a6.58,6.58,0,0,0,9.562-9.037l5.536,5.52.006.006a6.526,6.526,0,0,1,1.926,4.645Z" transform="translate(18.088 2.306)" fill="#415e6f"/>
      <path id="Trazado_104617" data-name="Trazado 104617" d="M100.683,71.832,79.071,93.387a2.041,2.041,0,0,1-2.889,0l-5.775-5.759L35.5,52.807l0,0a2.044,2.044,0,0,1,0-2.894L57.108,28.356a2.044,2.044,0,0,1,2.888,0L95.032,63.3l0,0,5.648,5.632,0,0a2.049,2.049,0,0,1,0,2.895Z" transform="translate(6.041 4.806)" fill="#ed2061"/>
      <path id="Trazado_104618" data-name="Trazado 104618" d="M96.044,65.139a2.048,2.048,0,0,1-.6,1.448L73.832,88.141a2.041,2.041,0,0,1-2.889,0l-5.775-5.759-.01-.025a2.041,2.041,0,0,0,2.889,0L89.66,60.8a2.047,2.047,0,0,0,.137-2.744l5.648,5.632,0,0a2.037,2.037,0,0,1,.6,1.446Z" transform="translate(11.28 10.051)" fill="#c71e54"/>
      <g id="Grupo_55192" data-name="Grupo 55192" transform="translate(57.326 49.065)">
        <path id="Trazado_104619" data-name="Trazado 104619" d="M59.283,49.189l-2.051-2.051,4-1.327a2.045,2.045,0,1,0-1.287-3.882L52.8,44.3a2.045,2.045,0,0,0-.8,3.387l2.128,2.128-3.914,1.43a2.045,2.045,0,1,0,1.4,3.842l6.925-2.531a2.045,2.045,0,0,0,.744-3.367Z" transform="translate(-48.866 -41.824)" fill="#fbdf63"/>
        <g id="Grupo_55191" data-name="Grupo 55191" transform="translate(10.274 10.084)">
          <path id="Trazado_104620" data-name="Trazado 104620" d="M64.741,53.911,77.649,66.819a2.045,2.045,0,1,0,2.892-2.892L67.633,51.019a2.045,2.045,0,0,0-2.892,2.892Z" transform="translate(-56.496 -50.42)" fill="#fff"/>
          <path id="Trazado_104621" data-name="Trazado 104621" d="M74.024,70.445,61.116,57.537a2.045,2.045,0,0,0-2.892,2.892L71.132,73.337a2.045,2.045,0,0,0,2.892-2.892Z" transform="translate(-57.625 -49.292)" fill="#fff"/>
        </g>
      </g>
    </g>
  </g>
</svg>
