<svg id="Grupo_120364" data-name="Grupo 120364" xmlns="http://www.w3.org/2000/svg" xmlns:xlink="http://www.w3.org/1999/xlink" width="127.576" height="132" viewBox="0 0 127.576 132">
  <defs>
    <clipPath id="clip-path">
      <rect id="Rectángulo_37387" data-name="Rectángulo 37387" width="127.576" height="132.001" fill="none"/>
    </clipPath>
  </defs>
  <g id="Grupo_120363" data-name="Grupo 120363" clip-path="url(#clip-path)">
    <path id="Trazado_181408" data-name="Trazado 181408" d="M5.256,119.18q0-3.218,0-6.438a2.113,2.113,0,0,0,1.977-2.422c-.031-1.356-.047-2.715,0-4.07a2.2,2.2,0,0,0-1.981-2.58q-.011-3.4-.022-6.8c1.7-.511,1.991-.917,1.991-2.837q0-30.96-.024-61.918c0-1.092.256-1.42,1.373-1.386,2.806.085,5.616.049,8.424.015.825-.01,1.259.105,1.594,1.061a9.423,9.423,0,0,0,8.542,6.63,2.071,2.071,0,0,0,2.542-1.8,1.933,1.933,0,0,0-1.97-2.081A6.044,6.044,0,0,1,22.9,31.818c-.528-.811-.414-1.084.608-1.079q9.829.044,19.659,0c.756,0,.989.277,1.232.965a9.488,9.488,0,0,0,8.343,6.7c1.569.192,2.606-.437,2.776-1.661s-.6-2.035-2.262-2.229A5.827,5.827,0,0,1,48.821,31.9c-.2-.3-.539-.615-.324-.995.19-.334.6-.146.906-.147,6.506-.011,13.013.007,19.518-.028.8,0,1.077.258,1.343,1.009a9.477,9.477,0,0,0,8.371,6.667c1.561.186,2.6-.474,2.733-1.714.132-1.2-.625-2-2.171-2.171A5.926,5.926,0,0,1,74.8,32.1c-.244-.336-.636-.721-.485-1.111.186-.482.746-.223,1.131-.224,7.723-.015,15.446.009,23.169-.036,1.021-.006,1.344.2,1.329,1.289-.066,4.819-.008,9.641-.042,14.461-.01,1.431.5,2.34,1.984,2.555v6.537c-1.485.211-1.988,1.121-1.984,2.552.026,8.378,0,16.756.035,25.134a2.948,2.948,0,0,1-.971,2.313Q82.5,101.97,66.078,118.413a5.378,5.378,0,0,0-1.388,2.22c-1.157,3.6-2.38,7.171-3.559,10.761-.218.665-.438,1.088-1.315,1.078-6.038-.073-12.083.11-18.112-.139-12.032-.5-21.536-12.519-19.474-24.393,1.9-10.957,10.56-18.233,21.71-18.239q12.007-.007,24.013,0a28.054,28.054,0,0,0,4.474-.3A20.218,20.218,0,0,0,68.75,49.285c-7.395-.077-14.792-.018-22.187-.01a4.269,4.269,0,0,0-1.241.151,1.926,1.926,0,0,0,.363,3.754,11.142,11.142,0,0,0,1.263.024c7.162,0,14.324-.053,21.485.014,10.8.1,18.407,9.268,16.337,19.6a16.075,16.075,0,0,1-15.286,12.9c-8.518.114-17.038.027-25.557.063a29.022,29.022,0,0,0-4.476.306,25.284,25.284,0,0,0,3.216,50.256c6.365.091,12.732.033,19.1.044a5.487,5.487,0,0,0,1.777-.343c4.11-1.383,8.223-2.759,12.347-4.1a5.7,5.7,0,0,0,2.34-1.459q10.209-10.245,20.443-20.465c.342-.343.623-.746.933-1.12l.31.235v.517c0,12.169-.02,24.338.031,36.507,0,1.178-.543,1.094-1.342,1.093q-45.007-.017-90.015.023c-1.238,0-1.4-.381-1.395-1.48.048-7.956,0-15.913.045-23.87.008-1.485-.5-2.426-1.985-2.742M31.537,53.2c1.263,0,2.526.016,3.788,0A1.8,1.8,0,0,0,37.3,51.448a1.767,1.767,0,0,0-1.746-2.115c-2.661-.111-5.331-.094-7.993-.01a1.939,1.939,0,0,0,.185,3.872c1.262.02,2.526,0,3.788.007" transform="translate(-3.267 -19.174)" fill="#f6f6f6"/>
    <path id="Trazado_181409" data-name="Trazado 181409" d="M1.99,150.045c1.489.316,1.992,1.257,1.985,2.742-.041,7.957,0,15.914-.045,23.87-.006,1.1.157,1.481,1.395,1.479q45.007-.062,90.015-.023c.8,0,1.346.084,1.341-1.093-.051-12.169-.031-24.338-.031-36.507V140l-.31-.235c-.309.375-.591.778-.933,1.12q-10.219,10.235-20.443,20.465a5.7,5.7,0,0,1-2.34,1.459c-4.124,1.34-8.236,2.717-12.347,4.1a5.5,5.5,0,0,1-1.777.343c-6.366-.012-12.733.046-19.1-.045a25.284,25.284,0,0,1-3.217-50.256,29.025,29.025,0,0,1,4.476-.305c8.519-.036,17.039.051,25.557-.063a16.075,16.075,0,0,0,15.286-12.9c2.069-10.334-5.536-19.5-16.338-19.6-7.161-.066-14.324-.012-21.485-.014a11.225,11.225,0,0,1-1.262-.024,1.926,1.926,0,0,1-.363-3.754,4.271,4.271,0,0,1,1.241-.151c7.4-.008,14.792-.067,22.188.01a20.218,20.218,0,0,1,3.677,40.114,28.013,28.013,0,0,1-4.474.3q-12.007,0-24.014,0c-11.149.006-19.806,7.282-21.709,18.239C16.9,150.678,26.407,162.7,38.439,163.2c6.029.249,12.074.066,18.112.139.877.011,1.1-.413,1.315-1.078,1.179-3.589,2.4-7.164,3.559-10.76a5.384,5.384,0,0,1,1.388-2.221Q79.258,132.858,95.7,116.435a2.948,2.948,0,0,0,.972-2.313c-.039-8.378-.009-16.756-.035-25.134,0-1.431.5-2.341,1.984-2.552,1.485.217,1.982,1.133,1.976,2.56-.028,6.925-.012,13.851-.012,20.776v1.4c.526.1.668-.334.9-.562q5.825-5.789,11.626-11.6c3.155-3.146,6.832-3.166,10-.061.835.819,1.668,1.642,2.475,2.488a6.4,6.4,0,0,1-.113,9.392c-3.81,3.867-7.67,7.684-11.509,11.521-4.137,4.136-8.259,8.286-12.426,12.392a2.939,2.939,0,0,0-.97,2.313q.048,21.057.021,42.115c0,2.319-.561,2.875-2.9,2.875H2.919c-2.34,0-2.9-.552-2.9-2.872,0-8.8.02-17.595-.02-26.392-.007-1.489.507-2.416,1.989-2.73m70.785,7.645c.428-.028.6-.334.82-.553q16.573-16.561,33.148-33.121c.531-.529.662-.849.047-1.434q-2.64-2.516-5.158-5.157c-.569-.6-.888-.529-1.435.02Q83.65,134.032,67.061,150.577c-.531.529-.654.861-.05,1.44,1.755,1.682,3.45,3.426,5.173,5.143.2.2.412.37.593.53m50.836-51.52a2.333,2.333,0,0,0-.5-1.553,20.509,20.509,0,0,0-3.574-3.546,2.378,2.378,0,0,0-3.308.381c-2.282,2.219-4.5,4.5-6.775,6.728-.6.583-.48.968.059,1.492q2.566,2.5,5.063,5.065c.566.585.953.526,1.493-.025,2.2-2.239,4.43-4.44,6.638-6.667a2.924,2.924,0,0,0,.91-1.874m-13.362,14.24c.258-.228.5-.431.732-.649,1.563-1.491,1.562-1.492.067-2.989l-3.571-3.573c-1.556-1.556-1.54-1.541-3.1.064-.457.471-.639.775-.069,1.324,1.819,1.751,3.584,3.558,5.374,5.34.163.163.351.3.567.483M69.021,159.828l-4.639-4.668-2.321,6.978,6.96-2.31" transform="translate(-0.001 -50.039)" fill="#030303"/>
    <path id="Trazado_181410" data-name="Trazado 181410" d="M98.629,29.861c-1.482-.215-1.994-1.124-1.984-2.554.033-4.82-.025-9.642.042-14.461.015-1.086-.309-1.295-1.329-1.289-7.723.044-15.446.02-23.169.035-.385,0-.944-.258-1.131.224-.151.39.241.776.485,1.111a5.927,5.927,0,0,0,4.4,2.425c1.546.17,2.3.974,2.171,2.171-.136,1.239-1.172,1.9-2.733,1.714a9.477,9.477,0,0,1-8.37-6.667c-.266-.75-.54-1.013-1.343-1.009-6.506.035-13.012.017-19.518.028-.305,0-.717-.188-.907.147-.215.38.127.7.324.994a5.827,5.827,0,0,0,4.431,2.61c1.659.194,2.434,1,2.262,2.229s-1.207,1.854-2.776,1.661a9.488,9.488,0,0,1-8.343-6.7c-.243-.688-.476-.968-1.232-.965q-9.829.043-19.659,0c-1.022,0-1.137.268-.608,1.079a6.045,6.045,0,0,0,4.807,2.734,1.932,1.932,0,0,1,1.97,2.08,2.07,2.07,0,0,1-2.542,1.8,9.422,9.422,0,0,1-8.542-6.63c-.336-.955-.769-1.071-1.594-1.061-2.808.034-5.619.07-8.425-.015-1.117-.034-1.375.294-1.373,1.386q.051,30.959.024,61.918c0,1.921-.29,2.327-1.991,2.837A2.264,2.264,0,0,1,.013,75.1Q.045,42.677.03,10.257c0-1.947.653-2.6,2.613-2.609,3.743-.013,7.486-.023,11.229.012a1.244,1.244,0,0,0,1.462-1.033A9.588,9.588,0,0,1,33.564,6.6c.271.808.587,1.1,1.44,1.065,1.588-.071,3.182-.048,4.771-.008a1.147,1.147,0,0,0,1.376-.944A9.612,9.612,0,0,1,59.5,6.768c.22.653.443.906,1.129.89,1.73-.041,3.462-.036,5.193,0,.652.013.923-.166,1.154-.849a9.607,9.607,0,0,1,18.38,0c.27.806.672.842,1.315.84q5.544-.019,11.089,0c2.245,0,2.836.59,2.837,2.812,0,5.614-.017,11.228.014,16.842.008,1.427-.495,2.342-1.977,2.562M50.234,7.643c1.491,0,2.983-.024,4.474.009.783.017.907-.242.513-.877a5.676,5.676,0,0,0-9.813-.01c-.379.61-.319.905.492.887,1.444-.033,2.889-.009,4.334-.009m-25.807,0c1.491,0,2.983-.019,4.474.008.679.012.866-.223.512-.8a5.688,5.688,0,0,0-9.893-.039c-.436.71-.119.856.572.843,1.444-.029,2.89-.009,4.334-.009m51.864,0c1.445,0,2.89-.021,4.334.009.706.015.832-.253.494-.809a5.687,5.687,0,0,0-9.891-.029c-.452.735-.073.848.589.837,1.491-.023,2.983-.008,4.474-.008" transform="translate(-0.008 0)" fill="#030303"/>
    <path id="Trazado_181411" data-name="Trazado 181411" d="M1.993,225.1a2.2,2.2,0,0,1,1.981,2.58c-.051,1.355-.035,2.714,0,4.07a2.114,2.114,0,0,1-1.977,2.422A2.114,2.114,0,0,1,.02,231.746c.034-1.355.049-2.714,0-4.069A2.2,2.2,0,0,1,1.993,225.1" transform="translate(-0.008 -140.602)" fill="#030303"/>
    <path id="Trazado_181412" data-name="Trazado 181412" d="M65.7,84.082c-1.263,0-2.526.014-3.788-.006a1.939,1.939,0,0,1-.185-3.872c2.663-.084,5.333-.1,7.993.01a1.767,1.767,0,0,1,1.746,2.115,1.8,1.8,0,0,1-1.978,1.749c-1.262.02-2.526,0-3.788,0" transform="translate(-37.428 -50.055)" fill="#030303"/>
    <path id="Trazado_181413" data-name="Trazado 181413" d="M183.608,219.083c-.18-.16-.4-.335-.593-.53-1.722-1.717-3.417-3.461-5.172-5.143-.6-.578-.481-.911.05-1.44q16.588-16.546,33.136-33.132c.547-.549.866-.616,1.435-.02q2.519,2.637,5.158,5.157c.614.586.484.905-.047,1.435q-16.587,16.547-33.148,33.121c-.219.219-.392.526-.82.553" transform="translate(-110.834 -111.431)" fill="#fdd835"/>
    <path id="Trazado_181414" data-name="Trazado 181414" d="M305.068,140.2a2.922,2.922,0,0,1-.91,1.874c-2.208,2.227-4.442,4.428-6.638,6.667-.54.551-.928.61-1.493.024q-2.489-2.573-5.063-5.064c-.539-.524-.655-.91-.059-1.492,2.276-2.225,4.494-4.509,6.775-6.728a2.378,2.378,0,0,1,3.308-.381,20.512,20.512,0,0,1,3.574,3.547,2.333,2.333,0,0,1,.5,1.553" transform="translate(-181.458 -84.07)" fill="#f57c00"/>
    <path id="Trazado_181415" data-name="Trazado 181415" d="M283.223,173.553c-.216-.183-.4-.321-.567-.483-1.79-1.782-3.555-3.589-5.375-5.34-.57-.549-.389-.854.069-1.324,1.56-1.6,1.545-1.62,3.1-.064l3.571,3.573c1.495,1.5,1.5,1.5-.068,2.989-.229.218-.473.421-.731.649" transform="translate(-172.974 -103.181)" fill="#26ccda"/>
    <path id="Trazado_181416" data-name="Trazado 181416" d="M172.29,284.712l-6.96,2.31,2.321-6.978,4.639,4.668" transform="translate(-103.269 -174.922)" fill="#e4f0fd"/>
  </g>
</svg>
