<svg xmlns="http://www.w3.org/2000/svg" width="100" height="100" viewBox="0 0 100 100">
  <g id="botella-de-plastico" transform="translate(-1 -1)">
    <g id="Grupo_55444" data-name="Grupo 55444" transform="translate(2.613 2.613)">
      <g id="Grupo_55435" data-name="Grupo 55435" transform="translate(56.452)">
        <path id="Trazado_105175" data-name="Trazado 105175" d="M56.355,2h3.226a3.235,3.235,0,0,1,3.226,3.226v6.452A3.235,3.235,0,0,1,59.581,14.9H40.226A3.226,3.226,0,0,1,37,11.677V5.226A3.235,3.235,0,0,1,40.226,2H56.355Z" transform="translate(-37 -2)" fill="#26ccda"/>
      </g>
      <g id="Grupo_55436" data-name="Grupo 55436" transform="translate(43.548 12.516)">
        <path id="Trazado_105176" data-name="Trazado 105176" d="M64.484,10.147A23.221,23.221,0,0,0,81.6,32.55l.629.177H29V31.679A23.237,23.237,0,0,0,43.516,10.147L43.6,9.76a3.271,3.271,0,0,0,1.532.387Z" transform="translate(-29 -9.76)" fill="#ffe881"/>
      </g>
      <g id="Grupo_55437" data-name="Grupo 55437" transform="translate(40.323 34.435)">
        <path id="Trazado_105177" data-name="Trazado 105177" d="M30.226,24.4V23.35a23.361,23.361,0,0,1-2.6.871L27,24.4V38.818a14.517,14.517,0,0,1,8.065,13l.161,27.419h-.161a6.45,6.45,0,0,1-6.452,6.452H73.774a9.685,9.685,0,0,0,9.677-9.677V24.4Z" transform="translate(-27 -23.35)" fill="#ffe881"/>
      </g>
      <g id="Grupo_55438" data-name="Grupo 55438" transform="translate(48.387 41.935)">
        <path id="Trazado_105178" data-name="Trazado 105178" d="M73.935,29.613V74.774a1.618,1.618,0,0,1-1.613,1.613H32V29.613A1.618,1.618,0,0,1,33.613,28h38.71A1.618,1.618,0,0,1,73.935,29.613Z" transform="translate(-32 -28)" fill="#f57c00"/>
      </g>
      <g id="Grupo_55439" data-name="Grupo 55439" transform="translate(11.29 25.806)">
        <path id="Trazado_105179" data-name="Trazado 105179" d="M41.258,24.452v2.177a23.361,23.361,0,0,1-2.6.871l-.629.177V42.1a14.446,14.446,0,0,0-6.452-1.516H12.226V34.129A3.235,3.235,0,0,0,9,30.9V24.452A6.45,6.45,0,0,1,15.452,18H34.806a6.45,6.45,0,0,1,6.452,6.452Z" transform="translate(-9 -18)" fill="#e6e9ed"/>
      </g>
      <g id="Grupo_55440" data-name="Grupo 55440" transform="translate(20.968 12.903)">
        <path id="Trazado_105180" data-name="Trazado 105180" d="M27.9,13.226V22.9H15V13.226A3.235,3.235,0,0,1,18.226,10h6.452A3.235,3.235,0,0,1,27.9,13.226Z" transform="translate(-15 -10)" fill="#fdd835"/>
      </g>
      <g id="Grupo_55441" data-name="Grupo 55441" transform="translate(3.226 38.71)">
        <path id="Trazado_105181" data-name="Trazado 105181" d="M15.29,35.613v.065H7.226A6.435,6.435,0,0,0,4,36.548V29.226A3.235,3.235,0,0,1,7.226,26h4.839a3.235,3.235,0,0,1,3.226,3.226Z" transform="translate(-4 -26)" fill="#f57c00"/>
      </g>
      <g id="Grupo_55442" data-name="Grupo 55442" transform="translate(0 48.387)">
        <path id="Trazado_105182" data-name="Trazado 105182" d="M5.226,32.871A6.435,6.435,0,0,1,8.452,32H35.871A14.526,14.526,0,0,1,50.387,46.516V73.935a6.45,6.45,0,0,1-6.452,6.452H8.452A6.45,6.45,0,0,1,2,73.935V38.452A6.419,6.419,0,0,1,5.226,32.871Zm37.1,15.258a1.618,1.618,0,0,0,1.613-1.613,8.067,8.067,0,0,0-8.065-8.065H26.194a4.839,4.839,0,1,0,0,9.677Z" transform="translate(-2 -32)" fill="#26ccda"/>
      </g>
      <g id="Grupo_55443" data-name="Grupo 55443" transform="translate(6.452 70.968)">
        <path id="Trazado_105183" data-name="Trazado 105183" d="M41.484,49.226v12.9a3.235,3.235,0,0,1-3.226,3.226H9.226A3.235,3.235,0,0,1,6,62.129v-12.9A3.235,3.235,0,0,1,9.226,46H38.258A3.235,3.235,0,0,1,41.484,49.226Z" transform="translate(-6 -46)" fill="#e6e9ed"/>
      </g>
    </g>
    <g id="Grupo_55445" data-name="Grupo 55445" transform="translate(1 1)">
      <path id="Trazado_105187" data-name="Trazado 105187" d="M29.129,35H19.452a6.452,6.452,0,1,0,0,12.9H35.581a3.229,3.229,0,0,0,3.226-3.226A9.687,9.687,0,0,0,29.129,35Zm-9.677,9.677a3.226,3.226,0,1,1,0-6.452h9.677a6.461,6.461,0,0,1,6.453,6.452Z" transform="translate(6.355 19.839)"/>
      <path id="Trazado_105188" data-name="Trazado 105188" d="M83.313,16.815a4.831,4.831,0,0,0,3.171-4.524V5.839A4.845,4.845,0,0,0,81.645,1H62.29a4.845,4.845,0,0,0-4.839,4.839V12.29a4.81,4.81,0,0,0,1.6,3.568A21.662,21.662,0,0,1,47.737,34.51a8.056,8.056,0,0,0-8.027-7.7H38.1V18.742A4.845,4.845,0,0,0,33.258,13.9H26.806a4.845,4.845,0,0,0-4.839,4.839v8.065H20.355a8.074,8.074,0,0,0-8.065,8.065V39.71H9.065a4.845,4.845,0,0,0-4.839,4.839v6.494A8.027,8.027,0,0,0,1,57.452V92.935A8.074,8.074,0,0,0,9.065,101H89.71A11.3,11.3,0,0,0,101,89.71V36.863l-1.815-.494A21.655,21.655,0,0,1,83.313,16.815ZM60.677,5.839A1.615,1.615,0,0,1,62.29,4.226H63.9v6.452h3.226V4.226h3.226v6.452h3.226V4.226h3.226v6.452h3.226V4.226h1.613a1.615,1.615,0,0,1,1.613,1.613V12.29A1.615,1.615,0,0,1,81.645,13.9H62.29a1.615,1.615,0,0,1-1.613-1.613Zm1.547,11.284c.023,0,.044.006.066.006H80.1A24.9,24.9,0,0,0,91.6,36.484H50.727A24.9,24.9,0,0,0,62.224,17.123ZM25.194,18.742a1.615,1.615,0,0,1,1.613-1.613h6.452a1.615,1.615,0,0,1,1.613,1.613v8.065H25.194ZM15.516,34.871a4.845,4.845,0,0,1,4.839-4.839H39.71a4.845,4.845,0,0,1,4.839,4.839v1.05c-.465.161-.932.318-1.411.45l-1.815.492V50.131a16.055,16.055,0,0,0-4.839-.744H18.742V44.548a4.832,4.832,0,0,0-3.226-4.542ZM7.452,44.548a1.615,1.615,0,0,1,1.613-1.613H13.9a1.615,1.615,0,0,1,1.613,1.613v4.839H9.065a8.057,8.057,0,0,0-1.613.163ZM49.387,69.542V92.935a4.845,4.845,0,0,1-4.839,4.839H9.065a4.845,4.845,0,0,1-4.839-4.839V57.452a4.845,4.845,0,0,1,4.839-4.839H36.484a12.918,12.918,0,0,1,12.9,12.9ZM97.774,89.71a8.074,8.074,0,0,1-8.065,8.065H50.958a7.987,7.987,0,0,0,1.49-3.226H91.323a3.229,3.229,0,0,0,3.226-3.226V46.161a3.229,3.229,0,0,0-3.226-3.226H52.613a3.229,3.229,0,0,0-3.226,3.226v9.719a16.206,16.206,0,0,0-4.839-4.31V39.71H97.774ZM52.613,91.323V46.161h38.71V91.323Z" transform="translate(-1 -1)"/>
      <path id="Trazado_105189" data-name="Trazado 105189" d="M53,53h3.226v3.226H53Z" transform="translate(30.871 30.871)"/>
      <path id="Trazado_105190" data-name="Trazado 105190" d="M49,53h3.226v3.226H49Z" transform="translate(28.419 30.871)"/>
      <path id="Trazado_105191" data-name="Trazado 105191" d="M45,53h3.226v3.226H45Z" transform="translate(25.968 30.871)"/>
      <path id="Trazado_105192" data-name="Trazado 105192" d="M38.871,45H9.839A4.845,4.845,0,0,0,5,49.839v12.9a4.845,4.845,0,0,0,4.839,4.839H38.871a4.845,4.845,0,0,0,4.839-4.839v-12.9A4.845,4.845,0,0,0,38.871,45Zm1.613,17.742a1.615,1.615,0,0,1-1.613,1.613H9.839a1.615,1.615,0,0,1-1.613-1.613v-12.9a1.615,1.615,0,0,1,1.613-1.613H38.871a1.615,1.615,0,0,1,1.613,1.613Z" transform="translate(1.452 25.968)"/>
    </g>
  </g>
</svg>
