<svg id="Grupo_120668" data-name="Grupo 120668" xmlns="http://www.w3.org/2000/svg" xmlns:xlink="http://www.w3.org/1999/xlink" width="34.352" height="46.291" viewBox="0 0 34.352 46.291">
  <defs>
    <clipPath id="clip-path">
      <rect id="Rectángulo_37606" data-name="Rectángulo 37606" width="34.351" height="46.291" fill="none"/>
    </clipPath>
  </defs>
  <g id="Grupo_120668-2" data-name="Grupo 120668" clip-path="url(#clip-path)">
    <path id="Trazado_182152" data-name="Trazado 182152" d="M27.663,0c.085.158.261.115.391.164A2.732,2.732,0,0,1,29.83,2.611a1.468,1.468,0,0,1,0,.226A8.064,8.064,0,0,0,30.84,7.5c.991,1.971,1.845,4.011,2.756,6.023a8.489,8.489,0,0,1,.755,3.546q0,13.219,0,26.438a2.7,2.7,0,0,1-2.762,2.779q-14.416.007-28.831,0A2.692,2.692,0,0,1,0,43.548Q0,30.284,0,17.019a8.388,8.388,0,0,1,.756-3.5q1.8-3.981,3.613-7.96a1.563,1.563,0,0,0,.152-.692c-.009-.663,0-1.326,0-1.988A2.717,2.717,0,0,1,6.387.134C6.463.1,6.575.117,6.6,0ZM32.53,32.1c0-2.028.014-4.057.014-6.086q0-4.192-.014-8.385a7.232,7.232,0,0,0-.659-3.55c-.914-1.975-1.732-4-2.721-5.933A8.929,8.929,0,0,1,28.024,2.92a.662.662,0,0,0,0-.09c-.015-.628-.361-1.017-.9-1.017a.9.9,0,0,0-.9,1.017c-.007.737-.013,1.475,0,2.212a2.411,2.411,0,0,1-.232,1.085c-1.212,2.647-2.4,5.3-3.619,7.949a7.242,7.242,0,0,0-.659,3.55q-.007,4.17-.014,8.34c0,2.044.009,4.087.014,6.131Q21.7,37.835,21.7,43.572a.872.872,0,0,0,.923.9q4.5.012,8.99,0a.9.9,0,0,0,.927-.995c.007-1.491,0-2.982,0-4.473q-.005-3.456-.014-6.911m-30.707,0c0,.15-.014.3-.014.451q0,5.352,0,10.7c0,.953.278,1.229,1.241,1.229H20a17.421,17.421,0,0,1-.108-3.216c-.018-3.056-.015-6.111-.02-9.167,0-1.923.014-3.847.014-5.77q0-4.35-.014-8.7a10.282,10.282,0,0,1,1.069-4.793c.959-2.006,1.847-4.045,2.763-6.071.059-.132.168-.25.138-.417a1.084,1.084,0,0,0-.135-.017q-8.7,0-17.4-.009c-.269,0-.354.12-.448.327q-1.69,3.737-3.395,7.467a7.176,7.176,0,0,0-.642,3.513c0,2.134-.014,4.267-.014,6.4q0,4.035.014,8.069M15.329,4.52c2.89,0,5.78-.006,8.669.008.335,0,.426-.074.421-.416a8.3,8.3,0,0,1,.055-1.935c.062-.281.036-.389-.294-.378-.8.025-1.6.008-2.393.008q-7.179,0-14.358,0c-.771,0-1.1.327-1.1,1.1,0,.376.025.755-.007,1.128s.056.5.474.5c2.844-.023,5.689-.012,8.534-.012" transform="translate(-0.001)"/>
    <path id="Trazado_182153" data-name="Trazado 182153" d="M33.034,145.906q.007,4.35.014,8.7c0,1.923-.009,3.847-.014,5.77H14.984q-.007-4.035-.014-8.069c0-2.134.009-4.267.014-6.4H33.034m-7.248,7.142a.934.934,0,0,1,.024.107c0,.542,0,1.084.007,1.626.006.67.343,1.065.9,1.066s.9-.4.905-1.063c0-1.1-.005-2.2,0-3.3a.966.966,0,0,0-.485-.947.94.94,0,0,0-1.055.126c-.6.407-1.205.8-1.8,1.209a.4.4,0,0,1-.552.007c-.613-.436-1.248-.84-1.874-1.257a.894.894,0,0,0-.978-.091.926.926,0,0,0-.5.894c0,1.13,0,2.259,0,3.389,0,.636.346,1.025.889,1.032.558.008.911-.392.917-1.051.005-.566,0-1.131,0-1.772.447.3.835.547,1.213.809a.954.954,0,0,0,1.174.011c.384-.259.771-.513,1.2-.8" transform="translate(-13.161 -128.279)" fill="#26ccda"/>
    <path id="Trazado_182154" data-name="Trazado 182154" d="M14.977,265.679H33.027c0,3.056,0,6.111.02,9.167a17.422,17.422,0,0,0,.108,3.216H16.2c-.962,0-1.24-.276-1.241-1.229q0-5.352,0-10.7c0-.15.009-.3.014-.451" transform="translate(-13.154 -233.581)" fill="#fff3bf"/>
    <path id="Trazado_182155" data-name="Trazado 182155" d="M33.018,63.627H14.968a7.177,7.177,0,0,1,.642-3.513Q17.322,56.388,19,52.647c.094-.207.179-.327.448-.326q8.7.016,17.4.009a1.107,1.107,0,0,1,.135.017c.031.167-.078.286-.138.417-.916,2.026-1.8,4.065-2.763,6.071a10.28,10.28,0,0,0-1.069,4.793" transform="translate(-13.145 -46)" fill="#fff3bf"/>
    <path id="Trazado_182156" data-name="Trazado 182156" d="M190.423,145.907q.007,4.192.014,8.385c0,2.028-.009,4.057-.014,6.085H179.6c0-2.043-.014-4.087-.014-6.13q0-4.17.014-8.34h10.819" transform="translate(-157.894 -128.279)" fill="#26ccda"/>
    <path id="Trazado_182157" data-name="Trazado 182157" d="M179.631,265.679h10.819q.007,3.456.014,6.911c0,1.491,0,2.982,0,4.473a.9.9,0,0,1-.927.995q-4.495.013-8.99,0a.872.872,0,0,1-.923-.9q-.006-5.737.009-11.474" transform="translate(-157.92 -233.581)" fill="#fff3bf"/>
    <path id="Trazado_182158" data-name="Trazado 182158" d="M190.407,30.823H179.589a7.241,7.241,0,0,1,.659-3.55c1.217-2.645,2.407-5.3,3.619-7.949a2.413,2.413,0,0,0,.232-1.086c-.016-.737-.01-1.475,0-2.212a.9.9,0,0,1,.9-1.017c.544,0,.89.389.9,1.017a.645.645,0,0,1,0,.09,8.926,8.926,0,0,0,1.125,5.224c.99,1.935,1.808,3.958,2.721,5.933a7.232,7.232,0,0,1,.659,3.55" transform="translate(-157.878 -13.196)" fill="#fff3bf"/>
    <path id="Trazado_182159" data-name="Trazado 182159" d="M61.28,17.616c-2.845,0-5.689-.011-8.534.012-.418,0-.507-.121-.474-.5s.005-.752.007-1.128c0-.77.329-1.1,1.1-1.1q7.179,0,14.358,0c.8,0,1.6.017,2.393-.008.33-.01.357.1.294.378a8.3,8.3,0,0,0-.055,1.935c0,.341-.086.417-.421.416-2.89-.014-5.779-.008-8.669-.008" transform="translate(-45.951 -13.096)" fill="#fff3bf"/>
    <path id="Trazado_182160" data-name="Trazado 182160" d="M65.239,185.94c-.427.284-.814.538-1.2.8a.954.954,0,0,1-1.174-.011c-.379-.262-.766-.512-1.213-.809,0,.641,0,1.206,0,1.772-.006.66-.358,1.06-.917,1.051-.543-.008-.886-.4-.889-1.032-.006-1.129,0-2.259,0-3.389a.925.925,0,0,1,.5-.894.894.894,0,0,1,.978.091c.626.417,1.261.821,1.874,1.257a.4.4,0,0,0,.552-.007c.592-.413,1.2-.8,1.8-1.209a.94.94,0,0,1,1.055-.126.966.966,0,0,1,.485.947c-.01,1.1,0,2.2,0,3.3,0,.666-.347,1.064-.905,1.063s-.9-.4-.9-1.066c0-.542,0-1.084-.007-1.626a.935.935,0,0,0-.024-.107" transform="translate(-52.613 -161.17)"/>
  </g>
</svg>
