<svg id="Grupo_120415" data-name="Grupo 120415" xmlns="http://www.w3.org/2000/svg" xmlns:xlink="http://www.w3.org/1999/xlink" width="159.459" height="133.12" viewBox="0 0 159.459 133.12">
  <defs>
    <clipPath id="clip-path">
      <rect id="Rectángulo_37427" data-name="Rectángulo 37427" width="159.459" height="133.12" fill="none"/>
    </clipPath>
  </defs>
  <g id="Grupo_120415-2" data-name="Grupo 120415" clip-path="url(#clip-path)">
    <path id="Trazado_181570" data-name="Trazado 181570" d="M46.972,91.4a2.483,2.483,0,0,1-2.759,2.177c-4.677-.008-9.355.017-14.033-.012-2.037-.013-2.745-.882-2.746-3.264q-.009-17.541,0-35.083c0-.936-.054-1.875.015-2.806s-.328-1.112-1.175-1.133c-3.768-.095-3.768-.121-3.768,3.611q0,31.029-.027,62.058c0,1.17.254,1.642,1.475,1.979a8.625,8.625,0,0,1,6.066,7.864c.039.83.031,1.663.027,2.494-.014,2.752-1.085,3.819-3.9,3.825-5.613.012-11.227,0-16.84,0-1.3,0-2.6.024-3.9-.005-2.443-.055-3.537-1.1-3.61-3.5-.081-2.667,0-5.3,1.744-7.566a8.388,8.388,0,0,1,4.644-3.2c.876-.219,1.248-.508,1.247-1.519q-.055-32.354,0-64.708c0-1.153-.383-1.4-1.42-1.336a28.571,28.571,0,0,1-3.269-.083A5.59,5.59,0,0,1,.019,45.92C.166,34.383.237,22.841,0,11.307-.088,6.912,3.7,1.468,9.1.32A16.262,16.262,0,0,1,12.5,0q67.125.008,134.25.008c7.608,0,12.692,5.092,12.7,12.7q.016,15.982,0,31.964c0,4.336-2.263,6.577-6.646,6.622-2.991.031-2.991.031-2.991,2.99q0,31.262-.023,62.525c0,1.176.167,1.765,1.5,2.11a8.465,8.465,0,0,1,6.015,7.377,30.093,30.093,0,0,1,.114,3.112c-.041,2.594-1.122,3.681-3.723,3.694-4.938.024-9.875.007-14.813.007-2.027,0-4.054.025-6.081-.007-2.509-.04-3.561-1.145-3.636-3.623-.083-2.743.059-5.412,1.912-7.665a8.189,8.189,0,0,1,4.6-3.007,1.146,1.146,0,0,0,1.071-1.348q-.038-32.51-.005-65.02c0-.826-.154-1.153-1.086-1.171-3.866-.076-3.865-.113-3.865,3.737,0,5.561-.048,11.123.031,16.683a4.76,4.76,0,0,1-1.476,3.735q-8.69,8.618-17.31,17.307a2.677,2.677,0,0,1-1.974.732c-1.87.055-3.741.123-5.612.123q-25.26,0-50.519-.017c-2.119,0-2.769-.434-3.359-2.192.649-2.156,1.1-2.486,3.459-2.486,17.309,0,34.619-.029,51.928.043,1.688.007,2.007-.492,1.968-2.048-.108-4.312-.041-8.628-.036-12.942,0-2.609.709-3.326,3.32-3.333,4.522-.012,9.045-.043,13.566.024,1.129.017,1.357-.339,1.353-1.4-.041-9.3-.023-18.609-.028-27.913,0-.361-.058-.721-.089-1.081.03-1.088-.019-2.186.109-3.262.168-1.411-.315-1.787-1.753-1.785q-44.355.069-88.712.034c-4.91,0-4.91,0-4.45,5.012a2.654,2.654,0,0,0-.08.458q-.01,23.6-.031,47.194c0,.853.3,1.021,1.07,1.013,3.634-.034,7.269-.028,10.9-.01,1.922.01,2.555.581,2.9,2.5m94.714-34.936c-.444.552-.219,1.2-.219,1.8q-.023,18.079-.012,36.157,0,11.221.011,22.443c0,.489-.27,1.3.262,1.409a7.077,7.077,0,0,0,3.072,0c.621-.161.276-1.114.276-1.7q.025-29.222.009-58.444c0-.566-.073-1.132-.111-1.7.019-1.343.011-2.688.069-4.029.03-.7-.131-1.076-.923-1.007-.616.054-1.24.02-1.86.014-.506,0-.779.21-.744.741.095,1.435-.21,2.887.172,4.311m-127.436-.03c-.039.618-.111,1.236-.112,1.854q-.009,20.963-.005,41.925,0,8.416.01,16.833c0,.437-.234,1.172.272,1.251a7.634,7.634,0,0,0,3.077-.03c.613-.164.27-1.117.271-1.706q.024-29.145,0-58.29c0-.6.209-1.247-.205-1.809a23.638,23.638,0,0,0,.159-4.316c.034-.539-.254-.736-.752-.733-.621,0-1.245.039-1.861-.015-.79-.068-.955.305-.925,1.005.058,1.342.049,2.687.069,4.031M29.734,15.01c-1.735-.338-2.369-1.434-2.312-3.14.067-1.972-.042-3.95.039-5.922.043-1.052-.322-1.3-1.324-1.284-4.52.051-9.041.013-13.561.025-5.133.014-8.117,3-8.122,8.153q-.016,15.821,0,31.643c0,1.934.178,2.109,2.166,2.111,6.391.006,12.783-.047,19.172.04,1.45.02,1.688-.468,1.677-1.772-.059-7.378-.035-14.756-.024-22.134,0-2.058.395-2.56,2.293-3.123a2.587,2.587,0,0,1,2.378,2.924c.01,2.13.109,4.267-.034,6.387-.1,1.431.393,1.668,1.715,1.666q45.818-.059,91.636-.03a2.939,2.939,0,0,1,.467,0c.931.151,1.268-.174,1.235-1.17-.076-2.283-.031-4.571-.021-6.856a2.587,2.587,0,0,1,2.378-2.924c1.9.563,2.29,1.065,2.293,3.122.01,7.429.025,14.858-.017,22.286-.007,1.147.189,1.636,1.509,1.616,6.543-.1,13.088-.109,19.631-.1,1.334,0,1.846-.468,1.842-1.822-.033-10.753.012-21.507-.032-32.26a7.3,7.3,0,0,0-7.605-7.7c-4.726-.091-9.454-.028-14.18-.079-.865-.009-1.188.216-1.161,1.124.06,2.024-.033,4.053.034,6.077.056,1.706-.578,2.8-2.312,3.139-1.75-.3-2.4-1.423-2.386-3.1.019-1.87-.111-3.75.041-5.608.119-1.447-.412-1.652-1.713-1.65q-36.859.06-73.718.029c-6.078,0-12.157.026-18.234-.024-1.046-.008-1.453.186-1.393,1.332.1,1.969.014,3.947.033,5.921.016,1.673-.636,2.8-2.387,3.1m113.5,113.421v-.057c2.8,0,5.608-.025,8.411.015.829.012,1.076-.256,1.029-1.082a4.092,4.092,0,0,0-3.744-4.064c-3.736-.1-7.477-.125-11.213-.056a4.137,4.137,0,0,0-3.873,4.118c-.03.891.243,1.162,1.134,1.145,2.752-.052,5.5-.019,8.257-.019m-127.258,0v-.057h7.315c2.119,0,2.636-.867,1.608-2.8a3.876,3.876,0,0,0-3.411-2.346c-3.683-.061-7.368-.11-11.05-.053a4.123,4.123,0,0,0-3.927,3.891c-.1.977.112,1.413,1.216,1.386,2.749-.068,5.5-.022,8.25-.022m97.6-43.376,9.789-9.761c-2.971,0-6,.012-9.032-.008-.795-.005-.76.493-.759,1.031,0,2.948,0,5.9,0,8.739" transform="translate(0 -0.001)" fill="#020303"/>
    <path id="Trazado_181571" data-name="Trazado 181571" d="M117.357,179.638c-.346-1.919-.979-2.49-2.9-2.5-3.634-.019-7.269-.025-10.9.01-.774.008-1.071-.16-1.07-1.013q.042-23.6.031-47.194a2.625,2.625,0,0,1,.08-.458H197.4c.031.361.089.721.089,1.081.005,9.3-.013,18.609.028,27.913,0,1.062-.224,1.417-1.353,1.4-4.521-.068-9.044-.036-13.566-.024-2.611.007-3.317.725-3.32,3.333-.005,4.314-.072,8.63.036,12.942.039,1.556-.281,2.055-1.968,2.048-17.309-.072-34.618-.045-51.928-.043-2.36,0-2.81.329-3.459,2.486l-4.6.018m41.014-29.085c0,3.452-.012,6.44.008,9.428.006.819-.533.739-1.051.739-4.626,0-9.252-.016-13.878.017-.8.005-1.088-.21-1.072-1.046q.071-3.9,0-7.8c-.017-.844.274-1.063,1.071-1.034a38.548,38.548,0,0,0,4.208-.024,2.319,2.319,0,1,0-.174-4.63,34.017,34.017,0,0,0-3.74.01c-1.132.088-1.389-.351-1.368-1.409.063-3.117.053-6.237.011-9.355-.028-2.089-.889-2.907-2.975-2.915q-6.237-.024-12.475,0c-2.01.01-2.856.841-2.859,2.837q-.023,13.566,0,27.132c0,2.038.788,2.882,2.8,2.887q16.685.034,33.369,0c1.927,0,2.785-.859,2.8-2.764.039-4.573.019-9.148.007-13.722a2.6,2.6,0,0,0-1.064-2.306c-.947-.65-5.467-.667-6.33.122-1.723,1.577-3.423,3.192-4.991,4.921a2.229,2.229,0,0,0,1,3.649,2.692,2.692,0,0,0,2.8-.91c1.185-1.192,2.4-2.353,3.916-3.832m12.8,19.476c.831,0,1.662.028,2.492-.007a2.135,2.135,0,0,0,2.189-1.832,2.053,2.053,0,0,0-1.324-2.52,1.167,1.167,0,0,1-.921-1.333q.028-14.025.007-28.05c0-.661.033-1.1.867-1.353a2.028,2.028,0,0,0,1.381-2.481,2.09,2.09,0,0,0-2-1.861,27.725,27.725,0,0,0-5.283.007,2.121,2.121,0,0,0-1.963,1.911,1.989,1.989,0,0,0,1.31,2.383c.932.3,1.02.779,1.019,1.579q-.029,13.791-.005,27.582c0,.759,0,1.313-.965,1.624a2.008,2.008,0,0,0-1.335,2.5,2.149,2.149,0,0,0,2.191,1.842c.778.022,1.557,0,2.336.006" transform="translate(-70.385 -88.241)" fill="#b1f9ff"/>
    <path id="Trazado_181572" data-name="Trazado 181572" d="M194.69,29.816a2.587,2.587,0,0,0-2.378,2.924c-.01,2.286-.055,4.573.021,6.856.033,1-.3,1.321-1.235,1.17a2.94,2.94,0,0,0-.467,0q-45.818,0-91.636.03c-1.322,0-1.812-.235-1.715-1.666.143-2.12.044-4.257.034-6.387a2.587,2.587,0,0,0-2.378-2.924v-4.6c1.75-.3,2.4-1.424,2.387-3.1-.019-1.974.07-3.952-.033-5.921-.06-1.146.346-1.341,1.393-1.332,6.078.05,12.156.024,18.234.024q36.859,0,73.718-.029c1.3,0,1.831.2,1.713,1.65-.152,1.858-.022,3.737-.041,5.607-.017,1.673.636,2.8,2.386,3.1q0,2.3,0,4.6m-83.644,4.3a6.616,6.616,0,1,0-6.68-6.628,6.726,6.726,0,0,0,6.68,6.628m19.421-8.941c-1.871,0-3.743-.027-5.613.008a2.341,2.341,0,0,0-2.6,2.288,2.308,2.308,0,0,0,2.527,2.368q5.768.065,11.537,0a2.357,2.357,0,0,0,2.555-2.37,2.391,2.391,0,0,0-2.636-2.284c-1.922-.035-3.846-.008-5.769-.009" transform="translate(-65.2 -10.21)" fill="#fdd835"/>
    <path id="Trazado_181573" data-name="Trazado 181573" d="M39.485,25.233v4.6c-1.9.563-2.29,1.065-2.293,3.123-.011,7.378-.035,14.756.024,22.134.01,1.3-.227,1.792-1.677,1.772-6.39-.086-12.781-.034-19.172-.039-1.988,0-2.165-.178-2.166-2.111q-.005-15.822,0-31.643c.005-5.151,2.989-8.139,8.122-8.153,4.52-.012,9.041.026,13.561-.025,1-.011,1.367.231,1.324,1.284-.081,1.971.028,3.95-.039,5.922-.058,1.706.577,2.8,2.312,3.14" transform="translate(-9.751 -10.224)" fill="#26ccda"/>
    <path id="Trazado_181574" data-name="Trazado 181574" d="M413.433,29.842q0-2.3,0-4.6c1.734-.337,2.368-1.434,2.312-3.139-.067-2.024.026-4.053-.034-6.077-.027-.908.3-1.134,1.161-1.125,4.727.051,9.455-.011,14.18.08a7.3,7.3,0,0,1,7.605,7.7c.044,10.753,0,21.507.032,32.26,0,1.355-.508,1.825-1.842,1.822-6.544-.014-13.089,0-19.631.1-1.32.02-1.516-.469-1.509-1.616.043-7.428.028-14.857.017-22.286,0-2.057-.4-2.56-2.293-3.122" transform="translate(-283.944 -10.236)" fill="#26ccda"/>
    <path id="Trazado_181575" data-name="Trazado 181575" d="M197.225,117.417H102.419c-.46-5.012-.46-5.012,4.45-5.012q44.356,0,88.712-.035c1.439,0,1.921.374,1.753,1.785-.128,1.076-.079,2.174-.109,3.262" transform="translate(-70.21 -77.176)" fill="#b1f9ff"/>
    <path id="Trazado_181576" data-name="Trazado 181576" d="M48.458,180.2c.415.562.2,1.207.205,1.809q.02,29.145,0,58.29c0,.588.342,1.541-.271,1.706a7.633,7.633,0,0,1-3.076.03c-.506-.08-.271-.814-.272-1.251q-.022-8.416-.009-16.833,0-20.963,0-41.925c0-.618.073-1.236.111-1.853l3.311.027" transform="translate(-30.897 -123.743)" fill="#fdd835"/>
    <path id="Trazado_181577" data-name="Trazado 181577" d="M455.03,180.171c.039.566.111,1.132.112,1.7q.009,29.222-.009,58.444c0,.586.345,1.538-.276,1.7a7.077,7.077,0,0,1-3.072,0c-.532-.106-.261-.92-.262-1.409q-.024-11.22-.011-22.442,0-18.079.012-36.158c0-.6-.225-1.247.219-1.8l3.288-.031" transform="translate(-310.057 -123.741)" fill="#fdd835"/>
    <path id="Trazado_181578" data-name="Trazado 181578" d="M436.73,398.469c-2.752,0-5.505-.033-8.257.019-.892.017-1.165-.255-1.134-1.145a4.136,4.136,0,0,1,3.873-4.118c3.737-.07,7.477-.04,11.213.056a4.093,4.093,0,0,1,3.745,4.064c.047.827-.2,1.094-1.029,1.082-2.8-.039-5.607-.015-8.411-.015v.057" transform="translate(-293.493 -270.038)" fill="#f57c00"/>
    <path id="Trazado_181579" data-name="Trazado 181579" d="M30.216,398.477c-2.75,0-5.5-.045-8.25.022-1.1.027-1.311-.409-1.216-1.386a4.123,4.123,0,0,1,3.927-3.891c3.682-.056,7.367-.007,11.05.053a3.875,3.875,0,0,1,3.411,2.346c1.028,1.931.511,2.8-1.607,2.8H30.216v.057" transform="translate(-14.237 -270.046)" fill="#f57c00"/>
    <path id="Trazado_181580" data-name="Trazado 181580" d="M362.616,250.137c0-2.844,0-5.791,0-8.739,0-.538-.036-1.036.759-1.031,3.031.021,6.061.008,9.032.008l-9.789,9.761" transform="translate(-249.041 -165.083)" fill="#b1f9ff"/>
    <path id="Trazado_181581" data-name="Trazado 181581" d="M48.651,169.139l-3.311-.027c-.019-1.344-.011-2.689-.069-4.031-.03-.7.135-1.074.925-1.005.616.054,1.241.019,1.861.014.5,0,.786.194.752.733a23.638,23.638,0,0,1-.159,4.316" transform="translate(-31.09 -112.681)" fill="#fdd835"/>
    <path id="Trazado_181582" data-name="Trazado 181582" d="M455.228,169.111l-3.288.031c-.381-1.425-.076-2.876-.171-4.311-.035-.531.238-.745.744-.741.62.005,1.244.039,1.86-.015.792-.068.952.31.923,1.007-.058,1.342-.05,2.686-.069,4.029" transform="translate(-310.254 -112.68)" fill="#fdd835"/>
    <path id="Trazado_181583" data-name="Trazado 181583" d="M205.69,159.416c-1.516,1.48-2.731,2.641-3.916,3.833a2.691,2.691,0,0,1-2.8.91,2.23,2.23,0,0,1-1-3.649c1.567-1.729,3.267-3.344,4.991-4.921.863-.789,5.383-.772,6.33-.122a2.6,2.6,0,0,1,1.063,2.306c.013,4.574.033,9.148-.006,13.722-.016,1.9-.875,2.76-2.8,2.764q-16.685.036-33.369,0c-2.01,0-2.795-.848-2.8-2.887q-.019-13.566,0-27.132c0-2,.85-2.828,2.859-2.838q6.237-.03,12.475,0c2.087.008,2.947.826,2.975,2.914.042,3.118.052,6.238-.011,9.355-.021,1.058.236,1.5,1.368,1.409a34.089,34.089,0,0,1,3.74-.01,2.319,2.319,0,1,1,.174,4.63,38.556,38.556,0,0,1-4.208.024c-.8-.029-1.087.19-1.071,1.034q.077,3.9,0,7.8c-.015.835.272,1.051,1.073,1.045,4.626-.032,9.252-.015,13.878-.016.518,0,1.057.08,1.051-.739-.02-2.988-.008-5.976-.008-9.428m-29.624-1.643c0,3.583.018,7.166-.014,10.749-.007.767.153,1.1,1.015,1.082q3.425-.085,6.854,0c.918.023,1.141-.322,1.125-1.178q-.069-3.815,0-7.633c.014-.808-.232-1.1-1.056-1.069a41.4,41.4,0,0,1-4.514-.038,2.227,2.227,0,0,1-2.237-2.468,2.188,2.188,0,0,1,2.388-2.146c1.454-.021,2.909-.054,4.361,0,.839.032,1.07-.288,1.056-1.081-.039-2.284-.059-4.571.008-6.853.028-.959-.375-1.094-1.189-1.078-2.232.044-4.466.056-6.7,0-.885-.024-1.131.243-1.119,1.123.048,3.53.02,7.062.02,10.593" transform="translate(-117.703 -97.106)" fill="#020303"/>
    <path id="Trazado_181584" data-name="Trazado 181584" d="M311.72,174.384c-.779,0-1.558.017-2.336,0a2.149,2.149,0,0,1-2.191-1.843,2.008,2.008,0,0,1,1.335-2.5c.967-.311.966-.864.965-1.624q-.016-13.791.005-27.582c0-.8-.086-1.282-1.019-1.579a1.989,1.989,0,0,1-1.31-2.383,2.12,2.12,0,0,1,1.963-1.911,27.673,27.673,0,0,1,5.283-.007,2.09,2.09,0,0,1,2,1.861,2.028,2.028,0,0,1-1.381,2.481c-.834.255-.867.693-.867,1.353q.012,14.025-.007,28.05a1.167,1.167,0,0,0,.921,1.333,2.053,2.053,0,0,1,1.324,2.52,2.135,2.135,0,0,1-2.189,1.832c-.829.034-1.661.007-2.492.006" transform="translate(-210.933 -92.598)" fill="#020303"/>
    <path id="Trazado_181585" data-name="Trazado 181585" d="M131.727,47.313a6.616,6.616,0,1,1,6.571-6.588,6.713,6.713,0,0,1-6.571,6.588m-.083-4.772a1.841,1.841,0,1,0,.016-3.682,1.7,1.7,0,0,0-1.813,1.739,1.754,1.754,0,0,0,1.8,1.943" transform="translate(-85.882 -23.407)" fill="#020303"/>
    <path id="Trazado_181586" data-name="Trazado 181586" d="M190.366,47.76c1.923,0,3.846-.026,5.769.009a2.391,2.391,0,0,1,2.636,2.284,2.357,2.357,0,0,1-2.555,2.371q-5.768.066-11.537,0a2.307,2.307,0,0,1-2.527-2.368,2.341,2.341,0,0,1,2.6-2.288c1.87-.035,3.742-.008,5.613-.008" transform="translate(-125.1 -32.794)" fill="#020303"/>
    <path id="Trazado_181587" data-name="Trazado 181587" d="M186.294,168.006c0-3.531.028-7.062-.02-10.593-.012-.879.234-1.147,1.119-1.123,2.231.06,4.466.049,6.7,0,.814-.016,1.216.12,1.188,1.078-.067,2.283-.047,4.569-.008,6.853.013.794-.218,1.113-1.057,1.081-1.451-.056-2.907-.023-4.361,0a2.188,2.188,0,0,0-2.388,2.146,2.227,2.227,0,0,0,2.237,2.468,41.4,41.4,0,0,0,4.514.038c.824-.026,1.07.261,1.057,1.069q-.064,3.815,0,7.632c.015.856-.207,1.2-1.125,1.178q-3.425-.085-6.854,0c-.862.021-1.022-.315-1.015-1.082.032-3.582.014-7.166.014-10.749" transform="translate(-127.932 -107.339)" fill="#b1f9ff"/>
    <path id="Trazado_181588" data-name="Trazado 181588" d="M142.163,53.019a1.754,1.754,0,0,1-1.8-1.943,1.7,1.7,0,0,1,1.813-1.739,1.841,1.841,0,1,1-.016,3.682" transform="translate(-96.402 -33.884)" fill="#9ab7d0"/>
  </g>
</svg>
