<svg id="Grupo_120367" data-name="Grupo 120367" xmlns="http://www.w3.org/2000/svg" xmlns:xlink="http://www.w3.org/1999/xlink" width="99.984" height="100" viewBox="0 0 99.984 100">
  <defs>
    <clipPath id="clip-path">
      <rect id="Rectángulo_37388" data-name="Rectángulo 37388" width="99.984" height="100" fill="none"/>
    </clipPath>
  </defs>
  <g id="Grupo_120366" data-name="Grupo 120366" clip-path="url(#clip-path)">
    <path id="Trazado_181417" data-name="Trazado 181417" d="M.017,99.007Q.017,49.933,0,.858C0,.178.111,0,.838,0Q35.377.038,69.915.021a2.457,2.457,0,0,1,.992,2.246q-.04,19.619-.018,39.238c0,.553.02,1.107-.007,1.659-.019.382.1.517.492.648a3.433,3.433,0,0,1,2.6,3.563c.01.533.114.723.688.714,2.179-.034,4.36-.042,6.539,0,.649.014.715-.229.735-.785a3.425,3.425,0,0,1,3.709-3.615c.423-.009.846,0,1.269,0,2.708.011,3.908,1.129,4.071,3.847.025.422.124.561.552.547.878-.028,1.758-.033,2.635,0a5.757,5.757,0,0,1,5.81,6.021q0,19.911,0,39.823a7.367,7.367,0,0,1-.106,1.454c-.581,2.857-2.955,4.6-6.252,4.6q-45.73,0-91.46.017a2.367,2.367,0,0,1-2.143-.993M69.911,62.526a1.2,1.2,0,0,0-.193-.03c-8.719,0-17.439.006-26.158-.023-.724,0-.669.356-.669.833q.007,15.323.007,30.647a2.66,2.66,0,0,0,2.906,2.9c1.073.019,2.147.005,3.221,0l20.886-.033,24.2.028a2.535,2.535,0,0,0,.292-.015A2.6,2.6,0,0,0,96.857,94.1q.006-15.417.018-30.833c0-.664-.207-.789-.817-.785-4.326.025-8.652.009-12.978.015q-6.585.009-13.17.034M35.741,3.177a1.287,1.287,0,0,0-.193-.028c-10.574,0-21.149.008-31.723-.026-.831,0-.683.435-.683.906q0,45.973-.017,91.946c0,.723.16.908.9.9,5.694-.035,11.388-.015,17.082-.021q7.319-.007,14.639-.031h4.594a5.653,5.653,0,0,1-.557-2.5q0-20.295.009-40.59a5.5,5.5,0,0,1,4.139-5.384,8.787,8.787,0,0,1,3.094-.263c.67.042.867-.139.873-.84A3.4,3.4,0,0,1,51.371,43.7c.584-.023,1.171-.016,1.756-.009,2.416.031,3.721,1.266,3.825,3.706.025.574.206.692.731.686,2.146-.025,4.294-.029,6.44,0,.568.008.782-.1.783-.733a3.328,3.328,0,0,1,2.349-3.441c.573-.194.514-.553.514-.966q0-19.466.019-38.931c0-.761-.223-.889-.921-.885-5.5.029-10.993.012-16.49.017q-7.317.007-14.634.031M69.792,59.361v-.02h1.17c8.325,0,16.65-.009,24.975.016.711,0,.95-.141.917-.894-.066-1.525-.009-3.056-.023-4.584a2.471,2.471,0,0,0-2.008-2.52,8.8,8.8,0,0,0-2.232-.129c-1.568-.011-1.568,0-1.571,1.576,0,2.628-1.395,4.017-4.028,4.026-4.05.013-4.967-.853-5.109-4.907-.019-.557-.178-.721-.729-.71-1.691.032-3.382.011-5.073.011-2.016,0-2.016,0-2.064,1.969a3.511,3.511,0,0,1-3.17,3.592,12.98,12.98,0,0,1-2.918-.048,3.443,3.443,0,0,1-3.044-3.392,7.807,7.807,0,0,1,0-1.364c.081-.679-.223-.805-.831-.793-1.723.036-3.447.013-5.17.013-1.873,0-1.873,0-1.912,1.837a3.559,3.559,0,0,1-3.813,3.764c-.585.008-1.172.019-1.756,0a3.53,3.53,0,0,1-3.543-3.631c-.044-2.088-.044-2.088-2.162-1.96-.13.008-.26.016-.388.036a2.553,2.553,0,0,0-2.408,2.779c-.014,1.528.023,3.058-.016,4.585-.015.591.145.767.755.766q13.073-.031,26.146-.014m15.346-9.088c0,.876.022,1.753-.008,2.628-.018.512.187.683.68.693.514.009.672-.195.666-.693-.022-1.785-.026-3.57,0-5.354.008-.516-.163-.671-.665-.67s-.7.155-.683.67c.029.908.008,1.817.008,2.725m-15.665-.057c0-.875-.021-1.752.008-2.626.017-.489-.118-.7-.649-.685-.455.016-.736.079-.731.628.018,1.816.015,3.631,0,5.447,0,.573.349.594.771.609.474.017.617-.2.607-.65-.021-.907-.006-1.815-.006-2.723m-17.111.023c0-.841,0-1.682,0-2.523,0-.43.062-.817-.61-.818-.691,0-.7.372-.691.868q.018,2.474,0,4.949c0,.462.015.814.64.828s.678-.3.666-.781c-.021-.84-.006-1.682-.006-2.523" transform="translate(0 0)" fill="#010101"/>
    <path id="Trazado_181418" data-name="Trazado 181418" d="M44.589,105.672q-7.319.016-14.639.031c-5.694.005-11.388-.014-17.082.02-.736,0-.9-.181-.9-.9Q12,58.847,11.99,12.874c0-.471-.148-.909.683-.906,10.574.034,21.149.024,31.723.026a1.326,1.326,0,0,1,.193.028v93.65m-6.408-80.96L38.151,21.6c1.129-.314,1.656-.921,1.546-1.782-.113-.884-.786-1.379-1.923-1.38q-8.678-.006-17.357,0c-1.408,0-1.97.548-1.972,1.93q-.009,8.044,0,16.089c0,1.316.582,1.883,1.92,1.884q8.727.009,17.455,0c1.324,0,1.883-.576,1.89-1.911a49.526,49.526,0,0,0-.034-5.359c-.247-2.386.286-4.255,2.4-5.628a1.49,1.49,0,0,0,.348-2.363c-.661-.744-1.548-.7-2.479.118-.583.51-1.177,1.008-1.766,1.511M38.168,55.2l-.011-3.157c1.121-.3,1.655-.915,1.539-1.78-.118-.882-.789-1.369-1.932-1.37q-8.679-.005-17.358,0c-1.4,0-1.961.553-1.962,1.939q-.009,8,0,15.992c0,1.4.555,1.964,1.938,1.966q8.679.009,17.358,0c1.432,0,1.967-.558,1.971-2.029a50.829,50.829,0,0,0-.035-5.359c-.241-2.325.274-4.186,2.366-5.432a.819.819,0,0,0,.146-.129,1.572,1.572,0,1,0-2.113-2.3c-.642.546-1.271,1.107-1.906,1.661m-.013,27.3c1.125-.3,1.657-.92,1.54-1.784-.119-.884-.789-1.367-1.935-1.367q-8.689-.005-17.377,0c-1.387,0-1.939.56-1.941,1.963q-.007,8,0,16.009c0,1.338.57,1.921,1.886,1.923q8.737.012,17.474,0c1.332,0,1.9-.574,1.9-1.9a49.437,49.437,0,0,0-.034-5.365c-.248-2.391.246-4.329,2.427-5.6a.387.387,0,0,0,.072-.065,1.573,1.573,0,1,0-2.094-2.323c-.642.546-1.273,1.105-1.909,1.659q-.008-1.572-.017-3.144" transform="translate(-8.849 -8.845)" fill="#fff3bf"/>
    <path id="Trazado_181419" data-name="Trazado 181419" d="M136.974,105.688V12.038q7.317-.016,14.634-.031c5.5-.005,10.993.012,16.49-.017.7,0,.923.124.921.885Q168.978,32.34,169,51.806c0,.414.059.772-.513.966a3.328,3.328,0,0,0-2.349,3.441c0,.634-.215.742-.783.734-2.146-.031-4.293-.027-6.44,0-.526.006-.707-.112-.731-.686-.1-2.439-1.408-3.675-3.825-3.706-.585-.008-1.171-.014-1.756.009a3.4,3.4,0,0,0-3.477,3.546c-.006.7-.2.882-.873.84a8.78,8.78,0,0,0-3.094.264A5.5,5.5,0,0,0,141.02,62.6q-.03,20.295-.009,40.59a5.652,5.652,0,0,0,.557,2.5ZM152.6,21.579q4.926,0,9.852,0c1.241,0,1.935-.563,1.943-1.545s-.7-1.574-1.919-1.575q-9.755-.007-19.509,0c-1.243,0-1.931.562-1.938,1.551s.673,1.567,1.914,1.569q4.829.009,9.657,0m.2,5.264q-4.926,0-9.852,0c-1.238,0-1.924.571-1.92,1.566s.689,1.554,1.932,1.554q9.755.005,19.509,0c1.229,0,1.929-.581,1.925-1.566s-.7-1.553-1.936-1.555q-4.829-.007-9.657,0" transform="translate(-101.233 -8.861)" fill="#fff3bf"/>
    <path id="Trazado_181420" data-name="Trazado 181420" d="M267.928,239.487q6.585-.018,13.17-.034c4.326-.006,8.652.01,12.978-.015.611,0,.819.121.818.785q-.034,15.417-.018,30.833a2.6,2.6,0,0,1-2.458,2.745,2.424,2.424,0,0,1-.292.015l-24.2-.028q0-2.347.01-4.694c1.165-.022,2.33-.042,3.5-.068,1.338-.03,1.883-.558,1.892-1.907q.026-3.65,0-7.3c-.01-1.34-.563-1.884-1.894-1.92-1.165-.031-2.331-.043-3.5-.063l0-2.408c1.165-.023,2.33-.039,3.5-.069,1.335-.035,1.883-.57,1.892-1.913q.026-3.65,0-7.3c-.01-1.345-.561-1.883-1.894-1.914-1.166-.027-2.331-.041-3.5-.062l-.006-4.682m9.334,10.221c0,1.3-.014,2.6,0,3.9.016,1.141.526,1.722,1.638,1.738q3.9.054,7.792,0a1.537,1.537,0,0,0,1.689-1.713q.041-3.847,0-7.695a1.52,1.52,0,0,0-1.615-1.691q-3.944-.056-7.889,0a1.491,1.491,0,0,0-1.613,1.666c-.024,1.266-.006,2.532-.006,3.8m0,13.707c0,1.3-.016,2.6,0,3.9a1.509,1.509,0,0,0,1.668,1.706q3.847.04,7.695,0a1.559,1.559,0,0,0,1.757-1.745q.039-3.8,0-7.6a1.572,1.572,0,0,0-1.746-1.768q-3.847-.049-7.695,0c-1.161.017-1.667.6-1.681,1.8-.015,1.234,0,2.468,0,3.7" transform="translate(-198.018 -176.962)" fill="#f6f6f6"/>
    <path id="Trazado_181421" data-name="Trazado 181421" d="M191.392,239.475l.006,4.682q-1.9.031-3.8.062c-1.42.025-1.929.527-1.935,1.957q-.016,3.61,0,7.219c.007,1.424.514,1.922,1.94,1.952,1.265.026,2.53.046,3.8.069l0,2.408c-1.3.021-2.6.029-3.895.065s-1.828.564-1.836,1.864q-.023,3.707,0,7.415c.008,1.3.54,1.817,1.84,1.846s2.6.046,3.893.069q0,2.347-.01,4.694l-20.886.033c-1.074,0-2.147.015-3.221,0a2.66,2.66,0,0,1-2.907-2.9q-.009-15.323-.007-30.647c0-.477-.055-.835.669-.832,8.719.029,17.439.02,26.158.023a1.229,1.229,0,0,1,.193.03m-20.51,10.27c0,1.267-.01,2.533,0,3.8.012,1.19.528,1.775,1.693,1.789q3.847.048,7.7,0a1.56,1.56,0,0,0,1.735-1.764q.026-3.8,0-7.6a1.539,1.539,0,0,0-1.66-1.74q-3.9-.05-7.793,0a1.524,1.524,0,0,0-1.669,1.716c-.018,1.266,0,2.533,0,3.8m0,13.718c0,1.267-.012,2.533,0,3.8a1.54,1.54,0,0,0,1.735,1.744q3.8.033,7.6,0a1.578,1.578,0,0,0,1.79-1.8q.022-3.75,0-7.5c-.007-1.172-.553-1.784-1.7-1.8q-3.847-.056-7.7,0a1.551,1.551,0,0,0-1.724,1.766c-.015,1.266,0,2.533,0,3.8" transform="translate(-121.482 -176.95)" fill="#f6f6f6"/>
    <path id="Trazado_181422" data-name="Trazado 181422" d="M191.276,204.279q-13.073,0-26.146.014c-.611,0-.771-.175-.755-.766.039-1.527,0-3.057.016-4.585a2.553,2.553,0,0,1,2.407-2.779c.128-.02.259-.029.388-.037,2.118-.127,2.118-.127,2.162,1.96a3.53,3.53,0,0,0,3.543,3.631c.584.024,1.171.013,1.756.005a3.559,3.559,0,0,0,3.813-3.764c.038-1.837.038-1.837,1.911-1.837,1.723,0,3.447.023,5.17-.013.607-.013.911.114.831.793a7.809,7.809,0,0,0,0,1.364,3.443,3.443,0,0,0,3.044,3.392,12.978,12.978,0,0,0,2.918.048,3.511,3.511,0,0,0,3.17-3.592c.048-1.969.048-1.969,2.064-1.969,1.691,0,3.382.02,5.073-.012.55-.01.709.153.729.71.141,4.054,1.058,4.92,5.109,4.907,2.634-.009,4.024-1.4,4.029-4.026,0-1.579,0-1.587,1.57-1.576a8.816,8.816,0,0,1,2.232.13,2.471,2.471,0,0,1,2.008,2.519c.014,1.528-.043,3.059.023,4.584.033.753-.206.9-.917.894-8.325-.026-16.65-.017-24.975-.017h-1.17Z" transform="translate(-121.483 -144.918)" fill="#ffa726"/>
    <path id="Trazado_181423" data-name="Trazado 181423" d="M326.262,183.05c0-.909.021-1.818-.008-2.725-.016-.515.187-.669.683-.67s.673.154.665.67c-.028,1.784-.024,3.569,0,5.353.006.5-.152.7-.666.693-.493-.009-.7-.181-.68-.693.03-.875.008-1.752.008-2.628" transform="translate(-241.124 -132.777)" fill="#c3cacd"/>
    <path id="Trazado_181424" data-name="Trazado 181424" d="M262.366,183.068c0,.908-.015,1.816.006,2.723.01.445-.133.666-.607.649-.421-.015-.775-.035-.771-.609.014-1.816.017-3.631,0-5.447-.005-.549.276-.611.731-.628.532-.02.666.2.649.685-.029.874-.008,1.751-.008,2.626" transform="translate(-192.893 -132.853)" fill="#c3cacd"/>
    <path id="Trazado_181425" data-name="Trazado 181425" d="M196.991,183.078c0,.841-.015,1.682.006,2.523.013.484-.051.8-.666.781s-.643-.366-.64-.828q.017-2.474,0-4.949c0-.5,0-.869.691-.868.672,0,.613.388.61.818-.006.841,0,1.682,0,2.523" transform="translate(-144.629 -132.839)" fill="#c3cacd"/>
    <path id="Trazado_181426" data-name="Trazado 181426" d="M56.488,276.514c.636-.553,1.266-1.113,1.909-1.659a1.573,1.573,0,1,1,2.094,2.323.414.414,0,0,1-.072.065c-2.182,1.276-2.676,3.214-2.427,5.6a49.5,49.5,0,0,1,.034,5.365c-.008,1.329-.573,1.9-1.9,1.9q-8.737.011-17.474,0c-1.317,0-1.885-.585-1.887-1.923q-.009-8,0-16.009c0-1.4.553-1.962,1.94-1.964q8.688-.007,17.377,0c1.147,0,1.816.484,1.936,1.368.117.864-.415,1.48-1.54,1.784l-8.993.008c-2.336-.012-4.672-.014-7.008-.046-.47-.007-.6.14-.6.6q.024,6.231,0,12.463c0,.463.129.611.6.6,2.336-.033,4.672-.034,7.008-.046,2.272.012,4.545.028,6.817.031.225,0,.59.135.6-.279.017-1.433.007-2.867.007-4.457-1.006.911-1.839,1.685-2.693,2.434a1.607,1.607,0,0,1-2.555-.063,20.642,20.642,0,0,0-2.172-2.06c-.319-.356-.614-.737-.961-1.063a1.664,1.664,0,0,1-.588-1.819,1.611,1.611,0,0,1,1.55-1.107,2.331,2.331,0,0,1,1.242.713c.61.629,1.252,1.226,1.85,1.865.3.321.5.384.856.046,1.671-1.578,3.371-3.126,5.061-4.684" transform="translate(-27.165 -199.709)" fill="#010101"/>
    <path id="Trazado_181427" data-name="Trazado 181427" d="M56.484,159.8c.635-.554,1.264-1.114,1.906-1.661a1.572,1.572,0,1,1,2.113,2.3.818.818,0,0,1-.146.129c-2.092,1.245-2.607,3.107-2.366,5.431a50.834,50.834,0,0,1,.035,5.36c0,1.47-.539,2.028-1.971,2.029q-8.679.007-17.358,0c-1.382,0-1.936-.565-1.938-1.965q-.008-8,0-15.993c0-1.386.563-1.937,1.962-1.939q8.679-.007,17.358,0c1.142,0,1.813.488,1.932,1.37.116.864-.418,1.482-1.539,1.78l-8.99.013H40.071c-.139-.038-.19.013-.152.152v13.272q-.057.209.152.152h7.415q3.456.021,6.913.04c.213,0,.5.061.5-.287.007-1.434,0-2.867,0-4.463-1.031.938-1.882,1.739-2.763,2.506a1.566,1.566,0,0,1-2.41-.059c-.753-.708-1.494-1.43-2.24-2.146-.33-.353-.643-.724-.994-1.054a1.653,1.653,0,0,1-.568-1.827,1.605,1.605,0,0,1,1.561-1.093,2.573,2.573,0,0,1,1.306.793c.582.609,1.2,1.18,1.778,1.8.3.323.5.382.857.045,1.67-1.577,3.368-3.124,5.056-4.683" transform="translate(-27.165 -113.439)" fill="#010101"/>
    <path id="Trazado_181428" data-name="Trazado 181428" d="M56.5,43.038c.589-.5,1.183-1,1.766-1.511.932-.816,1.818-.862,2.479-.118a1.49,1.49,0,0,1-.348,2.363c-2.117,1.373-2.651,3.242-2.4,5.628a49.591,49.591,0,0,1,.034,5.359c-.007,1.335-.567,1.909-1.89,1.911q-8.727.011-17.455,0c-1.338,0-1.918-.568-1.92-1.884q-.012-8.044,0-16.089c0-1.382.564-1.929,1.972-1.93q8.679-.007,17.357,0c1.137,0,1.81.5,1.923,1.38.11.861-.416,1.468-1.546,1.782q-7.954-.022-15.908-.05c-.46,0-.7.053-.695.616.023,4.164.017,8.329.006,12.493,0,.4.085.575.534.573q6.978-.031,13.957-.023c.344,0,.541-.052.535-.47-.021-1.346-.008-2.693-.008-4.221-1.016.92-1.865,1.715-2.742,2.477a1.579,1.579,0,0,1-2.419-.055q-1.7-1.657-3.349-3.374a1.549,1.549,0,0,1-.076-2.261,1.517,1.517,0,0,1,2.256.038c.69.643,1.353,1.315,2,2,.29.3.484.417.857.065,1.676-1.584,3.383-3.134,5.079-4.7" transform="translate(-27.163 -27.171)" fill="#010101"/>
    <path id="Trazado_181429" data-name="Trazado 181429" d="M65.3,51.861c-1.7,1.562-3.4,3.113-5.079,4.7-.372.352-.566.239-.857-.065-.651-.682-1.315-1.354-2-2a1.517,1.517,0,0,0-2.256-.038,1.549,1.549,0,0,0,.076,2.261q1.648,1.712,3.349,3.374a1.579,1.579,0,0,0,2.419.055c.877-.763,1.727-1.557,2.742-2.477,0,1.528-.013,2.875.008,4.221.006.418-.191.47-.535.47q-6.979,0-13.957.023c-.449,0-.535-.172-.534-.573.011-4.164.017-8.329-.006-12.493,0-.564.235-.619.695-.616q7.954.038,15.908.05l.031,3.109" transform="translate(-35.97 -35.994)" fill="#26ccda"/>
    <path id="Trazado_181430" data-name="Trazado 181430" d="M77.87,165.584l8.989-.013q.005,1.578.011,3.157c-1.688,1.558-3.386,3.106-5.056,4.683-.356.336-.557.278-.857-.045-.574-.617-1.2-1.188-1.778-1.8a2.57,2.57,0,0,0-1.306-.793q0-2.6,0-5.191" transform="translate(-57.551 -122.369)" fill="#26ccda"/>
    <path id="Trazado_181431" data-name="Trazado 181431" d="M86.862,285.448c-1.69,1.559-3.39,3.106-5.061,4.684-.358.338-.556.275-.856-.046-.6-.639-1.24-1.236-1.85-1.865a2.331,2.331,0,0,0-1.242-.713q0-2.6,0-5.2l8.993-.008q.008,1.572.017,3.144" transform="translate(-57.538 -208.642)" fill="#26ccda"/>
    <path id="Trazado_181432" data-name="Trazado 181432" d="M164.069,39.891q-4.829,0-9.657,0c-1.24,0-1.921-.571-1.914-1.569s.7-1.55,1.938-1.551q9.755-.005,19.509,0c1.222,0,1.927.593,1.919,1.575s-.7,1.543-1.943,1.545q-4.926.007-9.852,0" transform="translate(-112.707 -27.173)" fill="#010101"/>
    <path id="Trazado_181433" data-name="Trazado 181433" d="M164.268,68.914q4.829,0,9.657,0c1.234,0,1.933.573,1.936,1.555s-.7,1.565-1.925,1.566q-9.755.005-19.509,0c-1.243,0-1.928-.562-1.932-1.554s.683-1.565,1.92-1.566q4.926-.008,9.852,0" transform="translate(-112.705 -50.931)" fill="#010101"/>
    <path id="Trazado_181434" data-name="Trazado 181434" d="M251.695,268.826c-1.265-.023-2.53-.042-3.8-.069-1.426-.03-1.933-.528-1.94-1.952q-.017-3.609,0-7.219c.007-1.43.516-1.932,1.935-1.957q1.9-.034,3.8-.062c1.166.02,2.331.035,3.5.062,1.333.031,1.884.569,1.894,1.914q.026,3.65,0,7.3c-.009,1.343-.557,1.878-1.892,1.913-1.165.03-2.33.047-3.5.069m-2.621-5.618c0,.617.014,1.235,0,1.851-.013.4.107.6.547.589,1.266-.027,2.533-.039,3.8-.03.448,0,.54-.206.535-.6q-.023-1.851,0-3.7c.005-.423-.163-.573-.576-.568-.844.01-1.688-.018-2.532-.023-1.767-.011-1.767-.009-1.767,1.8q0,.341,0,.682" transform="translate(-181.775 -190.36)" fill="#010101"/>
    <path id="Trazado_181435" data-name="Trazado 181435" d="M251.691,321.2c-1.3-.023-2.6-.041-3.893-.069s-1.832-.544-1.84-1.846q-.024-3.707,0-7.415c.008-1.3.535-1.827,1.836-1.864s2.6-.045,3.895-.065c1.166.02,2.332.032,3.5.063,1.331.036,1.884.58,1.894,1.92q.026,3.65,0,7.3c-.01,1.35-.554,1.877-1.892,1.907-1.165.026-2.33.045-3.5.068m.041-3.192c.612-.113,1.652.372,2.071-.2.377-.517.155-1.5.126-2.272s.347-1.72-.174-2.243c-.44-.442-1.362-.113-2.069-.139-2.617-.1-2.617-.092-2.617,2.474,0,2.487,0,2.487,2.663,2.383" transform="translate(-181.771 -229.07)" fill="#010101"/>
    <path id="Trazado_181436" data-name="Trazado 181436" d="M303.682,263.247c0-1.266-.018-2.533.006-3.8a1.491,1.491,0,0,1,1.613-1.666q3.944-.05,7.889,0a1.52,1.52,0,0,1,1.614,1.691q.043,3.847,0,7.695a1.537,1.537,0,0,1-1.689,1.713q-3.9.048-7.792,0c-1.112-.015-1.621-.6-1.638-1.737-.019-1.3,0-2.6,0-3.9m5.551-2.364v-.017c-.583,0-1.167.022-1.748-.007-.473-.023-.713.089-.7.634.032,1.23.027,2.462,0,3.692-.01.475.17.616.623.6,1.23-.031,2.461-.046,3.692-.03.5.007.595-.217.577-.648-.026-.647.02-1.3-.014-1.943-.038-.73.329-1.657-.171-2.138-.456-.438-1.363-.085-2.068-.139-.065,0-.129-.006-.194-.009" transform="translate(-224.437 -190.501)" fill="#010101"/>
    <path id="Trazado_181437" data-name="Trazado 181437" d="M303.684,315.661c0-1.234-.012-2.468,0-3.7.015-1.2.52-1.786,1.681-1.8q3.847-.056,7.695,0a1.572,1.572,0,0,1,1.746,1.768q.037,3.8,0,7.6a1.559,1.559,0,0,1-1.757,1.745q-3.847.034-7.695,0a1.509,1.509,0,0,1-1.668-1.706c-.021-1.3,0-2.6-.005-3.9m8.026.1c-.036-.808.209-1.8-.181-2.29-.423-.529-1.461-.143-2.229-.179-2.5-.118-2.5-.1-2.5,2.377,0,2.578,0,2.587,2.59,2.481.737-.03,1.758.333,2.133-.169s.153-1.483.189-2.219" transform="translate(-224.44 -229.208)" fill="#010101"/>
    <path id="Trazado_181438" data-name="Trazado 181438" d="M189.31,263.3c0-1.266-.014-2.533,0-3.8a1.524,1.524,0,0,1,1.668-1.716q3.9-.044,7.793,0a1.539,1.539,0,0,1,1.66,1.74q.028,3.8,0,7.6a1.559,1.559,0,0,1-1.735,1.764q-3.847.044-7.7,0c-1.165-.015-1.681-.6-1.693-1.789-.013-1.266,0-2.533,0-3.8m3.118.041c0,2.514,0,2.522,2.555,2.419.742-.03,1.715.318,2.164-.144.484-.5.15-1.478.143-2.244-.008-.8.363-1.824-.169-2.322-.409-.383-1.416-.129-2.156-.159-.195-.008-.389-.018-.584-.02-1.953-.024-1.953-.024-1.953,1.886Z" transform="translate(-139.909 -190.504)" fill="#010101"/>
    <path id="Trazado_181439" data-name="Trazado 181439" d="M189.311,315.725c0-1.267-.012-2.533,0-3.8a1.551,1.551,0,0,1,1.724-1.766q3.848-.047,7.7,0c1.15.017,1.7.63,1.7,1.8q.022,3.75,0,7.5a1.578,1.578,0,0,1-1.79,1.8q-3.8.03-7.6,0a1.54,1.54,0,0,1-1.735-1.744c-.016-1.266,0-2.533,0-3.8m3.118.056c.107.675-.388,1.77.193,2.263.554.47,1.618.158,2.454.1.729-.048,1.724.357,2.116-.2.356-.5.131-1.44.1-2.184-.029-.8.355-1.825-.169-2.323-.4-.384-1.416-.129-2.157-.159l-.1-.006c-2.443-.1-2.443-.1-2.443,2.5" transform="translate(-139.911 -229.212)" fill="#010101"/>
    <path id="Trazado_181440" data-name="Trazado 181440" d="M56.3,282.2v5.2a1.611,1.611,0,0,0-1.55,1.107,1.664,1.664,0,0,0,.588,1.819c.347.326.642.707.961,1.063q0,2.2,0,4.395c-2.336.012-4.672.013-7.008.046-.47.007-.6-.141-.6-.6q.024-6.231,0-12.463c0-.464.13-.611.6-.6,2.336.033,4.672.034,7.008.046" transform="translate(-35.989 -208.534)" fill="#26ccda"/>
    <path id="Trazado_181441" data-name="Trazado 181441" d="M77.849,321.051q0-2.2,0-4.394a20.689,20.689,0,0,1,2.172,2.06,1.607,1.607,0,0,0,2.555.063c.854-.749,1.687-1.523,2.693-2.433,0,1.589.011,3.023-.007,4.456-.005.414-.37.28-.6.279-2.272,0-4.545-.019-6.817-.031" transform="translate(-57.536 -233.802)" fill="#26ccda"/>
    <path id="Trazado_181442" data-name="Trazado 181442" d="M56.441,165.616q0,2.6,0,5.191a1.606,1.606,0,0,0-1.561,1.093,1.654,1.654,0,0,0,.569,1.827c.351.33.664.7.994,1.054q0,2.2,0,4.409H49.028l-.152-.152V165.767l.152-.152h7.413" transform="translate(-36.123 -122.401)" fill="#26ccda"/>
    <path id="Trazado_181443" data-name="Trazado 181443" d="M77.876,204.3l0-4.409c.746.716,1.487,1.438,2.24,2.146a1.567,1.567,0,0,0,2.41.059c.881-.767,1.732-1.568,2.764-2.506,0,1.6,0,3.03,0,4.463,0,.348-.286.288-.5.287q-3.456-.015-6.913-.04" transform="translate(-57.556 -147.51)" fill="#26ccda"/>
    <path id="Trazado_181444" data-name="Trazado 181444" d="M49,165.581l-.152.152q-.056-.209.152-.152" transform="translate(-36.09 -122.367)" fill="#c3cacd"/>
    <path id="Trazado_181445" data-name="Trazado 181445" d="M48.843,217.061l.152.152q-.209.056-.152-.152" transform="translate(-36.089 -160.423)" fill="#c3cacd"/>
    <path id="Trazado_181446" data-name="Trazado 181446" d="M257.9,272.152q0-.341,0-.682c0-1.808,0-1.81,1.767-1.8.844,0,1.688.033,2.532.023.413,0,.582.145.576.568q-.024,1.851,0,3.7c0,.391-.087.6-.535.6-1.266-.009-2.533,0-3.8.03-.439.009-.559-.189-.547-.589.019-.616,0-1.234,0-1.851" transform="translate(-190.605 -199.305)" fill="#f57c00"/>
    <path id="Trazado_181447" data-name="Trazado 181447" d="M260.583,326.839c-2.663.1-2.663.1-2.663-2.383,0-2.566,0-2.572,2.617-2.474.708.027,1.63-.3,2.069.139.521.524.146,1.478.174,2.243s.25,1.756-.126,2.272c-.418.574-1.459.089-2.071.2" transform="translate(-190.621 -237.898)" fill="#f57c00"/>
    <path id="Trazado_181448" data-name="Trazado 181448" d="M318.042,269.527c.065,0,.129,0,.194.009.706.054,1.612-.3,2.068.139.5.481.134,1.407.171,2.138.033.646-.012,1.3.014,1.943.017.431-.081.654-.577.648-1.23-.016-2.462,0-3.692.03-.453.011-.633-.129-.623-.6.026-1.23.031-2.462,0-3.692-.014-.544.225-.657.7-.634.581.029,1.165.007,1.748.007v.017" transform="translate(-233.247 -199.145)" fill="#f57c00"/>
    <path id="Trazado_181449" data-name="Trazado 181449" d="M320.547,324.42c-.036.736.194,1.706-.189,2.219s-1.4.139-2.133.169c-2.589.106-2.59.1-2.59-2.481,0-2.481,0-2.495,2.5-2.377.768.036,1.806-.35,2.229.179.39.487.145,1.482.181,2.29" transform="translate(-233.276 -237.868)" fill="#f57c00"/>
    <path id="Trazado_181450" data-name="Trazado 181450" d="M201.272,272.043v-.584c0-1.91,0-1.91,1.953-1.886.195,0,.389.013.584.02.741.029,1.747-.225,2.156.159.532.5.161,1.526.169,2.322.007.766.341,1.747-.143,2.244-.449.461-1.423.114-2.164.144-2.554.1-2.555.1-2.555-2.419" transform="translate(-148.754 -199.207)" fill="#f57c00"/>
    <path id="Trazado_181451" data-name="Trazado 181451" d="M201,324.545c0-2.6,0-2.6,2.443-2.5l.1.006c.741.03,1.752-.225,2.157.159.525.5.14,1.525.169,2.323.027.744.252,1.682-.1,2.184-.392.553-1.387.147-2.116.2-.837.055-1.9.368-2.454-.1-.581-.493-.085-1.588-.193-2.263" transform="translate(-148.484 -237.976)" fill="#f57c00"/>
  </g>
</svg>
