<svg xmlns="http://www.w3.org/2000/svg" xmlns:xlink="http://www.w3.org/1999/xlink" width="1030" height="215.996" viewBox="0 0 1030 215.996">
  <defs>
    <clipPath id="clip-path">
      <rect id="Rectángulo_6044" data-name="Rectángulo 6044" width="80" height="77.434" fill="none"/>
    </clipPath>
    <clipPath id="clip-path-2">
      <rect id="Rectángulo_37461" data-name="Rectángulo 37461" width="49.047" height="80" fill="none"/>
    </clipPath>
    <clipPath id="clip-path-3">
      <rect id="Rectángulo_37462" data-name="Rectángulo 37462" width="75.103" height="80" fill="none"/>
    </clipPath>
  </defs>
  <g id="Grupo_120846" data-name="Grupo 120846" transform="translate(-285.285 -1710.002)">
    <path id="Trazado_182393" data-name="Trazado 182393" d="M0,0H1030V140H0Z" transform="translate(285.285 1785.998)" fill="#fff3bf" opacity="0.502"/>
    <g id="Trazado_182394" data-name="Trazado 182394" transform="translate(-15886.998 -16309)" fill="#fff3bf">
      <path d="M 16445.28515625 18211.5 L 16283.2861328125 18211.5 C 16279.572265625 18211.5 16275.970703125 18210.7734375 16272.58203125 18209.33984375 C 16269.306640625 18207.955078125 16266.3662109375 18205.97265625 16263.83984375 18203.4453125 C 16261.3134765625 18200.919921875 16259.330078125 18197.978515625 16257.9453125 18194.705078125 C 16256.51171875 18191.31640625 16255.78515625 18187.71484375 16255.78515625 18184 L 16255.78515625 18049.001953125 C 16255.78515625 18045.287109375 16256.51171875 18041.685546875 16257.9453125 18038.296875 C 16259.330078125 18035.0234375 16261.3134765625 18032.08203125 16263.83984375 18029.556640625 C 16266.3662109375 18027.029296875 16269.306640625 18025.046875 16272.58203125 18023.662109375 C 16275.970703125 18022.228515625 16279.572265625 18021.501953125 16283.2861328125 18021.501953125 L 16445.28515625 18021.501953125 C 16448.998046875 18021.501953125 16452.599609375 18022.228515625 16455.98828125 18023.662109375 C 16459.263671875 18025.046875 16462.205078125 18027.029296875 16464.73046875 18029.556640625 C 16467.2578125 18032.08203125 16469.2421875 18035.0234375 16470.626953125 18038.298828125 C 16472.060546875 18041.6875 16472.787109375 18045.2890625 16472.787109375 18049.001953125 L 16472.787109375 18094.845703125 L 16472.787109375 18096.4453125 L 16474.23828125 18097.115234375 L 16519.521484375 18118.0390625 L 16474.16796875 18140.76171875 L 16472.787109375 18141.453125 L 16472.787109375 18142.99609375 L 16472.787109375 18184 C 16472.787109375 18187.712890625 16472.060546875 18191.314453125 16470.626953125 18194.703125 C 16469.2421875 18197.978515625 16467.2578125 18200.919921875 16464.73046875 18203.4453125 C 16462.205078125 18205.97265625 16459.263671875 18207.955078125 16455.98828125 18209.33984375 C 16452.599609375 18210.7734375 16448.998046875 18211.5 16445.28515625 18211.5 Z" stroke="none"/>
      <path d="M 16445.28515625 18209 C 16448.662109375 18209 16451.935546875 18208.33984375 16455.013671875 18207.037109375 C 16457.990234375 18205.779296875 16460.666015625 18203.974609375 16462.962890625 18201.677734375 C 16465.26171875 18199.380859375 16467.064453125 18196.70703125 16468.32421875 18193.73046875 C 16469.626953125 18190.650390625 16470.287109375 18187.376953125 16470.287109375 18184 L 16470.287109375 18139.908203125 L 16473.046875 18138.525390625 L 16513.759765625 18118.12890625 L 16470.287109375 18098.04296875 L 16470.287109375 18049.001953125 C 16470.287109375 18045.625 16469.626953125 18042.3515625 16468.32421875 18039.271484375 C 16467.064453125 18036.294921875 16465.26171875 18033.62109375 16462.962890625 18031.32421875 C 16460.666015625 18029.02734375 16457.990234375 18027.22265625 16455.013671875 18025.96484375 C 16451.935546875 18024.662109375 16448.662109375 18024.001953125 16445.28515625 18024.001953125 L 16283.2861328125 18024.001953125 C 16279.908203125 18024.001953125 16276.634765625 18024.662109375 16273.5556640625 18025.96484375 C 16270.5791015625 18027.22265625 16267.904296875 18029.025390625 16265.607421875 18031.32421875 C 16263.3095703125 18033.62109375 16261.5068359375 18036.294921875 16260.248046875 18039.271484375 C 16258.9453125 18042.349609375 16258.28515625 18045.625 16258.28515625 18049.001953125 L 16258.28515625 18184 C 16258.28515625 18187.376953125 16258.9453125 18190.65234375 16260.248046875 18193.73046875 C 16261.5068359375 18196.70703125 16263.3095703125 18199.380859375 16265.607421875 18201.677734375 C 16267.904296875 18203.9765625 16270.5791015625 18205.779296875 16273.5556640625 18207.037109375 C 16276.634765625 18208.33984375 16279.908203125 18209 16283.2861328125 18209 L 16445.28515625 18209 M 16445.28515625 18214 L 16283.2861328125 18214 C 16266.7158203125 18214 16253.28515625 18200.5703125 16253.28515625 18184 L 16253.28515625 18049.001953125 C 16253.28515625 18032.431640625 16266.7158203125 18019.001953125 16283.2861328125 18019.001953125 L 16445.28515625 18019.001953125 C 16461.8515625 18019.001953125 16475.287109375 18032.431640625 16475.287109375 18049.001953125 L 16475.287109375 18094.845703125 L 16525.28515625 18117.947265625 L 16475.287109375 18142.99609375 L 16475.287109375 18184 C 16475.287109375 18200.5703125 16461.8515625 18214 16445.28515625 18214 Z" stroke="none" fill="#fdd835"/>
    </g>
    <g id="Trazado_182395" data-name="Trazado 182395" transform="translate(-15574.846 -16309)" fill="#ffd1a2">
      <path d="M 16445.28515625 18211.5 L 16283.2861328125 18211.5 C 16279.572265625 18211.5 16275.970703125 18210.7734375 16272.58203125 18209.33984375 C 16269.306640625 18207.955078125 16266.3662109375 18205.97265625 16263.83984375 18203.4453125 C 16261.3134765625 18200.919921875 16259.330078125 18197.978515625 16257.9453125 18194.705078125 C 16256.51171875 18191.31640625 16255.78515625 18187.71484375 16255.78515625 18184 L 16255.78515625 18049.001953125 C 16255.78515625 18045.287109375 16256.51171875 18041.685546875 16257.9453125 18038.296875 C 16259.330078125 18035.0234375 16261.3134765625 18032.08203125 16263.83984375 18029.556640625 C 16266.3662109375 18027.029296875 16269.306640625 18025.046875 16272.58203125 18023.662109375 C 16275.970703125 18022.228515625 16279.572265625 18021.501953125 16283.2861328125 18021.501953125 L 16445.28515625 18021.501953125 C 16448.998046875 18021.501953125 16452.599609375 18022.228515625 16455.98828125 18023.662109375 C 16459.263671875 18025.046875 16462.205078125 18027.029296875 16464.73046875 18029.556640625 C 16467.2578125 18032.08203125 16469.2421875 18035.0234375 16470.626953125 18038.298828125 C 16472.060546875 18041.6875 16472.787109375 18045.2890625 16472.787109375 18049.001953125 L 16472.787109375 18094.845703125 L 16472.787109375 18096.4453125 L 16474.23828125 18097.115234375 L 16519.521484375 18118.0390625 L 16474.16796875 18140.76171875 L 16472.787109375 18141.453125 L 16472.787109375 18142.99609375 L 16472.787109375 18184 C 16472.787109375 18187.712890625 16472.060546875 18191.314453125 16470.626953125 18194.703125 C 16469.2421875 18197.978515625 16467.2578125 18200.919921875 16464.73046875 18203.4453125 C 16462.205078125 18205.97265625 16459.263671875 18207.955078125 16455.98828125 18209.33984375 C 16452.599609375 18210.7734375 16448.998046875 18211.5 16445.28515625 18211.5 Z" stroke="none"/>
      <path d="M 16445.28515625 18209 C 16448.662109375 18209 16451.935546875 18208.33984375 16455.013671875 18207.037109375 C 16457.990234375 18205.779296875 16460.666015625 18203.974609375 16462.962890625 18201.677734375 C 16465.26171875 18199.380859375 16467.064453125 18196.70703125 16468.32421875 18193.73046875 C 16469.626953125 18190.650390625 16470.287109375 18187.376953125 16470.287109375 18184 L 16470.287109375 18139.908203125 L 16473.046875 18138.525390625 L 16513.759765625 18118.12890625 L 16470.287109375 18098.04296875 L 16470.287109375 18049.001953125 C 16470.287109375 18045.625 16469.626953125 18042.3515625 16468.32421875 18039.271484375 C 16467.064453125 18036.294921875 16465.26171875 18033.62109375 16462.962890625 18031.32421875 C 16460.666015625 18029.02734375 16457.990234375 18027.22265625 16455.013671875 18025.96484375 C 16451.935546875 18024.662109375 16448.662109375 18024.001953125 16445.28515625 18024.001953125 L 16283.2861328125 18024.001953125 C 16279.908203125 18024.001953125 16276.634765625 18024.662109375 16273.5556640625 18025.96484375 C 16270.5791015625 18027.22265625 16267.904296875 18029.025390625 16265.607421875 18031.32421875 C 16263.3095703125 18033.62109375 16261.5068359375 18036.294921875 16260.248046875 18039.271484375 C 16258.9453125 18042.349609375 16258.28515625 18045.625 16258.28515625 18049.001953125 L 16258.28515625 18184 C 16258.28515625 18187.376953125 16258.9453125 18190.65234375 16260.248046875 18193.73046875 C 16261.5068359375 18196.70703125 16263.3095703125 18199.380859375 16265.607421875 18201.677734375 C 16267.904296875 18203.9765625 16270.5791015625 18205.779296875 16273.5556640625 18207.037109375 C 16276.634765625 18208.33984375 16279.908203125 18209 16283.2861328125 18209 L 16445.28515625 18209 M 16445.28515625 18214 L 16283.2861328125 18214 C 16266.7158203125 18214 16253.28515625 18200.5703125 16253.28515625 18184 L 16253.28515625 18049.001953125 C 16253.28515625 18032.431640625 16266.7158203125 18019.001953125 16283.2861328125 18019.001953125 L 16445.28515625 18019.001953125 C 16461.8515625 18019.001953125 16475.287109375 18032.431640625 16475.287109375 18049.001953125 L 16475.287109375 18094.845703125 L 16525.28515625 18117.947265625 L 16475.287109375 18142.99609375 L 16475.287109375 18184 C 16475.287109375 18200.5703125 16461.8515625 18214 16445.28515625 18214 Z" stroke="none" fill="#f57c00"/>
    </g>
    <g id="Trazado_182396" data-name="Trazado 182396" transform="translate(-15267.928 -16309)" fill="#b1f9ff">
      <path d="M 16445.28515625 18211.5 L 16283.2861328125 18211.5 C 16279.572265625 18211.5 16275.970703125 18210.7734375 16272.58203125 18209.33984375 C 16269.306640625 18207.955078125 16266.3662109375 18205.97265625 16263.83984375 18203.4453125 C 16261.3134765625 18200.919921875 16259.330078125 18197.978515625 16257.9453125 18194.705078125 C 16256.51171875 18191.31640625 16255.78515625 18187.71484375 16255.78515625 18184 L 16255.78515625 18049.001953125 C 16255.78515625 18045.287109375 16256.51171875 18041.685546875 16257.9453125 18038.296875 C 16259.330078125 18035.0234375 16261.3134765625 18032.08203125 16263.83984375 18029.556640625 C 16266.3662109375 18027.029296875 16269.306640625 18025.046875 16272.58203125 18023.662109375 C 16275.970703125 18022.228515625 16279.572265625 18021.501953125 16283.2861328125 18021.501953125 L 16445.28515625 18021.501953125 C 16448.998046875 18021.501953125 16452.599609375 18022.228515625 16455.98828125 18023.662109375 C 16459.263671875 18025.046875 16462.205078125 18027.029296875 16464.73046875 18029.556640625 C 16467.2578125 18032.08203125 16469.2421875 18035.0234375 16470.626953125 18038.298828125 C 16472.060546875 18041.6875 16472.787109375 18045.2890625 16472.787109375 18049.001953125 L 16472.787109375 18094.845703125 L 16472.787109375 18096.4453125 L 16474.23828125 18097.115234375 L 16519.521484375 18118.0390625 L 16474.16796875 18140.76171875 L 16472.787109375 18141.453125 L 16472.787109375 18142.99609375 L 16472.787109375 18184 C 16472.787109375 18187.712890625 16472.060546875 18191.314453125 16470.626953125 18194.703125 C 16469.2421875 18197.978515625 16467.2578125 18200.919921875 16464.73046875 18203.4453125 C 16462.205078125 18205.97265625 16459.263671875 18207.955078125 16455.98828125 18209.33984375 C 16452.599609375 18210.7734375 16448.998046875 18211.5 16445.28515625 18211.5 Z" stroke="none"/>
      <path d="M 16445.28515625 18209 C 16448.662109375 18209 16451.935546875 18208.33984375 16455.013671875 18207.037109375 C 16457.990234375 18205.779296875 16460.666015625 18203.974609375 16462.962890625 18201.677734375 C 16465.26171875 18199.380859375 16467.064453125 18196.70703125 16468.32421875 18193.73046875 C 16469.626953125 18190.650390625 16470.287109375 18187.376953125 16470.287109375 18184 L 16470.287109375 18139.908203125 L 16473.046875 18138.525390625 L 16513.759765625 18118.12890625 L 16470.287109375 18098.04296875 L 16470.287109375 18049.001953125 C 16470.287109375 18045.625 16469.626953125 18042.3515625 16468.32421875 18039.271484375 C 16467.064453125 18036.294921875 16465.26171875 18033.62109375 16462.962890625 18031.32421875 C 16460.666015625 18029.02734375 16457.990234375 18027.22265625 16455.013671875 18025.96484375 C 16451.935546875 18024.662109375 16448.662109375 18024.001953125 16445.28515625 18024.001953125 L 16283.2861328125 18024.001953125 C 16279.908203125 18024.001953125 16276.634765625 18024.662109375 16273.5556640625 18025.96484375 C 16270.5791015625 18027.22265625 16267.904296875 18029.025390625 16265.607421875 18031.32421875 C 16263.3095703125 18033.62109375 16261.5068359375 18036.294921875 16260.248046875 18039.271484375 C 16258.9453125 18042.349609375 16258.28515625 18045.625 16258.28515625 18049.001953125 L 16258.28515625 18184 C 16258.28515625 18187.376953125 16258.9453125 18190.65234375 16260.248046875 18193.73046875 C 16261.5068359375 18196.70703125 16263.3095703125 18199.380859375 16265.607421875 18201.677734375 C 16267.904296875 18203.9765625 16270.5791015625 18205.779296875 16273.5556640625 18207.037109375 C 16276.634765625 18208.33984375 16279.908203125 18209 16283.2861328125 18209 L 16445.28515625 18209 M 16445.28515625 18214 L 16283.2861328125 18214 C 16266.7158203125 18214 16253.28515625 18200.5703125 16253.28515625 18184 L 16253.28515625 18049.001953125 C 16253.28515625 18032.431640625 16266.7158203125 18019.001953125 16283.2861328125 18019.001953125 L 16445.28515625 18019.001953125 C 16461.8515625 18019.001953125 16475.287109375 18032.431640625 16475.287109375 18049.001953125 L 16475.287109375 18094.845703125 L 16525.28515625 18117.947265625 L 16475.287109375 18142.99609375 L 16475.287109375 18184 C 16475.287109375 18200.5703125 16461.8515625 18214 16445.28515625 18214 Z" stroke="none" fill="#26ccda"/>
    </g>
    <g id="Grupo_120478" data-name="Grupo 120478" transform="translate(343.285 1762.963)">
      <path id="Trazado_104382" data-name="Trazado 104382" d="M68.833,124.244v89.072H38.8V146.895H23.535V124.244Z" transform="translate(-23.535 -124.244)" fill="#fdd835"/>
    </g>
    <g id="Grupo_120479" data-name="Grupo 120479" transform="translate(632.764 1762.963)">
      <path id="Trazado_104384" data-name="Trazado 104384" d="M238.483,190.963v23.286H167.1V195.8l32.192-29.775a26.548,26.548,0,0,0,5.6-6.744,12.189,12.189,0,0,0,1.4-5.472,6.329,6.329,0,0,0-2.227-5.152q-2.227-1.845-6.426-1.847A14.463,14.463,0,0,0,190,148.973a14.184,14.184,0,0,0-5.472,6.109l-22.649-11.325a37.135,37.135,0,0,1,14.888-15.078q9.795-5.537,23.668-5.536a47.774,47.774,0,0,1,18.7,3.435,29.24,29.24,0,0,1,12.725,9.8,24.414,24.414,0,0,1,4.581,14.633,31.2,31.2,0,0,1-3.119,13.807q-3.119,6.426-12.151,14.57l-12.725,11.578Z" transform="translate(-161.883 -123.142)" fill="#f57c00"/>
    </g>
    <g id="Grupo_120480" data-name="Grupo 120480" transform="translate(940.439 1762.963)">
      <path id="Trazado_104385" data-name="Trazado 104385" d="M383.264,168.716a24.416,24.416,0,0,1,5.534,16.1,27.445,27.445,0,0,1-4.389,14.952q-4.39,6.936-13.552,11.259t-22.776,4.327a88.12,88.12,0,0,1-18.769-2.035,58.413,58.413,0,0,1-16.35-5.981l10.179-22.141a47.07,47.07,0,0,0,11.77,4.836,47.725,47.725,0,0,0,12.155,1.655,17.137,17.137,0,0,0,8.395-1.782,5.567,5.567,0,0,0,3.182-5.089q0-6.108-10.561-6.109H336.247v-18.45l13.107-13.36H317.542V124.244h66.421v18.45l-16.542,16.8Q377.729,162.039,383.264,168.716Z" transform="translate(-312.961 -124.244)" fill="#26c6da"/>
    </g>
    <path id="Trazado_182399" data-name="Trazado 182399" d="M-41.953,0h-3.418V-14.219h3.418ZM-36.7-10.566l.107,1.24a3.583,3.583,0,0,1,3.018-1.436,3.015,3.015,0,0,1,2.466.986,4.7,4.7,0,0,1,.845,2.969V0h-3.3V-6.67a1.783,1.783,0,0,0-.322-1.177,1.491,1.491,0,0,0-1.172-.376,1.569,1.569,0,0,0-1.436.762V0h-3.291V-10.566Zm11.367,0,.107,1.24a3.633,3.633,0,0,1,3.018-1.436A2.675,2.675,0,0,1-19.5-9.17,3.517,3.517,0,0,1-16.4-10.762q3.213,0,3.3,3.887V0h-3.3V-6.67a2.014,2.014,0,0,0-.273-1.182,1.164,1.164,0,0,0-1-.371,1.559,1.559,0,0,0-1.455.869l.01.137V0h-3.3V-6.65a2.117,2.117,0,0,0-.264-1.2,1.161,1.161,0,0,0-1.006-.371,1.578,1.578,0,0,0-1.445.869V0h-3.291V-10.566Zm13.7,5.186A6.236,6.236,0,0,1-11.016-8.2a4.4,4.4,0,0,1,1.768-1.9,5.323,5.323,0,0,1,2.705-.664A4.858,4.858,0,0,1-2.8-9.292a5.64,5.64,0,0,1,1.367,4v.117A5.472,5.472,0,0,1-2.808-1.255,4.871,4.871,0,0,1-6.523.2a4.927,4.927,0,0,1-3.623-1.353,5.29,5.29,0,0,1-1.475-3.667Zm3.291.205a3.932,3.932,0,0,0,.459,2.148,1.529,1.529,0,0,0,1.357.684q1.758,0,1.8-2.705v-.332q0-2.842-1.816-2.842-1.65,0-1.787,2.451ZM4.082-3.916l1.67-6.65H9.219L5.771,0H2.412L-1.035-10.566H2.441ZM13.672,0h-3.3V-10.566h3.3Zm-3.5-13.3a1.482,1.482,0,0,1,.508-1.159A1.909,1.909,0,0,1,12-14.912a1.909,1.909,0,0,1,1.318.452,1.482,1.482,0,0,1,.508,1.159,1.482,1.482,0,0,1-.508,1.159A1.909,1.909,0,0,1,12-11.689a1.909,1.909,0,0,1-1.318-.452A1.482,1.482,0,0,1,10.176-13.3ZM19.17,0h-3.3V-15h3.3Zm5.5,0h-3.3V-10.566h3.3Zm-3.5-13.3a1.482,1.482,0,0,1,.508-1.159A1.909,1.909,0,0,1,23-14.912a1.909,1.909,0,0,1,1.318.452,1.482,1.482,0,0,1,.508,1.159,1.482,1.482,0,0,1-.508,1.159A1.909,1.909,0,0,1,23-11.689a1.909,1.909,0,0,1-1.318-.452A1.482,1.482,0,0,1,21.172-13.3Zm9.4,10.762h4.814V0H26.416V-1.836L31.1-8.027H26.621v-2.539h8.662v1.777ZM42.939,0a3.716,3.716,0,0,1-.312-.947A3.06,3.06,0,0,1,40.088.2a3.749,3.749,0,0,1-2.539-.9A2.875,2.875,0,0,1,36.5-2.979a2.955,2.955,0,0,1,1.27-2.6,6.468,6.468,0,0,1,3.691-.879H42.48v-.559q0-1.462-1.26-1.462a1.03,1.03,0,0,0-1.172,1.158H36.758a2.95,2.95,0,0,1,1.3-2.487,5.479,5.479,0,0,1,3.325-.956,4.8,4.8,0,0,1,3.193.986,3.429,3.429,0,0,1,1.2,2.705v4.678A4.79,4.79,0,0,0,46.23-.166V0ZM40.879-2.148A1.836,1.836,0,0,0,41.9-2.412a1.653,1.653,0,0,0,.581-.6V-4.7h-.957Q39.8-4.7,39.8-3.154a.942.942,0,0,0,.3.728A1.1,1.1,0,0,0,40.879-2.148ZM-44.868,22.2a5.432,5.432,0,0,1-3.936-1.45,5.008,5.008,0,0,1-1.5-3.774V16.7a6.489,6.489,0,0,1,.6-2.861,4.395,4.395,0,0,1,1.753-1.919,5.292,5.292,0,0,1,2.734-.679A4.574,4.574,0,0,1-41.7,12.62a5.43,5.43,0,0,1,1.289,3.853v1.279h-6.543a2.372,2.372,0,0,0,.771,1.4,2.3,2.3,0,0,0,1.543.508A2.958,2.958,0,0,0-42.2,18.563l1.5,1.777a4.2,4.2,0,0,1-1.743,1.353A5.891,5.891,0,0,1-44.868,22.2Zm-.371-8.418q-1.445,0-1.719,1.914h3.32v-.254a1.63,1.63,0,0,0-.4-1.226A1.593,1.593,0,0,0-45.239,13.777ZM-35.62,22h-3.3V7h3.3ZM-18.8,16.795a6.372,6.372,0,0,1-1.108,3.931,3.554,3.554,0,0,1-2.993,1.47A3.046,3.046,0,0,1-25.3,21.131v4.932h-3.291V11.434h3.076l.1.977a3.046,3.046,0,0,1,2.49-1.172,3.582,3.582,0,0,1,3.037,1.44,6.45,6.45,0,0,1,1.084,3.96Zm-3.291-.205q0-2.812-1.641-2.812a1.549,1.549,0,0,0-1.562.84v4.16a1.6,1.6,0,0,0,1.582.879q1.572,0,1.621-2.715Zm11.133-2.178-1.084-.078a1.947,1.947,0,0,0-1.992.977V22h-3.291V11.434h3.086l.107,1.357a2.548,2.548,0,0,1,2.314-1.553,3.209,3.209,0,0,1,.918.117Zm.42,2.207A6.236,6.236,0,0,1-9.927,13.8a4.4,4.4,0,0,1,1.768-1.9,5.323,5.323,0,0,1,2.705-.664,4.858,4.858,0,0,1,3.74,1.47,5.64,5.64,0,0,1,1.367,4v.117a5.472,5.472,0,0,1-1.372,3.921A4.871,4.871,0,0,1-5.435,22.2a4.927,4.927,0,0,1-3.623-1.353,5.29,5.29,0,0,1-1.475-3.667Zm3.291.205a3.932,3.932,0,0,0,.459,2.148,1.529,1.529,0,0,0,1.357.684q1.758,0,1.8-2.705v-.332q0-2.842-1.816-2.842-1.65,0-1.787,2.451Zm7.939-.186a6.455,6.455,0,0,1,1.084-3.955A3.568,3.568,0,0,1,4.8,11.238a3.035,3.035,0,0,1,2.383,1.113V7h3.3V22H7.524l-.166-1.133A3.116,3.116,0,0,1,4.78,22.2,3.562,3.562,0,0,1,1.792,20.75,6.659,6.659,0,0,1,.688,16.639Zm3.291.205q0,2.813,1.641,2.813a1.62,1.62,0,0,0,1.563-.918V14.715a1.576,1.576,0,0,0-1.543-.937q-1.523,0-1.65,2.461Zm14.668,4.014A3.393,3.393,0,0,1,15.825,22.2a3.328,3.328,0,0,1-2.632-1.011,4.251,4.251,0,0,1-.894-2.905V11.434h3.291V18.3a1.183,1.183,0,0,0,1.318,1.357,1.72,1.72,0,0,0,1.611-.811V11.434h3.311V22H18.745Zm9.453-1.2a1.464,1.464,0,0,0,1.074-.376,1.379,1.379,0,0,0,.371-1.05h3.086a3.653,3.653,0,0,1-1.245,2.852A4.631,4.631,0,0,1,28.179,22.2a4.689,4.689,0,0,1-3.633-1.445,5.7,5.7,0,0,1-1.328-4v-.137a6.436,6.436,0,0,1,.591-2.827,4.3,4.3,0,0,1,1.7-1.885,5.081,5.081,0,0,1,2.637-.659,4.573,4.573,0,0,1,3.271,1.143,4.053,4.053,0,0,1,1.211,3.1H29.546a1.807,1.807,0,0,0-.4-1.26,1.382,1.382,0,0,0-1.074-.439q-1.279,0-1.494,1.631a11.508,11.508,0,0,0-.068,1.426,4.52,4.52,0,0,0,.381,2.207A1.319,1.319,0,0,0,28.1,19.656Zm9.756-10.85v2.627h1.738v2.285H37.856v4.834a1.234,1.234,0,0,0,.215.83,1.152,1.152,0,0,0,.85.234,4.828,4.828,0,0,0,.82-.059v2.354a6.074,6.074,0,0,1-1.855.283,3.448,3.448,0,0,1-2.51-.8,3.282,3.282,0,0,1-.811-2.432V13.719H33.218V11.434h1.348V8.807Zm2.324,7.813A6.236,6.236,0,0,1,40.8,13.8a4.4,4.4,0,0,1,1.768-1.9,5.323,5.323,0,0,1,2.705-.664,4.858,4.858,0,0,1,3.74,1.47,5.64,5.64,0,0,1,1.367,4v.117A5.472,5.472,0,0,1,49,20.745a4.871,4.871,0,0,1-3.716,1.45,4.927,4.927,0,0,1-3.623-1.353,5.29,5.29,0,0,1-1.475-3.667Zm3.291.205a3.932,3.932,0,0,0,.459,2.148,1.529,1.529,0,0,0,1.357.684q1.758,0,1.8-2.705v-.332q0-2.842-1.816-2.842-1.65,0-1.787,2.451Z" transform="translate(477.285 1862.07)" fill="#12263f"/>
    <path id="Trazado_182397" data-name="Trazado 182397" d="M-38.569-2.656h-4.7L-44.087,0h-3.662l5.215-14.219h3.223L-34.058,0h-3.682ZM-42.446-5.3h3.057l-1.533-4.932Zm11.914-5.264.107,1.24a3.633,3.633,0,0,1,3.018-1.436A2.675,2.675,0,0,1-24.7-9.17,3.517,3.517,0,0,1-21.6-10.762q3.213,0,3.3,3.887V0h-3.3V-6.67a2.014,2.014,0,0,0-.273-1.182,1.164,1.164,0,0,0-1-.371,1.559,1.559,0,0,0-1.455.869l.01.137V0h-3.3V-6.65a2.117,2.117,0,0,0-.264-1.2,1.161,1.161,0,0,0-1.006-.371,1.578,1.578,0,0,0-1.445.869V0h-3.291V-10.566Zm13.7,5.186A6.236,6.236,0,0,1-16.216-8.2a4.4,4.4,0,0,1,1.768-1.9,5.323,5.323,0,0,1,2.705-.664A4.858,4.858,0,0,1-8-9.292a5.64,5.64,0,0,1,1.367,4v.117A5.472,5.472,0,0,1-8.008-1.255,4.871,4.871,0,0,1-11.724.2a4.927,4.927,0,0,1-3.623-1.353,5.29,5.29,0,0,1-1.475-3.667Zm3.291.205a3.932,3.932,0,0,0,.459,2.148,1.529,1.529,0,0,0,1.357.684q1.758,0,1.8-2.705v-.332q0-2.842-1.816-2.842-1.65,0-1.787,2.451ZM1.206-7.588.122-7.666a1.947,1.947,0,0,0-1.992.977V0H-5.161V-10.566h3.086l.107,1.357A2.548,2.548,0,0,1,.347-10.762a3.209,3.209,0,0,1,.918.117Zm5.508-5.605v2.627H8.452v2.285H6.714v4.834a1.234,1.234,0,0,0,.215.83,1.152,1.152,0,0,0,.85.234,4.828,4.828,0,0,0,.82-.059V-.088A6.074,6.074,0,0,1,6.743.2a3.448,3.448,0,0,1-2.51-.8,3.282,3.282,0,0,1-.811-2.432V-8.281H2.075v-2.285H3.423v-2.627ZM13.218,0h-3.3V-10.566h3.3Zm-3.5-13.3a1.482,1.482,0,0,1,.508-1.159,1.909,1.909,0,0,1,1.318-.452,1.909,1.909,0,0,1,1.318.452,1.482,1.482,0,0,1,.508,1.159,1.482,1.482,0,0,1-.508,1.159,1.909,1.909,0,0,1-1.318.452,1.909,1.909,0,0,1-1.318-.452A1.482,1.482,0,0,1,9.722-13.3Zm5.137,7.939a7.134,7.134,0,0,1,.527-2.832,4.245,4.245,0,0,1,1.514-1.9,3.99,3.99,0,0,1,2.295-.669,3.173,3.173,0,0,1,2.578,1.113l.117-.918h2.988V-.4a4.455,4.455,0,0,1-.649,2.427,4.167,4.167,0,0,1-1.88,1.582A6.91,6.91,0,0,1,19.5,4.16a5.961,5.961,0,0,1-2.251-.439,4.063,4.063,0,0,1-1.665-1.143L16.958.645A3.018,3.018,0,0,0,19.38,1.729,1.96,1.96,0,0,0,21.567-.518V-.85A3.09,3.09,0,0,1,19.175.2,3.819,3.819,0,0,1,16.05-1.284a6.13,6.13,0,0,1-1.191-3.96Zm3.3.205A3.759,3.759,0,0,0,18.647-3.1a1.541,1.541,0,0,0,1.367.757,1.748,1.748,0,0,0,1.553-.713V-7.5a1.7,1.7,0,0,0-1.533-.723,1.551,1.551,0,0,0-1.377.786A4.287,4.287,0,0,0,18.159-5.156ZM33.042-1.143A3.393,3.393,0,0,1,30.22.2,3.328,3.328,0,0,1,27.588-.815a4.251,4.251,0,0,1-.894-2.905v-6.846h3.291V-3.7A1.183,1.183,0,0,0,31.3-2.344a1.72,1.72,0,0,0,1.611-.811v-7.412h3.311V0H33.14ZM43.979,0a3.716,3.716,0,0,1-.312-.947A3.06,3.06,0,0,1,41.128.2a3.749,3.749,0,0,1-2.539-.9,2.875,2.875,0,0,1-1.045-2.271,2.955,2.955,0,0,1,1.27-2.6A6.468,6.468,0,0,1,42.5-6.455h1.016v-.559q0-1.462-1.26-1.462a1.03,1.03,0,0,0-1.172,1.158H37.8a2.95,2.95,0,0,1,1.3-2.487,5.479,5.479,0,0,1,3.325-.956,4.8,4.8,0,0,1,3.193.986,3.429,3.429,0,0,1,1.2,2.705v4.678a4.79,4.79,0,0,0,.449,2.227V0ZM41.919-2.148a1.836,1.836,0,0,0,1.021-.264,1.653,1.653,0,0,0,.581-.6V-4.7h-.957q-1.719,0-1.719,1.543a.942.942,0,0,0,.3.728A1.1,1.1,0,0,0,41.919-2.148ZM-44.868,22.2a5.432,5.432,0,0,1-3.936-1.45,5.008,5.008,0,0,1-1.5-3.774V16.7a6.489,6.489,0,0,1,.6-2.861,4.395,4.395,0,0,1,1.753-1.919,5.292,5.292,0,0,1,2.734-.679A4.574,4.574,0,0,1-41.7,12.62a5.43,5.43,0,0,1,1.289,3.853v1.279h-6.543a2.372,2.372,0,0,0,.771,1.4,2.3,2.3,0,0,0,1.543.508A2.958,2.958,0,0,0-42.2,18.563l1.5,1.777a4.2,4.2,0,0,1-1.743,1.353A5.891,5.891,0,0,1-44.868,22.2Zm-.371-8.418q-1.445,0-1.719,1.914h3.32v-.254a1.63,1.63,0,0,0-.4-1.226A1.593,1.593,0,0,0-45.239,13.777ZM-35.62,22h-3.3V7h3.3ZM-18.8,16.795a6.372,6.372,0,0,1-1.108,3.931,3.554,3.554,0,0,1-2.993,1.47A3.046,3.046,0,0,1-25.3,21.131v4.932h-3.291V11.434h3.076l.1.977a3.046,3.046,0,0,1,2.49-1.172,3.582,3.582,0,0,1,3.037,1.44,6.45,6.45,0,0,1,1.084,3.96Zm-3.291-.205q0-2.812-1.641-2.812a1.549,1.549,0,0,0-1.562.84v4.16a1.6,1.6,0,0,0,1.582.879q1.572,0,1.621-2.715Zm11.133-2.178-1.084-.078a1.947,1.947,0,0,0-1.992.977V22h-3.291V11.434h3.086l.107,1.357a2.548,2.548,0,0,1,2.314-1.553,3.209,3.209,0,0,1,.918.117Zm.42,2.207A6.236,6.236,0,0,1-9.927,13.8a4.4,4.4,0,0,1,1.768-1.9,5.323,5.323,0,0,1,2.705-.664,4.858,4.858,0,0,1,3.74,1.47,5.64,5.64,0,0,1,1.367,4v.117a5.472,5.472,0,0,1-1.372,3.921A4.871,4.871,0,0,1-5.435,22.2a4.927,4.927,0,0,1-3.623-1.353,5.29,5.29,0,0,1-1.475-3.667Zm3.291.205a3.932,3.932,0,0,0,.459,2.148,1.529,1.529,0,0,0,1.357.684q1.758,0,1.8-2.705v-.332q0-2.842-1.816-2.842-1.65,0-1.787,2.451Zm7.939-.186a6.455,6.455,0,0,1,1.084-3.955A3.568,3.568,0,0,1,4.8,11.238a3.035,3.035,0,0,1,2.383,1.113V7h3.3V22H7.524l-.166-1.133A3.116,3.116,0,0,1,4.78,22.2,3.562,3.562,0,0,1,1.792,20.75,6.659,6.659,0,0,1,.688,16.639Zm3.291.205q0,2.813,1.641,2.813a1.62,1.62,0,0,0,1.563-.918V14.715a1.576,1.576,0,0,0-1.543-.937q-1.523,0-1.65,2.461Zm14.668,4.014A3.393,3.393,0,0,1,15.825,22.2a3.328,3.328,0,0,1-2.632-1.011,4.251,4.251,0,0,1-.894-2.905V11.434h3.291V18.3a1.183,1.183,0,0,0,1.318,1.357,1.72,1.72,0,0,0,1.611-.811V11.434h3.311V22H18.745Zm9.453-1.2a1.464,1.464,0,0,0,1.074-.376,1.379,1.379,0,0,0,.371-1.05h3.086a3.653,3.653,0,0,1-1.245,2.852A4.631,4.631,0,0,1,28.179,22.2a4.689,4.689,0,0,1-3.633-1.445,5.7,5.7,0,0,1-1.328-4v-.137a6.436,6.436,0,0,1,.591-2.827,4.3,4.3,0,0,1,1.7-1.885,5.081,5.081,0,0,1,2.637-.659,4.573,4.573,0,0,1,3.271,1.143,4.053,4.053,0,0,1,1.211,3.1H29.546a1.807,1.807,0,0,0-.4-1.26,1.382,1.382,0,0,0-1.074-.439q-1.279,0-1.494,1.631a11.508,11.508,0,0,0-.068,1.426,4.52,4.52,0,0,0,.381,2.207A1.319,1.319,0,0,0,28.1,19.656Zm9.756-10.85v2.627h1.738v2.285H37.856v4.834a1.234,1.234,0,0,0,.215.83,1.152,1.152,0,0,0,.85.234,4.828,4.828,0,0,0,.82-.059v2.354a6.074,6.074,0,0,1-1.855.283,3.448,3.448,0,0,1-2.51-.8,3.282,3.282,0,0,1-.811-2.432V13.719H33.218V11.434h1.348V8.807Zm2.324,7.813A6.236,6.236,0,0,1,40.8,13.8a4.4,4.4,0,0,1,1.768-1.9,5.323,5.323,0,0,1,2.705-.664,4.858,4.858,0,0,1,3.74,1.47,5.64,5.64,0,0,1,1.367,4v.117A5.472,5.472,0,0,1,49,20.745a4.871,4.871,0,0,1-3.716,1.45,4.927,4.927,0,0,1-3.623-1.353,5.29,5.29,0,0,1-1.475-3.667Zm3.291.205a3.932,3.932,0,0,0,.459,2.148,1.529,1.529,0,0,0,1.357.684q1.758,0,1.8-2.705v-.332q0-2.842-1.816-2.842-1.65,0-1.787,2.451Z" transform="translate(792.607 1862.07)" fill="#12263f"/>
    <path id="Trazado_182398" data-name="Trazado 182398" d="M-24.375-2.656h-4.7L-29.893,0h-3.662l5.215-14.219h3.223L-19.863,0h-3.682ZM-28.252-5.3H-25.2l-1.533-4.932ZM-15.391,0H-18.7V-10.566h3.311Zm-1.23-14.8h3.477l-2.715,3.066-2.686,0ZM-7.744-2.969a.76.76,0,0,0-.439-.674,6.685,6.685,0,0,0-1.67-.527,7.615,7.615,0,0,1-2.031-.718,3.4,3.4,0,0,1-1.221-1.079,2.577,2.577,0,0,1-.42-1.455,2.92,2.92,0,0,1,1.2-2.4,4.948,4.948,0,0,1,3.145-.942,5.482,5.482,0,0,1,3.359.947,2.962,2.962,0,0,1,1.27,2.49h-3.3q0-1.27-1.338-1.27a1.326,1.326,0,0,0-.869.288.892.892,0,0,0-.352.718.819.819,0,0,0,.43.713,4.06,4.06,0,0,0,1.372.449,11.857,11.857,0,0,1,1.655.42A3.007,3.007,0,0,1-4.57-3.066,2.767,2.767,0,0,1-5.854-.713,5.631,5.631,0,0,1-9.18.2,5.747,5.747,0,0,1-11.6-.293a4.05,4.05,0,0,1-1.66-1.328,3.007,3.007,0,0,1-.6-1.768h3.076a1.272,1.272,0,0,0,.488,1.069,2.009,2.009,0,0,0,1.2.337,1.58,1.58,0,0,0,1.011-.273A.875.875,0,0,0-7.744-2.969ZM.439,0h-3.3V-15h3.3ZM8.418,0a3.716,3.716,0,0,1-.312-.947A3.06,3.06,0,0,1,5.566.2a3.749,3.749,0,0,1-2.539-.9A2.875,2.875,0,0,1,1.982-2.979a2.955,2.955,0,0,1,1.27-2.6,6.468,6.468,0,0,1,3.691-.879H7.959v-.559q0-1.462-1.26-1.462A1.03,1.03,0,0,0,5.527-7.319H2.236a2.95,2.95,0,0,1,1.3-2.487,5.479,5.479,0,0,1,3.325-.956,4.8,4.8,0,0,1,3.193.986,3.429,3.429,0,0,1,1.2,2.705v4.678a4.79,4.79,0,0,0,.449,2.227V0ZM6.357-2.148a1.836,1.836,0,0,0,1.021-.264,1.653,1.653,0,0,0,.581-.6V-4.7H7q-1.719,0-1.719,1.543a.942.942,0,0,0,.3.728A1.1,1.1,0,0,0,6.357-2.148ZM23.174.2a5.432,5.432,0,0,1-3.936-1.45,5.008,5.008,0,0,1-1.5-3.774V-5.3a6.489,6.489,0,0,1,.6-2.861,4.395,4.395,0,0,1,1.753-1.919,5.292,5.292,0,0,1,2.734-.679A4.574,4.574,0,0,1,26.338-9.38a5.43,5.43,0,0,1,1.289,3.853v1.279H21.084a2.372,2.372,0,0,0,.771,1.4,2.3,2.3,0,0,0,1.543.508A2.958,2.958,0,0,0,25.84-3.437l1.5,1.777A4.2,4.2,0,0,1,25.6-.308,5.891,5.891,0,0,1,23.174.2ZM22.8-8.223q-1.445,0-1.719,1.914H24.4v-.254A1.63,1.63,0,0,0,24-7.788,1.593,1.593,0,0,0,22.8-8.223ZM32.422,0h-3.3V-15h3.3ZM-29.487,14.795A6.372,6.372,0,0,1-30.6,18.726a3.554,3.554,0,0,1-2.993,1.47,3.046,3.046,0,0,1-2.393-1.064v4.932h-3.291V9.434H-36.2l.1.977a3.046,3.046,0,0,1,2.49-1.172,3.582,3.582,0,0,1,3.037,1.44,6.45,6.45,0,0,1,1.084,3.96Zm-3.291-.205q0-2.812-1.641-2.812a1.549,1.549,0,0,0-1.562.84v4.16a1.6,1.6,0,0,0,1.582.879q1.572,0,1.621-2.715Zm11.133-2.178-1.084-.078a1.947,1.947,0,0,0-1.992.977V20h-3.291V9.434h3.086l.107,1.357A2.548,2.548,0,0,1-22.5,9.238a3.209,3.209,0,0,1,.918.117Zm.42,2.207A6.236,6.236,0,0,1-20.61,11.8a4.4,4.4,0,0,1,1.768-1.9,5.323,5.323,0,0,1,2.705-.664,4.858,4.858,0,0,1,3.74,1.47,5.64,5.64,0,0,1,1.367,4v.117A5.472,5.472,0,0,1-12.4,18.745a4.871,4.871,0,0,1-3.716,1.45,4.927,4.927,0,0,1-3.623-1.353,5.29,5.29,0,0,1-1.475-3.667Zm3.291.205a3.932,3.932,0,0,0,.459,2.148,1.529,1.529,0,0,0,1.357.684q1.758,0,1.8-2.705v-.332q0-2.842-1.816-2.842-1.65,0-1.787,2.451ZM-10,14.639a6.455,6.455,0,0,1,1.084-3.955A3.568,3.568,0,0,1-5.884,9.238,3.035,3.035,0,0,1-3.5,10.352V5H-.2V20H-3.159l-.166-1.133A3.116,3.116,0,0,1-5.9,20.2,3.562,3.562,0,0,1-8.892,18.75,6.659,6.659,0,0,1-10,14.639Zm3.291.205q0,2.813,1.641,2.813A1.62,1.62,0,0,0-3.5,16.738V12.715a1.576,1.576,0,0,0-1.543-.937q-1.523,0-1.65,2.461ZM7.964,18.857A3.393,3.393,0,0,1,5.142,20.2,3.328,3.328,0,0,1,2.51,19.185a4.251,4.251,0,0,1-.894-2.905V9.434H4.907V16.3a1.183,1.183,0,0,0,1.318,1.357,1.72,1.72,0,0,0,1.611-.811V9.434h3.311V20H8.062Zm9.453-1.2a1.464,1.464,0,0,0,1.074-.376,1.379,1.379,0,0,0,.371-1.05h3.086A3.653,3.653,0,0,1,20.7,19.082,4.631,4.631,0,0,1,17.5,20.2a4.689,4.689,0,0,1-3.633-1.445,5.7,5.7,0,0,1-1.328-4v-.137a6.436,6.436,0,0,1,.591-2.827,4.3,4.3,0,0,1,1.7-1.885,5.081,5.081,0,0,1,2.637-.659,4.573,4.573,0,0,1,3.271,1.143,4.053,4.053,0,0,1,1.211,3.1H18.862a1.807,1.807,0,0,0-.4-1.26,1.382,1.382,0,0,0-1.074-.439q-1.279,0-1.494,1.631a11.508,11.508,0,0,0-.068,1.426,4.52,4.52,0,0,0,.381,2.207A1.319,1.319,0,0,0,17.417,17.656Zm9.756-10.85V9.434h1.738v2.285H27.173v4.834a1.234,1.234,0,0,0,.215.83,1.152,1.152,0,0,0,.85.234,4.828,4.828,0,0,0,.82-.059v2.354A6.074,6.074,0,0,1,27.2,20.2a3.448,3.448,0,0,1-2.51-.8,3.282,3.282,0,0,1-.811-2.432V11.719H22.534V9.434h1.348V6.807ZM29.5,14.619a6.236,6.236,0,0,1,.615-2.817A4.4,4.4,0,0,1,31.88,9.9a5.323,5.323,0,0,1,2.705-.664,4.858,4.858,0,0,1,3.74,1.47,5.64,5.64,0,0,1,1.367,4v.117a5.472,5.472,0,0,1-1.372,3.921A4.871,4.871,0,0,1,34.6,20.2a4.927,4.927,0,0,1-3.623-1.353,5.29,5.29,0,0,1-1.475-3.667Zm3.291.205a3.932,3.932,0,0,0,.459,2.148,1.529,1.529,0,0,0,1.357.684q1.758,0,1.8-2.705v-.332q0-2.842-1.816-2.842-1.65,0-1.787,2.451Z" transform="translate(1098.285 1862.07)" fill="#12263f"/>
    <g id="Grupo_120483" data-name="Grupo 120483" transform="translate(437.285 1749.354)">
      <g id="Grupo_56163" data-name="Grupo 56163" clip-path="url(#clip-path)">
        <path id="Trazado_108116" data-name="Trazado 108116" d="M80,38.882V73.254c-.117.035-.132.134-.166.234a5.242,5.242,0,0,1-5.407,3.945q-13.267,0-26.534,0c-1.322,0-1.744-.316-2.063-1.529.275-1.266.692-1.594,2.068-1.595q13.163,0,26.325,0c1.894,0,2.65-.758,2.65-2.646q0-14.958.014-29.916c0-.646-.1-.87-.826-.869q-36.051.035-72.1,0c-.683,0-.852.155-.85.846q.038,14.919.017,29.838c0,2.041.714,2.745,2.785,2.745q13.67,0,27.341,0c1.308,0,1.7.315,2.028,1.565-.349,1.264-.748,1.559-2.124,1.559q-13.709,0-27.419,0C2.161,77.433,0,75.278,0,71.707q0-15.9,0-31.792c0-.182-.006-.365,0-.547A1.541,1.541,0,0,1,1.57,37.775c.312-.016.625-.007.937-.007,1.341,0,1.4,0,1.328-1.348a15.729,15.729,0,0,1,2.136-8.965c.6-1.032,1.1-2.12,1.632-3.188A9.019,9.019,0,0,0,8.628,20.7c.2-3.743.385-7.487.6-11.229.026-.451-.083-.608-.546-.692a1.527,1.527,0,0,1-1.28-1.9c.225-1.306.453-2.612.7-3.914A3.448,3.448,0,0,1,11.526.027q3.358-.054,6.718,0a3.4,3.4,0,0,1,3.29,2.524c.339,1.441.6,2.9.83,4.365A1.471,1.471,0,0,1,20.99,8.8c-.6.065-.61.31-.588.791.1,2.106.139,4.215.235,6.322.3,6.615-.255,5.742,3.263,11.681a15.432,15.432,0,0,1,2.3,8.679c-.06,1.5-.01,1.5,1.486,1.5,1.222,0,1.287,0,1.209-1.213a16.036,16.036,0,0,1,2.22-9.257c.584-1.009,1.065-2.078,1.591-3.121a7.87,7.87,0,0,0,.9-2.8c.373-4.019.442-8.055.676-12.082.02-.355-.124-.414-.421-.485C32.7,8.53,32.323,7.974,32.5,6.764c.182-1.234.42-2.459.627-3.69a3.514,3.514,0,0,1,3.5-3.049C38.82,0,41.008,0,43.195.024a3.507,3.507,0,0,1,3.513,2.948q.37,1.914.727,3.83a1.54,1.54,0,0,1-1.414,2c-.595.055-.571.33-.554.74.1,2.315.226,4.63.263,6.946.105,6.586.381,6.161,3.252,11.132A15.6,15.6,0,0,1,51.26,36.3c-.065,1.467-.011,1.47,1.423,1.47,1.279,0,1.335,0,1.268-1.248A15.982,15.982,0,0,1,56.127,27.4c.6-1.03,1.1-2.116,1.634-3.186a8.822,8.822,0,0,0,.994-3.42c.212-3.769.4-7.539.605-11.308.023-.41-.007-.628-.513-.71a1.509,1.509,0,0,1-1.32-1.865q.318-2,.712-3.991A3.449,3.449,0,0,1,61.7.025q3.319-.043,6.64,0a3.4,3.4,0,0,1,3.315,2.492c.356,1.463.618,2.952.848,4.44a1.488,1.488,0,0,1-1.422,1.85c-.462.056-.6.162-.573.647.127,2.7.185,5.412.324,8.116a22.563,22.563,0,0,0,.371,4.346,19.515,19.515,0,0,0,2.692,5.418,15.44,15.44,0,0,1,2.422,9.19c-.07,1.238-.01,1.277,1.278,1.231,1.019-.037,1.924.065,2.408,1.125M14.923,31c2.187,0,4.374-.017,6.56.011.626.008.646-.181.373-.652-.781-1.349-1.527-2.718-2.316-4.062a13.862,13.862,0,0,1-1.9-6.826c-.077-3.3-.245-6.606-.345-9.91-.017-.565-.174-.759-.765-.732-1.143.052-2.291.043-3.435,0-.547-.019-.748.087-.771.7-.129,3.459-.328,6.915-.482,10.372a14.42,14.42,0,0,1-1.691,6.263C9.4,27.571,8.716,29,7.989,30.406c-.23.445-.2.616.374.608,2.186-.028,4.373-.011,6.56-.011m32.334-.026c-.973-1.722-1.875-3.327-2.785-4.927a12.2,12.2,0,0,1-1.693-5.536c-.16-3.639-.309-7.28-.417-10.921-.019-.623-.2-.785-.8-.76-1.117.047-2.239.045-3.357,0-.585-.023-.814.126-.835.752-.086,2.522-.316,5.043-.322,7.564a19.96,19.96,0,0,1-2.773,10.872,22.582,22.582,0,0,0-1.1,2.151,1.392,1.392,0,0,0-.274.806ZM65.068,31q3.2,0,6.4,0c.847,0,.856-.009.428-.774q-1.179-2.109-2.378-4.206a13.2,13.2,0,0,1-1.733-6.24c-.107-3.433-.273-6.865-.387-10.3-.016-.493-.141-.668-.66-.65-1.17.04-2.343.042-3.513,0-.552-.02-.744.094-.767.7-.121,3.25-.338,6.5-.451,9.748a15.747,15.747,0,0,1-1.94,7.305c-.7,1.245-1.288,2.549-1.949,3.815-.251.48-.16.613.387.607C60.7,30.99,62.882,31,65.068,31M40,37.769c2.5,0,5-.015,7.494.012.514.006.672-.135.643-.646-.045-.8-.031-1.613-.014-2.419.009-.412-.092-.6-.562-.6q-7.494.023-14.988,0c-.476,0-.555.19-.544.595.022.806.036,1.615,0,2.419-.025.5.117.657.638.65,2.446-.029,4.892-.013,7.338-.013m25.238-3.642c-2.5,0-5,.01-7.5-.009-.455,0-.668.1-.653.6.026.858.019,1.718,0,2.577-.009.378.13.486.5.485q7.537-.015,15.074,0c.413,0,.542-.126.528-.531-.029-.832-.044-1.667-.014-2.5.019-.52-.177-.637-.671-.632-2.421.025-4.842.011-7.264.011m-50.2,3.642c2.473,0,4.946-.013,7.419.011.479,0,.643-.123.617-.609-.044-.831-.046-1.665-.034-2.5.006-.445-.17-.557-.6-.555q-7.419.022-14.837,0c-.465,0-.652.1-.633.6.032.806.04,1.615-.005,2.42-.03.525.149.653.656.647,2.473-.025,4.946-.011,7.419-.011M14.862,5.726H17.12c1.883,0,1.852.005,1.518-1.854-.11-.61-.381-.751-.937-.741-1.479.026-2.959.009-4.439.009-2.068,0-2.046,0-2.405,2.037-.091.514.082.561.5.555,1.168-.018,2.336-.006,3.5-.006m25.078,0H42.2c1.9,0,1.884,0,1.522-1.832-.109-.551-.324-.785-.924-.769-1.556.042-3.113.014-4.67.014-1.98,0-1.969,0-2.194,2-.049.439.037.6.507.591,1.167-.028,2.335-.009,3.5-.009m25.016,0h2.259c1.906,0,1.885,0,1.552-1.88-.1-.559-.347-.724-.883-.715-1.506.025-3.012.009-4.518.009-2.026,0-2.007,0-2.376,1.987-.1.531.065.619.538.608,1.142-.026,2.285-.008,3.427-.008" transform="translate(0 0)" fill="#030303"/>
        <path id="Trazado_108117" data-name="Trazado 108117" d="M57.618,230.783l-3.643-.019c-.284-1.135-.789-1.606-1.672-1.558q-1.24.068-1.5,1.567l-3.732-.019c-.323-1.25-.719-1.564-2.028-1.565q-13.67,0-27.341,0c-2.071,0-2.785-.7-2.785-2.745q0-14.919-.018-29.838c0-.691.167-.847.85-.846q36.05.029,72.1,0c.729,0,.828.223.826.869q-.03,14.958-.014,29.916c0,1.888-.756,2.646-2.65,2.646q-13.163,0-26.325,0c-1.376,0-1.793.328-2.068,1.595m-5.4-19.18v0c2.055,0,4.111.039,6.165-.012a5.191,5.191,0,0,0,3.984-2.01,5.493,5.493,0,0,0,.829-6.128,5.618,5.618,0,0,0-5.429-3.383c-2.211-.031-4.423-.021-6.634,0a52.957,52.957,0,0,0-5.3.072,5.747,5.747,0,0,0,.3,11.453c2.026.081,4.057.015,6.086.015" transform="translate(-11.787 -154.879)" fill="#f57c00"/>
        <path id="Trazado_108118" data-name="Trazado 108118" d="M44.682,64.456c-2.187,0-4.374-.017-6.56.011-.577.007-.6-.164-.374-.608.727-1.407,1.414-2.835,2.161-4.231A14.42,14.42,0,0,0,41.6,53.364c.153-3.458.353-6.914.482-10.372.023-.617.224-.724.771-.7,1.144.039,2.292.049,3.435,0,.591-.027.748.167.765.732.1,3.3.268,6.606.345,9.91a13.86,13.86,0,0,0,1.9,6.826c.788,1.345,1.535,2.713,2.316,4.062.273.471.253.66-.373.652-2.186-.028-4.373-.011-6.56-.011" transform="translate(-29.759 -33.453)" fill="#9b5003"/>
        <path id="Trazado_108119" data-name="Trazado 108119" d="M171.923,64.437h-14.35a1.4,1.4,0,0,1,.275-.806,22.479,22.479,0,0,1,1.1-2.15,19.963,19.963,0,0,0,2.773-10.872c.006-2.522.236-5.042.322-7.564.021-.626.25-.775.835-.752,1.117.044,2.239.046,3.357,0,.6-.025.778.137.8.76.108,3.641.257,7.281.417,10.921a12.194,12.194,0,0,0,1.693,5.536c.91,1.6,1.813,3.205,2.785,4.927" transform="translate(-124.666 -33.46)" fill="#9b5003"/>
        <path id="Trazado_108120" data-name="Trazado 108120" d="M284.793,64.467c-2.186,0-4.373-.014-6.559.01-.546.006-.637-.127-.387-.607.661-1.266,1.251-2.57,1.949-3.815a15.75,15.75,0,0,0,1.94-7.305c.112-3.251.329-6.5.451-9.748.023-.61.214-.723.766-.7,1.17.042,2.343.04,3.513,0,.519-.018.644.157.66.65.115,3.433.28,6.865.387,10.3a13.208,13.208,0,0,0,1.733,6.24q1.2,2.1,2.378,4.206c.428.765.419.773-.428.774q-3.2,0-6.4,0" transform="translate(-219.724 -33.464)" fill="#d06a01"/>
        <path id="Trazado_108121" data-name="Trazado 108121" d="M161.316,167.04c-2.446,0-4.892-.016-7.338.013-.522.006-.664-.147-.638-.651.041-.8.027-1.613,0-2.419-.011-.405.068-.6.544-.595q7.494.025,14.988,0c.47,0,.571.186.562.6-.017.806-.031,1.615.014,2.419.029.512-.129.652-.643.647-2.5-.027-5-.012-7.494-.012" transform="translate(-121.319 -129.271)" fill="#fdd835"/>
        <path id="Trazado_108122" data-name="Trazado 108122" d="M281.522,163.392c2.421,0,4.842.014,7.263-.011.494-.005.691.112.672.632-.031.832-.016,1.666.014,2.5.014.405-.115.532-.528.531q-7.537-.019-15.074,0c-.369,0-.509-.107-.5-.485.021-.859.028-1.719,0-2.577-.015-.5.2-.6.653-.6,2.5.019,5,.009,7.5.009" transform="translate(-216.287 -129.265)" fill="#fdd835"/>
        <path id="Trazado_108123" data-name="Trazado 108123" d="M41.406,167.04c-2.473,0-4.946-.014-7.419.011-.507.005-.685-.122-.656-.647.045-.8.037-1.614.005-2.42-.02-.491.168-.6.633-.6q7.419.024,14.837,0c.431,0,.607.111.6.555-.012.832-.01,1.666.034,2.5.026.486-.138.614-.617.609-2.473-.023-4.946-.011-7.419-.011" transform="translate(-26.37 -129.271)" fill="#fdd835"/>
        <path id="Trazado_108124" data-name="Trazado 108124" d="M55.913,17.585c-1.168,0-2.337-.012-3.5.006-.418.006-.591-.041-.5-.555C52.268,15,52.246,15,54.314,15c1.48,0,2.96.017,4.439-.009.556-.01.827.131.937.741.334,1.86.365,1.854-1.518,1.854H55.913" transform="translate(-41.051 -11.859)" fill="#26ccda"/>
        <path id="Trazado_108125" data-name="Trazado 108125" d="M176.035,17.564c-1.167,0-2.336-.019-3.5.009-.471.011-.557-.153-.507-.591.226-2,.214-2,2.194-2,1.557,0,3.114.028,4.67-.014.6-.016.816.218.924.769.362,1.835.378,1.832-1.522,1.832h-2.257" transform="translate(-136.095 -11.839)" fill="#26ccda"/>
        <path id="Trazado_108126" data-name="Trazado 108126" d="M295.949,17.586c-1.142,0-2.285-.018-3.427.008-.473.011-.637-.077-.538-.608C292.353,15,292.333,15,294.359,15c1.506,0,3.012.017,4.518-.009.536-.009.785.155.883.715.332,1.884.354,1.88-1.552,1.88h-2.259" transform="translate(-230.993 -11.86)" fill="#26ccda"/>
        <path id="Trazado_108127" data-name="Trazado 108127" d="M186.837,357.509q.261-1.5,1.5-1.566c.884-.048,1.389.422,1.672,1.558-.3,1.052-.843,1.57-1.631,1.547s-1.336-.563-1.544-1.538" transform="translate(-147.823 -281.615)" fill="#030303"/>
        <path id="Trazado_108128" data-name="Trazado 108128" d="M149.967,227.8c-2.029,0-4.061.065-6.086-.015a5.747,5.747,0,0,1-.3-11.453,52.907,52.907,0,0,1,5.3-.072c2.211-.019,4.423-.028,6.634,0a5.619,5.619,0,0,1,5.429,3.383,5.494,5.494,0,0,1-.829,6.128,5.191,5.191,0,0,1-3.984,2.01c-2.053.052-4.109.013-6.164.013v0m0-3.119v.015q2.693,0,5.386,0a3.608,3.608,0,0,0,1.233-.14,2.661,2.661,0,0,0-1.065-5.163c-3.695-.019-7.389-.009-11.084,0a2.9,2.9,0,0,0-1.765.518,2.635,2.635,0,0,0-1,2.831,2.506,2.506,0,0,0,2.363,1.933c1.976.042,3.954.012,5.932.012" transform="translate(-109.538 -171.079)" fill="#030303"/>
        <path id="Trazado_108129" data-name="Trazado 108129" d="M161.8,236.627c-1.977,0-3.955.031-5.932-.012a2.506,2.506,0,0,1-2.363-1.933,2.635,2.635,0,0,1,1-2.831,2.9,2.9,0,0,1,1.765-.518c3.695,0,7.389-.015,11.084,0a2.661,2.661,0,0,1,1.065,5.163,3.607,3.607,0,0,1-1.233.139q-2.693.006-5.386,0v-.015" transform="translate(-121.375 -183.023)" fill="#fbd588"/>
      </g>
    </g>
    <g id="Grupo_120485" data-name="Grupo 120485" transform="translate(768.084 1743.552)">
      <g id="Grupo_120484" data-name="Grupo 120484" clip-path="url(#clip-path-2)">
        <path id="Trazado_181692" data-name="Trazado 181692" d="M.013,49.041Q.013,34.488,0,19.934a2.623,2.623,0,0,1,.712-1.88C3.37,15.06,5.991,12.034,8.64,9.032a1.584,1.584,0,0,0,.413-1.157c-.02-2.1-.013-4.193-.007-6.289C9.049.473,9.5,0,10.595,0Q24.543,0,38.491,0c1.044,0,1.51.48,1.514,1.538.008,2.123.016,4.247-.008,6.37a1.575,1.575,0,0,0,.441,1.145c2.666,3.023,5.306,6.067,7.976,9.087a2.357,2.357,0,0,1,.632,1.67q-.016,29.229-.009,58.457c0,1.531-.774,2.05-2.171,1.453-2.512-1.072-5.025-2.144-7.528-3.238a1.379,1.379,0,0,0-1.213-.005c-2.5,1.092-5.021,2.147-7.526,3.237A3.406,3.406,0,0,1,29.2,80q-13.706-.009-27.412,0C.411,79.995.013,79.6.013,78.229q0-14.594,0-29.188m28.384.072q0-13.828.016-27.655c0-.663-.144-.833-.821-.831q-12.093.04-24.187,0c-.667,0-.829.151-.828.824q.031,27.574,0,55.149c0,.662.143.833.821.831q12.093-.04,24.187,0c.667,0,.83-.15.828-.824Q28.376,62.86,28.4,49.113M46.428,76.729c.016-.239.029-.346.029-.452q0-27.5.014-54.994c0-.548-.17-.651-.675-.649-4.623.018-9.246.029-13.868-.008-.743-.006-.974.122-.973.932q.042,27.093.022,54.187v.85c.354.1.579-.094.815-.195,1.925-.816,3.86-1.613,5.757-2.491a2.613,2.613,0,0,1,2.369.01c2.118.959,4.269,1.848,6.509,2.809M24.487,7.742c4.083,0,8.165-.012,12.247.014.562,0,.727-.13.707-.7-.046-1.315-.032-2.632,0-3.948.009-.431-.132-.533-.544-.532q-12.368.016-24.737,0c-.417,0-.55.109-.541.536.026,1.315.041,2.633-.005,3.948-.02.577.153.7.71.7,4.055-.025,8.111-.014,12.167-.014M8.7,12.893c8.269,0,16.352,0,24.436,0,.182,0,.4.066.538-.09.7-.782,1.39-1.575,2.176-2.47-8.28,0-16.363,0-24.447,0a.816.816,0,0,0-.717.258c-.615.736-1.25,1.454-1.986,2.305m22.555,2.65a1.833,1.833,0,0,0-.288-.058q-12.049,0-24.1,0c-.208,0-.428-.048-.6.15-.668.779-1.343,1.552-2.1,2.43h1.06c6.958,0,13.919-.115,20.873.065,2.291.059,3.909-.512,5.065-2.439l.091-.147m13.621,2.508c-2.026-2.317-3.95-4.505-5.857-6.709-.323-.373-.472-.137-.674.1-.863.991-1.731,1.976-2.6,2.966-1.03,1.179-2.058,2.361-3.111,3.57a1.117,1.117,0,0,0,.229.076c3.941,0,7.883,0,12.007,0" transform="translate(0 0)"/>
        <path id="Trazado_181693" data-name="Trazado 181693" d="M37.774,124.184q0,13.747.017,27.494c0,.674-.161.826-.828.824q-12.093-.039-24.187,0c-.678,0-.822-.169-.821-.831q.03-27.574,0-55.149c0-.674.161-.826.828-.824q12.093.039,24.187,0c.678,0,.823.169.821.831q-.036,13.828-.016,27.655M24.8,146.034c1.289,0,2.578.012,3.867,0a5.152,5.152,0,0,0,1.89-9.958c-.2-.084-.559-.042-.517-.38.031-.246.347-.2.533-.262a6.367,6.367,0,0,0,4.562-5.742c.126-1.132-.416-1.707-1.567-1.715-.994-.007-1.988-.027-2.981.01-.437.016-.58-.134-.679-.544a2.51,2.51,0,0,0-2.614-2.045c-1.665-.012-3.33-.015-5,0a2.491,2.491,0,0,0-2.56,2.106c-.082.468-.287.476-.63.473-.994-.009-1.987-.007-2.981,0-1.2.006-1.634.471-1.591,1.682a6.429,6.429,0,0,0,4.523,5.768c.208.069.572.02.584.3s-.348.266-.558.353a5.15,5.15,0,0,0,1.927,9.952c1.262.013,2.525,0,3.787,0M14.523,108.563A10.319,10.319,0,1,0,24.921,98.3a10.322,10.322,0,0,0-10.4,10.267" transform="translate(-9.377 -75.071)" fill="#e5e2dc"/>
        <path id="Trazado_181694" data-name="Trazado 181694" d="M159.089,151.8c-2.241-.961-4.391-1.85-6.509-2.809a2.614,2.614,0,0,0-2.369-.01c-1.9.878-3.832,1.675-5.757,2.491-.236.1-.461.292-.816.195v-.85q0-27.094-.021-54.187c0-.81.23-.938.973-.932,4.623.036,9.245.026,13.868.008.5,0,.676.1.675.649q-.024,27.5-.014,54.994c0,.107-.013.214-.029.452m-12.9-44.455c0,2.469,0,4.939,0,7.408,0,1.169.437,1.6,1.6,1.6q3.543.007,7.086,0c1.155,0,1.628-.455,1.629-1.6q.012-7.449,0-14.9c0-1.094-.487-1.559-1.585-1.562q-3.543-.01-7.086,0c-1.22,0-1.642.42-1.644,1.64-.006,2.469,0,4.939,0,7.408m5.2,14.175h3.3c1.853,0,1.828,0,1.847-1.891.006-.574-.162-.709-.717-.7-2.573.029-5.147.013-7.721.013-1.947,0-1.927,0-1.918,1.971,0,.5.131.632.627.621,1.527-.033,3.056-.012,4.584-.012m-1.365,23.224h2.009c1.954,0,1.932,0,1.92-1.976,0-.513-.163-.622-.64-.615-1.714.027-3.429.01-5.144.01-2.064,0-2.049,0-1.99,2.057.012.428.134.543.549.533,1.1-.027,2.2-.009,3.295-.009m-.574-18.063h1.285c2,0,1.985,0,1.925-2.047-.012-.422-.127-.549-.546-.542-1.312.024-2.624.009-3.936.009-2.066,0-2.053,0-2,2.047.011.413.109.557.538.543.909-.031,1.821-.009,2.731-.009m-.008,2.58h-1.285c-2.056,0-2.04,0-1.978,2.068.013.443.165.526.56.52,1.312-.02,2.624-.008,3.936-.007,2.078,0,2.062,0,1.986-2.068-.016-.448-.177-.529-.568-.519-.883.022-1.767.007-2.651.007" transform="translate(-112.661 -75.067)" fill="#d4cdc1"/>
        <path id="Trazado_181695" data-name="Trazado 181695" d="M66.735,17.107c-4.056,0-8.111-.012-12.167.014-.557,0-.731-.123-.71-.7.047-1.314.031-2.632,0-3.948-.008-.427.125-.536.541-.535q12.368.017,24.737,0c.412,0,.553.1.544.533-.027,1.315-.041,2.633,0,3.948.02.572-.145.706-.707.7-4.082-.026-8.165-.014-12.247-.014" transform="translate(-42.248 -9.365)" fill="#c0c7d0"/>
        <path id="Trazado_181696" data-name="Trazado 181696" d="M40.363,50.49c.737-.852,1.372-1.57,1.986-2.305a.816.816,0,0,1,.717-.258c8.083,0,16.167,0,24.447,0-.786.895-1.476,1.687-2.177,2.469-.139.156-.355.09-.538.09-8.083,0-16.167,0-24.436,0" transform="translate(-31.663 -37.596)" fill="#86909d"/>
        <path id="Trazado_181697" data-name="Trazado 181697" d="M46.42,71.882l-.091.147c-1.156,1.926-2.774,2.5-5.065,2.439-6.953-.18-13.914-.065-20.873-.065H19.332c.761-.878,1.435-1.651,2.1-2.43.17-.2.39-.15.6-.15q12.049,0,24.1,0a1.848,1.848,0,0,1,.288.058" transform="translate(-15.165 -56.339)" fill="#86909d"/>
        <path id="Trazado_181698" data-name="Trazado 181698" d="M163.662,58.624c-4.124,0-8.066,0-12.007,0a1.117,1.117,0,0,1-.229-.076c1.053-1.209,2.081-2.391,3.111-3.57.864-.99,1.733-1.975,2.6-2.966.2-.232.351-.468.674-.1,1.906,2.2,3.831,4.392,5.857,6.709" transform="translate(-118.786 -40.572)" fill="#c0c7d0"/>
        <path id="Trazado_181699" data-name="Trazado 181699" d="M34.181,254.075c-1.262,0-2.525.011-3.787,0a5.15,5.15,0,0,1-1.927-9.952c.21-.087.571-.059.558-.353s-.377-.236-.584-.3a6.429,6.429,0,0,1-4.523-5.768c-.042-1.212.393-1.676,1.591-1.682.994-.005,1.988-.006,2.981,0,.343,0,.547,0,.63-.473a2.491,2.491,0,0,1,2.56-2.106c1.665-.017,3.33-.013,5,0a2.51,2.51,0,0,1,2.614,2.045c.1.41.242.56.679.544.992-.037,1.987-.017,2.981-.01,1.152.008,1.694.584,1.567,1.715a6.367,6.367,0,0,1-4.563,5.743c-.186.064-.5.016-.533.262-.042.338.313.3.517.38a5.152,5.152,0,0,1-1.89,9.959c-1.289.015-2.578,0-3.867,0m-.015-2.575c1.262,0,2.523.01,3.785,0a2.586,2.586,0,1,0,.012-5.165q-3.745-.016-7.489,0a2.585,2.585,0,1,0-.012,5.165c1.235.012,2.469,0,3.7,0m-2.52-11.613h.012c0,1.1.011,2.2-.006,3.3-.006.381.052.579.514.569,1.367-.03,2.735-.027,4.1,0,.439.008.535-.15.532-.557q-.023-3.338.006-6.677c0-.375-.095-.519-.491-.513q-2.091.029-4.182,0c-.393-.006-.5.124-.494.5.022,1.126.008,2.252.008,3.378m-2.558-.2c-.219-.293.278-.933-.3-1.037-.62-.111-1.6-.339-1.861.12s.477,1.086.963,1.5c.3.252.663.665,1.019.509s.07-.675.175-1.089m10.368,1.147a2.96,2.96,0,0,0,2.117-2.2c-2.637.033-2.177-.607-2.117,2.2" transform="translate(-18.761 -183.112)"/>
        <path id="Trazado_181700" data-name="Trazado 181700" d="M23.875,118.019a10.319,10.319,0,1,1,10.212,10.375,10.309,10.309,0,0,1-10.212-10.375M34.2,110.333c-1.29,0-1.29,0-1.29,1.258,0,.242,0,.483,0,.725a1.707,1.707,0,0,0,1.819,1.891,3.454,3.454,0,0,1,.76,6.791c-.411.122-.837.2-1.242.333a1.926,1.926,0,0,0-.894,3.076c.3.373.68.686,1,1.046a.845.845,0,0,0,.851.276,7.732,7.732,0,0,0-1.008-15.4m-3.868,1.006c-2.793,1.883-4.116,4.309-3.833,7.481a7.6,7.6,0,0,0,4.136,6.124,4.948,4.948,0,0,1-.2-2.782,4.659,4.659,0,0,1,4.015-3.556c.581-.115,1.07-.354,1-1.023s-.584-.777-1.179-.821a4.228,4.228,0,0,1-3.94-4.13c-.012-.366,0-.732,0-1.293" transform="translate(-18.729 -84.527)"/>
        <path id="Trazado_181701" data-name="Trazado 181701" d="M155.541,116.792c0-2.469,0-4.939,0-7.409,0-1.22.424-1.638,1.645-1.64q3.543-.005,7.086,0c1.1,0,1.583.468,1.585,1.562q.014,7.449,0,14.9c0,1.146-.474,1.6-1.63,1.6q-3.543.008-7.086,0c-1.163,0-1.6-.435-1.6-1.6-.007-2.469,0-4.939,0-7.408m2.583-.04c0,1.934.014,3.868-.009,5.8-.006.52.152.69.683.674,1.288-.037,2.579-.026,3.867,0,.426.007.62-.076.618-.567q-.022-5.883.011-11.766c0-.476-.169-.585-.608-.577-1.316.023-2.633.032-3.948,0-.508-.014-.632.154-.626.639.025,1.934.01,3.868.012,5.8" transform="translate(-122.014 -84.518)"/>
        <path id="Trazado_181702" data-name="Trazado 181702" d="M160.689,206.06c-1.528,0-3.057-.021-4.584.012-.5.011-.624-.124-.627-.621-.009-1.972-.028-1.971,1.918-1.971,2.574,0,5.147.016,7.721-.013.554-.006.723.129.717.7-.019,1.891.005,1.891-1.848,1.891h-3.3" transform="translate(-121.965 -159.61)"/>
        <path id="Trazado_181703" data-name="Trazado 181703" d="M159.273,313.816c-1.1,0-2.2-.018-3.295.009-.415.01-.536-.1-.549-.533-.059-2.057-.074-2.057,1.99-2.057,1.715,0,3.43.016,5.144-.01.477-.008.637.1.64.615.012,1.976.033,1.976-1.92,1.976h-2.009" transform="translate(-121.915 -244.143)"/>
        <path id="Trazado_181704" data-name="Trazado 181704" d="M158.706,230.019c-.91,0-1.822-.022-2.731.009-.428.015-.526-.129-.538-.543-.057-2.048-.07-2.047,2-2.047,1.312,0,2.624.015,3.936-.009.419-.008.534.119.546.542.06,2.048.075,2.047-1.925,2.047h-1.285" transform="translate(-121.922 -178.409)"/>
        <path id="Trazado_181705" data-name="Trazado 181705" d="M158.684,251.387c.884,0,1.768.015,2.651-.007.391-.01.552.072.568.519.075,2.068.092,2.068-1.986,2.068-1.312,0-2.624-.012-3.936.008-.394.006-.546-.077-.56-.52-.062-2.068-.079-2.068,1.978-2.068h1.285" transform="translate(-121.907 -197.197)"/>
        <path id="Trazado_181706" data-name="Trazado 181706" d="M48.2,298.446c-1.235,0-2.469.01-3.7,0a2.585,2.585,0,1,1,.012-5.165q3.744-.016,7.489,0a2.586,2.586,0,1,1-.012,5.165c-1.262.012-2.523,0-3.785,0M46.969,295.9c0-1.327,0-1.327-.946-1.328-1.625,0-1.625,0-1.625.961,0,1.609,0,1.609.977,1.609,1.594,0,1.594,0,1.594-1.243m5.161-.062c0-1.265,0-1.265-.928-1.265-1.643,0-1.643,0-1.644.943,0,1.627,0,1.627.959,1.627,1.612,0,1.612,0,1.612-1.3" transform="translate(-32.797 -230.058)" fill="#ffd1a2"/>
        <path id="Trazado_181707" data-name="Trazado 181707" d="M59.75,249.273c0-1.126.014-2.253-.008-3.378-.007-.379.1-.51.494-.5q2.091.032,4.183,0c.4-.006.494.138.491.513q-.025,3.338-.005,6.677c0,.408-.094.566-.532.557-1.367-.026-2.735-.029-4.1,0-.461.01-.52-.188-.514-.569.017-1.1.006-2.2.006-3.3H59.75" transform="translate(-46.865 -192.498)" fill="#c0c7d0"/>
        <path id="Trazado_181708" data-name="Trazado 181708" d="M39.851,258.116c-.106.414.166.94-.175,1.089-.357.157-.721-.257-1.019-.509-.487-.412-1.232-1.025-.963-1.5s1.241-.231,1.861-.12c.576.1.079.744.3,1.037" transform="translate(-29.524 -201.545)" fill="#86909d"/>
        <path id="Trazado_181709" data-name="Trazado 181709" d="M95.766,259.623c-.059-2.808-.519-2.168,2.117-2.2a2.96,2.96,0,0,1-2.117,2.2" transform="translate(-75.072 -201.905)" fill="#86909d"/>
        <path id="Trazado_181710" data-name="Trazado 181710" d="M67.043,119.727a7.732,7.732,0,0,1,1.008,15.4.844.844,0,0,1-.851-.276c-.321-.36-.7-.673-1-1.046a1.926,1.926,0,0,1,.894-3.076c.405-.138.831-.211,1.242-.334a3.454,3.454,0,0,0-.76-6.791,1.707,1.707,0,0,1-1.819-1.891c0-.241,0-.483,0-.725,0-1.259,0-1.259,1.29-1.258" transform="translate(-51.575 -93.921)" fill="#f57c00"/>
        <path id="Trazado_181711" data-name="Trazado 181711" d="M39.73,124.393c0,.56-.01.927,0,1.293a4.228,4.228,0,0,0,3.94,4.13c.595.044,1.113.157,1.179.821s-.423.908-1,1.023a4.659,4.659,0,0,0-4.015,3.556,4.948,4.948,0,0,0,.2,2.782,7.6,7.6,0,0,1-4.136-6.124c-.283-3.172,1.04-5.6,3.833-7.481" transform="translate(-28.13 -97.581)" fill="#26ccda"/>
        <path id="Trazado_181712" data-name="Trazado 181712" d="M167.487,126.1c0-1.934.014-3.868-.011-5.8-.006-.485.117-.653.626-.639,1.315.035,2.632.027,3.948,0,.439-.008.611.1.608.577q-.031,5.883-.011,11.766c0,.491-.192.574-.618.567-1.289-.021-2.579-.033-3.867,0-.531.015-.689-.155-.683-.674.024-1.934.009-3.868.009-5.8" transform="translate(-131.378 -93.869)" fill="#fdd835"/>
        <path id="Trazado_181713" data-name="Trazado 181713" d="M56.393,300.653c0,1.243,0,1.243-1.594,1.243-.978,0-.978,0-.978-1.609,0-.962,0-.962,1.625-.961.946,0,.946,0,.946,1.328" transform="translate(-42.221 -234.808)"/>
        <path id="Trazado_181714" data-name="Trazado 181714" d="M80.335,300.591c0,1.305,0,1.305-1.612,1.3-.96,0-.96,0-.959-1.627,0-.944,0-.944,1.644-.943.928,0,.928,0,.928,1.265" transform="translate(-61.002 -234.808)"/>
      </g>
    </g>
    <g id="Grupo_120487" data-name="Grupo 120487" transform="translate(1060.733 1754.707)">
      <g id="Grupo_120486" data-name="Grupo 120486" clip-path="url(#clip-path-3)">
        <path id="Trazado_181715" data-name="Trazado 181715" d="M37.082,80a22.95,22.95,0,0,0-3.288-1.684q-16.274-7.874-32.571-15.7A1.863,1.863,0,0,1,0,60.7Q.038,39.939,0,19.182a1.754,1.754,0,0,1,1.124-1.816Q18.861,8.843,36.563.257a2.059,2.059,0,0,1,1.984,0q17.706,8.58,35.435,17.11A1.761,1.761,0,0,1,75.1,19.188q-.03,20.757,0,41.513a1.87,1.87,0,0,1-1.225,1.923Q56.249,71.092,38.643,79.609c-.218.105-.494.138-.623.391Zm10.3-48.629c.214,1.013.056,1.361-.859,1.806-2.362,1.148-4.718,2.309-7.1,3.416a1.03,1.03,0,0,0-.706,1.1q.025,19.194.013,38.388c0,.865,0,.868.81.479Q55.8,68.717,72.07,60.883a1.038,1.038,0,0,0,.681-1.114q-.028-19.233-.014-38.466v-.757c-.178.079-.268.115-.355.157-3.325,1.6-6.644,3.219-9.982,4.8-.468.221-.473.529-.472.932.006,4.326-.013,8.652.017,12.978a1.716,1.716,0,0,1-1.1,1.766c-2.635,1.238-5.25,2.518-7.873,3.781-1.461.7-2.158.263-2.159-1.371q0-6.411,0-12.822c0-.338.147-.77-.4-.874a.789.789,0,0,0-.124-.092Q33.127,21.51,15.973,13.218a.882.882,0,0,0-.87.015c-1.186.589-2.385,1.153-3.578,1.73Q7.784,16.773,4.033,18.59a1.35,1.35,0,0,0,.681.442Q16.781,24.866,28.849,30.7c1.069.517,1.207.8.959,1.883a1.424,1.424,0,0,1-1.957.249q-10.106-4.9-20.227-9.77L2.366,20.52v.563q0,19.426-.019,38.852c0,.59.3.74.7.935q14.892,7.185,29.781,14.375c1.14.55,2.284,1.092,3.5,1.673.015-.324.036-.551.036-.778q0-19.231.015-38.462a1,1,0,0,0-.72-1.1c-.723-.288-1.414-.658-2.114-1-.893-.439-1.058-.836-.775-1.824a1.315,1.315,0,0,1,1.806-.3c.738.377,1.511.688,2.231,1.094a1.364,1.364,0,0,0,1.439.024c2.387-1.19,4.8-2.319,7.194-3.5a1.407,1.407,0,0,1,1.937.3M71.056,18.594c-.3-.151-.594-.308-.9-.454q-6.142-2.966-12.285-5.928Q48.012,7.453,38.146,2.7c-.264-.127-.488-.351-.858-.17-3.1,1.512-6.2,3-9.331,4.51a2.052,2.052,0,0,0,.893.543q16.034,7.75,32.068,15.5a1.165,1.165,0,0,0,1.15,0c2.824-1.381,5.661-2.737,8.49-4.109.178-.087.409-.123.5-.375m-12.41,6.123a1.636,1.636,0,0,0-.78-.512q-6.14-2.975-12.286-5.936-9.9-4.78-19.8-9.558a.967.967,0,0,0-.949-.125c-2.119,1.049-4.25,2.073-6.5,3.163,1.163.566,2.229,1.087,3.3,1.6l29.7,14.336a.937.937,0,0,0,.94.113c2.1-1.038,4.208-2.041,6.374-3.085m.921,2.306a.934.934,0,0,0-.282.016c-1.922.923-3.837,1.861-5.767,2.768-.384.181-.344.464-.344.773,0,3.648.007,7.3-.008,10.945,0,.512.043.718.616.43q2.613-1.314,5.267-2.546a.825.825,0,0,0,.526-.9c-.02-2.163-.009-4.326-.009-6.488v-5" transform="translate(0 0)" fill="#050402"/>
        <path id="Trazado_181716" data-name="Trazado 181716" d="M41.655,111.406c-.283.988-.118,1.385.775,1.824.7.344,1.391.713,2.113,1a1,1,0,0,1,.72,1.1q-.027,19.231-.015,38.462c0,.227-.02.454-.036.778-1.216-.581-2.36-1.123-3.5-1.673q-14.891-7.188-29.781-14.375c-.4-.195-.706-.344-.705-.935q.038-19.426.019-38.852v-.563l5.258,2.539q10.115,4.882,20.227,9.77a1.423,1.423,0,0,0,1.957-.249,2.867,2.867,0,0,1,1.143.407,6.27,6.27,0,0,0,1.825.763M13.909,126.53a1.256,1.256,0,0,0,.817,1.156c3.321,1.6,6.635,3.208,9.957,4.8a1.188,1.188,0,0,0,1.687-.447,1.22,1.22,0,0,0-.685-1.665c-.856-.435-1.727-.84-2.592-1.257-2.43-1.173-4.857-2.354-7.293-3.516a1.215,1.215,0,0,0-1.891.927m7.67,8.078a1.038,1.038,0,0,0-.645-.949c-1.8-.879-3.6-1.757-5.41-2.6a1.089,1.089,0,0,0-1.5.581,1.038,1.038,0,0,0,.468,1.473c1.831.926,3.678,1.823,5.549,2.665a1.136,1.136,0,0,0,1.532-1.171" transform="translate(-8.88 -77.654)" fill="#fdd835"/>
        <path id="Trazado_181717" data-name="Trazado 181717" d="M196.932,107.64c.543.1.4.535.4.874q.009,6.411,0,12.822c0,1.634.7,2.075,2.159,1.371,2.623-1.263,5.238-2.543,7.873-3.781a1.716,1.716,0,0,0,1.1-1.766c-.029-4.326-.011-8.652-.017-12.978,0-.4,0-.71.472-.932,3.337-1.578,6.656-3.194,9.981-4.8.087-.042.177-.079.355-.158v.757q0,19.233.014,38.466a1.038,1.038,0,0,1-.681,1.114q-16.274,7.821-32.529,15.68c-.807.389-.81.387-.81-.479q0-19.194-.013-38.388a1.03,1.03,0,0,1,.706-1.1c2.381-1.107,4.737-2.268,7.1-3.416.916-.445,1.073-.792.859-1.806a12.583,12.583,0,0,0,3.025-1.481" transform="translate(-146.524 -77.751)" fill="#fdd835"/>
        <path id="Trazado_181718" data-name="Trazado 181718" d="M65.673,79.506a12.584,12.584,0,0,1-3.025,1.481,1.407,1.407,0,0,0-1.937-.3c-2.39,1.183-4.807,2.312-7.194,3.5a1.364,1.364,0,0,1-1.439-.024c-.72-.406-1.493-.718-2.231-1.094a1.315,1.315,0,0,0-1.807.3,6.266,6.266,0,0,1-1.825-.763,2.87,2.87,0,0,0-1.142-.407c.247-1.08.11-1.366-.96-1.883Q32.048,74.479,19.98,68.649a1.348,1.348,0,0,1-.681-.442q3.757-1.819,7.492-3.627c1.192-.577,2.392-1.141,3.578-1.73a.882.882,0,0,1,.87-.015q17.151,8.3,34.311,16.58a.817.817,0,0,1,.124.092" transform="translate(-15.265 -49.616)" fill="#fdd835"/>
        <path id="Trazado_181719" data-name="Trazado 181719" d="M176.859,27.9c-.09.251-.32.288-.5.375-2.829,1.371-5.666,2.727-8.49,4.109a1.165,1.165,0,0,1-1.15,0q-16.027-7.763-32.067-15.5a2.052,2.052,0,0,1-.893-.543c3.127-1.508,6.234-3,9.331-4.51.37-.181.594.043.858.17q9.866,4.753,19.728,9.514,6.143,2.964,12.285,5.928c.3.146.6.3.9.454" transform="translate(-105.802 -9.306)" fill="#fdd835"/>
        <path id="Trazado_181720" data-name="Trazado 181720" d="M128.019,56.893c-2.167,1.044-4.279,2.047-6.374,3.085a.937.937,0,0,1-.94-.113L91,45.528c-1.068-.516-2.134-1.038-3.3-1.6,2.247-1.091,4.379-2.114,6.5-3.163a.967.967,0,0,1,.949.125q9.9,4.777,19.8,9.559,6.144,2.966,12.286,5.936a1.635,1.635,0,0,1,.78.512" transform="translate(-69.373 -32.176)" fill="#f57c00"/>
        <path id="Trazado_181721" data-name="Trazado 181721" d="M260.774,129.284v5c0,2.163-.011,4.326.009,6.488a.825.825,0,0,1-.526.9q-2.651,1.236-5.267,2.546c-.573.288-.618.082-.616-.43.014-3.648.008-7.3.008-10.945,0-.308-.04-.592.344-.773,1.929-.908,3.844-1.846,5.767-2.768a.935.935,0,0,1,.282-.016" transform="translate(-201.206 -102.261)" fill="#f57c00"/>
        <path id="Trazado_181722" data-name="Trazado 181722" d="M24.062,229.669a1.215,1.215,0,0,1,1.891-.927c2.436,1.162,4.863,2.343,7.293,3.516.865.417,1.736.822,2.592,1.257a1.22,1.22,0,0,1,.685,1.665,1.188,1.188,0,0,1-1.687.447c-3.322-1.594-6.636-3.206-9.957-4.8a1.256,1.256,0,0,1-.817-1.156" transform="translate(-19.033 -180.794)" fill="#050402"/>
        <path id="Trazado_181723" data-name="Trazado 181723" d="M31.683,258.638a1.136,1.136,0,0,1-1.532,1.171c-1.87-.843-3.718-1.739-5.549-2.665a1.038,1.038,0,0,1-.468-1.472,1.089,1.089,0,0,1,1.5-.581c1.815.842,3.613,1.72,5.41,2.6a1.038,1.038,0,0,1,.645.949" transform="translate(-18.984 -201.684)" fill="#050402"/>
      </g>
    </g>
  </g>
</svg>
