<svg id="Grupo_120791" data-name="Grupo 120791" xmlns="http://www.w3.org/2000/svg" xmlns:xlink="http://www.w3.org/1999/xlink" width="100" height="81.644" viewBox="0 0 100 81.644">
  <defs>
    <clipPath id="clip-path">
      <rect id="Rectángulo_37740" data-name="Rectángulo 37740" width="100" height="81.644" fill="none"/>
    </clipPath>
  </defs>
  <g id="Grupo_120769" data-name="Grupo 120769" clip-path="url(#clip-path)">
    <path id="Trazado_182303" data-name="Trazado 182303" d="M72.445,1.54c.347-1.25.7-1.53,1.986-1.531,4.035,0,8.07-.016,12.1,0a7.333,7.333,0,0,1,7.6,7.641q.01,23.38.016,46.759c0,1.207-.283,2.388-.187,3.6.051.645.268.942.95.855.416-.052.847.02,1.267-.015A3.384,3.384,0,0,1,100,61.116v4.491A3.612,3.612,0,0,1,96.969,67.7c-.462.017-.576.457-.725.823q-1.635,4.008-3.281,8.011a7.406,7.406,0,0,1-7.521,5.077q-5.124.005-10.249,0a7.318,7.318,0,0,1-7.253-4.883c-.3-.718-.594-1.438-.9-2.151A1.857,1.857,0,0,0,65.2,73.376a1.876,1.876,0,0,0-1.835,1.207c-.371.828-.672,1.688-1.047,2.514a7.109,7.109,0,0,1-6.725,4.49q-5.561.117-11.127,0a7.109,7.109,0,0,1-6.785-4.544c-.354-.8-.653-1.625-1.009-2.425a1.906,1.906,0,0,0-1.91-1.243,1.869,1.869,0,0,0-1.8,1.244c-.366.866-.7,1.748-1.1,2.6a7.153,7.153,0,0,1-6.608,4.371c-1.591.067-3.188.018-4.782.016-1.379,0-1.678-.224-2.1-1.531a1.783,1.783,0,0,1,2.108-1.413c1.526.061,3.057.038,4.584.008a4.088,4.088,0,0,0,3.342-1.5,3.745,3.745,0,0,0,.959-1.545,23.39,23.39,0,0,1,1.534-3.342,5.03,5.03,0,0,1,8.753,1.84c.2.614.479,1.2.739,1.8A4.275,4.275,0,0,0,44.5,78.662c3.667.046,7.335.034,11,0a4.006,4.006,0,0,0,3.323-1.52,3.693,3.693,0,0,0,.941-1.529,21.316,21.316,0,0,1,1.564-3.379c3.117-3.033,7-2.233,8.658,1.784.26.63.5,1.27.782,1.89A4.334,4.334,0,0,0,74.9,78.663q5.513.056,11.027,0a4.024,4.024,0,0,0,3.322-1.537c1.206-1.568,1.674-3.47,2.387-5.261.447-1.04.9-2.076,1.34-3.12.462-1.107.454-1.11-.729-1.111H44.211c-1.513,0-1.766-.177-2.129-1.452.375-1.275.648-1.457,2.239-1.457q25.774,0,51.547-.006c1.3,0,1.2.317,1.2-1.266a1.4,1.4,0,0,0-.026-.193c.075-1.472.075-1.472-1.354-1.472q-44.463,0-88.927,0c-.421,0-.841.037-1.262.056a4.62,4.62,0,0,0-.48-.059c-2.088-.044-2.044-.042-2.092,2.067-.018.787.268.888.946.884,3.9-.028,7.81-.014,11.715-.014q10.787,0,21.575,0c1.423,0,1.757.259,1.979,1.458-.2,1.2-.534,1.448-1.968,1.448q-14.818,0-29.635-.014c-.8,0-.932.149-.611.9,1.023,2.384,1.985,4.794,2.963,7.2a4.372,4.372,0,0,0,3.99,2.94,1.588,1.588,0,0,1,1.651,1.454c-.308,1.227-.841,1.62-2.1,1.469a7.215,7.215,0,0,1-6.176-4.57q-1.726-4.073-3.34-8.194a1.68,1.68,0,0,0-1.507-1.251A2.787,2.787,0,0,1,.023,64.777q-.046-1.511,0-3.025A2.866,2.866,0,0,1,2.688,58.9a25.573,25.573,0,0,1,2.632-.041c.373,0,.627-.055.658-.5a6.719,6.719,0,0,0,.044-2.505,5.89,5.89,0,0,1-.149-1.743q0-23.176,0-46.353A7.349,7.349,0,0,1,13.656.009Q40.589,0,67.522.007c1.4,0,1.789.294,2.065,1.527-.19,1.048-.84,1.418-1.874,1.414-5.691-.022-11.382-.01-17.073-.01q-18.487,0-36.974,0a4.351,4.351,0,0,0-3.512,1.323A4.18,4.18,0,0,0,8.8,7.662q0,20.1.01,40.2c0,.223-.155.512.166.7l1.241-2.1a4.379,4.379,0,0,0,1.531-4.055c-.113-.83,0-1.69-.025-2.535a4.948,4.948,0,0,1,1.607-3.925c1.268-1.215,2.495-2.474,3.73-3.723.991-1,.992-1.656,0-2.657-1.3-1.319-2.619-2.627-3.932-3.936a4.59,4.59,0,0,1-1.408-3.413c.016-3.058.011-6.116,0-9.175a4.449,4.449,0,0,1,1.315-3.253c.82-.836,1.659-1.654,2.48-2.489a4.679,4.679,0,0,1,3.5-1.44q4.49.014,8.98,0a4.67,4.67,0,0,1,3.5,1.443q1.948,1.986,3.933,3.934c.957.945,1.648.949,2.594.016,1.32-1.3,2.635-2.61,3.933-3.935a4.666,4.666,0,0,1,3.492-1.458q4.538.01,9.077,0a4.674,4.674,0,0,1,3.5,1.44q1.949,1.984,3.932,3.936c.958.947,1.643.957,2.594.022,1.276-1.254,2.557-2.5,3.792-3.8a4.926,4.926,0,0,1,3.827-1.6c1.919.028,3.839.011,5.759.006,5.669-.016,4.826-.267,8.884,3.765a4.766,4.766,0,0,1,1.47,3.586q-.038,4.44,0,8.882a4.816,4.816,0,0,1-1.529,3.66c-1.211,1.181-2.4,2.39-3.591,3.587-1.287,1.288-1.293,1.81-.033,3.071,1.219,1.22,2.427,2.45,3.662,3.654a4.667,4.667,0,0,1,1.488,3.575c-.024,1.431-.011,2.863,0,4.294,0,.282-.087.58.138.839,1.014,1.167,1.844,2.466,2.785,3.754V47.7q0-19.96,0-39.92c0-3.044-1.8-4.839-4.859-4.843-3.969-.006-7.939-.024-11.908.013-1.068.01-1.755-.342-2-1.413M66.814,57.409a8.48,8.48,0,0,1,.37-1.6c.691-1.565.145-2.666-1.124-3.633-.691-.527-1.235-1.243-1.894-1.818a1.37,1.37,0,0,0-1.791-.023c-.654.421-.515.9-.275,1.494a27.536,27.536,0,0,1,1.473,5.625c.143,1.474.142,1.44,2.433,1.407,1.229-.018.654-.91.807-1.455m-33.614,0c.027,1.79.043,1.4,1.393,1.44.1,0,.195,0,.292,0,1.42,0,1.42,0,1.555-1.395a27.329,27.329,0,0,1,1.619-5.985.761.761,0,0,0-.27-1.006,1.389,1.389,0,0,0-2.016-.046c-1.066,1-2.074,2.057-3.115,3.082a.672.672,0,0,0-.2.7c.253,1.068.494,2.139.74,3.21m3.141-42.532a5.135,5.135,0,0,1-3.035-1.612c-1.194-1.242-2.451-2.424-3.641-3.669a2.511,2.511,0,0,0-1.99-.812c-2.568.03-5.141.091-7.7-.02a3.379,3.379,0,0,0-3.225,1.543,10.614,10.614,0,0,1-.791.717,3.4,3.4,0,0,0-1.317,3.146c.09,2.567.047,5.139.014,7.708a2.4,2.4,0,0,0,.774,1.9q2,1.93,3.936,3.93a4.359,4.359,0,0,1-.012,6.365,28.776,28.776,0,0,1-3.125,3.077c-1.71,1.29-1.7,2.958-1.5,4.757.063.023.1.051.123.041.118-.052.235-.109.348-.171a8.807,8.807,0,0,1,9.744.58,16.207,16.207,0,0,1,4.727,5.251c.581.967,1.082,1.983,1.73,3.181.789-.855,1.477-1.675,2.244-2.414a4.216,4.216,0,0,1,5.367-.625c.552.337.733.222,1.02-.264A16.931,16.931,0,0,1,43.705,43.1c3.988-3.356,8.716-3.338,12.667.05a17.712,17.712,0,0,1,3.659,4.408c.23.384.367.561.875.259a4.26,4.26,0,0,1,5.6.685c.721.7,1.381,1.46,2.052,2.175a1.712,1.712,0,0,0,.613-.912,20.617,20.617,0,0,1,4.091-5.9c2.866-2.763,6.146-4.077,10.132-2.751L85.354,42a14.915,14.915,0,0,1,.01-1.665,2.97,2.97,0,0,0-1.131-2.722c-1.127-1.018-2.14-2.163-3.247-3.206a5.3,5.3,0,0,1-1.714-3.175A5.049,5.049,0,0,1,81.035,27.3c1.032-.973,1.989-2.026,2.98-3.043a2.871,2.871,0,0,0,1.363-2.8c-.094-1.782-.024-3.572-.024-5.359,0-3.878-.007-3.871-2.811-6.607a2.3,2.3,0,0,0-1.733-.713c-2.6.022-5.2.088-7.8-.022a3.462,3.462,0,0,0-3.31,1.563c-.951.93-1.937,1.828-2.845,2.8a4.974,4.974,0,0,1-3.96,1.75,5.051,5.051,0,0,1-3.037-1.592c-1.122-1.172-2.323-2.27-3.425-3.46a3.018,3.018,0,0,0-2.479-1.05c-2.5.062-5,.1-7.5-.011a3.449,3.449,0,0,0-3.3,1.571c-.942.921-1.921,1.807-2.815,2.772a4.993,4.993,0,0,1-4,1.77M49.952,58.84v.016c3.348,0,6.7-.013,10.043.012.594,0,.788-.106.694-.754a24.06,24.06,0,0,0-1.924-6.708A16.134,16.134,0,0,0,53.971,45a6.053,6.053,0,0,0-7.892-.032,11.62,11.62,0,0,0-2.342,2.33,22.512,22.512,0,0,0-4.376,10.68c-.1.708.029.883.742.875,3.282-.034,6.566-.015,9.848-.015m30.429,0v.016h9.952c.415,0,.839.116.742-.617A20.632,20.632,0,0,0,85.414,45.9c-3.191-3.193-6.681-3.163-9.968-.063a10.237,10.237,0,0,0-.74.776,22.112,22.112,0,0,0-4.951,11.355c-.1.662.041.894.772.884,3.284-.041,6.569-.018,9.854-.018m-60.8,0v.016c3.317,0,6.635-.018,9.951.015.658.007.872-.181.743-.817-.148-.732-.222-1.48-.4-2.2-1-4.007-2.629-7.69-5.821-10.463-2.87-2.493-5.939-2.549-8.791-.052-3.828,3.352-5.551,7.8-6.29,12.724-.107.711.156.794.757.79,3.284-.022,6.569-.01,9.854-.01" transform="translate(0 0)" fill="#040303"/>
    <path id="Trazado_182304" data-name="Trazado 182304" d="M101.2,5.882a1.724,1.724,0,0,0,2,1.413c3.969-.037,7.938-.019,11.908-.013,3.058,0,4.859,1.8,4.859,4.843q0,19.96,0,39.92v.827c-.941-1.288-1.772-2.587-2.785-3.754-.224-.258-.135-.557-.138-.839-.01-1.431-.023-2.863,0-4.294a4.667,4.667,0,0,0-1.488-3.575c-1.234-1.2-2.443-2.434-3.662-3.654-1.261-1.262-1.255-1.783.033-3.071,1.2-1.2,2.38-2.405,3.591-3.587a4.816,4.816,0,0,0,1.529-3.66q-.041-4.44,0-8.882a4.768,4.768,0,0,0-1.47-3.586c-4.058-4.032-3.215-3.781-8.884-3.765-1.92.005-3.839.023-5.759-.006a4.926,4.926,0,0,0-3.827,1.6c-1.235,1.294-2.516,2.545-3.792,3.8-.951.934-1.637.925-2.594-.022q-1.977-1.957-3.932-3.936a4.675,4.675,0,0,0-3.5-1.44q-4.539.012-9.077,0a4.666,4.666,0,0,0-3.492,1.458c-1.3,1.325-2.613,2.633-3.932,3.935-.946.934-1.637.929-2.594-.016q-1.98-1.954-3.933-3.934a4.669,4.669,0,0,0-3.5-1.443q-4.49.011-8.98,0a4.68,4.68,0,0,0-3.5,1.44c-.821.835-1.66,1.653-2.48,2.489a4.45,4.45,0,0,0-1.315,3.253q.014,4.588,0,9.175a4.59,4.59,0,0,0,1.408,3.413c1.313,1.309,2.628,2.617,3.932,3.936.99,1,.988,1.655,0,2.657-1.235,1.249-2.462,2.508-3.73,3.723a4.949,4.949,0,0,0-1.607,3.925c.029.845-.088,1.7.025,2.535a4.379,4.379,0,0,1-1.531,4.055c-.015-.974-.042-1.948-.043-2.923Q38.918,28.242,38.909,8.6a4.351,4.351,0,0,1,3.512-1.323q18.487.006,36.974,0c5.691,0,11.382-.012,17.072.01,1.034,0,1.684-.366,1.874-1.414l2.858.005" transform="translate(-28.754 -4.343)" fill="#efcfa3"/>
    <path id="Trazado_182305" data-name="Trazado 182305" d="M61.23,253.583c.363,1.275.616,1.452,2.129,1.452h48.034c1.183,0,1.191,0,.729,1.111-.436,1.044-.893,2.081-1.34,3.12q-9.069,0-18.137-.016c-.63,0-.929.055-.563.792.431.868.749,1.792,1.107,2.7a2.711,2.711,0,0,0,2.628,1.8q6.289,0,12.579-.006a4.025,4.025,0,0,1-3.322,1.537c-3.675.032-7.352.038-11.027,0a4.334,4.334,0,0,1-4.128-2.753c-.283-.62-.521-1.26-.782-1.89-1.658-4.017-5.541-4.817-8.658-1.785-.363-.433-.862-.381-1.348-.381q-8.282,0-16.563,0c-1.132,0-1.18.078-.736,1.152.3.718.613,1.428.9,2.151a2.635,2.635,0,0,0,2.872,1.974q6.187.007,12.373.01a4.006,4.006,0,0,1-3.323,1.52c-3.668.032-7.336.044-11,0a4.276,4.276,0,0,1-4.113-2.745c-.26-.593-.537-1.183-.739-1.8a5.03,5.03,0,0,0-8.753-1.84c-.2-.454-.6-.426-.995-.425-1.2,0-2.4,0-3.606,0-4.483,0-8.967.009-13.45-.01-.639,0-1.035.05-.691.828.393.889.735,1.8,1.138,2.684a2.815,2.815,0,0,0,2.831,1.793c4.093-.034,8.186.006,12.279.017a4.087,4.087,0,0,1-3.342,1.5c-1.528.031-3.059.054-4.584-.008a1.783,1.783,0,0,0-2.108,1.413l-2.836.033a1.589,1.589,0,0,0-1.651-1.454,4.372,4.372,0,0,1-3.99-2.94c-.978-2.4-1.94-4.813-2.963-7.2-.322-.75-.194-.9.611-.9q14.818.036,29.635.014c1.433,0,1.763-.251,1.968-1.449l2.943,0" transform="translate(-19.148 -187.403)" fill="#be8475"/>
    <path id="Trazado_182306" data-name="Trazado 182306" d="M124.828,70.3c-3.986-1.325-7.267-.012-10.132,2.752a20.6,20.6,0,0,0-4.091,5.9,1.716,1.716,0,0,1-.613.912c-.671-.714-1.332-1.475-2.052-2.175a4.259,4.259,0,0,0-5.6-.685c-.508.3-.645.125-.875-.259a17.72,17.72,0,0,0-3.659-4.408c-3.951-3.388-8.679-3.407-12.667-.051a16.941,16.941,0,0,0-3.674,4.394c-.287.485-.468.6-1.02.264a4.216,4.216,0,0,0-5.367.625c-.767.738-1.455,1.559-2.244,2.414-.648-1.2-1.149-2.213-1.73-3.181a16.2,16.2,0,0,0-4.727-5.251,8.807,8.807,0,0,0-9.744-.581c-.114.062-.23.12-.348.171-.022.01-.06-.019-.123-.041-.208-1.8-.214-3.467,1.5-4.757a28.877,28.877,0,0,0,3.125-3.078A4.36,4.36,0,0,0,60.8,56.9q-1.933-2-3.936-3.93a2.4,2.4,0,0,1-.774-1.9c.033-2.569.076-5.142-.013-7.708a3.4,3.4,0,0,1,1.317-3.146c.284-.212.528-.477.791-.717,2.79.01,5.58.045,8.369.019a3.457,3.457,0,0,1,2.606,1.069c1.216,1.216,2.515,2.361,3.627,3.665a2.977,2.977,0,0,0,4.993-.182,4.992,4.992,0,0,0,4-1.77c.894-.965,1.874-1.851,2.815-2.772,2.828,0,5.657.028,8.484-.01a3.532,3.532,0,0,1,2.689,1.123c1.19,1.2,2.472,2.322,3.564,3.6a2.978,2.978,0,0,0,5-.175,4.971,4.971,0,0,0,3.96-1.75c.908-.971,1.894-1.869,2.845-2.8,2.147,0,4.294-.005,6.44.013,3.87.033,2.93-.38,5.939,2.436a5.785,5.785,0,0,1,1.911,4.656c-.039,2.275.01,4.553.02,6.829-.99,1.018-1.948,2.07-2.98,3.044a5.047,5.047,0,0,0-1.762,3.932c-1.826,1.568-1.914,3.238-.257,4.9q1.827,1.829,3.656,3.655a1.788,1.788,0,0,1,.72,1.324m-14.992-15.33c-.852-.447-1.211-1.5-2.2-1.778.887-1.08.795-1.867-.313-2.685a4.352,4.352,0,0,0-5.693.413c-1.837,1.785-3.59,3.657-5.454,5.411A5.332,5.332,0,0,0,94.259,60.6a2.755,2.755,0,0,0-.586,4.461c2.016,2.113,4.113,4.149,6.186,6.206.983.975,3.606,1.051,4.285-.726a4.743,4.743,0,0,0,3.507-1.181c2.129-2.1,4.277-4.182,6.333-6.352a4.3,4.3,0,0,0-.093-6c-.533-.569-1.124-1.085-1.645-1.664a1.665,1.665,0,0,0-2.409-.377M77.779,70.553a5.088,5.088,0,0,0,3.684-1.493c1.89-1.923,3.825-3.8,5.709-5.729a4.367,4.367,0,0,0-.058-6.567q-2.779-2.8-5.581-5.582a4.4,4.4,0,0,0-6.705-.012c-1.753,1.738-3.457,3.527-5.25,5.223A5.145,5.145,0,0,0,67.744,60.6a2.766,2.766,0,0,0-.515,4.584q2.853,2.932,5.785,5.786a2.977,2.977,0,0,0,4.765-.421" transform="translate(-41.436 -29.185)" fill="#d6aa8b"/>
    <path id="Trazado_182307" data-name="Trazado 182307" d="M161.322,182.083c-3.283,0-6.566-.019-9.848.015-.713.008-.846-.167-.742-.875a22.514,22.514,0,0,1,4.375-10.68,11.626,11.626,0,0,1,2.342-2.33,6.054,6.054,0,0,1,7.893.032,16.136,16.136,0,0,1,4.794,6.4,24.055,24.055,0,0,1,1.924,6.708c.093.648-.1.758-.694.754-3.348-.025-6.7-.012-10.044-.012Z" transform="translate(-111.371 -123.243)" fill="#f5f7f8"/>
    <path id="Trazado_182308" data-name="Trazado 182308" d="M277.821,182.056c-3.285,0-6.57-.023-9.854.018-.731.009-.874-.223-.773-.884a22.114,22.114,0,0,1,4.952-11.355,10.2,10.2,0,0,1,.74-.776c3.287-3.1,6.777-3.13,9.968.063a20.632,20.632,0,0,1,5.661,12.334c.1.733-.327.617-.742.617h-9.952Z" transform="translate(-197.44 -123.216)" fill="#f5f7f8"/>
    <path id="Trazado_182309" data-name="Trazado 182309" d="M44.909,181.992c-3.285,0-6.569-.012-9.854.01-.6,0-.864-.08-.757-.79.739-4.919,2.462-9.372,6.29-12.724,2.851-2.5,5.921-2.44,8.791.052C52.571,171.313,54.2,175,55.2,179c.181.723.254,1.471.4,2.2.129.636-.085.824-.743.817-3.317-.033-6.634-.015-9.951-.015Z" transform="translate(-25.33 -123.153)" fill="#f5f7f8"/>
    <path id="Trazado_182310" data-name="Trazado 182310" d="M50.359,241.112l-2.943,0c-.222-1.2-.556-1.457-1.98-1.458q-10.787-.006-21.575,0c-3.9,0-7.81-.015-11.715.014-.678,0-.964-.1-.946-.884.048-2.109,0-2.111,2.092-2.067a4.622,4.622,0,0,1,.48.059c.133,1,.652,1.418,1.812,1.418q44.865,0,89.73,0a1.4,1.4,0,0,1,.026.193c0,1.583.1,1.265-1.2,1.266q-25.774.012-51.547.006c-1.591,0-1.865.182-2.239,1.457" transform="translate(-8.277 -174.931)" fill="#d6aa8b"/>
    <path id="Trazado_182311" data-name="Trazado 182311" d="M112.6,238.219q-44.865,0-89.73,0c-1.161,0-1.679-.418-1.812-1.417.421-.02.841-.056,1.262-.056q44.463,0,88.926,0c1.429,0,1.429,0,1.354,1.472" transform="translate(-15.562 -174.96)" fill="#efcfa3"/>
    <path id="Trazado_182312" data-name="Trazado 182312" d="M178.949,280.611q-6.187,0-12.373-.01a2.635,2.635,0,0,1-2.872-1.974c-.283-.723-.6-1.433-.9-2.151-.443-1.074-.4-1.151.737-1.152q8.282,0,16.563,0c.486,0,.985-.052,1.348.381a21.32,21.32,0,0,0-1.564,3.379,3.694,3.694,0,0,1-.941,1.529" transform="translate(-120.125 -203.467)" fill="#d6aa8b"/>
    <path id="Trazado_182313" data-name="Trazado 182313" d="M62.452,280.613c-4.093-.011-8.186-.051-12.279-.017a2.814,2.814,0,0,1-2.831-1.793c-.4-.884-.746-1.8-1.139-2.684-.344-.778.052-.83.691-.828,4.483.018,8.967.01,13.45.01,1.2,0,2.4,0,3.606,0,.395,0,.8-.029.995.425a23.393,23.393,0,0,0-1.534,3.342,3.745,3.745,0,0,1-.959,1.545" transform="translate(-34.051 -203.446)" fill="#d6aa8b"/>
    <path id="Trazado_182314" data-name="Trazado 182314" d="M295.322,280.577q-6.289,0-12.579.006a2.711,2.711,0,0,1-2.628-1.8c-.358-.9-.676-1.828-1.107-2.7-.366-.736-.066-.794.563-.792q9.069.023,18.137.016c-.713,1.791-1.181,3.693-2.387,5.261" transform="translate(-206.075 -203.452)" fill="#d6aa8b"/>
    <path id="Trazado_182315" data-name="Trazado 182315" d="M35.006,16.316q.011,19.641.023,39.281c0,.974.028,1.948.043,2.923l-1.241,2.1c-.321-.189-.166-.478-.166-.7q-.014-20.1-.01-40.2a4.18,4.18,0,0,1,1.351-3.4" transform="translate(-24.851 -12.058)" fill="#d6aa8b"/>
    <path id="Trazado_182316" data-name="Trazado 182316" d="M281.4,49.061c-.011-2.277-.059-4.554-.02-6.829a5.785,5.785,0,0,0-1.911-4.656c-3.009-2.816-2.068-2.4-5.939-2.436-2.147-.018-4.293-.009-6.44-.013a3.463,3.463,0,0,1,3.31-1.564c2.594.11,5.2.044,7.8.022a2.3,2.3,0,0,1,1.733.713c2.8,2.736,2.811,2.729,2.811,6.607,0,1.787-.07,3.577.024,5.359a2.871,2.871,0,0,1-1.363,2.8" transform="translate(-197.381 -24.8)" fill="#be8475"/>
    <path id="Trazado_182317" data-name="Trazado 182317" d="M185.113,39.675a2.978,2.978,0,0,1-5,.175c-1.092-1.282-2.374-2.4-3.564-3.6a3.532,3.532,0,0,0-2.689-1.123c-2.827.038-5.656.011-8.484.01a3.449,3.449,0,0,1,3.3-1.571c2.494.112,5,.073,7.5.011a3.018,3.018,0,0,1,2.479,1.05c1.1,1.19,2.3,2.288,3.424,3.459a5.048,5.048,0,0,0,3.037,1.592" transform="translate(-122.214 -24.799)" fill="#be8475"/>
    <path id="Trazado_182318" data-name="Trazado 182318" d="M83.758,39.676a2.976,2.976,0,0,1-4.993.182c-1.113-1.3-2.411-2.449-3.627-3.665a3.458,3.458,0,0,0-2.606-1.07c-2.789.027-5.579-.008-8.369-.019a3.38,3.38,0,0,1,3.225-1.543c2.564.112,5.136.051,7.7.02a2.511,2.511,0,0,1,1.99.812c1.19,1.245,2.447,2.427,3.641,3.669a5.134,5.134,0,0,0,3.035,1.612" transform="translate(-47.417 -24.799)" fill="#be8475"/>
    <path id="Trazado_182319" data-name="Trazado 182319" d="M303.8,129.564a1.788,1.788,0,0,0-.72-1.324q-1.831-1.824-3.655-3.655c-1.657-1.659-1.569-3.329.256-4.9a5.3,5.3,0,0,0,1.714,3.175c1.107,1.043,2.119,2.187,3.247,3.206a2.97,2.97,0,0,1,1.131,2.722,14.92,14.92,0,0,0-.01,1.665l-1.962-.893" transform="translate(-220.406 -88.452)" fill="#be8475"/>
    <path id="Trazado_182320" data-name="Trazado 182320" d="M125.044,199.009c-.246-1.07-.487-2.141-.74-3.21a.672.672,0,0,1,.2-.7c1.041-1.025,2.048-2.084,3.115-3.081a1.389,1.389,0,0,1,2.016.045.761.761,0,0,1,.27,1.006,27.353,27.353,0,0,0-1.619,5.985l-3.24-.046" transform="translate(-91.843 -141.6)" fill="#efcfa3"/>
    <path id="Trazado_182321" data-name="Trazado 182321" d="M238.857,199.084a27.536,27.536,0,0,0-1.473-5.625c-.241-.6-.379-1.073.275-1.494a1.37,1.37,0,0,1,1.791.023c.659.575,1.2,1.291,1.894,1.818,1.269.967,1.815,2.068,1.124,3.633a8.484,8.484,0,0,0-.37,1.6l-3.24.048" transform="translate(-175.283 -141.628)" fill="#efcfa3"/>
    <path id="Trazado_182322" data-name="Trazado 182322" d="M127.214,219.972l3.24.046c-.134,1.4-.134,1.4-1.555,1.4-.1,0-.195,0-.292,0-1.35-.042-1.366.35-1.393-1.441" transform="translate(-94.013 -162.563)" fill="#d6aa8b"/>
    <path id="Trazado_182323" data-name="Trazado 182323" d="M243.6,220.019l3.24-.048c-.153.545.423,1.437-.807,1.454-2.291.034-2.291.067-2.433-1.406" transform="translate(-180.021 -162.563)" fill="#d6aa8b"/>
    <path id="Trazado_182324" data-name="Trazado 182324" d="M100.78,89.294a5.146,5.146,0,0,1,1.834-4.212c1.793-1.7,3.5-3.485,5.25-5.223a4.4,4.4,0,0,1,6.7.012q2.8,2.783,5.581,5.582a4.367,4.367,0,0,1,.058,6.567c-1.884,1.928-3.82,3.806-5.709,5.729a5.091,5.091,0,0,1-3.685,1.494,6.315,6.315,0,0,1-3.44-2.052c-1.592-1.672-3.236-3.3-4.9-4.9a5.467,5.467,0,0,1-1.7-2.994m17.908-.488a1.6,1.6,0,0,0-.537-1.225c-1.91-1.9-3.811-3.819-5.731-5.714a1.491,1.491,0,0,0-2.447.031q-2.842,2.811-5.654,5.653A1.5,1.5,0,0,0,104.353,90q2.813,2.841,5.652,5.655a1.475,1.475,0,0,0,2.374.037c1.944-1.916,3.865-3.857,5.8-5.786a1.507,1.507,0,0,0,.51-1.1" transform="translate(-74.471 -57.874)" fill="#040303"/>
    <path id="Trazado_182325" data-name="Trazado 182325" d="M202.386,89.323a5.333,5.333,0,0,1,1.918-4.271c1.865-1.755,3.617-3.627,5.454-5.411a4.352,4.352,0,0,1,5.693-.413c1.108.818,1.2,1.6.313,2.685a1.693,1.693,0,0,1-1.983-.248,1.432,1.432,0,0,0-2.1.174c-1.938,1.928-3.877,3.854-5.8,5.8a1.481,1.481,0,0,0,.006,2.313q2.879,2.918,5.8,5.8A1.463,1.463,0,0,0,214,95.732q2.882-2.846,5.726-5.731a1.517,1.517,0,0,0-.03-2.453c-.45-.47-.92-.921-1.377-1.384-.939-.951-.992-1.327-.357-2.474a1.665,1.665,0,0,1,2.409.377c.522.579,1.112,1.094,1.645,1.664a4.3,4.3,0,0,1,.094,6c-2.056,2.169-4.2,4.252-6.333,6.352a4.744,4.744,0,0,1-3.507,1.181,6.565,6.565,0,0,1-3.312-2.067q-2.323-2.421-4.744-4.748a5.863,5.863,0,0,1-1.829-3.126" transform="translate(-149.563 -57.908)" fill="#040303"/>
    <path id="Trazado_182326" data-name="Trazado 182326" d="M226.336,91.981c-.635,1.147-.582,1.523.357,2.474.457.463.926.914,1.377,1.384a1.516,1.516,0,0,1,.03,2.453q-2.846,2.883-5.726,5.731a1.463,1.463,0,0,1-2.307.017q-2.92-2.878-5.8-5.8a1.481,1.481,0,0,1-.006-2.313c1.919-1.946,3.858-3.872,5.8-5.8a1.432,1.432,0,0,1,2.1-.174,1.693,1.693,0,0,0,1.983.248c.988.277,1.348,1.331,2.2,1.778" transform="translate(-157.936 -66.2)" fill="#efcfa3"/>
    <path id="Trazado_182327" data-name="Trazado 182327" d="M96.563,120.39a5.467,5.467,0,0,0,1.7,2.994c1.661,1.605,3.3,3.231,4.9,4.9a6.315,6.315,0,0,0,3.44,2.052,2.977,2.977,0,0,1-4.764.42q-2.931-2.853-5.785-5.785a2.767,2.767,0,0,1,.515-4.584" transform="translate(-70.254 -88.97)" fill="#be8475"/>
    <path id="Trazado_182328" data-name="Trazado 182328" d="M198.225,120.372a5.863,5.863,0,0,0,1.829,3.126q2.416,2.329,4.744,4.748a6.565,6.565,0,0,0,3.312,2.067c-.679,1.777-3.3,1.7-4.286.726-2.073-2.058-4.17-4.094-6.186-6.207a2.755,2.755,0,0,1,.586-4.461" transform="translate(-145.402 -88.957)" fill="#be8475"/>
    <path id="Trazado_182329" data-name="Trazado 182329" d="M127,97.106a1.507,1.507,0,0,1-.51,1.1c-1.932,1.929-3.853,3.869-5.8,5.786a1.475,1.475,0,0,1-2.374-.037q-2.841-2.813-5.652-5.655a1.5,1.5,0,0,1-.036-2.448q2.81-2.844,5.654-5.653a1.491,1.491,0,0,1,2.447-.031c1.921,1.894,3.821,3.809,5.731,5.714A1.6,1.6,0,0,1,127,97.106" transform="translate(-82.783 -66.175)" fill="#efcfa3"/>
  </g>
</svg>
