<svg xmlns="http://www.w3.org/2000/svg" xmlns:xlink="http://www.w3.org/1999/xlink" width="208" height="208" viewBox="0 0 208 208">
  <defs>
    <filter id="Elipse_4964" x="0" y="0" width="208" height="208" filterUnits="userSpaceOnUse">
      <feOffset dx="-6" dy="6" input="SourceAlpha"/>
      <feGaussianBlur stdDeviation="3" result="blur"/>
      <feFlood flood-opacity="0.161"/>
      <feComposite operator="in" in2="blur"/>
      <feComposite in="SourceGraphic"/>
    </filter>
    <clipPath id="clip-path">
      <rect id="Rectángulo_37424" data-name="Rectángulo 37424" width="118.579" height="118.497" fill="none"/>
    </clipPath>
  </defs>
  <g id="Grupo_120416" data-name="Grupo 120416" transform="translate(-270.285 -5758)">
    <g transform="matrix(1, 0, 0, 1, 270.29, 5758)" filter="url(#Elipse_4964)">
      <g id="Elipse_4964-2" data-name="Elipse 4964" transform="translate(15 3)" fill="#fff" stroke="#26ccda" stroke-width="6">
        <circle cx="95" cy="95" r="95" stroke="none"/>
        <circle cx="95" cy="95" r="92" fill="none"/>
      </g>
    </g>
    <g id="Grupo_120410" data-name="Grupo 120410" transform="translate(321.307 5796.752)">
      <g id="Grupo_120410-2" data-name="Grupo 120410" clip-path="url(#clip-path)">
        <path id="Trazado_181526" data-name="Trazado 181526" d="M9.849,58.472c.013-.452.037-.9.037-1.355q0-22.285,0-44.57c0-1.887.276-2.277,2.034-2.864Q26.041,4.971,40.157.248A4.277,4.277,0,0,1,42.8.187Q59.393,4.819,76,9.43a3.429,3.429,0,0,0,2.139-.073Q91.666,4.823,105.211.332c2.5-.832,3.489-.137,3.489,2.461q0,27.162,0,54.323c0,.452.024.9.037,1.355q-.019,11.607-.035,23.214c0,1.246.159,2.581-1.37,3.094s-2.2-.68-2.941-1.667q-3.922-5.234-7.849-10.464c-1.047-1.388-2.2-1.846-3.492-1.446-2.116.657-2.769,2.947-1.336,4.879,2.744,3.7,5.527,7.373,8.288,11.062,1.128,1.507,1.087,2.136-.2,3.551a14.837,14.837,0,0,0-2.166,17.291,8.252,8.252,0,0,1,1.18,4.9c-.024.286.031.581-.01.863-.1.678.211.81.834.807q7.1-.036,14.2,0c.7,0,.79-.257.789-.858q-.025-22.6-.03-45.2a6.738,6.738,0,0,0-1.895-4.825c-.782-.8-.829-1.34-.028-2.04a1.6,1.6,0,0,0,.25-.413,1.05,1.05,0,0,0,.2-.133c1.385-1.474,1.386-1.476,2.675.075a11.447,11.447,0,0,1,2.758,7.477q.03,23.771.008,47.542c0,1.59-.745,2.306-2.371,2.308q-9.509.013-19.018,0c-1.6,0-2.3-.738-2.322-2.359,0-.082,0-.165,0-.247a14.774,14.774,0,0,0-1.445-7.691c-1.978-3.913-1.959-8.171-.871-12.4a24.316,24.316,0,0,1,1.981-4.623c.492-.883,1.674-1.625,1.491-2.548-.189-.948-1.218-1.708-1.785-2.61-.377-.6-.773-.548-1.324-.359-2.174.746-4.356,1.469-6.537,2.192-2.769.918-2.718.9-3.689-1.872-.322-.917.01-1.1.75-1.333C86,83.819,88.552,82.945,91.2,82.06c-.219-.316-.372-.55-.538-.776-1.629-2.221-1.629-2.221-4.269-1.348-2.82.932-2.82.932-3.714-1.977a1.894,1.894,0,0,0-.1-.226c-.236-.512,0-.723.483-.871,1.1-.34,2.181-.722,3.271-1.085.34-.113.8-.136.7-.666a11.612,11.612,0,0,1,.187-3.338c-.38.115-.653.193-.924.281-2.695.87-2.649.854-3.6-1.848-.3-.848-.116-1.109.684-1.369,4.642-1.511,9.27-3.066,13.9-4.621,3.014-1.012,2.983-1.015,3.9,2.037.2.663,0,.879-.56,1.05-.913.28-1.815.593-2.777.91,2.613,2.643,4.413,5.776,6.893,8.645,0-11.069-.009-21.887.017-32.7,0-.789-.354-.742-.9-.673a16.427,16.427,0,0,0-10.879,5.7,21.374,21.374,0,0,1-12.949,7.493c-.882.155-1.006.513-1,1.281.035,3.457.015,6.914.015,10.371,0,9.466.017,18.932-.022,28.4,0,1.1.254,1.216,1.218.834,1.6-.634,3.254-1.13,4.881-1.7,1.972-.688,1.97-.694,2.821,1.15.438,1.9.441,1.911-1.539,2.6-2.71.94-5.427,1.861-8.136,2.807a3.629,3.629,0,0,1-2.279.061q-16.65-4.653-33.31-9.269a3.377,3.377,0,0,0-2.139.032c-2.829.979-5.68,1.892-8.522,2.833-1.691.561-1.689.564-2.364-1.041a2.953,2.953,0,0,0-.187-.7c-.624-1.13-.19-1.566.966-1.909,2.713-.806,5.37-1.795,8.072-2.64a1.26,1.26,0,0,0,1.04-1.47c-.044-5.927-.023-11.854-.023-17.781,0-8.685-.011-17.369.017-26.054,0-.862-.159-1.107-1.083-.976a16.613,16.613,0,0,0-10.737,5.731,21.242,21.242,0,0,1-12.848,7.433c-.944.167-1.061.544-1.057,1.359.03,5.927.013,11.854.026,17.781,0,.291-.18.65.2.911,1.044-1.388,2.047-2.793,3.13-4.133a1.8,1.8,0,0,0,.374-2.219c-.513-.92-.163-1.268.809-1.579,4.612-1.472,9.194-3.04,13.783-4.582,2.839-.954,2.791-.946,3.769,1.9.292.85,0,1.046-.694,1.263-1.813.571-3.61,1.194-5.484,1.82.34.49.569.879.855,1.22.469.559.338,1.664,1.04,1.8a3.881,3.881,0,0,0,2.081-.639c1.019-.5,1.373-.145,1.675.867.756,2.531.807,2.506-1.748,3.35-.85.281-2.037.377-2.449.981-1,1.464-2.164,2.831-3.227,4.634L32.3,79.961c2.672-.881,2.624-.864,3.558,1.736.336.937.128,1.228-.78,1.517-3.636,1.159-7.247,2.4-10.862,3.625-1.158.393-1.983,1.752-1.466,2.413a22.082,22.082,0,0,1,3.4,6.773c.9,4.16,1,8.361-.99,12.169a15.153,15.153,0,0,0-1.446,7.694c.034,1.941-.646,2.6-2.567,2.6q-9.322.006-18.645,0c-1.794,0-2.492-.678-2.493-2.434Q0,92.475.008,68.893a12.056,12.056,0,0,1,3.153-8.2c.731-.832,1.313-1.154,1.971.022a2.509,2.509,0,0,0,.521.5,1.568,1.568,0,0,0,.248.414c.8.7.753,1.24-.025,2.041a7.056,7.056,0,0,0-1.911,5.071q-.01,22.414-.026,44.828c0,.853.28.991,1.042.986q6.854-.049,13.709,0c.832.008,1.181-.15,1.093-1.056a9.882,9.882,0,0,1,1.314-5.85A14.75,14.75,0,0,0,18.78,90.7c-1.29-1.422-1.326-2.026-.2-3.548.686-.925,1.38-1.844,2.071-2.766,2.1-2.8,4.216-5.58,6.285-8.4a2.933,2.933,0,0,0-.514-4.357c-1.372-.987-3.029-.668-4.226.826-.411.514-.8,1.049-1.19,1.575q-3.7,4.935-7.4,9.873a2.035,2.035,0,0,1-2.117.953A1.835,1.835,0,0,1,10,83.524a4.992,4.992,0,0,1-.109-1.343q-.028-11.854-.043-23.708M75.1,98.082V96.631c0-12.185-.1-24.371.075-36.553a8.288,8.288,0,0,0-2.9-6.91c-3.833-3.5-8.108-4.837-13.164-3.736a17.4,17.4,0,0,1-14.7-3.14c-.263-.2-.453-.592-.92-.479q0,21.388-.021,42.743c0,.835.469.887,1.028,1.042q10.148,2.813,20.292,5.643c3.4.943,6.8,1.872,10.31,2.839m4.089-62.454c.412-.145.588-.534.838-.831,1.719-2.046,3.421-4.107,5.137-6.157a2.075,2.075,0,0,1,3.015-.67c1.624.791,3.261,1.562,4.843,2.431.749.412,1.062.346,1.447-.459,1.414-2.964,2.9-5.895,4.391-8.823.853-1.678,2.233-1.911,3.572-.609.715.695,1.364,1.459,2.261,2.427V4.763a2.675,2.675,0,0,0-.414.06c-8.18,2.722-16.354,5.458-24.544,8.15-.729.24-.678.684-.678,1.222q0,10.364.008,20.728c0,.225-.109.486.123.7M75.1,34.854c0-7.174-.017-13.96.022-20.746,0-.8-.408-.928-.993-1.09Q59.407,8.947,44.7,4.836c-.976-.275-1.243-.175-1.231.9.052,4.853.023,9.707.023,14.561v4.081c2.906-1.452,5.65-2.827,8.4-4.194,1.684-.837,2.362-.68,3.446.828,2.542,3.539,5.089,7.076,7.592,10.643.463.66.729.69,1.269.1.973-1.059,2.021-2.05,3.041-3.066,1.61-1.6,2.722-1.506,3.972.351,1.232,1.832,2.454,3.67,3.886,5.811M58.714,32.583a1.739,1.739,0,0,0-.269.127c-1.157.856-2.317,1.709-3.467,2.574-2.482,1.866-2.452,1.849-4.261-.623-.477-.652-.323-.933.25-1.344,1.6-1.151,3.159-2.368,4.757-3.528.495-.359.588-.639.19-1.161-.921-1.21-1.817-2.443-2.646-3.717-.428-.658-.81-.595-1.413-.286-2.484,1.274-4.977,2.532-7.5,3.731a1.393,1.393,0,0,0-.883,1.525,53.93,53.93,0,0,1-.037,7.031c-.3,2.692.72,4.324,2.862,5.889a14.468,14.468,0,0,0,12.2,2.728A17.22,17.22,0,0,1,74.3,49.687c.216.19.35.577.793.458q0-3.714,0-7.412a1.565,1.565,0,0,0-.166-.95c-2.008-3-4.006-6.01-6.078-9.123-1.386,1.4-2.665,2.732-3.986,4.019-1.221,1.189-2.4,1.074-3.421-.307-.927-1.255-1.824-2.531-2.73-3.791M13.841,44.4c0,2.426.032,4.852-.017,7.277-.018.88.056,1.2,1.114.96a16.939,16.939,0,0,0,9.371-5.553A20.906,20.906,0,0,1,38.757,39.52c.665-.063.79-.3.785-.893q-.036-4.625,0-9.251a1.351,1.351,0,0,0-.587-1.246c-1.429-1.039-2.853-2.087-4.238-3.183-.554-.438-.848-.379-1.256.184-1.3,1.8-2.646,3.563-3.993,5.326-.99,1.3-1.967,1.437-3.27.474-1.719-1.269-3.438-2.54-5.117-3.86-.62-.487-.929-.5-1.4.222-1.729,2.7-3.523,5.352-5.326,8a3.009,3.009,0,0,0-.53,1.835c.028,2.426.011,4.852.011,7.278m25.63-20.822V4.74a5.235,5.235,0,0,0-.53.115c-8.1,2.7-16.2,5.418-24.317,8.092a.98.98,0,0,0-.794,1.141c.026,2.551.011,5.1.011,7.653v7.213c1.5-2.241,2.778-4.182,4.086-6.1.941-1.383,1.978-1.554,3.332-.559,1.624,1.193,3.276,2.357,4.824,3.643.89.739,1.386.785,2.075-.251,1.114-1.675,2.388-3.246,3.606-4.851,1.03-1.358,1.987-1.5,3.356-.5,1.39,1.021,2.765,2.062,4.35,3.246m61.947,1.325c-.3.582-.492.939-.673,1.3-1.308,2.608-2.6,5.221-3.923,7.822-.771,1.519-1.683,1.813-3.227,1.058-1.735-.848-3.483-1.672-5.174-2.6a1.063,1.063,0,0,0-1.615.329c-2.392,2.934-4.83,5.831-7.257,8.736a1.592,1.592,0,0,0-.5,1.076q.027,4.754,0,9.508c0,.556.148.714.707.6a17.557,17.557,0,0,0,9.357-5.147c.485-.51.5-.844-.044-1.259a6.408,6.408,0,0,1-.615-.605c-1.188-1.189-1.188-1.189-2.135.23-1.722,2.579-1.709,2.56-4.22.818-.559-.388-.674-.661-.266-1.244,1.132-1.617,2.19-3.285,3.307-4.912,1-1.45,2.215-1.556,3.493-.314q1.682,1.635,3.315,3.32c.36.369.612.5,1.106.114a20.352,20.352,0,0,1,10.885-4.2c.605-.053.834-.208.826-.864-.035-3.21-.018-6.421-.014-9.631a1.162,1.162,0,0,0-.276-.9c-1-1.029-1.971-2.076-3.056-3.224" transform="translate(-0.004 0)" fill="#020202"/>
        <path id="Trazado_181527" data-name="Trazado 181527" d="M297.469,179.863a1.6,1.6,0,0,1-.25.413c-.8.7-.755,1.245.028,2.04a6.741,6.741,0,0,1,1.895,4.826q.033,22.6.03,45.2c0,.6-.093.862-.789.857q-7.1-.047-14.2,0c-.623,0-.932-.128-.834-.807.041-.282-.015-.577.01-.864a8.251,8.251,0,0,0-1.18-4.9,14.837,14.837,0,0,1,2.166-17.29c1.283-1.415,1.324-2.045.2-3.552-2.761-3.688-5.544-7.36-8.288-11.061-1.432-1.933-.78-4.223,1.336-4.879,1.289-.4,2.445.058,3.492,1.446q3.937,5.222,7.849,10.464c.74.987,1.4,2.185,2.941,1.667s1.369-1.848,1.37-3.094q.009-11.607.035-23.214c1.387.935,3,1.52,4.2,2.75" transform="translate(-184.536 -118.641)" fill="#fcc8a2"/>
        <path id="Trazado_181528" data-name="Trazado 181528" d="M17.83,177.117q.019,11.854.043,23.708a4.988,4.988,0,0,0,.109,1.343,1.835,1.835,0,0,0,1.485,1.332,2.035,2.035,0,0,0,2.117-.953q3.695-4.942,7.4-9.873c.4-.526.779-1.062,1.19-1.575,1.2-1.494,2.854-1.812,4.226-.826a2.933,2.933,0,0,1,.514,4.357c-2.07,2.818-4.188,5.6-6.285,8.4-.691.921-1.385,1.841-2.071,2.766-1.128,1.522-1.092,2.125.2,3.548A14.75,14.75,0,0,1,29.079,226.3a9.881,9.881,0,0,0-1.314,5.849c.088.907-.261,1.064-1.093,1.056q-6.854-.062-13.709,0c-.761.006-1.043-.133-1.042-.986q.044-22.414.026-44.828a7.057,7.057,0,0,1,1.911-5.071c.778-.8.83-1.341.025-2.04a1.579,1.579,0,0,1-.248-.414c1.194-1.228,2.813-1.8,4.2-2.744" transform="translate(-7.985 -118.644)" fill="#fcc8a2"/>
        <path id="Trazado_181529" data-name="Trazado 181529" d="M248.3,185.155c-.851-1.844-.849-1.838-2.821-1.15-1.627.568-3.281,1.064-4.881,1.7-.963.382-1.222.264-1.218-.834.039-9.466.022-18.932.022-28.4,0-3.457.02-6.914-.015-10.371-.008-.767.116-1.125,1-1.28a21.375,21.375,0,0,0,12.949-7.493,16.429,16.429,0,0,1,10.879-5.7c.544-.068.9-.116.9.673-.026,10.818-.017,21.636-.017,32.705-2.481-2.869-4.28-6-6.893-8.645.962-.317,1.865-.63,2.777-.91.56-.172.76-.387.56-1.051-.922-3.052-.891-3.049-3.9-2.037-4.628,1.554-9.256,3.11-13.9,4.621-.8.26-.982.522-.684,1.37.95,2.7.9,2.718,3.6,1.848.271-.087.544-.165.924-.281a11.612,11.612,0,0,0-.187,3.338c.1.53-.362.552-.7.666-1.09.363-2.174.745-3.271,1.085-.478.148-.719.359-.483.871a1.837,1.837,0,0,1,.1.225c.894,2.91.894,2.91,3.714,1.977,2.64-.873,2.64-.873,4.269,1.348.165.225.319.46.538.775-2.652.884-5.2,1.759-7.768,2.576-.74.235-1.071.416-.749,1.333.971,2.769.92,2.791,3.689,1.872,2.182-.723,4.364-1.446,6.537-2.192.551-.189.947-.242,1.324.359.567.9,1.6,1.661,1.785,2.609.184.923-1,1.665-1.491,2.548a24.327,24.327,0,0,0-1.981,4.623,12.584,12.584,0,0,0-3.29.907c-.43.123-.87.207-1.306.309m13.35-38.242c-.252-.771-.553-1.579-.776-2.41-.2-.738-.471-.929-1.276-.651-4.653,1.607-9.331,3.141-14,4.7-2.949.983-2.927.974-1.908,3.843.233.655.516.8,1.152.588,5.4-1.814,10.8-3.607,16.2-5.42.271-.091.7-.1.606-.649" transform="translate(-160.355 -88.151)" fill="#dddddb"/>
        <path id="Trazado_181530" data-name="Trazado 181530" d="M54.157,184.2a22.1,22.1,0,0,0-3.4-6.773c-.517-.661.308-2.019,1.466-2.412,3.614-1.227,7.225-2.467,10.861-3.626.908-.289,1.116-.58.78-1.517-.933-2.6-.885-2.617-3.557-1.736l-4.333,1.429c1.063-1.8,2.229-3.17,3.227-4.634.412-.6,1.6-.7,2.449-.981,2.555-.844,2.5-.819,1.748-3.35-.3-1.011-.656-1.363-1.675-.867a3.882,3.882,0,0,1-2.081.639c-.7-.133-.571-1.238-1.04-1.8-.286-.342-.516-.731-.855-1.221,1.874-.626,3.67-1.25,5.484-1.82.69-.217.986-.413.694-1.263-.978-2.85-.93-2.858-3.769-1.9-4.589,1.543-9.171,3.11-13.783,4.582-.973.311-1.322.66-.81,1.579a1.8,1.8,0,0,1-.374,2.218c-1.084,1.34-2.087,2.745-3.13,4.133-.382-.26-.2-.62-.2-.911-.013-5.927,0-11.854-.026-17.781,0-.815.113-1.192,1.057-1.359A21.241,21.241,0,0,0,55.735,137.4a16.614,16.614,0,0,1,10.737-5.73c.924-.131,1.086.114,1.084.976-.029,8.685-.018,17.369-.018,26.054,0,5.927-.021,11.854.024,17.781a1.261,1.261,0,0,1-1.04,1.47c-2.7.845-5.359,1.834-8.072,2.639-1.155.343-1.59.779-.965,1.91a2.946,2.946,0,0,1,.186.7,11.634,11.634,0,0,0-3.514,1M46.9,153.08c.127-.045.359-.129.592-.206q7-2.325,14.006-4.65c2.761-.92,2.733-.918,1.806-3.714-.251-.757-.514-.9-1.293-.631-4.655,1.6-9.333,3.126-14,4.682-3.028,1.009-3.026,1.012-1.827,3.967.046.114.083.232.121.349.082.251.269.271.6.2" transform="translate(-28.01 -88.178)" fill="#dddddb"/>
        <path id="Trazado_181531" data-name="Trazado 181531" d="M1.937,13.863c-2.107,0-2.129,0-1.748-2.126A13.789,13.789,0,0,1,9.969.447c1.476-.5,1.492-.479,1.793.974.158.764.561,1.625.348,2.278-.23.707-1.318.583-2,.9a9.791,9.791,0,0,0-6.012,7.977c-.148,1.127-.511,1.464-1.541,1.292a3.837,3.837,0,0,0-.616,0" transform="translate(0 -0.101)" fill="#020202"/>
        <path id="Trazado_181532" data-name="Trazado 181532" d="M163.286,191c-3.513-.967-6.914-1.9-10.31-2.84q-10.147-2.817-20.292-5.643c-.559-.155-1.029-.207-1.028-1.042q.045-21.364.021-42.743c.467-.114.657.283.92.478a17.4,17.4,0,0,0,14.7,3.14c5.056-1.1,9.331.236,13.164,3.736a8.285,8.285,0,0,1,2.9,6.91c-.178,12.182-.075,24.368-.075,36.553V191m-26.668-42.619c-.4-.166-.572.134-.673.535-.18.717-.33,1.443-.549,2.147-.233.747-.136,1.105.757,1.322,6.661,1.614,13.3,3.3,19.955,4.956,2.825.7,2.78.684,3.516-2.138.23-.882-.047-1.107-.808-1.292-4.347-1.062-8.686-2.161-13.028-3.246-3.025-.755-6.051-1.507-9.169-2.284m-.073,15.8c-.508-.114-.525.306-.608.593-.194.67-.292,1.372-.533,2.023-.349.941,0,1.207.913,1.429,6.663,1.617,13.31,3.3,19.96,4.966,2.634.661,2.586.658,3.306-1.978.265-.973.038-1.308-.928-1.544-7.138-1.743-14.261-3.541-21.39-5.322-.238-.06-.479-.111-.719-.166m23.238,13.991c-.112-.586-.746-.453-1.143-.554-6.523-1.66-13.055-3.282-19.583-4.921-3.019-.758-2.975-.756-3.712,2.252-.2.811.095.968.736,1.124,2.872.7,5.737,1.43,8.606,2.148,4.419,1.1,8.836,2.215,13.261,3.3.317.077.816.546,1.016-.14.3-1.024.532-2.066.818-3.2m-23.23-21.906c-.366-.208-.509.167-.607.546-.216.833-.342,1.7-.628,2.5-.234.659.115.775.58.891,4.136,1.03,8.276,2.047,12.406,3.1.518.132.709.05.878-.456,1.046-3.151,1.057-3.148-2.086-3.952-.318-.081-.637-.156-.955-.236l-9.588-2.4m21.816,9.552c.391.217.574-.031.66-.394.255-1.069.893-2.264.612-3.174-.219-.71-1.738-.557-2.653-.874-.039-.014-.077-.028-.117-.038-3.138-.8-3.119-.792-3.761,2.435-.1.518-.048.725.465.847,1.589.379,3.172.789,4.793,1.2" transform="translate(-88.191 -92.92)" fill="#dddddb"/>
        <path id="Trazado_181533" data-name="Trazado 181533" d="M239.546,45.294c-.233-.218-.123-.478-.123-.7q-.011-10.364-.008-20.729c0-.537-.051-.982.678-1.222,8.189-2.692,16.364-5.429,24.544-8.15a2.624,2.624,0,0,1,.414-.061V32.6c-.9-.968-1.546-1.732-2.261-2.427-1.339-1.3-2.719-1.069-3.572.609-1.489,2.929-2.976,5.859-4.39,8.823-.384.805-.7.871-1.447.459-1.582-.87-3.219-1.639-4.843-2.431a2.075,2.075,0,0,0-3.016.67c-1.716,2.049-3.418,4.11-5.137,6.156-.25.3-.426.687-.838.831" transform="translate(-160.363 -9.665)" fill="#b1f9ff"/>
        <path id="Trazado_181534" data-name="Trazado 181534" d="M163.284,44.4c-1.431-2.142-2.653-3.98-3.886-5.811-1.25-1.857-2.361-1.953-3.971-.351-1.02,1.016-2.068,2.007-3.042,3.066-.54.587-.806.558-1.269-.1-2.5-3.567-5.049-7.1-7.592-10.643-1.084-1.508-1.762-1.666-3.446-.828-2.748,1.366-5.493,2.742-8.4,4.194V29.846c0-4.854.03-9.708-.023-14.561-.012-1.074.256-1.174,1.231-.9q14.7,4.136,29.424,8.182c.585.162,1,.288.993,1.09-.039,6.786-.022,13.572-.022,20.746m-5.921-15.148a5.931,5.931,0,1,0-6.011,5.916,5.95,5.95,0,0,0,6.011-5.916" transform="translate(-88.193 -9.55)" fill="#b1f9ff"/>
        <path id="Trazado_181535" data-name="Trazado 181535" d="M146.735,82.094c.905,1.259,1.8,2.536,2.73,3.791,1.021,1.381,2.2,1.5,3.421.307,1.321-1.288,2.6-2.618,3.986-4.019,2.072,3.114,4.07,6.122,6.078,9.123a1.566,1.566,0,0,1,.166.95q.006,3.7,0,7.411c-.443.119-.577-.268-.793-.458a17.219,17.219,0,0,0-15.807-4.158,14.469,14.469,0,0,1-12.2-2.728c-2.141-1.566-3.162-3.2-2.862-5.89a53.93,53.93,0,0,0,.037-7.031,1.392,1.392,0,0,1,.883-1.524c2.521-1.2,5.014-2.457,7.5-3.731.6-.309.985-.372,1.413.286.828,1.274,1.724,2.507,2.646,3.717.4.522.3.8-.19,1.161-1.6,1.16-3.153,2.377-4.756,3.528-.573.411-.727.692-.25,1.344,1.809,2.472,1.779,2.489,4.261.623,1.15-.865,2.31-1.718,3.467-2.574a1.753,1.753,0,0,1,.269-.127" transform="translate(-88.024 -49.511)" fill="#fdd835"/>
        <path id="Trazado_181536" data-name="Trazado 181536" d="M41.875,94.435c0-2.426.017-4.852-.011-7.278a3.009,3.009,0,0,1,.53-1.835c1.8-2.648,3.6-5.3,5.326-8,.465-.726.775-.709,1.4-.222,1.679,1.32,3.4,2.591,5.117,3.86,1.3.963,2.28.821,3.27-.474,1.348-1.763,2.692-3.529,3.993-5.326.408-.563.7-.622,1.256-.184,1.385,1.1,2.809,2.145,4.238,3.183a1.352,1.352,0,0,1,.587,1.247q-.036,4.625,0,9.251c0,.595-.12.831-.785.893a20.9,20.9,0,0,0-14.449,7.569,16.938,16.938,0,0,1-9.371,5.554c-1.057.244-1.131-.08-1.114-.96.049-2.425.017-4.852.017-7.278m7.889-12.86a1.936,1.936,0,0,0-1.572.826c-1.218,1.8-2.41,3.617-3.63,5.414-.247.364-.287.572.1.9,2.506,2.126,2.633,2.12,4.429-.577.023-.034.05-.065.073-.1,1.163-1.745,1.163-1.745,2.9-.586,2.634,1.754,2.617,1.743,4.3-.9.336-.529.348-.8-.207-1.153-1.727-1.1-3.421-2.259-5.131-3.389a2.147,2.147,0,0,0-1.263-.439" transform="translate(-28.038 -50.03)" fill="#fdd835"/>
        <path id="Trazado_181537" data-name="Trazado 181537" d="M67.522,33.2c-1.585-1.184-2.96-2.225-4.35-3.246-1.369-1.006-2.326-.863-3.356.5C58.6,32.057,57.325,33.628,56.21,35.3c-.689,1.036-1.185.99-2.075.251-1.549-1.286-3.2-2.449-4.824-3.643-1.354-1-2.391-.824-3.332.559-1.308,1.921-2.588,3.862-4.086,6.1V31.36c0-2.551.015-5.1-.011-7.654a.98.98,0,0,1,.794-1.141c8.113-2.674,16.213-5.39,24.317-8.092a5.378,5.378,0,0,1,.53-.114Z" transform="translate(-28.055 -9.619)" fill="#b1f9ff"/>
        <path id="Trazado_181538" data-name="Trazado 181538" d="M261.8,75.446c1.085,1.148,2.061,2.195,3.056,3.224a1.162,1.162,0,0,1,.276.9c0,3.211-.021,6.422.014,9.631.007.656-.221.81-.826.864a20.352,20.352,0,0,0-10.885,4.2c-.494.382-.746.255-1.106-.114q-1.638-1.68-3.315-3.32c-1.278-1.242-2.5-1.136-3.493.314-1.117,1.627-2.175,3.3-3.307,4.912-.408.583-.293.857.266,1.244,2.511,1.742,2.5,1.761,4.22-.818.947-1.419.947-1.419,2.135-.23a6.408,6.408,0,0,0,.615.605c.544.414.529.749.044,1.259a17.557,17.557,0,0,1-9.357,5.147c-.559.118-.711-.04-.707-.6q.03-4.754,0-9.508a1.592,1.592,0,0,1,.5-1.076c2.427-2.905,4.865-5.8,7.257-8.736a1.063,1.063,0,0,1,1.615-.329c1.691.93,3.439,1.754,5.174,2.6,1.544.755,2.456.461,3.227-1.058,1.32-2.6,2.616-5.215,3.923-7.822.182-.361.372-.719.673-1.3" transform="translate(-160.382 -50.538)" fill="#fdd835"/>
        <path id="Trazado_181539" data-name="Trazado 181539" d="M269.135,171.535c.1.547-.335.559-.606.649-5.4,1.812-10.8,3.605-16.2,5.42-.636.214-.918.068-1.152-.588-1.019-2.87-1.041-2.86,1.908-3.843,4.67-1.557,9.348-3.091,14-4.7.806-.278,1.079-.087,1.276.651.222.83.524,1.639.776,2.41" transform="translate(-167.835 -112.773)" fill="#020202"/>
        <path id="Trazado_181540" data-name="Trazado 181540" d="M54.245,177.665c-.328.068-.516.048-.6-.2-.038-.117-.075-.235-.121-.349-1.2-2.955-1.2-2.958,1.827-3.967,4.669-1.556,9.348-3.085,14-4.682.779-.267,1.042-.125,1.293.631.927,2.8.956,2.794-1.806,3.714q-7,2.332-14.006,4.65c-.233.077-.465.161-.592.206" transform="translate(-35.353 -112.764)" fill="#020202"/>
        <path id="Trazado_181541" data-name="Trazado 181541" d="M143.987,167.906c3.119.776,6.145,1.529,9.169,2.284,4.342,1.085,8.681,2.184,13.029,3.246.761.186,1.038.41.808,1.292-.736,2.822-.691,2.842-3.516,2.138-6.651-1.656-13.294-3.342-19.956-4.956-.893-.216-.989-.575-.757-1.322.219-.7.369-1.431.549-2.147.1-.4.27-.7.673-.535" transform="translate(-95.561 -112.442)" fill="#020202"/>
        <path id="Trazado_181542" data-name="Trazado 181542" d="M143.881,215.833c.24.055.481.107.719.166,7.128,1.78,14.252,3.579,21.39,5.322.966.236,1.194.571.928,1.544-.719,2.636-.672,2.639-3.306,1.978-6.65-1.668-13.3-3.349-19.96-4.966-.911-.222-1.262-.488-.913-1.429.241-.65.339-1.353.533-2.023.083-.286.1-.706.608-.593" transform="translate(-95.527 -144.566)" fill="#020202"/>
        <path id="Trazado_181543" data-name="Trazado 181543" d="M167.143,246.285c-.287,1.137-.52,2.18-.818,3.2-.2.686-.7.218-1.016.14-4.425-1.081-8.842-2.191-13.261-3.3-2.869-.717-5.734-1.447-8.606-2.148-.641-.156-.935-.314-.736-1.124.738-3.008.694-3.01,3.712-2.252,6.528,1.639,13.06,3.261,19.583,4.922.4.1,1.031-.032,1.143.554" transform="translate(-95.552 -161.027)" fill="#020202"/>
        <path id="Trazado_181544" data-name="Trazado 181544" d="M143.834,191.776l9.588,2.4c.318.08.637.154.955.236,3.143.8,3.132.8,2.086,3.952-.168.505-.36.588-.878.456-4.13-1.057-8.27-2.074-12.406-3.1-.465-.116-.813-.232-.58-.891.286-.807.412-1.669.628-2.5.1-.38.241-.754.607-.547" transform="translate(-95.472 -128.423)" fill="#020202"/>
        <path id="Trazado_181545" data-name="Trazado 181545" d="M201.814,210.85c-1.622-.407-3.2-.817-4.793-1.2-.513-.122-.569-.329-.465-.847.642-3.227.623-3.231,3.761-2.435.04.01.078.024.117.038.915.317,2.434.164,2.653.874.28.91-.358,2.1-.612,3.174-.086.363-.269.611-.66.394" transform="translate(-131.636 -137.945)" fill="#020202"/>
        <path id="Trazado_181546" data-name="Trazado 181546" d="M185.451,47.626a5.931,5.931,0,1,1-5.974-5.946,5.961,5.961,0,0,1,5.974,5.946M179.576,45.7a1.909,1.909,0,1,0,1.854,1.93,1.982,1.982,0,0,0-1.854-1.93" transform="translate(-116.28 -27.92)" fill="#020202"/>
        <path id="Trazado_181547" data-name="Trazado 181547" d="M54.871,95.547a2.147,2.147,0,0,1,1.263.439c1.71,1.13,3.4,2.286,5.131,3.389.555.355.543.624.207,1.153-1.679,2.641-1.662,2.652-4.3.9-1.741-1.159-1.741-1.159-2.9.586-.023.034-.05.065-.073.1-1.8,2.7-1.923,2.7-4.429.577-.388-.328-.348-.536-.1-.9,1.221-1.8,2.412-3.615,3.63-5.414a1.936,1.936,0,0,1,1.572-.826" transform="translate(-33.146 -64.003)" fill="#020202"/>
        <path id="Trazado_181548" data-name="Trazado 181548" d="M187.743,53.859a1.909,1.909,0,1,1-1.96,1.825,1.98,1.98,0,0,1,1.96-1.825" transform="translate(-124.447 -36.077)" fill="#fcc8a2"/>
      </g>
    </g>
  </g>
</svg>
