<svg id="Grupo_120373" data-name="Grupo 120373" xmlns="http://www.w3.org/2000/svg" xmlns:xlink="http://www.w3.org/1999/xlink" width="75.615" height="100.82" viewBox="0 0 75.615 100.82">
  <defs>
    <clipPath id="clip-path">
      <rect id="Rectángulo_37390" data-name="Rectángulo 37390" width="75.615" height="100.82" fill="#fff3bf"/>
    </clipPath>
  </defs>
  <g id="Grupo_120372" data-name="Grupo 120372" clip-path="url(#clip-path)">
    <path id="Trazado_181479" data-name="Trazado 181479" d="M65.707,233.28a12.312,12.312,0,0,0-2.905-.639,26.814,26.814,0,0,1-15.4-9.867c-.14-.181-.292-.352-.438-.527l-.64-.985a26.726,26.726,0,0,1,25.194-41.32c10.991,1.265,18.428,7.407,22.407,17.72.508,1.318.319,1.769-.854,2.543-1.365-.016-1.652-.237-2.163-1.661a23.641,23.641,0,1,0,1.374,8.365c.03-1.3.3-1.652,1.553-2.016,1.283.322,1.6.739,1.6,2.055a24.428,24.428,0,0,1-.3,3.517A26.588,26.588,0,0,1,77.62,231.723a23.481,23.481,0,0,1-6.109,1.368c-.138.011-.254.033-.291.189Z" transform="translate(-30.854 -132.459)" fill="#010101"/>
    <path id="Trazado_181480" data-name="Trazado 181480" d="M68.32,98.626a27.406,27.406,0,0,0,4.79-11.779,24.43,24.43,0,0,0,.3-3.517c0-1.315-.317-1.733-1.6-2.055a30.582,30.582,0,0,0-.764-4.688c1.174-.774,1.363-1.225.854-2.543C67.918,63.73,60.482,57.588,49.491,56.323A26.726,26.726,0,0,0,24.3,97.643q.319.493.64.985l-5.056.012A1.669,1.669,0,0,0,18.2,97.053a6.283,6.283,0,0,1-6.217-6.71q0-35.764,0-71.529c0-4.2,2.609-6.814,6.8-6.815q16.333,0,32.665,0c.491,0,.983.019,1.474.029l0,4.665c-1.241.335-1.563.732-1.565,1.994,0,5.083-.015,10.165,0,15.247a6.265,6.265,0,0,0,6.409,6.412c5.082.019,10.164.008,15.247,0,1.258,0,1.659-.327,2-1.564l5.113-.023a9.2,9.2,0,0,1,1.15,4.71q.02,23.628,0,47.256a6.271,6.271,0,0,1-6.013,6.322c-1.221.078-1.57.372-1.882,1.588l-5.063-.014" transform="translate(-8.826 -8.841)" fill="#fff3bf"/>
    <path id="Trazado_181481" data-name="Trazado 181481" d="M64.557,89.8c.313-1.216.661-1.51,1.883-1.588a6.271,6.271,0,0,0,6.013-6.322q.025-23.628,0-47.256a9.206,9.206,0,0,0-1.15-4.711,8.051,8.051,0,0,0-1.713-2.605q-5.112-5.776-10.236-11.541-4.209-4.738-8.43-9.465A8.77,8.77,0,0,0,44.1,3.188c-.491-.01-.983-.029-1.474-.029q-16.333,0-32.665,0c-4.2,0-6.8,2.614-6.8,6.815q0,35.765,0,71.529a6.283,6.283,0,0,0,6.217,6.71A1.669,1.669,0,0,1,11.055,89.8c-.344,1.284-.776,1.606-2.09,1.555a9.5,9.5,0,0,1-8.95-8.942C0,82.15,0,81.887,0,81.625Q0,45.692,0,9.76A9.4,9.4,0,0,1,8.174.11,10.8,10.8,0,0,1,9.938.01Q26.822,0,43.706,0a12.438,12.438,0,0,1,9.779,4.429q9.127,10.323,18.308,20.6a14.428,14.428,0,0,1,3.822,9.934q-.011,23.331-.007,46.663a9.46,9.46,0,0,1-8.374,9.688c-1.681.24-2.306-.113-2.677-1.514" transform="translate(0 0)" fill="#010101"/>
    <path id="Trazado_181482" data-name="Trazado 181482" d="M101.9,208.719a30.583,30.583,0,0,1,.764,4.688c-1.249.364-1.523.72-1.553,2.016a23.671,23.671,0,1,1-1.374-8.366c.511,1.425.8,1.645,2.163,1.661M62.858,216.49a6.251,6.251,0,0,0,1.659,4.783c2.295,2.342,4.6,4.676,6.96,6.952a4.54,4.54,0,0,0,6.473-.01q6.276-6.175,12.45-12.452a5.9,5.9,0,0,0,1.542-5.817,6.3,6.3,0,0,0-10.613-2.887c-1.806,1.716-3.529,3.519-5.29,5.283-1.281,1.283-1.261,1.26-2.655.046a6,6,0,0,0-6.759-1.12,5.9,5.9,0,0,0-3.767,5.223" transform="translate(-39.683 -140.973)" fill="#fdd835"/>
    <path id="Trazado_181483" data-name="Trazado 181483" d="M167.575,12.117a8.77,8.77,0,0,1,6.826,3.123q4.227,4.722,8.43,9.465,5.123,5.766,10.236,11.54a8.058,8.058,0,0,1,1.713,2.606l-5.113.023c-.317-1.244-.725-1.582-1.975-1.583q-7.476-.007-14.951,0c-2.333,0-3.577-1.247-3.579-3.579q0-7.476,0-14.951c0-1.252-.341-1.66-1.583-1.976q0-2.333,0-4.666" transform="translate(-123.478 -8.928)" fill="#fdd835"/>
    <path id="Trazado_181484" data-name="Trazado 181484" d="M163.179,29.846c1.242.316,1.582.724,1.583,1.976q.008,7.476,0,14.951c0,2.332,1.246,3.577,3.579,3.579q7.476.005,14.951,0c1.25,0,1.658.339,1.975,1.583-.337,1.238-.739,1.563-2,1.565-5.082,0-10.165.016-15.247,0a6.265,6.265,0,0,1-6.409-6.412c-.018-5.082-.007-10.165,0-15.247,0-1.262.323-1.659,1.564-1.994" transform="translate(-119.081 -21.992)" fill="#010101"/>
    <path id="Trazado_181485" data-name="Trazado 181485" d="M88.071,255.337a5.9,5.9,0,0,1,3.767-5.223,6,6,0,0,1,6.759,1.12c1.394,1.214,1.374,1.237,2.655-.046,1.761-1.764,3.484-3.567,5.29-5.283a6.3,6.3,0,0,1,10.613,2.887,5.9,5.9,0,0,1-1.542,5.817q-6.177,6.274-12.451,12.452a4.54,4.54,0,0,1-6.473.01c-2.36-2.276-4.665-4.61-6.959-6.952a6.251,6.251,0,0,1-1.659-4.783m26.088-5.157a2.619,2.619,0,0,0-.413-1.522,3.148,3.148,0,0,0-5.056-.451c-2.5,2.463-4.96,4.959-7.447,7.431a1.631,1.631,0,0,1-2.637-.005c-.634-.617-1.242-1.262-1.883-1.871a3.156,3.156,0,1,0-4.48,4.436c2.1,2.161,4.246,4.282,6.393,6.4a1.609,1.609,0,0,0,2.575-.027q6.025-6,12.031-12.025a2.933,2.933,0,0,0,.918-2.365" transform="translate(-64.896 -179.821)" fill="#010101"/>
    <path id="Trazado_181486" data-name="Trazado 181486" d="M122.962,258.887a2.933,2.933,0,0,1-.918,2.365q-6.013,6.015-12.031,12.025a1.609,1.609,0,0,1-2.575.027c-2.148-2.116-4.292-4.237-6.393-6.4a3.156,3.156,0,1,1,4.48-4.436c.642.609,1.249,1.254,1.883,1.871a1.631,1.631,0,0,0,2.637.005c2.488-2.471,4.951-4.968,7.447-7.431a3.148,3.148,0,0,1,5.056.451,2.619,2.619,0,0,1,.413,1.522" transform="translate(-73.698 -188.527)" fill="#26ccda"/>
  </g>
</svg>
