<svg xmlns="http://www.w3.org/2000/svg" xmlns:xlink="http://www.w3.org/1999/xlink" width="139.13" height="140" viewBox="0 0 139.13 140">
  <defs>
    <clipPath id="clip-path">
      <rect id="Rectángulo_5876" data-name="Rectángulo 5876" width="139.13" height="140" transform="translate(0.473 -0.176)" fill="#fff" stroke="#707070" stroke-width="1"/>
    </clipPath>
  </defs>
  <g id="Enmascarar_grupo_26" data-name="Enmascarar grupo 26" transform="translate(-0.473 0.176)" clip-path="url(#clip-path)">
    <g id="caja" transform="translate(0.061 21.64)">
      <path id="Trazado_104639" data-name="Trazado 104639" d="M139.6,4.814V91.463a4.827,4.827,0,0,1-4.814,4.813H4.814A4.827,4.827,0,0,1,0,91.463V4.814A4.828,4.828,0,0,1,4.814,0H19.255A4.805,4.805,0,0,1,24.02,4.164a5.759,5.759,0,0,1,.049.65v9.627h91.461V4.814a5.756,5.756,0,0,1,.049-.65A4.805,4.805,0,0,1,120.345,0h14.441A4.828,4.828,0,0,1,139.6,4.814Zm0,0" transform="translate(0 0)" fill="#f29c1f"/>
      <path id="Trazado_104640" data-name="Trazado 104640" d="M21.179,4.164A4.805,4.805,0,0,0,16.414,0h.963a4.234,4.234,0,0,1,3.8,4.164Zm0,0" transform="translate(2.842 0)" fill="#f29c1f"/>
      <path id="Trazado_104641" data-name="Trazado 104641" d="M103.289,0a4.805,4.805,0,0,0-4.765,4.164A4.234,4.234,0,0,1,102.326,0Zm0,0" transform="translate(17.056 0)" fill="#f29c1f"/>
      <path id="Trazado_104642" data-name="Trazado 104642" d="M24.069,51.293V87.4H4.814A4.827,4.827,0,0,1,0,82.583V51.293Zm0,0" transform="translate(0 8.88)" fill="#d25627"/>
      <path id="Trazado_104643" data-name="Trazado 104643" d="M23.362,51.293V87.4H7.958a4.426,4.426,0,0,1-3.851-4.813V51.293Zm0,0" transform="translate(0.708 8.88)" fill="#e57e25"/>
      <path id="Trazado_104644" data-name="Trazado 104644" d="M36.931,51.293H92.289V87.4H36.931Zm0,0" transform="translate(6.394 8.88)" fill="#e57e25"/>
      <path id="Trazado_104645" data-name="Trazado 104645" d="M122.2,51.293v31.29a4.827,4.827,0,0,1-4.814,4.813H100.534v-36.1Zm0,0" transform="translate(17.404 8.88)" fill="#d25627"/>
      <path id="Trazado_104646" data-name="Trazado 104646" d="M117.382,51.293v31.29a4.393,4.393,0,0,1-3.744,4.813h-13.1v-36.1Zm0,0" transform="translate(17.404 8.88)" fill="#e57e25"/>
      <path id="Trazado_104647" data-name="Trazado 104647" d="M100.534,22.569H122.2v33.7H100.534Zm0,0" transform="translate(17.404 3.907)" fill="#e57e25"/>
      <path id="Trazado_104648" data-name="Trazado 104648" d="M0,22.569H24.069v33.7H0Zm0,0" transform="translate(0 3.907)" fill="#e57e25"/>
      <path id="Trazado_104649" data-name="Trazado 104649" d="M100.534,22.569h16.848v33.7H100.534Zm0,0" transform="translate(17.404 3.907)" fill="#f29c1f"/>
      <path id="Trazado_104650" data-name="Trazado 104650" d="M4.1,22.569H23.359v33.7H4.1Zm0,0" transform="translate(0.711 3.907)" fill="#f29c1f"/>
      <path id="Trazado_104651" data-name="Trazado 104651" d="M20.518,12.31H39.773V94.145H20.518Zm0,0" transform="translate(3.552 2.131)" fill="#fac176"/>
      <path id="Trazado_104652" data-name="Trazado 104652" d="M84.12,12.31h19.255V94.145H84.12Zm0,0" transform="translate(14.563 2.131)" fill="#fac176"/>
      <path id="Trazado_104653" data-name="Trazado 104653" d="M36.931,12.31H92.289V24.344H36.931Zm0,0" transform="translate(6.394 2.131)" fill="#d25627"/>
      <path id="Trazado_104654" data-name="Trazado 104654" d="M100.534,12.31H122.2V24.344H100.534Zm0,0" transform="translate(17.404 2.131)" fill="#d25627"/>
      <path id="Trazado_104655" data-name="Trazado 104655" d="M0,12.31H24.069V24.344H0Zm0,0" transform="translate(0 2.131)" fill="#d25627"/>
      <g id="Grupo_55194" data-name="Grupo 55194" transform="translate(31.29 40.918)">
        <path id="Trazado_104656" data-name="Trazado 104656" d="M31.486,37.287a2.407,2.407,0,1,1-2.407-2.407A2.406,2.406,0,0,1,31.486,37.287Zm0,0" transform="translate(-26.672 -34.879)" fill="#35495e"/>
        <path id="Trazado_104657" data-name="Trazado 104657" d="M31.486,68.062a2.407,2.407,0,1,1-2.407-2.406A2.407,2.407,0,0,1,31.486,68.062Zm0,0" transform="translate(-26.672 -29.552)" fill="#35495e"/>
        <path id="Trazado_104658" data-name="Trazado 104658" d="M95.09,37.287a2.407,2.407,0,1,1-2.407-2.407A2.406,2.406,0,0,1,95.09,37.287Zm0,0" transform="translate(-15.661 -34.879)" fill="#35495e"/>
        <path id="Trazado_104659" data-name="Trazado 104659" d="M95.09,68.062a2.407,2.407,0,1,1-2.407-2.406A2.407,2.407,0,0,1,95.09,68.062Zm0,0" transform="translate(-15.661 -29.552)" fill="#35495e"/>
      </g>
      <path id="Trazado_104660" data-name="Trazado 104660" d="M24.069,4.814v9.627H0V4.814A4.828,4.828,0,0,1,4.814,0H19.255a4.829,4.829,0,0,1,4.814,4.814Zm0,0" transform="translate(0 0)" fill="#e57e25"/>
      <path id="Trazado_104661" data-name="Trazado 104661" d="M23.362,4.814v9.627H4.107V4.814A4.427,4.427,0,0,1,7.958,0H19.511A4.428,4.428,0,0,1,23.362,4.814Zm0,0" transform="translate(0.708 0)" fill="#f29c1f"/>
      <path id="Trazado_104662" data-name="Trazado 104662" d="M122.552,4.814v9.627H98.482V4.814A4.829,4.829,0,0,1,103.3,0h14.441a4.828,4.828,0,0,1,4.814,4.814Zm0,0" transform="translate(17.049 0)" fill="#e57e25"/>
      <path id="Trazado_104663" data-name="Trazado 104663" d="M117.741,4.814v9.627H98.485V4.814A4.428,4.428,0,0,1,102.337,0h11.553A4.427,4.427,0,0,1,117.741,4.814Zm0,0" transform="translate(17.046 0)" fill="#f29c1f"/>
      <path id="Trazado_104664" data-name="Trazado 104664" d="M47.9,33.538H45.493a2.407,2.407,0,0,1,0-4.814H47.9a2.407,2.407,0,0,1,0,4.814Zm0,0" transform="translate(7.459 4.973)" fill="#fac176"/>
      <path id="Trazado_104665" data-name="Trazado 104665" d="M79.821,33.538H55.751a2.407,2.407,0,0,1,0-4.814H79.821a2.407,2.407,0,0,1,0,4.814Zm0,0" transform="translate(9.235 4.973)" fill="#fac176"/>
    </g>
  </g>
</svg>
