<svg id="Grupo_120827" data-name="Grupo 120827" xmlns="http://www.w3.org/2000/svg" xmlns:xlink="http://www.w3.org/1999/xlink" width="132.146" height="132.145" viewBox="0 0 132.146 132.145">
  <defs>
    <clipPath id="clip-path">
      <rect id="Rectángulo_37854" data-name="Rectángulo 37854" width="132.146" height="132.144" fill="none"/>
    </clipPath>
  </defs>
  <g id="Grupo_120827-2" data-name="Grupo 120827" clip-path="url(#clip-path)">
    <path id="Trazado_182342" data-name="Trazado 182342" d="M2.186,124.029c-1.741-.505-2.162-1.034-2.163-2.815Q.017,99.692.025,78.17C.03,71.431,4.783,66.735,11.587,66.734q45.245-.007,90.49.033a2.634,2.634,0,0,0,2.834-1.677c.687-1.489,1.606-2.873,2.44-4.294.908-1.548,1.5-1.78,3.284-1.334,1.395,1.381,1.431,1.95.258,3.981Q100.855,80.818,90.819,98.194c-1.342,2.324-1.336,2.327.923,3.653,1.562.917,1.552.911,2.454-.651q14.175-24.587,28.357-49.17c1.634-2.832,1.628-2.793-1.31-4.416-.753-.416-1.086-.319-1.485.4-1.15,2.086-2.408,4.113-3.534,6.211a2.787,2.787,0,0,1-3.248,1.665c-1.517-1.506-1.6-2.071-.512-3.952,2.446-4.244,4.864-8.505,7.359-12.72a6.584,6.584,0,0,1,12.169,1.95,6.765,6.765,0,0,1-1,5.122c-4,6.889-7.96,13.8-11.989,20.671-.617,1.052-.765,1.62.39,2.5a9.7,9.7,0,0,1,3.9,7.857c.078,8.851.029,17.7.036,26.555a2.3,2.3,0,0,1-2.177,2.523c-1.734-.4-2.225-.986-2.226-2.738q-.009-12.729,0-25.46a7.293,7.293,0,0,0-1.046-3.927c-1.312-2.14-1.786-2.155-3.015-.081-.257.434-.5.876-.753,1.311a.768.768,0,0,0-.043.9,3.929,3.929,0,0,1,.445,2.522q0,31.928,0,63.856c0,2.629-.594,3.221-3.236,3.221H12.066c-2.644,0-3.236-.589-3.236-3.219q0-32,0-63.994c0-2.657.585-3.252,3.2-3.252H77.125c3.853,0,7.707-.01,11.56.006,1.651.007,2.324.63,2.512,2.231-.217,1.67-.858,2.167-2.841,2.167q-36.808,0-73.615-.021c-1.109,0-1.548.128-1.545,1.439q.079,29.446.015,58.892c0,1.033.2,1.376,1.324,1.374q47.127-.051,94.255,0c1.066,0,1.359-.252,1.357-1.343q-.054-28.207-.036-56.415c0-.318.195-.712-.265-1.048l-4.15,7.444c-2.333,3.978-4.763,7.9-6.968,11.952a37.388,37.388,0,0,1-6.832,9.032c-2.983,2.9-4.467,3.212-8.2,1.215,0,4.3-.039,8.542.024,12.778a3.514,3.514,0,0,1-1.309,3.108H65.166a3.315,3.315,0,0,1-1.328-2.16c.458-1.737,1.021-2.186,2.779-2.2.917-.008,1.84-.062,2.751.016s1.141-.255,1.137-1.145q-.054-9.839,0-19.679c.006-.933-.192-1.247-1.19-1.237q-7.637.079-15.275,0c-1-.01-1.2.3-1.193,1.235.043,5.642,0,11.284.035,16.927.007,1.264-.574,2.948.264,3.673.719.621,2.356.189,3.587.207,1.756.027,2.317.466,2.781,2.2a3.364,3.364,0,0,1-1.326,2.166c-1.417.012-2.836.071-4.251.018-.816-.031-1.13.16-1.092,1.048.074,1.739.039,3.483.017,5.224-.021,1.716-.823,2.544-2.528,2.547q-10.656.023-21.313,0c-1.779,0-2.558-.823-2.575-2.639-.015-1.65-.056-3.3.017-4.949.042-.928-.172-1.291-1.182-1.238-1.691.088-3.391.04-5.086.019-1.722-.021-2.551-.818-2.554-2.52q-.02-12.925,0-25.851a2.211,2.211,0,0,1,2.484-2.449c1.557-.032,3.115-.034,4.672-.049l3.845,0q8.248.024,16.495.046c3.557.007,3.536,0,3.35-3.583-.035-.662-.229-.849-.873-.846-6.323.034-12.647.042-18.97.057-1.6-.421-2.335-1.268-2.183-2.5.154-1.252,1.09-1.938,2.709-1.939q10.454-.009,20.908,0c2.041,0,2.777.763,2.785,2.847.007,1.513.073,3.031-.022,4.538-.07,1.1.173,1.5,1.381,1.454,2.655-.106,5.318-.033,7.977-.033H80.362c2.746,0,3.333.574,3.337,3.262,0,.42,0,.839,0,1.259a26.88,26.88,0,0,1,2.477-4.609q3.721-6.565,7.473-13.113a67.848,67.848,0,0,0,3.808-6.617c1.413-2.064,2.563-4.276,3.864-6.605H11.812c-4.678,0-7.325,2.649-7.326,7.329q0,21.4,0,42.8c0,1.846-.566,2.513-2.3,2.768m84.593-15.205c.251.793.689.583,1.107.176.72-.7,1.406-1.439,2.116-2.152.672-.675.2-.91-.41-1.1-1.753-1.211-1.778-1.218-2.284.727a6.528,6.528,0,0,0-.528,2.347M48.458,113c0-3.344-.021-6.688.016-10.032.008-.759-.181-1.022-.984-1.017q-7.832.052-15.666,0c-.807-.006-.984.264-.98,1.019q.042,9.963,0,19.926c0,.82.18,1.1,1.055,1.089q7.763-.06,15.528.008c.891.008,1.054-.3,1.044-1.1-.04-3.3-.017-6.6-.017-9.894m-26.416-.168v7.98c0,3.2,0,3.164,3.2,3.193.948.009,1.234-.219,1.226-1.2-.048-5.87-.024-11.74-.024-17.61,0-3.28,0-3.232-3.262-3.259-1.037-.009-1.174.376-1.16,1.268.048,3.209.019,6.42.019,9.63m52.841.088v7.829c0,3.281,0,3.236,3.257,3.266,1,.009,1.189-.317,1.183-1.241-.041-5.86-.021-11.721-.021-17.581,0-3.329,0-3.291-3.394-3.265-.889.007-1.051.3-1.041,1.1.04,3.3.017,6.593.017,9.889M39.706,128.389H34.068c-3.275,0-3.239,0-3.241,3.288,0,.908.26,1.144,1.15,1.135,4.4-.044,8.8-.02,13.2-.02,3.366,0,3.331,0,3.31-3.357-.006-.857-.242-1.084-1.082-1.066-2.566.054-5.134.019-7.7.019m85.881-88.074a3.647,3.647,0,0,0-2.876,2.734c-.035.335,2.888,2.231,3.4,2.206.459-.023,1.539-1.893,1.563-2.705a2.133,2.133,0,0,0-2.088-2.234" transform="translate(-0.011 -22.674)"/>
    <path id="Trazado_182343" data-name="Trazado 182343" d="M5.912,184.633c1.732-.255,2.3-.922,2.3-2.768q.006-21.4,0-42.8c0-4.68,2.648-7.329,7.326-7.329h89.509c-1.3,2.33-2.451,4.541-3.865,6.605l-6.259.034c-.188-1.6-.861-2.225-2.512-2.231-3.853-.015-7.707-.005-11.56-.005H15.756c-2.617,0-3.2.594-3.2,3.252q0,32,0,63.994c0,2.63.593,3.219,3.236,3.219h99.225c2.642,0,3.236-.592,3.236-3.221q0-31.928,0-63.856a3.93,3.93,0,0,0-.445-2.522.767.767,0,0,1,.043-.9c.253-.436.5-.878.753-1.311,1.229-2.074,1.7-2.06,3.015.081a7.293,7.293,0,0,1,1.046,3.927q-.021,12.729,0,25.46c0,1.753.491,2.336,2.226,2.738q0,2.171,0,4.342c-1.779.411-2.226.977-2.227,2.873q0,14.923,0,29.846a6.575,6.575,0,0,1-6.936,6.886q-50.34.006-100.679,0a6.586,6.586,0,0,1-6.823-6.855c-.008-4.218.009-8.436-.008-12.654-.007-1.589-.642-2.247-2.292-2.494q0-2.157,0-4.314" transform="translate(-3.737 -83.278)" fill="#929899"/>
    <path id="Trazado_182344" data-name="Trazado 182344" d="M2.177,257c1.65.248,2.285.906,2.292,2.494.017,4.218,0,8.436.008,12.654A6.586,6.586,0,0,0,11.3,279q50.34.007,100.679,0a6.575,6.575,0,0,0,6.936-6.886q.014-14.923,0-29.846c0-1.9.448-2.462,2.227-2.873,1.726.463,2.173,1.019,2.174,2.8,0,10.041.028,20.083-.007,30.124a10.953,10.953,0,0,1-11.161,11.145q-50.48.027-100.961,0A10.973,10.973,0,0,1,.016,272.331c-.029-4.172-.011-8.345,0-12.517,0-1.779.426-2.312,2.165-2.812" transform="translate(0 -151.333)"/>
    <path id="Trazado_182345" data-name="Trazado 182345" d="M102.667,29.7c0,2.8-.03,5.6.013,8.393a2.613,2.613,0,0,1-1.6,2.619Q94.807,43.82,88.56,46.971a2.7,2.7,0,0,1-2.617-.012Q79.636,43.768,73.3,40.636A2.45,2.45,0,0,1,71.83,38.22q.028-8.461,0-16.923a2.534,2.534,0,0,1,1.54-2.514c4.183-2.071,8.363-4.145,12.526-6.256a2.8,2.8,0,0,1,2.74,0q6.245,3.155,12.514,6.26a2.53,2.53,0,0,1,1.531,2.522c-.035,2.8-.011,5.595-.011,8.393M76.258,24.514c0,4.1,0,7.949,0,11.8,0,.408-.06.827.417,1.063,2.737,1.355,5.469,2.719,8.358,4.158,0-4.133-.007-8.065.008-12a.935.935,0,0,0-.617-.945c-2.66-1.315-5.311-2.65-8.167-4.08m22-.008c-2.911,1.449-5.646,2.811-8.383,4.17a.767.767,0,0,0-.425.785c.006,3.973,0,7.947,0,12.114,2.907-1.45,5.641-2.815,8.376-4.177a.769.769,0,0,0,.433-.781c-.007-3.972,0-7.944,0-12.111m-19.3-3.587c2.807,1.4,5.3,2.644,7.783,3.891a.888.888,0,0,0,.9.086c2.546-1.292,5.1-2.564,7.913-3.971-2.831-1.42-5.391-2.7-7.945-3.99a.775.775,0,0,0-.771.056c-2.522,1.263-5.048,2.519-7.875,3.928" transform="translate(-45.404 -7.693)"/>
    <path id="Trazado_182346" data-name="Trazado 182346" d="M267.442,75.644a2.787,2.787,0,0,0,3.248-1.665c1.126-2.1,2.383-4.126,3.534-6.211.4-.724.732-.82,1.485-.4,2.938,1.622,2.944,1.584,1.31,4.416q-14.185,24.582-28.357,49.17c-.9,1.563-.892,1.568-2.454.651-2.259-1.326-2.265-1.329-.923-3.653Q255.317,100.57,265.357,83.2c1.173-2.031,1.136-2.6-.258-3.981.871-1.132,1.247-2.587,2.343-3.571" transform="translate(-154.476 -42.427)" fill="#929899"/>
    <path id="Trazado_182347" data-name="Trazado 182347" d="M161.143,88.888c-1.052,0-2.1.03-3.155-.008a2.2,2.2,0,1,1,.021-4.385c1.142-.036,2.287-.041,3.429,0,.643.025.891-.154.859-.833-.052-1.095-.031-2.195-.01-3.292a2.23,2.23,0,0,1,2.161-2.486,2.206,2.206,0,0,1,2.231,2.415q.044,3.086,0,6.173a2.2,2.2,0,0,1-2.38,2.406c-1.051.031-2.1.006-3.155.006" transform="translate(-98.414 -49.235)"/>
    <path id="Trazado_182348" data-name="Trazado 182348" d="M41.914,83.354c0-1.1-.039-2.2.013-3.292a2.186,2.186,0,0,1,4.372,0c.054,1.141.057,2.288,0,3.428-.036.746.149,1.061.963,1.01,1.093-.07,2.195-.042,3.291-.01a2.2,2.2,0,1,1-.052,4.388q-3.086.045-6.173,0a2.2,2.2,0,0,1-2.412-2.372c-.031-1.051-.006-2.1,0-3.155" transform="translate(-26.487 -49.235)"/>
    <path id="Trazado_182349" data-name="Trazado 182349" d="M166.684,5.554c0,1.052.028,2.1-.008,3.155a2.2,2.2,0,0,1-2.192,2.316,2.221,2.221,0,0,1-2.2-2.314c-.082-1.4.593-3.267-.277-4.062-.757-.692-2.6-.18-3.964-.228a2.2,2.2,0,1,1,.046-4.39q3.086-.044,6.173,0a2.224,2.224,0,0,1,2.42,2.5c.02,1.006,0,2.012,0,3.018" transform="translate(-98.413 -0.006)"/>
    <path id="Trazado_182350" data-name="Trazado 182350" d="M41.916,5.546c0-1.052-.025-2.1.006-3.155A2.166,2.166,0,0,1,44.2.031q3.222-.065,6.447,0a2.17,2.17,0,0,1,2.269,2.232,2.185,2.185,0,0,1-2.223,2.145A26.529,26.529,0,0,1,47.4,4.4c-.948-.077-1.155.3-1.1,1.152.067,1.047.044,2.1.006,3.154A2.2,2.2,0,1,1,41.923,8.7c-.035-1.051-.007-2.1-.007-3.155" transform="translate(-26.49 0)"/>
    <path id="Trazado_182351" data-name="Trazado 182351" d="M113.845,149.73l6.259-.034a67.968,67.968,0,0,1-3.808,6.618L48.218,156.3c-.138,0-.276.011-.412,0-.623-.048-.928.194-.919.861.059,4.108-.243,8.232.561,12.306-1.557.015-3.115.017-4.672.049a2.212,2.212,0,0,0-2.484,2.449q-.025,12.925,0,25.851c0,1.7.832,2.5,2.554,2.52,1.7.021,3.4.069,5.086-.019,1.009-.053,1.223.31,1.182,1.238-.073,1.647-.032,3.3-.017,4.949.017,1.817.8,2.636,2.575,2.639q10.657.02,21.313,0c1.705,0,2.507-.831,2.529-2.548.022-1.741.058-3.486-.017-5.224-.038-.888.276-1.078,1.092-1.048,1.415.053,2.834-.006,4.252-.018l6.975-.007,17.247,0,10.047.033c.016,2.149.01,4.3.054,6.445a2.155,2.155,0,0,0,2.286,2.355q4.321.061,8.643,0a2.078,2.078,0,0,0,2.245-2.1c.02-3.244.155-6.491-.075-9.733a47.378,47.378,0,0,0-.013-7.168,3.153,3.153,0,0,0,0-1.6c.039-.409.111-.817.111-1.226q0-12.544-.016-25.087l4.15-7.444c.46.336.265.73.265,1.048q.018,28.207.036,56.415c0,1.091-.291,1.343-1.357,1.342q-47.127-.044-94.255,0c-1.124,0-1.326-.342-1.324-1.375q.044-29.446-.015-58.892c0-1.311.436-1.44,1.545-1.439Q74.2,151.92,111,151.9c1.982,0,2.623-.5,2.841-2.167M92.039,206.949c3.113,0,6.225.006,9.337,0,1.746,0,2.74-.8,2.758-2.175s-.987-2.223-2.7-2.225q-9.406-.011-18.812,0c-1.709,0-2.714.859-2.687,2.24.026,1.33,1.005,2.151,2.634,2.158,3.158.013,6.317,0,9.475,0" transform="translate(-22.658 -94.628)" fill="#b1f9ff"/>
    <path id="Trazado_182352" data-name="Trazado 182352" d="M66.409,180.811c-.8-4.074-.5-8.2-.561-12.306-.01-.667.3-.909.919-.86.137.01.275,0,.413,0l68.077.011q-3.739,6.555-7.474,13.113a26.878,26.878,0,0,0-2.476,4.609q0-.63,0-1.259c0-2.688-.591-3.262-3.337-3.262H103.812c-2.66,0-5.322-.073-7.977.033-1.208.048-1.451-.357-1.381-1.454.1-1.507.029-3.025.023-4.538-.009-2.084-.745-2.845-2.785-2.847q-10.454-.01-20.909,0c-1.619,0-2.555.687-2.709,1.939-.152,1.232.588,2.08,2.183,2.5q0,2.163,0,4.325Zm45.811-10.965c-2.792,0-5.583-.006-8.375,0-1.745.005-2.736.8-2.752,2.174s.984,2.223,2.7,2.225q8.306.012,16.612,0c1.7,0,2.715-.871,2.686-2.245-.028-1.329-1.007-2.145-2.637-2.153-2.746-.013-5.492,0-8.238,0" transform="translate(-41.619 -105.97)" fill="#b1f9ff"/>
    <path id="Trazado_182353" data-name="Trazado 182353" d="M247.285,183.731q.01,12.544.016,25.087c0,.409-.073.817-.111,1.226a2.548,2.548,0,0,0-2.6-1.409c-1.233.049-2.47-.012-3.7.018a2.2,2.2,0,1,0,0,4.389c1.234.032,2.471-.029,3.7.018a2.547,2.547,0,0,0,2.593-1.413,47.382,47.382,0,0,1,.014,7.168,2.776,2.776,0,0,0-2.754-1.377c-2.366.054-4.736.015-7.1.016-2.667,0-3.239.585-3.252,3.307,0,.363-.029.727-.044,1.09L224,221.817a3.517,3.517,0,0,0,1.307-3.108c-.063-4.237-.024-8.476-.024-12.778,3.73,2,5.214,1.683,8.2-1.216a37.394,37.394,0,0,0,6.832-9.031c2.206-4.048,4.636-7.974,6.969-11.952" transform="translate(-141.6 -116.142)" fill="#b1f9ff"/>
    <path id="Trazado_182354" data-name="Trazado 182354" d="M150.035,239.722c-.464-1.739-1.025-2.177-2.781-2.2-1.231-.019-2.869.414-3.587-.208-.838-.725-.258-2.41-.264-3.673-.032-5.642.008-11.285-.035-16.927-.007-.936.2-1.245,1.193-1.235q7.637.079,15.275,0c1-.01,1.2.3,1.19,1.237q-.059,9.839,0,19.679c0,.89-.221,1.223-1.137,1.145s-1.833-.024-2.751-.016c-1.758.015-2.321.464-2.779,2.2h-4.322" transform="translate(-90.53 -136.209)" fill="#fecf00"/>
    <path id="Trazado_182355" data-name="Trazado 182355" d="M101.427,226.565c0,3.3-.024,6.6.017,9.894.01.8-.152,1.108-1.044,1.1q-7.763-.07-15.528-.008c-.875.007-1.058-.269-1.055-1.09q.043-9.963-.005-19.926c0-.755.174-1.025.981-1.019q7.833.052,15.666,0c.8-.005.992.258.984,1.017-.037,3.344-.016,6.688-.016,10.032" transform="translate(-52.98 -136.235)" fill="#fecf00"/>
    <path id="Trazado_182356" data-name="Trazado 182356" d="M59.853,226.365c0-3.21.029-6.421-.02-9.63-.013-.892.123-1.277,1.16-1.268,3.262.027,3.262-.021,3.262,3.259,0,5.87-.024,11.74.024,17.61.008.984-.279,1.211-1.226,1.2-3.2-.029-3.2.01-3.2-3.193v-7.98" transform="translate(-37.822 -136.203)" fill="#fecf00"/>
    <path id="Trazado_182357" data-name="Trazado 182357" d="M203.5,226.436c0-3.3.024-6.593-.017-9.889-.01-.8.152-1.1,1.041-1.1,3.395-.026,3.394-.064,3.394,3.265,0,5.86-.02,11.721.021,17.581.006.924-.181,1.25-1.183,1.241-3.256-.03-3.257.015-3.257-3.266v-7.829" transform="translate(-128.628 -136.187)" fill="#fecf00"/>
    <path id="Trazado_182358" data-name="Trazado 182358" d="M77.842,195.93q0-2.163,0-4.326c6.323-.015,12.647-.022,18.97-.056.644,0,.839.184.873.846.186,3.585.207,3.59-3.35,3.583q-8.247-.017-16.495-.046" transform="translate(-49.207 -121.084)" fill="#fecf00"/>
    <path id="Trazado_182359" data-name="Trazado 182359" d="M92.648,287.339c2.567,0,5.135.034,7.7-.019.84-.018,1.076.209,1.082,1.066.022,3.357.056,3.357-3.31,3.357-4.4,0-8.8-.024-13.2.02-.89.009-1.151-.227-1.15-1.136,0-3.288-.034-3.288,3.241-3.288h5.639" transform="translate(-52.953 -181.624)" fill="#fecf00"/>
    <path id="Trazado_182360" data-name="Trazado 182360" d="M336.419,47.954a2.133,2.133,0,0,1,2.088,2.234c-.024.813-1.1,2.682-1.563,2.705-.512.026-3.435-1.87-3.4-2.206a3.647,3.647,0,0,1,2.876-2.734" transform="translate(-210.844 -30.313)" fill="#cfd7d9"/>
    <path id="Trazado_182361" data-name="Trazado 182361" d="M159.482,281.388H163.8a3.313,3.313,0,0,0,1.327,2.16l-6.974.006a3.367,3.367,0,0,0,1.325-2.166" transform="translate(-99.976 -177.875)" fill="#e8f0f1"/>
    <path id="Trazado_182362" data-name="Trazado 182362" d="M235.847,227.467a6.528,6.528,0,0,1,.528-2.347c.507-1.945.532-1.939,2.284-.728l-2.813,3.075" transform="translate(-149.079 -141.318)" fill="#cfd7d9"/>
    <path id="Trazado_182363" data-name="Trazado 182363" d="M235.868,228.9l2.813-3.075c.611.189,1.082.424.41,1.1-.71.713-1.4,1.449-2.116,2.152-.417.407-.855.617-1.107-.176" transform="translate(-149.1 -142.753)" fill="#929899"/>
    <path id="Trazado_182364" data-name="Trazado 182364" d="M83.87,45.727c2.856,1.43,5.506,2.765,8.167,4.079a.936.936,0,0,1,.617.945c-.015,3.932-.008,7.864-.008,12-2.889-1.438-5.621-2.8-8.358-4.157-.477-.237-.417-.655-.417-1.063v-11.8" transform="translate(-53.015 -28.906)" fill="#fecf00"/>
    <path id="Trazado_182365" data-name="Trazado 182365" d="M128.549,45.706c0,4.166,0,8.139,0,12.111a.768.768,0,0,1-.433.781c-2.735,1.362-5.469,2.727-8.376,4.177,0-4.168,0-8.141,0-12.114a.766.766,0,0,1,.425-.785c2.737-1.359,5.472-2.721,8.383-4.17" transform="translate(-75.692 -28.892)" fill="#fecf00"/>
    <path id="Trazado_182366" data-name="Trazado 182366" d="M91.209,28.97c2.827-1.409,5.352-2.664,7.875-3.928a.775.775,0,0,1,.771-.056c2.554,1.29,5.114,2.57,7.945,3.99-2.811,1.407-5.367,2.679-7.913,3.971a.888.888,0,0,1-.9-.086c-2.486-1.247-4.976-2.489-7.783-3.891" transform="translate(-57.656 -15.744)" fill="#fecf00"/>
    <path id="Trazado_182367" data-name="Trazado 182367" d="M251.314,279.768c.015-.363.042-.726.043-1.09.014-2.722.586-3.306,3.252-3.307,2.368,0,4.737.038,7.1-.016a2.775,2.775,0,0,1,2.753,1.377c.23,3.243.1,6.489.075,9.733a2.078,2.078,0,0,1-2.245,2.1q-4.321.057-8.643,0a2.155,2.155,0,0,1-2.286-2.355c-.045-2.148-.039-4.3-.054-6.445m8.853,2.333c0-2.326,0-2.326-2.387-2.326a6.8,6.8,0,0,1-.961-.007c-.843-.121-1.187.2-1.064,1.056a7.8,7.8,0,0,1,.008,1.1c0,2.257,0,2.257,2.319,2.257,2.085,0,2.085,0,2.085-2.078" transform="translate(-158.864 -174.06)" fill="#323232"/>
    <path id="Trazado_182368" data-name="Trazado 182368" d="M167.794,297.759c-3.158,0-6.317.009-9.475,0-1.629-.007-2.607-.828-2.634-2.158-.028-1.381.978-2.238,2.687-2.24q9.406-.012,18.812,0c1.717,0,2.722.846,2.7,2.225s-1.011,2.17-2.758,2.174c-3.112.008-6.225,0-9.337,0" transform="translate(-98.414 -185.437)"/>
    <path id="Trazado_182369" data-name="Trazado 182369" d="M272.112,254.434a2.547,2.547,0,0,1-2.593,1.413c-1.233-.048-2.47.013-3.7-.018a2.2,2.2,0,1,1,0-4.389c1.234-.031,2.471.031,3.7-.018a2.547,2.547,0,0,1,2.6,1.409,3.149,3.149,0,0,1,0,1.6" transform="translate(-166.522 -158.93)"/>
    <path id="Trazado_182370" data-name="Trazado 182370" d="M172.8,173.635c2.746,0,5.492-.009,8.238,0,1.63.007,2.609.823,2.637,2.153.029,1.374-.988,2.242-2.686,2.245q-8.306.013-16.612,0c-1.72,0-2.72-.843-2.7-2.225s1.008-2.169,2.752-2.174c2.792-.008,5.583,0,8.375,0" transform="translate(-102.198 -109.758)"/>
    <path id="Trazado_182371" data-name="Trazado 182371" d="M267.757,289.645c0,2.078,0,2.078-2.085,2.078-2.319,0-2.319,0-2.319-2.257a7.8,7.8,0,0,0-.008-1.1c-.122-.857.221-1.177,1.064-1.056a6.8,6.8,0,0,0,.961.007c2.387,0,2.387,0,2.387,2.326" transform="translate(-166.454 -181.604)" fill="#fecf00"/>
  </g>
</svg>
