<svg xmlns="http://www.w3.org/2000/svg" xmlns:xlink="http://www.w3.org/1999/xlink" width="208" height="208" viewBox="0 0 208 208">
  <defs>
    <filter id="Elipse_4982" x="0" y="0" width="208" height="208" filterUnits="userSpaceOnUse">
      <feOffset dx="-6" dy="6" input="SourceAlpha"/>
      <feGaussianBlur stdDeviation="3" result="blur"/>
      <feFlood flood-opacity="0.161"/>
      <feComposite operator="in" in2="blur"/>
      <feComposite in="SourceGraphic"/>
    </filter>
  </defs>
  <g id="Grupo_120927" data-name="Grupo 120927" transform="translate(-900 -10350)">
    <g transform="matrix(1, 0, 0, 1, 900, 10350)" filter="url(#Elipse_4982)">
      <g id="Elipse_4982-2" data-name="Elipse 4982" transform="translate(15 3)" fill="#fff" stroke="#ffa726" stroke-width="6">
        <circle cx="95" cy="95" r="95" stroke="none"/>
        <circle cx="95" cy="95" r="92" fill="none"/>
      </g>
    </g>
    <g id="comida-enlatada" transform="translate(954.245 10377.319)">
      <path id="Trazado_104729" data-name="Trazado 104729" d="M170.643,276.931v29.8c0,9.631-21.676,17.438-48.415,17.438-13.379,0-25.488-1.955-34.25-5.112s-14.162-7.514-14.162-12.326v-29.8Z" transform="translate(-57.162 -201.528)" fill="#f57c00"/>
      <path id="Trazado_104730" data-name="Trazado 104730" d="M87.977,276.931v42.122c-8.75-3.157-14.162-7.514-14.162-12.326v-29.8Z" transform="translate(-57.162 -201.528)" fill="#f57c00"/>
      <ellipse id="Elipse_4146" data-name="Elipse 4146" cx="48.414" cy="17.438" rx="48.414" ry="17.438" transform="translate(16.652 57.962)" fill="#e6e6e6"/>
      <path id="Trazado_104731" data-name="Trazado 104731" d="M105.836,103v29.8c0,9.631-21.676,17.438-48.415,17.438-13.379,0-25.488-1.955-34.25-5.112S9.008,137.608,9.008,132.8V103Z" transform="translate(-6.976 -66.837)" fill="#26ccda"/>
      <path id="Trazado_104732" data-name="Trazado 104732" d="M23.17,103v42.122c-8.75-3.157-14.162-7.514-14.162-12.326V103Z" transform="translate(-6.976 -66.837)" fill="#26ccda"/>
      <g id="Grupo_55239" data-name="Grupo 55239" transform="translate(2.033 18.723)">
        <ellipse id="Elipse_4147" data-name="Elipse 4147" cx="48.414" cy="17.438" rx="48.414" ry="17.438" transform="translate(0 0)" fill="#e6e6e6"/>
        <path id="Trazado_104733" data-name="Trazado 104733" d="M122.859,210.851a20.852,20.852,0,0,0-15.665,7.068,20.894,20.894,0,0,0,31.33,0A20.852,20.852,0,0,0,122.859,210.851Z" transform="translate(-85.043 -169.079)" fill="#e6e6e6"/>
        <path id="Trazado_104734" data-name="Trazado 104734" d="M256.794,219.113a20.561,20.561,0,0,1,1.127-6.72,20.882,20.882,0,0,0-11.858,6.72,20.882,20.882,0,0,0,11.858,6.72A20.568,20.568,0,0,1,256.794,219.113Z" transform="translate(-192.582 -170.273)" fill="#e6e6e6"/>
        <path id="Trazado_104735" data-name="Trazado 104735" d="M250,384.855a20.852,20.852,0,0,1,15.665,7.068,20.894,20.894,0,0,1-31.33,0A20.852,20.852,0,0,1,250,384.855Z" transform="translate(-183.502 -303.826)" fill="#e6e6e6"/>
        <path id="Trazado_104736" data-name="Trazado 104736" d="M182.9,393.117a20.561,20.561,0,0,0-1.127-6.72,20.882,20.882,0,0,1,11.858,6.72,20.882,20.882,0,0,1-11.858,6.72A20.556,20.556,0,0,0,182.9,393.117Z" transform="translate(-142.799 -305.02)" fill="#e6e6e6"/>
      </g>
      <path id="Trazado_104737" data-name="Trazado 104737" d="M100.891,61.495V36.162c0-5.579-5.513-10.637-15.524-14.243-9.359-3.371-21.762-5.228-34.922-5.228s-25.563,1.857-34.922,5.228C5.513,25.524,0,30.583,0,36.162v29.8c0,5.409,5.182,10.328,14.62,13.909V105.2c0,5.579,5.513,10.638,15.523,14.243,9.359,3.371,21.761,5.228,34.922,5.228,11.714,0,23.087-1.514,32.021-4.262a2.033,2.033,0,1,0-1.2-3.886c-8.558,2.633-19.505,4.083-30.826,4.083-12.7,0-24.616-1.771-33.545-4.987-8.037-2.9-12.835-6.79-12.835-10.419V83.321c7.689,6.952,25.583,11.551,46.38,11.551,13.16,0,25.562-1.857,34.921-5.228a34.394,34.394,0,0,0,11.458-6.331V105.2c0,2.69-2.609,5.545-7.346,8.038a2.033,2.033,0,1,0,1.893,3.6c7.866-4.141,9.518-8.613,9.518-11.635V75.4C115.511,69.984,110.332,65.076,100.891,61.495ZM16.9,25.744c8.929-3.216,20.842-4.987,33.544-4.987,27.332,0,46.38,8.119,46.38,15.405,0,3.628-4.8,7.523-12.836,10.418-8.929,3.216-20.842,4.987-33.544,4.987-27.332,0-46.38-8.119-46.38-15.405C4.065,32.533,8.864,28.638,16.9,25.744ZM4.065,65.959V44.074A34.394,34.394,0,0,0,15.524,50.4c9.359,3.371,21.762,5.228,34.922,5.228S76.008,53.775,85.368,50.4a34.4,34.4,0,0,0,11.458-6.331V65.959c0,3.628-4.8,7.523-12.836,10.418-8.929,3.216-20.842,4.987-33.544,4.987C23.113,81.365,4.065,73.246,4.065,65.959ZM98.609,85.819c-8.929,3.216-20.841,4.987-33.543,4.987-18.262,0-32.327-3.543-39.962-7.9A121.414,121.414,0,0,0,50.445,85.43c13.16,0,25.563-1.857,34.922-5.228,10.011-3.606,15.524-8.664,15.524-14.243v-.091c6.661,2.777,10.554,6.251,10.554,9.531C111.445,79.029,106.646,82.923,98.609,85.819Z" transform="translate(0)"/>
      <path id="Trazado_104738" data-name="Trazado 104738" d="M164.285,58.272c3.73-.351,7.653-.53,11.66-.53a100.193,100.193,0,0,1,24.141,2.6c.248.065.487.129.722.195a6.1,6.1,0,0,0-2.6,4.718,5.679,5.679,0,0,0,1.83,4.028,69.822,69.822,0,0,1-7.658,1.492,2.033,2.033,0,0,0,.285,4.045,2.073,2.073,0,0,0,.29-.021c7.428-1.061,19.889-3.77,19.889-9.994,0-3.542-3.947-6.367-11.732-8.4a104.292,104.292,0,0,0-25.167-2.729c-4.134,0-8.186.184-12.042.548a2.033,2.033,0,0,0,.381,4.047ZM208.779,64.8c0,.6-1.138,1.726-3.986,2.919-1.84-.948-2.518-1.9-2.518-2.47,0-.656.884-1.8,3.377-2.879.037-.016.073-.035.109-.053C208.116,63.462,208.779,64.437,208.779,64.8Z" transform="translate(-125.499 -28.642)"/>
      <path id="Trazado_104739" data-name="Trazado 104739" d="M96.943,83.274c2.2,0,4.4-.053,6.544-.157a2.033,2.033,0,0,0-.2-4.061c-2.077.1-4.212.153-6.346.153a100.193,100.193,0,0,1-24.141-2.6c-7.1-1.851-8.692-3.894-8.692-4.463,0-.672,1.984-3.028,10.8-4.968a2.033,2.033,0,0,0-.874-3.97c-9.283,2.043-13.99,5.051-13.99,8.939C60.044,79.792,79.172,83.274,96.943,83.274Z" transform="translate(-46.498 -35.986)"/>
      <path id="Trazado_104740" data-name="Trazado 104740" d="M143.038,219.661a2.033,2.033,0,0,0,2.29-2.662,18.56,18.56,0,0,1,0-12.114,2.033,2.033,0,0,0-2.29-2.662,23.01,23.01,0,0,0-11.488,5.812A22.92,22.92,0,0,0,98.7,209.6a2.033,2.033,0,0,0,0,2.693,22.92,22.92,0,0,0,32.855,1.561A23.008,23.008,0,0,0,143.038,219.661Zm-2.466-12.546a22.658,22.658,0,0,0,0,7.654,19.022,19.022,0,0,1-6.185-3.827A19.015,19.015,0,0,1,140.571,207.115Zm-24.689,8.863a18.885,18.885,0,0,1-12.827-5.035,18.855,18.855,0,0,1,25.653,0A18.885,18.885,0,0,1,115.883,215.978Z" transform="translate(-76.034 -143.38)"/>
      <path id="Trazado_104741" data-name="Trazado 104741" d="M173.257,392.993a2.033,2.033,0,0,0,1.91.674,23.01,23.01,0,0,0,11.488-5.812,22.92,22.92,0,0,0,32.855-1.561,2.033,2.033,0,0,0,0-2.693,22.92,22.92,0,0,0-32.855-1.561,23.01,23.01,0,0,0-11.488-5.812,2.033,2.033,0,0,0-2.29,2.662,18.559,18.559,0,0,1,0,12.114A2.031,2.031,0,0,0,173.257,392.993Zm29.064-13.081a18.885,18.885,0,0,1,12.827,5.035,18.855,18.855,0,0,1-25.653,0A18.884,18.884,0,0,1,202.322,379.912Zm-24.689,1.208a19.015,19.015,0,0,1,6.185,3.827,19.02,19.02,0,0,1-6.185,3.827,22.659,22.659,0,0,0,0-7.654Z" transform="translate(-133.789 -278.128)"/>
    </g>
  </g>
</svg>
