<svg id="Grupo_120368" data-name="Grupo 120368" xmlns="http://www.w3.org/2000/svg" xmlns:xlink="http://www.w3.org/1999/xlink" width="99.993" height="100" viewBox="0 0 99.993 100">
  <defs>
    <clipPath id="clip-path">
      <rect id="Rectángulo_5174" data-name="Rectángulo 5174" width="99.993" height="100" fill="none"/>
    </clipPath>
  </defs>
  <g id="Grupo_54753" data-name="Grupo 54753" clip-path="url(#clip-path)">
    <path id="Trazado_104168" data-name="Trazado 104168" d="M70.308,100H29.687c-.617-.5-1.2-1.02-.869-1.939.328-.9,1.066-1.012,1.9-1.005,2.441.02,4.882-.022,7.323.025.7.013.848-.187.844-.86q-.046-7.225,0-14.451c.007-.846-.154-1.125-1.079-1.121-10.317.039-20.635.027-30.952.023C2.684,80.671,0,78.009,0,73.865Q0,44.328,0,14.791A6.373,6.373,0,0,1,6.769,8c4.133-.01,8.267.005,12.4-.009.773,0,1.778.336,2.259-.143s.132-1.483.145-2.256A5.26,5.26,0,0,1,27.227.014Q47.487.01,67.748,0a2.92,2.92,0,0,1,1.959.684c2.3,1.863,4.626,3.694,6.938,5.541a5.844,5.844,0,0,1,1.393,1.2A1.241,1.241,0,0,0,79.317,8Q86.1,7.99,92.889,8c3.766,0,5.705,1.4,6.951,5,.015.043.1.06.153.09V75.783c-.26.037-.242.28-.306.443a6.372,6.372,0,0,1-6.5,4.446c-3.153,0-6.306-.018-9.459.012A1.649,1.649,0,0,1,81.826,79.3c.252-1.2.651-1.552,1.837-1.556,3.318-.011,6.637.016,9.955-.027a3.383,3.383,0,0,0,3.424-3.407c.034-1.431-.011-2.863.018-4.294.01-.505-.135-.688-.657-.667-.909.035-1.822,0-2.732,0H4.267a5.562,5.562,0,0,1-.683,0c-.514-.064-.676.143-.662.655.032,1.236.009,2.472.01,3.709,0,2.7,1.314,4.032,3.987,4.034q4.685,0,9.37,0H75.924c1.484,0,1.881.308,2.074,1.592-.186,1.019-.845,1.351-1.821,1.348-4.744-.016-9.489,0-14.233-.018-.575,0-.843.058-.838.76q.052,7.457,0,14.915c0,.622.178.746.763.739,2.469-.033,4.939,0,7.409-.021.836-.007,1.569.108,1.9,1.008.333.919-.258,1.435-.868,1.936M93.356,10.966c-4.62-.012-9.241,0-13.861-.059-.9-.012-1.1.233-1.1,1.109q.04,26.656.02,53.312a3.753,3.753,0,0,1,0,.488c-.061.461.106.612.59.609,5.239-.028,10.478-.034,15.717-.045.551.012,1.106-.007,1.654.045s.7-.136.7-.691q-.022-25.644-.019-51.289a3.373,3.373,0,0,0-3.7-3.478M73.039,66.383c.389.011.779.032,1.168.033,1.284,0,1.285,0,1.285-1.284V12.049c0-2.377,0-2.377-2.456-2.228-1.007-.011-2.014-.021-3.021-.035a3,3,0,0,1-3.15-3.01,22.246,22.246,0,0,1,.005-2.729c.066-.852-.153-1.13-1.082-1.128q-19.068.054-38.136.024c-2.425,0-3.137.708-3.137,3.126q0,9.8,0,19.605c0,1.349-.211,1.627-1.464,2.052-1.256-.423-1.465-.7-1.467-2.051,0-4.653-.015-9.3.013-13.957,0-.636-.163-.809-.8-.8-4.717.027-9.435.008-14.152.018a3.436,3.436,0,0,0-3.7,3.715Q2.929,40.122,2.915,65.6c0,.705.2.837.864.834,5.6-.028,11.192-.041,16.787.01.9.008,1.033-.265,1.031-1.076q-.041-15.86-.017-31.721c0-1.47.194-1.745,1.464-2.141,1.275.4,1.469.67,1.469,2.138,0,10.539.019,21.078-.027,31.617,0,1.025.295,1.182,1.229,1.18q23.127-.045,46.253-.023c.357,0,.714-.02,1.071-.031M50,97.066v-.01c2.408,0,4.818-.044,7.225.023.859.024.989-.262.983-1.035-.038-4.361-.018-8.723-.018-13.085,0-2.287,0-2.26-2.331-2.3-.651-.011-.813.17-.8.8.038,2.18.033,4.362.009,6.542A5.067,5.067,0,1,1,44.93,87.96c-.016-1.66,0-3.32,0-4.98,0-2.36,0-2.335-2.394-2.328-.617,0-.751.18-.748.768q.034,7.421,0,14.842c0,.616.129.832.792.821,2.473-.042,4.947-.017,7.421-.017m2.143-12.35c0-1.106-.042-2.215.016-3.318.033-.635-.194-.766-.772-.737-.941.046-1.888.042-2.83,0-.539-.023-.723.123-.715.691.033,2.18,0,4.36.018,6.541a2.144,2.144,0,1,0,4.276.044c.023-1.073,0-2.147.005-3.221M69.893,4.6a6.9,6.9,0,0,0-.1,1.915c0,.314.236.341.476.341h2.46L69.893,4.6" transform="translate(0 0)" fill="#030303"/>
    <path id="Trazado_104169" data-name="Trazado 104169" d="M88.295,35.994c1.253-.425,1.464-.7,1.464-2.052q.007-9.8,0-19.605c0-2.418.712-3.126,3.137-3.126q19.068,0,38.137-.024c.929,0,1.147.276,1.082,1.128a22.147,22.147,0,0,0-.005,2.729,3,3,0,0,0,3.15,3.01c1.007.014,2.014.023,3.021.035q0,28.281,0,56.562c-.357.01-.714.031-1.071.031q-23.127,0-46.253.023c-.934,0-1.233-.155-1.229-1.18.046-10.539.029-21.078.027-31.617,0-1.468-.194-1.74-1.469-2.138q0-1.887,0-3.774m33.757,13.573c3.736,0,7.473.01,11.21-.007a1.472,1.472,0,0,0,1.633-1.433,1.511,1.511,0,0,0-1.6-1.486c-.194-.014-.39-.006-.585-.006q-10.673,0-21.347,0a5.7,5.7,0,0,0-1.064.082,1.33,1.33,0,0,0-1.073,1.128,1.382,1.382,0,0,0,.6,1.444,2,2,0,0,0,1.307.274q5.459,0,10.917,0m-.011,17.97q5.312,0,10.625,0a5.934,5.934,0,0,0,1.067-.063,1.43,1.43,0,0,0,.056-2.791,4.3,4.3,0,0,0-.966-.074q-10.771-.006-21.542,0a4.261,4.261,0,0,0-.967.073,1.428,1.428,0,0,0,.036,2.787,5.335,5.335,0,0,0,1.066.067q5.313.007,10.625,0M100.4,33.141c-.846,0-1.692-.022-2.537.005A2.109,2.109,0,0,0,95.588,35.4q-.06,2.536,0,5.074a2.089,2.089,0,0,0,2.254,2.271q2.535.068,5.074,0a2.072,2.072,0,0,0,2.268-2.248q.061-2.536,0-5.074a2.109,2.109,0,0,0-2.341-2.28c-.813-.02-1.627,0-2.44,0m-.085,35.113v0c.944,0,1.888.028,2.831-.007a1.908,1.908,0,0,0,1.99-1.873c.075-1.916.075-3.839.007-5.755A1.948,1.948,0,0,0,103.1,58.68c-1.789-.038-3.58-.034-5.369,0a2,2,0,0,0-2.115,1.987c-.073,1.852-.073,3.71-.006,5.563a2.012,2.012,0,0,0,2.173,2.022c.846.021,1.692,0,2.538,0m.065-22.319v0h-2.44c-.065,0-.13,0-.2,0A2.02,2.02,0,0,0,95.6,47.984c-.061,1.82-.06,3.645,0,5.465a2.012,2.012,0,0,0,2.06,2.053q2.731.074,5.465,0a1.961,1.961,0,0,0,2.021-1.969c.065-1.884.066-3.774,0-5.658a1.928,1.928,0,0,0-2.034-1.933c-.91-.031-1.822-.006-2.733-.006m21.678-6.84q-5.509,0-11.017,0c-1.153,0-1.819.527-1.842,1.414-.023.932.671,1.511,1.862,1.512q10.969.007,21.937,0c1.194,0,1.9-.568,1.894-1.486s-.678-1.439-1.915-1.441q-5.46-.007-10.92,0m.025,20.323c-3.705,0-7.41.01-11.116-.008a1.547,1.547,0,0,0-1.722,1.114c-.3,1.005.506,1.821,1.79,1.822q10.969.008,21.939,0c1.207,0,1.911-.545,1.921-1.461s-.67-1.465-1.893-1.467q-5.461-.007-10.921,0M122.043,36.8q5.509,0,11.019,0c1.152,0,1.813-.525,1.833-1.425.021-.922-.686-1.494-1.875-1.5-.91-.007-1.82,0-2.73,0H111.568c-.26,0-.521-.011-.78,0a1.5,1.5,0,0,0-1.587,1.493A1.47,1.47,0,0,0,110.83,36.8c3.738.011,7.476,0,11.214.005m.045,17.959q5.51,0,11.019,0c1.128,0,1.8-.568,1.792-1.47s-.7-1.455-1.826-1.456q-11.019-.008-22.038,0c-1.142,0-1.813.544-1.835,1.44-.022.927.672,1.485,1.869,1.486q5.51,0,11.019,0M97.205,24.356c0,1.106-.012,2.211,0,3.317.015,1.052.277,1.3,1.352,1.307.715.006,1.432.013,2.146-.01a2.8,2.8,0,0,0,2.566-1.648,2.71,2.71,0,0,0-.3-3.025,1.036,1.036,0,0,1-.193-1.111,2.576,2.576,0,0,0-2.329-3.393c-.68-.045-1.366-.006-2.048-.025a1.024,1.024,0,0,0-1.2,1.173c0,1.138,0,2.276,0,3.415m11.1,2.1.228-.061c.639.723,1.273,1.449,1.918,2.167a.929.929,0,0,0,1.448.161.947.947,0,0,0,0-1.462c-.529-.611-1.059-1.221-1.622-1.87.172-.109.3-.19.426-.269a2.779,2.779,0,0,0,1.433-3.2,2.937,2.937,0,0,0-2.81-2.136c-.616-.022-1.234,0-1.851-.009a.976.976,0,0,0-1.111,1.065q-.027,3.556,0,7.111a.912.912,0,0,0,.945,1.019c.687.007.97-.439.99-1.074.016-.479,0-.959,0-1.438m12.673-2.1c0,1.139,0,2.278,0,3.416,0,.61.2,1.149.889,1.185,1.071.055,2.147.046,3.219,0a.881.881,0,0,0,.877-.978.908.908,0,0,0-.838-.927,6.951,6.951,0,0,0-1.267-.022c-.541.02-.972.074-.961-.753.01-.758.247-.976.95-.893a3.907,3.907,0,0,0,1.07-.029.953.953,0,0,0-.075-1.9,8.258,8.258,0,0,0-1.17-.016c-.519.035-.747-.108-.762-.694-.019-.719.122-1.12.947-.986a6.628,6.628,0,0,0,.975.009c.645.008,1.114-.271,1.126-.939.012-.719-.477-1.015-1.16-1.016-.846,0-1.692.015-2.538,0-.918-.021-1.294.445-1.286,1.32.01,1.073,0,2.147,0,3.221m8.54.016h0c0,1.2-.023,2.406.01,3.607a.969.969,0,1,0,1.937-.016c.008-.195,0-.39,0-.585.007-.617-.184-1.339.072-1.824.31-.585,1.109-.164,1.688-.257a.951.951,0,0,0,.932-.94.92.92,0,0,0-.88-.989c-.415-.058-.844-.011-1.265-.028-.207-.008-.437.07-.547-.25-.279-.817.066-1.325.943-1.328.293,0,.585,0,.878,0,.645-.005,1.087-.284,1.088-.968s-.442-.972-1.082-.981c-.845-.011-1.69,0-2.535-.006a1.086,1.086,0,0,0-1.248,1.25c.007,1.1,0,2.21,0,3.315m-11.928.043c0-1.135-.008-2.271,0-3.406.007-.674-.232-1.185-.961-1.2s-1,.484-1,1.162q0,3.406,0,6.812c0,.667.218,1.186.963,1.191.806.005,1-.551,1-1.254-.013-1.1,0-2.206,0-3.308" transform="translate(-65.247 -8.266)" fill="#fff3bf"/>
    <path id="Trazado_104170" data-name="Trazado 104170" d="M31.3,58.632q0,1.887,0,3.773c-1.27.4-1.464.671-1.464,2.142q0,15.86.017,31.721c0,.811-.13,1.084-1.031,1.076-5.6-.051-11.191-.037-16.787-.01-.661,0-.865-.128-.864-.833q.033-25.474.02-50.949a3.436,3.436,0,0,1,3.7-3.715c4.718-.01,9.435.01,14.152-.018.639,0,.806.169.8.8-.027,4.652-.018,9.3-.013,13.957,0,1.352.21,1.628,1.467,2.051" transform="translate(-8.254 -30.904)" fill="#b1f9ff"/>
    <path id="Trazado_104171" data-name="Trazado 104171" d="M316.695,97.261c-5.239.011-10.478.017-15.717.045-.483,0-.65-.148-.59-.609a3.757,3.757,0,0,0,0-.488q0-26.656-.02-53.312c0-.875.2-1.121,1.1-1.109,4.62.062,9.241.047,13.861.06a8.156,8.156,0,0,1,1.374,5.242q-.024,25.086-.01,50.171" transform="translate(-221.975 -30.881)" fill="#b1f9ff"/>
    <path id="Trazado_104172" data-name="Trazado 104172" d="M90.1,275.606a23.3,23.3,0,0,0-3.828.034c-.193-1.285-.589-1.592-2.074-1.592H24.563q-4.685,0-9.37,0c-2.673,0-3.985-1.331-3.987-4.034,0-1.236.022-2.473-.01-3.709-.014-.513.148-.72.662-.656a5.507,5.507,0,0,0,.683,0h89.4c.911,0,1.823.036,2.732,0,.522-.02.668.162.657.667-.029,1.431.016,2.863-.018,4.294a3.383,3.383,0,0,1-3.423,3.407c-3.318.043-6.637.015-9.955.027-1.186,0-1.586.356-1.837,1.556" transform="translate(-8.273 -196.306)" fill="#8c9ba7"/>
    <path id="Trazado_104173" data-name="Trazado 104173" d="M168.309,325.426c-2.474,0-4.948-.025-7.421.017-.663.011-.795-.205-.792-.821q.035-7.421,0-14.842c0-.588.13-.766.748-.768,2.394-.007,2.394-.033,2.394,2.328,0,1.66-.013,3.32,0,4.98a5.067,5.067,0,1,0,10.133.044c.024-2.181.028-4.362-.009-6.542-.011-.632.151-.814.8-.8,2.33.04,2.331.013,2.331,2.3,0,4.362-.019,8.723.018,13.085.007.773-.123,1.059-.983,1.035-2.407-.068-4.816-.024-7.225-.024Z" transform="translate(-118.311 -228.36)" fill="#c7d0d4"/>
    <path id="Trazado_104174" data-name="Trazado 104174" d="M279.835,94.039q0-28.281,0-56.562c2.456-.15,2.456-.15,2.456,2.228V92.788c0,1.286,0,1.288-1.285,1.284-.389,0-.779-.022-1.168-.033" transform="translate(-206.797 -27.656)" fill="#fff3bf"/>
    <path id="Trazado_104175" data-name="Trazado 104175" d="M359.053,97.423q0-25.086.01-50.171a8.156,8.156,0,0,0-1.374-5.242,3.373,3.373,0,0,1,3.7,3.478q.017,25.645.019,51.289c0,.555-.152.743-.7.691s-1.1-.033-1.654-.045" transform="translate(-264.333 -31.043)" fill="#b1f9ff"/>
    <path id="Trazado_104176" data-name="Trazado 104176" d="M187.6,313.093c0,1.074.018,2.148,0,3.222a2.144,2.144,0,1,1-4.277-.044c-.018-2.18.015-4.361-.018-6.54-.008-.568.176-.714.715-.691.942.04,1.888.045,2.83,0,.578-.029.8.1.772.737-.057,1.1-.016,2.212-.016,3.318" transform="translate(-135.457 -228.377)" fill="#e2e9ed"/>
    <path id="Trazado_104177" data-name="Trazado 104177" d="M267.456,17.613l2.838,2.256h-2.46c-.24,0-.478-.027-.476-.341a6.9,6.9,0,0,1,.1-1.915" transform="translate(-197.563 -13.016)" fill="#ffe881"/>
    <path id="Trazado_104178" data-name="Trazado 104178" d="M181.249,149.937q-5.459,0-10.917,0a2,2,0,0,1-1.307-.275,1.381,1.381,0,0,1-.6-1.444,1.33,1.33,0,0,1,1.073-1.128,5.7,5.7,0,0,1,1.064-.082q10.673-.007,21.347,0c.195,0,.391-.008.585.006a1.511,1.511,0,0,1,1.6,1.486,1.472,1.472,0,0,1-1.633,1.433c-3.736.017-7.473.007-11.21.008" transform="translate(-124.444 -108.635)" fill="#030303"/>
    <path id="Trazado_104179" data-name="Trazado 104179" d="M181.284,218.786q-5.313,0-10.625,0a5.375,5.375,0,0,1-1.067-.067,1.428,1.428,0,0,1-.036-2.788,4.259,4.259,0,0,1,.967-.073q10.771-.005,21.542,0a4.324,4.324,0,0,1,.966.074,1.43,1.43,0,0,1-.056,2.791,5.912,5.912,0,0,1-1.067.063q-5.312.006-10.625,0" transform="translate(-124.49 -159.516)" fill="#030303"/>
    <path id="Trazado_104180" data-name="Trazado 104180" d="M120.982,95.28c.813,0,1.627-.017,2.44,0a2.109,2.109,0,0,1,2.341,2.279q.057,2.536,0,5.074a2.072,2.072,0,0,1-2.268,2.248q-2.535.063-5.074,0a2.089,2.089,0,0,1-2.254-2.271q-.055-2.536,0-5.074a2.109,2.109,0,0,1,2.278-2.252c.845-.028,1.692,0,2.537-.005m-.1,6.7c1.949-.072,1.949-.072,1.949-2.037,0-1.678,0-1.678-1.654-1.729-2.111-.064-2.111-.064-2.111,2.01,0,1.823,0,1.823,1.816,1.755" transform="translate(-85.826 -70.406)" fill="#030303"/>
    <path id="Trazado_104181" data-name="Trazado 104181" d="M120.893,202.653c-.846,0-1.693.017-2.538,0a2.012,2.012,0,0,1-2.173-2.022c-.066-1.852-.066-3.711.007-5.563a2,2,0,0,1,2.115-1.987c1.789-.032,3.58-.035,5.369,0a1.948,1.948,0,0,1,2.049,1.933c.068,1.916.067,3.839-.007,5.755a1.908,1.908,0,0,1-1.99,1.873c-.942.035-1.887.007-2.831.007v0M121,196c-1.938-.055-1.938-.055-1.938,1.792,0,1.984,0,1.984,2,1.92,1.765-.057,1.765-.057,1.765-1.791,0-1.868,0-1.868-1.828-1.921" transform="translate(-85.822 -142.666)" fill="#030303"/>
    <path id="Trazado_104182" data-name="Trazado 104182" d="M120.959,144.3c.911,0,1.823-.025,2.733.006a1.927,1.927,0,0,1,2.034,1.933c.069,1.884.067,3.774,0,5.658a1.961,1.961,0,0,1-2.022,1.969q-2.73.076-5.465,0a2.012,2.012,0,0,1-2.059-2.053c-.063-1.82-.064-3.645,0-5.465a2.02,2.02,0,0,1,2.145-2.052c.065,0,.13,0,.195,0h2.441v0m-.015,2.927c-1.877-.068-1.877-.068-1.877,1.765,0,2.01,0,2.01,2.061,1.954,1.7-.046,1.7-.046,1.7-1.747,0-1.9,0-1.9-1.888-1.972" transform="translate(-85.823 -106.629)" fill="#030303"/>
    <path id="Trazado_104183" data-name="Trazado 104183" d="M181.267,118.112q5.46,0,10.92,0c1.237,0,1.907.516,1.915,1.441s-.7,1.486-1.894,1.486q-10.969.006-21.937,0c-1.192,0-1.886-.58-1.863-1.512.022-.887.689-1.412,1.842-1.414q5.509-.009,11.017,0" transform="translate(-124.454 -87.284)" fill="#030303"/>
    <path id="Trazado_104184" data-name="Trazado 104184" d="M181.254,195.958q5.46,0,10.921,0c1.223,0,1.9.539,1.892,1.467s-.715,1.46-1.921,1.461q-10.969,0-21.939,0c-1.284,0-2.086-.817-1.79-1.822a1.547,1.547,0,0,1,1.722-1.114c3.705.017,7.41.007,11.116.007" transform="translate(-124.415 -144.808)" fill="#030303"/>
    <path id="Trazado_104185" data-name="Trazado 104185" d="M181.249,101.024c-3.738,0-7.476.007-11.213,0a1.471,1.471,0,0,1-1.629-1.43,1.5,1.5,0,0,1,1.587-1.492c.259-.014.52,0,.78,0H189.5c.91,0,1.82-.006,2.73,0,1.189.009,1.9.581,1.876,1.5-.021.9-.681,1.423-1.834,1.425q-5.509.007-11.019,0" transform="translate(-124.453 -72.489)" fill="#030303"/>
    <path id="Trazado_104186" data-name="Trazado 104186" d="M181.291,169.844q-5.509,0-11.019,0c-1.2,0-1.891-.56-1.869-1.486.021-.9.692-1.44,1.835-1.44q11.019-.008,22.038,0c1.129,0,1.815.566,1.826,1.456s-.665,1.468-1.792,1.47q-5.509.008-11.019,0" transform="translate(-124.45 -123.348)" fill="#030303"/>
    <path id="Trazado_104187" data-name="Trazado 104187" d="M122.433,48.654c0-1.138,0-2.277,0-3.415a1.024,1.024,0,0,1,1.2-1.173c.683.019,1.368-.021,2.048.025a2.576,2.576,0,0,1,2.329,3.393A1.037,1.037,0,0,0,128.2,48.6a2.71,2.71,0,0,1,.3,3.025,2.8,2.8,0,0,1-2.566,1.648c-.715.024-1.431.017-2.146.01-1.075-.009-1.338-.255-1.353-1.307-.015-1.106,0-2.211,0-3.317m2.874,2.665c.789.025,1.53-.031,1.506-.985-.028-1.108-.921-.9-1.651-.98-1.12-.119-.686.685-.777,1.194-.16.89.415.827.922.771m-.25-3.912c.582.034,1.112-.054,1.122-.688.009-.649-.536-.666-1.053-.71-.608-.052-.768.154-.761.754s.218.752.692.644" transform="translate(-90.475 -32.565)" fill="#030303"/>
    <path id="Trazado_104188" data-name="Trazado 104188" d="M159.439,50.76c0,.48.013.959,0,1.439-.021.635-.3,1.081-.99,1.074a.913.913,0,0,1-.945-1.019q-.027-3.555,0-7.111a.976.976,0,0,1,1.111-1.065c.617.006,1.234-.014,1.85.009a2.937,2.937,0,0,1,2.81,2.136,2.78,2.78,0,0,1-1.433,3.2c-.128.079-.254.16-.426.269.563.649,1.093,1.259,1.622,1.87a.947.947,0,0,1,0,1.462.929.929,0,0,1-1.448-.161c-.644-.718-1.279-1.444-1.918-2.167Zm.642-4.727c-.232,0-.774-.111-.606.577.1.425-.505,1.2.543,1.229.671.015,1.328-.081,1.369-.883.034-.67-.49-.929-1.306-.923" transform="translate(-116.383 -32.572)" fill="#030303"/>
    <path id="Trazado_104189" data-name="Trazado 104189" d="M213.518,48.789c0-1.074.007-2.147,0-3.221-.008-.875.368-1.341,1.286-1.32.846.019,1.692,0,2.538,0,.684,0,1.172.3,1.16,1.016-.011.667-.48.946-1.126.939a6.628,6.628,0,0,1-.975-.009c-.824-.134-.965.266-.947.986.015.586.243.73.762.694a8.258,8.258,0,0,1,1.17.016.953.953,0,0,1,.075,1.9,3.917,3.917,0,0,1-1.07.029c-.7-.083-.94.135-.95.893-.011.827.419.773.961.753a6.95,6.95,0,0,1,1.267.022.908.908,0,0,1,.838.927.881.881,0,0,1-.877.978c-1.072.044-2.149.054-3.219,0-.686-.035-.886-.574-.889-1.185-.006-1.139,0-2.278,0-3.416" transform="translate(-157.789 -32.699)" fill="#030303"/>
    <path id="Trazado_104190" data-name="Trazado 104190" d="M246.236,48.785c0-1.105,0-2.21,0-3.315a1.086,1.086,0,0,1,1.247-1.25c.845.011,1.69-.005,2.535.006.639.008,1.083.3,1.082.981s-.443.962-1.088.968c-.293,0-.585,0-.878,0-.877,0-1.222.511-.943,1.328.109.32.34.241.547.25.422.016.85-.03,1.265.028a.921.921,0,0,1,.88.989.951.951,0,0,1-.932.94c-.578.092-1.378-.329-1.688.257-.257.485-.066,1.207-.072,1.824,0,.2,0,.39,0,.585a.969.969,0,1,1-1.936.016c-.033-1.2-.01-2.4-.01-3.607Z" transform="translate(-181.966 -32.678)" fill="#030303"/>
    <path id="Trazado_104191" data-name="Trazado 104191" d="M195.009,48.842c0,1.1-.01,2.206,0,3.308.008.7-.189,1.259-1,1.254-.744-.005-.964-.524-.963-1.191q.007-3.406,0-6.812c0-.679.269-1.175,1-1.162s.968.523.961,1.2c-.011,1.135,0,2.27,0,3.406" transform="translate(-142.667 -32.692)" fill="#030303"/>
    <path id="Trazado_104192" data-name="Trazado 104192" d="M129.188,110.279c-1.816.067-1.816.067-1.816-1.755,0-2.074,0-2.074,2.111-2.01,1.654.051,1.654.051,1.654,1.729,0,1.965,0,1.965-1.949,2.037" transform="translate(-94.128 -78.701)" fill="#26ccda"/>
    <path id="Trazado_104193" data-name="Trazado 104193" d="M129.31,204.306c1.828.052,1.828.052,1.828,1.921,0,1.734,0,1.734-1.765,1.791-2,.064-2,.064-2-1.92,0-1.848,0-1.848,1.938-1.792" transform="translate(-94.128 -150.972)" fill="#26ccda"/>
    <path id="Trazado_104194" data-name="Trazado 104194" d="M129.25,155.479c1.888.068,1.888.068,1.888,1.972,0,1.7,0,1.7-1.7,1.747-2.061.056-2.061.056-2.061-1.954,0-1.832,0-1.832,1.877-1.765" transform="translate(-94.129 -114.885)" fill="#26ccda"/>
    <path id="Trazado_104195" data-name="Trazado 104195" d="M130.771,66.261c-.507.056-1.082.119-.922-.771.091-.508-.343-1.312.777-1.194.73.078,1.623-.128,1.651.98.024.954-.717,1.01-1.506.985" transform="translate(-95.939 -47.507)" fill="#e2e9ed"/>
    <path id="Trazado_104196" data-name="Trazado 104196" d="M130.541,52.891c-.474.108-.685-.056-.692-.644s.153-.805.761-.754c.517.044,1.062.061,1.053.71-.009.633-.539.722-1.121.688" transform="translate(-95.959 -38.048)" fill="#e2e9ed"/>
    <path id="Trazado_104197" data-name="Trazado 104197" d="M165.475,51.551c.816-.005,1.34.253,1.306.923-.041.8-.7.9-1.369.883-1.048-.024-.44-.8-.543-1.229-.167-.688.375-.582.606-.577" transform="translate(-121.777 -38.09)" fill="#e2e9ed"/>
  </g>
</svg>
