<svg xmlns="http://www.w3.org/2000/svg" xmlns:xlink="http://www.w3.org/1999/xlink" width="208" height="208" viewBox="0 0 208 208">
  <defs>
    <filter id="Elipse_4966" x="0" y="0" width="208" height="208" filterUnits="userSpaceOnUse">
      <feOffset dx="-6" dy="6" input="SourceAlpha"/>
      <feGaussianBlur stdDeviation="3" result="blur"/>
      <feFlood flood-opacity="0.161"/>
      <feComposite operator="in" in2="blur"/>
      <feComposite in="SourceGraphic"/>
    </filter>
    <clipPath id="clip-path">
      <rect id="Rectángulo_37426" data-name="Rectángulo 37426" width="112.663" height="112.688" fill="none"/>
    </clipPath>
  </defs>
  <g id="Grupo_120418" data-name="Grupo 120418" transform="translate(-1110.285 -5758)">
    <g transform="matrix(1, 0, 0, 1, 1110.29, 5758)" filter="url(#Elipse_4966)">
      <g id="Elipse_4966-2" data-name="Elipse 4966" transform="translate(15 3)" fill="#fff" stroke="#fdd835" stroke-width="6">
        <circle cx="95" cy="95" r="95" stroke="none"/>
        <circle cx="95" cy="95" r="92" fill="none"/>
      </g>
    </g>
    <g id="Grupo_120414" data-name="Grupo 120414" transform="translate(1163.953 5795.668)">
      <g id="Grupo_120413" data-name="Grupo 120413" clip-path="url(#clip-path)">
        <path id="Trazado_181562" data-name="Trazado 181562" d="M83.185,13.272c1.281-.5,1.73-.4,2.639.741A37.629,37.629,0,0,1,94.273,41.2c-.054.717.284.956.755,1.264a37.6,37.6,0,0,1,16.566,23.29A38.081,38.081,0,0,1,82.671,111.8c-1.581.342-3.182.592-4.774.885H70.635c-.073-.3-.335-.221-.532-.246A37.935,37.935,0,0,1,56.9,108.31a1.124,1.124,0,0,0-1.205.057,39.092,39.092,0,0,1-10.08,3.587,40.164,40.164,0,0,0-4.242.734H34.327a8.884,8.884,0,0,0-3.039-.614A38.275,38.275,0,0,1,.613,81.4,9.116,9.116,0,0,0,0,78.361V70.879a24.924,24.924,0,0,0,.815-4.124A37.778,37.778,0,0,1,17.064,42.867a2.418,2.418,0,0,0,1.272-2.5c-.568-12.845,4.044-23.539,13.942-31.728a37.913,37.913,0,0,1,47.958-.184c1.293,1.043,1.429,1.457.913,2.782-1.169.911-1.6.886-2.881-.118C69.672,4.362,59.961,1.9,49.263,4.07A34.764,34.764,0,0,0,21.535,39.133c.022,1.015.269,1.025,1.1.669a37.613,37.613,0,0,1,32.685.807,1.983,1.983,0,0,0,2,.014,37.714,37.714,0,0,1,32.692-.853c.318.135.618.431,1.023.264a1.325,1.325,0,0,0,.047-.216c.012-.256.019-.513.024-.769a34.62,34.62,0,0,0-7.8-22.9c-1.015-1.271-1.035-1.712-.126-2.88M71.2,89.476c1.194.88,1.343,1.488.656,2.794a37.825,37.825,0,0,1-9.417,11.619c-.863.715-1.761,1.388-2.667,2.1a34.572,34.572,0,0,0,46.047-16.194c8.827-18,0-36.842-12.1-44.083a3.256,3.256,0,0,0-.152.41A37.847,37.847,0,0,1,76.753,70.257a1.342,1.342,0,0,0-.667,1.435A38.637,38.637,0,0,1,74.572,85.7c-.325,1.08-.923,1.732-2.137,1.581C71.208,86.612,71,86.1,71.419,84.677A35.555,35.555,0,0,0,72.881,73.51c-.021-.787-.125-1.017-.962-.652a37.541,37.541,0,0,1-31.185,0c-.868-.377-.944-.088-.949.668-.083,12.8,5.2,22.8,15.649,30.144a1.385,1.385,0,0,0,1.839-.027,34.977,34.977,0,0,0,11.6-12.816c.511-.968,1.134-1.618,2.327-1.347M52.864,106.052a1.342,1.342,0,0,0-.159-.246c-.137-.121-.284-.231-.429-.342q-16.719-12.682-15.7-33.641a1.622,1.622,0,0,0-.837-1.679,37.982,37.982,0,0,1-16.509-23.38c-.306-1.235-.3-1.237-1.29-.53A34.792,34.792,0,0,0,45.1,108.668a30.74,30.74,0,0,0,7.765-2.616M53.9,72.911c7.793,0,13.145-1.255,17.8-3.56.532-.264.768-.483.632-1.142A35.073,35.073,0,0,0,57.143,45.451a1.22,1.22,0,0,0-1.626,0,35.06,35.06,0,0,0-15.18,22.758c-.135.659.1.88.636,1.139,4.853,2.351,9.963,3.565,12.924,3.561M52.884,43.236c-.142-.153-.179-.227-.238-.253a34.633,34.633,0,0,0-30.038.444.754.754,0,0,0-.492,1.007A35.058,35.058,0,0,0,37.168,67.151,38.39,38.39,0,0,1,52.884,43.236m22.587,23.9c.214-.117.349-.174.466-.257A34.872,34.872,0,0,0,90.494,44.8c.174-.835.029-1.188-.764-1.558a34.727,34.727,0,0,0-26.6-1.529,12.448,12.448,0,0,0-3.41,1.506A38.376,38.376,0,0,1,75.471,67.135" transform="translate(0 0)" fill="#030303"/>
        <path id="Trazado_181563" data-name="Trazado 181563" d="M159.259,24.943c-.908,1.169-.889,1.609.126,2.88a34.621,34.621,0,0,1,7.8,22.9c0,.257-.011.513-.024.77a1.3,1.3,0,0,1-.047.216c-.405.167-.705-.128-1.024-.264a37.714,37.714,0,0,0-32.692.854,1.983,1.983,0,0,1-2-.014,37.613,37.613,0,0,0-32.686-.807c-.83.356-1.077.345-1.1-.669a34.764,34.764,0,0,1,27.728-35.062c10.7-2.172,20.409.291,29.006,7.048,1.277,1,1.712,1.029,2.881.118a8.344,8.344,0,0,0,2.035,2.035" transform="translate(-76.074 -11.672)" fill="#26ccda"/>
        <path id="Trazado_181564" data-name="Trazado 181564" d="M283.661,248.827c1.214.151,1.812-.5,2.137-1.581a38.639,38.639,0,0,0,1.515-14.011,1.343,1.343,0,0,1,.667-1.435,37.846,37.846,0,0,0,16.809-24.135,3.256,3.256,0,0,1,.152-.41c12.109,7.241,20.932,26.081,12.1,44.083A34.572,34.572,0,0,1,271,267.533c.906-.712,1.8-1.385,2.667-2.1a37.825,37.825,0,0,0,9.417-11.619c.687-1.306.538-1.913-.656-2.794.677-.581.581-1.6,1.235-2.192" transform="translate(-211.227 -161.544)" fill="#f57c00"/>
        <path id="Trazado_181565" data-name="Trazado 181565" d="M64.535,267.752a30.738,30.738,0,0,1-7.765,2.616,34.792,34.792,0,0,1-27.162-62.434c.993-.706.985-.7,1.29.53a37.981,37.981,0,0,0,16.509,23.38,1.622,1.622,0,0,1,.837,1.679q-1.032,20.955,15.7,33.641c.146.111.292.221.43.342a1.323,1.323,0,0,1,.159.246" transform="translate(-11.67 -161.7)" fill="#fdd835"/>
        <path id="Trazado_181566" data-name="Trazado 181566" d="M213.028,344.161c-.654.594-.558,1.611-1.235,2.192-1.193-.27-1.815.379-2.327,1.347a34.975,34.975,0,0,1-11.6,12.816,1.385,1.385,0,0,1-1.839.027C185.582,353.2,180.3,343.2,180.379,330.4c.005-.757.081-1.045.949-.668a37.541,37.541,0,0,0,31.185,0c.837-.365.941-.135.962.652a35.557,35.557,0,0,1-1.462,11.167c-.424,1.424-.211,1.935,1.015,2.607" transform="translate(-140.594 -256.878)" fill="#ffa726"/>
        <path id="Trazado_181567" data-name="Trazado 181567" d="M196.314,232.438c-2.961,0-8.071-1.211-12.924-3.561-.536-.26-.772-.48-.636-1.139a35.059,35.059,0,0,1,15.18-22.758,1.219,1.219,0,0,1,1.626,0,35.074,35.074,0,0,1,15.182,22.758c.136.659-.1.879-.632,1.143-4.652,2.3-10,3.559-17.8,3.56" transform="translate(-142.417 -159.527)" fill="#fdfdfd"/>
        <path id="Trazado_181568" data-name="Trazado 181568" d="M130.917,183.8A38.391,38.391,0,0,0,115.2,207.714,35.059,35.059,0,0,1,100.149,185a.754.754,0,0,1,.492-1.007,34.634,34.634,0,0,1,30.038-.444c.059.026.1.1.238.253" transform="translate(-78.033 -140.563)" fill="#1fa4af"/>
        <path id="Trazado_181569" data-name="Trazado 181569" d="M286.53,207.676a38.376,38.376,0,0,0-15.747-23.918,12.448,12.448,0,0,1,3.41-1.506,34.727,34.727,0,0,1,26.6,1.529c.794.371.939.723.764,1.558A34.872,34.872,0,0,1,287,207.419c-.117.083-.252.14-.466.257" transform="translate(-211.059 -140.541)" fill="#d9ba2e"/>
      </g>
    </g>
  </g>
</svg>
