<svg xmlns="http://www.w3.org/2000/svg" xmlns:xlink="http://www.w3.org/1999/xlink" width="140" height="140" viewBox="0 0 140 140">
  <defs>
    <clipPath id="clip-path">
      <rect id="Rectángulo_5875" data-name="Rectángulo 5875" width="140" height="140" transform="translate(-0.089 -0.176)" fill="#fff" stroke="#707070" stroke-width="1"/>
    </clipPath>
  </defs>
  <g id="Enmascarar_grupo_25" data-name="Enmascarar grupo 25" transform="translate(0.089 0.176)" clip-path="url(#clip-path)">
    <g id="latas" transform="translate(2.395 -0.023)">
      <path id="Trazado_104622" data-name="Trazado 104622" d="M36.1,63.328v2.407A12.035,12.035,0,0,1,24.069,77.769,12.035,12.035,0,0,0,12.035,89.8v4.814A12.035,12.035,0,0,1,0,106.652v12.035H62.58v-9.628a21.662,21.662,0,1,1,0-43.324V51.293H48.138A12.035,12.035,0,0,0,36.1,63.328Zm0,0" transform="translate(0 8.88)" fill="#f4c734"/>
      <path id="Trazado_104623" data-name="Trazado 104623" d="M34.879,85.266a21.662,21.662,0,0,0,21.662,21.662V63.6A21.662,21.662,0,0,0,34.879,85.266Zm0,0" transform="translate(6.038 11.011)" fill="#a3740c"/>
      <path id="Trazado_104624" data-name="Trazado 104624" d="M90.276,80.176a28.883,28.883,0,0,0,28.883,28.883V51.293A28.883,28.883,0,0,0,90.276,80.176Zm0,0" transform="translate(15.628 8.88)" fill="#a3740c"/>
      <path id="Trazado_104625" data-name="Trazado 104625" d="M97.655,32.552V51.807A12.035,12.035,0,0,1,85.621,63.842,12.035,12.035,0,0,0,73.586,75.876V99.945A12.035,12.035,0,0,1,61.552,111.98v12.035h62.58v-9.628a28.883,28.883,0,0,1,0-57.766v-36.1H109.69A12.035,12.035,0,0,0,97.655,32.552Zm0,0" transform="translate(10.656 3.552)" fill="#f4c734"/>
      <path id="Trazado_104626" data-name="Trazado 104626" d="M115.549,0H70.135a2.408,2.408,0,0,0-2.063,1.169l-6.52,10.865v103.5A12.035,12.035,0,0,0,73.586,103.5V79.265A12.107,12.107,0,0,1,85.862,67.393,12.035,12.035,0,0,0,97.655,55.359V36.1A12.035,12.035,0,0,1,109.69,24.069h14.441V12.035l-6.52-10.865A2.408,2.408,0,0,0,115.549,0Zm0,0" transform="translate(10.656)" fill="#e2e2e2"/>
      <path id="Trazado_104627" data-name="Trazado 104627" d="M70.134,120.776h45.414a2.408,2.408,0,0,0,2.063-1.169l6.52-10.865H61.552l6.52,10.865a2.408,2.408,0,0,0,2.063,1.169Zm0,0" transform="translate(10.656 18.825)" fill="#f9f2cc"/>
      <path id="Trazado_104628" data-name="Trazado 104628" d="M8.583,120.776H54a2.408,2.408,0,0,0,2.063-1.169l6.52-10.865H0l6.52,10.865a2.408,2.408,0,0,0,2.063,1.169Zm0,0" transform="translate(0 18.825)" fill="#f9f2cc"/>
      <path id="Trazado_104629" data-name="Trazado 104629" d="M56.059,34.075A2.406,2.406,0,0,0,54,32.908H26.476l1.22-7.319a6.118,6.118,0,1,0-12.067,0l1.22,7.319H8.583A2.406,2.406,0,0,0,6.52,34.075L0,44.943v67.393A12.035,12.035,0,0,0,12.034,100.3V95.324A12.107,12.107,0,0,1,24.31,83.453,12.035,12.035,0,0,0,36.1,71.419V69.012A12.035,12.035,0,0,1,48.138,56.977H62.58V44.943Zm0,0" transform="translate(0 3.195)" fill="#e2e2e2"/>
      <g id="Grupo_55193" data-name="Grupo 55193" transform="translate(0 2.407)">
        <path id="Trazado_104630" data-name="Trazado 104630" d="M112.965,12.406a14.432,14.432,0,0,1-2.727.26H61.552V10.259h62.58Zm0,0" transform="translate(10.655 -0.631)" fill="#ccc"/>
        <path id="Trazado_104631" data-name="Trazado 104631" d="M51.414,43.182a14.432,14.432,0,0,1-2.727.26H0V41.035H62.58Zm0,0" transform="translate(0 4.697)" fill="#ccc"/>
        <path id="Trazado_104632" data-name="Trazado 104632" d="M65.244,4.459H119.16l-1.444-2.407H66.689Zm0,0" transform="translate(11.295 -2.052)" fill="#ccc"/>
        <path id="Trazado_104633" data-name="Trazado 104633" d="M3.693,35.234H57.608l-1.444-2.407H5.137Zm0,0" transform="translate(0.639 3.276)" fill="#ccc"/>
        <path id="Trazado_104634" data-name="Trazado 104634" d="M15.652,32.332h6.619l-.034-6.063a4.569,4.569,0,0,0-.8-3.6,3.2,3.2,0,0,0-2.476-.871,3.2,3.2,0,0,0-2.476.866,4.522,4.522,0,0,0-.8,3.56Zm2.166-8.438c.186-.2.53-.287,1.153-.287s.963.087,1.153.287.443.722.321,2.269v.074l.028,5.192H17.462l.027-5.266c-.123-1.534.147-2.085.32-2.269Zm0,0" transform="translate(2.701 1.365)" fill="#ccc"/>
      </g>
      <path id="Trazado_104635" data-name="Trazado 104635" d="M42.416,84.378A13.253,13.253,0,0,1,55.654,71.14V68.733a15.645,15.645,0,1,0,0,31.29V97.616A13.253,13.253,0,0,1,42.416,84.378Zm0,0" transform="translate(6.926 11.899)" fill="#f49e34"/>
      <path id="Trazado_104636" data-name="Trazado 104636" d="M101.916,78.578A15.665,15.665,0,0,1,117.56,62.933V60.526a18.052,18.052,0,0,0,0,36.1V94.223A15.665,15.665,0,0,1,101.916,78.578Zm0,0" transform="translate(17.226 10.478)" fill="#f49e34"/>
      <path id="Trazado_104637" data-name="Trazado 104637" d="M70.134,120.776h45.414a2.408,2.408,0,0,0,2.063-1.169l6.52-10.865H61.552l6.52,10.865a2.408,2.408,0,0,0,2.063,1.169Zm0,0" transform="translate(10.656 18.825)" fill="#e2e2e2"/>
      <path id="Trazado_104638" data-name="Trazado 104638" d="M8.583,120.776H54a2.408,2.408,0,0,0,2.063-1.169l6.52-10.865H0l6.52,10.865a2.408,2.408,0,0,0,2.063,1.169Zm0,0" transform="translate(0 18.825)" fill="#e2e2e2"/>
    </g>
  </g>
</svg>
