<svg id="Grupo_120790" data-name="Grupo 120790" xmlns="http://www.w3.org/2000/svg" xmlns:xlink="http://www.w3.org/1999/xlink" width="61.309" height="100" viewBox="0 0 61.309 100">
  <defs>
    <clipPath id="clip-path">
      <rect id="Rectángulo_37461" data-name="Rectángulo 37461" width="61.309" height="100" fill="none"/>
    </clipPath>
  </defs>
  <g id="Grupo_120484" data-name="Grupo 120484" clip-path="url(#clip-path)">
    <path id="Trazado_181692" data-name="Trazado 181692" d="M.016,61.3Q.016,43.109,0,24.917a3.279,3.279,0,0,1,.89-2.35c3.322-3.742,6.6-7.525,9.91-11.277a1.98,1.98,0,0,0,.516-1.447c-.025-2.62-.016-5.241-.009-7.861C11.311.591,11.879,0,13.244,0Q30.679,0,48.114,0c1.3,0,1.888.6,1.893,1.923.01,2.654.019,5.308-.009,7.962a1.969,1.969,0,0,0,.552,1.431c3.332,3.778,6.633,7.584,9.97,11.358a2.947,2.947,0,0,1,.791,2.088Q61.289,61.3,61.3,97.837c0,1.914-.967,2.562-2.714,1.816-3.14-1.34-6.281-2.68-9.41-4.048a1.723,1.723,0,0,0-1.516-.007c-3.128,1.365-6.277,2.684-9.407,4.046A4.258,4.258,0,0,1,36.5,100q-17.132-.012-34.265-.006C.513,99.993.017,99.5.017,97.787q0-18.243,0-36.485m35.48.09q0-17.284.02-34.569c0-.828-.179-1.042-1.027-1.039q-15.117.051-30.233,0c-.833,0-1.036.188-1.035,1.03q.039,34.468,0,68.937c0,.828.179,1.042,1.027,1.039q15.117-.051,30.233,0c.834,0,1.038-.188,1.035-1.03Q35.47,78.575,35.5,61.392M58.035,95.911c.02-.3.037-.432.037-.566q0-34.371.018-68.742c0-.685-.213-.814-.844-.812-5.778.023-11.557.036-17.335-.01-.928-.007-1.217.153-1.216,1.166q.053,33.867.027,67.734v1.063c.443.122.724-.118,1.019-.243,2.407-1.02,4.825-2.017,7.2-3.114A3.266,3.266,0,0,1,49.9,92.4c2.648,1.2,5.336,2.31,8.136,3.511M30.609,9.677c5.1,0,10.206-.015,15.309.017.7,0,.909-.162.884-.878-.057-1.643-.04-3.29-.006-4.935.011-.539-.165-.666-.68-.665q-15.46.02-30.921,0c-.521,0-.687.136-.677.67.033,1.644.052,3.291-.006,4.935-.026.721.192.878.888.874,5.069-.031,10.139-.017,15.208-.017m-19.734,6.44c10.336,0,20.44,0,30.545,0,.228,0,.5.082.672-.112.876-.978,1.738-1.969,2.72-3.087-10.35,0-20.454,0-30.558,0a1.02,1.02,0,0,0-.9.323c-.768.92-1.562,1.817-2.483,2.882m28.193,3.313a2.291,2.291,0,0,0-.36-.072q-15.062,0-30.123,0c-.259,0-.536-.06-.747.187-.835.973-1.679,1.94-2.63,3.038H6.533c8.7,0,17.4-.143,26.091.081,2.863.074,4.886-.64,6.331-3.048l.113-.184m17.026,3.135c-2.532-2.9-4.938-5.631-7.321-8.386-.4-.467-.59-.171-.842.119-1.079,1.238-2.164,2.47-3.244,3.707-1.288,1.474-2.572,2.952-3.889,4.463a1.4,1.4,0,0,0,.287.095c4.927,0,9.854,0,15.009,0" transform="translate(0 0)"/>
    <path id="Trazado_181693" data-name="Trazado 181693" d="M44.229,131.306q0,17.184.021,34.367c0,.842-.2,1.033-1.035,1.03q-15.117-.048-30.233,0c-.847,0-1.027-.211-1.027-1.039q.038-34.468,0-68.937c0-.842.2-1.033,1.035-1.03q15.117.049,30.233,0c.847,0,1.029.211,1.027,1.039q-.045,17.284-.02,34.569M28.008,158.618c1.611,0,3.223.015,4.834,0A6.44,6.44,0,0,0,35.2,146.166c-.255-.1-.7-.053-.646-.476.039-.307.434-.248.666-.327a7.958,7.958,0,0,0,5.7-7.178c.158-1.414-.52-2.134-1.959-2.144-1.242-.009-2.485-.034-3.726.013-.546.02-.725-.168-.849-.68a3.137,3.137,0,0,0-3.267-2.557c-2.081-.015-4.163-.019-6.244,0a3.114,3.114,0,0,0-3.2,2.633c-.1.585-.358.595-.787.591-1.242-.011-2.484-.009-3.726,0-1.5.008-2.042.588-1.989,2.1a8.036,8.036,0,0,0,5.653,7.21c.26.086.716.026.73.38s-.435.333-.7.441a6.437,6.437,0,0,0,2.409,12.44c1.578.017,3.156,0,4.734,0M15.166,111.779a12.9,12.9,0,1,0,13-12.833,12.9,12.9,0,0,0-13,12.833" transform="translate(-8.733 -69.914)" fill="#e5e2dc"/>
    <path id="Trazado_181694" data-name="Trazado 181694" d="M162.957,165.822c-2.8-1.2-5.489-2.312-8.136-3.511a3.267,3.267,0,0,0-2.962-.012c-2.372,1.1-4.79,2.094-7.2,3.114-.3.125-.577.365-1.02.243v-1.063q0-33.867-.027-67.734c0-1.013.288-1.173,1.216-1.165,5.778.046,11.557.032,17.335.009.631,0,.845.126.844.812q-.03,34.371-.018,68.742c0,.133-.017.267-.037.566m-16.126-55.568c0,3.087-.006,6.174,0,9.261,0,1.461.547,2,2,2.005q4.429.009,8.857,0c1.444,0,2.034-.568,2.037-2q.015-9.311,0-18.622c0-1.367-.609-1.948-1.981-1.952q-4.429-.013-8.857,0c-1.525,0-2.052.525-2.055,2.05-.007,3.087,0,6.174,0,9.261m6.5,17.719h4.122c2.316,0,2.285,0,2.309-2.363.007-.717-.2-.886-.9-.878-3.216.037-6.434.016-9.651.016-2.433,0-2.409,0-2.4,2.464,0,.622.164.79.783.776,1.909-.042,3.82-.015,5.73-.015M151.62,157h2.512c2.442,0,2.415,0,2.4-2.47,0-.642-.2-.777-.8-.768-2.143.033-4.286.013-6.43.013-2.58,0-2.561,0-2.487,2.571.016.535.167.678.686.666,1.372-.033,2.746-.011,4.119-.011m-.717-22.579h1.607c2.5,0,2.482,0,2.406-2.559-.016-.528-.159-.687-.683-.677-1.639.03-3.28.011-4.92.011-2.583,0-2.566,0-2.5,2.559.014.516.137.7.672.678,1.137-.039,2.276-.012,3.414-.012m-.009,3.226h-1.607c-2.571,0-2.55,0-2.472,2.585.017.554.207.658.7.65,1.64-.025,3.28-.009,4.92-.009,2.6,0,2.577,0,2.483-2.585-.02-.56-.222-.661-.71-.649-1.1.028-2.209.009-3.313.009" transform="translate(-104.922 -69.911)" fill="#d4cdc1"/>
    <path id="Trazado_181695" data-name="Trazado 181695" d="M69.955,18.4c-5.07,0-10.139-.015-15.208.017-.7,0-.914-.154-.888-.874.058-1.643.039-3.29.006-4.935-.011-.533.156-.67.677-.669q15.46.021,30.921,0c.515,0,.692.127.68.666-.034,1.644-.051,3.291.006,4.935.025.715-.182.882-.884.878-5.1-.032-10.206-.017-15.309-.017" transform="translate(-39.346 -8.722)" fill="#c0c7d0"/>
    <path id="Trazado_181696" data-name="Trazado 181696" d="M40.363,51.131c.921-1.065,1.715-1.962,2.483-2.882a1.02,1.02,0,0,1,.9-.323c10.1,0,20.209,0,30.559,0-.983,1.118-1.845,2.109-2.721,3.087-.174.195-.444.112-.672.112-10.1,0-20.208,0-30.545,0" transform="translate(-29.488 -35.013)" fill="#86909d"/>
    <path id="Trazado_181697" data-name="Trazado 181697" d="M53.192,71.9l-.114.184c-1.444,2.408-3.467,3.122-6.331,3.048-8.692-.225-17.393-.081-26.091-.081H19.332c.951-1.1,1.794-2.064,2.63-3.038.212-.247.488-.187.748-.187q15.061,0,30.123,0a2.311,2.311,0,0,1,.36.072" transform="translate(-14.123 -52.469)" fill="#86909d"/>
    <path id="Trazado_181698" data-name="Trazado 181698" d="M166.721,60.35c-5.156,0-10.083,0-15.009,0a1.4,1.4,0,0,1-.287-.095c1.317-1.511,2.6-2.989,3.889-4.463,1.08-1.237,2.166-2.469,3.244-3.707.252-.29.438-.585.842-.119,2.383,2.755,4.788,5.49,7.321,8.386" transform="translate(-110.627 -37.785)" fill="#c0c7d0"/>
    <path id="Trazado_181699" data-name="Trazado 181699" d="M36.747,259.237c-1.578,0-3.156.014-4.734,0a6.437,6.437,0,0,1-2.409-12.44c.262-.108.714-.074.7-.441s-.471-.295-.73-.38a8.036,8.036,0,0,1-5.653-7.21c-.053-1.514.491-2.095,1.989-2.1,1.242-.007,2.484-.008,3.726,0,.429,0,.684-.006.787-.591a3.114,3.114,0,0,1,3.2-2.633c2.081-.021,4.163-.016,6.244,0a3.137,3.137,0,0,1,3.267,2.557c.124.512.3.7.849.68,1.24-.047,2.484-.022,3.726-.013,1.44.01,2.117.73,1.959,2.144a7.959,7.959,0,0,1-5.7,7.178c-.233.079-.627.02-.666.327-.053.422.391.371.646.475a6.44,6.44,0,0,1-2.362,12.448c-1.611.019-3.223,0-4.834,0m-.019-3.219c1.577,0,3.154.012,4.731,0a3.233,3.233,0,1,0,.015-6.457q-4.681-.02-9.361,0a3.231,3.231,0,1,0-.015,6.457c1.543.016,3.087,0,4.63,0M33.579,241.5h.015c0,1.374.014,2.748-.008,4.122-.008.476.065.724.642.712,1.708-.038,3.419-.034,5.127,0,.548.01.668-.187.665-.7q-.028-4.173.007-8.346c0-.469-.119-.649-.614-.642q-2.614.037-5.228,0c-.491-.008-.626.155-.617.63.027,1.407.01,2.815.01,4.223m-3.2-.255c-.273-.366.348-1.167-.372-1.3-.775-.139-2-.424-2.326.15-.335.591.6,1.358,1.2,1.872.372.315.828.832,1.274.636.427-.187.087-.844.219-1.362m12.96,1.434a3.7,3.7,0,0,0,2.647-2.751c-3.3.041-2.721-.759-2.647,2.751" transform="translate(-17.472 -170.533)"/>
    <path id="Trazado_181700" data-name="Trazado 181700" d="M23.875,120.586A12.9,12.9,0,1,1,36.64,133.554a12.886,12.886,0,0,1-12.765-12.968m12.9-9.608c-1.613,0-1.613,0-1.612,1.573,0,.3,0,.6,0,.906a2.133,2.133,0,0,0,2.274,2.364,4.318,4.318,0,0,1,.951,8.489c-.513.153-1.046.245-1.552.417a2.407,2.407,0,0,0-1.117,3.846c.38.466.851.857,1.252,1.307a1.056,1.056,0,0,0,1.064.345,9.665,9.665,0,0,0-1.26-19.247m-4.835,1.257c-3.491,2.354-5.144,5.387-4.791,9.351.3,3.36,2.055,5.832,5.17,7.655a6.185,6.185,0,0,1-.251-3.477c.653-2.614,2.481-3.944,5.018-4.446.727-.144,1.337-.443,1.255-1.278s-.73-.972-1.473-1.027a5.285,5.285,0,0,1-4.925-5.163c-.015-.457,0-.916,0-1.616" transform="translate(-17.442 -78.721)"/>
    <path id="Trazado_181701" data-name="Trazado 181701" d="M155.541,119.055c0-3.087,0-6.174,0-9.261,0-1.525.53-2.047,2.056-2.05q4.429-.007,8.857,0c1.373,0,1.979.585,1.981,1.952q.017,9.311,0,18.622c0,1.432-.592,2-2.037,2q-4.429.01-8.857,0c-1.454,0-2-.544-2-2-.008-3.087,0-6.174,0-9.261m3.229-.05c0,2.418.018,4.835-.012,7.253-.008.65.19.862.854.843,1.61-.047,3.223-.032,4.834-.006.533.009.775-.1.772-.709q-.027-7.353.014-14.707c0-.595-.212-.731-.76-.721-1.645.029-3.291.04-4.935,0-.635-.017-.79.192-.782.8.032,2.417.013,4.835.015,7.253" transform="translate(-113.632 -78.712)"/>
    <path id="Trazado_181702" data-name="Trazado 181702" d="M161.992,206.708c-1.91,0-3.821-.026-5.73.015-.619.014-.78-.155-.783-.776-.011-2.464-.036-2.464,2.4-2.464,3.217,0,6.434.02,9.651-.016.693-.008.9.162.9.878-.024,2.363.007,2.363-2.31,2.363h-4.122" transform="translate(-113.587 -148.646)"/>
    <path id="Trazado_181703" data-name="Trazado 181703" d="M160.238,314.464c-1.373,0-2.747-.022-4.119.011-.519.012-.67-.131-.686-.666-.074-2.571-.093-2.571,2.487-2.571,2.143,0,4.287.02,6.43-.013.6-.009.8.126.8.768.015,2.47.042,2.47-2.4,2.47h-2.512" transform="translate(-113.54 -227.372)"/>
    <path id="Trazado_181704" data-name="Trazado 181704" d="M159.528,230.666c-1.138,0-2.277-.027-3.414.012-.536.018-.658-.162-.672-.678-.071-2.56-.088-2.559,2.5-2.559,1.64,0,3.281.019,4.92-.011.524-.009.667.149.683.677.075,2.56.093,2.559-2.406,2.559h-1.607" transform="translate(-113.547 -166.154)"/>
    <path id="Trazado_181705" data-name="Trazado 181705" d="M159.5,251.389c1.1,0,2.21.019,3.313-.009.489-.012.69.089.71.649.094,2.585.115,2.585-2.483,2.585-1.64,0-3.281-.015-4.92.009-.493.007-.683-.1-.7-.65-.078-2.585-.1-2.585,2.472-2.585H159.5" transform="translate(-113.533 -183.651)"/>
    <path id="Trazado_181706" data-name="Trazado 181706" d="M49.8,299.74c-1.543,0-3.087.013-4.63,0a3.231,3.231,0,1,1,.015-6.457q4.68-.019,9.361,0a3.233,3.233,0,1,1-.015,6.457c-1.577.015-3.154,0-4.731,0m-1.541-3.179c0-1.659,0-1.659-1.183-1.659-2.031,0-2.031,0-2.031,1.2,0,2.011,0,2.011,1.222,2.011,1.992,0,1.992,0,1.992-1.554m6.451-.078c0-1.581,0-1.581-1.16-1.582-2.054,0-2.054,0-2.054,1.179,0,2.034,0,2.034,1.2,2.034,2.015,0,2.015,0,2.015-1.631" transform="translate(-30.544 -214.255)" fill="#ffd1a2"/>
    <path id="Trazado_181707" data-name="Trazado 181707" d="M59.752,250.243c0-1.408.017-2.816-.01-4.223-.009-.474.126-.637.617-.63q2.614.04,5.228,0c.5-.007.617.173.613.642q-.032,4.173-.007,8.346c0,.51-.117.707-.665.7-1.709-.032-3.419-.036-5.127,0-.577.013-.65-.235-.642-.712.022-1.374.008-2.748.008-4.122h-.015" transform="translate(-43.645 -179.275)" fill="#c0c7d0"/>
    <path id="Trazado_181708" data-name="Trazado 181708" d="M40.4,258.414c-.132.518.208,1.174-.219,1.362-.446.2-.9-.321-1.274-.636-.609-.515-1.54-1.282-1.2-1.872.326-.574,1.551-.289,2.326-.15.72.129.1.93.372,1.3" transform="translate(-27.496 -187.701)" fill="#86909d"/>
    <path id="Trazado_181709" data-name="Trazado 181709" d="M95.783,260.183c-.074-3.51-.649-2.71,2.647-2.751a3.7,3.7,0,0,1-2.647,2.751" transform="translate(-69.915 -188.035)" fill="#86909d"/>
    <path id="Trazado_181710" data-name="Trazado 181710" d="M67.367,119.727a9.665,9.665,0,0,1,1.26,19.247,1.055,1.055,0,0,1-1.064-.345c-.4-.451-.872-.841-1.252-1.308a2.407,2.407,0,0,1,1.117-3.846c.506-.172,1.039-.264,1.552-.417a4.318,4.318,0,0,0-.951-8.489,2.134,2.134,0,0,1-2.274-2.364c-.006-.3,0-.6,0-.906,0-1.573,0-1.573,1.613-1.573" transform="translate(-48.032 -87.469)" fill="#f57c00"/>
    <path id="Trazado_181711" data-name="Trazado 181711" d="M40.7,124.393c0,.7-.013,1.159,0,1.616a5.285,5.285,0,0,0,4.925,5.163c.743.055,1.392.2,1.473,1.027s-.528,1.135-1.255,1.278c-2.537.5-4.365,1.832-5.018,4.446a6.185,6.185,0,0,0,.251,3.477c-3.115-1.823-4.871-4.295-5.17-7.655-.353-3.965,1.3-7,4.791-9.351" transform="translate(-26.198 -90.878)" fill="#26ccda"/>
    <path id="Trazado_181712" data-name="Trazado 181712" d="M167.49,127.714c0-2.418.018-4.835-.014-7.253-.008-.606.147-.816.782-.8,1.644.044,3.29.034,4.935,0,.548-.01.763.127.76.721q-.039,7.353-.014,14.707c0,.614-.24.717-.772.709-1.611-.027-3.224-.041-4.834.006-.664.019-.862-.193-.854-.843.03-2.417.012-4.835.011-7.253" transform="translate(-122.353 -87.421)" fill="#fdd835"/>
    <path id="Trazado_181713" data-name="Trazado 181713" d="M57.036,300.985c0,1.554,0,1.554-1.992,1.554-1.223,0-1.223,0-1.222-2.011,0-1.2,0-1.2,2.031-1.2,1.183,0,1.183,0,1.183,1.659" transform="translate(-39.321 -218.679)"/>
    <path id="Trazado_181714" data-name="Trazado 181714" d="M80.978,300.908c0,1.632,0,1.632-2.015,1.631-1.2,0-1.2,0-1.2-2.034,0-1.18,0-1.18,2.054-1.179,1.16,0,1.16,0,1.16,1.582" transform="translate(-56.812 -218.679)"/>
  </g>
</svg>
