<svg xmlns="http://www.w3.org/2000/svg" width="81.58" height="100" viewBox="0 0 81.58 100">
  <g id="creatividad" transform="translate(-47.191 0.001)">
    <g id="Grupo_56621" data-name="Grupo 56621" transform="translate(48.655 1.463)">
      <path id="Trazado_104166" data-name="Trazado 104166" d="M87.618,103.466V93.319a4.207,4.207,0,0,0-4.19-4.207l-14.555-.057a5.139,5.139,0,0,1-5.045-4.268l-2.477-14.4H55.892a1.2,1.2,0,0,1-1.2-1.2A24.6,24.6,0,0,1,58.4,56.208l1.776-2.858a2.169,2.169,0,0,0,.32-1.312l-.667-8.627A32.289,32.289,0,0,1,92.021,8.635a34.292,34.292,0,0,1,32.838,44.17l-6.726,22.359v28.141a2.008,2.008,0,0,1-2,2.008l-26.5.16a2.008,2.008,0,0,1-2.02-2.008Z" transform="translate(-54.692 -8.413)" fill="#ffcebf"/>
      <path id="Trazado_104167" data-name="Trazado 104167" d="M97.05,113.93V97.344a4.207,4.207,0,0,0-4.19-4.207L78.305,93.08a5.139,5.139,0,0,1-5.045-4.268L71.709,79.8a6.479,6.479,0,0,0-6.385-5.38,1.2,1.2,0,0,1-1.2-1.206A24.594,24.594,0,0,1,67.83,60.233l1.776-2.858a2.169,2.169,0,0,0,.32-1.312l-.667-8.627A32.205,32.205,0,0,1,79.7,21.086,32.305,32.305,0,0,0,59.829,53.432l.667,8.627a2.169,2.169,0,0,1-.32,1.312L58.4,66.229a24.594,24.594,0,0,0-3.706,12.983,1.2,1.2,0,0,0,1.2,1.2h5.459l2.477,14.4a5.139,5.139,0,0,0,5.045,4.268l14.555.057a4.207,4.207,0,0,1,4.19,4.207v10.146a2.008,2.008,0,0,0,2.021,2.008l8.1-.049A2,2,0,0,1,97.05,113.93Z" transform="translate(-54.693 -18.434)" fill="#ffb09e"/>
      <g id="Grupo_56620" data-name="Grupo 56620" transform="translate(39.819)">
        <path id="Trazado_104168" data-name="Trazado 104168" d="M320.113,236.509h-7.159v3.178a3.579,3.579,0,0,0,7.159,0Z" transform="translate(-302.37 -191.815)" fill="#e2dee2"/>
        <path id="Trazado_104169" data-name="Trazado 104169" d="M287.05,21.663a14.163,14.163,0,1,0-23.5,10.642,4.737,4.737,0,0,1,1.639,3.553v8.436h15.4V35.858a4.694,4.694,0,0,1,1.617-3.532,14.124,14.124,0,0,0,4.845-10.662Z" transform="translate(-258.724 -7.5)" fill="#fdd835"/>
        <path id="Trazado_104170" data-name="Trazado 104170" d="M270.809,32.305a14.156,14.156,0,0,1,5.714-24.329,14.16,14.16,0,0,0-12.977,24.329,4.737,4.737,0,0,1,1.639,3.553v8.436h7.263V35.858a4.737,4.737,0,0,0-1.639-3.553Z" transform="translate(-258.723 -7.5)" fill="#ffa726"/>
        <path id="Trazado_104171" data-name="Trazado 104171" d="M300.335,182.033H284.3a1.435,1.435,0,0,0-1.435,1.435v5.145a5.223,5.223,0,0,0,5.223,5.223h8.456a5.223,5.223,0,0,0,5.223-5.223v-5.145A1.435,1.435,0,0,0,300.335,182.033Z" transform="translate(-278.156 -147.971)" fill="#efedef"/>
      </g>
    </g>
    <g id="Grupo_56622" data-name="Grupo 56622" transform="translate(47.191 -0.001)">
      <path id="Trazado_104172" data-name="Trazado 104172" d="M373.725,429.091a1.464,1.464,0,0,0-1.464,1.464V443.7a1.464,1.464,0,0,0,2.927,0V430.555A1.464,1.464,0,0,0,373.725,429.091Z" transform="translate(-308.82 -345.349)"/>
      <path id="Trazado_104173" data-name="Trazado 104173" d="M380.343,130.93a1.464,1.464,0,0,0-1.027,1.8,32.691,32.691,0,0,1-.268,18.042l-6.726,22.359a1.463,1.463,0,0,0-.062.422V184.3a1.464,1.464,0,1,0,2.927,0V173.766l6.664-22.153a35.617,35.617,0,0,0,.289-19.656A1.464,1.464,0,0,0,380.343,130.93Z" transform="translate(-308.819 -105.335)"/>
      <path id="Trazado_104174" data-name="Trazado 104174" d="M77.4,145.908l-14.555-.057a3.67,3.67,0,0,1-3.608-3.052l-2.477-14.4a1.464,1.464,0,0,0-1.443-1.216H50.12A23.11,23.11,0,0,1,53.6,115.24l1.776-2.858a3.609,3.609,0,0,0,.536-2.2l-.667-8.627A30.594,30.594,0,0,1,59.6,83.243a1.464,1.464,0,1,0-2.5-1.517,33.5,33.5,0,0,0-4.76,20.056L53,110.41a.7.7,0,0,1-.1.427l-1.776,2.858a26.035,26.035,0,0,0-3.927,13.756,2.667,2.667,0,0,0,2.664,2.664h4.226L56.349,143.3a6.593,6.593,0,0,0,6.482,5.483l14.555.057a2.748,2.748,0,0,1,2.732,2.743v12.167a1.464,1.464,0,0,0,2.927,0V151.578A5.681,5.681,0,0,0,77.4,145.908Z" transform="translate(-47.191 -65.209)"/>
      <path id="Trazado_104175" data-name="Trazado 104175" d="M145.136,2.763a1.464,1.464,0,0,0-1.368-1.554c-.79-.05-1.577-.076-2.341-.076A33.822,33.822,0,0,0,116.46,12.177a1.464,1.464,0,0,0,2.165,1.97,30.888,30.888,0,0,1,22.8-10.086c.7,0,1.427.023,2.155.07a1.465,1.465,0,0,0,1.554-1.368Z" transform="translate(-102.634 -0.912)"/>
      <path id="Trazado_104176" data-name="Trazado 104176" d="M277.719,42.866h.427a1.464,1.464,0,1,0,0-2.927h-.382v-2.98a2.9,2.9,0,0,0-1.75-2.66V29.82a3.235,3.235,0,0,1,1.116-2.43,15.617,15.617,0,0,0,3.133-19.778,1.464,1.464,0,1,0-2.512,1.5A12.689,12.689,0,0,1,275.2,25.186a6.161,6.161,0,0,0-2.117,4.634v4.241H260.611v-4.24a6.209,6.209,0,0,0-2.137-4.653A12.7,12.7,0,0,1,273.892,5.059a1.464,1.464,0,1,0,1.626-2.434,15.624,15.624,0,0,0-18.975,24.743,3.281,3.281,0,0,1,1.141,2.453V34.3a2.9,2.9,0,0,0-1.75,2.66v2.98h-.52a1.464,1.464,0,0,0,0,2.927h.565a6.7,6.7,0,0,0,5.827,5.873v.595a5.043,5.043,0,0,0,10.086,0v-.595a6.7,6.7,0,0,0,5.827-5.873Zm-18.857-5.878h15.974v2.951H258.861Zm.078,5.878h15.819a3.765,3.765,0,0,1-3.681,3H262.62A3.765,3.765,0,0,1,258.939,42.866Zm10.025,6.468a2.116,2.116,0,0,1-4.231,0v-.543h4.231Z" transform="translate(-211.403 0.001)"/>
      <path id="Trazado_104177" data-name="Trazado 104177" d="M440.492,57.043a1.457,1.457,0,0,0,.6-.128l2.181-.978a1.464,1.464,0,1,0-1.2-2.671l-2.181.978a1.464,1.464,0,0,0,.6,2.8Z" transform="translate(-362.556 -42.767)"/>
      <path id="Trazado_104178" data-name="Trazado 104178" d="M443.271,112.42l-2.181-.978a1.464,1.464,0,0,0-1.2,2.671l2.181.978a1.464,1.464,0,0,0,1.2-2.671Z" transform="translate(-362.557 -89.589)"/>
      <path id="Trazado_104179" data-name="Trazado 104179" d="M194.743,55.937l2.181.978a1.464,1.464,0,0,0,1.2-2.671l-2.181-.978a1.464,1.464,0,1,0-1.2,2.671Z" transform="translate(-165.25 -42.767)"/>
      <path id="Trazado_104180" data-name="Trazado 104180" d="M194.006,114.353a1.462,1.462,0,0,0,1.934.737l2.181-.978a1.464,1.464,0,0,0-1.2-2.671l-2.181.978A1.464,1.464,0,0,0,194.006,114.353Z" transform="translate(-165.25 -89.588)"/>
    </g>
  </g>
</svg>
