<svg id="Grupo_120789" data-name="Grupo 120789" xmlns="http://www.w3.org/2000/svg" xmlns:xlink="http://www.w3.org/1999/xlink" width="61.228" height="100" viewBox="0 0 61.228 100">
  <defs>
    <clipPath id="clip-path">
      <rect id="Rectángulo_37739" data-name="Rectángulo 37739" width="61.228" height="100" fill="none"/>
    </clipPath>
  </defs>
  <g id="Grupo_120766" data-name="Grupo 120766" clip-path="url(#clip-path)">
    <path id="Trazado_182280" data-name="Trazado 182280" d="M3.648,100c-.122-.3-.434-.244-.656-.343A4.553,4.553,0,0,1,.084,95.823,11.947,11.947,0,0,1,0,94.461Q0,56.525,0,18.589c0-.163,0-.326,0-.488.035-1.428.519-1.895,1.97-1.907,1.281-.01,1.281-.01,1.281-1.273,0-1.139-.011-2.279,0-3.418.015-1.252.523-1.77,1.789-1.776,3.385-.014,6.771-.036,10.155.017.843.013,1.012-.249.992-1.034-.055-2.212-.023-4.426-.018-6.639C16.178.5,16.664.008,18.2,0Q20.882,0,23.567,0c1.551,0,2.01.468,2.014,2.051.006,2.148,0,4.3,0,6.445,0,1.4-.158,1.221,1.27,1.222q14.4.006,28.806,0c1.921,0,2.286.362,2.287,2.261,0,1.2.019,2.409-.009,3.613-.011.461.121.666.6.6a4.323,4.323,0,0,1,.585,0c1.617.007,2.074.459,2.075,2.1q.006,10.937,0,21.873c0,17.935-.03,35.869.029,53.8.01,2.966-.9,5.1-3.871,6.034Zm13.38-59.743c.182-1.057.847-1.423,1.871-1.419,4.588.019,9.176.009,13.765.008,8.2,0,16.4-.017,24.6.012.817,0,1.018-.224,1.013-1.026q-.052-8.883,0-17.767c0-.681-.1-.978-.886-.951-1.82.063-3.645.044-5.466,0a.822.822,0,0,0-.975.757c-.842,3.471-1.714,6.934-2.573,10.4-.377,1.52-.7,1.775-2.3,1.775H15.131c-1.638,0-1.909-.219-2.321-1.864-.851-3.4-1.717-6.8-2.538-10.209-.155-.645-.4-.882-1.095-.858-1.755.059-3.514.046-5.27,0-.723-.02-1,.123-1,.939q.057,8.932,0,17.864c0,.81.269.957,1,.947,2.733-.039,5.467-.019,8.2-.014,1.365,0,1.636.2,2.043,1.445-.4,1.21-.766,1.483-2.05,1.486-2.7.006-5.4.032-8.1-.017-.819-.015-1.109.143-1.1,1.051.042,7.483.022,14.967.03,22.451,0,.306-.125.647.178.968.235-.162.479-.312.7-.487q12.712-9.88,25.42-19.765c1.176-.915,1.563-.914,2.744,0Q43.488,54.94,55,63.894c1.014.788,2.047,1.55,3.123,2.364a1.82,1.82,0,0,0,.12-.383q.008-11.713.017-23.427c0-.528-.2-.661-.691-.654-1.236.019-2.472-.012-3.709-.012q-17.375,0-34.75,0c-1.4,0-1.787-.29-2.088-1.523M30.61,97.07v-.017q12.548,0,25.1,0c2.025,0,2.53-.529,2.53-2.559q0-11.718.013-23.437a1.628,1.628,0,0,0-.7-1.463Q44.4,59.4,31.293,49.144a.906.906,0,0,0-1.376-.011Q16.808,59.381,3.649,69.565a1.711,1.711,0,0,0-.73,1.546c.024,7.78.015,15.559.016,23.339,0,2.084.529,2.62,2.578,2.62h25.1M25.566,18.46v3.124c0,2.726,0,2.7,2.779,2.677.641-.006.842-.188.835-.828-.029-2.7-.012-5.4-.012-8.1,0-2.732,0-2.711-2.781-2.68-.643.007-.848.191-.833.831.037,1.659.012,3.319.012,4.979m6.466-.1v3.222c0,2.726,0,2.705,2.78,2.677.64-.006.841-.185.834-.827-.03-2.7-.012-5.4-.012-8.1,0-2.732,0-2.711-2.779-2.681-.642.007-.849.191-.835.83.036,1.626.012,3.254.012,4.881m-9.4-9.668c0-1.627-.028-3.255.013-4.881.017-.657-.142-.957-.855-.891a9.927,9.927,0,0,1-1.853,0c-.719-.069-.86.237-.852.892.033,2.7.014,5.4.014,8.1,0,2.663,0,2.631,2.645,2.631.774,0,.918-.288.9-.972-.041-1.626-.013-3.254-.013-4.881M42.1,18.482V15.36c0-2.777,0-2.753-2.741-2.71-.667.011-.807.249-.8.856q.035,4.975,0,9.95c0,.565.125.842.753.8a14.884,14.884,0,0,1,2.047,0c.63.044.762-.231.752-.8-.03-1.658-.011-3.317-.01-4.975M22.648,23.322c0-1.72-.017-3.44.011-5.159.008-.5-.127-.7-.652-.665a14.665,14.665,0,0,1-2.043,0c-.67-.053-.886.157-.876.853.04,2.692,0,5.386.024,8.079.006.866-.38,2.025.157,2.521.577.532,1.731.09,2.628.172.587.053.783-.118.766-.738-.046-1.686-.016-3.374-.016-5.061m-6.481-4.867V15.34c0-2.825,0-2.814-2.844-2.683-.479.022-.647.138-.7.654-.358,3.643.731,7.058,1.621,10.5.2.788.93.349,1.42.42.557.08.5-.358.5-.713q0-2.532,0-5.063m28.866.022c0,1.688,0,3.375,0,5.063,0,.3-.088.751.42.682s1.318.418,1.5-.433c.585-2.808,1.737-5.495,1.628-8.455-.1-2.749-.021-2.727-2.77-2.686-.681.01-.8.271-.788.862.03,1.655.011,3.31.011,4.966M9.709,14.418c0-1.751,0-1.751-1.705-1.751h-.1c-1.72,0-1.72,0-1.72,1.733,0,1.8,0,1.8,1.751,1.8,1.771,0,1.771,0,1.771-1.78m43.634-1.751c-1.852,0-1.852,0-1.852,1.8,0,1.733,0,1.733,1.721,1.733,1.8,0,1.8,0,1.8-1.844,0-1.687,0-1.687-1.67-1.687M27.326,29.112c.455,0,.909,0,1.363,0,.2,0,.354-.014.441-.262.351-1-.076-1.664-1.1-1.664a12.9,12.9,0,0,1-1.557-.012c-.758-.093-.9.219-.916.925-.013.776.144,1.166.994,1.022a4.8,4.8,0,0,1,.778-.007m6.565,0h1.266c.243,0,.4-.04.469-.347.263-1.194-.015-1.58-1.2-1.581a10.579,10.579,0,0,1-1.362-.011c-.814-.106-1.03.2-1.027,1.008,0,.779.231,1.047.982.938a6.253,6.253,0,0,1,.876-.008m6.351,0a5.475,5.475,0,0,1,.876.007c.83.136,1.007-.211,1.01-1.005s-.255-1.015-1-.942a10.3,10.3,0,0,1-1.753,0c-.6-.044-.827.106-.857.783-.04.9.154,1.351,1.137,1.159a3.116,3.116,0,0,1,.584-.005m-24.076-.922h.007a.323.323,0,0,0,0-.1c-.107-.328.295-.926-.469-.905-.228.006-.651-.08-.508.323.191.536-.035,1.262.64,1.587a.233.233,0,0,0,.329-.231c.011-.225,0-.451,0-.676m28.81.021c.293.214-.267.935.348.848.731-.1.468-.988.681-1.51.161-.394-.22-.356-.469-.365-.843-.033-.37.628-.56,1.027" transform="translate(0 0)" fill="#030303"/>
    <path id="Trazado_182281" data-name="Trazado 182281" d="M39.621,247.767h-25.1c-2.049,0-2.578-.536-2.578-2.62,0-7.78.008-15.559-.016-23.339a1.71,1.71,0,0,1,.73-1.546q13.157-10.186,26.268-20.432a.906.906,0,0,1,1.376.011q13.1,10.252,26.255,20.446a1.628,1.628,0,0,1,.7,1.463q-.03,11.718-.013,23.436c0,2.03-.505,2.557-2.53,2.559q-12.548.013-25.1,0Zm-.015-19.4q-6.392,0-12.784,0c-1.46,0-1.942.475-1.956,1.916q-.026,2.781,0,5.562c.014,1.418.534,1.928,1.967,1.929q12.784.009,25.568,0c1.428,0,1.94-.513,1.954-1.941.018-1.756.007-3.513,0-5.27,0-1.788-.405-2.2-2.165-2.2q-6.294,0-12.589,0m.029-3.573a7.928,7.928,0,1,0-7.958-7.913,7.973,7.973,0,0,0,7.958,7.913m.079,16.519q-7.759,0-15.519,0a5.28,5.28,0,0,0-.973.034,1.35,1.35,0,0,0-1.211,1.317,1.308,1.308,0,0,0,1.016,1.466,4.251,4.251,0,0,0,1.156.11q15.421.008,30.842,0a4.424,4.424,0,0,0,1.064-.076,1.334,1.334,0,0,0,1.119-1.489,1.356,1.356,0,0,0-1.294-1.341,6.191,6.191,0,0,0-.877-.023H39.714" transform="translate(-9.011 -150.697)" fill="#cee0eb"/>
    <path id="Trazado_182282" data-name="Trazado 182282" d="M25.977,164.514c.3,1.232.688,1.522,2.088,1.522q17.375,0,34.75,0c1.236,0,2.473.032,3.709.012.49-.008.692.126.691.654q-.022,11.713-.017,23.427a1.82,1.82,0,0,1-.12.383c-1.076-.814-2.109-1.576-3.123-2.364q-11.519-8.951-23.031-17.91c-1.18-.918-1.568-.919-2.744,0Q25.471,180.121,12.76,190c-.225.175-.468.325-.7.487-.3-.321-.178-.663-.178-.968-.008-7.484.012-14.967-.03-22.451-.005-.908.285-1.066,1.1-1.051,2.7.049,5.4.023,8.1.017,1.284,0,1.648-.276,2.05-1.486l2.873-.036" transform="translate(-8.949 -124.257)" fill="#f57c00"/>
    <path id="Trazado_182283" data-name="Trazado 182283" d="M26.013,99.242l-2.873.036c-.407-1.245-.678-1.443-2.043-1.445-2.734,0-5.467-.024-8.2.014-.73.01-1-.136-1-.947q.054-8.932,0-17.864c-.005-.816.274-.959,1-.939,1.756.048,3.515.061,5.27,0,.7-.024.939.214,1.095.858.821,3.409,1.687,6.807,2.538,10.209.412,1.644.683,1.863,2.321,1.864H55.063c1.6,0,1.919-.255,2.3-1.775.859-3.467,1.731-6.93,2.573-10.4a.823.823,0,0,1,.975-.757c1.821.047,3.646.066,5.466,0,.786-.027.888.27.886.951q-.036,8.883,0,17.767c0,.8-.2,1.029-1.013,1.026-8.2-.028-16.4-.013-24.6-.012-4.588,0-9.177.011-13.765-.008-1.025,0-1.69.362-1.871,1.419" transform="translate(-8.986 -58.985)" fill="#fff3bf"/>
    <path id="Trazado_182284" data-name="Trazado 182284" d="M104.44,57.488c0-1.659.024-3.32-.012-4.978-.014-.64.191-.824.833-.831,2.781-.031,2.781-.052,2.781,2.68,0,2.7-.017,5.4.012,8.1.007.64-.194.821-.835.828-2.78.027-2.779.049-2.779-2.677V57.488" transform="translate(-78.874 -39.028)" fill="#ffa726"/>
    <path id="Trazado_182285" data-name="Trazado 182285" d="M130.864,57.391c0-1.627.024-3.255-.012-4.881-.014-.639.193-.823.835-.83,2.779-.03,2.779-.051,2.779,2.681,0,2.7-.017,5.4.012,8.1.007.642-.195.82-.834.827-2.78.028-2.78.049-2.78-2.677V57.391" transform="translate(-98.832 -39.029)" fill="#ffa726"/>
    <path id="Trazado_182286" data-name="Trazado 182286" d="M81.545,17.684c0,1.627-.028,3.255.013,4.881.017.684-.126.972-.9.972-2.645,0-2.645.032-2.645-2.631,0-2.7.019-5.4-.014-8.1-.008-.655.133-.961.852-.892a9.927,9.927,0,0,0,1.853,0c.713-.066.871.234.855.891-.041,1.626-.013,3.254-.013,4.881" transform="translate(-58.912 -8.99)" fill="#ffa726"/>
    <path id="Trazado_182287" data-name="Trazado 182287" d="M161.109,57.5c0,1.658-.019,3.317.011,4.975.01.568-.122.843-.752.8a14.884,14.884,0,0,0-2.047,0c-.628.043-.756-.234-.753-.8q.03-4.975,0-9.95c0-.607.136-.846.8-.856,2.741-.043,2.741-.067,2.741,2.71V57.5" transform="translate(-119.009 -39.016)" fill="#ffa726"/>
    <path id="Trazado_182288" data-name="Trazado 182288" d="M81.246,77.3c0,1.687-.03,3.375.016,5.061.017.62-.179.791-.766.738-.9-.081-2.051.36-2.628-.172-.538-.5-.151-1.655-.157-2.521-.02-2.693.017-5.387-.024-8.079-.011-.7.206-.906.875-.853a14.7,14.7,0,0,0,2.043,0c.524-.032.659.163.651.665-.027,1.719-.01,3.439-.01,5.159" transform="translate(-58.598 -53.981)" fill="#cee0eb"/>
    <path id="Trazado_182289" data-name="Trazado 182289" d="M54.923,57.389q0,2.532,0,5.063c0,.354.057.793-.5.713-.491-.071-1.217.368-1.42-.42-.889-3.443-1.979-6.857-1.621-10.5.051-.517.219-.632.7-.654,2.845-.131,2.844-.142,2.844,2.683v3.116" transform="translate(-38.755 -38.933)" fill="#ffa726"/>
    <path id="Trazado_182290" data-name="Trazado 182290" d="M184,57.491c0-1.655.02-3.311-.011-4.965-.011-.592.106-.852.788-.863,2.749-.041,2.669-.064,2.77,2.686.109,2.96-1.043,5.647-1.628,8.455-.177.851-.979.363-1.5.433s-.419-.378-.42-.682c-.007-1.688,0-3.375,0-5.063" transform="translate(-138.965 -39.014)" fill="#ffa726"/>
    <path id="Trazado_182291" data-name="Trazado 182291" d="M28.806,53.515c0,1.78,0,1.78-1.771,1.78-1.751,0-1.751,0-1.751-1.8,0-1.733,0-1.733,1.72-1.733h.1c1.705,0,1.705,0,1.705,1.751" transform="translate(-19.097 -39.097)" fill="#ffa726"/>
    <path id="Trazado_182292" data-name="Trazado 182292" d="M212.276,51.764c1.67,0,1.67,0,1.67,1.687,0,1.844,0,1.844-1.8,1.844-1.721,0-1.721,0-1.721-1.733,0-1.8,0-1.8,1.852-1.8" transform="translate(-158.933 -39.097)" fill="#ffa726"/>
    <path id="Trazado_182293" data-name="Trazado 182293" d="M106.2,112.935a4.74,4.74,0,0,0-.778.007c-.851.144-1.008-.246-.994-1.022.012-.706.158-1.018.916-.924a12.9,12.9,0,0,0,1.557.012c1.028,0,1.455.661,1.1,1.664-.087.248-.245.262-.441.263-.454,0-.909,0-1.363,0" transform="translate(-78.872 -83.822)" fill="#cee0eb"/>
    <path id="Trazado_182294" data-name="Trazado 182294" d="M132.765,112.925a6.18,6.18,0,0,0-.876.007c-.751.11-.98-.159-.982-.938,0-.808.213-1.114,1.027-1.008A10.577,10.577,0,0,0,133.3,111c1.189,0,1.467.386,1.2,1.581-.068.307-.226.348-.469.347q-.633,0-1.266,0" transform="translate(-98.875 -83.813)" fill="#cee0eb"/>
    <path id="Trazado_182295" data-name="Trazado 182295" d="M159.128,112.944a3.117,3.117,0,0,0-.584.005c-.983.191-1.177-.26-1.137-1.159.03-.677.256-.827.857-.783a10.3,10.3,0,0,0,1.753,0c.741-.073,1,.14,1,.942s-.18,1.142-1.01,1.005a5.475,5.475,0,0,0-.876-.007" transform="translate(-118.886 -83.832)" fill="#cee0eb"/>
    <path id="Trazado_182296" data-name="Trazado 182296" d="M62.979,112.1c0,.226.008.451,0,.676a.233.233,0,0,1-.329.231c-.675-.324-.449-1.051-.64-1.587-.143-.4.28-.316.508-.323.763-.021.361.577.469.905a.324.324,0,0,1,0,.1Z" transform="translate(-46.813 -83.911)" fill="#cee0eb"/>
    <path id="Trazado_182297" data-name="Trazado 182297" d="M183.8,112.118c.19-.4-.284-1.059.56-1.027.25.01.631-.029.469.365-.213.522.05,1.406-.681,1.51-.615.087-.055-.635-.348-.848" transform="translate(-138.824 -83.906)" fill="#cee0eb"/>
    <path id="Trazado_182298" data-name="Trazado 182298" d="M79.493,317.382q6.294,0,12.589,0c1.76,0,2.161.412,2.165,2.2,0,1.756.014,3.513,0,5.27-.014,1.428-.527,1.94-1.954,1.941q-12.784.01-25.568,0c-1.433,0-1.953-.511-1.967-1.929q-.028-2.781,0-5.562c.014-1.441.5-1.913,1.956-1.916q6.392-.013,12.784,0m-.029,6.482c3.058,0,6.115.015,9.172-.01.866-.007,2.048.394,2.511-.184.436-.544.106-1.68.173-2.551.05-.641-.174-.817-.811-.815q-11.027.032-22.053,0c-.571,0-.838.109-.784.745a11.789,11.789,0,0,1,0,1.95c-.054.674.167.885.861.878,3.643-.034,7.286-.016,10.929-.016" transform="translate(-48.898 -239.717)" fill="#030303"/>
    <path id="Trazado_182299" data-name="Trazado 182299" d="M100.587,253.846a7.928,7.928,0,1,1,7.911-7.96,7.977,7.977,0,0,1-7.911,7.96m-.157-2.961a4.951,4.951,0,0,0,5.107-4.893,4.972,4.972,0,0,0-9.942-.169,4.946,4.946,0,0,0,4.835,5.061" transform="translate(-69.963 -179.754)" fill="#030303"/>
    <path id="Trazado_182300" data-name="Trazado 182300" d="M70.818,370.279H86.141a6.2,6.2,0,0,1,.877.023,1.356,1.356,0,0,1,1.294,1.341,1.334,1.334,0,0,1-1.119,1.489,4.426,4.426,0,0,1-1.064.076q-15.421.005-30.842,0a4.249,4.249,0,0,1-1.156-.11,1.308,1.308,0,0,1-1.016-1.466,1.35,1.35,0,0,1,1.211-1.317,5.283,5.283,0,0,1,.973-.034q7.759,0,15.519,0" transform="translate(-40.114 -279.668)" fill="#030303"/>
    <path id="Trazado_182301" data-name="Trazado 182301" d="M88.5,332.889c-3.643,0-7.286-.018-10.929.016-.694.006-.915-.205-.861-.879a11.789,11.789,0,0,0,0-1.95c-.054-.636.213-.746.784-.745q11.026.025,22.053,0c.637,0,.861.174.811.815-.067.871.263,2.007-.173,2.551-.463.578-1.646.177-2.511.184-3.057.024-6.115.009-9.172.009" transform="translate(-57.931 -248.742)" fill="#cee0eb"/>
    <path id="Trazado_182302" data-name="Trazado 182302" d="M109.574,259.987a4.946,4.946,0,0,1-4.835-5.061,4.972,4.972,0,0,1,9.942.169,4.951,4.951,0,0,1-5.107,4.893" transform="translate(-79.107 -188.856)" fill="#cee0eb"/>
  </g>
</svg>
