<svg xmlns="http://www.w3.org/2000/svg" xmlns:xlink="http://www.w3.org/1999/xlink" width="208" height="208" viewBox="0 0 208 208">
  <defs>
    <filter id="Elipse_4984" x="0" y="0" width="208" height="208" filterUnits="userSpaceOnUse">
      <feOffset dx="-6" dy="6" input="SourceAlpha"/>
      <feGaussianBlur stdDeviation="3" result="blur"/>
      <feFlood flood-opacity="0.161"/>
      <feComposite operator="in" in2="blur"/>
      <feComposite in="SourceGraphic"/>
    </filter>
  </defs>
  <g id="Grupo_120929" data-name="Grupo 120929" transform="translate(-900 -10828)">
    <g transform="matrix(1, 0, 0, 1, 900, 10828)" filter="url(#Elipse_4984)">
      <g id="Elipse_4984-2" data-name="Elipse 4984" transform="translate(15 3)" fill="#fff" stroke="#fdd835" stroke-width="6">
        <circle cx="95" cy="95" r="95" stroke="none"/>
        <circle cx="95" cy="95" r="92" fill="none"/>
      </g>
    </g>
    <g id="productos" transform="translate(951.522 10865.348)">
      <path id="Trazado_104752" data-name="Trazado 104752" d="M261.242,50.449h15.149v7.826H261.242Zm0,0" transform="translate(-202.126 -39.033)" fill="#b1f9ff"/>
      <path id="Trazado_104753" data-name="Trazado 104753" d="M247.23,16.087a1.135,1.135,0,0,0,1.131,1.131h19.226a1.135,1.135,0,0,0,1.131-1.131V8.631A1.135,1.135,0,0,0,267.588,7.5H248.361a1.135,1.135,0,0,0-1.131,1.131Zm0,0" transform="translate(-191.285 -5.803)" fill="#26ccda"/>
      <path id="Trazado_104754" data-name="Trazado 104754" d="M242.6,85.64c0-.2.008-.4.015-.6h-26.28a5.655,5.655,0,0,0-5.641,5.655v17.772a5.645,5.645,0,0,0,3.458,5.216,2.693,2.693,0,0,1,1.646,2.483v8.732a2.69,2.69,0,0,1-1.733,2.517,5.687,5.687,0,0,0-3.64,5.289v10.668h12.573a1.184,1.184,0,0,1,1.179,1.182v8.036a1.184,1.184,0,0,1-1.179,1.181h-2.781v22.453a1.183,1.183,0,0,1-1.178,1.181H248.03a1.135,1.135,0,0,1-1.131-1.131V166.3l-5.841-55.653a1.386,1.386,0,0,1,1.4-1.561h5.8a5.667,5.667,0,0,0,.038-.627V97.675a15.515,15.515,0,0,1-5.7-12.036Zm0,0" transform="translate(-162.805 -65.793)" fill="#b1f9ff"/>
      <path id="Trazado_104755" data-name="Trazado 104755" d="M241.059,173.726a1.386,1.386,0,0,1,1.4-1.561h5.8a5.667,5.667,0,0,0,.038-.627v-4.98H210.691v4.98a5.645,5.645,0,0,0,3.459,5.216,2.694,2.694,0,0,1,1.646,2.483v8.732a2.691,2.691,0,0,1-1.733,2.517,5.687,5.687,0,0,0-3.64,5.289v5.612h33.54Zm0,0" transform="translate(-162.806 -128.868)" fill="#26ccda"/>
      <path id="Trazado_104756" data-name="Trazado 104756" d="M217.033,203.218a5.644,5.644,0,0,1-2.744-2.456h21.355a1.385,1.385,0,0,1,1.379,1.382V217.9a1.385,1.385,0,0,1-1.379,1.382h-21.5a5.656,5.656,0,0,1,2.8-2.333,2.691,2.691,0,0,0,1.733-2.517V205.7a2.7,2.7,0,0,0-1.646-2.483Zm0,0" transform="translate(-165.689 -155.332)" fill="#ffe881"/>
      <path id="Trazado_104757" data-name="Trazado 104757" d="M371.621,454.137a1.135,1.135,0,0,0,1.131,1.131h18.6a1.135,1.135,0,0,0,1.131-1.131v-9.966H371.621Zm0,0" transform="translate(-287.528 -343.661)" fill="#26ccda"/>
      <path id="Trazado_104758" data-name="Trazado 104758" d="M347.637,215.613l5.427,51.72h20.863l5.428-51.72Zm0,0" transform="translate(-268.971 -166.823)" fill="#f57c00"/>
      <path id="Trazado_104759" data-name="Trazado 104759" d="M376.924,191.336H347.186a1.385,1.385,0,0,0-1.4,1.561l.412,3.933h31.72l.413-3.933a1.387,1.387,0,0,0-1.4-1.561Zm0,0" transform="translate(-267.53 -148.039)" fill="#ffd1a2"/>
      <path id="Trazado_104760" data-name="Trazado 104760" d="M406.753,302.008a1.135,1.135,0,0,1-1.131,1.131h-6.806a1.135,1.135,0,0,1-1.131-1.131V285.034a1.135,1.135,0,0,1,1.131-1.131h6.806a1.135,1.135,0,0,1,1.131,1.131Zm0,0" transform="translate(-307.693 -219.659)" fill="#fff"/>
      <path id="Trazado_104761" data-name="Trazado 104761" d="M49.621,388.77v22.452A1.185,1.185,0,0,0,50.8,412.4H94.622a1.184,1.184,0,0,0,1.178-1.182V388.77Zm0,0" transform="translate(-38.392 -300.796)" fill="#fdd835"/>
      <path id="Trazado_104762" data-name="Trazado 104762" d="M191.453,414.879H174.429a1.184,1.184,0,0,0-1.179,1.182V424.1a1.184,1.184,0,0,0,1.179,1.182h17.025Zm0,0" transform="translate(-134.045 -320.997)" fill="#fff"/>
      <path id="Trazado_104763" data-name="Trazado 104763" d="M85.044,342.816H33.3A1.183,1.183,0,0,0,32.125,344v8.036a1.183,1.183,0,0,0,1.179,1.181h51.74a1.184,1.184,0,0,0,1.179-1.181V344A1.183,1.183,0,0,0,85.044,342.816Zm0,0" transform="translate(-24.855 -265.241)" fill="#f57c00"/>
      <path id="Trazado_104764" data-name="Trazado 104764" d="M47.854,143.859a.842.842,0,0,1,1.392,0l4.137,5.3a2.217,2.217,0,0,0,1.818.752l6.691-.834a.839.839,0,0,1,.982.982l-.836,6.66a2.2,2.2,0,0,0,.753,1.816l5.32,4.124a.835.835,0,0,1,0,1.386l-5.32,4.124a2.2,2.2,0,0,0-.753,1.815l.836,6.661a.84.84,0,0,1-.982.983L55.2,176.8a2.217,2.217,0,0,0-1.819.751l-4.137,5.3a.842.842,0,0,1-1.392,0l-4.136-5.3A2.217,2.217,0,0,0,41.9,176.8l-6.692.834a.839.839,0,0,1-.981-.983l.836-6.66a2.2,2.2,0,0,0-.753-1.815l-5.321-4.124a.835.835,0,0,1,0-1.386l5.321-4.124a2.2,2.2,0,0,0,.753-1.816l-.836-6.66a.839.839,0,0,1,.982-.983l6.691.834a2.217,2.217,0,0,0,1.818-.752Zm0,0" transform="translate(-22.142 -111.021)" fill="#fdd835"/>
      <path id="Trazado_104765" data-name="Trazado 104765" d="M137.343,237.708c0,1.889-1.24,3.421-2.77,3.421s-2.768-1.532-2.768-3.421,1.239-3.419,2.768-3.419S137.343,235.82,137.343,237.708Zm0,0" transform="translate(-101.978 -181.272)" fill="#fdd835"/>
      <path id="Trazado_104766" data-name="Trazado 104766" d="M82.657,201.436c0-1.889-1.24-3.42-2.769-3.42s-2.77,1.531-2.77,3.42,1.24,3.421,2.77,3.421S82.657,203.325,82.657,201.436Zm0,0" transform="translate(-59.667 -153.207)" fill="#fdd835"/>
      <path id="Trazado_104767" data-name="Trazado 104767" d="M383.624,34.593a15.507,15.507,0,1,1-15.507-15.534A15.521,15.521,0,0,1,383.624,34.593Zm0,0" transform="translate(-272.818 -14.746)" fill="#ffc502"/>
      <path id="Trazado_104768" data-name="Trazado 104768" d="M394.6,50.125a10.972,10.972,0,1,0-10.972,10.992A10.983,10.983,0,0,0,394.6,50.125Zm0,0" transform="translate(-288.326 -30.278)" fill="#fdd835"/>
      <path id="Trazado_104769" data-name="Trazado 104769" d="M114.162,109.91h-7.509V100.6l3.573-34.04a1.7,1.7,0,1,0-3.376-.354l-3.423,32.608H85.622L80.55,50.488H108.5l-.842,8.023a1.7,1.7,0,1,0,3.376.354l1.452-13.831a3.083,3.083,0,0,0-3.092-3.436h-22.2V35.041a17.235,17.235,0,1,0-8.941-17.5h-2.29V13.113H76.3a2.831,2.831,0,0,0,2.829-2.829V2.829A2.831,2.831,0,0,0,76.3,0H57.077a2.832,2.832,0,0,0-2.829,2.829v7.456a2.832,2.832,0,0,0,2.829,2.829h.342v4.432H53.526A7.354,7.354,0,0,0,46.188,24.9V42.67a7.338,7.338,0,0,0,4.5,6.78.993.993,0,0,1,.607.919V59.1a1,1,0,0,1-.639.932,7.393,7.393,0,0,0-4.733,6.874v8.971H23.534a1.7,1.7,0,1,0,0,3.394H59.671v7H8.967v-7h6.421a1.7,1.7,0,0,0,0-3.394H8.449a2.881,2.881,0,0,0-2.876,2.879v8.036a2.881,2.881,0,0,0,2.876,2.878H9.532V109.91H1.7a1.7,1.7,0,1,0,0,3.394H114.162a1.7,1.7,0,0,0,0-3.394Zm-5.085-64.916-.221,2.1H80.193l-.22-2.1ZM95.3,6.009A13.838,13.838,0,1,1,81.488,19.847,13.84,13.84,0,0,1,95.3,6.009ZM57.643,3.394h18.1V9.719h-18.1Zm14.925,9.719v4.432H60.813V13.113ZM49.313,66.907a3.93,3.93,0,0,1,.209-1.26H69.955a3.081,3.081,0,0,0,3.076-3.079V46.811a3.081,3.081,0,0,0-3.076-3.079H49.729a3.963,3.963,0,0,1-.147-1.062V39.387H71.733a1.7,1.7,0,1,0,0-3.394H49.582V24.9a3.956,3.956,0,0,1,3.945-3.958H78.133A17.2,17.2,0,0,0,83.8,32.651v3.342H79.88a1.7,1.7,0,0,0,0,3.394H83.8V41.6H79.656a3.083,3.083,0,0,0-3.091,3.436l2.707,25.786H49.313Zm3.943-19.78h16.38V62.253H53.344A4.41,4.41,0,0,0,54.687,59.1V50.369a4.385,4.385,0,0,0-1.43-3.242Zm2.455,55.456H40.9v-7H55.711Zm0-10.4H40.384a2.88,2.88,0,0,0-2.876,2.879V103.1a2.881,2.881,0,0,0,2.876,2.879H55.711v3.932H12.926V89.671H55.711ZM82.4,109.91H59.105V89.671h1.084a2.855,2.855,0,0,0,1.476-.413v15.327a1.7,1.7,0,0,0,3.394,0V83.3a1.7,1.7,0,0,0-1.7-1.7,1.726,1.726,0,0,0-.3.027V78.757a2.881,2.881,0,0,0-2.876-2.879H49.313V74.215H79.627L82.4,100.6Zm20.863,0H85.791v-7.7h17.468Zm0,0"/>
      <path id="Trazado_104770" data-name="Trazado 104770" d="M333.025,360.617a1.7,1.7,0,0,0-1.7,1.7V383.6a1.7,1.7,0,1,0,3.394,0V362.314A1.7,1.7,0,0,0,333.025,360.617Zm0,0" transform="translate(-256.352 -279.014)"/>
      <path id="Trazado_104771" data-name="Trazado 104771" d="M303.615,360.617a1.7,1.7,0,0,0-1.7,1.7V383.6a1.7,1.7,0,1,0,3.394,0V362.314A1.7,1.7,0,0,0,303.615,360.617Zm0,0" transform="translate(-233.598 -279.014)"/>
      <path id="Trazado_104772" data-name="Trazado 104772" d="M390.184,279.231V296.2a2.831,2.831,0,0,0,2.829,2.829h6.806a2.831,2.831,0,0,0,2.829-2.829V279.231a2.831,2.831,0,0,0-2.829-2.829h-6.806a2.831,2.831,0,0,0-2.829,2.829Zm3.394.566h5.675v15.843h-5.675Zm0,0" transform="translate(-301.89 -213.856)"/>
      <path id="Trazado_104773" data-name="Trazado 104773" d="M405.431,252.363a1.7,1.7,0,0,0,0-3.394h-5.363a1.7,1.7,0,1,0,0,3.394Zm0,0" transform="translate(-308.224 -192.631)"/>
      <path id="Trazado_104774" data-name="Trazado 104774" d="M69.5,421.218h2.122a1.7,1.7,0,1,0,0-3.394H69.5a1.7,1.7,0,1,0,0,3.394Zm0,0" transform="translate(-52.461 -323.276)"/>
      <path id="Trazado_104775" data-name="Trazado 104775" d="M69.5,444.2H81.213a1.7,1.7,0,0,0,0-3.394H69.5a1.7,1.7,0,1,0,0,3.394Zm0,0" transform="translate(-52.461 -341.053)"/>
      <path id="Trazado_104776" data-name="Trazado 104776" d="M98.677,421.218h5.108a1.7,1.7,0,1,0,0-3.394H98.677a1.7,1.7,0,1,0,0,3.394Zm0,0" transform="translate(-75.034 -323.276)"/>
      <path id="Trazado_104777" data-name="Trazado 104777" d="M22.147,159.583l5.3,4.11a.7.7,0,0,1,.123.3l-.834,6.639a2.532,2.532,0,0,0,2.875,2.878l6.67-.831a.7.7,0,0,1,.3.126l4.124,5.284a2.536,2.536,0,0,0,4.068,0l4.124-5.284a.7.7,0,0,1,.3-.126l6.671.832a2.533,2.533,0,0,0,2.875-2.878l-.833-6.64a.689.689,0,0,1,.123-.3l5.3-4.11a2.53,2.53,0,0,0,0-4.07l-5.3-4.11a.688.688,0,0,1-.123-.3l.833-6.639a2.533,2.533,0,0,0-2.875-2.878l-6.67.831a.7.7,0,0,1-.3-.126l-4.124-5.285a2.536,2.536,0,0,0-4.068,0l-4.124,5.285a.714.714,0,0,1-.3.126l-6.671-.832a2.534,2.534,0,0,0-2.875,2.878l.834,6.64a.689.689,0,0,1-.123.3l-5.3,4.111a2.53,2.53,0,0,0,0,4.07Zm7.4-5.51a3.906,3.906,0,0,0,1.4-3.369l-.705-5.618,5.648.7a3.168,3.168,0,0,0,.392.024,3.943,3.943,0,0,0,2.975-1.416l3.494-4.479,3.5,4.479a3.943,3.943,0,0,0,2.974,1.416,3.168,3.168,0,0,0,.392-.024l5.648-.7-.705,5.617a3.908,3.908,0,0,0,1.4,3.369l4.484,3.475-4.484,3.475a3.906,3.906,0,0,0-1.4,3.369l.705,5.618-5.648-.7a3.168,3.168,0,0,0-.392-.024,3.943,3.943,0,0,0-2.974,1.416l-3.5,4.478L39.255,170.7a3.944,3.944,0,0,0-2.975-1.416,3.164,3.164,0,0,0-.391.024l-5.649.7.705-5.617a3.9,3.9,0,0,0-1.4-3.369l-4.484-3.475Zm0,0" transform="translate(-16.341 -105.216)"/>
      <path id="Trazado_104778" data-name="Trazado 104778" d="M124.3,231.9c0,2.822,2,5.118,4.466,5.118s4.467-2.3,4.467-5.118-2-5.116-4.467-5.116S124.3,229.084,124.3,231.9Zm4.466-1.722c.507,0,1.073.736,1.073,1.722s-.566,1.724-1.073,1.724-1.071-.737-1.071-1.724S128.265,230.183,128.771,230.183Zm0,0" transform="translate(-96.176 -175.469)"/>
      <path id="Trazado_104779" data-name="Trazado 104779" d="M74.085,200.751c2.463,0,4.467-2.3,4.467-5.117s-2-5.118-4.467-5.118-4.467,2.3-4.467,5.118S71.622,200.751,74.085,200.751Zm0-6.841c.506,0,1.072.737,1.072,1.723s-.566,1.724-1.072,1.724-1.073-.737-1.073-1.724S73.578,193.91,74.085,193.91Zm0,0" transform="translate(-53.863 -147.404)"/>
      <path id="Trazado_104780" data-name="Trazado 104780" d="M95.64,209.664a1.7,1.7,0,0,0,2.261-.8l6.808-14.331a1.7,1.7,0,1,0-3.066-1.456L94.835,207.4A1.7,1.7,0,0,0,95.64,209.664Zm0,0" transform="translate(-73.248 -148.632)"/>
      <path id="Trazado_104781" data-name="Trazado 104781" d="M377.822,57.01a12.689,12.689,0,1,0-12.669-12.689A12.694,12.694,0,0,0,377.822,57.01Zm0-21.983a9.294,9.294,0,1,1-9.275,9.295A9.3,9.3,0,0,1,377.822,35.027Zm0,0" transform="translate(-282.523 -24.475)"/>
      <path id="Trazado_104782" data-name="Trazado 104782" d="M400.279,60.049h3.314a.569.569,0,0,1,0,1.139h-5.018a1.7,1.7,0,0,0,0,3.394h1.664v.053a1.7,1.7,0,1,0,3.394,0v-.056a3.962,3.962,0,0,0-.041-7.924h-3.315a.569.569,0,0,1,0-1.138h4.238a1.7,1.7,0,1,0,0-3.394h-.883v-.512a1.7,1.7,0,1,0-3.394,0v.514a3.962,3.962,0,0,0,.04,7.924Zm0,0" transform="translate(-306.638 -38.619)"/>
    </g>
  </g>
</svg>
