<svg id="Grupo_120696" data-name="Grupo 120696" xmlns="http://www.w3.org/2000/svg" xmlns:xlink="http://www.w3.org/1999/xlink" width="58.917" height="58.97" viewBox="0 0 58.917 58.97">
  <defs>
    <clipPath id="clip-path">
      <rect id="Rectángulo_37609" data-name="Rectángulo 37609" width="58.917" height="58.97" fill="#ffa726"/>
    </clipPath>
  </defs>
  <g id="Grupo_120672" data-name="Grupo 120672" clip-path="url(#clip-path)">
    <path id="Trazado_182186" data-name="Trazado 182186" d="M49.017,0h8.4a2,2,0,0,1,1.5,2.268c0,2.36,0,4.721,0,7.081a1.891,1.891,0,0,1-2,2.029c-.805.01-1.611.017-2.416-.005-.329-.009-.414.095-.413.418q.015,6.966,0,13.932a.44.44,0,0,0,.343.484,3.433,3.433,0,0,1-.028,6.446.4.4,0,0,0-.315.445q.01,7.052,0,14.1c0,.3.087.392.387.385.843-.018,1.687-.021,2.531,0a1.868,1.868,0,0,1,1.911,1.941q.015,3.742,0,7.484a1.865,1.865,0,0,1-1.958,1.95c-.652.008-1.3-.009-1.956,0a.921.921,0,0,1-1.06-.818c.128-.69.374-.9,1.064-.912.455-.005.91,0,1.365,0,.843,0,.843,0,.811-.865a.444.444,0,0,0-.009-.056c.006-2.206.007-4.413.023-6.619,0-.31-.12-.4-.408-.394-1.936.015-3.872.018-5.808.025-.439-.007-.879-.006-1.318-.025-.3-.013-.4.123-.4.412q.01,3.562,0,7.124c0,.293.094.417.4.4.4-.019.8-.007,1.205,0,.763,0,.971.17,1.152.909a.969.969,0,0,1-1.125.822c-.42-.022-.843,0-1.265,0A1.9,1.9,0,0,1,47.541,56.9c-.007-1.016-.012-2.033.005-3.049.005-.3-.045-.43-.4-.429q-7.042.018-14.084,0a.4.4,0,0,0-.445.311,3.429,3.429,0,0,1-6.436.018.435.435,0,0,0-.492-.327q-6.956.008-13.912,0c-.319,0-.422.077-.416.408q.032,1.582,0,3.164a1.88,1.88,0,0,1-1.95,1.963c-2.491.01-4.982,0-7.473,0a2.068,2.068,0,0,1-1.319-.477C.347,58.269.282,57.9,0,57.695V48.942a2.3,2.3,0,0,1,2.511-1.371c.629.05,1.265-.007,1.9.016.316.011.425-.067.424-.406q-.017-7.022,0-14.043a.438.438,0,0,0-.328-.495,3.426,3.426,0,0,1,0-6.442.435.435,0,0,0,.329-.493c-.011-.959,0-1.918,0-2.878,0-3.626-.011-7.252.013-10.877,0-.494-.133-.619-.6-.584-.572.043-1.153-.029-1.724.018A2.3,2.3,0,0,1,0,10.018V1.266A2.74,2.74,0,0,1,1.5,0H4.142a1.229,1.229,0,0,1,.593.9c-.159.786-.748.864-1.393.85-.363-.007-.728.013-1.088-.027-.442-.049-.542.125-.539.547.02,2.277.024,4.554,0,6.831-.005.475.151.574.589.57,2.16-.02,4.321-.009,6.481-.009.9,0,.9,0,.84-.912.008-2.215.012-4.43.027-6.645,0-.314-.138-.387-.418-.379-.5.015-.993-.009-1.488.008A.952.952,0,0,1,6.64.895,1.1,1.1,0,0,1,7.249,0H9.9a2.122,2.122,0,0,1,1.484,2.346c-.038.688.009,1.381-.014,2.07-.011.324.083.419.413.418q6.955-.016,13.91,0a.439.439,0,0,0,.492-.331,3.424,3.424,0,0,1,6.435,0,.435.435,0,0,0,.494.329c.939-.011,1.878,0,2.816,0,3.7,0,7.4-.009,11.093.011.44,0,.554-.114.529-.54-.038-.65.021-1.305-.017-1.955A2.113,2.113,0,0,1,49.017,0m8.151,8.75c.006-2.2.007-4.4.024-6.6,0-.325-.1-.428-.425-.425-1.931.018-3.863.018-5.794.023-.4-.006-.805.011-1.2-.025-.416-.038-.516.133-.513.524q.023,3.449,0,6.9c0,.4.122.527.524.525q3.446-.024,6.891,0c.4,0,.576-.107.517-.516-.019-.132-.015-.267-.021-.4M3.344,49.327c-.363-.008-.728.007-1.088-.031-.446-.047-.542.141-.539.558q.028,3.42,0,6.841c0,.426.106.553.542.549,2.259-.022,4.519-.029,6.777,0,.53.007.692-.166.615-.653-.015-.094-.017-.19-.025-.285.008-2.2.012-4.4.026-6.6,0-.293-.1-.41-.4-.408-1.969.015-3.939.02-5.908.028M40.08,51.7c2.339,0,4.679-.007,7.018.008.345,0,.472-.069.451-.438-.033-.574-.019-1.151-.006-1.727a1.893,1.893,0,0,1,1.96-1.962c.767-.014,1.535-.027,2.3.007.431.019.574-.079.572-.549q-.03-6.879,0-13.759a.626.626,0,0,0-.457-.7,3.23,3.23,0,0,1-2.1-2.965,3.154,3.154,0,0,1,1.863-3.224,1,1,0,0,0,.689-1.191,3.918,3.918,0,0,1,0-.518c0-4.26-.007-8.521.011-12.781,0-.429-.1-.555-.531-.532-.765.039-1.533.02-2.3.009a1.9,1.9,0,0,1-2-1.983c-.013-.806-.015-1.612,0-2.418.007-.3-.047-.431-.4-.43q-7.018.018-14.035.005a.437.437,0,0,0-.5.317,3.428,3.428,0,0,1-6.437-.008.4.4,0,0,0-.447-.311q-6.989.01-13.978,0c-.3,0-.393.078-.385.382.02.806.015,1.612,0,2.418a1.906,1.906,0,0,1-2.012,2.03c-.786.01-1.573.016-2.358,0-.328-.009-.461.044-.46.426q.022,6.937,0,13.875a.476.476,0,0,0,.346.542A3.293,3.293,0,0,1,9.1,29.4a3.334,3.334,0,0,1-2.222,3.236.443.443,0,0,0-.337.489q.011,7.024,0,14.047c0,.317.074.428.407.418.824-.024,1.649-.021,2.473,0A1.889,1.889,0,0,1,11.369,49.5c.018.556.032,1.115-.006,1.669-.028.42.078.543.524.541q6.845-.029,13.69,0a.582.582,0,0,0,.651-.444,3.412,3.412,0,0,1,6.342.016.58.58,0,0,0,.664.426c2.282-.017,4.563-.009,6.845-.009M7.385,29.431a1.694,1.694,0,0,0-1.71-1.713,1.7,1.7,0,0,0-.017,3.41,1.7,1.7,0,0,0,1.727-1.7M29.412,54.266a1.706,1.706,0,1,0-1.717-1.706,1.693,1.693,0,0,0,1.717,1.706M29.378,7.388a1.694,1.694,0,0,0,1.725-1.7A1.7,1.7,0,0,0,27.7,5.65a1.692,1.692,0,0,0,1.683,1.739m22.149,22.05a1.7,1.7,0,0,0,1.734,1.689,1.7,1.7,0,0,0-.033-3.41,1.7,1.7,0,0,0-1.7,1.721" transform="translate(0 0.001)" fill="#ffa726"/>
    <path id="Trazado_182200" data-name="Trazado 182200" d="M97.193,226.612c.609.485.666.676.414,1.43-.536,1.6-1.059,3.2-1.62,4.783-.171.484,0,.543.421.539,1.4-.012,2.8-.017,4.2.024a.632.632,0,0,0,.724-.541c.382-1.283.775-2.563,1.169-3.843a1.313,1.313,0,0,1,1.5-1.115q5,0,10,0a1.3,1.3,0,0,1,1.467,1.089c.407,1.316.814,2.632,1.2,3.954a.518.518,0,0,0,.594.452c1.456-.021,2.913-.029,4.368,0,.53.011.49-.184.359-.565-.75-2.189-1.474-4.388-2.229-6.576a1,1,0,0,1,.449-1.368c.786-.015.953.1,1.208.851q1.176,3.478,2.342,6.96a1.707,1.707,0,0,1-1.723,2.411c-1.687.014-3.374.011-5.061,0a1.7,1.7,0,0,1-1.851-1.383c-.384-1.222-.77-2.444-1.128-3.674a.506.506,0,0,0-.588-.435q-4.428.024-8.856,0c-.36,0-.485.124-.58.446-.364,1.248-.751,2.489-1.143,3.729a1.684,1.684,0,0,1-1.789,1.316c-1.725.014-3.451.022-5.176,0a1.687,1.687,0,0,1-1.664-2.362c.578-1.762,1.174-3.519,1.767-5.276.244-.723.428-.844,1.223-.847" transform="translate(-79.589 -190.227)" fill="#ffa726"/>
    <path id="Trazado_182201" data-name="Trazado 182201" d="M132.53,93.985a.992.992,0,0,1-1.146-.8c-.45-1.4-.951-2.787-1.4-4.187a.594.594,0,0,0-.681-.5q-3.216.037-6.433,0a.668.668,0,0,0-.753.561c-2,5.984-4.014,11.962-6.008,17.948-.209.627-.5,1.067-1.221,1.048-.673-.518-.737-.718-.472-1.507q3.085-9.162,6.171-18.323a1.816,1.816,0,0,1,2-1.449q3.48-.005,6.961,0a1.818,1.818,0,0,1,1.979,1.4q.747,2.2,1.484,4.4c.243.726.154.973-.478,1.395" transform="translate(-96.66 -73.408)" fill="#ffa726"/>
    <path id="Trazado_182202" data-name="Trazado 182202" d="M231.423,153.893a37.78,37.78,0,0,1-2.435-3.4c-.216-.3-.35-.434-.689-.153a1.283,1.283,0,0,1-1.6.148,1.365,1.365,0,0,1-.584-1.557c.264-1.509.537-3.017.8-4.526a1.672,1.672,0,0,1,.694-1.015,5.205,5.205,0,0,1,2.487.21c.945.139,1.877.363,2.819.529a1.436,1.436,0,0,1,1.349,1.061,1.321,1.321,0,0,1-.733,1.538c-.343.191-.282.347-.093.614.687.968,1.356,1.949,2.021,2.932a1.357,1.357,0,0,1-.391,2.119c-.641.453-1.3.878-1.934,1.342a1.468,1.468,0,0,1-1.71.162m-3.471-5.494c1.217-.341,1.505-.231,2.228.818.4.583.793,1.173,1.21,1.745.3.411.495,1.124.922,1.151.409.026.84-.528,1.285-.783.331-.19.287-.354.1-.62-.622-.873-1.224-1.76-1.831-2.643-.728-1.058-.731-1.3,0-2.384-1.047-.2-2.073-.394-3.1-.6-.245-.049-.239.106-.266.258-.18,1.013-.362,2.026-.547,3.059" transform="translate(-191.245 -121.206)" fill="#ffa726"/>
    <path id="Trazado_182203" data-name="Trazado 182203" d="M167.116,148.318c-.938,0-1.877.009-2.816,0a1.346,1.346,0,0,1-1.381-1.888q1.43-4.692,2.882-9.377a1.362,1.362,0,0,1,2.668-.016q1.457,4.714,2.9,9.433a1.342,1.342,0,0,1-1.377,1.851h-2.873m.021-9.767-2.463,8.017H169.6l-2.462-8.017" transform="translate(-137.738 -115.008)" fill="#ffa726"/>
  </g>
</svg>
