<svg xmlns="http://www.w3.org/2000/svg" xmlns:xlink="http://www.w3.org/1999/xlink" width="139.13" height="140" viewBox="0 0 139.13 140">
  <defs>
    <clipPath id="clip-path">
      <rect id="Rectángulo_5870" data-name="Rectángulo 5870" width="139.13" height="140" transform="translate(0.294)" fill="#fff" stroke="#707070" stroke-width="1"/>
    </clipPath>
  </defs>
  <g id="Enmascarar_grupo_23" data-name="Enmascarar grupo 23" transform="translate(-0.294)" clip-path="url(#clip-path)">
    <g id="flat" transform="translate(0.038 0)">
      <path id="Trazado_104584" data-name="Trazado 104584" d="M59.107,45.6V65.459A2.407,2.407,0,0,1,56.7,67.866H23A2.407,2.407,0,0,1,20.6,65.459V38.983H12.774A6.619,6.619,0,0,0,6.155,45.6v90.259a4.212,4.212,0,0,0,4.212,4.212H69.336a4.212,4.212,0,0,0,4.212-4.212V38.983H65.726A6.619,6.619,0,0,0,59.107,45.6Z" transform="translate(-6.155 -0.472)" fill="#bce1ff"/>
      <path id="Trazado_104585" data-name="Trazado 104585" d="M18.466,38.983h3.61A6.017,6.017,0,0,1,28.093,45V67.866H20.872a2.407,2.407,0,0,1-2.407-2.407Z" transform="translate(-4.024 -0.472)" fill="#8ed2ff"/>
      <path id="Trazado_104586" data-name="Trazado 104586" d="M61.552,38.983h2.407V77.493H61.552Z" transform="translate(3.435 -0.472)" fill="#8ed2ff"/>
      <path id="Trazado_104587" data-name="Trazado 104587" d="M121.1,143.625H98.472a10.229,10.229,0,0,1-10-12.373l.942-3.4a57.128,57.128,0,0,0,.96-26.442l-.493-2.463a85.191,85.191,0,0,1-1.655-16.705V60.14a17.45,17.45,0,0,1,1.111-6.127l13.33-35.548h14.441l13.33,35.548a17.451,17.451,0,0,1,1.111,6.127V82.992a85.164,85.164,0,0,1-1.374,15.239l-.934,5.138a57.128,57.128,0,0,0,1.647,27.156l.177.572a10.229,10.229,0,0,1-9.968,12.528Z" transform="translate(8.052 -4.024)" fill="#8f563b"/>
      <path id="Trazado_104588" data-name="Trazado 104588" d="M88.224,51.293h43.324v31.29H88.224Z" transform="translate(8.052 1.659)" fill="#e13029"/>
      <path id="Trazado_104589" data-name="Trazado 104589" d="M98.483,6.155h19.255V20.6H98.483Z" transform="translate(9.828 -6.155)" fill="#e13029"/>
      <path id="Trazado_104590" data-name="Trazado 104590" d="M117.676,117.462a2.407,2.407,0,0,1-2.283-1.646l-.715-2.145a37.837,37.837,0,0,1,.764-25.986,2.407,2.407,0,1,1,4.47,1.788,33.017,33.017,0,0,0-.666,22.676l.715,2.145a2.409,2.409,0,0,1-2.284,3.169Z" transform="translate(12.297 7.697)" fill="#a86545"/>
      <path id="Trazado_104591" data-name="Trazado 104591" d="M114.163,46.2a2.407,2.407,0,0,1-2.236-1.514l-.963-2.407a2.407,2.407,0,1,1,4.47-1.788L116.4,42.9a2.407,2.407,0,0,1-2.234,3.3Z" transform="translate(11.959 -0.472)" fill="#a86545"/>
      <path id="Trazado_104592" data-name="Trazado 104592" d="M111.022,38.352a2.407,2.407,0,0,1-2.236-1.514l-1.925-4.813a2.407,2.407,0,1,1,4.47-1.788l1.926,4.814a2.407,2.407,0,0,1-2.234,3.3Z" transform="translate(11.249 -2.248)" fill="#a86545"/>
      <path id="Trazado_104593" data-name="Trazado 104593" d="M14.717,100.969a2.407,2.407,0,0,1-2.407-2.407V86.528a2.407,2.407,0,1,1,4.814,0V98.562A2.407,2.407,0,0,1,14.717,100.969Z" transform="translate(-5.09 7.342)" fill="#8ed2ff"/>
      <path id="Trazado_104594" data-name="Trazado 104594" d="M14.717,109.807A2.407,2.407,0,0,1,12.31,107.4v-2.407a2.407,2.407,0,0,1,4.814,0V107.4A2.407,2.407,0,0,1,14.717,109.807Z" transform="translate(-5.09 10.538)" fill="#8ed2ff"/>
      <path id="Trazado_104595" data-name="Trazado 104595" d="M88.028,45.138H73.586l-8.82,15.876a25.543,25.543,0,0,0-3.214,12.4,3.009,3.009,0,0,0,3.009,3.009H97.054a3.009,3.009,0,0,0,3.009-3.009,25.543,25.543,0,0,0-3.214-12.4Z" transform="translate(3.435 0.593)" fill="#bce1ff"/>
      <path id="Trazado_104596" data-name="Trazado 104596" d="M99.993,69.759a3.014,3.014,0,0,1-2.948,2.407H64.551A3.012,3.012,0,0,1,61.6,69.759Z" transform="translate(3.444 4.856)" fill="#bce1ff"/>
      <path id="Trazado_104597" data-name="Trazado 104597" d="M72.166,32.828H86.607a2.407,2.407,0,0,1,2.407,2.407V47.269H69.759V35.234A2.407,2.407,0,0,1,72.166,32.828Z" transform="translate(4.856 -1.538)" fill="#8ed2ff"/>
      <g id="Grupo_55190" data-name="Grupo 55190" transform="translate(64.987 77.021)">
        <rect id="Rectángulo_5872" data-name="Rectángulo 5872" width="38.511" height="14.441" rx="2.565" transform="translate(0 28.883)" fill="#bce1ff"/>
        <rect id="Rectángulo_5873" data-name="Rectángulo 5873" width="38.511" height="14.441" rx="2.565" transform="translate(0 14.441)" fill="#bce1ff"/>
        <rect id="Rectángulo_5874" data-name="Rectángulo 5874" width="38.511" height="14.441" rx="2.565" fill="#bce1ff"/>
        <path id="Trazado_104598" data-name="Trazado 104598" d="M94.045,128H67.569a6.017,6.017,0,0,1-6.017-6.017V111.75a3.009,3.009,0,0,1,3.009-3.009H97.054a3.009,3.009,0,0,1,3.009,3.009v10.229A6.017,6.017,0,0,1,94.045,128Z" transform="translate(-61.552 -65.417)" fill="#bce1ff"/>
      </g>
      <path id="Trazado_104599" data-name="Trazado 104599" d="M99.993,69.759a3.014,3.014,0,0,1-2.948,2.407H64.551A3.012,3.012,0,0,1,61.6,69.759Z" transform="translate(3.444 4.856)" fill="#8ed2ff"/>
      <path id="Trazado_104600" data-name="Trazado 104600" d="M99.942,82.069a3.014,3.014,0,0,1-2.948,2.407H64.5a3.012,3.012,0,0,1-2.948-2.407Z" transform="translate(3.435 6.987)" fill="#8ed2ff"/>
      <path id="Trazado_104601" data-name="Trazado 104601" d="M100.044,94.379A3.014,3.014,0,0,1,97.1,96.786H64.6a3.012,3.012,0,0,1-2.948-2.407Z" transform="translate(3.453 9.118)" fill="#8ed2ff"/>
      <path id="Trazado_104602" data-name="Trazado 104602" d="M100.044,106.69A3.014,3.014,0,0,1,97.1,109.1H64.6a3.012,3.012,0,0,1-2.948-2.407Z" transform="translate(3.453 11.249)" fill="#8ed2ff"/>
      <path id="Trazado_104603" data-name="Trazado 104603" d="M69.759,43.086H89.014v2.407H69.759Z" transform="translate(4.856 0.238)" fill="#85c4ee"/>
      <path id="Trazado_104604" data-name="Trazado 104604" d="M68.576,131.548H39.693L34.879,88.224H73.39Z" transform="translate(-1.183 8.052)" fill="#e4e4e2"/>
      <path id="Trazado_104605" data-name="Trazado 104605" d="M34.879,81.438l2.407-9.628h33.7l2.407,9.628Z" transform="translate(-1.183 5.211)" fill="#05b093"/>
      <circle id="Elipse_4142" data-name="Elipse 4142" cx="7.221" cy="7.221" r="7.221" transform="translate(45.731 108.311)" fill="#8f563b"/>
      <path id="Trazado_104606" data-name="Trazado 104606" d="M32.828,80.017H76.152v9.628H32.828Z" transform="translate(-1.538 6.631)" fill="#04957c"/>
    </g>
  </g>
</svg>
