<svg xmlns="http://www.w3.org/2000/svg" xmlns:xlink="http://www.w3.org/1999/xlink" width="140" height="140.875" viewBox="0 0 140 140.875">
  <defs>
    <clipPath id="clip-path">
      <rect id="Rectángulo_5878" data-name="Rectángulo 5878" width="140" height="140.875" transform="translate(0.294 0.014)" fill="#fff" stroke="#707070" stroke-width="1"/>
    </clipPath>
  </defs>
  <g id="Enmascarar_grupo_28" data-name="Enmascarar grupo 28" transform="translate(-0.294 -0.014)" clip-path="url(#clip-path)">
    <g id="impresion-3d" transform="translate(0.037 0.002)">
      <path id="Trazado_104674" data-name="Trazado 104674" d="M125.7,0H14.771a2.044,2.044,0,0,0-1.445.6L.6,13.325A2.044,2.044,0,0,0,0,14.771V138.429a2.044,2.044,0,0,0,2.044,2.044H22.079a2.044,2.044,0,0,0,2.044-2.044v-4.391a2.044,2.044,0,0,1,2.044-2.044h88.139a2.044,2.044,0,0,1,2.044,2.044v4.391a2.044,2.044,0,0,0,2.044,2.044h20.035a2.044,2.044,0,0,0,2.044-2.044V14.771a2.044,2.044,0,0,0-.6-1.445L127.148.6A2.044,2.044,0,0,0,125.7,0Z" transform="translate(0 0)" fill="#365e7d"/>
      <g id="Grupo_55197" data-name="Grupo 55197" transform="translate(120.475 0)">
        <path id="Trazado_104675" data-name="Trazado 104675" d="M107.857,0h-5.8l10.8,10.8a10.655,10.655,0,0,1,3.121,7.534V140.473h5.18a.894.894,0,0,0,.894-.894V14.2a.667.667,0,0,0-.195-.471L108.328.195A.667.667,0,0,0,107.857,0Z" transform="translate(-102.059)" fill="#2b4d66"/>
      </g>
      <path id="Trazado_104676" data-name="Trazado 104676" d="M120.458,114.492a1.8,1.8,0,0,1-1.274.528H17.111a1.8,1.8,0,0,1-1.274-.528l-3.731-3.731a1.8,1.8,0,0,1-.528-1.274V32.275A1.8,1.8,0,0,1,12.106,31l3.731-3.731a1.8,1.8,0,0,1,1.274-.528H119.184a1.8,1.8,0,0,1,1.274.528L124.189,31a1.8,1.8,0,0,1,.528,1.274v77.212a1.8,1.8,0,0,1-.528,1.274Z" transform="translate(2.089 4.825)" fill="#b1e4f9"/>
      <path id="Trazado_104677" data-name="Trazado 104677" d="M104.863,27.269a1.8,1.8,0,0,0-1.274-.528H98L102.262,31a1.8,1.8,0,0,1,.528,1.274v77.212a1.8,1.8,0,0,1-.528,1.274L98,115.02h5.585a1.8,1.8,0,0,0,1.274-.528l3.731-3.731a1.8,1.8,0,0,0,.528-1.274V32.275A1.8,1.8,0,0,0,108.594,31l-3.731-3.731Z" transform="translate(17.684 4.825)" fill="#90d8f9"/>
      <path id="Trazado_104678" data-name="Trazado 104678" d="M64.549,19.89a2.742,2.742,0,0,1-2.742,2.742H26.033a2.742,2.742,0,0,1-2.742-2.742V9.111a2.742,2.742,0,0,1,2.742-2.742H61.807a2.742,2.742,0,0,1,2.742,2.742Z" transform="translate(4.203 1.149)" fill="#b1e4f9"/>
      <path id="Trazado_104679" data-name="Trazado 104679" d="M56.73,6.369H51.424a2.742,2.742,0,0,1,2.742,2.742V19.89a2.742,2.742,0,0,1-2.742,2.742H56.73a2.742,2.742,0,0,0,2.742-2.742V9.111A2.742,2.742,0,0,0,56.73,6.369Z" transform="translate(9.279 1.149)" fill="#90d8f9"/>
      <path id="Trazado_104680" data-name="Trazado 104680" d="M24.606,75.551a2.12,2.12,0,0,0-2.12,2.12v28.542h4.24V77.67a2.12,2.12,0,0,0-2.12-2.12Z" transform="translate(4.058 13.633)" fill="#2b4d66"/>
      <path id="Trazado_104681" data-name="Trazado 104681" d="M95.042,75.551a2.12,2.12,0,0,0-2.12,2.12v28.542h4.24V77.67a2.12,2.12,0,0,0-2.12-2.12Z" transform="translate(16.767 13.633)" fill="#2b4d66"/>
      <circle id="Elipse_4143" data-name="Elipse 4143" cx="8.693" cy="8.693" r="8.693" transform="translate(96.586 7.518)" fill="#e490d0"/>
      <path id="Trazado_104682" data-name="Trazado 104682" d="M89.582,6.369a8.686,8.686,0,0,0-2.59.393,8.7,8.7,0,0,1,0,16.6,8.694,8.694,0,1,0,2.59-16.993Z" transform="translate(15.697 1.149)" fill="#df73c1"/>
      <g id="Grupo_55200" data-name="Grupo 55200" transform="translate(77.303 10.777)">
        <g id="Grupo_55198" data-name="Grupo 55198">
          <path id="Trazado_104683" data-name="Trazado 104683" d="M73.234,13.369H67.606a2.12,2.12,0,0,1,0-4.239h5.628a2.12,2.12,0,0,1,0,4.239Z" transform="translate(-65.486 -9.13)" fill="#b1e4f9"/>
        </g>
        <g id="Grupo_55199" data-name="Grupo 55199" transform="translate(0 6.629)">
          <path id="Trazado_104684" data-name="Trazado 104684" d="M73.234,18.985H67.606a2.12,2.12,0,0,1,0-4.239h5.628a2.12,2.12,0,0,1,0,4.239Z" transform="translate(-65.486 -14.745)" fill="#b1e4f9"/>
        </g>
      </g>
      <g id="Grupo_55201" data-name="Grupo 55201" transform="translate(25.542 51.673)">
        <path id="Trazado_104685" data-name="Trazado 104685" d="M45.158,64.748a12.34,12.34,0,0,1-7.5-2.827c-1.607-1.226-3.077-.8-5.536.057-2.5.873-6.287,2.192-9.124-1.79A6.68,6.68,0,0,1,21.905,54.3c1.693-5.869,11.177-9.923,12.252-10.366a2.12,2.12,0,0,1,1.615,3.92c-3.336,1.379-8.945,4.667-9.795,7.623a2.454,2.454,0,0,0,.473,2.252c.861,1.21,1.421,1.241,4.274.246,2.533-.884,6-2.094,9.5.575a7.686,7.686,0,0,0,5.861,1.885,8.689,8.689,0,0,0,5.038-3.28,2.12,2.12,0,0,1,3.49,2.406,12.943,12.943,0,0,1-7.862,5.06,10.1,10.1,0,0,1-1.6.127Z" transform="translate(-21.638 -43.774)" fill="#f6f1f1"/>
      </g>
      <g id="Grupo_55204" data-name="Grupo 55204" transform="translate(33.876 13.53)">
        <g id="Grupo_55202" data-name="Grupo 55202">
          <path id="Trazado_104686" data-name="Trazado 104686" d="M33,15.7H30.817a2.12,2.12,0,1,1,0-4.239H33A2.12,2.12,0,0,1,33,15.7Z" transform="translate(-28.697 -11.462)" fill="#2b4d66"/>
        </g>
        <g id="Grupo_55203" data-name="Grupo 55203" transform="translate(8.639)">
          <path id="Trazado_104687" data-name="Trazado 104687" d="M53.75,15.7H38.136a2.12,2.12,0,0,1,0-4.239H53.75a2.12,2.12,0,1,1,0,4.239Z" transform="translate(-36.016 -11.462)" fill="#2b4d66"/>
        </g>
      </g>
      <path id="Trazado_104688" data-name="Trazado 104688" d="M89.1,102.781H37.749V97.256a2.69,2.69,0,0,1,2.69-2.69H86.411a2.69,2.69,0,0,1,2.69,2.69v5.525Z" transform="translate(6.812 17.064)" fill="#7398d3"/>
      <path id="Trazado_104689" data-name="Trazado 104689" d="M82.424,97.256a2.69,2.69,0,0,0-2.69-2.69H74.748a2.69,2.69,0,0,1,2.69,2.69v5.525h4.986Z" transform="translate(13.488 17.064)" fill="#5986cb"/>
      <path id="Trazado_104690" data-name="Trazado 104690" d="M47.453,97.239V88.6a.709.709,0,0,1,.241-.533l9.253-8.135a.71.71,0,0,1,.627-.159l14.3,3.292a.71.71,0,0,1,.421.283l3.471,4.933a.71.71,0,0,1,.129.408v8.549H47.453Z" transform="translate(8.563 14.392)" fill="#707dd3"/>
      <path id="Trazado_104691" data-name="Trazado 104691" d="M71.389,83.349a.709.709,0,0,0-.421-.283l-14.3-3.292a.708.708,0,0,0-.627.159L52.472,83.07l13.49,3.105a.71.71,0,0,1,.421.283l3.471,4.933a.71.71,0,0,1,.129.408v5.44h5.006V88.69a.708.708,0,0,0-.129-.408Z" transform="translate(9.468 14.392)" fill="#5766cb"/>
      <path id="Trazado_104692" data-name="Trazado 104692" d="M58.68,60.385a.709.709,0,0,1-.674.49H48.343a.709.709,0,0,1-.674-.49L45.153,52.64H61.2Z" transform="translate(8.148 9.499)" fill="#2b4d66"/>
      <g id="Grupo_55205" data-name="Grupo 55205" transform="translate(59.202 67.123)">
        <path id="Trazado_104693" data-name="Trazado 104693" d="M52.272,70.7a2.12,2.12,0,0,1-2.12-2.12v-9.6a2.12,2.12,0,1,1,4.239,0v9.6A2.12,2.12,0,0,1,52.272,70.7Z" transform="translate(-50.152 -56.863)" fill="#707dd3"/>
      </g>
      <g id="Grupo_55206" data-name="Grupo 55206" transform="translate(13.667 31.567)">
        <path id="Trazado_104694" data-name="Trazado 104694" d="M48.86,43.774H11.578v4.24H48.859a2.12,2.12,0,0,0,0-4.24Z" transform="translate(-11.578 -23.668)" fill="#2b4d66"/>
        <path id="Trazado_104695" data-name="Trazado 104695" d="M116.171,43.774H61.06a2.12,2.12,0,0,0,0,4.239h55.111Z" transform="translate(-3.031 -23.668)" fill="#2b4d66"/>
        <path id="Trazado_104696" data-name="Trazado 104696" d="M50.152,26.742V43.448a2.12,2.12,0,1,0,4.239,0V26.742Z" transform="translate(-4.617 -26.742)" fill="#2b4d66"/>
      </g>
      <g id="Grupo_55207" data-name="Grupo 55207" transform="translate(48.122 45.447)">
        <path id="Trazado_104697" data-name="Trazado 104697" d="M67.165,54.483a.709.709,0,0,1-.709.709H41.475a.709.709,0,0,1-.709-.709V39.209a.709.709,0,0,1,.709-.709H66.456a.709.709,0,0,1,.709.709Z" transform="translate(-40.766 -38.5)" fill="#365e7d"/>
      </g>
      <g id="Grupo_55208" data-name="Grupo 55208" transform="translate(69.671 45.447)">
        <path id="Trazado_104698" data-name="Trazado 104698" d="M59.021,38.5V55.192h4.141a.709.709,0,0,0,.709-.709V39.209a.709.709,0,0,0-.709-.709H59.021Z" transform="translate(-59.021 -38.5)" fill="#2b4d66"/>
      </g>
    </g>
  </g>
</svg>
