<svg xmlns="http://www.w3.org/2000/svg" xmlns:xlink="http://www.w3.org/1999/xlink" width="78" height="78" viewBox="0 0 78 78">
  <defs>
    <clipPath id="clip-path">
      <rect id="Rectángulo_5917" data-name="Rectángulo 5917" width="78" height="78" rx="5" transform="translate(201 15880)" fill="#fff"/>
    </clipPath>
  </defs>
  <g id="Enmascarar_grupo_35" data-name="Enmascarar grupo 35" transform="translate(-201 -15880)" clip-path="url(#clip-path)">
    <g id="producto" transform="translate(199.742 15878.742)">
      <path id="Trazado_105224" data-name="Trazado 105224" d="M37.742,57.871,32.71,47.806H30.194L25.161,57.871H8.806V78h62.9V57.871Z" fill="#ffac57"/>
      <path id="Trazado_105225" data-name="Trazado 105225" d="M35.226,47.806H71.71l5.032,10.065h-39L32.71,47.806Z" fill="#ffac57"/>
      <path id="Trazado_105226" data-name="Trazado 105226" d="M30.194,47.806,25.161,57.871H3.774L8.806,47.806Z" fill="#ffac57"/>
      <path id="Trazado_105227" data-name="Trazado 105227" d="M20.129,30.194a5.031,5.031,0,0,1,5.032,5.032v5.032h-15.1a5.032,5.032,0,1,1,0-10.065Z" fill="#26ccda"/>
      <circle id="Elipse_4169" data-name="Elipse 4169" cx="5.032" cy="5.032" r="5.032" transform="translate(57.871 32.71)" fill="#fdd835"/>
      <path id="Trazado_105228" data-name="Trazado 105228" d="M32.71,15.1v7.548a2.524,2.524,0,0,1-2.516,2.516H5.032a2.524,2.524,0,0,1-2.516-2.516V5.032A2.524,2.524,0,0,1,5.032,2.516H30.194A2.524,2.524,0,0,1,32.71,5.032Z" fill="#b1f9ff"/>
      <g id="Grupo_55449" data-name="Grupo 55449">
        <path id="Trazado_105229" data-name="Trazado 105229" d="M22.645,10.065V20.129H17.613V10.065Z" fill="#fdd835"/>
        <path id="Trazado_105230" data-name="Trazado 105230" d="M7.548,15.1h5.032v5.032H7.548Z" fill="#fdd835"/>
        <path id="Trazado_105231" data-name="Trazado 105231" d="M27.677,7.548V20.129H22.645V7.548Z" fill="#fdd835"/>
        <path id="Trazado_105232" data-name="Trazado 105232" d="M17.613,12.581v7.548H12.581V12.581Z" fill="#fdd835"/>
        <path id="Trazado_105233" data-name="Trazado 105233" d="M75.484,2.516A2.524,2.524,0,0,1,78,5.032a2.534,2.534,0,0,1-2.516,2.516H55.355a2.524,2.524,0,0,1-2.516-2.516,2.534,2.534,0,0,1,2.516-2.516Z" fill="#fdd835"/>
        <path id="Trazado_105234" data-name="Trazado 105234" d="M75.484,12.581A2.524,2.524,0,0,1,78,15.1a2.534,2.534,0,0,1-2.516,2.516H55.355A2.524,2.524,0,0,1,52.839,15.1a2.534,2.534,0,0,1,2.516-2.516H75.484Z" fill="#fdd835"/>
        <path id="Trazado_105235" data-name="Trazado 105235" d="M75.484,22.645A2.524,2.524,0,0,1,78,25.161a2.534,2.534,0,0,1-2.516,2.516H55.355a2.524,2.524,0,0,1-2.516-2.516,2.534,2.534,0,0,1,2.516-2.516H75.484Z" fill="#fdd835"/>
      </g>
      <path id="Trazado_105236" data-name="Trazado 105236" d="M56.613,17.613H74.226v5.032H56.613Z" fill="#f57c00"/>
      <path id="Trazado_105237" data-name="Trazado 105237" d="M56.613,7.548H74.226v5.032H56.613Z" fill="#f57c00"/>
      <path id="Trazado_105238" data-name="Trazado 105238" d="M65.419,71.71h2.516v2.516H65.419Z"/>
      <path id="Trazado_105239" data-name="Trazado 105239" d="M60.387,71.71H62.9v2.516H60.387Z"/>
      <path id="Trazado_105240" data-name="Trazado 105240" d="M55.355,71.71h2.516v2.516H55.355Z"/>
      <path id="Trazado_105241" data-name="Trazado 105241" d="M55.355,66.677H67.935v2.516H55.355Z"/>
      <path id="Trazado_105242" data-name="Trazado 105242" d="M79.258,15.1a3.779,3.779,0,0,0-3.774-3.774V8.806a3.774,3.774,0,0,0,0-7.548H55.355a3.774,3.774,0,0,0,0,7.548v2.516a3.769,3.769,0,0,0-3.543,2.516h-1.49a6.3,6.3,0,0,0-6.29,6.29V46.548H41.516V20.129a6.3,6.3,0,0,0-6.29-6.29H33.968V5.032a3.779,3.779,0,0,0-3.774-3.774H5.032A3.779,3.779,0,0,0,1.258,5.032V22.645a3.779,3.779,0,0,0,3.774,3.774H30.194a3.779,3.779,0,0,0,3.774-3.774v-6.29h1.258A3.779,3.779,0,0,1,39,20.129V46.548H36.484v-6.29a6.3,6.3,0,0,0-6.29-6.29h-3.9a6.3,6.3,0,0,0-6.163-5.032H10.065a6.29,6.29,0,1,0,0,12.581H26.419V36.484h3.774a3.779,3.779,0,0,1,3.774,3.774v6.29H8.029L1.739,59.129h5.81V79.258H72.968V59.129h5.81l-6.29-12.581H51.581V42.774A3.779,3.779,0,0,1,55.355,39H56.74a6.29,6.29,0,1,0,0-2.516H55.355a6.3,6.3,0,0,0-6.29,6.29v3.774H46.548V20.129a3.779,3.779,0,0,1,3.774-3.774h1.49a3.769,3.769,0,0,0,3.543,2.516v2.516a3.774,3.774,0,0,0,0,7.548H75.484a3.774,3.774,0,0,0,0-7.548V18.871A3.779,3.779,0,0,0,79.258,15.1ZM31.452,22.645A1.259,1.259,0,0,1,30.194,23.9H5.032a1.259,1.259,0,0,1-1.258-1.258V5.032A1.259,1.259,0,0,1,5.032,3.774H30.194a1.259,1.259,0,0,1,1.258,1.258ZM23.9,39H10.065a3.774,3.774,0,1,1,0-7.548H20.129A3.779,3.779,0,0,1,23.9,35.226Zm39-5.032a3.774,3.774,0,1,1-3.774,3.774A3.779,3.779,0,0,1,62.9,33.968ZM9.584,49.065H28.158l-3.774,7.548H5.81Zm.481,10.065H25.939l4.255-8.51V76.742H10.065ZM70.452,76.742H32.71V50.619l4.255,8.51H70.452Zm4.255-20.129H38.519l-3.774-7.548H70.932ZM54.1,5.032a1.259,1.259,0,0,1,1.258-1.258H75.484a1.258,1.258,0,0,1,0,2.516H55.355A1.259,1.259,0,0,1,54.1,5.032Zm3.774,3.774h15.1v2.516h-15.1ZM54.1,15.1a1.259,1.259,0,0,1,1.258-1.258H75.484a1.258,1.258,0,0,1,0,2.516H55.355A1.259,1.259,0,0,1,54.1,15.1ZM76.742,25.161a1.259,1.259,0,0,1-1.258,1.258H55.355a1.258,1.258,0,0,1,0-2.516H75.484A1.259,1.259,0,0,1,76.742,25.161Zm-3.774-3.774h-15.1V18.871h15.1Z"/>
      <path id="Trazado_105243" data-name="Trazado 105243" d="M21.387,8.806H16.355v2.516H11.323v2.516H6.29v7.548H28.935V6.29H21.387Zm-5.032,5.032v5.032H13.839V13.839ZM8.806,16.355h2.516v2.516H8.806Zm10.065,2.516V11.323h2.516v7.548ZM23.9,8.806h2.516V18.871H23.9Z"/>
      <path id="Trazado_105244" data-name="Trazado 105244" d="M8.806,33.968h2.516v2.516H8.806Z"/>
      <path id="Trazado_105245" data-name="Trazado 105245" d="M13.839,33.968h2.516v2.516H13.839Z"/>
      <path id="Trazado_105246" data-name="Trazado 105246" d="M18.871,33.968h2.516v2.516H18.871Z"/>
      <path id="Trazado_105247" data-name="Trazado 105247" d="M66.677,51.581h2.516V54.1H66.677Z"/>
      <path id="Trazado_105248" data-name="Trazado 105248" d="M61.645,51.581h2.516V54.1H61.645Z"/>
      <path id="Trazado_105249" data-name="Trazado 105249" d="M56.613,51.581h2.516V54.1H56.613Z"/>
      <path id="Trazado_105250" data-name="Trazado 105250" d="M12.581,61.645H15.1v2.516H12.581Z"/>
      <path id="Trazado_105251" data-name="Trazado 105251" d="M12.581,66.677H15.1v2.516H12.581Z"/>
      <path id="Trazado_105252" data-name="Trazado 105252" d="M12.581,71.71H15.1v2.516H12.581Z"/>
    </g>
  </g>
</svg>
