<svg id="Grupo_120374" data-name="Grupo 120374" xmlns="http://www.w3.org/2000/svg" xmlns:xlink="http://www.w3.org/1999/xlink" width="112.869" height="102.405" viewBox="0 0 112.869 102.405">
  <defs>
    <clipPath id="clip-path">
      <rect id="Rectángulo_37391" data-name="Rectángulo 37391" width="112.869" height="102.405" fill="none"/>
    </clipPath>
  </defs>
  <g id="Grupo_120375" data-name="Grupo 120375" clip-path="url(#clip-path)">
    <path id="Trazado_181487" data-name="Trazado 181487" d="M18.019,100.77a1.91,1.91,0,0,1-2.216,1.618c-3.947-.037-7.9-.075-11.842.014-1.7.039-3.074-.322-3.962-1.866V8.379A3.6,3.6,0,0,1,3.656,6.384c5.51.071,11.022.02,16.533.036a3.315,3.315,0,0,0,1.729-.488C24.947,4.218,28,2.537,31.082.93A8.691,8.691,0,0,1,35.123,0Q61.851,0,88.579,0a3.538,3.538,0,0,1,3.793,3.778c.011.838-.278,1.96.148,2.441.5.57,1.653.124,2.519.186.256.018.514,0,.771,0,1.439.009,1.832.313,2.24,1.732-.549,1.474-.74,1.571-2.925,1.58-.875,0-2-.284-2.557.149-.595.465-.174,1.646-.188,2.512-.04,2.545-1.413,3.939-3.962,3.94q-26.5,0-53,.009a8.674,8.674,0,0,1-3.757-.7C28.218,14,24.9,12.126,21.621,10.191a2.761,2.761,0,0,0-1.493-.478c-5.252.013-10.5.028-15.757-.013-.85-.006-1.085.193-1.084,1.07q.038,43.639,0,87.278c0,.79.142,1.052,1,1.04,3.819-.054,7.639-.028,11.459-.021,1.472,0,1.862.308,2.27,1.7M57.867,3.309h-18.5c-1.935,0-1.859,0-1.962,1.947-.059,1.121.337,1.294,1.352,1.291q18.716-.053,37.432-.023c2.049,0,2,0,2.067-2.083.029-.9-.19-1.162-1.127-1.156-6.422.045-12.844.024-19.267.024m0,9.708H76.376c1.862,0,1.871,0,1.859-1.809-.011-1.544.224-1.373-1.433-1.373q-18.617-.008-37.234,0c-2.138,0-2.077,0-2.157,2.1-.037.985.323,1.105,1.18,1.1,6.426-.035,12.852-.019,19.278-.019M89.074,8.269c0-1.4-.015-2.791.008-4.185.009-.525-.09-.809-.714-.8-2.055.031-4.112.027-6.167,0-.538-.007-.683.183-.68.7q.03,4.185,0,8.371c0,.53.172.692.693.686,2.019-.024,4.038-.03,6.057,0,.62.01.835-.177.815-.809-.042-1.32-.013-2.643-.013-3.965M34.117,8.241c0-1.356-.029-2.713.013-4.067.021-.666-.248-.729-.784-.571a16.248,16.248,0,0,0-2.658,1.29.691.691,0,0,0-.362.726c.01,1.686.006,3.372,0,5.057,0,.3-.008.589.318.75a15.92,15.92,0,0,0,2.763,1.322c.5.138.735.048.719-.55-.037-1.318-.011-2.638-.011-3.958m-7.348-1.1a7.739,7.739,0,0,0-1.887,1.106c.756.283,1.344,1.053,1.925.785.385-.177.139-1.138.093-1.75,0-.027-.046-.052-.131-.141" transform="translate(0 0)" fill="#030303"/>
    <path id="Trazado_181488" data-name="Trazado 181488" d="M29.606,129.477c-.407-1.4-.8-1.7-2.269-1.7-3.82-.007-7.64-.033-11.459.021-.859.012-1-.25-1-1.04q.031-43.639,0-87.278c0-.876.234-1.076,1.084-1.07,5.252.04,10.5.026,15.757.013a2.76,2.76,0,0,1,1.493.478c3.28,1.936,6.6,3.813,10.04,5.445a8.676,8.676,0,0,0,3.757.7q26.5-.018,53-.009c2.55,0,3.922-1.394,3.962-3.94.014-.866-.407-2.047.188-2.512.553-.433,1.682-.145,2.557-.149,2.185-.009,2.376-.106,2.925-1.58l4.286.021a1.95,1.95,0,0,0,2.279,1.569c1.246-.063,2.5.068,3.744-.039,1.059-.091,1.223.315,1.222,1.268q-.037,43.426.009,86.852c0,1.11-.321,1.272-1.331,1.272q-41.382-.044-82.765-.023c-.294,0-.588-.007-.882,0-1.3.038-1.727.4-2.024,1.7l-4.569.008m50.658-23.911c1.264-.768,1.451-1.335.9-2.729a14.177,14.177,0,1,0-14.815,19.478c6.334.962,12.912-3.193,15.036-9.5.453-1.346.232-1.894-1.044-2.581a12.675,12.675,0,0,0-.078-4.668m-43.7,16.843A14.294,14.294,0,1,0,22.424,108.1a14.285,14.285,0,0,0,14.144,14.31m62.85,0A14.293,14.293,0,1,0,85.277,108.1a14.291,14.291,0,0,0,14.141,14.313m-68.9-71.694c-1.834,0-3.668-.017-5.5,0a2.331,2.331,0,0,0-2.592,2.588q-.032,5.447,0,10.9a2.382,2.382,0,0,0,2.667,2.637q5.392.015,10.784,0a2.334,2.334,0,0,0,2.633-2.644c.014-2.678.02-5.356-.007-8.034a2.343,2.343,0,0,1,.66-1.86,1.61,1.61,0,0,0-.4-2.605,7.582,7.582,0,0,0-4.17-1.011,40.471,40.471,0,0,1-4.069.029m56.516,8.032c0-1.8.014-3.6,0-5.4s-.832-2.625-2.63-2.632q-5.394-.023-10.789,0a2.35,2.35,0,0,0-2.664,2.629q-.035,5.45,0,10.9a2.348,2.348,0,0,0,2.6,2.591q5.449.02,10.9,0a2.315,2.315,0,0,0,2.579-2.587c.021-1.835,0-3.67.005-5.505m0,21.032c0-1.835.017-3.67-.005-5.505a2.307,2.307,0,0,0-2.595-2.57q-5.449-.021-10.9,0a2.324,2.324,0,0,0-2.581,2.5q-.054,5.56,0,11.12a2.3,2.3,0,0,0,2.566,2.5q5.449.021,10.9,0c1.78-.005,2.6-.835,2.613-2.646s0-3.6,0-5.4m-56.6,8.044c1.871,0,3.743.016,5.615-.005a2.241,2.241,0,0,0,2.458-2.466q.03-5.56,0-11.121A2.289,2.289,0,0,0,35.981,71.7q-5.5-.026-11.01,0a2.308,2.308,0,0,0-2.538,2.428q-.054,5.615,0,11.231a2.293,2.293,0,0,0,2.5,2.453c1.835.02,3.67,0,5.5.005M53.567,54.427c-3.154,0-6.308-.006-9.462,0-1.278,0-2.045.638-2.037,1.641s.781,1.63,2.053,1.664c.55.015,1.1,0,1.65,0q8.362,0,16.723,0a7.874,7.874,0,0,0,.988-.028,1.687,1.687,0,0,0,1.6-1.654,1.623,1.623,0,0,0-1.721-1.617c-3.264-.025-6.528-.009-9.792-.012m48.556,0c-3.191,0-6.381.006-9.572,0a1.664,1.664,0,0,0-1.867,1.188c-.356,1.217.487,2.12,2.04,2.123q9.352.018,18.7,0c1.367,0,2.161-.623,2.18-1.647s-.771-1.655-2.133-1.658q-4.676-.01-9.352,0m.017,21q-4.732,0-9.465,0c-1.309,0-2.048.578-2.074,1.594-.027,1.045.767,1.709,2.1,1.711q9.41.01,18.82,0c1.278,0,2.056-.631,2.085-1.63.03-1.045-.754-1.673-2.115-1.674q-4.678-.006-9.355,0m-48.563,0q-4.733,0-9.466,0c-1.28,0-2.046.623-2.046,1.632s.777,1.669,2.041,1.671q9.466.014,18.931,0c1.262,0,2.043-.664,2.045-1.668s-.754-1.633-2.041-1.635q-4.733-.009-9.466,0M97.8,84.121c1.8,0,3.591.016,5.387-.005,1.246-.015,1.9-.6,1.9-1.638s-.669-1.652-1.9-1.659q-5.331-.032-10.663,0c-1.19.007-1.923.68-1.925,1.659s.72,1.625,1.924,1.639c1.759.021,3.518.005,5.277.005m-48.57,0c1.8,0,3.592.013,5.388,0,1.266-.013,1.927-.573,1.953-1.593.027-1.056-.676-1.7-1.968-1.707q-5.278-.027-10.556,0c-1.237.006-2.022.724-1.98,1.723.041.967.775,1.567,2,1.578,1.722.016,3.445,0,5.168,0m.04-21c1.8,0,3.594.01,5.391,0,1.208-.009,1.91-.625,1.913-1.635s-.71-1.66-1.9-1.665q-5.336-.024-10.671,0a1.721,1.721,0,0,0-1.938,1.656c0,.979.744,1.635,1.927,1.644,1.76.014,3.52,0,5.281,0m48.5,0c1.833,0,3.666.014,5.5-.005a1.653,1.653,0,1,0,.048-3.294q-5.444-.036-10.888,0A1.69,1.69,0,0,0,90.6,61.453c-.016.99.721,1.652,1.9,1.662,1.76.015,3.52,0,5.279,0" transform="translate(-11.587 -28.707)" fill="#fff3bf"/>
    <path id="Trazado_181489" data-name="Trazado 181489" d="M102.216,123.357c.3-1.3.724-1.658,2.024-1.7.294-.009.588,0,.882,0q41.382,0,82.765.023c1.01,0,1.333-.162,1.331-1.271q-.055-43.426-.009-86.852c0-.954-.163-1.36-1.222-1.268-1.24.107-2.5-.024-3.744.039a1.95,1.95,0,0,1-2.279-1.569c.4-1.458.783-1.75,2.327-1.753q2.424,0,4.849,0c2.324,0,3.357,1.03,3.357,3.346q0,28.93,0,57.86,0,15.65,0,31.3c0,2.507-.944,3.455-3.457,3.455q-42.26,0-84.521,0c-1.607,0-1.942-.243-2.3-1.611" transform="translate(-79.628 -22.595)" fill="#030303"/>
    <path id="Trazado_181490" data-name="Trazado 181490" d="M189.724,14.888c6.422,0,12.845.021,19.267-.024.937-.007,1.156.255,1.127,1.155C210.05,18.1,210.1,18.1,208.05,18.1q-18.716,0-37.432.023c-1.015,0-1.411-.17-1.352-1.291.1-1.943.027-1.947,1.962-1.947Z" transform="translate(-131.857 -11.58)" fill="#fdd835"/>
    <path id="Trazado_181491" data-name="Trazado 181491" d="M189.744,47.666c-6.426,0-12.852-.016-19.278.019-.857,0-1.217-.116-1.18-1.1.08-2.1.019-2.1,2.157-2.1q18.617,0,37.234,0c1.657,0,1.422-.171,1.433,1.373.013,1.809,0,1.809-1.859,1.809H189.744" transform="translate(-131.875 -34.65)" fill="#fdd835"/>
    <path id="Trazado_181492" data-name="Trazado 181492" d="M376.457,19.846c0,1.322-.029,2.644.013,3.965.02.631-.2.819-.815.809-2.018-.033-4.038-.027-6.057,0-.521.006-.7-.156-.693-.686q.031-4.185,0-8.371c0-.515.141-.7.679-.7,2.056.026,4.112.03,6.167,0,.624-.01.722.275.714.8-.023,1.395-.008,2.79-.008,4.185" transform="translate(-287.383 -11.577)" fill="#ffa726"/>
    <path id="Trazado_181493" data-name="Trazado 181493" d="M141.024,20.685c0,1.319-.025,2.639.011,3.958.017.6-.216.688-.719.55a15.92,15.92,0,0,1-2.763-1.322c-.326-.161-.319-.45-.318-.75,0-1.686.007-3.372,0-5.057a.691.691,0,0,1,.362-.726,16.247,16.247,0,0,1,2.658-1.29c.536-.159.8-.1.784.571-.042,1.355-.013,2.711-.013,4.067" transform="translate(-106.907 -12.444)" fill="#e4e7eb"/>
    <path id="Trazado_181494" data-name="Trazado 181494" d="M114.486,32.293c.085.089.129.114.131.141.046.612.292,1.572-.093,1.75-.581.268-1.169-.5-1.925-.785a7.739,7.739,0,0,1,1.887-1.106" transform="translate(-87.717 -25.157)" fill="#26ccda"/>
    <path id="Trazado_181495" data-name="Trazado 181495" d="M229.4,318.127a12.676,12.676,0,0,1,.078,4.668c-1.273-.118-1.789.642-2.184,1.718a10.749,10.749,0,0,1-13.368,6.657,11.032,11.032,0,0,1-7.239-13.328,10.789,10.789,0,0,1,20.464-1.355c.436,1.051.977,1.807,2.249,1.64m-12.243,8.3c1.174,0,2.348.021,3.521-.006a1.645,1.645,0,1,0,.048-3.282q-3.576-.063-7.153,0a1.645,1.645,0,1,0,.062,3.282c1.173.027,2.347.006,3.522.006m-3.691-8.055c0-1.905-.8-2.78-2.034-2.44a1.7,1.7,0,0,0-1.272,1.816c-.023,1.032-.109,2.114,1.1,2.608a1.6,1.6,0,0,0,2.163-1.233,4.716,4.716,0,0,0,.045-.751m7.375-.37c0,1.443.248,2.049,1,2.327a1.6,1.6,0,0,0,1.887-.458,3.42,3.42,0,0,0,.053-3.328,1.526,1.526,0,0,0-1.841-.569,1.74,1.74,0,0,0-1.1,2.028" transform="translate(-160.72 -241.268)" fill="#fdd835"/>
    <path id="Trazado_181496" data-name="Trazado 181496" d="M63.186,323.248a14.294,14.294,0,1,1,14.2-14.259,14.284,14.284,0,0,1-14.2,14.259m-.008-3.31A10.966,10.966,0,1,0,52.351,308.9a10.972,10.972,0,0,0,10.827,11.036" transform="translate(-38.205 -229.547)" fill="#030303"/>
    <path id="Trazado_181497" data-name="Trazado 181497" d="M347.607,323.252A14.294,14.294,0,1,1,361.807,309a14.284,14.284,0,0,1-14.2,14.257m.177-25.239a10.965,10.965,0,1,0,10.711,11.129,10.925,10.925,0,0,0-10.711-11.129" transform="translate(-259.776 -229.55)" fill="#030303"/>
    <path id="Trazado_181498" data-name="Trazado 181498" d="M217.784,306.361c-1.272.167-1.813-.589-2.249-1.64a10.789,10.789,0,0,0-20.464,1.355,11.032,11.032,0,0,0,7.239,13.328,10.749,10.749,0,0,0,13.367-6.657c.4-1.075.912-1.836,2.184-1.718,1.276.687,1.5,1.235,1.044,2.582-2.125,6.306-8.7,10.462-15.036,9.5a14.271,14.271,0,1,1,14.816-19.478c.55,1.395.362,1.961-.9,2.729" transform="translate(-149.107 -229.502)" fill="#030303"/>
    <path id="Trazado_181499" data-name="Trazado 181499" d="M57.1,99.389a40.471,40.471,0,0,0,4.069-.029,7.581,7.581,0,0,1,4.17,1.01,1.61,1.61,0,0,1,.4,2.605,2.343,2.343,0,0,0-.66,1.86c.027,2.678.021,5.356.007,8.034a2.334,2.334,0,0,1-2.633,2.644q-5.392.016-10.784,0A2.382,2.382,0,0,1,49,112.877q-.028-5.448,0-10.9A2.331,2.331,0,0,1,51.6,99.394c1.834-.021,3.668,0,5.5-.005m4.19,3.582-.175-.277c-2.716,0-5.432.011-8.148-.01-.546,0-.677.211-.674.716q.028,4.077,0,8.154c0,.557.218.67.717.667,2.717-.018,5.435-.011,8.153,0,.366,0,.638-.021.632-.51-.019-1.484-.007-2.967-.007-4.7-1.04,1.044-1.869,1.911-2.736,2.737a2.17,2.17,0,0,1-2.992.3,20.582,20.582,0,0,1-2.495-2.479,1.461,1.461,0,0,1,.187-2.169,1.515,1.515,0,0,1,2.186-.016,10.433,10.433,0,0,1,1.021,1c.28.311.48.336.8.019,1.162-1.158,2.354-2.287,3.534-3.426" transform="translate(-38.163 -77.382)" fill="#030303"/>
    <path id="Trazado_181500" data-name="Trazado 181500" d="M284.659,107.6c0,1.835.016,3.67-.005,5.505a2.315,2.315,0,0,1-2.579,2.587q-5.45.02-10.9,0a2.348,2.348,0,0,1-2.6-2.591q-.041-5.45,0-10.9a2.35,2.35,0,0,1,2.664-2.629q5.394-.022,10.789,0c1.8.008,2.612.831,2.63,2.633s0,3.6,0,5.4m-12.791.058c0,1.32.018,2.64-.009,3.959-.011.53.087.794.712.787q4.068-.046,8.137,0c.572.006.656-.24.653-.723-.015-2.713-.019-5.426,0-8.138,0-.537-.188-.682-.7-.678-2.676.019-5.352.028-8.027-.005-.661-.008-.8.25-.781.84.034,1.319.011,2.639.011,3.959" transform="translate(-209.209 -77.558)" fill="#030303"/>
    <path id="Trazado_181501" data-name="Trazado 181501" d="M284.647,202.606c0,1.8.013,3.6,0,5.4s-.833,2.641-2.613,2.646q-5.45.017-10.9,0a2.3,2.3,0,0,1-2.566-2.5q-.052-5.56,0-11.12a2.324,2.324,0,0,1,2.581-2.5q5.449-.023,10.9,0a2.307,2.307,0,0,1,2.6,2.57c.022,1.835,0,3.67.005,5.505m-3.3.082c0-1.357-.03-2.715.013-4.07.02-.624-.175-.807-.8-.8q-3.959.047-7.919,0c-.638-.008-.8.2-.8.814q.045,3.96,0,7.92c-.007.628.19.813.812.806q3.959-.044,7.92,0c.65.008.8-.225.781-.823-.038-1.282-.012-2.566-.012-3.85" transform="translate(-209.197 -151.535)" fill="#030303"/>
    <path id="Trazado_181502" data-name="Trazado 181502" d="M56.993,210.647c-1.835,0-3.67.015-5.5,0a2.293,2.293,0,0,1-2.5-2.454q-.048-5.615,0-11.231a2.308,2.308,0,0,1,2.538-2.428q5.5-.026,11.009,0a2.289,2.289,0,0,1,2.527,2.526q.026,5.56,0,11.121a2.241,2.241,0,0,1-2.458,2.466c-1.871.021-3.743,0-5.615,0m-4.71-8.186c0,1.394.017,2.789-.009,4.182-.01.509.134.713.676.709q4.071-.031,8.144,0c.527,0,.689-.163.685-.687q-.032-4.072,0-8.145c0-.5-.11-.709-.664-.7-2.715.026-5.43.03-8.144,0-.638-.008-.707.276-.7.794.025,1.284.008,2.568.009,3.852" transform="translate(-38.145 -151.532)" fill="#030303"/>
    <path id="Trazado_181503" data-name="Trazado 181503" d="M149.434,116.385c3.264,0,6.528-.014,9.792.011a1.623,1.623,0,0,1,1.721,1.617,1.687,1.687,0,0,1-1.6,1.654,7.875,7.875,0,0,1-.988.028q-8.362,0-16.723,0c-.55,0-1.1.012-1.65,0-1.272-.034-2.045-.667-2.053-1.664s.759-1.638,2.037-1.641c3.154-.009,6.308,0,9.462,0" transform="translate(-107.454 -90.664)" fill="#030303"/>
    <path id="Trazado_181504" data-name="Trazado 181504" d="M369.092,116.376q4.676,0,9.352,0c1.363,0,2.153.628,2.133,1.658s-.813,1.646-2.18,1.647q-9.352.012-18.7,0c-1.553,0-2.4-.906-2.041-2.123a1.664,1.664,0,0,1,1.867-1.188c3.191.011,6.381,0,9.572,0" transform="translate(-278.555 -90.656)" fill="#030303"/>
    <path id="Trazado_181505" data-name="Trazado 181505" d="M369.1,211.428q4.678,0,9.355,0c1.36,0,2.145.63,2.115,1.674-.029,1-.807,1.628-2.085,1.63q-9.41.011-18.82,0c-1.337,0-2.131-.666-2.1-1.711.026-1.016.765-1.592,2.073-1.594q4.733-.007,9.465,0" transform="translate(-278.545 -164.706)" fill="#030303"/>
    <path id="Trazado_181506" data-name="Trazado 181506" d="M149.438,211.429q4.733,0,9.466,0c1.286,0,2.042.618,2.04,1.635s-.782,1.666-2.045,1.668q-9.466.013-18.931,0c-1.264,0-2.041-.664-2.041-1.671s.766-1.63,2.046-1.632q4.733-.008,9.466,0" transform="translate(-107.448 -164.706)" fill="#030303"/>
    <path id="Trazado_181507" data-name="Trazado 181507" d="M364.764,239.066c-1.759,0-3.518.015-5.277-.005-1.2-.014-1.926-.654-1.924-1.639s.735-1.652,1.925-1.659q5.331-.03,10.663,0c1.231.008,1.9.635,1.9,1.659s-.655,1.623-1.9,1.638c-1.8.021-3.591.006-5.387.006" transform="translate(-278.548 -183.651)" fill="#030303"/>
    <path id="Trazado_181508" data-name="Trazado 181508" d="M145.1,239.069c-1.723,0-3.445.012-5.168,0-1.221-.012-1.955-.611-2-1.578-.042-1,.743-1.716,1.98-1.723q5.278-.027,10.556,0c1.292.007,2,.651,1.968,1.707-.026,1.02-.687,1.58-1.953,1.593-1.8.018-3.592,0-5.388,0" transform="translate(-107.454 -183.654)" fill="#030303"/>
    <path id="Trazado_181509" data-name="Trazado 181509" d="M145.128,144.04c-1.76,0-3.52.01-5.281,0-1.183-.009-1.932-.665-1.927-1.644a1.722,1.722,0,0,1,1.938-1.656q5.336-.022,10.671,0c1.192.005,1.9.661,1.9,1.665s-.7,1.626-1.913,1.635c-1.8.013-3.594,0-5.391,0" transform="translate(-107.442 -109.628)" fill="#030303"/>
    <path id="Trazado_181510" data-name="Trazado 181510" d="M364.714,144.036c-1.76,0-3.52.011-5.279,0-1.182-.01-1.919-.672-1.9-1.662a1.69,1.69,0,0,1,1.842-1.635q5.444-.029,10.888,0a1.653,1.653,0,1,1-.048,3.294c-1.833.019-3.666.005-5.5.005" transform="translate(-278.523 -109.623)" fill="#030303"/>
    <path id="Trazado_181511" data-name="Trazado 181511" d="M236.693,373.643c-1.174,0-2.348.021-3.522-.006a1.644,1.644,0,1,1-.062-3.282q3.576-.064,7.153,0a1.645,1.645,0,1,1-.048,3.282c-1.173.027-2.348.006-3.522.006" transform="translate(-180.258 -288.488)" fill="#030303"/>
    <path id="Trazado_181512" data-name="Trazado 181512" d="M226.989,340.04a4.633,4.633,0,0,1-.045.751,1.6,1.6,0,0,1-2.162,1.233c-1.208-.493-1.121-1.576-1.1-2.608a1.7,1.7,0,0,1,1.272-1.816c1.229-.341,2.031.534,2.034,2.44" transform="translate(-174.245 -262.94)" fill="#030303"/>
    <path id="Trazado_181513" data-name="Trazado 181513" d="M272.021,339.681a1.74,1.74,0,0,1,1.1-2.028,1.526,1.526,0,0,1,1.841.569,3.42,3.42,0,0,1-.053,3.328,1.6,1.6,0,0,1-1.887.458c-.752-.278-1.005-.884-1-2.327" transform="translate(-211.902 -262.952)" fill="#030303"/>
    <path id="Trazado_181514" data-name="Trazado 181514" d="M74.841,331.733a10.966,10.966,0,1,1,10.9-10.966,10.987,10.987,0,0,1-10.9,10.966m.01-2.7c3,.019,5.72-2.456,5.655-5.154a1.653,1.653,0,0,0-3.288-.319c-.312,1.453-1.052,2.142-2.316,2.156a2.258,2.258,0,0,1-2.357-2.1,1.71,1.71,0,0,0-1.756-1.488,1.651,1.651,0,0,0-1.523,1.811,4.231,4.231,0,0,0,.124.976,5.612,5.612,0,0,0,5.461,4.12m6.992-10.72c.005-1.573-.531-2.368-1.616-2.392-1.195-.027-1.776.925-1.691,2.767.055,1.2.794,1.92,1.848,1.811.991-.1,1.455-.8,1.46-2.186m-13.9-.247c-.111,1.232.105,2.118,1.263,2.405a1.423,1.423,0,0,0,1.639-.607,3.283,3.283,0,0,0,.133-3.045,1.425,1.425,0,0,0-1.511-.879,1.545,1.545,0,0,0-1.515,1.336,3.611,3.611,0,0,0-.009.789" transform="translate(-49.867 -241.341)" fill="#26ccda"/>
    <path id="Trazado_181515" data-name="Trazado 181515" d="M359.432,309.8a10.966,10.966,0,1,1-11.009,10.837A10.928,10.928,0,0,1,359.432,309.8m-.175,11.6c-3,.015-5.632,2.415-5.6,5.11a1.655,1.655,0,0,0,3.286.364c.313-1.462,1.042-2.143,2.313-2.16a2.255,2.255,0,0,1,2.363,2.1,1.634,1.634,0,0,0,1.88,1.441,1.58,1.58,0,0,0,1.4-1.793,4.214,4.214,0,0,0-.135-.975,5.586,5.586,0,0,0-5.5-4.084m-6.934-3.1a2.093,2.093,0,0,0,.448,1.7,1.625,1.625,0,0,0,2.349.034,3.29,3.29,0,0,0,.037-3.583,1.656,1.656,0,0,0-2.356-.035,2.263,2.263,0,0,0-.478,1.88m13.889-.089c.03-1.675-.775-2.556-2-2.21a1.7,1.7,0,0,0-1.275,1.814c-.022,1.035-.105,2.112,1.1,2.608a1.62,1.62,0,0,0,2.17-1.23,5.8,5.8,0,0,0,.009-.982" transform="translate(-271.424 -241.341)" fill="#f57c00"/>
    <path id="Trazado_181516" data-name="Trazado 181516" d="M72.926,114.788c-1.18,1.14-2.372,2.268-3.534,3.426-.317.316-.518.292-.8-.019a10.433,10.433,0,0,0-1.021-1,1.515,1.515,0,0,0-2.186.016,1.461,1.461,0,0,0-.187,2.169,20.583,20.583,0,0,0,2.495,2.479,2.17,2.17,0,0,0,2.992-.3c.868-.826,1.7-1.693,2.736-2.737,0,1.738-.012,3.221.007,4.7.006.489-.266.511-.632.51-2.717-.006-5.435-.013-8.153,0-.5,0-.722-.11-.717-.667q.035-4.076,0-8.154c0-.5.128-.72.674-.716,2.716.021,5.432.01,8.148.01l.175.277" transform="translate(-49.801 -89.199)" fill="#f57c00"/>
    <path id="Trazado_181517" data-name="Trazado 181517" d="M283.506,119.279c0-1.32.024-2.64-.011-3.959-.015-.59.12-.849.781-.84,2.675.033,5.352.024,8.027.005.512,0,.7.142.7.678-.022,2.713-.018,5.426,0,8.138,0,.482-.081.728-.653.723q-4.069-.04-8.137,0c-.625.007-.723-.258-.712-.787.026-1.319.009-2.639.009-3.959" transform="translate(-220.847 -89.181)" fill="#26ccda"/>
    <path id="Trazado_181518" data-name="Trazado 181518" d="M292.99,214.311c0,1.283-.027,2.568.012,3.85.018.6-.13.831-.781.823q-3.959-.052-7.92,0c-.621.007-.819-.178-.812-.806q.046-3.96,0-7.92c-.007-.614.158-.822.8-.814q3.959.049,7.919,0c.623-.008.818.175.8.8-.044,1.355-.013,2.713-.013,4.07" transform="translate(-220.843 -163.158)" fill="#26ccda"/>
    <path id="Trazado_181519" data-name="Trazado 181519" d="M63.941,214.089c0-1.284.017-2.568-.008-3.852-.01-.517.059-.8.7-.794,2.714.032,5.429.028,8.144,0,.554-.005.667.2.664.7q-.03,4.072,0,8.145c0,.524-.158.692-.685.687q-4.071-.033-8.144,0c-.541,0-.686-.2-.676-.709.027-1.394.009-2.788.009-4.182" transform="translate(-49.804 -163.16)" fill="#26ccda"/>
    <path id="Trazado_181520" data-name="Trazado 181520" d="M93.367,372.477a5.613,5.613,0,0,1-5.461-4.12,4.228,4.228,0,0,1-.124-.975,1.651,1.651,0,0,1,1.523-1.811,1.709,1.709,0,0,1,1.756,1.488,2.258,2.258,0,0,0,2.358,2.1c1.264-.014,2-.7,2.316-2.155a1.653,1.653,0,0,1,3.288.319c.065,2.7-2.651,5.173-5.655,5.154" transform="translate(-68.384 -284.782)" fill="#030303"/>
    <path id="Trazado_181521" data-name="Trazado 181521" d="M133.01,339.9c0,1.39-.468,2.084-1.46,2.186-1.054.109-1.793-.616-1.848-1.811-.085-1.842.5-2.794,1.691-2.767,1.085.024,1.622.818,1.616,2.392" transform="translate(-101.034 -262.921)" fill="#030303"/>
    <path id="Trazado_181522" data-name="Trazado 181522" d="M81.717,339.7a3.611,3.611,0,0,1,.009-.789,1.545,1.545,0,0,1,1.515-1.336,1.425,1.425,0,0,1,1.511.879,3.283,3.283,0,0,1-.133,3.045,1.423,1.423,0,0,1-1.639.607c-1.158-.287-1.375-1.173-1.263-2.405" transform="translate(-63.639 -262.97)" fill="#030303"/>
    <path id="Trazado_181523" data-name="Trazado 181523" d="M377.712,362.3a5.585,5.585,0,0,1,5.5,4.084,4.2,4.2,0,0,1,.135.975,1.58,1.58,0,0,1-1.4,1.793,1.634,1.634,0,0,1-1.879-1.441,2.255,2.255,0,0,0-2.364-2.1c-1.271.017-2,.7-2.313,2.16a1.655,1.655,0,0,1-3.286-.364c-.028-2.7,2.6-5.095,5.6-5.11" transform="translate(-289.879 -282.238)" fill="#030303"/>
    <path id="Trazado_181524" data-name="Trazado 181524" d="M366.052,339.951a2.263,2.263,0,0,1,.478-1.88,1.656,1.656,0,0,1,2.356.035,3.289,3.289,0,0,1-.037,3.583,1.625,1.625,0,0,1-2.349-.034,2.093,2.093,0,0,1-.447-1.7" transform="translate(-285.152 -262.994)" fill="#030303"/>
    <path id="Trazado_181525" data-name="Trazado 181525" d="M417.353,339.8a5.8,5.8,0,0,1-.009.982,1.62,1.62,0,0,1-2.17,1.23c-1.2-.5-1.12-1.573-1.1-2.608a1.7,1.7,0,0,1,1.275-1.814c1.226-.346,2.031.535,2,2.21" transform="translate(-322.565 -262.93)" fill="#030303"/>
  </g>
</svg>
