<svg xmlns="http://www.w3.org/2000/svg" width="100" height="100" viewBox="0 0 100 100">
  <g id="adentro" transform="translate(-0.001)">
    <path id="Trazado_105193" data-name="Trazado 105193" d="M64,222.047l37.5,16.016L139,222.047V190.016L101.5,174,64,190.016Zm0,0" transform="translate(-51.499 -140.016)" fill="#ffac57"/>
    <path id="Trazado_105194" data-name="Trazado 105194" d="M293.409,256.013v32.021l-37.5,16.016-.022-.01V272.02L293.387,256Zm0,0" transform="translate(-205.908 -206.003)" fill="#ffac57"/>
    <path id="Trazado_105195" data-name="Trazado 105195" d="M139,190.016h0l-37.5,16.016L64,190.016h0L101.5,174Zm0,0" transform="translate(-51.499 -140.016)" fill="#9b5003"/>
    <path id="Trazado_105196" data-name="Trazado 105196" d="M293.5,256h0L256,272.016l10.547,10.612,37.5-16.8Zm0,0" transform="translate(-205.999 -206)" fill="#ffac57"/>
    <path id="Trazado_105197" data-name="Trazado 105197" d="M20.547,256h0l37.5,16.016L47.5,282.628,10,265.831Zm0,0" transform="translate(-8.046 -206)" fill="#ffac57"/>
    <path id="Trazado_105198" data-name="Trazado 105198" d="M293.5,146.3h0L256,130.279l10.547-10.611,37.5,16.8Zm0,0" transform="translate(-205.999 -96.295)" fill="#ffac57"/>
    <path id="Trazado_105199" data-name="Trazado 105199" d="M20.8,146.3h0l37.5-16.016L47.754,119.668l-37.5,16.8Zm0,0" transform="translate(-8.251 -96.295)" fill="#ffac57"/>
    <path id="Trazado_105200" data-name="Trazado 105200" d="M192.251,45.441V10H174.282V45.441h-8.7l17.684,17.684,17.685-17.684Zm0,0" transform="translate(-133.241 -8.047)" fill="#26ccda"/>
    <path id="Trazado_105201" data-name="Trazado 105201" d="M90.365,50l9.014-8.4a1.953,1.953,0,0,0-.535-3.211L60.963,21.438V1.953A1.953,1.953,0,0,0,59.009,0H41.041a1.953,1.953,0,0,0-1.953,1.953V21.438L1.205,38.387A1.953,1.953,0,0,0,.671,41.6l8.99,8.379L.622,58.4a1.954,1.954,0,0,0,.534,3.211l9.392,4.207V82.031a1.952,1.952,0,0,0,1.186,1.8l37.5,16.016a1.951,1.951,0,0,0,1.534,0l11.546-4.931a1.953,1.953,0,0,0-1.534-3.593l-8.826,3.77V70.752L59.162,78a1.955,1.955,0,0,0,2.184.406l24.2-10.841V80.742l-10.4,4.44a1.953,1.953,0,1,0,1.534,3.592l11.581-4.946a1.953,1.953,0,0,0,1.186-1.8V65.82l9.392-4.207a1.953,1.953,0,0,0,.533-3.211ZM48.644,56.459a1.953,1.953,0,0,0,2.763,0l13.84-13.84L82.529,50,50,63.892,17.5,50.01,34.8,42.619Zm45.917-15.71L87.1,47.7,68.224,39.642l.867-.867a1.953,1.953,0,0,0-1.381-3.334H60.963V25.717ZM42.994,37.394V3.906h6.262V22.168a1.953,1.953,0,1,0,3.906,0V3.906h3.894V37.394a1.954,1.954,0,0,0,1.953,1.953H63L50.025,52.316,37.056,39.347h3.985a1.953,1.953,0,0,0,1.953-1.953ZM39.088,25.717v9.724H32.341a1.953,1.953,0,0,0-1.382,3.334l.868.867L12.952,47.7,5.49,40.749ZM12.9,52.3,46.586,66.682l-7.565,7.612L5.439,59.251ZM14.454,67.57l24.2,10.841A1.955,1.955,0,0,0,40.839,78l7.209-7.253V95.089L14.454,80.742Zm72.287-4.815h0L60.981,74.294l-7.565-7.612L87.1,52.3l7.462,6.956Zm0,0"/>
    <path id="Trazado_105202" data-name="Trazado 105202" d="M343.894,451.109a1.956,1.956,0,1,0,1.38.573A1.965,1.965,0,0,0,343.894,451.109Zm0,0" transform="translate(-275.155 -363.002)"/>
    <path id="Trazado_105203" data-name="Trazado 105203" d="M254.144,147.406a1.954,1.954,0,1,0-1.381-.572A1.967,1.967,0,0,0,254.144,147.406Zm0,0" transform="translate(-202.934 -115.473)"/>
  </g>
</svg>
