<svg id="Grupo_120370" data-name="Grupo 120370" xmlns="http://www.w3.org/2000/svg" xmlns:xlink="http://www.w3.org/1999/xlink" width="99.996" height="100" viewBox="0 0 99.996 100">
  <defs>
    <clipPath id="clip-path">
      <rect id="Rectángulo_37389" data-name="Rectángulo 37389" width="99.996" height="100" fill="none"/>
    </clipPath>
  </defs>
  <g id="Grupo_120369" data-name="Grupo 120369" clip-path="url(#clip-path)">
    <path id="Trazado_181452" data-name="Trazado 181452" d="M48.4,4.051A18.514,18.514,0,0,1,55.437.528,17.739,17.739,0,0,1,77.209,15.316c.074.6.212.876.9.843,1.341-.064,2.688-.053,4.03,0a.987.987,0,0,0,1.067-.666c.844-1.749,1.737-3.475,2.593-5.219.173-.353.32-.6.794-.593,4.2.02,8.391.012,12.581.012.138.421-.147.676-.286.958-1.066,2.163-2.137,4.324-3.245,6.466a1.244,1.244,0,0,0,.011,1.294c1.233,2.406,2.427,4.831,3.713,7.408h-1c-3.83,0-7.66-.013-11.49.014a1.067,1.067,0,0,1-1.149-.693c-.8-1.7-1.683-3.353-2.477-5.052a1.115,1.115,0,0,0-1.231-.734c-1.342.049-2.688.037-4.031,0-.506-.012-.7.14-.758.655a17.186,17.186,0,0,1-4.836,10.054c-.341.355-.363.578-.046.966,1.676,2.055,3.34,4.121,4.965,6.217.369.477.609.384,1.05.142a14.489,14.489,0,1,1-6.982,16.068,14.163,14.163,0,0,1,3.369-13.19c.367-.416.383-.642.036-1.065-1.618-1.973-3.192-3.982-4.8-5.959-.2-.243-.363-.847-.8-.5-.5.394-1.456.334-1.445,1.3,0,.168,0,.336,0,.5,0,11.791.012,23.583-.025,35.374,0,.907.237,1.074,1.095,1.07q11.54-.054,23.081-.013a8.054,8.054,0,1,1,.034,16.107q-11.541.05-23.081-.014c-.925,0-1.165.236-1.128,1.14a27.871,27.871,0,0,1-.065,4.729,8,8,0,0,1-8.308,7.052q-24.543.009-49.086,0a19.055,19.055,0,0,1-3.716-.153A8.075,8.075,0,0,1,.007,92.18c-.006-.2-.006-.4-.006-.6Q0,51.616,0,11.656A8.044,8.044,0,0,1,6.929,3.33a9.974,9.974,0,0,1,1.606-.086c3.427-.007,6.854-.012,10.281.005A1.073,1.073,0,0,0,19.976,2.6,4.6,4.6,0,0,1,24.314.019q9.071-.013,18.143,0c3.44,0,4.666.821,5.946,4.036M9.677,51.628q0,18.795-.025,37.59c0,.951.279,1.118,1.156,1.116q22.426-.04,44.851-.019c2.44,0,2.418,0,2.413-2.452,0-.6-.122-.8-.767-.79-2.284.044-4.569.011-6.853.022a3.744,3.744,0,0,1-1.375-.227c-3.54-1.339-7.086-2.662-10.626-4A3.966,3.966,0,0,1,38.41,75.2c2.254-.857,4.557-1.6,6.763-2.565a18.432,18.432,0,0,1,9.268-1.687c.966.091,1.949-.023,2.921.027.6.031.706-.2.706-.742q-.021-17.032,0-34.063c0-.584-.133-.828-.754-.882a17.158,17.158,0,0,1-4.644-1.244c-.859-.329-1.675-1.36-2.467-1.03-.755.314-1.149,1.43-1.78,2.122-.566.621-.505.96.1,1.59,6.131,6.366,8.014,13.864,4.932,22.143-3.091,8.3-9.419,12.95-18.26,13.631a20.943,20.943,0,1,1,7.477-39.9c.89.415,1.777,1.493,2.622,1.156.806-.321,1.24-1.519,1.9-2.274.465-.53.346-.826-.116-1.3A17.178,17.178,0,0,1,41.97,17.178c.032-.968-.269-1.059-1.088-1.055-5.51.033-11.02.022-16.53.015A4.682,4.682,0,0,1,19.939,13.5a.945.945,0,0,0-.991-.6c-2.755.025-5.511.051-8.264-.011-.854-.019-1.029.219-1.027,1.044q.043,18.845.02,37.691m-6.45-.116q0,19.9,0,39.8c0,3.545,1.92,5.449,5.492,5.449H59.009c.3,0,.605.008.907-.008a4.8,4.8,0,0,0,4.549-4.33c.116-1.6.031-3.223.044-4.835,0-.3-.025-.52-.418-.5-.9.035-1.951-.229-2.651.156-.492.271-.1,1.428-.156,2.187-.013.2,0,.4,0,.6a3.244,3.244,0,0,1-3.524,3.5q-23.886.006-47.771,0a3.232,3.232,0,0,1-3.534-3.491q-.006-38.444,0-76.888A3.231,3.231,0,0,1,9.907,9.693c2.385-.011,4.77,0,7.156,0,2.307,0,2.277,0,2.307-2.355.009-.7-.151-.9-.871-.888-3.292.043-6.584.018-9.877.019-3.471,0-5.4,1.942-5.4,5.442q0,19.8,0,39.6M70.785,16.141c.773,0,1.551-.058,2.316.016.824.08,1-.2.867-.983A14.521,14.521,0,1,0,65.9,30.826a14.282,14.282,0,0,0,8.057-10.438c.181-.833-.014-1.094-.9-1.045a40.4,40.4,0,0,1-4.432,0c-.823-.046-1.1.237-1.35,1a8.046,8.046,0,0,1-8.464,5.434,8.064,8.064,0,1,1,7.91-11.969c.439.758.288,1.969,1.162,2.266a9.131,9.131,0,0,0,2.8.065h.1M45.155,51.532c0,1.512-.008,3.023,0,4.535.008,1.169.038,2.338.058,3.507a33.006,33.006,0,0,0,3.59.114,1.05,1.05,0,0,0,1.209-.744,16.983,16.983,0,0,0,1.324-10.323c-1.414-7.092-5.573-11.945-12.524-13.984a16.684,16.684,0,0,0-17.978,5.025c-4.868,5.3-5.922,11.556-3.49,18.349.6,1.681.644,1.666,2.386,1.666a16.07,16.07,0,0,1,1.813.013c.807.092,1.081-.127,1.057-1-.068-2.618,0-5.24-.039-7.859-.008-.631.121-.866.81-.842,1.611.056,3.225-.012,4.837.033.644.018.846-.141.836-.816-.041-2.72,0-5.442-.03-8.162-.006-.565.144-.734.719-.725,2.183.033,4.367.009,6.551.016.768,0,1.786-.263,2.238.123.536.457.11,1.509.18,2.3a.392.392,0,0,1,0,.1c-.1.583.162.724.719.712,1.645-.035,3.293.025,4.938-.03.689-.023.818.212.809.843-.035,2.384-.014,4.77-.014,7.155M96.758,50A11.286,11.286,0,1,0,85.5,61.288,11.32,11.32,0,0,0,96.758,50M33.849,3.241c-3.124,0-6.249-.007-9.374,0-1.27,0-1.881.591-1.892,1.825q-.027,3.023,0,6.047a1.617,1.617,0,0,0,1.822,1.793c5.846.009,11.692-.007,17.537.011a.786.786,0,0,0,.9-.687,9.123,9.123,0,0,1,1.336-3.022,5.7,5.7,0,0,0,.989-3.974C45.1,3.8,44.58,3.246,43.122,3.243q-4.636-.009-9.273,0M20.182,62.922c4.107,4.574,9.013,6.765,14.933,6.372a17.4,17.4,0,0,0,12.406-6.372ZM64.507,34.855a14.568,14.568,0,0,1-2.219.406c-.84.025-1.026.344-1.024,1.151q.043,16.162.019,32.324c0,2.232,0,2.188,2.211,2.251.838.023,1.037-.192,1.035-1.032q-.047-17.018-.021-34.036Zm3.282,39.335H53.9c-2.3,0-2.26,0-2.31,2.26-.018.8.208.985.99.982q14.5-.042,28.994-.018c2.313,0,2.281,0,2.309-2.361.008-.712-.185-.884-.888-.88-5.067.032-10.134.017-15.2.017m.01,6.463H53.807c-2.193,0-2.13,0-2.217,2.161-.039.961.314,1.057,1.128,1.054q14.445-.039,28.889-.017c2.246,0,2.194,0,2.263-2.212.028-.9-.29-1.01-1.074-1-5,.035-10,.018-15,.018m19.29-1.687c0,1.407.02,2.815-.011,4.221-.012.514.119.7.665.686,1.44-.038,2.882.019,4.321-.023a4.825,4.825,0,0,0,.022-9.645c-1.439-.043-2.882.022-4.321-.026-.628-.021-.7.248-.686.767.029,1.339.01,2.68.01,4.02M64.044,16.117a4.61,4.61,0,0,0-4.936-3.146A4.814,4.814,0,0,0,59,22.519c2.26.367,4.691-1.293,5.038-3.129h-3.5c-2.576,0-2.547,0-2.53-2.539,0-.669.246-.756.815-.745,1.731.032,3.464.011,5.216.011m-28.576,35.5v-5.74c0-2.332,0-2.285-2.327-2.34-.83-.02-.893.294-.889.974.027,4.263.014,8.526.014,12.789,0,2.393,0,2.37,2.378,2.38.634,0,.854-.13.842-.813-.045-2.416-.018-4.833-.018-7.25m12.858,31.5V74.944l-1.752.651-7.06,2.639c-.384.144-.777.292-.787.794a.759.759,0,0,0,.6.724c2.973,1.116,5.949,2.225,9,3.364M41.919,53.268V49.14c0-2.382,0-2.356-2.392-2.368-.657,0-.834.17-.827.828.035,3.222.016,6.443.016,9.665,0,2.493,0,2.475,2.543,2.416.527-.012.68-.143.672-.675-.032-1.912-.012-3.826-.012-5.738m-12.9,3.185v-.8c0-2.5,0-2.479-2.532-2.422-.509.012-.705.111-.683.662.044,1.105.013,2.213.013,3.32,0,2.584,0,2.57,2.583,2.472.463-.018.653-.109.631-.61-.039-.87-.011-1.743-.011-2.615M94.11,12.928c-1.934,0-3.734,0-5.535,0a.61.61,0,0,0-.655.338c-.444.925-.9,1.843-1.409,2.866,1.934,0,3.734,0,5.535,0a.61.61,0,0,0,.655-.337c.444-.925.9-1.843,1.409-2.866m.007,9.649c-.5-1.012-.954-1.9-1.386-2.795a.6.6,0,0,0-.609-.409c-1.828.01-3.657,0-5.619,0,.5,1.012.955,1.9,1.387,2.8a.6.6,0,0,0,.609.408c1.829-.01,3.657,0,5.618,0" transform="translate(0 0)" fill="#010101"/>
    <path id="Trazado_181453" data-name="Trazado 181453" d="M35.856,86.591q0-18.845-.02-37.691c0-.825.173-1.063,1.027-1.044,2.754.062,5.509.036,8.264.011a.945.945,0,0,1,.991.6A4.681,4.681,0,0,0,50.532,51.1c5.51.008,11.02.019,16.529-.015.818,0,1.12.087,1.088,1.055a17.178,17.178,0,0,0,5.114,13.007c.462.474.581.77.116,1.3-.662.756-1.1,1.953-1.9,2.274-.845.337-1.732-.741-2.622-1.156a20.943,20.943,0,1,0-7.477,39.9c8.841-.682,15.169-5.327,18.26-13.631,3.082-8.278,1.2-15.777-4.933-22.143-.606-.63-.667-.969-.1-1.59.631-.692,1.026-1.808,1.78-2.122.793-.329,1.608.7,2.467,1.03a17.167,17.167,0,0,0,4.644,1.244c.621.054.755.3.754.882q-.025,17.032,0,34.063c0,.544-.106.773-.705.742-.972-.05-1.955.064-2.921-.027a18.432,18.432,0,0,0-9.268,1.687c-2.206.965-4.509,1.708-6.763,2.565a3.966,3.966,0,0,0,.042,7.665c3.54,1.339,7.086,2.662,10.626,4a3.743,3.743,0,0,0,1.374.227c2.285-.012,4.57.022,6.853-.022.645-.012.765.189.766.79.005,2.452.027,2.452-2.413,2.452q-22.426,0-44.851.019c-.877,0-1.159-.165-1.156-1.116q.056-18.795.025-37.59M55.211,54.329H47.86c-2.342,0-2.306,0-2.35,2.314-.014.756.181.936.933.931,5.37-.036,10.741-.019,16.111-.019,2.361,0,2.335,0,2.346-2.415,0-.658-.172-.835-.829-.826-2.953.036-5.907.016-8.861.016m.1,6.45H47.86c-2.342,0-2.305,0-2.349,2.314-.014.757.183.935.934.93C51.815,63.988,57.185,64,62.555,64c2.361,0,2.335,0,2.346-2.415,0-.659-.174-.834-.83-.826-2.92.036-5.84.016-8.76.016m-6.6,54.825h7.351c2.4,0,2.363,0,2.395-2.368.009-.714-.185-.879-.885-.875-5.37.031-10.741.017-16.111.017-2.422,0-2.4,0-2.393,2.469,0,.63.169.778.783.771,2.953-.033,5.907-.015,8.861-.015m-.043,6.45h7.451c2.332,0,2.292,0,2.34-2.325.016-.779-.217-.922-.946-.918-5.337.032-10.673.018-16.01.018-2.454,0-2.424,0-2.437,2.426,0,.68.206.821.842.814,2.92-.032,5.84-.014,8.76-.014m-8.044-64.5c1.686,0,1.686,0,1.686-1.64,0-1.585,0-1.585-1.54-1.585-1.686,0-1.686,0-1.686,1.64,0,1.585,0,1.585,1.54,1.585m1.686,4.935c0-1.71,0-1.71-1.717-1.71-1.509,0-1.509,0-1.509,1.516,0,1.71,0,1.71,1.717,1.71,1.509,0,1.509,0,1.509-1.516" transform="translate(-26.179 -34.964)" fill="#fff3bf"/>
    <path id="Trazado_181454" data-name="Trazado 181454" d="M11.977,69q0-19.8,0-39.6c0-3.5,1.925-5.441,5.4-5.442,3.292,0,6.585.023,9.877-.019.721-.009.88.193.871.888-.03,2.354,0,2.355-2.308,2.355-2.385,0-4.77-.008-7.155,0A3.231,3.231,0,0,0,15.2,30.644q-.006,38.444,0,76.888a3.233,3.233,0,0,0,3.534,3.491q23.885.005,47.771,0a3.244,3.244,0,0,0,3.524-3.5c0-.2-.011-.4,0-.6.051-.759-.337-1.916.156-2.187.7-.385,1.751-.121,2.651-.156.392-.015.42.2.418.5-.013,1.612.071,3.23-.044,4.835a4.8,4.8,0,0,1-4.549,4.33c-.3.016-.6.008-.907.008H17.469c-3.572,0-5.492-1.9-5.492-5.449q0-19.9,0-39.8" transform="translate(-8.75 -17.485)" fill="#fdd835"/>
    <path id="Trazado_181455" data-name="Trazado 181455" d="M193.251,24.915h-.1a9.141,9.141,0,0,1-2.8-.065c-.874-.3-.723-1.509-1.162-2.266a8.113,8.113,0,1,0,.554,6.535c.248-.765.527-1.047,1.349-1a40.337,40.337,0,0,0,4.432,0c.887-.049,1.082.212.9,1.045A14.282,14.282,0,0,1,188.367,39.6a14.5,14.5,0,1,1,8.068-15.653c.133.784-.043,1.063-.867.983-.766-.074-1.544-.016-2.316-.016" transform="translate(-122.466 -8.774)" fill="#e3e6ea"/>
    <path id="Trazado_181456" data-name="Trazado 181456" d="M88.79,143.246c0-2.385-.021-4.77.014-7.154.009-.63-.12-.866-.809-.843-1.644.055-3.292,0-4.938.03-.557.012-.819-.129-.719-.712a.392.392,0,0,0,0-.1c-.07-.791.356-1.843-.18-2.3-.452-.386-1.471-.12-2.238-.123-2.184-.006-4.368.018-6.551-.016-.575-.009-.725.16-.719.725.029,2.721-.011,5.442.03,8.162.01.675-.192.834-.836.816-1.611-.045-3.226.023-4.837-.033-.689-.024-.818.211-.81.842.034,2.62-.03,5.241.039,7.859.023.878-.25,1.1-1.058,1a16.064,16.064,0,0,0-1.812-.013c-1.742,0-1.784.015-2.386-1.666-2.432-6.794-1.378-13.048,3.49-18.35a16.684,16.684,0,0,1,17.978-5.025c6.951,2.039,11.11,6.893,12.524,13.984a16.983,16.983,0,0,1-1.324,10.323,1.05,1.05,0,0,1-1.209.744,32.936,32.936,0,0,1-3.59-.114c-.02-1.169-.051-2.338-.058-3.507-.01-1.512,0-3.023,0-4.535" transform="translate(-43.634 -91.714)" fill="#e3e6ea"/>
    <path id="Trazado_181457" data-name="Trazado 181457" d="M297.961,155.006A11.286,11.286,0,1,1,286.7,143.724a11.323,11.323,0,0,1,11.264,11.282m-19.348-.051c0,1.309-.025,2.618,0,3.926a4.162,4.162,0,0,0,5.9,3.8c2.737-1.25,5.441-2.59,8.077-4.04a4.121,4.121,0,0,0,0-7.255c-2.637-1.448-5.341-2.788-8.076-4.042a4.161,4.161,0,0,0-5.909,3.788c-.029,1.274,0,2.55-.005,3.825" transform="translate(-201.203 -105.007)" fill="#e3e6ea"/>
    <path id="Trazado_181458" data-name="Trazado 181458" d="M95.063,12.025q4.636,0,9.273,0c1.458,0,1.976.561,2.044,1.994a5.7,5.7,0,0,1-.989,3.973,9.128,9.128,0,0,0-1.336,3.023.786.786,0,0,1-.9.687c-5.846-.017-11.692,0-17.537-.01A1.617,1.617,0,0,1,83.8,19.9q-.03-3.023,0-6.047c.011-1.234.622-1.82,1.892-1.825,3.125-.011,6.249,0,9.374,0" transform="translate(-61.213 -8.784)" fill="#26ccda"/>
    <path id="Trazado_181459" data-name="Trazado 181459" d="M74.92,233.577h27.339a17.4,17.4,0,0,1-12.406,6.372c-5.921.393-10.827-1.8-14.933-6.372" transform="translate(-54.738 -170.655)" fill="#e3e6ea"/>
    <path id="Trazado_181460" data-name="Trazado 181460" d="M230.664,129.386v1.064q0,17.018.021,34.036c0,.84-.2,1.056-1.035,1.032-2.21-.062-2.211-.019-2.211-2.251q0-16.162-.019-32.324c0-.807.183-1.126,1.024-1.151a14.568,14.568,0,0,0,2.219-.406" transform="translate(-166.156 -94.531)" fill="#fee9a6"/>
    <path id="Trazado_181461" data-name="Trazado 181461" d="M207.7,275.36c5.067,0,10.135.015,15.2-.017.7,0,.9.168.888.88-.027,2.361,0,2.361-2.309,2.361q-14.5,0-28.993.018c-.782,0-1.008-.186-.99-.982.05-2.259.012-2.26,2.31-2.26H207.7" transform="translate(-139.907 -201.169)" fill="#fdd835"/>
    <path id="Trazado_181462" data-name="Trazado 181462" d="M207.715,299.347c5,0,10,.017,15-.018.785-.006,1.1.107,1.075,1-.069,2.21-.018,2.212-2.263,2.212q-14.444,0-28.889.017c-.814,0-1.167-.093-1.128-1.054.087-2.159.024-2.161,2.216-2.161h13.992" transform="translate(-139.915 -218.694)" fill="#fdd835"/>
    <path id="Trazado_181463" data-name="Trazado 181463" d="M323.259,280.149c0-1.34.02-2.68-.01-4.02-.011-.519.059-.788.686-.767,1.439.048,2.882-.018,4.321.026a4.825,4.825,0,0,1-.022,9.645c-1.439.042-2.882-.015-4.321.023-.546.015-.676-.172-.665-.686.032-1.406.011-2.813.011-4.22" transform="translate(-236.169 -201.183)" fill="#f57c00"/>
    <path id="Trazado_181464" data-name="Trazado 181464" d="M212.826,51.192c-1.752,0-3.485.02-5.216-.012-.569-.01-.81.076-.815.745-.017,2.539-.047,2.539,2.53,2.539h3.5c-.347,1.836-2.778,3.5-5.038,3.129a4.814,4.814,0,0,1,.106-9.548,4.61,4.61,0,0,1,4.936,3.146" transform="translate(-148.781 -35.075)" fill="#f57c00"/>
    <path id="Trazado_181465" data-name="Trazado 181465" d="M122.94,169.7c0,2.417-.027,4.834.018,7.25.013.683-.208.816-.842.813-2.378-.011-2.379.012-2.379-2.38,0-4.263.013-8.526-.014-12.789,0-.68.059-.993.889-.974,2.327.055,2.328.008,2.328,2.34v5.74" transform="translate(-87.471 -118.082)" fill="#26ccda"/>
    <path id="Trazado_181466" data-name="Trazado 181466" d="M153.359,286.375c-3.052-1.14-6.028-2.248-9-3.364a.76.76,0,0,1-.6-.724c.01-.5.4-.651.787-.794l7.061-2.639c.559-.209,1.118-.415,1.752-.651Z" transform="translate(-105.033 -203.26)" fill="#ffe881"/>
    <path id="Trazado_181467" data-name="Trazado 181467" d="M146.881,180.12c0,1.913-.019,3.826.012,5.739.009.531-.144.662-.672.675-2.544.059-2.543.077-2.543-2.416,0-3.222.019-6.444-.016-9.665-.007-.658.169-.831.826-.828,2.392.012,2.392-.014,2.392,2.368v4.128" transform="translate(-104.962 -126.852)" fill="#ffa726"/>
    <path id="Trazado_181468" data-name="Trazado 181468" d="M98.992,200.769c0,.872-.028,1.745.011,2.615.022.5-.168.593-.631.61-2.583.1-2.582.112-2.582-2.472,0-1.107.031-2.215-.013-3.32-.022-.55.175-.65.683-.661,2.533-.057,2.532-.073,2.532,2.422v.8" transform="translate(-69.975 -144.316)" fill="#fdd835"/>
    <path id="Trazado_181469" data-name="Trazado 181469" d="M328.741,47.981c-.5,1.023-.965,1.941-1.409,2.866a.611.611,0,0,1-.655.338c-1.8-.007-3.6,0-5.535,0,.505-1.024.965-1.941,1.409-2.866a.611.611,0,0,1,.655-.338c1.8.008,3.6,0,5.535,0" transform="translate(-234.631 -35.053)" fill="#26ccda"/>
    <path id="Trazado_181470" data-name="Trazado 181470" d="M328.728,75.121c-1.961,0-3.79-.005-5.618,0a.6.6,0,0,1-.609-.408c-.432-.9-.883-1.783-1.387-2.8,1.963,0,3.791.005,5.619,0a.6.6,0,0,1,.609.409c.432.9.883,1.783,1.386,2.795" transform="translate(-234.61 -52.544)" fill="#26ccda"/>
    <path id="Trazado_181471" data-name="Trazado 181471" d="M81.461,71.843c2.954,0,5.908.02,8.861-.016.657-.008.832.168.829.826-.011,2.415.015,2.415-2.346,2.415-5.37,0-10.741-.017-16.111.019-.752,0-.947-.175-.933-.931.044-2.313.008-2.314,2.35-2.314Z" transform="translate(-52.429 -52.478)" fill="#010101"/>
    <path id="Trazado_181472" data-name="Trazado 181472" d="M81.562,95.787c2.92,0,5.841.02,8.76-.016.656-.008.833.166.83.826-.011,2.415.015,2.415-2.346,2.415-5.37,0-10.741-.017-16.111.019-.751.005-.948-.173-.934-.93.044-2.313.008-2.314,2.349-2.314Z" transform="translate(-52.429 -69.972)" fill="#010101"/>
    <path id="Trazado_181473" data-name="Trazado 181473" d="M57.472,290.553c-2.954,0-5.908-.018-8.861.015-.614.007-.783-.142-.783-.772,0-2.469-.029-2.469,2.393-2.469,5.37,0,10.741.014,16.111-.017.7,0,.895.16.885.875-.032,2.367,0,2.368-2.395,2.368H57.472" transform="translate(-34.943 -209.913)" fill="#010101"/>
    <path id="Trazado_181474" data-name="Trazado 181474" d="M57.426,314.495c-2.92,0-5.841-.018-8.76.014-.636.007-.846-.134-.842-.814.012-2.426-.017-2.426,2.437-2.426,5.337,0,10.674.015,16.01-.018.729,0,.962.139.946.918-.047,2.325-.008,2.325-2.339,2.325H57.426" transform="translate(-34.941 -227.405)" fill="#010101"/>
    <path id="Trazado_181475" data-name="Trazado 181475" d="M49.434,75.112c-1.54,0-1.54,0-1.54-1.585,0-1.64,0-1.64,1.686-1.64,1.54,0,1.54,0,1.54,1.585,0,1.64,0,1.64-1.686,1.64" transform="translate(-34.992 -52.522)" fill="#010101"/>
    <path id="Trazado_181476" data-name="Trazado 181476" d="M51.12,97.539c0,1.516,0,1.516-1.509,1.516-1.717,0-1.717,0-1.717-1.71,0-1.516,0-1.516,1.509-1.516,1.717,0,1.717,0,1.717,1.71" transform="translate(-34.992 -70.014)" fill="#010101"/>
    <path id="Trazado_181477" data-name="Trazado 181477" d="M287.332,163.7c0-1.275-.025-2.551,0-3.826a4.161,4.161,0,0,1,5.909-3.788c2.736,1.253,5.439,2.593,8.076,4.042a4.121,4.121,0,0,1-.005,7.254c-2.636,1.45-5.34,2.79-8.077,4.04a4.161,4.161,0,0,1-5.9-3.8c-.03-1.308-.005-2.617,0-3.926m3.249.036c0,1.207-.022,2.415.007,3.621.025,1.027.7,1.441,1.622.986,2.4-1.181,4.788-2.394,7.183-3.589.444-.221.821-.5.8-1.046-.022-.5-.38-.746-.79-.951-2.4-1.195-4.781-2.408-7.183-3.59-.992-.488-1.614-.079-1.632,1.048-.019,1.173,0,2.347,0,3.521" transform="translate(-209.922 -113.752)" fill="#010101"/>
    <path id="Trazado_181478" data-name="Trazado 181478" d="M299.4,172.61c0-1.173-.015-2.347,0-3.521.018-1.127.641-1.536,1.632-1.048,2.4,1.182,4.788,2.395,7.182,3.59.409.2.767.454.79.951.025.551-.353.825-.8,1.046-2.4,1.195-4.781,2.409-7.183,3.589-.926.455-1.6.041-1.622-.986-.029-1.206-.007-2.414-.007-3.621" transform="translate(-218.736 -122.625)" fill="#f57c00"/>
  </g>
</svg>
