<svg xmlns="http://www.w3.org/2000/svg" width="820" height="358.355" viewBox="0 0 820 358.355">
  <g id="Grupo_120855" data-name="Grupo 120855" transform="translate(-390.285 -3302)">
    <path id="Trazado_182414" data-name="Trazado 182414" d="M0,0H820V140H0Z" transform="translate(390.285 3395)" fill="#fff3bf" opacity="0.5"/>
    <g id="Grupo_55122" data-name="Grupo 55122" transform="translate(625.558 2970.571)">
      <path id="Trazado_104466" data-name="Trazado 104466" d="M84.471,506.189l163.647,61.446a178.926,178.926,0,0,0,9.347-57.109c0-96.9-76.9-175.791-172.994-179.1Z" transform="translate(96.637)" fill="#fdd835"/>
      <path id="Trazado_104467" data-name="Trazado 104467" d="M166.01,420.47,3.867,490.555a179.295,179.295,0,0,0,327.514-7.994Z" transform="translate(9.001 96.808)" fill="#26c6da"/>
      <path id="Trazado_104468" data-name="Trazado 104468" d="M168.584,506.412V331.429c-96.1,3.306-173,82.2-173,179.1A178.723,178.723,0,0,0,7.924,575.859Z" transform="translate(0)" fill="#f57c00"/>
    </g>
    <path id="Trazado_182417" data-name="Trazado 182417" d="M-22.1,0V-14.219h5.107a7.232,7.232,0,0,1,4.175,1.006,3.347,3.347,0,0,1,1.431,2.92,3.383,3.383,0,0,1-.508,1.885,2.959,2.959,0,0,1-1.494,1.152A3,3,0,0,1-11.68-6.162a3.18,3.18,0,0,1,.6,1.953,3.765,3.765,0,0,1-1.323,3.14A6.3,6.3,0,0,1-16.328,0Zm3.428-6.045v3.408h2.246A2.136,2.136,0,0,0-15-3.062a1.487,1.487,0,0,0,.5-1.2A1.576,1.576,0,0,0-16.27-6.045Zm0-2.246h1.787a2.539,2.539,0,0,0,1.6-.411A1.46,1.46,0,0,0-14.8-9.888a1.533,1.533,0,0,0-.518-1.3,2.77,2.77,0,0,0-1.67-.4h-1.68ZM-3.057-1.143A3.393,3.393,0,0,1-5.879.2,3.328,3.328,0,0,1-8.511-.815,4.251,4.251,0,0,1-9.4-3.721v-6.846h3.291V-3.7A1.183,1.183,0,0,0-4.795-2.344a1.72,1.72,0,0,0,1.611-.811v-7.412H.127V0H-2.959ZM7.041.2a5.432,5.432,0,0,1-3.936-1.45A5.008,5.008,0,0,1,1.6-5.029V-5.3a6.489,6.489,0,0,1,.6-2.861,4.395,4.395,0,0,1,1.753-1.919,5.292,5.292,0,0,1,2.734-.679A4.574,4.574,0,0,1,10.205-9.38a5.43,5.43,0,0,1,1.289,3.853v1.279H4.951a2.372,2.372,0,0,0,.771,1.4,2.3,2.3,0,0,0,1.543.508A2.958,2.958,0,0,0,9.707-3.437l1.5,1.777A4.2,4.2,0,0,1,9.468-.308,5.891,5.891,0,0,1,7.041.2ZM6.67-8.223q-1.445,0-1.719,1.914h3.32v-.254a1.63,1.63,0,0,0-.4-1.226A1.593,1.593,0,0,0,6.67-8.223Zm9.17-2.344.107,1.24a3.583,3.583,0,0,1,3.018-1.436,3.015,3.015,0,0,1,2.466.986,4.7,4.7,0,0,1,.845,2.969V0h-3.3V-6.67a1.783,1.783,0,0,0-.322-1.177,1.491,1.491,0,0,0-1.172-.376,1.569,1.569,0,0,0-1.436.762V0H12.754V-10.566ZM-36.6,19.176V24h-3.428V9.781h5.674a6.608,6.608,0,0,1,2.886.6,4.526,4.526,0,0,1,1.943,1.709,4.667,4.667,0,0,1,.688,2.515,4.114,4.114,0,0,1-1.489,3.325,6.179,6.179,0,0,1-4.087,1.245Zm0-2.646h2.246a2.118,2.118,0,0,0,1.519-.5,1.85,1.85,0,0,0,.522-1.406,2.287,2.287,0,0,0-.537-1.592,1.9,1.9,0,0,0-1.465-.605H-36.6Zm15.83-.117-1.084-.078a1.947,1.947,0,0,0-1.992.977V24h-3.291V13.434h3.086l.107,1.357a2.548,2.548,0,0,1,2.314-1.553,3.209,3.209,0,0,1,.918.117Zm.42,2.207a6.236,6.236,0,0,1,.615-2.817,4.4,4.4,0,0,1,1.768-1.9,5.323,5.323,0,0,1,2.705-.664,4.858,4.858,0,0,1,3.74,1.47,5.64,5.64,0,0,1,1.367,4v.117a5.472,5.472,0,0,1-1.372,3.921,4.871,4.871,0,0,1-3.716,1.45,4.927,4.927,0,0,1-3.623-1.353,5.29,5.29,0,0,1-1.475-3.667Zm3.291.205a3.932,3.932,0,0,0,.459,2.148,1.529,1.529,0,0,0,1.357.684q1.758,0,1.8-2.705v-.332q0-2.842-1.816-2.842-1.65,0-1.787,2.451Zm7.939-.186a6.455,6.455,0,0,1,1.084-3.955A3.568,3.568,0,0,1-5,13.238a3.035,3.035,0,0,1,2.383,1.113V9h3.3V24H-2.28l-.166-1.133A3.116,3.116,0,0,1-5.024,24.2,3.562,3.562,0,0,1-8.013,22.75,6.659,6.659,0,0,1-9.116,18.639Zm3.291.205q0,2.813,1.641,2.813a1.62,1.62,0,0,0,1.563-.918V16.715a1.576,1.576,0,0,0-1.543-.937q-1.523,0-1.65,2.461ZM8.843,22.857A3.393,3.393,0,0,1,6.021,24.2a3.328,3.328,0,0,1-2.632-1.011A4.251,4.251,0,0,1,2.5,20.279V13.434H5.786V20.3A1.183,1.183,0,0,0,7.1,21.656a1.72,1.72,0,0,0,1.611-.811V13.434h3.311V24H8.94Zm9.453-1.2a1.464,1.464,0,0,0,1.074-.376,1.379,1.379,0,0,0,.371-1.05h3.086a3.653,3.653,0,0,1-1.245,2.852A4.631,4.631,0,0,1,18.374,24.2a4.689,4.689,0,0,1-3.633-1.445,5.7,5.7,0,0,1-1.328-4v-.137A6.436,6.436,0,0,1,14,15.782a4.3,4.3,0,0,1,1.7-1.885,5.081,5.081,0,0,1,2.637-.659,4.573,4.573,0,0,1,3.271,1.143,4.053,4.053,0,0,1,1.211,3.1H19.741a1.807,1.807,0,0,0-.4-1.26,1.382,1.382,0,0,0-1.074-.439q-1.279,0-1.494,1.631a11.508,11.508,0,0,0-.068,1.426,4.52,4.52,0,0,0,.381,2.207A1.319,1.319,0,0,0,18.3,21.656Zm9.756-10.85v2.627H29.79v2.285H28.052v4.834a1.234,1.234,0,0,0,.215.83,1.152,1.152,0,0,0,.85.234,4.828,4.828,0,0,0,.82-.059v2.354a6.074,6.074,0,0,1-1.855.283,3.448,3.448,0,0,1-2.51-.8,3.282,3.282,0,0,1-.811-2.432V15.719H23.413V13.434h1.348V10.807Zm2.324,7.813a6.236,6.236,0,0,1,.615-2.817,4.4,4.4,0,0,1,1.768-1.9,5.323,5.323,0,0,1,2.705-.664,4.858,4.858,0,0,1,3.74,1.47,5.64,5.64,0,0,1,1.367,4v.117A5.472,5.472,0,0,1,39.2,22.745a4.871,4.871,0,0,1-3.716,1.45,4.927,4.927,0,0,1-3.623-1.353,5.29,5.29,0,0,1-1.475-3.667Zm3.291.205a3.932,3.932,0,0,0,.459,2.148,1.529,1.529,0,0,0,1.357.684q1.758,0,1.8-2.705v-.332q0-2.842-1.816-2.842-1.65,0-1.787,2.451Z" transform="translate(695.285 3409)" fill="#12263f"/>
    <path id="Trazado_182418" data-name="Trazado 182418" d="M-22.1,0V-14.219h5.107a7.232,7.232,0,0,1,4.175,1.006,3.347,3.347,0,0,1,1.431,2.92,3.383,3.383,0,0,1-.508,1.885,2.959,2.959,0,0,1-1.494,1.152A3,3,0,0,1-11.68-6.162a3.18,3.18,0,0,1,.6,1.953,3.765,3.765,0,0,1-1.323,3.14A6.3,6.3,0,0,1-16.328,0Zm3.428-6.045v3.408h2.246A2.136,2.136,0,0,0-15-3.062a1.487,1.487,0,0,0,.5-1.2A1.576,1.576,0,0,0-16.27-6.045Zm0-2.246h1.787a2.539,2.539,0,0,0,1.6-.411A1.46,1.46,0,0,0-14.8-9.888a1.533,1.533,0,0,0-.518-1.3,2.77,2.77,0,0,0-1.67-.4h-1.68ZM-3.057-1.143A3.393,3.393,0,0,1-5.879.2,3.328,3.328,0,0,1-8.511-.815,4.251,4.251,0,0,1-9.4-3.721v-6.846h3.291V-3.7A1.183,1.183,0,0,0-4.795-2.344a1.72,1.72,0,0,0,1.611-.811v-7.412H.127V0H-2.959ZM7.041.2a5.432,5.432,0,0,1-3.936-1.45A5.008,5.008,0,0,1,1.6-5.029V-5.3a6.489,6.489,0,0,1,.6-2.861,4.395,4.395,0,0,1,1.753-1.919,5.292,5.292,0,0,1,2.734-.679A4.574,4.574,0,0,1,10.205-9.38a5.43,5.43,0,0,1,1.289,3.853v1.279H4.951a2.372,2.372,0,0,0,.771,1.4,2.3,2.3,0,0,0,1.543.508A2.958,2.958,0,0,0,9.707-3.437l1.5,1.777A4.2,4.2,0,0,1,9.468-.308,5.891,5.891,0,0,1,7.041.2ZM6.67-8.223q-1.445,0-1.719,1.914h3.32v-.254a1.63,1.63,0,0,0-.4-1.226A1.593,1.593,0,0,0,6.67-8.223Zm9.17-2.344.107,1.24a3.583,3.583,0,0,1,3.018-1.436,3.015,3.015,0,0,1,2.466.986,4.7,4.7,0,0,1,.845,2.969V0h-3.3V-6.67a1.783,1.783,0,0,0-.322-1.177,1.491,1.491,0,0,0-1.172-.376,1.569,1.569,0,0,0-1.436.762V0H12.754V-10.566Zm-47.8,28.531h-5.391v3.4h6.367V24h-9.795V9.781h9.814v2.646h-6.387v3h5.391Zm5.332-4.531.107,1.24A3.633,3.633,0,0,1-23.5,13.238,2.675,2.675,0,0,1-20.8,14.83a3.517,3.517,0,0,1,3.105-1.592q3.213,0,3.3,3.887V24h-3.3V17.33a2.014,2.014,0,0,0-.273-1.182,1.164,1.164,0,0,0-1-.371,1.559,1.559,0,0,0-1.455.869l.01.137V24h-3.3V17.35a2.117,2.117,0,0,0-.264-1.2,1.161,1.161,0,0,0-1.006-.371,1.578,1.578,0,0,0-1.445.869V24h-3.291V13.434ZM-2.7,18.795a6.372,6.372,0,0,1-1.108,3.931A3.554,3.554,0,0,1-6.8,24.2a3.046,3.046,0,0,1-2.393-1.064v4.932h-3.291V13.434h3.076l.1.977a3.046,3.046,0,0,1,2.49-1.172,3.582,3.582,0,0,1,3.037,1.44A6.45,6.45,0,0,1-2.7,18.639Zm-3.291-.205q0-2.812-1.641-2.812a1.549,1.549,0,0,0-1.562.84v4.16a1.6,1.6,0,0,0,1.582.879q1.572,0,1.621-2.715ZM4.7,24a3.716,3.716,0,0,1-.312-.947A3.06,3.06,0,0,1,1.851,24.2a3.749,3.749,0,0,1-2.539-.9,2.875,2.875,0,0,1-1.045-2.271,2.955,2.955,0,0,1,1.27-2.6,6.468,6.468,0,0,1,3.691-.879H4.243v-.559q0-1.462-1.26-1.462a1.03,1.03,0,0,0-1.172,1.158H-1.479a2.95,2.95,0,0,1,1.3-2.487,5.479,5.479,0,0,1,3.325-.956,4.8,4.8,0,0,1,3.193.986,3.429,3.429,0,0,1,1.2,2.705v4.678a4.79,4.79,0,0,0,.449,2.227V24ZM2.642,21.852a1.836,1.836,0,0,0,1.021-.264,1.653,1.653,0,0,0,.581-.6V19.3H3.286q-1.719,0-1.719,1.543a.942.942,0,0,0,.3.728A1.1,1.1,0,0,0,2.642,21.852ZM8.95,18.609a6.343,6.343,0,0,1,1.094-3.945,3.592,3.592,0,0,1,3.018-1.426,3.068,3.068,0,0,1,2.6,1.328l.234-1.133h2.852V28.063h-3.3V23.121a3.063,3.063,0,0,1-2.4,1.074,3.561,3.561,0,0,1-2.983-1.45A6.7,6.7,0,0,1,8.95,18.609Zm3.291.205q0,2.842,1.641,2.842a1.589,1.589,0,0,0,1.563-.859v-4.18a1.555,1.555,0,0,0-1.543-.84q-1.533,0-1.65,2.451ZM26.9,22.857A3.393,3.393,0,0,1,24.077,24.2a3.328,3.328,0,0,1-2.632-1.011,4.251,4.251,0,0,1-.894-2.905V13.434h3.291V20.3a1.183,1.183,0,0,0,1.318,1.357,1.72,1.72,0,0,0,1.611-.811V13.434h3.311V24H27ZM37,24.2a5.432,5.432,0,0,1-3.936-1.45,5.008,5.008,0,0,1-1.5-3.774V18.7a6.489,6.489,0,0,1,.6-2.861,4.395,4.395,0,0,1,1.753-1.919,5.292,5.292,0,0,1,2.734-.679,4.574,4.574,0,0,1,3.516,1.382,5.43,5.43,0,0,1,1.289,3.853v1.279H34.907a2.372,2.372,0,0,0,.771,1.4,2.3,2.3,0,0,0,1.543.508,2.958,2.958,0,0,0,2.441-1.094l1.5,1.777a4.2,4.2,0,0,1-1.743,1.353A5.891,5.891,0,0,1,37,24.2Zm-.371-8.418q-1.445,0-1.719,1.914h3.32v-.254a1.63,1.63,0,0,0-.4-1.226A1.593,1.593,0,0,0,36.626,15.777Z" transform="translate(908.285 3409)" fill="#12263f"/>
    <path id="Trazado_182415" data-name="Trazado 182415" d="M-34.1-6.035h-5.391v3.4h6.367V0H-42.92V-14.219h9.814v2.646h-6.387v3H-34.1Zm6.5-1.621,1.533-2.91h3.418L-25.43-5.42-22.51,0h-3.437l-1.66-3.125L-29.238,0H-32.7l2.93-5.42-2.773-5.146h3.457Zm10.283,5.313A1.464,1.464,0,0,0-16.24-2.72a1.379,1.379,0,0,0,.371-1.05h3.086A3.653,3.653,0,0,1-14.028-.918,4.631,4.631,0,0,1-17.236.2,4.689,4.689,0,0,1-20.869-1.25a5.7,5.7,0,0,1-1.328-4v-.137a6.436,6.436,0,0,1,.591-2.827A4.3,4.3,0,0,1-19.9-10.1a5.081,5.081,0,0,1,2.637-.659,4.573,4.573,0,0,1,3.271,1.143,4.053,4.053,0,0,1,1.211,3.1h-3.086a1.807,1.807,0,0,0-.4-1.26,1.382,1.382,0,0,0-1.074-.439q-1.279,0-1.494,1.631a11.508,11.508,0,0,0-.068,1.426,4.52,4.52,0,0,0,.381,2.207A1.319,1.319,0,0,0-17.314-2.344ZM-6.279.2a5.432,5.432,0,0,1-3.936-1.45,5.008,5.008,0,0,1-1.5-3.774V-5.3a6.489,6.489,0,0,1,.6-2.861,4.395,4.395,0,0,1,1.753-1.919,5.292,5.292,0,0,1,2.734-.679A4.574,4.574,0,0,1-3.115-9.38,5.43,5.43,0,0,1-1.826-5.527v1.279H-8.369a2.372,2.372,0,0,0,.771,1.4,2.3,2.3,0,0,0,1.543.508A2.958,2.958,0,0,0-3.613-3.437l1.5,1.777A4.2,4.2,0,0,1-3.853-.308,5.891,5.891,0,0,1-6.279.2ZM-6.65-8.223q-1.445,0-1.719,1.914h3.32v-.254a1.63,1.63,0,0,0-.4-1.226A1.593,1.593,0,0,0-6.65-8.223ZM2.969,0h-3.3V-15h3.3Zm7.139.2a5.432,5.432,0,0,1-3.936-1.45,5.008,5.008,0,0,1-1.5-3.774V-5.3a6.489,6.489,0,0,1,.6-2.861,4.395,4.395,0,0,1,1.753-1.919,5.292,5.292,0,0,1,2.734-.679A4.574,4.574,0,0,1,13.271-9.38a5.43,5.43,0,0,1,1.289,3.853v1.279H8.018a2.372,2.372,0,0,0,.771,1.4,2.3,2.3,0,0,0,1.543.508,2.958,2.958,0,0,0,2.441-1.094l1.5,1.777A4.2,4.2,0,0,1,12.534-.308,5.891,5.891,0,0,1,10.107.2ZM9.736-8.223q-1.445,0-1.719,1.914h3.32v-.254a1.63,1.63,0,0,0-.4-1.226A1.593,1.593,0,0,0,9.736-8.223Zm9.17-2.344.107,1.24a3.583,3.583,0,0,1,3.018-1.436,3.015,3.015,0,0,1,2.466.986,4.7,4.7,0,0,1,.845,2.969V0h-3.3V-6.67a1.783,1.783,0,0,0-.322-1.177,1.491,1.491,0,0,0-1.172-.376,1.569,1.569,0,0,0-1.436.762V0H15.82V-10.566ZM31-13.193v2.627h1.738v2.285H31v4.834a1.234,1.234,0,0,0,.215.83,1.152,1.152,0,0,0,.85.234,4.828,4.828,0,0,0,.82-.059V-.088A6.074,6.074,0,0,1,31.025.2a3.448,3.448,0,0,1-2.51-.8,3.282,3.282,0,0,1-.811-2.432V-8.281H26.357v-2.285h1.348v-2.627ZM39.141.2a5.432,5.432,0,0,1-3.936-1.45,5.008,5.008,0,0,1-1.5-3.774V-5.3a6.489,6.489,0,0,1,.6-2.861,4.395,4.395,0,0,1,1.753-1.919,5.292,5.292,0,0,1,2.734-.679A4.574,4.574,0,0,1,42.3-9.38a5.43,5.43,0,0,1,1.289,3.853v1.279H37.051a2.372,2.372,0,0,0,.771,1.4,2.3,2.3,0,0,0,1.543.508,2.958,2.958,0,0,0,2.441-1.094l1.5,1.777A4.2,4.2,0,0,1,41.567-.308,5.891,5.891,0,0,1,39.141.2ZM38.77-8.223q-1.445,0-1.719,1.914h3.32v-.254a1.63,1.63,0,0,0-.4-1.226A1.593,1.593,0,0,0,38.77-8.223ZM-36.6,19.176V24h-3.428V9.781h5.674a6.608,6.608,0,0,1,2.886.6,4.526,4.526,0,0,1,1.943,1.709,4.667,4.667,0,0,1,.688,2.515,4.114,4.114,0,0,1-1.489,3.325,6.179,6.179,0,0,1-4.087,1.245Zm0-2.646h2.246a2.118,2.118,0,0,0,1.519-.5,1.85,1.85,0,0,0,.522-1.406,2.287,2.287,0,0,0-.537-1.592,1.9,1.9,0,0,0-1.465-.605H-36.6Zm15.83-.117-1.084-.078a1.947,1.947,0,0,0-1.992.977V24h-3.291V13.434h3.086l.107,1.357a2.548,2.548,0,0,1,2.314-1.553,3.209,3.209,0,0,1,.918.117Zm.42,2.207a6.236,6.236,0,0,1,.615-2.817,4.4,4.4,0,0,1,1.768-1.9,5.323,5.323,0,0,1,2.705-.664,4.858,4.858,0,0,1,3.74,1.47,5.64,5.64,0,0,1,1.367,4v.117a5.472,5.472,0,0,1-1.372,3.921,4.871,4.871,0,0,1-3.716,1.45,4.927,4.927,0,0,1-3.623-1.353,5.29,5.29,0,0,1-1.475-3.667Zm3.291.205a3.932,3.932,0,0,0,.459,2.148,1.529,1.529,0,0,0,1.357.684q1.758,0,1.8-2.705v-.332q0-2.842-1.816-2.842-1.65,0-1.787,2.451Zm7.939-.186a6.455,6.455,0,0,1,1.084-3.955A3.568,3.568,0,0,1-5,13.238a3.035,3.035,0,0,1,2.383,1.113V9h3.3V24H-2.28l-.166-1.133A3.116,3.116,0,0,1-5.024,24.2,3.562,3.562,0,0,1-8.013,22.75,6.659,6.659,0,0,1-9.116,18.639Zm3.291.205q0,2.813,1.641,2.813a1.62,1.62,0,0,0,1.563-.918V16.715a1.576,1.576,0,0,0-1.543-.937q-1.523,0-1.65,2.461ZM8.843,22.857A3.393,3.393,0,0,1,6.021,24.2a3.328,3.328,0,0,1-2.632-1.011A4.251,4.251,0,0,1,2.5,20.279V13.434H5.786V20.3A1.183,1.183,0,0,0,7.1,21.656a1.72,1.72,0,0,0,1.611-.811V13.434h3.311V24H8.94Zm9.453-1.2a1.464,1.464,0,0,0,1.074-.376,1.379,1.379,0,0,0,.371-1.05h3.086a3.653,3.653,0,0,1-1.245,2.852A4.631,4.631,0,0,1,18.374,24.2a4.689,4.689,0,0,1-3.633-1.445,5.7,5.7,0,0,1-1.328-4v-.137A6.436,6.436,0,0,1,14,15.782a4.3,4.3,0,0,1,1.7-1.885,5.081,5.081,0,0,1,2.637-.659,4.573,4.573,0,0,1,3.271,1.143,4.053,4.053,0,0,1,1.211,3.1H19.741a1.807,1.807,0,0,0-.4-1.26,1.382,1.382,0,0,0-1.074-.439q-1.279,0-1.494,1.631a11.508,11.508,0,0,0-.068,1.426,4.52,4.52,0,0,0,.381,2.207A1.319,1.319,0,0,0,18.3,21.656Zm9.756-10.85v2.627H29.79v2.285H28.052v4.834a1.234,1.234,0,0,0,.215.83,1.152,1.152,0,0,0,.85.234,4.828,4.828,0,0,0,.82-.059v2.354a6.074,6.074,0,0,1-1.855.283,3.448,3.448,0,0,1-2.51-.8,3.282,3.282,0,0,1-.811-2.432V15.719H23.413V13.434h1.348V10.807Zm2.324,7.813a6.236,6.236,0,0,1,.615-2.817,4.4,4.4,0,0,1,1.768-1.9,5.323,5.323,0,0,1,2.705-.664,4.858,4.858,0,0,1,3.74,1.47,5.64,5.64,0,0,1,1.367,4v.117A5.472,5.472,0,0,1,39.2,22.745a4.871,4.871,0,0,1-3.716,1.45,4.927,4.927,0,0,1-3.623-1.353,5.29,5.29,0,0,1-1.475-3.667Zm3.291.205a3.932,3.932,0,0,0,.459,2.148,1.529,1.529,0,0,0,1.357.684q1.758,0,1.8-2.705v-.332q0-2.842-1.816-2.842-1.65,0-1.787,2.451Z" transform="translate(800.285 3592)" fill="#12263f"/>
    <path id="Trazado_182416" data-name="Trazado 182416" d="M64,0A64,64,0,1,1,0,64,64,64,0,0,1,64,0Z" transform="translate(736.285 3417)" fill="#fff"/>
    <g id="producto" transform="translate(757.035 3437.987)">
      <path id="Trazado_104469" data-name="Trazado 104469" d="M39.437,41.89,49.56,58.411,38.646,55.682,35.918,66.6,24.99,48.316a6.776,6.776,0,0,0,3.724-4.065,6.735,6.735,0,0,0,7.831.8l.109-.068A6.7,6.7,0,0,0,39.437,41.89Z" transform="translate(8.786 14.894)" fill="#f57c00"/>
      <path id="Trazado_104470" data-name="Trazado 104470" d="M27.57,48.316,16.642,66.6,13.914,55.682,3,58.411,13.123,41.89a6.7,6.7,0,0,0,2.783,3.1l.109.068a6.735,6.735,0,0,0,7.831-.8,6.776,6.776,0,0,0,3.724,4.065Z" transform="translate(0.776 14.894)" fill="#f57c00"/>
      <path id="Trazado_104471" data-name="Trazado 104471" d="M51.113,33.649H59.3v.068a6.73,6.73,0,0,1-4.611,6.371,6.735,6.735,0,0,1,.8,7.831l-.068.109a6.721,6.721,0,0,1-7.176,3.22,6.717,6.717,0,0,1-3.22,7.176l-.109.068a6.735,6.735,0,0,1-7.831-.8,6.776,6.776,0,0,1-3.724,4.065,6.609,6.609,0,0,1-2.647.546h-.136a6.609,6.609,0,0,1-2.647-.546,6.776,6.776,0,0,1-3.724-4.065,6.735,6.735,0,0,1-7.831.8l-.109-.068a6.717,6.717,0,0,1-3.22-7.176,6.721,6.721,0,0,1-7.176-3.22l-.068-.109a6.735,6.735,0,0,1,.8-7.831A6.73,6.73,0,0,1,2,33.717v-.136A6.73,6.73,0,0,1,6.611,27.21a6.735,6.735,0,0,1-.8-7.831l.068-.109a6.721,6.721,0,0,1,7.176-3.22,6.721,6.721,0,0,1,3.22-7.176l.109-.068a6.735,6.735,0,0,1,7.831.8A6.73,6.73,0,0,1,30.581,5h.136a6.73,6.73,0,0,1,6.371,4.611,6.735,6.735,0,0,1,7.831-.8l.109.068a4.963,4.963,0,0,1,.628.409v10.45a20.466,20.466,0,1,0,5.457,13.915Z" transform="translate(0.412 1.457)" fill="#ffa726"/>
      <path id="Trazado_181724" data-name="Trazado 181724" d="M20.464,0A20.464,20.464,0,1,1,0,20.464,20.464,20.464,0,0,1,20.464,0Z" transform="translate(10.597 14.642)" fill="#26ccda"/>
      <circle id="Elipse_4139" data-name="Elipse 4139" cx="15.007" cy="15.007" r="15.007" transform="translate(16.054 20.099)" fill="#fdd835"/>
      <path id="Trazado_104472" data-name="Trazado 104472" d="M69.47,34.742H36.728A2.728,2.728,0,0,1,34,32.013V4.728A2.728,2.728,0,0,1,36.728,2H69.47A2.728,2.728,0,0,1,72.2,4.728V32.013A2.728,2.728,0,0,1,69.47,34.742Z" transform="translate(12.068 0.364)" fill="#ffac57"/>
      <path id="Trazado_104473" data-name="Trazado 104473" d="M42,2H58.371v8.185H42Z" transform="translate(14.982 0.364)" fill="#cf9e76"/>
      <path id="Trazado_104474" data-name="Trazado 104474" d="M25.914,20.728V18A10.927,10.927,0,0,0,15,28.914h2.728A8.194,8.194,0,0,1,25.914,20.728Z" transform="translate(5.147 6.192)" fill="#12263f"/>
      <path id="Trazado_104475" data-name="Trazado 104475" d="M81.538,1H48.8A4.1,4.1,0,0,0,44.7,5.093v3.4a8.09,8.09,0,0,0-6.653.529,8.168,8.168,0,0,0-7.057-3.926A8.078,8.078,0,0,0,24.071,9.02a8.07,8.07,0,0,0-7.956.059l-.12.07a8.08,8.08,0,0,0-4.03,6.861A8.08,8.08,0,0,0,5.1,20.039l-.07.12a8.081,8.081,0,0,0-.059,7.956,8.08,8.08,0,0,0-3.928,6.921v.138A8.078,8.078,0,0,0,4.975,42.1a8.077,8.077,0,0,0,.059,7.956l.07.12a8.083,8.083,0,0,0,6.861,4.03,8.151,8.151,0,0,0,.431,2.424L.869,75.437,13.7,72.23l3.2,12.794L28.957,64.838a8.441,8.441,0,0,0,2.172.281,8.073,8.073,0,0,0,2.044-.266L45.226,85.025l3.2-12.794,12.828,3.207L49.727,56.628a8.108,8.108,0,0,0,.431-2.424,8.077,8.077,0,0,0,6.861-4.03l.07-.12a8.074,8.074,0,0,0,.059-7.956,8.1,8.1,0,0,0,3.8-5.626H81.538a4.1,4.1,0,0,0,4.093-4.093V5.093A4.1,4.1,0,0,0,81.538,1ZM66.531,6.457V9.185H63.8V6.457H61.074V9.185H58.346V3.728H71.988V9.185H69.26V6.457ZM44.7,26.076A16.378,16.378,0,1,0,47.376,36.2a4.067,4.067,0,0,0,1.42.269h1.295a19.11,19.11,0,1,1-5.387-14.7Zm0,9.03A13.642,13.642,0,1,1,31.061,21.464,13.658,13.658,0,0,1,44.7,35.106ZM17.941,77.956l-2.258-9.034-9,2.25,7.252-11.835A8,8,0,0,0,16,61.064l.12.07a8.087,8.087,0,0,0,7.958.059,8.027,8.027,0,0,0,2.393,2.5Zm37.5-6.783-9-2.25-2.258,9.034L35.663,63.7a8.11,8.11,0,0,0,2.389-2.51,8.084,8.084,0,0,0,7.956-.059l.12-.07a8,8,0,0,0,2.06-1.727Zm-.774-30.919-1.945.655,1.357,1.54a5.372,5.372,0,0,1,.648,6.239l-.07.12a5.361,5.361,0,0,1-5.727,2.558l-2.012-.405.405,2.012A5.372,5.372,0,0,1,44.764,58.7l-.12.07a5.374,5.374,0,0,1-6.239-.648l-1.54-1.357-.655,1.945a5.441,5.441,0,0,1-10.3,0l-.655-1.945-1.54,1.357a5.367,5.367,0,0,1-6.239.648l-.12-.07A5.372,5.372,0,0,1,14.8,52.974l.405-2.012-2.012.405a5.365,5.365,0,0,1-5.727-2.558l-.07-.12a5.37,5.37,0,0,1,.648-6.239L9.4,40.91l-1.945-.655a5.372,5.372,0,0,1-3.681-5.08v-.138a5.369,5.369,0,0,1,3.681-5.079L9.4,29.3l-1.357-1.54A5.374,5.374,0,0,1,7.4,21.524l.07-.12a5.371,5.371,0,0,1,5.727-2.558l2.012.405L14.8,17.239a5.368,5.368,0,0,1,2.558-5.727l.12-.07a5.367,5.367,0,0,1,6.239.648l1.54,1.357.655-1.945a5.441,5.441,0,0,1,10.3,0l.655,1.945L38.4,12.09a5.377,5.377,0,0,1,6.239-.648l.06.035v6.629A21.816,21.816,0,1,0,52.819,36.47h5.349a5.373,5.373,0,0,1-3.5,3.783ZM82.9,32.378a1.365,1.365,0,0,1-1.364,1.364H48.8a1.365,1.365,0,0,1-1.364-1.364V5.093A1.365,1.365,0,0,1,48.8,3.728h6.821v8.185h19.1V3.728h6.821A1.365,1.365,0,0,1,82.9,5.093Z" transform="translate(0 0)" fill="#12263f"/>
      <path id="Trazado_104476" data-name="Trazado 104476" d="M49,21h2.728v2.728H49Z" transform="translate(17.531 7.285)" fill="#12263f"/>
      <path id="Trazado_104477" data-name="Trazado 104477" d="M53,21h2.728v2.728H53Z" transform="translate(18.988 7.285)" fill="#12263f"/>
      <path id="Trazado_104478" data-name="Trazado 104478" d="M57,21h2.728v2.728H57Z" transform="translate(20.445 7.285)" fill="#12263f"/>
      <path id="Trazado_104479" data-name="Trazado 104479" d="M49,17H62.642v2.728H49Z" transform="translate(17.531 5.828)" fill="#12263f"/>
      <path id="Trazado_104480" data-name="Trazado 104480" d="M22.35,33.607l-3.128-3.128-1.929,1.929,5.057,5.057L35.593,24.222l-1.929-1.929Z" transform="translate(5.982 7.756)" fill="#12263f"/>
    </g>
  </g>
</svg>
