<svg xmlns="http://www.w3.org/2000/svg" xmlns:xlink="http://www.w3.org/1999/xlink" width="78" height="78" viewBox="0 0 78 78">
  <defs>
    <clipPath id="clip-path">
      <rect id="Rectángulo_5919" data-name="Rectángulo 5919" width="78" height="78" rx="5" transform="translate(621 15880)" fill="#fff"/>
    </clipPath>
  </defs>
  <g id="Enmascarar_grupo_36" data-name="Enmascarar grupo 36" transform="translate(-621 -15880)" clip-path="url(#clip-path)">
    <g id="equipo" transform="translate(621 15880)">
      <path id="Trazado_105253" data-name="Trazado 105253" d="M20.682,38.389c-.335-4.709-3.827-8.548-8.548-8.548S3.92,33.68,3.585,38.389c-.2,2.808,0,7.327-1.221,9.77,0,0,1.221,2.442,5.725,3.667l8.114,0c4.479-1.221,5.7-3.664,5.7-3.664C20.682,45.716,20.881,41.2,20.682,38.389Z" fill="#694b4b"/>
      <path id="Trazado_105254" data-name="Trazado 105254" d="M10.912,38.389c-4.706-2.353-3.738-6.963-.385-8.39a8.932,8.932,0,0,0-6.943,8.39c-.2,2.808,0,7.327-1.221,9.77,0,0,1.221,2.442,5.725,3.667l3.857,0Z" fill="#5a4146"/>
      <path id="Trazado_105255" data-name="Trazado 105255" d="M21.1,54.762l-3.952-1.976A2.443,2.443,0,0,1,15.8,50.6V46.937H8.47V50.6a2.442,2.442,0,0,1-1.35,2.184L3.168,54.762a3.664,3.664,0,0,0-2.025,3.277v8.438H23.124V58.039A3.664,3.664,0,0,0,21.1,54.762Z" fill="#e6af78"/>
      <path id="Trazado_105256" data-name="Trazado 105256" d="M23.124,58.039A3.664,3.664,0,0,0,21.1,54.762l-3.952-1.976a2.421,2.421,0,0,1-.6-.437l-1.4,1.56a3.969,3.969,0,0,1-6.02,0l-1.4-1.56a2.429,2.429,0,0,1-.6.437L3.168,54.762a3.663,3.663,0,0,0-2.025,3.277v8.438H23.124V58.039Z" fill="#26ccda"/>
      <path id="Trazado_105257" data-name="Trazado 105257" d="M12.133,49.38h0A7.326,7.326,0,0,1,5.668,45.5,3.573,3.573,0,0,1,6.83,40.946a9.465,9.465,0,0,0,.851-.674,7.05,7.05,0,0,0,1.673-2.2,1.2,1.2,0,0,1,1.37-.666,21.039,21.039,0,0,1,8.3,4.254,1.165,1.165,0,0,1,.414.967A7.328,7.328,0,0,1,12.133,49.38Z" fill="#f0c087"/>
      <path id="Trazado_105258" data-name="Trazado 105258" d="M19.023,41.656A21.039,21.039,0,0,0,10.729,37.4a1.209,1.209,0,0,0-1.377.669A6.992,6.992,0,0,1,8.236,39.7v0a6.536,6.536,0,0,1-.554.566,8.523,8.523,0,0,1-.816.649,3.634,3.634,0,0,0-.926,5.04,7.343,7.343,0,0,0,5.084,3.316A5.313,5.313,0,0,1,8.47,44.5v-.944c.277-.2.557-.409.837-.66a9.724,9.724,0,0,0,1.746-2.06,18.441,18.441,0,0,1,6.365,3.463c.231.2.556.49,1.228,1.12a7.348,7.348,0,0,0,.792-2.792A1.167,1.167,0,0,0,19.023,41.656Z" fill="#e6af78"/>
      <g id="Grupo_55450" data-name="Grupo 55450">
        <path id="Trazado_105259" data-name="Trazado 105259" d="M1.887,55.837a3.655,3.655,0,0,0-.745,2.2v8.438H6.027V60.323a2.442,2.442,0,0,0-.917-1.907Z" fill="#26ccda"/>
        <path id="Trazado_105260" data-name="Trazado 105260" d="M22.38,55.837a3.655,3.655,0,0,1,.745,2.2v8.438H18.24V60.323a2.442,2.442,0,0,1,.917-1.907Z" fill="#26ccda"/>
      </g>
      <path id="Trazado_105261" data-name="Trazado 105261" d="M56.1,34.726v.857a9.768,9.768,0,0,0,.5,3.089L58.539,44.5H62.2V31.062H59.76A3.663,3.663,0,0,0,56.1,34.726Z" fill="#5a4146"/>
      <path id="Trazado_105262" data-name="Trazado 105262" d="M72.912,36.933,70.751,44.5l-9.77-8.548A2.442,2.442,0,0,1,58.539,33.5h0A3.664,3.664,0,0,1,62.2,29.841H73.194v5.08A7.32,7.32,0,0,1,72.912,36.933Z" fill="#694b4b"/>
      <rect id="Rectángulo_6021" data-name="Rectángulo 6021" width="7.328" height="7.328" transform="translate(60.982 48.159)" fill="#e6af78"/>
      <path id="Trazado_105263" data-name="Trazado 105263" d="M74.2,52.8l-5.892-1.683-3.663,4.365-3.664-4.365L55.091,52.8a3.664,3.664,0,0,0-2.657,3.523v10.15H76.857V56.327A3.664,3.664,0,0,0,74.2,52.8Z" fill="#f57c00"/>
      <path id="Trazado_105264" data-name="Trazado 105264" d="M64.645,49.38h0a7.327,7.327,0,0,1-7.327-7.327h0a5.9,5.9,0,0,1,1.727-4.169l1.2-1.2a2.414,2.414,0,0,1,1.773-.718c3.9.123,7.359.959,9.248,2.8a2.411,2.411,0,0,1,.7,1.73v1.556A7.327,7.327,0,0,1,64.645,49.38Z" fill="#f0c087"/>
      <path id="Trazado_105265" data-name="Trazado 105265" d="M60.982,42.053a2.438,2.438,0,0,1,2.589-2.439c2.465.157,6.124.569,8.368,1.649a6.8,6.8,0,0,0-.67-2.5c-1.889-1.845-5.344-2.681-9.248-2.8h0a2.414,2.414,0,0,0-1.773.718l-1.2,1.2a5.9,5.9,0,0,0-1.727,4.169h0a7.326,7.326,0,0,0,5.3,7.036A7.267,7.267,0,0,1,60.982,44.5V42.053Z" fill="#e6af78"/>
      <path id="Trazado_105266" data-name="Trazado 105266" d="M71.973,59.966a3.664,3.664,0,0,1,1.073-2.591l3.144-3.144a3.649,3.649,0,0,1,.668,2.1v10.15H71.973Z" fill="#f57c00"/>
      <path id="Trazado_105267" data-name="Trazado 105267" d="M56.545,53.1,46.327,49.38,39,51.822,31.673,49.38,21.455,53.1a4.885,4.885,0,0,0-3.216,4.591v8.791H59.76V57.686A4.885,4.885,0,0,0,56.545,53.1Z" fill="#fdd835"/>
      <path id="Trazado_105268" data-name="Trazado 105268" d="M58.446,54.358a4.879,4.879,0,0,1,1.314,3.328v8.791H52.433V62.394a4.885,4.885,0,0,1,1.431-3.454Z" fill="#fdd835"/>
      <path id="Trazado_105269" data-name="Trazado 105269" d="M52.433,24.2V13.965a2.442,2.442,0,0,0-2.442-2.442H35.336a9.77,9.77,0,0,0-9.77,9.77v2.9a12.21,12.21,0,0,0,.627,3.862l.406,1.22a3.665,3.665,0,0,1,.188,1.159v.627H51.212v-.627a3.665,3.665,0,0,1,.188-1.159l.406-1.22A12.21,12.21,0,0,0,52.433,24.2Z" fill="#5a4146"/>
      <path id="Trazado_105270" data-name="Trazado 105270" d="M31.673,16.484a4.961,4.961,0,0,0,4.961,4.961h.687l.332,9.617h13.56v-.627a3.666,3.666,0,0,1,.188-1.159l.406-1.22a12.21,12.21,0,0,0,.627-3.862V13.965a2.442,2.442,0,0,0-2.442-2.442H36.634A4.961,4.961,0,0,0,31.673,16.484Z" fill="#694b4b"/>
      <rect id="Rectángulo_6022" data-name="Rectángulo 6022" width="14.654" height="10.99" transform="translate(31.672 40.831)" fill="#e6af78"/>
      <path id="Trazado_105271" data-name="Trazado 105271" d="M31.673,46.358a15.811,15.811,0,0,0,14.655,0V40.831H31.673v5.527Z" fill="#d29b6e"/>
      <g id="Grupo_55451" data-name="Grupo 55451">
        <path id="Trazado_105272" data-name="Trazado 105272" d="M39,51.822l-3.895,3.895a1.221,1.221,0,0,1-1.836-.125L29.23,50.271l1.056-2.226a1.221,1.221,0,0,1,1.744-.516Z" fill="#fdd835"/>
        <path id="Trazado_105273" data-name="Trazado 105273" d="M39,51.822l3.895,3.895a1.221,1.221,0,0,0,1.836-.125l4.038-5.321-1.056-2.226a1.221,1.221,0,0,0-1.744-.516Z" fill="#fdd835"/>
      </g>
      <path id="Trazado_105274" data-name="Trazado 105274" d="M39,44.5h0A12.212,12.212,0,0,1,26.788,32.283V31.062l2.032-1.355a3.664,3.664,0,0,0,1.631-3.048V22.514s9.77-3.664,17.1,2.443v1.7a3.665,3.665,0,0,0,1.631,3.049l2.032,1.355v1.221A12.212,12.212,0,0,1,39,44.5Z" fill="#f0c087"/>
      <path id="Trazado_105275" data-name="Trazado 105275" d="M19.554,54.358a4.879,4.879,0,0,0-1.314,3.328v8.791h7.327V62.394a4.885,4.885,0,0,0-1.431-3.454Z" fill="#fdd835"/>
      <path id="Trazado_105276" data-name="Trazado 105276" d="M36.263,25.449c2.656-.333,7.3-.524,11.285,1.209v-1.7c-7.327-6.106-17.1-2.443-17.1-2.443v4.145a3.664,3.664,0,0,1-1.631,3.048l-2.032,1.355v1.221A12.208,12.208,0,0,0,37.524,44.4h0a12.16,12.16,0,0,1-3.409-8.451V27.875A2.444,2.444,0,0,1,36.263,25.449Z" fill="#e6af78"/>
      <path id="Trazado_105277" data-name="Trazado 105277" d="M67.795,38.189a1.143,1.143,0,0,0,1.022-2.044c-2.654-1.327-7.63-1.342-7.841-1.342a1.143,1.143,0,0,0,0,2.285C62.26,37.088,65.988,37.286,67.795,38.189Z"/>
      <path id="Trazado_105278" data-name="Trazado 105278" d="M74.513,52.412l-4.719-1.348a.479.479,0,0,1-.346-.459V49.03a8.587,8.587,0,0,0,1.092-.9,8.4,8.4,0,0,0,2.573-6.081V39.88l.456-.912a7.289,7.289,0,0,0,.765-3.243V29.837a1.143,1.143,0,0,0-1.143-1.143h-11a7.259,7.259,0,0,0-7.251,7.251v.068a6.06,6.06,0,0,0,.636,2.7l.585,1.17v1.866a8.915,8.915,0,0,0,3.665,7.208v1.651c0,.255,0,.36-.943.63l-2.3.658-6.661-2.422a1.141,1.141,0,0,0-.311-.875L47.487,46.36V42.606c.225-.185.447-.376.662-.577a13.41,13.41,0,0,0,4.225-9.749v-3A13.207,13.207,0,0,0,53.6,23.728V11.512a1.143,1.143,0,0,0-1.143-1.143h-17.1A10.928,10.928,0,0,0,24.434,21.285v2.443a13.207,13.207,0,0,0,1.222,5.554v2.579a13.961,13.961,0,0,0,4.887,10.656V46.36L28.413,48.6a1.141,1.141,0,0,0-.311.875l-7.03,2.556a5.992,5.992,0,0,0-1.413.74l-1.1-.552a8.727,8.727,0,0,0,4.377-3.542,1.142,1.142,0,0,0,0-1.022c-.824-1.647-.924-4.667-1-7.093-.027-.808-.052-1.571-.1-2.25-.39-5.48-4.556-9.613-9.691-9.613s-9.3,4.133-9.691,9.613c-.048.68-.074,1.443-.1,2.251-.08,2.426-.18,5.445-1,7.093a1.142,1.142,0,0,0,0,1.022,8.725,8.725,0,0,0,4.381,3.54L2.657,53.746A4.782,4.782,0,0,0,0,58.046v8.441a1.143,1.143,0,0,0,2.285,0V58.046A2.509,2.509,0,0,1,3.679,55.79L7.5,53.881l1.328,1.262a4.805,4.805,0,0,0,6.624,0l1.328-1.262,1.245.622a6.017,6.017,0,0,0-.919,3.19v8.794a1.143,1.143,0,0,0,2.285,0V57.693a3.756,3.756,0,0,1,2.465-3.519l7.412-2.7,3.085,4.628a2.356,2.356,0,0,0,1.734,1.041q.118.012.236.012a2.355,2.355,0,0,0,1.669-.693l1.882-1.882v11.9a1.143,1.143,0,0,0,2.285,0v-11.9l1.882,1.882a2.354,2.354,0,0,0,1.669.693q.117,0,.236-.012a2.356,2.356,0,0,0,1.734-1.041l3.086-4.628,7.412,2.7a3.756,3.756,0,0,1,2.465,3.519v8.794a1.143,1.143,0,0,0,2.285,0V57.694a6.04,6.04,0,0,0-1.69-4.18l.282-.081a6.266,6.266,0,0,0,1.063-.384L63.5,55.966V66.488a1.143,1.143,0,0,0,2.285,0V55.966l2.9-2.9a2.718,2.718,0,0,0,.486.193l4.719,1.348a2.533,2.533,0,0,1,1.829,2.425v9.452a1.143,1.143,0,0,0,2.285,0V57.036A4.828,4.828,0,0,0,74.513,52.412ZM16.945,50.4V49.035a8.452,8.452,0,0,0,3.017-3.725,12.578,12.578,0,0,0,.651,2.73A8.254,8.254,0,0,1,16.945,50.4ZM4.726,38.47a8.483,8.483,0,0,1,2.31-5.327,7.1,7.1,0,0,1,10.2,0,8.483,8.483,0,0,1,2.31,5.327c.045.636.07,1.378.1,2.164l.007.2a10.267,10.267,0,0,0-5.644-4.124,14.34,14.34,0,0,0-4.346-.689,1.143,1.143,0,0,0-.791.349L6.811,38.512A1.143,1.143,0,1,0,8.456,40.1l1.715-1.779c1.477.072,6.23.625,8.078,4.7a6.187,6.187,0,0,1-12.3-.961,1.136,1.136,0,0,0-1.33-1.126c0-.1.007-.2.01-.294C4.656,39.848,4.68,39.106,4.726,38.47ZM3.663,48.04A12.594,12.594,0,0,0,4.314,45.3,8.52,8.52,0,0,0,7.33,49.025v1.369A8.214,8.214,0,0,1,3.663,48.04ZM10.4,53.487l-1.063-1.01a2.364,2.364,0,0,0,.278-1.116V50.143a8.5,8.5,0,0,0,5.045,0v1.217a2.364,2.364,0,0,0,.278,1.116l-1.062,1.01A2.521,2.521,0,0,1,10.4,53.487ZM27.94,31.862V29.027a1.143,1.143,0,0,0-.114-.5,10.96,10.96,0,0,1-1.108-4.8V21.285a8.641,8.641,0,0,1,8.631-8.631H51.31V23.729a10.96,10.96,0,0,1-1.108,4.8,1.143,1.143,0,0,0-.114.5V32.28a10.969,10.969,0,0,1-3.5,8.081,11.371,11.371,0,0,1-.877.743l-.02.014a10.986,10.986,0,0,1-7.414,2.212A11.317,11.317,0,0,1,27.94,31.862ZM38.127,45.611q.452.029.9.029A13.235,13.235,0,0,0,45.2,44.127v2.087l-6.187,4.229-6.187-4.229V44.081A12.865,12.865,0,0,0,38.127,45.611Zm-3.754,9.241a.072.072,0,0,1-.064.023.073.073,0,0,1-.058-.035L30.7,49.51l1.143-1.2,5.391,3.685Zm9.4-.012a.073.073,0,0,1-.058.035.07.07,0,0,1-.064-.023L40.8,51.993l5.391-3.685,1.144,1.2ZM58.453,41.747V39.611a1.141,1.141,0,0,0-.121-.511l-.706-1.412a3.764,3.764,0,0,1-.4-1.674v-.068A4.971,4.971,0,0,1,62.2,30.98H72.05v4.746a4.992,4.992,0,0,1-.524,2.221L70.949,39.1a1.142,1.142,0,0,0-.121.511v2.443a6.187,6.187,0,0,1-6.379,6.185A6.4,6.4,0,0,1,58.453,41.747Zm5.928,8.776c.088,0,.175,0,.263,0a8.487,8.487,0,0,0,2.519-.381v.46a2.731,2.731,0,0,0,.083.666l-2.605,2.6-2.593-2.593a3.135,3.135,0,0,0,.071-.679v-.482A8.012,8.012,0,0,0,64.381,50.523Z"/>
      <path id="Trazado_105279" data-name="Trazado 105279" d="M71.971,58.015a1.143,1.143,0,0,0-1.143,1.143v7.33a1.143,1.143,0,0,0,2.285,0v-7.33A1.143,1.143,0,0,0,71.971,58.015Z"/>
      <path id="Trazado_105280" data-name="Trazado 105280" d="M6.029,59.525a1.143,1.143,0,0,0-1.143,1.143v5.82a1.143,1.143,0,0,0,2.285,0v-5.82A1.143,1.143,0,0,0,6.029,59.525Z"/>
      <path id="Trazado_105281" data-name="Trazado 105281" d="M31.605,23.54a.076.076,0,0,1,.06-.077,36.1,36.1,0,0,1,7.423-.363c3.563.237,6.144,1.132,7.67,2.658a1.143,1.143,0,1,0,1.616-1.616c-4.321-4.321-13.363-3.5-17.05-2.939a2.346,2.346,0,0,0-2,2.337v2.632a1.143,1.143,0,0,0,2.285,0V23.54Z"/>
      <path id="Trazado_105282" data-name="Trazado 105282" d="M25.576,60.458A1.143,1.143,0,0,0,24.434,61.6v4.887a1.143,1.143,0,0,0,2.285,0V61.6A1.143,1.143,0,0,0,25.576,60.458Z"/>
      <path id="Trazado_105283" data-name="Trazado 105283" d="M52.453,60.458A1.143,1.143,0,0,0,51.31,61.6v4.887a1.143,1.143,0,0,0,2.285,0V61.6A1.143,1.143,0,0,0,52.453,60.458Z"/>
    </g>
  </g>
</svg>
