<svg xmlns="http://www.w3.org/2000/svg" width="55.019" height="39.838" viewBox="0 0 55.019 39.838">
  <g id="Grupo_120669" data-name="Grupo 120669" transform="translate(0 0)">
    <g id="Grupo_120692" data-name="Grupo 120692">
      <path id="Trazado_182161" data-name="Trazado 182161" d="M27.477,39.838H4.122A3.813,3.813,0,0,1,0,35.7Q0,19.9,0,4.106A3.807,3.807,0,0,1,4.1,0H50.925a3.8,3.8,0,0,1,4.093,4.11q0,15.825,0,31.65a3.8,3.8,0,0,1-4.068,4.076q-11.737,0-23.473,0M53.088,28.99c.019-.2.032-.278.032-.352q0-12.386,0-24.772A1.9,1.9,0,0,0,51.011,1.9q-23.5,0-47,0A1.909,1.909,0,0,0,1.9,4.034Q1.9,17.517,1.9,31c0,.162-.076.348.092.513.151-.1.3-.186.444-.285q4.688-3.218,9.373-6.44a3.87,3.87,0,0,1,5.023-.012c2.947,2.022,5.9,4.038,8.83,6.08a.612.612,0,0,0,.906-.061q5.917-5.023,11.86-10.014a3.709,3.709,0,0,1,4.982.033c1.787,1.5,3.56,3.008,5.339,4.513l4.336,3.664m-9.274,8.95c2.43,0,4.86,0,7.291,0a1.905,1.905,0,0,0,2.015-2c.008-1.3-.013-2.608.011-3.912a.976.976,0,0,0-.4-.85q-5.23-4.412-10.444-8.844a1.96,1.96,0,0,0-2.784.009q-5.66,4.774-11.322,9.546c-.353.3-.376.449.029.723q3.7,2.51,7.373,5.064a1.449,1.449,0,0,0,.879.27c2.45-.01,4.9-.005,7.35-.005m-11.225,0c-.16-.13-.215-.182-.277-.224Q23.94,31.962,15.566,26.211a1.878,1.878,0,0,0-2.508.026C9.85,28.437,6.681,30.7,3.42,32.813a2.79,2.79,0,0,0-1.555,2.928c.15,1.467.763,2.2,2.262,2.2H32.589" transform="translate(0 0)" fill="#ffa726"/>
      <path id="Trazado_182165" data-name="Trazado 182165" d="M43.36,40.7a4.879,4.879,0,1,1-4.886-4.869A4.828,4.828,0,0,1,43.36,40.7m-4.888,2.988a2.947,2.947,0,0,0,2.991-3.006,3,3,0,0,0-3.071-2.949,2.978,2.978,0,0,0,.08,5.955" transform="translate(-28.278 -30.153)" fill="#ffa726"/>
    </g>
  </g>
</svg>
