<svg xmlns="http://www.w3.org/2000/svg" xmlns:xlink="http://www.w3.org/1999/xlink" width="140" height="140" viewBox="0 0 140 140">
  <defs>
    <clipPath id="clip-path">
      <rect id="Rectángulo_5866" data-name="Rectángulo 5866" width="140" height="140" fill="#fff" stroke="#707070" stroke-width="1"/>
    </clipPath>
  </defs>
  <g id="Enmascarar_grupo_19" data-name="Enmascarar grupo 19" clip-path="url(#clip-path)">
    <g id="papel" transform="translate(0 0.681)">
      <g id="Grupo_55132" data-name="Grupo 55132" transform="translate(0 10.982)">
        <path id="Trazado_104501" data-name="Trazado 104501" d="M18.458,89.839.082,38.743A1.45,1.45,0,0,1,.954,36.9c24.16-8.689,51.383-16.771,74.655-26.7,1.04-.656,1.856-.008,2.3,1.232l28.872,74.42,7.84,21.8a1.444,1.444,0,0,1-.864,1.84L58.514,129.366l-21.536,7.745a1.439,1.439,0,0,1-1.84-.864Z" transform="translate(0 -9.942)" fill="#fff" fill-rule="evenodd"/>
      </g>
      <g id="Grupo_55133" data-name="Grupo 55133" transform="translate(24.581 5.417)">
        <path id="Trazado_104502" data-name="Trazado 104502" d="M30.15,73.706,20.975,20.193a1.441,1.441,0,0,1,1.168-1.664L85.334,7.7,99.806,5.311c.792-.344,2.08.056,2.384,1.824L117.821,85.2l3.912,22.836a1.446,1.446,0,0,1-1.168,1.664L62.7,119.618l-22.56,3.873a1.457,1.457,0,0,1-1.664-1.176Z" transform="translate(-20.953 -5.198)" fill="#fff" fill-rule="evenodd"/>
      </g>
      <g id="Grupo_55134" data-name="Grupo 55134" transform="translate(51.481 0)">
        <path id="Trazado_104503" data-name="Trazado 104503" d="M43.885,58.727v51.448a1.506,1.506,0,0,0,1.5,1.5h85.127a1.506,1.506,0,0,0,1.5-1.5V18.536H116.8c-1.464,0-4.5.208-4.5-3.112L112.268.581H45.38a1.5,1.5,0,0,0-1.5,1.5V58.726Z" transform="translate(-43.884 -0.581)" fill="#fff" fill-rule="evenodd"/>
      </g>
      <g id="Grupo_55135" data-name="Grupo 55135" transform="translate(0 29.285)">
        <path id="Trazado_104504" data-name="Trazado 104504" d="M26.122,25.544C17.562,28.425,9.082,31.281.954,34.2a1.45,1.45,0,0,0-.872,1.84l18.376,51.1,16.68,46.408a1.439,1.439,0,0,0,1.84.864l21.536-7.745,49.071-17.643Z" transform="translate(0 -25.544)" fill="#b5c4cf" fill-rule="evenodd"/>
      </g>
      <g id="Grupo_55136" data-name="Grupo 55136" transform="translate(24.581 14.339)">
        <path id="Trazado_104505" data-name="Trazado 104505" d="M47.854,12.8,22.143,17.212a1.441,1.441,0,0,0-1.168,1.664l1.52,8.873,7.656,44.639L38.479,121a1.457,1.457,0,0,0,1.664,1.176L62.7,118.3l41.255-7.073,9.7-1.664h-5.08Z" transform="translate(-20.953 -12.804)" fill="#d7e7ec" fill-rule="evenodd"/>
      </g>
      <g id="Grupo_55137" data-name="Grupo 55137" transform="translate(51.481 0)">
        <path id="Trazado_104506" data-name="Trazado 104506" d="M132,86V18.3c0-.432-.184-.5-.848-1.152L114.748,1.5c-.776-.736-.9-.92-1.36-.92H45.38a1.5,1.5,0,0,0-1.5,1.5v108.1a1.506,1.506,0,0,0,1.5,1.5h85.127a1.506,1.506,0,0,0,1.5-1.5Z" transform="translate(-43.884 -0.581)" fill="#edf3f4" fill-rule="evenodd"/>
      </g>
      <g id="Grupo_55138" data-name="Grupo 55138" transform="translate(45.458 14.339)">
        <path id="Trazado_104507" data-name="Trazado 104507" d="M44.774,12.8,38.75,13.836v99.752a1.5,1.5,0,0,0,1.5,1.5H78.333l22.544-3.865,9.7-1.664H46.27a1.506,1.506,0,0,1-1.5-1.5V12.8Z" transform="translate(-38.75 -12.804)" fill="#b5c4cf" fill-rule="evenodd"/>
      </g>
      <g id="Grupo_55139" data-name="Grupo 55139" transform="translate(19.93 29.285)">
        <path id="Trazado_104508" data-name="Trazado 104508" d="M30.837,70.184,23.181,25.544q-3.108,1.044-6.192,2.088l.952,5.545L25.6,77.817l8.336,48.608a1.445,1.445,0,0,0,1.656,1.176l22.56-3.873,10.7-1.832,32.239-11.6-.384-.6L82.1,112.887,63.389,116.1l-22.56,3.873a1.457,1.457,0,0,1-1.664-1.176Z" transform="translate(-16.989 -25.544)" fill="#9aafb7" fill-rule="evenodd"/>
      </g>
      <g id="Grupo_55140" data-name="Grupo 55140" transform="translate(103.217 0)">
        <path id="Trazado_104509" data-name="Trazado 104509" d="M124.369,86V18.536c0-.808-.264-.816-.848-1.384L107.113,1.5c-.776-.736-.9-.92-1.36-.92H87.985c20.344,27.237,21.5,76.332,6.408,106.977-.7,1.424-1.424,2.793-2.184,4.121h30.664a1.506,1.506,0,0,0,1.5-1.5Z" transform="translate(-87.985 -0.581)" fill="#d7e7ec" fill-rule="evenodd"/>
      </g>
      <g id="Grupo_55141" data-name="Grupo 55141" transform="translate(119.865 0)">
        <path id="Trazado_104510" data-name="Trazado 104510" d="M102.208,15.423c0,3.32,3.04,3.112,4.5,3.112h15.2V18.3c0-.432-.184-.5-.848-1.152L104.656,1.5c-.776-.736-.9-.92-1.36-.92h-1.12Z" transform="translate(-102.176 -0.581)" fill="#fff" fill-rule="evenodd"/>
      </g>
      <g id="Grupo_55142" data-name="Grupo 55142" transform="translate(119.865 0)">
        <path id="Trazado_104511" data-name="Trazado 104511" d="M121.064,17.152,104.656,1.5c-.776-.736-.9-.92-1.36-.92h-1.12l.032,14.842c0,3.32,3.04,3.112,4.5,3.112h15.2V18.3C121.912,17.872,121.728,17.8,121.064,17.152Z" transform="translate(-102.176 -0.581)" fill="#b5c4cf" fill-rule="evenodd"/>
      </g>
      <g id="Grupo_55143" data-name="Grupo 55143" transform="translate(63.743 28.506)">
        <path id="Trazado_104512" data-name="Trazado 104512" d="M116.674,29.095H56.443a2.107,2.107,0,0,1,0-4.215h60.231a2.107,2.107,0,0,1,0,4.215Z" transform="translate(-54.336 -24.88)" fill="#9aafb7"/>
      </g>
      <g id="Grupo_55144" data-name="Grupo 55144" transform="translate(63.743 43.476)">
        <path id="Trazado_104513" data-name="Trazado 104513" d="M116.674,41.856H56.443a2.107,2.107,0,0,1,0-4.215h60.231a2.107,2.107,0,0,1,0,4.215Z" transform="translate(-54.336 -37.641)" fill="#9aafb7"/>
      </g>
      <g id="Grupo_55145" data-name="Grupo 55145" transform="translate(63.743 58.447)">
        <path id="Trazado_104514" data-name="Trazado 104514" d="M116.674,54.617H56.443a2.107,2.107,0,0,1,0-4.215h60.231a2.107,2.107,0,0,1,0,4.215Z" transform="translate(-54.336 -50.403)" fill="#9aafb7"/>
      </g>
      <g id="Grupo_55146" data-name="Grupo 55146" transform="translate(63.743 73.417)">
        <path id="Trazado_104515" data-name="Trazado 104515" d="M116.674,67.379H56.443a2.107,2.107,0,0,1,0-4.215h60.231a2.107,2.107,0,0,1,0,4.215Z" transform="translate(-54.336 -63.164)" fill="#9aafb7"/>
      </g>
      <g id="Grupo_55147" data-name="Grupo 55147" transform="translate(63.743 88.388)">
        <path id="Trazado_104516" data-name="Trazado 104516" d="M116.674,80.14H56.443a2.107,2.107,0,0,1,0-4.215h60.231a2.107,2.107,0,0,1,0,4.215Z" transform="translate(-54.336 -75.925)" fill="#9aafb7"/>
      </g>
    </g>
  </g>
</svg>
