<svg id="Grupo_120693" data-name="Grupo 120693" xmlns="http://www.w3.org/2000/svg" xmlns:xlink="http://www.w3.org/1999/xlink" width="48.45" height="60.382" viewBox="0 0 48.45 60.382">
  <defs>
    <clipPath id="clip-path">
      <rect id="Rectángulo_37608" data-name="Rectángulo 37608" width="48.45" height="60.382" fill="#ffa726"/>
    </clipPath>
  </defs>
  <g id="Grupo_120670" data-name="Grupo 120670" clip-path="url(#clip-path)">
    <path id="Trazado_182167" data-name="Trazado 182167" d="M9.365,60.381c-.846-.337-1.768-.409-2.608-.787A10.6,10.6,0,0,1,.034,49.978C-.029,48.96.016,47.934.016,46.912q0-20.7-.007-41.394A5.19,5.19,0,0,1,2.974.5,4.8,4.8,0,0,1,5.193,0q5.6,0,11.2,0a4.95,4.95,0,0,1,3.388,1.284.581.581,0,0,0,.67.133,4.984,4.984,0,0,1,3.515.118Q29.1,3.576,34.227,5.631a5.071,5.071,0,0,1,3.38,4.67.779.779,0,0,0,.394.655c1.393.953,2.786,1.906,4.169,2.873A5.142,5.142,0,0,1,44,20.512a.5.5,0,0,0,.142.652c.967,1.059,1.934,2.119,2.883,3.195a5.159,5.159,0,0,1-.418,7.513q-2.731,2.474-5.479,4.929a.973.973,0,0,1-1.462.115c-.328-.695-.286-.914.285-1.433.421-.383.836-.775,1.273-1.139.235-.2.247-.325.032-.558q-1.7-1.841-3.359-3.714c-.208-.233-.3-.206-.466.04q-1.894,2.769-3.817,5.518a.394.394,0,0,0,.035.594c.644.688,1.271,1.393,1.9,2.092.559.618.558.619,1.167.07.593-.534.841-.558,1.5-.142a1.04,1.04,0,0,1-.3,1.445q-9.919,8.906-19.823,17.829a10.534,10.534,0,0,1-5.917,2.759c-.041,0-.075.07-.112.107ZM23.98,49.754c1.109-.836,2.079-1.829,3.12-2.743,1.025-.9,1.016-.91-.02-1.875-.549.789-1.112,1.562-1.636,2.36a18.712,18.712,0,0,0-1.475,2.241l-.165.088c.013.012.024.033.038.035.081.012.132-.018.137-.106m-13.15-38.2c-2.85,0-5.7.006-8.55-.008-.371,0-.5.078-.5.479q.029,3.626,0,7.252c0,.422.129.526.533.518,1.179-.025,2.358,0,3.537-.012a.926.926,0,0,1,.863.4.893.893,0,0,1-.844,1.373q-1.8.033-3.6,0c-.4-.009-.487.122-.484.5q.023,3.6,0,7.193c0,.424.132.516.533.515q8.461-.018,16.922,0c.459,0,.548-.146.544-.569-.019-2.358-.026-4.717,0-7.075.006-.5-.175-.565-.6-.563-3.007.016-6.014.009-9.021.008a1.709,1.709,0,0,1-.754-.087.833.833,0,0,1-.535-.775.809.809,0,0,1,.524-.84,1.954,1.954,0,0,1,.7-.072c3.046,0,6.093-.012,9.139.007.439,0,.567-.108.562-.555-.022-2.378-.027-4.756,0-7.134.006-.5-.169-.564-.6-.561-2.791.017-5.582.009-8.373.009m.013,29.978c-2.848,0-5.7,0-8.545-.006-.349,0-.519.04-.515.465.024,2.671-.034,5.344.031,8.014a8.988,8.988,0,0,0,17.967-.42c.038-2.514,0-5.029.017-7.543,0-.418-.122-.521-.528-.519-2.809.017-5.618.009-8.427.009M21.574,28.228c0,1.316.009,2.632-.006,3.948a.536.536,0,0,0,.384.614c1.409.538,2.809,1.1,4.2,1.671.264.108.365.079.472-.193q1.379-3.5,2.789-6.986c.111-.275.037-.371-.212-.465-.7-.264-1.386-.542-2.074-.827-.622-.257-.859-.733-.637-1.241.207-.476.694-.629,1.306-.394.658.253,1.318.5,1.964.786.306.133.462.141.6-.227q1.342-3.45,2.737-6.879c.123-.3.055-.4-.225-.511q-5.436-2.154-10.86-4.336c-.417-.168-.453-.027-.452.331q.013,3.978,0,7.956a.507.507,0,0,0,.389.552c.7.263,1.389.536,2.072.83a.865.865,0,0,1,.565,1.178.891.891,0,0,1-1.229.462,12.649,12.649,0,0,1-1.252-.507c-.408-.2-.562-.179-.547.347.036,1.3.012,2.593.012,3.889M10.779,39.762c2.827,0,5.655-.008,8.482.009.4,0,.538-.095.534-.518q-.03-3.563,0-7.127c0-.422-.087-.574-.546-.573q-8.453.024-16.905,0c-.438,0-.564.111-.56.555.022,2.356.027,4.712,0,7.068-.007.518.17.6.634.6,2.788-.021,5.576-.01,8.364-.01M10.8,9.788c2.83,0,5.66-.009,8.49.009.414,0,.528-.113.521-.523-.026-1.336.008-2.673-.014-4.009A3.384,3.384,0,0,0,16.235,1.77q-5.454-.005-10.908,0A3.38,3.38,0,0,0,1.788,5.278c-.013,1.336.016,2.673-.014,4.009-.009.429.132.512.531.51,2.83-.017,5.66-.009,8.491-.009M21.533,7.651h.033c0,.983.014,1.965-.007,2.947a.609.609,0,0,0,.446.7q5.742,2.262,11.465,4.572c.374.151.494.058.624-.283.468-1.226.973-2.438,1.448-3.662a3.4,3.4,0,0,0-2-4.664C30.178,5.9,26.808,4.57,23.441,3.229a3.629,3.629,0,0,0-1.312-.295c-.963-.01-.973,0-.749.9a4.213,4.213,0,0,1,.146.928c.019.962.007,1.925.007,2.887m21.24,10.533a3.306,3.306,0,0,0-1.477-2.8c-1.235-.868-2.49-1.708-3.717-2.587-.328-.235-.423-.171-.56.178q-1.26,3.227-2.564,6.437a.454.454,0,0,0,.2.666q2.385,1.619,4.741,3.28c.272.191.418.24.633-.086.69-1.048,1.42-2.07,2.13-3.1a3.282,3.282,0,0,0,.618-1.989m.049,4.162C41.472,24.3,40.163,26.2,38.841,28.1c-.142.2-.062.3.067.446,1.228,1.352,2.456,2.7,3.672,4.065.187.21.3.231.512.036.863-.8,1.771-1.556,2.606-2.386a3.256,3.256,0,0,0,.312-4.305c-.985-1.241-2.1-2.382-3.187-3.606M33.706,21.6c-.2.03-.189.206-.233.317-.9,2.234-1.776,4.475-2.682,6.706a.426.426,0,0,0,.2.617c1.007.681,2.011,1.366,3,2.074.266.191.37.13.536-.112q1.993-2.912,4.016-5.8c.178-.254.153-.364-.1-.538-1.508-1.026-3-2.071-4.5-3.11-.08-.055-.163-.1-.236-.151M21.62,34.579v12.2l.882-2.213q1.566-3.924,3.128-7.849c.074-.186.314-.422-.065-.573-1.3-.517-2.6-1.036-3.944-1.57m11.6-1.559c-.123-.1-.231-.209-.353-.294-.82-.571-1.657-1.118-2.458-1.713-.362-.269-.481-.195-.632.2-.691,1.786-1.416,3.559-2.114,5.342-.205.523-.7,1.106-.521,1.56s.866.674,1.3,1.033c.313.258.46.158.662-.137,1.28-1.877,2.579-3.741,3.87-5.61.077-.111.148-.227.246-.378M29.441,44.913c.066-.055.142-.113.214-.177,1.62-1.458,3.235-2.922,4.865-4.369.257-.228.183-.355-.008-.56-.6-.646-1.213-1.288-1.769-1.973-.325-.4-.456-.286-.694.068-1.032,1.528-2.089,3.04-3.138,4.556-.779,1.126-.781,1.126.165,2.148.1.11.172.265.366.307m-5.848,1.841.112.04q1.666-2.409,3.332-4.817c.758-1.1.757-1.1-.361-1.835a.846.846,0,0,1-.1-.065c-.185-.163-.269-.125-.363.113-.866,2.191-1.746,4.377-2.622,6.564" transform="translate(0 0.001)" fill="#ffa726"/>
    <path id="Trazado_182183" data-name="Trazado 182183" d="M151.213,315.6c0,.088-.056.118-.137.106-.014,0-.025-.023-.038-.035l.165-.088.01.017" transform="translate(-127.233 -265.844)" fill="#ffa726"/>
    <path id="Trazado_182184" data-name="Trazado 182184" d="M48.639,292.338a4.252,4.252,0,1,1-4.066-4.328,4.254,4.254,0,0,1,4.066,4.328m-1.789-.086A2.433,2.433,0,0,0,44.4,289.79a2.466,2.466,0,0,0-2.473,2.456,2.5,2.5,0,0,0,2.467,2.477,2.468,2.468,0,0,0,2.458-2.472" transform="translate(-33.809 -242.616)" fill="#ffa726"/>
    <path id="Trazado_182185" data-name="Trazado 182185" d="M56.416,301.776a2.468,2.468,0,0,1-2.458,2.472,2.5,2.5,0,0,1-2.467-2.477,2.466,2.466,0,0,1,2.473-2.456,2.433,2.433,0,0,1,2.452,2.462" transform="translate(-43.376 -252.14)" fill="#ffa726"/>
  </g>
</svg>
