<svg id="Grupo_120684" data-name="Grupo 120684" xmlns="http://www.w3.org/2000/svg" xmlns:xlink="http://www.w3.org/1999/xlink" width="48.45" height="60.382" viewBox="0 0 48.45 60.382">
  <defs>
    <clipPath id="clip-path">
      <rect id="Rectángulo_37608" data-name="Rectángulo 37608" width="48.45" height="60.382" fill="none"/>
    </clipPath>
  </defs>
  <g id="Grupo_120670" data-name="Grupo 120670" clip-path="url(#clip-path)">
    <path id="Trazado_182167" data-name="Trazado 182167" d="M9.365,60.381c-.846-.337-1.768-.409-2.608-.787A10.6,10.6,0,0,1,.034,49.978C-.029,48.96.016,47.934.016,46.912q0-20.7-.007-41.394A5.19,5.19,0,0,1,2.974.5,4.8,4.8,0,0,1,5.193,0q5.6,0,11.2,0a4.95,4.95,0,0,1,3.388,1.284.581.581,0,0,0,.67.133,4.984,4.984,0,0,1,3.515.118Q29.1,3.576,34.227,5.631a5.071,5.071,0,0,1,3.38,4.67.779.779,0,0,0,.394.655c1.393.953,2.786,1.906,4.169,2.873A5.142,5.142,0,0,1,44,20.512a.5.5,0,0,0,.142.652c.967,1.059,1.934,2.119,2.883,3.195a5.159,5.159,0,0,1-.418,7.513q-2.731,2.474-5.479,4.929a.973.973,0,0,1-1.462.115c-.328-.695-.286-.914.285-1.433.421-.383.836-.775,1.273-1.139.235-.2.247-.325.032-.558q-1.7-1.841-3.359-3.714c-.208-.233-.3-.206-.466.04q-1.894,2.769-3.817,5.518a.394.394,0,0,0,.035.594c.644.688,1.271,1.393,1.9,2.092.559.618.558.619,1.167.07.593-.534.841-.558,1.5-.142a1.04,1.04,0,0,1-.3,1.445q-9.919,8.906-19.823,17.829a10.534,10.534,0,0,1-5.917,2.759c-.041,0-.075.07-.112.107ZM23.98,49.754c1.109-.836,2.079-1.829,3.12-2.743,1.025-.9,1.016-.91-.02-1.875-.549.789-1.112,1.562-1.636,2.36a18.712,18.712,0,0,0-1.475,2.241l-.165.088c.013.012.024.033.038.035.081.012.132-.018.137-.106m-13.15-38.2c-2.85,0-5.7.006-8.55-.008-.371,0-.5.078-.5.479q.029,3.626,0,7.252c0,.422.129.526.533.518,1.179-.025,2.358,0,3.537-.012a.926.926,0,0,1,.863.4.893.893,0,0,1-.844,1.373q-1.8.033-3.6,0c-.4-.009-.487.122-.484.5q.023,3.6,0,7.193c0,.424.132.516.533.515q8.461-.018,16.922,0c.459,0,.548-.146.544-.569-.019-2.358-.026-4.717,0-7.075.006-.5-.175-.565-.6-.563-3.007.016-6.014.009-9.021.008a1.709,1.709,0,0,1-.754-.087.833.833,0,0,1-.535-.775.809.809,0,0,1,.524-.84,1.954,1.954,0,0,1,.7-.072c3.046,0,6.093-.012,9.139.007.439,0,.567-.108.562-.555-.022-2.378-.027-4.756,0-7.134.006-.5-.169-.564-.6-.561-2.791.017-5.582.009-8.373.009m.013,29.978c-2.848,0-5.7,0-8.545-.006-.349,0-.519.04-.515.465.024,2.671-.034,5.344.031,8.014a8.988,8.988,0,0,0,17.967-.42c.038-2.514,0-5.029.017-7.543,0-.418-.122-.521-.528-.519-2.809.017-5.618.009-8.427.009M21.574,28.228c0,1.316.009,2.632-.006,3.948a.536.536,0,0,0,.384.614c1.409.538,2.809,1.1,4.2,1.671.264.108.365.079.472-.193q1.379-3.5,2.789-6.986c.111-.275.037-.371-.212-.465-.7-.264-1.386-.542-2.074-.827-.622-.257-.859-.733-.637-1.241.207-.476.694-.629,1.306-.394.658.253,1.318.5,1.964.786.306.133.462.141.6-.227q1.342-3.45,2.737-6.879c.123-.3.055-.4-.225-.511q-5.436-2.154-10.86-4.336c-.417-.168-.453-.027-.452.331q.013,3.978,0,7.956a.507.507,0,0,0,.389.552c.7.263,1.389.536,2.072.83a.865.865,0,0,1,.565,1.178.891.891,0,0,1-1.229.462,12.649,12.649,0,0,1-1.252-.507c-.408-.2-.562-.179-.547.347.036,1.3.012,2.593.012,3.889M10.779,39.762c2.827,0,5.655-.008,8.482.009.4,0,.538-.095.534-.518q-.03-3.563,0-7.127c0-.422-.087-.574-.546-.573q-8.453.024-16.905,0c-.438,0-.564.111-.56.555.022,2.356.027,4.712,0,7.068-.007.518.17.6.634.6,2.788-.021,5.576-.01,8.364-.01M10.8,9.788c2.83,0,5.66-.009,8.49.009.414,0,.528-.113.521-.523-.026-1.336.008-2.673-.014-4.009A3.384,3.384,0,0,0,16.235,1.77q-5.454-.005-10.908,0A3.38,3.38,0,0,0,1.788,5.278c-.013,1.336.016,2.673-.014,4.009-.009.429.132.512.531.51,2.83-.017,5.66-.009,8.491-.009M21.533,7.651h.033c0,.983.014,1.965-.007,2.947a.609.609,0,0,0,.446.7q5.742,2.262,11.465,4.572c.374.151.494.058.624-.283.468-1.226.973-2.438,1.448-3.662a3.4,3.4,0,0,0-2-4.664C30.178,5.9,26.808,4.57,23.441,3.229a3.629,3.629,0,0,0-1.312-.295c-.963-.01-.973,0-.749.9a4.213,4.213,0,0,1,.146.928c.019.962.007,1.925.007,2.887m21.24,10.533a3.306,3.306,0,0,0-1.477-2.8c-1.235-.868-2.49-1.708-3.717-2.587-.328-.235-.423-.171-.56.178q-1.26,3.227-2.564,6.437a.454.454,0,0,0,.2.666q2.385,1.619,4.741,3.28c.272.191.418.24.633-.086.69-1.048,1.42-2.07,2.13-3.1a3.282,3.282,0,0,0,.618-1.989m.049,4.162C41.472,24.3,40.163,26.2,38.841,28.1c-.142.2-.062.3.067.446,1.228,1.352,2.456,2.7,3.672,4.065.187.21.3.231.512.036.863-.8,1.771-1.556,2.606-2.386a3.256,3.256,0,0,0,.312-4.305c-.985-1.241-2.1-2.382-3.187-3.606M33.706,21.6c-.2.03-.189.206-.233.317-.9,2.234-1.776,4.475-2.682,6.706a.426.426,0,0,0,.2.617c1.007.681,2.011,1.366,3,2.074.266.191.37.13.536-.112q1.993-2.912,4.016-5.8c.178-.254.153-.364-.1-.538-1.508-1.026-3-2.071-4.5-3.11-.08-.055-.163-.1-.236-.151M21.62,34.579v12.2l.882-2.213q1.566-3.924,3.128-7.849c.074-.186.314-.422-.065-.573-1.3-.517-2.6-1.036-3.944-1.57m11.6-1.559c-.123-.1-.231-.209-.353-.294-.82-.571-1.657-1.118-2.458-1.713-.362-.269-.481-.195-.632.2-.691,1.786-1.416,3.559-2.114,5.342-.205.523-.7,1.106-.521,1.56s.866.674,1.3,1.033c.313.258.46.158.662-.137,1.28-1.877,2.579-3.741,3.87-5.61.077-.111.148-.227.246-.378M29.441,44.913c.066-.055.142-.113.214-.177,1.62-1.458,3.235-2.922,4.865-4.369.257-.228.183-.355-.008-.56-.6-.646-1.213-1.288-1.769-1.973-.325-.4-.456-.286-.694.068-1.032,1.528-2.089,3.04-3.138,4.556-.779,1.126-.781,1.126.165,2.148.1.11.172.265.366.307m-5.848,1.841.112.04q1.666-2.409,3.332-4.817c.758-1.1.757-1.1-.361-1.835a.846.846,0,0,1-.1-.065c-.185-.163-.269-.125-.363.113-.866,2.191-1.746,4.377-2.622,6.564" transform="translate(0 0.001)" fill="#040303"/>
    <path id="Trazado_182168" data-name="Trazado 182168" d="M217.27,198.11c-.664-.416-.911-.392-1.5.142-.609.549-.608.548-1.167-.07-.632-.7-1.258-1.4-1.9-2.092a.394.394,0,0,1-.035-.593q1.923-2.749,3.817-5.518c.168-.245.258-.273.466-.04q1.665,1.87,3.359,3.714c.215.233.2.362-.032.558-.437.364-.852.756-1.273,1.139-.571.519-.613.738-.285,1.433l-1.442,1.328" transform="translate(-179.045 -159.868)" fill="#f57c00"/>
    <path id="Trazado_182169" data-name="Trazado 182169" d="M20.354,73.3c2.791,0,5.582.008,8.373-.009.431,0,.606.066.6.561-.029,2.378-.025,4.756,0,7.134,0,.447-.123.558-.562.555-3.046-.019-6.093-.012-9.139-.007a1.953,1.953,0,0,0-.7.073.809.809,0,0,0-.524.84.833.833,0,0,0,.535.775,1.709,1.709,0,0,0,.754.087c3.007,0,6.014.008,9.021-.008.43,0,.61.064.6.563-.029,2.358-.023,4.717,0,7.075,0,.423-.085.57-.544.569q-8.461-.025-16.922,0c-.4,0-.536-.091-.533-.515q.03-3.6,0-7.193c0-.376.088-.506.484-.5q1.8.038,3.6,0a.893.893,0,0,0,.844-1.373.926.926,0,0,0-.863-.4c-1.179.008-2.359-.013-3.538.012-.4.009-.536-.1-.533-.518q.03-3.626,0-7.252c0-.4.127-.481.5-.479,2.85.014,5.7.008,8.55.008" transform="translate(-9.525 -61.736)" fill="#ffa726"/>
    <path id="Trazado_182170" data-name="Trazado 182170" d="M20.366,263.5c2.809,0,5.618.008,8.427-.009.406,0,.532.1.528.519-.019,2.514.021,5.029-.017,7.543a8.988,8.988,0,0,1-17.967.42c-.065-2.67-.007-5.343-.031-8.014,0-.425.166-.466.515-.465,2.848.011,5.7.006,8.545.006m3.987,8.184a4.252,4.252,0,0,0-8.5-.177,4.252,4.252,0,1,0,8.5.177" transform="translate(-9.523 -221.965)" fill="#fdfdfd"/>
    <path id="Trazado_182171" data-name="Trazado 182171" d="M136.812,98.347c0-1.3.024-2.594-.012-3.889-.015-.526.139-.545.547-.347a12.6,12.6,0,0,0,1.252.507.891.891,0,0,0,1.229-.462.864.864,0,0,0-.565-1.178c-.683-.294-1.376-.567-2.072-.83a.507.507,0,0,1-.389-.552q.02-3.978,0-7.956c0-.359.035-.5.452-.331q5.422,2.188,10.86,4.336c.28.111.348.208.225.511q-1.392,3.43-2.737,6.879c-.143.368-.3.36-.6.227-.646-.281-1.306-.533-1.964-.786-.612-.235-1.1-.082-1.306.394-.221.509.016.984.638,1.241.688.284,1.378.563,2.074.827.249.094.323.19.212.465q-1.412,3.486-2.789,6.985c-.107.271-.208.3-.472.193-1.4-.573-2.8-1.133-4.2-1.671a.536.536,0,0,1-.384-.614c.015-1.316.006-2.632.006-3.948" transform="translate(-115.239 -70.118)" fill="#fdd835"/>
    <path id="Trazado_182172" data-name="Trazado 182172" d="M20.29,208.412c-2.788,0-5.576-.011-8.364.01-.464,0-.641-.077-.634-.6.03-2.356.025-4.712,0-7.068,0-.444.122-.556.56-.555q8.453.022,16.905,0c.459,0,.55.151.546.573q-.027,3.563,0,7.127c0,.423-.132.52-.534.518-2.827-.016-5.655-.009-8.482-.009" transform="translate(-9.512 -168.65)" fill="#9b5003"/>
    <path id="Trazado_182173" data-name="Trazado 182173" d="M20.276,19.242c-2.83,0-5.66-.008-8.491.009-.4,0-.54-.081-.531-.51.029-1.336,0-2.673.013-4.009a3.38,3.38,0,0,1,3.539-3.508q5.454-.006,10.908,0a3.384,3.384,0,0,1,3.557,3.495c.023,1.336-.011,2.673.014,4.009.008.41-.106.526-.52.523-2.83-.018-5.66-.009-8.491-.009" transform="translate(-9.48 -9.453)" fill="#ffd1a2"/>
    <path id="Trazado_182174" data-name="Trazado 182174" d="M135.164,23.335c0-.963.012-1.925-.007-2.888a4.214,4.214,0,0,0-.146-.927c-.224-.9-.214-.911.749-.9a3.625,3.625,0,0,1,1.312.295c3.367,1.34,6.736,2.674,10.1,4.027a3.4,3.4,0,0,1,2,4.664c-.475,1.224-.98,2.436-1.448,3.662-.13.341-.25.434-.624.283q-5.723-2.309-11.465-4.572a.609.609,0,0,1-.446-.7c.021-.982.007-1.965.007-2.948h-.033" transform="translate(-113.632 -15.683)" fill="#fff3bf"/>
    <path id="Trazado_182175" data-name="Trazado 182175" d="M226.553,85.872a3.282,3.282,0,0,1-.618,1.989c-.71,1.035-1.44,2.056-2.13,3.1-.215.326-.361.277-.633.086q-2.357-1.658-4.741-3.28a.454.454,0,0,1-.2-.666q1.305-3.209,2.564-6.437c.136-.349.231-.413.56-.178,1.228.878,2.482,1.719,3.717,2.587a3.306,3.306,0,0,1,1.477,2.8" transform="translate(-183.781 -67.686)" fill="#b1f9ff"/>
    <path id="Trazado_182176" data-name="Trazado 182176" d="M250.022,141.789c1.091,1.224,2.2,2.365,3.187,3.606a3.256,3.256,0,0,1-.312,4.305c-.835.829-1.743,1.584-2.606,2.386-.211.2-.325.174-.512-.036-1.215-1.363-2.444-2.714-3.671-4.065-.129-.142-.209-.243-.067-.446,1.322-1.894,2.631-3.8,3.981-5.749" transform="translate(-207.2 -119.442)" fill="#ffa726"/>
    <path id="Trazado_182177" data-name="Trazado 182177" d="M197.963,137.038c.072.046.156.1.236.151,1.5,1.038,2.993,2.084,4.5,3.11.255.173.28.283.1.537q-2.024,2.891-4.016,5.8c-.166.242-.27.3-.536.112-.988-.708-1.992-1.394-3-2.074a.426.426,0,0,1-.2-.617c.906-2.23,1.786-4.471,2.682-6.706.045-.111.034-.287.233-.317" transform="translate(-164.257 -115.44)" fill="#26ccda"/>
    <path id="Trazado_182178" data-name="Trazado 182178" d="M137.176,219.408c1.341.534,2.642,1.053,3.944,1.57.379.151.139.387.065.573q-1.557,3.927-3.128,7.849l-.882,2.213Z" transform="translate(-115.556 -184.828)" fill="#d9ba2e"/>
    <path id="Trazado_182179" data-name="Trazado 182179" d="M178.091,197.933c-.1.151-.169.267-.246.378-1.292,1.869-2.59,3.734-3.87,5.61-.2.3-.349.4-.662.137-.435-.359-1.127-.588-1.3-1.033s.316-1.037.521-1.56c.7-1.783,1.424-3.556,2.114-5.342.152-.392.27-.467.633-.2.8.595,1.638,1.142,2.458,1.713.122.085.23.191.353.294" transform="translate(-144.87 -164.912)" fill="#1fa4af"/>
    <path id="Trazado_182180" data-name="Trazado 182180" d="M180.938,245.782c-.194-.042-.264-.2-.366-.307-.946-1.022-.944-1.023-.165-2.148,1.049-1.517,2.106-3.028,3.138-4.556.239-.354.369-.469.694-.068.556.686,1.167,1.327,1.769,1.973.19.2.265.331.008.56-1.63,1.447-3.245,2.911-4.865,4.369-.071.064-.148.123-.214.177" transform="translate(-151.498 -200.868)" fill="#d06a01"/>
    <path id="Trazado_182181" data-name="Trazado 182181" d="M149.692,260.43c.876-2.187,1.756-4.373,2.622-6.564.094-.238.178-.276.363-.113a.844.844,0,0,0,.1.065c1.118.735,1.12.737.361,1.835q-1.664,2.41-3.332,4.817l-.112-.04" transform="translate(-126.1 -213.676)" fill="#106f77"/>
    <path id="Trazado_182182" data-name="Trazado 182182" d="M152.081,290.991a18.774,18.774,0,0,1,1.475-2.241c.524-.8,1.087-1.571,1.636-2.36,1.035.966,1.045.976.02,1.875-1.041.913-2.012,1.907-3.12,2.743Z" transform="translate(-128.112 -241.253)" fill="#9b5003"/>
    <path id="Trazado_182183" data-name="Trazado 182183" d="M151.213,315.6c0,.088-.056.118-.137.106-.014,0-.025-.023-.038-.035l.165-.088.01.017" transform="translate(-127.233 -265.844)" fill="#9af5d0"/>
    <path id="Trazado_182184" data-name="Trazado 182184" d="M48.639,292.338a4.252,4.252,0,1,1-4.066-4.328,4.254,4.254,0,0,1,4.066,4.328m-1.789-.086A2.433,2.433,0,0,0,44.4,289.79a2.466,2.466,0,0,0-2.473,2.456,2.5,2.5,0,0,0,2.467,2.477,2.468,2.468,0,0,0,2.458-2.472" transform="translate(-33.809 -242.616)" fill="#040303"/>
    <path id="Trazado_182185" data-name="Trazado 182185" d="M56.416,301.776a2.468,2.468,0,0,1-2.458,2.472,2.5,2.5,0,0,1-2.467-2.477,2.466,2.466,0,0,1,2.473-2.456,2.433,2.433,0,0,1,2.452,2.462" transform="translate(-43.376 -252.14)" fill="#fdfdfd"/>
  </g>
</svg>
